<?xml version="1.0" encoding="UTF-8" standalone="no"?>
<!DOCTYPE svg PUBLIC "-//W3C//DTD SVG 1.1//EN"
 "http://www.w3.org/Graphics/SVG/1.1/DTD/svg11.dtd">
<!-- Generated by graphviz version 10.0.1 (0)
 -->
<!-- Title: validation_api::ValidationServer::accept Pages: 1 -->
<svg width="1078pt" height="338pt"
 viewBox="0.00 0.00 1078.25 338.12" xmlns="http://www.w3.org/2000/svg" xmlns:xlink="http://www.w3.org/1999/xlink">
<g id="graph0" class="graph" transform="scale(1 1) rotate(0) translate(4 334.12)">
<title>validation_api::ValidationServer::accept</title>
<!-- Node1 -->
<g id="Node000001" class="node">
<title>Node1</title>
<g id="a_Node000001"><a xlink:title="Accept a connection.">
<polygon fill="#999999" stroke="#666666" points="139.75,-285.12 0,-285.12 0,-251.62 139.75,-251.62 139.75,-285.12"/>
<text text-anchor="start" x="8" y="-271.62" font-family="Helvetica,sans-Serif" font-size="10.00">validation_api::Validation</text>
<text text-anchor="middle" x="69.88" y="-258.88" font-family="Helvetica,sans-Serif" font-size="10.00">Server::accept</text>
</a>
</g>
</g>
<!-- Node2 -->
<g id="Node000002" class="node">
<title>Node2</title>
<g id="a_Node000002"><a xlink:href="classvalidation__api_1_1ValidationServer.html#a59c4a313effe28cc0acca7b8bb3a26e4" target="_top" xlink:title=" ">
<polygon fill="white" stroke="#666666" points="324.5,-330.12 184.75,-330.12 184.75,-296.62 324.5,-296.62 324.5,-330.12"/>
<text text-anchor="start" x="192.75" y="-316.62" font-family="Helvetica,sans-Serif" font-size="10.00">validation_api::Validation</text>
<text text-anchor="middle" x="254.62" y="-303.88" font-family="Helvetica,sans-Serif" font-size="10.00">Server::asyncWriter</text>
</a>
</g>
</g>
<!-- Node1&#45;&gt;Node2 -->
<g id="edge1_Node000001_Node000002" class="edge">
<title>Node1&#45;&gt;Node2</title>
<g id="a_edge1_Node000001_Node000002"><a xlink:title=" ">
<path fill="none" stroke="#63b8ff" d="M140.23,-285.45C151.05,-288.12 162.32,-290.89 173.37,-293.61"/>
<polygon fill="#63b8ff" stroke="#63b8ff" points="172.31,-296.96 182.85,-295.95 173.98,-290.16 172.31,-296.96"/>
</a>
</g>
</g>
<!-- Node3 -->
<g id="Node000003" class="node">
<title>Node3</title>
<g id="a_Node000003"><a xlink:href="namespacevalidation__api.html#a402f9de5ae5cfa713cc6681b7ea2880c" target="_top" xlink:title=" ">
<polygon fill="white" stroke="#666666" points="329.75,-278.75 179.5,-278.75 179.5,-258 329.75,-258 329.75,-278.75"/>
<text text-anchor="middle" x="254.62" y="-265.25" font-family="Helvetica,sans-Serif" font-size="10.00">validation_api::errorsToJson</text>
</a>
</g>
</g>
<!-- Node1&#45;&gt;Node3 -->
<g id="edge2_Node000001_Node000003" class="edge">
<title>Node1&#45;&gt;Node3</title>
<g id="a_edge2_Node000001_Node000003"><a xlink:title=" ">
<path fill="none" stroke="#63b8ff" d="M140.23,-268.38C149.27,-268.38 158.62,-268.38 167.9,-268.38"/>
<polygon fill="#63b8ff" stroke="#63b8ff" points="167.63,-271.88 177.63,-268.38 167.63,-264.88 167.63,-271.88"/>
</a>
</g>
</g>
<!-- Node4 -->
<g id="Node000004" class="node">
<title>Node4</title>
<g id="a_Node000004"><a xlink:href="classvalidation__api_1_1ConfigService.html#a654e84f4f588f7391f93210c1e08344f" target="_top" xlink:title="getConfigs method">
<polygon fill="white" stroke="#666666" points="333.5,-240.12 175.75,-240.12 175.75,-206.62 333.5,-206.62 333.5,-240.12"/>
<text text-anchor="start" x="183.75" y="-226.62" font-family="Helvetica,sans-Serif" font-size="10.00">validation_api::ConfigService</text>
<text text-anchor="middle" x="254.62" y="-213.88" font-family="Helvetica,sans-Serif" font-size="10.00">::validateConfig</text>
</a>
</g>
</g>
<!-- Node1&#45;&gt;Node4 -->
<g id="edge3_Node000001_Node000004" class="edge">
<title>Node1&#45;&gt;Node4</title>
<g id="a_edge3_Node000001_Node000004"><a xlink:title=" ">
<path fill="none" stroke="#63b8ff" d="M140.23,-251.3C150.79,-248.7 161.78,-245.99 172.57,-243.33"/>
<polygon fill="#63b8ff" stroke="#63b8ff" points="173.37,-246.74 182.25,-240.95 171.7,-239.94 173.37,-246.74"/>
</a>
</g>
</g>
<!-- Node5 -->
<g id="Node000005" class="node">
<title>Node5</title>
<g id="a_Node000005"><a xlink:href="classvalidation__api_1_1Validation.html#ac6c337d3af39943a8e603a5f21f5922a" target="_top" xlink:title=" ">
<polygon fill="white" stroke="#666666" points="531,-233.75 369.5,-233.75 369.5,-213 531,-213 531,-233.75"/>
<text text-anchor="middle" x="450.25" y="-220.25" font-family="Helvetica,sans-Serif" font-size="10.00">validation_api::Validation::run</text>
</a>
</g>
</g>
<!-- Node4&#45;&gt;Node5 -->
<g id="edge4_Node000004_Node000005" class="edge">
<title>Node4&#45;&gt;Node5</title>
<g id="a_edge4_Node000004_Node000005"><a xlink:title=" ">
<path fill="none" stroke="#63b8ff" d="M333.82,-223.38C341.74,-223.38 349.83,-223.38 357.87,-223.38"/>
<polygon fill="#63b8ff" stroke="#63b8ff" points="357.67,-226.88 367.67,-223.38 357.67,-219.88 357.67,-226.88"/>
</a>
</g>
</g>
<!-- Node6 -->
<g id="Node000006" class="node">
<title>Node6</title>
<g id="a_Node000006"><a xlink:href="classvalidation__api_1_1Validation.html#a3c8146fc89af5b8cef0c1bb6c9d473f2" target="_top" xlink:title="Traverse through the json object and validate the fields.">
<polygon fill="white" stroke="#666666" points="706.75,-240.12 567,-240.12 567,-206.62 706.75,-206.62 706.75,-240.12"/>
<text text-anchor="start" x="575" y="-226.62" font-family="Helvetica,sans-Serif" font-size="10.00">validation_api::Validation</text>
<text text-anchor="middle" x="636.88" y="-213.88" font-family="Helvetica,sans-Serif" font-size="10.00">::traverseAndValidate</text>
</a>
</g>
</g>
<!-- Node5&#45;&gt;Node6 -->
<g id="edge5_Node000005_Node000006" class="edge">
<title>Node5&#45;&gt;Node6</title>
<g id="a_edge5_Node000005_Node000006"><a xlink:title=" ">
<path fill="none" stroke="#63b8ff" d="M531.42,-223.38C539.34,-223.38 547.37,-223.38 555.28,-223.38"/>
<polygon fill="#63b8ff" stroke="#63b8ff" points="555.26,-226.88 565.26,-223.38 555.26,-219.88 555.26,-226.88"/>
</a>
</g>
</g>
<!-- Node6&#45;&gt;Node6 -->
<g id="edge9_Node000006_Node000006" class="edge">
<title>Node6&#45;&gt;Node6</title>
<g id="a_edge9_Node000006_Node000006"><a xlink:title=" ">
<path fill="none" stroke="#63b8ff" d="M605.28,-240.54C599.91,-249.74 610.44,-258.12 636.88,-258.12 651.74,-258.12 661.58,-255.47 666.39,-251.51"/>
<polygon fill="#63b8ff" stroke="#63b8ff" points="669.76,-252.5 668.19,-242.03 662.88,-251.2 669.76,-252.5"/>
</a>
</g>
</g>
<!-- Node7 -->
<g id="Node000007" class="node">
<title>Node7</title>
<g id="a_Node000007"><a xlink:href="classvalidation__api_1_1ErrorBuilder.html#a84327bbfe6c61e7be6966acc41ba6087" target="_top" xlink:title="Set the First Msg object.">
<polygon fill="white" stroke="#666666" points="1068.75,-310.12 920,-310.12 920,-276.62 1068.75,-276.62 1068.75,-310.12"/>
<text text-anchor="start" x="928" y="-296.62" font-family="Helvetica,sans-Serif" font-size="10.00">validation_api::ErrorBuilder</text>
<text text-anchor="middle" x="994.38" y="-283.88" font-family="Helvetica,sans-Serif" font-size="10.00">::build</text>
</a>
</g>
</g>
<!-- Node6&#45;&gt;Node7 -->
<g id="edge6_Node000006_Node000007" class="edge">
<title>Node6&#45;&gt;Node7</title>
<g id="a_edge6_Node000006_Node000007"><a xlink:title=" ">
<path fill="none" stroke="#63b8ff" d="M706.84,-236.95C764.44,-248.3 846.79,-264.51 908.44,-276.65"/>
<polygon fill="#63b8ff" stroke="#63b8ff" points="907.73,-280.08 918.22,-278.58 909.08,-273.21 907.73,-280.08"/>
</a>
</g>
</g>
<!-- Node8 -->
<g id="Node000008" class="node">
<title>Node8</title>
<g id="a_Node000008"><a xlink:href="classvalidation__api_1_1Validation.html#a2005828d7e475090ef5a895348bfb760" target="_top" xlink:title=" ">
<polygon fill="white" stroke="#666666" points="1064.25,-240.12 924.5,-240.12 924.5,-206.62 1064.25,-206.62 1064.25,-240.12"/>
<text text-anchor="start" x="932.5" y="-226.62" font-family="Helvetica,sans-Serif" font-size="10.00">validation_api::Validation</text>
<text text-anchor="middle" x="994.38" y="-213.88" font-family="Helvetica,sans-Serif" font-size="10.00">::findJsonField</text>
</a>
</g>
</g>
<!-- Node6&#45;&gt;Node8 -->
<g id="edge7_Node000006_Node000008" class="edge">
<title>Node6&#45;&gt;Node8</title>
<g id="a_edge7_Node000006_Node000008"><a xlink:title=" ">
<path fill="none" stroke="#63b8ff" d="M706.84,-223.38C765.86,-223.38 850.88,-223.38 912.98,-223.38"/>
<polygon fill="#63b8ff" stroke="#63b8ff" points="912.79,-226.88 922.79,-223.38 912.79,-219.88 912.79,-226.88"/>
</a>
</g>
</g>
<!-- Node9 -->
<g id="Node000009" class="node">
<title>Node9</title>
<g id="a_Node000009"><a xlink:href="classvalidation__api_1_1Validation.html#a1cc0802269d88c233ad3c3d1d6c3dd12" target="_top" xlink:title=" ">
<polygon fill="white" stroke="#666666" points="882.5,-176.12 742.75,-176.12 742.75,-142.62 882.5,-142.62 882.5,-176.12"/>
<text text-anchor="start" x="750.75" y="-162.62" font-family="Helvetica,sans-Serif" font-size="10.00">validation_api::Validation</text>
<text text-anchor="middle" x="812.62" y="-149.88" font-family="Helvetica,sans-Serif" font-size="10.00">::validate</text>
</a>
</g>
</g>
<!-- Node6&#45;&gt;Node9 -->
<g id="edge10_Node000006_Node000009" class="edge">
<title>Node6&#45;&gt;Node9</title>
<g id="a_edge10_Node000006_Node000009"><a xlink:title=" ">
<path fill="none" stroke="#63b8ff" d="M684.44,-206.22C705.96,-198.3 731.72,-188.81 754.41,-180.45"/>
<polygon fill="#63b8ff" stroke="#63b8ff" points="755.34,-183.84 763.51,-177.1 752.92,-177.27 755.34,-183.84"/>
</a>
</g>
</g>
<!-- Node8&#45;&gt;Node8 -->
<g id="edge8_Node000008_Node000008" class="edge">
<title>Node8&#45;&gt;Node8</title>
<g id="a_edge8_Node000008_Node000008"><a xlink:title=" ">
<path fill="none" stroke="#63b8ff" d="M961.7,-240.54C956.15,-249.74 967.04,-258.12 994.38,-258.12 1009.75,-258.12 1019.92,-255.47 1024.89,-251.51"/>
<polygon fill="#63b8ff" stroke="#63b8ff" points="1028.26,-252.51 1026.76,-242.02 1021.39,-251.16 1028.26,-252.51"/>
</a>
</g>
</g>
<!-- Node9&#45;&gt;Node7 -->
<g id="edge11_Node000009_Node000007" class="edge">
<title>Node9&#45;&gt;Node7</title>
<g id="a_edge11_Node000009_Node000007"><a xlink:title=" ">
<path fill="none" stroke="#63b8ff" d="M825.97,-176.38C843.89,-199.93 879.26,-242.38 918.5,-267.38 920.62,-268.73 922.82,-270.02 925.08,-271.25"/>
<polygon fill="#63b8ff" stroke="#63b8ff" points="923.4,-274.32 933.91,-275.61 926.5,-268.05 923.4,-274.32"/>
</a>
</g>
</g>
<!-- Node9&#45;&gt;Node8 -->
<g id="edge12_Node000009_Node000008" class="edge">
<title>Node9&#45;&gt;Node8</title>
<g id="a_edge12_Node000009_Node000008"><a xlink:title=" ">
<path fill="none" stroke="#63b8ff" d="M860.56,-176.53C878.65,-183.11 899.52,-190.64 918.5,-197.38 923.15,-199.02 927.96,-200.72 932.81,-202.42"/>
<polygon fill="#63b8ff" stroke="#63b8ff" points="931.38,-205.63 941.97,-205.63 933.69,-199.02 931.38,-205.63"/>
</a>
</g>
</g>
<!-- Node10 -->
<g id="Node000010" class="node">
<title>Node10</title>
<g id="a_Node000010"><a xlink:href="namespacevalidation__api.html#ac19e25b4d8364b0f52152440dd5ecbda" target="_top" xlink:title=" ">
<polygon fill="white" stroke="#666666" points="1067.25,-149.75 921.5,-149.75 921.5,-129 1067.25,-129 1067.25,-149.75"/>
<text text-anchor="middle" x="994.38" y="-136.25" font-family="Helvetica,sans-Serif" font-size="10.00">validation_api::isValidUuid</text>
</a>
</g>
</g>
<!-- Node9&#45;&gt;Node10 -->
<g id="edge13_Node000009_Node000010" class="edge">
<title>Node9&#45;&gt;Node10</title>
<g id="a_edge13_Node000009_Node000010"><a xlink:title=" ">
<path fill="none" stroke="#63b8ff" d="M882.86,-151.67C891.7,-150.69 900.81,-149.67 909.83,-148.67"/>
<polygon fill="#63b8ff" stroke="#63b8ff" points="910.14,-152.16 919.69,-147.57 909.36,-145.2 910.14,-152.16"/>
</a>
</g>
</g>
<!-- Node11 -->
<g id="Node000011" class="node">
<title>Node11</title>
<g id="a_Node000011"><a xlink:href="classvalidation__api_1_1ErrorBuilder.html#a014e70c2f2b4a2ee879c363b4a2174f2" target="_top" xlink:title="Set the First Msg object.">
<polygon fill="white" stroke="#666666" points="1068.75,-111.12 920,-111.12 920,-77.62 1068.75,-77.62 1068.75,-111.12"/>
<text text-anchor="start" x="928" y="-97.62" font-family="Helvetica,sans-Serif" font-size="10.00">validation_api::ErrorBuilder</text>
<text text-anchor="middle" x="994.38" y="-84.88" font-family="Helvetica,sans-Serif" font-size="10.00">::setSecondMsg</text>
</a>
</g>
</g>
<!-- Node9&#45;&gt;Node11 -->
<g id="edge14_Node000009_Node000011" class="edge">
<title>Node9&#45;&gt;Node11</title>
<g id="a_edge14_Node000009_Node000011"><a xlink:title=" ">
<path fill="none" stroke="#63b8ff" d="M859.23,-142.17C877.61,-135.3 899.03,-127.37 918.5,-120.38 923.14,-118.71 927.95,-117 932.79,-115.29"/>
<polygon fill="#63b8ff" stroke="#63b8ff" points="933.68,-118.68 941.95,-112.07 931.36,-112.08 933.68,-118.68"/>
</a>
</g>
</g>
<!-- Node12 -->
<g id="Node000012" class="node">
<title>Node12</title>
<g id="a_Node000012"><a xlink:href="namespacevalidation__api.html#a6dd56dcf7358b332bb906a2d27fddd0b" target="_top" xlink:title="Converts string to all lowercase.">
<polygon fill="white" stroke="#666666" points="1059.38,-59.75 929.38,-59.75 929.38,-39 1059.38,-39 1059.38,-59.75"/>
<text text-anchor="middle" x="994.38" y="-46.25" font-family="Helvetica,sans-Serif" font-size="10.00">validation_api::toLower</text>
</a>
</g>
</g>
<!-- Node9&#45;&gt;Node12 -->
<g id="edge15_Node000009_Node000012" class="edge">
<title>Node9&#45;&gt;Node12</title>
<g id="a_edge15_Node000009_Node000012"><a xlink:title=" ">
<path fill="none" stroke="#63b8ff" d="M828.55,-142.26C847.45,-121.66 881.97,-87.47 918.5,-68.38 921.4,-66.86 924.42,-65.46 927.52,-64.17"/>
<polygon fill="#63b8ff" stroke="#63b8ff" points="928.7,-67.47 936.87,-60.71 926.27,-60.9 928.7,-67.47"/>
</a>
</g>
</g>
<!-- Node13 -->
<g id="Node000013" class="node">
<title>Node13</title>
<g id="a_Node000013"><a xlink:href="namespacevalidation__api.html#aae32fd7a0b5886a49454679d46ed4bd1" target="_top" xlink:title="Validates Ahv string.">
<polygon fill="white" stroke="#666666" points="1069.12,-20.75 919.62,-20.75 919.62,0 1069.12,0 1069.12,-20.75"/>
<text text-anchor="middle" x="994.38" y="-7.25" font-family="Helvetica,sans-Serif" font-size="10.00">validation_api::validateAhv</text>
</a>
</g>
</g>
<!-- Node9&#45;&gt;Node13 -->
<g id="edge16_Node000009_Node000013" class="edge">
<title>Node9&#45;&gt;Node13</title>
<g id="a_edge16_Node000009_Node000013"><a xlink:title=" ">
<path fill="none" stroke="#63b8ff" d="M822.75,-142.26C838.49,-114.43 873.44,-59.55 918.5,-30.38 921.2,-28.63 924.05,-27.03 926.99,-25.57"/>
<polygon fill="#63b8ff" stroke="#63b8ff" points="928.12,-28.9 935.92,-21.73 925.35,-22.47 928.12,-28.9"/>
</a>
</g>
</g>
<!-- Node14 -->
<g id="Node000014" class="node">
<title>Node14</title>
<g id="a_Node000014"><a xlink:href="namespacevalidation__api.html#a0a2b975e162ced567ba3a6075684092a" target="_top" xlink:title="Validates Iban string.">
<polygon fill="white" stroke="#666666" points="1070.25,-188.75 918.5,-188.75 918.5,-168 1070.25,-168 1070.25,-188.75"/>
<text text-anchor="middle" x="994.38" y="-175.25" font-family="Helvetica,sans-Serif" font-size="10.00">validation_api::validateIban</text>
</a>
</g>
</g>
<!-- Node9&#45;&gt;Node14 -->
<g id="edge17_Node000009_Node000014" class="edge">
<title>Node9&#45;&gt;Node14</title>
<g id="a_edge17_Node000009_Node000014"><a xlink:title=" ">
<path fill="none" stroke="#63b8ff" d="M882.86,-166.69C890.73,-167.53 898.82,-168.38 906.87,-169.23"/>
<polygon fill="#63b8ff" stroke="#63b8ff" points="906.38,-172.7 916.69,-170.27 907.12,-165.74 906.38,-172.7"/>
</a>
</g>
</g>
</g>
</svg>
