<?xml version="1.0" encoding="UTF-8" standalone="no"?>
<!DOCTYPE svg PUBLIC "-//W3C//DTD SVG 1.1//EN"
 "http://www.w3.org/Graphics/SVG/1.1/DTD/svg11.dtd">
<!-- Generated by graphviz version 10.0.1 (0)
 -->
<!-- Title: validation_api::ValidationServer::accept Pages: 1 -->
<svg width="1263pt" height="550pt"
 viewBox="0.00 0.00 1263.00 550.22" xmlns="http://www.w3.org/2000/svg" xmlns:xlink="http://www.w3.org/1999/xlink">
<g id="graph0" class="graph" transform="scale(1 1) rotate(0) translate(4 546.22)">
<title>validation_api::ValidationServer::accept</title>
<!-- Node1 -->
<g id="Node000001" class="node">
<title>Node1</title>
<g id="a_Node000001"><a xlink:title="Accept a connection.">
<polygon fill="#999999" stroke="#666666" points="139.75,-516.22 0,-516.22 0,-482.72 139.75,-482.72 139.75,-516.22"/>
<text text-anchor="start" x="8" y="-502.72" font-family="Helvetica,sans-Serif" font-size="10.00">validation_api::Validation</text>
<text text-anchor="middle" x="69.88" y="-489.97" font-family="Helvetica,sans-Serif" font-size="10.00">Server::accept</text>
</a>
</g>
</g>
<!-- Node2 -->
<g id="Node000002" class="node">
<title>Node2</title>
<g id="a_Node000002"><a xlink:href="classvalidation__api_1_1ValidationServer.html#a59c4a313effe28cc0acca7b8bb3a26e4" target="_top" xlink:title=" ">
<polygon fill="white" stroke="#666666" points="324.5,-542.22 184.75,-542.22 184.75,-508.72 324.5,-508.72 324.5,-542.22"/>
<text text-anchor="start" x="192.75" y="-528.72" font-family="Helvetica,sans-Serif" font-size="10.00">validation_api::Validation</text>
<text text-anchor="middle" x="254.62" y="-515.97" font-family="Helvetica,sans-Serif" font-size="10.00">Server::asyncWriter</text>
</a>
</g>
</g>
<!-- Node1&#45;&gt;Node2 -->
<g id="edge1_Node000001_Node000002" class="edge">
<title>Node1&#45;&gt;Node2</title>
<g id="a_edge1_Node000001_Node000002"><a xlink:title=" ">
<path fill="none" stroke="#63b8ff" d="M140.23,-509.34C150.94,-510.86 162.09,-512.45 173.03,-514.01"/>
<polygon fill="#63b8ff" stroke="#63b8ff" points="172.43,-517.46 182.82,-515.4 173.42,-510.53 172.43,-517.46"/>
</a>
</g>
</g>
<!-- Node3 -->
<g id="Node000003" class="node">
<title>Node3</title>
<g id="a_Node000003"><a xlink:href="classvalidation__api_1_1ConfigService.html#a654e84f4f588f7391f93210c1e08344f" target="_top" xlink:title="getConfigs method">
<polygon fill="white" stroke="#666666" points="333.5,-490.22 175.75,-490.22 175.75,-456.72 333.5,-456.72 333.5,-490.22"/>
<text text-anchor="start" x="183.75" y="-476.72" font-family="Helvetica,sans-Serif" font-size="10.00">validation_api::ConfigService</text>
<text text-anchor="middle" x="254.62" y="-463.97" font-family="Helvetica,sans-Serif" font-size="10.00">::validateConfig</text>
</a>
</g>
</g>
<!-- Node1&#45;&gt;Node3 -->
<g id="edge2_Node000001_Node000003" class="edge">
<title>Node1&#45;&gt;Node3</title>
<g id="a_edge2_Node000001_Node000003"><a xlink:title=" ">
<path fill="none" stroke="#63b8ff" d="M140.23,-489.61C148.05,-488.49 156.1,-487.35 164.14,-486.2"/>
<polygon fill="#63b8ff" stroke="#63b8ff" points="164.55,-489.68 173.96,-484.81 163.56,-482.75 164.55,-489.68"/>
</a>
</g>
</g>
<!-- Node4 -->
<g id="Node000004" class="node">
<title>Node4</title>
<g id="a_Node000004"><a xlink:href="namespacevalidation__api.html#ac3e8e6ef097973f55220fc4fdeb08dc2" target="_top" xlink:title="Error builder.">
<polygon fill="white" stroke="#666666" points="1255,-391.85 1106.25,-391.85 1106.25,-371.1 1255,-371.1 1255,-391.85"/>
<text text-anchor="middle" x="1180.62" y="-378.35" font-family="Helvetica,sans-Serif" font-size="10.00">validation_api::errorBuilder</text>
</a>
</g>
</g>
<!-- Node3&#45;&gt;Node4 -->
<g id="edge3_Node000003_Node000004" class="edge">
<title>Node3&#45;&gt;Node4</title>
<g id="a_edge3_Node000003_Node000004"><a xlink:title=" ">
<path fill="none" stroke="#63b8ff" d="M331.65,-490.71C408.09,-506.51 529.52,-527.47 635.88,-527.47 635.88,-527.47 635.88,-527.47 813.62,-527.47 951.41,-527.47 1098.93,-437.1 1155.59,-398.56"/>
<polygon fill="#63b8ff" stroke="#63b8ff" points="1157.3,-401.63 1163.54,-393.07 1153.33,-395.87 1157.3,-401.63"/>
</a>
</g>
</g>
<!-- Node5 -->
<g id="Node000005" class="node">
<title>Node5</title>
<g id="a_Node000005"><a xlink:href="classvalidation__api_1_1Validation.html#ac6c337d3af39943a8e603a5f21f5922a" target="_top" xlink:title=" ">
<polygon fill="white" stroke="#666666" points="531,-452.85 369.5,-452.85 369.5,-432.1 531,-432.1 531,-452.85"/>
<text text-anchor="middle" x="450.25" y="-439.35" font-family="Helvetica,sans-Serif" font-size="10.00">validation_api::Validation::run</text>
</a>
</g>
</g>
<!-- Node3&#45;&gt;Node5 -->
<g id="edge4_Node000003_Node000005" class="edge">
<title>Node3&#45;&gt;Node5</title>
<g id="a_edge4_Node000003_Node000005"><a xlink:title=" ">
<path fill="none" stroke="#63b8ff" d="M333.82,-460.95C345.75,-459.04 358.07,-457.07 370.03,-455.16"/>
<polygon fill="#63b8ff" stroke="#63b8ff" points="370.53,-458.62 379.85,-453.58 369.43,-451.71 370.53,-458.62"/>
</a>
</g>
</g>
<!-- Node5&#45;&gt;Node4 -->
<g id="edge5_Node000005_Node000004" class="edge">
<title>Node5&#45;&gt;Node4</title>
<g id="a_edge5_Node000005_Node000004"><a xlink:title=" ">
<path fill="none" stroke="#63b8ff" d="M531.28,-435.77C669.81,-424.17 953.02,-400.45 1094.8,-388.58"/>
<polygon fill="#63b8ff" stroke="#63b8ff" points="1094.82,-392.09 1104.5,-387.76 1094.24,-385.11 1094.82,-392.09"/>
</a>
</g>
</g>
<!-- Node6 -->
<g id="Node000006" class="node">
<title>Node6</title>
<g id="a_Node000006"><a xlink:href="classvalidation__api_1_1Validation.html#a21b9aefd80be5a639d2aa5e4c8ebe945" target="_top" xlink:title=" ">
<polygon fill="white" stroke="#666666" points="706.75,-481.22 567,-481.22 567,-447.72 706.75,-447.72 706.75,-481.22"/>
<text text-anchor="start" x="575" y="-467.72" font-family="Helvetica,sans-Serif" font-size="10.00">validation_api::Validation</text>
<text text-anchor="middle" x="636.88" y="-454.97" font-family="Helvetica,sans-Serif" font-size="10.00">::fillRequestList</text>
</a>
</g>
</g>
<!-- Node5&#45;&gt;Node6 -->
<g id="edge6_Node000005_Node000006" class="edge">
<title>Node5&#45;&gt;Node6</title>
<g id="a_edge6_Node000005_Node000006"><a xlink:title=" ">
<path fill="none" stroke="#63b8ff" d="M531.42,-452.03C539.43,-452.98 547.55,-453.95 555.56,-454.9"/>
<polygon fill="#63b8ff" stroke="#63b8ff" points="554.92,-458.35 565.27,-456.06 555.75,-451.4 554.92,-458.35"/>
</a>
</g>
</g>
<!-- Node7 -->
<g id="Node000007" class="node">
<title>Node7</title>
<g id="a_Node000007"><a xlink:href="classvalidation__api_1_1Validation.html#a3c8146fc89af5b8cef0c1bb6c9d473f2" target="_top" xlink:title="Traverse through the json object and validate the fields.">
<polygon fill="white" stroke="#666666" points="706.75,-302.22 567,-302.22 567,-268.72 706.75,-268.72 706.75,-302.22"/>
<text text-anchor="start" x="575" y="-288.72" font-family="Helvetica,sans-Serif" font-size="10.00">validation_api::Validation</text>
<text text-anchor="middle" x="636.88" y="-275.97" font-family="Helvetica,sans-Serif" font-size="10.00">::traverseAndValidate</text>
</a>
</g>
</g>
<!-- Node5&#45;&gt;Node7 -->
<g id="edge8_Node000005_Node000007" class="edge">
<title>Node5&#45;&gt;Node7</title>
<g id="a_edge8_Node000005_Node000007"><a xlink:title=" ">
<path fill="none" stroke="#63b8ff" d="M463.94,-431.68C493.25,-406.76 566.27,-344.66 607.09,-309.95"/>
<polygon fill="#63b8ff" stroke="#63b8ff" points="609.27,-312.69 614.62,-303.55 604.73,-307.36 609.27,-312.69"/>
</a>
</g>
</g>
<!-- Node6&#45;&gt;Node6 -->
<g id="edge7_Node000006_Node000006" class="edge">
<title>Node6&#45;&gt;Node6</title>
<g id="a_edge7_Node000006_Node000006"><a xlink:title=" ">
<path fill="none" stroke="#63b8ff" d="M605.28,-481.64C599.91,-490.84 610.44,-499.22 636.88,-499.22 651.74,-499.22 661.58,-496.57 666.39,-492.61"/>
<polygon fill="#63b8ff" stroke="#63b8ff" points="669.76,-493.6 668.19,-483.12 662.88,-492.3 669.76,-493.6"/>
</a>
</g>
</g>
<!-- Node7&#45;&gt;Node4 -->
<g id="edge9_Node000007_Node000004" class="edge">
<title>Node7&#45;&gt;Node4</title>
<g id="a_edge9_Node000007_Node000004"><a xlink:title=" ">
<path fill="none" stroke="#63b8ff" d="M688.92,-302.72C744.64,-320.78 836.84,-348.44 918.5,-362.47 976.81,-372.49 1043.32,-377.24 1094.63,-379.48"/>
<polygon fill="#63b8ff" stroke="#63b8ff" points="1094.35,-382.97 1104.49,-379.88 1094.64,-375.98 1094.35,-382.97"/>
</a>
</g>
</g>
<!-- Node7&#45;&gt;Node7 -->
<g id="edge12_Node000007_Node000007" class="edge">
<title>Node7&#45;&gt;Node7</title>
<g id="a_edge12_Node000007_Node000007"><a xlink:title=" ">
<path fill="none" stroke="#63b8ff" d="M605.28,-302.64C599.91,-311.84 610.44,-320.22 636.88,-320.22 651.74,-320.22 661.58,-317.57 666.39,-313.61"/>
<polygon fill="#63b8ff" stroke="#63b8ff" points="669.76,-314.6 668.19,-304.12 662.88,-313.3 669.76,-314.6"/>
</a>
</g>
</g>
<!-- Node8 -->
<g id="Node000008" class="node">
<title>Node8</title>
<g id="a_Node000008"><a xlink:href="classvalidation__api_1_1Validation.html#a49e598a8189b6bd6edf1ecdb00ae8b9d" target="_top" xlink:title=" ">
<polygon fill="white" stroke="#666666" points="1250.5,-61.22 1110.75,-61.22 1110.75,-27.72 1250.5,-27.72 1250.5,-61.22"/>
<text text-anchor="start" x="1118.75" y="-47.72" font-family="Helvetica,sans-Serif" font-size="10.00">validation_api::Validation</text>
<text text-anchor="middle" x="1180.62" y="-34.97" font-family="Helvetica,sans-Serif" font-size="10.00">::findJsonField</text>
</a>
</g>
</g>
<!-- Node7&#45;&gt;Node8 -->
<g id="edge10_Node000007_Node000008" class="edge">
<title>Node7&#45;&gt;Node8</title>
<g id="a_edge10_Node000007_Node000008"><a xlink:title=" ">
<path fill="none" stroke="#63b8ff" d="M648.56,-268.26C681.28,-217.39 786,-68.01 918.5,-14.47 986.38,12.95 1071.75,-5.78 1126.02,-23.59"/>
<polygon fill="#63b8ff" stroke="#63b8ff" points="1124.75,-26.86 1135.34,-26.76 1127,-20.23 1124.75,-26.86"/>
</a>
</g>
</g>
<!-- Node9 -->
<g id="Node000009" class="node">
<title>Node9</title>
<g id="a_Node000009"><a xlink:href="classvalidation__api_1_1Validation.html#a1cc0802269d88c233ad3c3d1d6c3dd12" target="_top" xlink:title=" ">
<polygon fill="white" stroke="#666666" points="882.5,-230.22 742.75,-230.22 742.75,-196.72 882.5,-196.72 882.5,-230.22"/>
<text text-anchor="start" x="750.75" y="-216.72" font-family="Helvetica,sans-Serif" font-size="10.00">validation_api::Validation</text>
<text text-anchor="middle" x="812.62" y="-203.97" font-family="Helvetica,sans-Serif" font-size="10.00">::validate</text>
</a>
</g>
</g>
<!-- Node7&#45;&gt;Node9 -->
<g id="edge13_Node000007_Node000009" class="edge">
<title>Node7&#45;&gt;Node9</title>
<g id="a_edge13_Node000007_Node000009"><a xlink:title=" ">
<path fill="none" stroke="#63b8ff" d="M679.49,-268.23C703.47,-258.29 733.84,-245.71 759.41,-235.11"/>
<polygon fill="#63b8ff" stroke="#63b8ff" points="760.75,-238.34 768.65,-231.28 758.07,-231.88 760.75,-238.34"/>
</a>
</g>
</g>
<!-- Node8&#45;&gt;Node8 -->
<g id="edge11_Node000008_Node000008" class="edge">
<title>Node8&#45;&gt;Node8</title>
<g id="a_edge11_Node000008_Node000008"><a xlink:title=" ">
<path fill="none" stroke="#63b8ff" d="M1147.14,-61.64C1141.45,-70.84 1152.61,-79.22 1180.62,-79.22 1196.38,-79.22 1206.81,-76.57 1211.9,-72.61"/>
<polygon fill="#63b8ff" stroke="#63b8ff" points="1215.27,-73.61 1213.81,-63.12 1208.4,-72.23 1215.27,-73.61"/>
</a>
</g>
</g>
<!-- Node9&#45;&gt;Node4 -->
<g id="edge16_Node000009_Node000004" class="edge">
<title>Node9&#45;&gt;Node4</title>
<g id="a_edge16_Node000009_Node000004"><a xlink:title=" ">
<path fill="none" stroke="#63b8ff" d="M856.85,-196.33C910.66,-177.96 1003.6,-156.24 1070.25,-194.47 1133.23,-230.6 1163.42,-318.56 1174.46,-359.65"/>
<polygon fill="#63b8ff" stroke="#63b8ff" points="1171.06,-360.49 1176.91,-369.32 1177.85,-358.77 1171.06,-360.49"/>
</a>
</g>
</g>
<!-- Node10 -->
<g id="Node000010" class="node">
<title>Node10</title>
<g id="a_Node000010"><a xlink:href="classvalidation__api_1_1Validation.html#a7b6995b4592eb861af42e45b095382b7" target="_top" xlink:title="Checking Uuid values.">
<polygon fill="white" stroke="#666666" points="1064.25,-109.22 924.5,-109.22 924.5,-75.72 1064.25,-75.72 1064.25,-109.22"/>
<text text-anchor="start" x="932.5" y="-95.72" font-family="Helvetica,sans-Serif" font-size="10.00">validation_api::Validation</text>
<text text-anchor="middle" x="994.38" y="-82.97" font-family="Helvetica,sans-Serif" font-size="10.00">::checkNullOptionsVec</text>
</a>
</g>
</g>
<!-- Node9&#45;&gt;Node10 -->
<g id="edge14_Node000009_Node000010" class="edge">
<title>Node9&#45;&gt;Node10</title>
<g id="a_edge14_Node000009_Node000010"><a xlink:title=" ">
<path fill="none" stroke="#63b8ff" d="M828.35,-196.46C847.3,-175.5 882.15,-140.02 918.5,-118.47 920.93,-117.03 923.46,-115.65 926.05,-114.34"/>
<polygon fill="#63b8ff" stroke="#63b8ff" points="927.31,-117.61 934.9,-110.21 924.35,-111.26 927.31,-117.61"/>
</a>
</g>
</g>
<!-- Node11 -->
<g id="Node000011" class="node">
<title>Node11</title>
<g id="a_Node000011"><a xlink:href="classvalidation__api_1_1Validation.html#ac59ae7a00f5fc950a3a572524127c4d3" target="_top" xlink:title="Checks if a json object is empty.">
<polygon fill="white" stroke="#666666" points="1064.25,-57.22 924.5,-57.22 924.5,-23.72 1064.25,-23.72 1064.25,-57.22"/>
<text text-anchor="start" x="932.5" y="-43.72" font-family="Helvetica,sans-Serif" font-size="10.00">validation_api::Validation</text>
<text text-anchor="middle" x="994.38" y="-30.97" font-family="Helvetica,sans-Serif" font-size="10.00">::isNullOrEmpty</text>
</a>
</g>
</g>
<!-- Node9&#45;&gt;Node11 -->
<g id="edge17_Node000009_Node000011" class="edge">
<title>Node9&#45;&gt;Node11</title>
<g id="a_edge17_Node000009_Node000011"><a xlink:title=" ">
<path fill="none" stroke="#63b8ff" d="M821.44,-196.32C836.14,-165.85 870.82,-102.17 918.5,-66.47 920.01,-65.34 921.58,-64.25 923.19,-63.21"/>
<polygon fill="#63b8ff" stroke="#63b8ff" points="924.55,-66.46 931.51,-58.47 921.09,-60.38 924.55,-66.46"/>
</a>
</g>
</g>
<!-- Node12 -->
<g id="Node000012" class="node">
<title>Node12</title>
<g id="a_Node000012"><a xlink:href="namespacevalidation__api.html#ac19e25b4d8364b0f52152440dd5ecbda" target="_top" xlink:title=" ">
<polygon fill="white" stroke="#666666" points="1067.25,-301.85 921.5,-301.85 921.5,-281.1 1067.25,-281.1 1067.25,-301.85"/>
<text text-anchor="middle" x="994.38" y="-288.35" font-family="Helvetica,sans-Serif" font-size="10.00">validation_api::isValidUuid</text>
</a>
</g>
</g>
<!-- Node9&#45;&gt;Node12 -->
<g id="edge18_Node000009_Node000012" class="edge">
<title>Node9&#45;&gt;Node12</title>
<g id="a_edge18_Node000009_Node000012"><a xlink:title=" ">
<path fill="none" stroke="#63b8ff" d="M840.32,-230.63C861,-243.32 890.71,-260.27 918.5,-271.47 923.75,-273.59 929.29,-275.55 934.89,-277.35"/>
<polygon fill="#63b8ff" stroke="#63b8ff" points="933.64,-280.62 944.22,-280.17 935.66,-273.92 933.64,-280.62"/>
</a>
</g>
</g>
<!-- Node13 -->
<g id="Node000013" class="node">
<title>Node13</title>
<g id="a_Node000013"><a xlink:href="namespacevalidation__api.html#a6dd56dcf7358b332bb906a2d27fddd0b" target="_top" xlink:title="Converts string to all lowercase.">
<polygon fill="white" stroke="#666666" points="1059.38,-262.85 929.38,-262.85 929.38,-242.1 1059.38,-242.1 1059.38,-262.85"/>
<text text-anchor="middle" x="994.38" y="-249.35" font-family="Helvetica,sans-Serif" font-size="10.00">validation_api::toLower</text>
</a>
</g>
</g>
<!-- Node9&#45;&gt;Node13 -->
<g id="edge19_Node000009_Node000013" class="edge">
<title>Node9&#45;&gt;Node13</title>
<g id="a_edge19_Node000009_Node000013"><a xlink:title=" ">
<path fill="none" stroke="#63b8ff" d="M882.86,-228.5C899.26,-232.05 916.62,-235.82 932.6,-239.29"/>
<polygon fill="#63b8ff" stroke="#63b8ff" points="931.42,-242.61 941.94,-241.31 932.91,-235.77 931.42,-242.61"/>
</a>
</g>
</g>
<!-- Node14 -->
<g id="Node000014" class="node">
<title>Node14</title>
<g id="a_Node000014"><a xlink:href="namespacevalidation__api.html#aae32fd7a0b5886a49454679d46ed4bd1" target="_top" xlink:title="Validates Ahv string.">
<polygon fill="white" stroke="#666666" points="1069.12,-223.85 919.62,-223.85 919.62,-203.1 1069.12,-203.1 1069.12,-223.85"/>
<text text-anchor="middle" x="994.38" y="-210.35" font-family="Helvetica,sans-Serif" font-size="10.00">validation_api::validateAhv</text>
</a>
</g>
</g>
<!-- Node9&#45;&gt;Node14 -->
<g id="edge20_Node000009_Node000014" class="edge">
<title>Node9&#45;&gt;Node14</title>
<g id="a_edge20_Node000009_Node000014"><a xlink:title=" ">
<path fill="none" stroke="#63b8ff" d="M882.86,-213.47C891.09,-213.47 899.56,-213.47 907.98,-213.47"/>
<polygon fill="#63b8ff" stroke="#63b8ff" points="907.89,-216.97 917.89,-213.47 907.89,-209.97 907.89,-216.97"/>
</a>
</g>
</g>
<!-- Node15 -->
<g id="Node000015" class="node">
<title>Node15</title>
<g id="a_Node000015"><a xlink:href="classvalidation__api_1_1Validation.html#a512e2e0c3be1bea95ebfab280ec919ba" target="_top" xlink:title="Validates len options.">
<polygon fill="white" stroke="#666666" points="1064.25,-353.22 924.5,-353.22 924.5,-319.72 1064.25,-319.72 1064.25,-353.22"/>
<text text-anchor="start" x="932.5" y="-339.72" font-family="Helvetica,sans-Serif" font-size="10.00">validation_api::Validation</text>
<text text-anchor="middle" x="994.38" y="-326.97" font-family="Helvetica,sans-Serif" font-size="10.00">::validateConstraints</text>
</a>
</g>
</g>
<!-- Node9&#45;&gt;Node15 -->
<g id="edge21_Node000009_Node000015" class="edge">
<title>Node9&#45;&gt;Node15</title>
<g id="a_edge21_Node000009_Node000015"><a xlink:title=" ">
<path fill="none" stroke="#63b8ff" d="M827.95,-230.49C846.75,-251.86 881.71,-288.4 918.5,-310.47 920.79,-311.85 923.16,-313.16 925.59,-314.42"/>
<polygon fill="#63b8ff" stroke="#63b8ff" points="923.94,-317.51 934.47,-318.62 926.93,-311.18 923.94,-317.51"/>
</a>
</g>
</g>
<!-- Node16 -->
<g id="Node000016" class="node">
<title>Node16</title>
<g id="a_Node000016"><a xlink:href="namespacevalidation__api.html#a0a2b975e162ced567ba3a6075684092a" target="_top" xlink:title="Validates Iban string.">
<polygon fill="white" stroke="#666666" points="1070.25,-147.85 918.5,-147.85 918.5,-127.1 1070.25,-127.1 1070.25,-147.85"/>
<text text-anchor="middle" x="994.38" y="-134.35" font-family="Helvetica,sans-Serif" font-size="10.00">validation_api::validateIban</text>
</a>
</g>
</g>
<!-- Node9&#45;&gt;Node16 -->
<g id="edge23_Node000009_Node000016" class="edge">
<title>Node9&#45;&gt;Node16</title>
<g id="a_edge23_Node000009_Node000016"><a xlink:title=" ">
<path fill="none" stroke="#63b8ff" d="M845.18,-196.27C865.71,-185.47 893.26,-171.71 918.5,-161.47 927.04,-158.01 936.29,-154.7 945.28,-151.71"/>
<polygon fill="#63b8ff" stroke="#63b8ff" points="946.16,-155.1 954.6,-148.69 944.01,-148.44 946.16,-155.1"/>
</a>
</g>
</g>
<!-- Node10&#45;&gt;Node8 -->
<g id="edge15_Node000010_Node000008" class="edge">
<title>Node10&#45;&gt;Node8</title>
<g id="a_edge15_Node000010_Node000008"><a xlink:title=" ">
<path fill="none" stroke="#63b8ff" d="M1061.37,-75.28C1074.74,-71.8 1088.9,-68.11 1102.6,-64.54"/>
<polygon fill="#63b8ff" stroke="#63b8ff" points="1103.21,-68 1112,-62.09 1101.44,-61.22 1103.21,-68"/>
</a>
</g>
</g>
<!-- Node15&#45;&gt;Node4 -->
<g id="edge22_Node000015_Node000004" class="edge">
<title>Node15&#45;&gt;Node4</title>
<g id="a_edge22_Node000015_Node000004"><a xlink:title=" ">
<path fill="none" stroke="#63b8ff" d="M1064.51,-353.36C1084.22,-358.17 1105.43,-363.35 1124.21,-367.94"/>
<polygon fill="#63b8ff" stroke="#63b8ff" points="1123.24,-371.3 1133.78,-370.28 1124.9,-364.5 1123.24,-371.3"/>
</a>
</g>
</g>
</g>
</svg>
