<?xml version="1.0" encoding="UTF-8" standalone="no"?>
<!DOCTYPE svg PUBLIC "-//W3C//DTD SVG 1.1//EN"
 "http://www.w3.org/Graphics/SVG/1.1/DTD/svg11.dtd">
<!-- Generated by graphviz version 10.0.1 (0)
 -->
<!-- Title: validation_api::ValidationServer::ValidationServer Pages: 1 -->
<svg width="1430pt" height="338pt"
 viewBox="0.00 0.00 1429.75 338.12" xmlns="http://www.w3.org/2000/svg" xmlns:xlink="http://www.w3.org/1999/xlink">
<g id="graph0" class="graph" transform="scale(1 1) rotate(0) translate(4 334.12)">
<title>validation_api::ValidationServer::ValidationServer</title>
<!-- Node1 -->
<g id="Node000001" class="node">
<title>Node1</title>
<g id="a_Node000001"><a xlink:title=" ">
<polygon fill="#999999" stroke="#666666" points="139.75,-259.12 0,-259.12 0,-225.62 139.75,-225.62 139.75,-259.12"/>
<text text-anchor="start" x="8" y="-245.62" font-family="Helvetica,sans-Serif" font-size="10.00">validation_api::Validation</text>
<text text-anchor="middle" x="69.88" y="-232.88" font-family="Helvetica,sans-Serif" font-size="10.00">Server::ValidationServer</text>
</a>
</g>
</g>
<!-- Node2 -->
<g id="Node000002" class="node">
<title>Node2</title>
<g id="a_Node000002"><a xlink:href="classvalidation__api_1_1ValidationServer.html#ad67c7031c85ea1cd6eb84f6b01c424df" target="_top" xlink:title="Start the server.">
<polygon fill="white" stroke="#666666" points="315.5,-285.12 175.75,-285.12 175.75,-251.62 315.5,-251.62 315.5,-285.12"/>
<text text-anchor="start" x="183.75" y="-271.62" font-family="Helvetica,sans-Serif" font-size="10.00">validation_api::Validation</text>
<text text-anchor="middle" x="245.62" y="-258.88" font-family="Helvetica,sans-Serif" font-size="10.00">Server::run</text>
</a>
</g>
</g>
<!-- Node1&#45;&gt;Node2 -->
<g id="edge1_Node000001_Node000002" class="edge">
<title>Node1&#45;&gt;Node2</title>
<g id="a_edge1_Node000001_Node000002"><a xlink:title=" ">
<path fill="none" stroke="#63b8ff" d="M140.04,-252.73C147.96,-253.91 156.07,-255.12 164.12,-256.33"/>
<polygon fill="#63b8ff" stroke="#63b8ff" points="163.5,-259.77 173.91,-257.79 164.54,-252.85 163.5,-259.77"/>
</a>
</g>
</g>
<!-- Node17 -->
<g id="Node000017" class="node">
<title>Node17</title>
<g id="a_Node000017"><a xlink:href="classvalidation__api_1_1ValidationServer.html#aee6d6d3e85ff6a2ca7a476f15e341aa8" target="_top" xlink:title="Setup the server.">
<polygon fill="white" stroke="#666666" points="315.5,-233.12 175.75,-233.12 175.75,-199.62 315.5,-199.62 315.5,-233.12"/>
<text text-anchor="start" x="183.75" y="-219.62" font-family="Helvetica,sans-Serif" font-size="10.00">validation_api::Validation</text>
<text text-anchor="middle" x="245.62" y="-206.88" font-family="Helvetica,sans-Serif" font-size="10.00">Server::setup</text>
</a>
</g>
</g>
<!-- Node1&#45;&gt;Node17 -->
<g id="edge21_Node000001_Node000017" class="edge">
<title>Node1&#45;&gt;Node17</title>
<g id="a_edge21_Node000001_Node000017"><a xlink:title=" ">
<path fill="none" stroke="#63b8ff" d="M140.04,-232.02C147.96,-230.84 156.07,-229.63 164.12,-228.42"/>
<polygon fill="#63b8ff" stroke="#63b8ff" points="164.54,-231.9 173.91,-226.96 163.5,-224.98 164.54,-231.9"/>
</a>
</g>
</g>
<!-- Node2&#45;&gt;Node2 -->
<g id="edge20_Node000002_Node000002" class="edge">
<title>Node2&#45;&gt;Node2</title>
<g id="a_edge20_Node000002_Node000002"><a xlink:title=" ">
<path fill="none" stroke="#63b8ff" d="M214.03,-285.54C208.66,-294.74 219.19,-303.12 245.62,-303.12 260.49,-303.12 270.33,-300.47 275.14,-296.51"/>
<polygon fill="#63b8ff" stroke="#63b8ff" points="278.51,-297.5 276.94,-287.03 271.63,-296.2 278.51,-297.5"/>
</a>
</g>
</g>
<!-- Node3 -->
<g id="Node000003" class="node">
<title>Node3</title>
<g id="a_Node000003"><a xlink:href="classvalidation__api_1_1ValidationServer.html#a7f5c5252fa7a28bef0345e6248139215" target="_top" xlink:title="Accept a connection.">
<polygon fill="white" stroke="#666666" points="491.25,-285.12 351.5,-285.12 351.5,-251.62 491.25,-251.62 491.25,-285.12"/>
<text text-anchor="start" x="359.5" y="-271.62" font-family="Helvetica,sans-Serif" font-size="10.00">validation_api::Validation</text>
<text text-anchor="middle" x="421.38" y="-258.88" font-family="Helvetica,sans-Serif" font-size="10.00">Server::accept</text>
</a>
</g>
</g>
<!-- Node2&#45;&gt;Node3 -->
<g id="edge2_Node000002_Node000003" class="edge">
<title>Node2&#45;&gt;Node3</title>
<g id="a_edge2_Node000002_Node000003"><a xlink:title=" ">
<path fill="none" stroke="#63b8ff" d="M315.79,-268.38C323.71,-268.38 331.82,-268.38 339.87,-268.38"/>
<polygon fill="#63b8ff" stroke="#63b8ff" points="339.65,-271.88 349.65,-268.38 339.65,-264.88 339.65,-271.88"/>
</a>
</g>
</g>
<!-- Node4 -->
<g id="Node000004" class="node">
<title>Node4</title>
<g id="a_Node000004"><a xlink:href="classvalidation__api_1_1ValidationServer.html#a59c4a313effe28cc0acca7b8bb3a26e4" target="_top" xlink:title=" ">
<polygon fill="white" stroke="#666666" points="676,-330.12 536.25,-330.12 536.25,-296.62 676,-296.62 676,-330.12"/>
<text text-anchor="start" x="544.25" y="-316.62" font-family="Helvetica,sans-Serif" font-size="10.00">validation_api::Validation</text>
<text text-anchor="middle" x="606.12" y="-303.88" font-family="Helvetica,sans-Serif" font-size="10.00">Server::asyncWriter</text>
</a>
</g>
</g>
<!-- Node3&#45;&gt;Node4 -->
<g id="edge3_Node000003_Node000004" class="edge">
<title>Node3&#45;&gt;Node4</title>
<g id="a_edge3_Node000003_Node000004"><a xlink:title=" ">
<path fill="none" stroke="#63b8ff" d="M491.73,-285.45C502.55,-288.12 513.82,-290.89 524.87,-293.61"/>
<polygon fill="#63b8ff" stroke="#63b8ff" points="523.81,-296.96 534.35,-295.95 525.48,-290.16 523.81,-296.96"/>
</a>
</g>
</g>
<!-- Node5 -->
<g id="Node000005" class="node">
<title>Node5</title>
<g id="a_Node000005"><a xlink:href="namespacevalidation__api.html#a402f9de5ae5cfa713cc6681b7ea2880c" target="_top" xlink:title=" ">
<polygon fill="white" stroke="#666666" points="681.25,-278.75 531,-278.75 531,-258 681.25,-258 681.25,-278.75"/>
<text text-anchor="middle" x="606.12" y="-265.25" font-family="Helvetica,sans-Serif" font-size="10.00">validation_api::errorsToJson</text>
</a>
</g>
</g>
<!-- Node3&#45;&gt;Node5 -->
<g id="edge4_Node000003_Node000005" class="edge">
<title>Node3&#45;&gt;Node5</title>
<g id="a_edge4_Node000003_Node000005"><a xlink:title=" ">
<path fill="none" stroke="#63b8ff" d="M491.73,-268.38C500.77,-268.38 510.12,-268.38 519.4,-268.38"/>
<polygon fill="#63b8ff" stroke="#63b8ff" points="519.13,-271.88 529.13,-268.38 519.13,-264.88 519.13,-271.88"/>
</a>
</g>
</g>
<!-- Node6 -->
<g id="Node000006" class="node">
<title>Node6</title>
<g id="a_Node000006"><a xlink:href="classvalidation__api_1_1ConfigService.html#a654e84f4f588f7391f93210c1e08344f" target="_top" xlink:title="getConfigs method">
<polygon fill="white" stroke="#666666" points="685,-240.12 527.25,-240.12 527.25,-206.62 685,-206.62 685,-240.12"/>
<text text-anchor="start" x="535.25" y="-226.62" font-family="Helvetica,sans-Serif" font-size="10.00">validation_api::ConfigService</text>
<text text-anchor="middle" x="606.12" y="-213.88" font-family="Helvetica,sans-Serif" font-size="10.00">::validateConfig</text>
</a>
</g>
</g>
<!-- Node3&#45;&gt;Node6 -->
<g id="edge5_Node000003_Node000006" class="edge">
<title>Node3&#45;&gt;Node6</title>
<g id="a_edge5_Node000003_Node000006"><a xlink:title=" ">
<path fill="none" stroke="#63b8ff" d="M491.73,-251.3C502.29,-248.7 513.28,-245.99 524.07,-243.33"/>
<polygon fill="#63b8ff" stroke="#63b8ff" points="524.87,-246.74 533.75,-240.95 523.2,-239.94 524.87,-246.74"/>
</a>
</g>
</g>
<!-- Node7 -->
<g id="Node000007" class="node">
<title>Node7</title>
<g id="a_Node000007"><a xlink:href="classvalidation__api_1_1Validation.html#ac6c337d3af39943a8e603a5f21f5922a" target="_top" xlink:title=" ">
<polygon fill="white" stroke="#666666" points="882.5,-233.75 721,-233.75 721,-213 882.5,-213 882.5,-233.75"/>
<text text-anchor="middle" x="801.75" y="-220.25" font-family="Helvetica,sans-Serif" font-size="10.00">validation_api::Validation::run</text>
</a>
</g>
</g>
<!-- Node6&#45;&gt;Node7 -->
<g id="edge6_Node000006_Node000007" class="edge">
<title>Node6&#45;&gt;Node7</title>
<g id="a_edge6_Node000006_Node000007"><a xlink:title=" ">
<path fill="none" stroke="#63b8ff" d="M685.32,-223.38C693.24,-223.38 701.33,-223.38 709.37,-223.38"/>
<polygon fill="#63b8ff" stroke="#63b8ff" points="709.17,-226.88 719.17,-223.38 709.17,-219.88 709.17,-226.88"/>
</a>
</g>
</g>
<!-- Node8 -->
<g id="Node000008" class="node">
<title>Node8</title>
<g id="a_Node000008"><a xlink:href="classvalidation__api_1_1Validation.html#a3c8146fc89af5b8cef0c1bb6c9d473f2" target="_top" xlink:title="Traverse through the json object and validate the fields.">
<polygon fill="white" stroke="#666666" points="1058.25,-240.12 918.5,-240.12 918.5,-206.62 1058.25,-206.62 1058.25,-240.12"/>
<text text-anchor="start" x="926.5" y="-226.62" font-family="Helvetica,sans-Serif" font-size="10.00">validation_api::Validation</text>
<text text-anchor="middle" x="988.38" y="-213.88" font-family="Helvetica,sans-Serif" font-size="10.00">::traverseAndValidate</text>
</a>
</g>
</g>
<!-- Node7&#45;&gt;Node8 -->
<g id="edge7_Node000007_Node000008" class="edge">
<title>Node7&#45;&gt;Node8</title>
<g id="a_edge7_Node000007_Node000008"><a xlink:title=" ">
<path fill="none" stroke="#63b8ff" d="M882.92,-223.38C890.84,-223.38 898.87,-223.38 906.78,-223.38"/>
<polygon fill="#63b8ff" stroke="#63b8ff" points="906.76,-226.88 916.76,-223.38 906.76,-219.88 906.76,-226.88"/>
</a>
</g>
</g>
<!-- Node8&#45;&gt;Node8 -->
<g id="edge11_Node000008_Node000008" class="edge">
<title>Node8&#45;&gt;Node8</title>
<g id="a_edge11_Node000008_Node000008"><a xlink:title=" ">
<path fill="none" stroke="#63b8ff" d="M956.78,-240.54C951.41,-249.74 961.94,-258.12 988.38,-258.12 1003.24,-258.12 1013.08,-255.47 1017.89,-251.51"/>
<polygon fill="#63b8ff" stroke="#63b8ff" points="1021.26,-252.5 1019.69,-242.03 1014.38,-251.2 1021.26,-252.5"/>
</a>
</g>
</g>
<!-- Node9 -->
<g id="Node000009" class="node">
<title>Node9</title>
<g id="a_Node000009"><a xlink:href="classvalidation__api_1_1ErrorBuilder.html#a84327bbfe6c61e7be6966acc41ba6087" target="_top" xlink:title="Set the First Msg object.">
<polygon fill="white" stroke="#666666" points="1420.25,-310.12 1271.5,-310.12 1271.5,-276.62 1420.25,-276.62 1420.25,-310.12"/>
<text text-anchor="start" x="1279.5" y="-296.62" font-family="Helvetica,sans-Serif" font-size="10.00">validation_api::ErrorBuilder</text>
<text text-anchor="middle" x="1345.88" y="-283.88" font-family="Helvetica,sans-Serif" font-size="10.00">::build</text>
</a>
</g>
</g>
<!-- Node8&#45;&gt;Node9 -->
<g id="edge8_Node000008_Node000009" class="edge">
<title>Node8&#45;&gt;Node9</title>
<g id="a_edge8_Node000008_Node000009"><a xlink:title=" ">
<path fill="none" stroke="#63b8ff" d="M1058.34,-236.95C1115.94,-248.3 1198.29,-264.51 1259.94,-276.65"/>
<polygon fill="#63b8ff" stroke="#63b8ff" points="1259.23,-280.08 1269.72,-278.58 1260.58,-273.21 1259.23,-280.08"/>
</a>
</g>
</g>
<!-- Node10 -->
<g id="Node000010" class="node">
<title>Node10</title>
<g id="a_Node000010"><a xlink:href="classvalidation__api_1_1Validation.html#a2005828d7e475090ef5a895348bfb760" target="_top" xlink:title=" ">
<polygon fill="white" stroke="#666666" points="1415.75,-240.12 1276,-240.12 1276,-206.62 1415.75,-206.62 1415.75,-240.12"/>
<text text-anchor="start" x="1284" y="-226.62" font-family="Helvetica,sans-Serif" font-size="10.00">validation_api::Validation</text>
<text text-anchor="middle" x="1345.88" y="-213.88" font-family="Helvetica,sans-Serif" font-size="10.00">::findJsonField</text>
</a>
</g>
</g>
<!-- Node8&#45;&gt;Node10 -->
<g id="edge9_Node000008_Node000010" class="edge">
<title>Node8&#45;&gt;Node10</title>
<g id="a_edge9_Node000008_Node000010"><a xlink:title=" ">
<path fill="none" stroke="#63b8ff" d="M1058.34,-223.38C1117.36,-223.38 1202.38,-223.38 1264.48,-223.38"/>
<polygon fill="#63b8ff" stroke="#63b8ff" points="1264.29,-226.88 1274.29,-223.38 1264.29,-219.88 1264.29,-226.88"/>
</a>
</g>
</g>
<!-- Node11 -->
<g id="Node000011" class="node">
<title>Node11</title>
<g id="a_Node000011"><a xlink:href="classvalidation__api_1_1Validation.html#a1cc0802269d88c233ad3c3d1d6c3dd12" target="_top" xlink:title=" ">
<polygon fill="white" stroke="#666666" points="1234,-176.12 1094.25,-176.12 1094.25,-142.62 1234,-142.62 1234,-176.12"/>
<text text-anchor="start" x="1102.25" y="-162.62" font-family="Helvetica,sans-Serif" font-size="10.00">validation_api::Validation</text>
<text text-anchor="middle" x="1164.12" y="-149.88" font-family="Helvetica,sans-Serif" font-size="10.00">::validate</text>
</a>
</g>
</g>
<!-- Node8&#45;&gt;Node11 -->
<g id="edge12_Node000008_Node000011" class="edge">
<title>Node8&#45;&gt;Node11</title>
<g id="a_edge12_Node000008_Node000011"><a xlink:title=" ">
<path fill="none" stroke="#63b8ff" d="M1035.94,-206.22C1057.46,-198.3 1083.22,-188.81 1105.91,-180.45"/>
<polygon fill="#63b8ff" stroke="#63b8ff" points="1106.84,-183.84 1115.01,-177.1 1104.42,-177.27 1106.84,-183.84"/>
</a>
</g>
</g>
<!-- Node10&#45;&gt;Node10 -->
<g id="edge10_Node000010_Node000010" class="edge">
<title>Node10&#45;&gt;Node10</title>
<g id="a_edge10_Node000010_Node000010"><a xlink:title=" ">
<path fill="none" stroke="#63b8ff" d="M1313.2,-240.54C1307.65,-249.74 1318.54,-258.12 1345.88,-258.12 1361.25,-258.12 1371.42,-255.47 1376.39,-251.51"/>
<polygon fill="#63b8ff" stroke="#63b8ff" points="1379.76,-252.51 1378.26,-242.02 1372.89,-251.16 1379.76,-252.51"/>
</a>
</g>
</g>
<!-- Node11&#45;&gt;Node9 -->
<g id="edge13_Node000011_Node000009" class="edge">
<title>Node11&#45;&gt;Node9</title>
<g id="a_edge13_Node000011_Node000009"><a xlink:title=" ">
<path fill="none" stroke="#63b8ff" d="M1177.47,-176.38C1195.39,-199.93 1230.76,-242.38 1270,-267.38 1272.12,-268.73 1274.32,-270.02 1276.58,-271.25"/>
<polygon fill="#63b8ff" stroke="#63b8ff" points="1274.9,-274.32 1285.41,-275.61 1278,-268.05 1274.9,-274.32"/>
</a>
</g>
</g>
<!-- Node11&#45;&gt;Node10 -->
<g id="edge14_Node000011_Node000010" class="edge">
<title>Node11&#45;&gt;Node10</title>
<g id="a_edge14_Node000011_Node000010"><a xlink:title=" ">
<path fill="none" stroke="#63b8ff" d="M1212.06,-176.53C1230.15,-183.11 1251.02,-190.64 1270,-197.38 1274.65,-199.02 1279.46,-200.72 1284.31,-202.42"/>
<polygon fill="#63b8ff" stroke="#63b8ff" points="1282.88,-205.63 1293.47,-205.63 1285.19,-199.02 1282.88,-205.63"/>
</a>
</g>
</g>
<!-- Node12 -->
<g id="Node000012" class="node">
<title>Node12</title>
<g id="a_Node000012"><a xlink:href="namespacevalidation__api.html#ac19e25b4d8364b0f52152440dd5ecbda" target="_top" xlink:title=" ">
<polygon fill="white" stroke="#666666" points="1418.75,-149.75 1273,-149.75 1273,-129 1418.75,-129 1418.75,-149.75"/>
<text text-anchor="middle" x="1345.88" y="-136.25" font-family="Helvetica,sans-Serif" font-size="10.00">validation_api::isValidUuid</text>
</a>
</g>
</g>
<!-- Node11&#45;&gt;Node12 -->
<g id="edge15_Node000011_Node000012" class="edge">
<title>Node11&#45;&gt;Node12</title>
<g id="a_edge15_Node000011_Node000012"><a xlink:title=" ">
<path fill="none" stroke="#63b8ff" d="M1234.36,-151.67C1243.2,-150.69 1252.31,-149.67 1261.33,-148.67"/>
<polygon fill="#63b8ff" stroke="#63b8ff" points="1261.64,-152.16 1271.19,-147.57 1260.86,-145.2 1261.64,-152.16"/>
</a>
</g>
</g>
<!-- Node13 -->
<g id="Node000013" class="node">
<title>Node13</title>
<g id="a_Node000013"><a xlink:href="classvalidation__api_1_1ErrorBuilder.html#a014e70c2f2b4a2ee879c363b4a2174f2" target="_top" xlink:title="Set the First Msg object.">
<polygon fill="white" stroke="#666666" points="1420.25,-111.12 1271.5,-111.12 1271.5,-77.62 1420.25,-77.62 1420.25,-111.12"/>
<text text-anchor="start" x="1279.5" y="-97.62" font-family="Helvetica,sans-Serif" font-size="10.00">validation_api::ErrorBuilder</text>
<text text-anchor="middle" x="1345.88" y="-84.88" font-family="Helvetica,sans-Serif" font-size="10.00">::setSecondMsg</text>
</a>
</g>
</g>
<!-- Node11&#45;&gt;Node13 -->
<g id="edge16_Node000011_Node000013" class="edge">
<title>Node11&#45;&gt;Node13</title>
<g id="a_edge16_Node000011_Node000013"><a xlink:title=" ">
<path fill="none" stroke="#63b8ff" d="M1210.73,-142.17C1229.11,-135.3 1250.53,-127.37 1270,-120.38 1274.64,-118.71 1279.45,-117 1284.29,-115.29"/>
<polygon fill="#63b8ff" stroke="#63b8ff" points="1285.18,-118.68 1293.45,-112.07 1282.86,-112.08 1285.18,-118.68"/>
</a>
</g>
</g>
<!-- Node14 -->
<g id="Node000014" class="node">
<title>Node14</title>
<g id="a_Node000014"><a xlink:href="namespacevalidation__api.html#a6dd56dcf7358b332bb906a2d27fddd0b" target="_top" xlink:title="Converts string to all lowercase.">
<polygon fill="white" stroke="#666666" points="1410.88,-59.75 1280.88,-59.75 1280.88,-39 1410.88,-39 1410.88,-59.75"/>
<text text-anchor="middle" x="1345.88" y="-46.25" font-family="Helvetica,sans-Serif" font-size="10.00">validation_api::toLower</text>
</a>
</g>
</g>
<!-- Node11&#45;&gt;Node14 -->
<g id="edge17_Node000011_Node000014" class="edge">
<title>Node11&#45;&gt;Node14</title>
<g id="a_edge17_Node000011_Node000014"><a xlink:title=" ">
<path fill="none" stroke="#63b8ff" d="M1180.05,-142.26C1198.95,-121.66 1233.47,-87.47 1270,-68.38 1272.9,-66.86 1275.92,-65.46 1279.02,-64.17"/>
<polygon fill="#63b8ff" stroke="#63b8ff" points="1280.2,-67.47 1288.37,-60.71 1277.77,-60.9 1280.2,-67.47"/>
</a>
</g>
</g>
<!-- Node15 -->
<g id="Node000015" class="node">
<title>Node15</title>
<g id="a_Node000015"><a xlink:href="namespacevalidation__api.html#aae32fd7a0b5886a49454679d46ed4bd1" target="_top" xlink:title="Validates Ahv string.">
<polygon fill="white" stroke="#666666" points="1420.62,-20.75 1271.12,-20.75 1271.12,0 1420.62,0 1420.62,-20.75"/>
<text text-anchor="middle" x="1345.88" y="-7.25" font-family="Helvetica,sans-Serif" font-size="10.00">validation_api::validateAhv</text>
</a>
</g>
</g>
<!-- Node11&#45;&gt;Node15 -->
<g id="edge18_Node000011_Node000015" class="edge">
<title>Node11&#45;&gt;Node15</title>
<g id="a_edge18_Node000011_Node000015"><a xlink:title=" ">
<path fill="none" stroke="#63b8ff" d="M1174.25,-142.26C1189.99,-114.43 1224.94,-59.55 1270,-30.38 1272.7,-28.63 1275.55,-27.03 1278.49,-25.57"/>
<polygon fill="#63b8ff" stroke="#63b8ff" points="1279.62,-28.9 1287.42,-21.73 1276.85,-22.47 1279.62,-28.9"/>
</a>
</g>
</g>
<!-- Node16 -->
<g id="Node000016" class="node">
<title>Node16</title>
<g id="a_Node000016"><a xlink:href="namespacevalidation__api.html#a0a2b975e162ced567ba3a6075684092a" target="_top" xlink:title="Validates Iban string.">
<polygon fill="white" stroke="#666666" points="1421.75,-188.75 1270,-188.75 1270,-168 1421.75,-168 1421.75,-188.75"/>
<text text-anchor="middle" x="1345.88" y="-175.25" font-family="Helvetica,sans-Serif" font-size="10.00">validation_api::validateIban</text>
</a>
</g>
</g>
<!-- Node11&#45;&gt;Node16 -->
<g id="edge19_Node000011_Node000016" class="edge">
<title>Node11&#45;&gt;Node16</title>
<g id="a_edge19_Node000011_Node000016"><a xlink:title=" ">
<path fill="none" stroke="#63b8ff" d="M1234.36,-166.69C1242.23,-167.53 1250.32,-168.38 1258.37,-169.23"/>
<polygon fill="#63b8ff" stroke="#63b8ff" points="1257.88,-172.7 1268.19,-170.27 1258.62,-165.74 1257.88,-172.7"/>
</a>
</g>
</g>
</g>
</svg>
