<?xml version="1.0" encoding="UTF-8" standalone="no"?>
<!DOCTYPE svg PUBLIC "-//W3C//DTD SVG 1.1//EN"
 "http://www.w3.org/Graphics/SVG/1.1/DTD/svg11.dtd">
<!-- Generated by graphviz version 10.0.1 (0)
 -->
<!-- Title: validation_api::ConfigService::validateConfig Pages: 1 -->
<svg width="903pt" height="318pt"
 viewBox="0.00 0.00 902.50 318.12" xmlns="http://www.w3.org/2000/svg" xmlns:xlink="http://www.w3.org/1999/xlink">
<g id="graph0" class="graph" transform="scale(1 1) rotate(0) translate(4 314.12)">
<title>validation_api::ConfigService::validateConfig</title>
<!-- Node1 -->
<g id="Node000001" class="node">
<title>Node1</title>
<g id="a_Node000001"><a xlink:title="getConfigs method">
<polygon fill="#999999" stroke="#666666" points="157.75,-240.12 0,-240.12 0,-206.62 157.75,-206.62 157.75,-240.12"/>
<text text-anchor="start" x="8" y="-226.62" font-family="Helvetica,sans-Serif" font-size="10.00">validation_api::ConfigService</text>
<text text-anchor="middle" x="78.88" y="-213.88" font-family="Helvetica,sans-Serif" font-size="10.00">::validateConfig</text>
</a>
</g>
</g>
<!-- Node2 -->
<g id="Node000002" class="node">
<title>Node2</title>
<g id="a_Node000002"><a xlink:href="classvalidation__api_1_1Validation.html#ac6c337d3af39943a8e603a5f21f5922a" target="_top" xlink:title=" ">
<polygon fill="white" stroke="#666666" points="355.25,-233.75 193.75,-233.75 193.75,-213 355.25,-213 355.25,-233.75"/>
<text text-anchor="middle" x="274.5" y="-220.25" font-family="Helvetica,sans-Serif" font-size="10.00">validation_api::Validation::run</text>
</a>
</g>
</g>
<!-- Node1&#45;&gt;Node2 -->
<g id="edge1_Node000001_Node000002" class="edge">
<title>Node1&#45;&gt;Node2</title>
<g id="a_edge1_Node000001_Node000002"><a xlink:title=" ">
<path fill="none" stroke="#63b8ff" d="M158.07,-223.38C165.99,-223.38 174.08,-223.38 182.12,-223.38"/>
<polygon fill="#63b8ff" stroke="#63b8ff" points="181.92,-226.88 191.92,-223.38 181.92,-219.88 181.92,-226.88"/>
</a>
</g>
</g>
<!-- Node3 -->
<g id="Node000003" class="node">
<title>Node3</title>
<g id="a_Node000003"><a xlink:href="classvalidation__api_1_1Validation.html#a3c8146fc89af5b8cef0c1bb6c9d473f2" target="_top" xlink:title="Traverse through the json object and validate the fields.">
<polygon fill="white" stroke="#666666" points="531,-240.12 391.25,-240.12 391.25,-206.62 531,-206.62 531,-240.12"/>
<text text-anchor="start" x="399.25" y="-226.62" font-family="Helvetica,sans-Serif" font-size="10.00">validation_api::Validation</text>
<text text-anchor="middle" x="461.12" y="-213.88" font-family="Helvetica,sans-Serif" font-size="10.00">::traverseAndValidate</text>
</a>
</g>
</g>
<!-- Node2&#45;&gt;Node3 -->
<g id="edge2_Node000002_Node000003" class="edge">
<title>Node2&#45;&gt;Node3</title>
<g id="a_edge2_Node000002_Node000003"><a xlink:title=" ">
<path fill="none" stroke="#63b8ff" d="M355.67,-223.38C363.59,-223.38 371.62,-223.38 379.53,-223.38"/>
<polygon fill="#63b8ff" stroke="#63b8ff" points="379.51,-226.88 389.51,-223.38 379.51,-219.88 379.51,-226.88"/>
</a>
</g>
</g>
<!-- Node3&#45;&gt;Node3 -->
<g id="edge6_Node000003_Node000003" class="edge">
<title>Node3&#45;&gt;Node3</title>
<g id="a_edge6_Node000003_Node000003"><a xlink:title=" ">
<path fill="none" stroke="#63b8ff" d="M429.53,-240.54C424.16,-249.74 434.69,-258.12 461.12,-258.12 475.99,-258.12 485.83,-255.47 490.64,-251.51"/>
<polygon fill="#63b8ff" stroke="#63b8ff" points="494.01,-252.5 492.44,-242.03 487.13,-251.2 494.01,-252.5"/>
</a>
</g>
</g>
<!-- Node4 -->
<g id="Node000004" class="node">
<title>Node4</title>
<g id="a_Node000004"><a xlink:href="classvalidation__api_1_1ErrorBuilder.html#a84327bbfe6c61e7be6966acc41ba6087" target="_top" xlink:title="Set the First Msg object.">
<polygon fill="white" stroke="#666666" points="893,-310.12 744.25,-310.12 744.25,-276.62 893,-276.62 893,-310.12"/>
<text text-anchor="start" x="752.25" y="-296.62" font-family="Helvetica,sans-Serif" font-size="10.00">validation_api::ErrorBuilder</text>
<text text-anchor="middle" x="818.62" y="-283.88" font-family="Helvetica,sans-Serif" font-size="10.00">::build</text>
</a>
</g>
</g>
<!-- Node3&#45;&gt;Node4 -->
<g id="edge3_Node000003_Node000004" class="edge">
<title>Node3&#45;&gt;Node4</title>
<g id="a_edge3_Node000003_Node000004"><a xlink:title=" ">
<path fill="none" stroke="#63b8ff" d="M531.09,-236.95C588.69,-248.3 671.04,-264.51 732.69,-276.65"/>
<polygon fill="#63b8ff" stroke="#63b8ff" points="731.98,-280.08 742.47,-278.58 733.33,-273.21 731.98,-280.08"/>
</a>
</g>
</g>
<!-- Node5 -->
<g id="Node000005" class="node">
<title>Node5</title>
<g id="a_Node000005"><a xlink:href="classvalidation__api_1_1Validation.html#a2005828d7e475090ef5a895348bfb760" target="_top" xlink:title=" ">
<polygon fill="white" stroke="#666666" points="888.5,-240.12 748.75,-240.12 748.75,-206.62 888.5,-206.62 888.5,-240.12"/>
<text text-anchor="start" x="756.75" y="-226.62" font-family="Helvetica,sans-Serif" font-size="10.00">validation_api::Validation</text>
<text text-anchor="middle" x="818.62" y="-213.88" font-family="Helvetica,sans-Serif" font-size="10.00">::findJsonField</text>
</a>
</g>
</g>
<!-- Node3&#45;&gt;Node5 -->
<g id="edge4_Node000003_Node000005" class="edge">
<title>Node3&#45;&gt;Node5</title>
<g id="a_edge4_Node000003_Node000005"><a xlink:title=" ">
<path fill="none" stroke="#63b8ff" d="M531.09,-223.38C590.11,-223.38 675.13,-223.38 737.23,-223.38"/>
<polygon fill="#63b8ff" stroke="#63b8ff" points="737.04,-226.88 747.04,-223.38 737.04,-219.88 737.04,-226.88"/>
</a>
</g>
</g>
<!-- Node6 -->
<g id="Node000006" class="node">
<title>Node6</title>
<g id="a_Node000006"><a xlink:href="classvalidation__api_1_1Validation.html#a1cc0802269d88c233ad3c3d1d6c3dd12" target="_top" xlink:title=" ">
<polygon fill="white" stroke="#666666" points="706.75,-176.12 567,-176.12 567,-142.62 706.75,-142.62 706.75,-176.12"/>
<text text-anchor="start" x="575" y="-162.62" font-family="Helvetica,sans-Serif" font-size="10.00">validation_api::Validation</text>
<text text-anchor="middle" x="636.88" y="-149.88" font-family="Helvetica,sans-Serif" font-size="10.00">::validate</text>
</a>
</g>
</g>
<!-- Node3&#45;&gt;Node6 -->
<g id="edge7_Node000003_Node000006" class="edge">
<title>Node3&#45;&gt;Node6</title>
<g id="a_edge7_Node000003_Node000006"><a xlink:title=" ">
<path fill="none" stroke="#63b8ff" d="M508.69,-206.22C530.21,-198.3 555.97,-188.81 578.66,-180.45"/>
<polygon fill="#63b8ff" stroke="#63b8ff" points="579.59,-183.84 587.76,-177.1 577.17,-177.27 579.59,-183.84"/>
</a>
</g>
</g>
<!-- Node5&#45;&gt;Node5 -->
<g id="edge5_Node000005_Node000005" class="edge">
<title>Node5&#45;&gt;Node5</title>
<g id="a_edge5_Node000005_Node000005"><a xlink:title=" ">
<path fill="none" stroke="#63b8ff" d="M785.95,-240.54C780.4,-249.74 791.29,-258.12 818.62,-258.12 834,-258.12 844.17,-255.47 849.14,-251.51"/>
<polygon fill="#63b8ff" stroke="#63b8ff" points="852.51,-252.51 851.01,-242.02 845.64,-251.16 852.51,-252.51"/>
</a>
</g>
</g>
<!-- Node6&#45;&gt;Node4 -->
<g id="edge8_Node000006_Node000004" class="edge">
<title>Node6&#45;&gt;Node4</title>
<g id="a_edge8_Node000006_Node000004"><a xlink:title=" ">
<path fill="none" stroke="#63b8ff" d="M650.22,-176.38C668.14,-199.93 703.51,-242.38 742.75,-267.38 744.87,-268.73 747.07,-270.02 749.33,-271.25"/>
<polygon fill="#63b8ff" stroke="#63b8ff" points="747.65,-274.32 758.16,-275.61 750.75,-268.05 747.65,-274.32"/>
</a>
</g>
</g>
<!-- Node6&#45;&gt;Node5 -->
<g id="edge9_Node000006_Node000005" class="edge">
<title>Node6&#45;&gt;Node5</title>
<g id="a_edge9_Node000006_Node000005"><a xlink:title=" ">
<path fill="none" stroke="#63b8ff" d="M684.81,-176.53C702.9,-183.11 723.77,-190.64 742.75,-197.38 747.4,-199.02 752.21,-200.72 757.06,-202.42"/>
<polygon fill="#63b8ff" stroke="#63b8ff" points="755.63,-205.63 766.22,-205.63 757.94,-199.02 755.63,-205.63"/>
</a>
</g>
</g>
<!-- Node7 -->
<g id="Node000007" class="node">
<title>Node7</title>
<g id="a_Node000007"><a xlink:href="namespacevalidation__api.html#ac19e25b4d8364b0f52152440dd5ecbda" target="_top" xlink:title=" ">
<polygon fill="white" stroke="#666666" points="891.5,-149.75 745.75,-149.75 745.75,-129 891.5,-129 891.5,-149.75"/>
<text text-anchor="middle" x="818.62" y="-136.25" font-family="Helvetica,sans-Serif" font-size="10.00">validation_api::isValidUuid</text>
</a>
</g>
</g>
<!-- Node6&#45;&gt;Node7 -->
<g id="edge10_Node000006_Node000007" class="edge">
<title>Node6&#45;&gt;Node7</title>
<g id="a_edge10_Node000006_Node000007"><a xlink:title=" ">
<path fill="none" stroke="#63b8ff" d="M707.11,-151.67C715.95,-150.69 725.06,-149.67 734.08,-148.67"/>
<polygon fill="#63b8ff" stroke="#63b8ff" points="734.39,-152.16 743.94,-147.57 733.61,-145.2 734.39,-152.16"/>
</a>
</g>
</g>
<!-- Node8 -->
<g id="Node000008" class="node">
<title>Node8</title>
<g id="a_Node000008"><a xlink:href="classvalidation__api_1_1ErrorBuilder.html#a014e70c2f2b4a2ee879c363b4a2174f2" target="_top" xlink:title="Set the First Msg object.">
<polygon fill="white" stroke="#666666" points="893,-111.12 744.25,-111.12 744.25,-77.62 893,-77.62 893,-111.12"/>
<text text-anchor="start" x="752.25" y="-97.62" font-family="Helvetica,sans-Serif" font-size="10.00">validation_api::ErrorBuilder</text>
<text text-anchor="middle" x="818.62" y="-84.88" font-family="Helvetica,sans-Serif" font-size="10.00">::setSecondMsg</text>
</a>
</g>
</g>
<!-- Node6&#45;&gt;Node8 -->
<g id="edge11_Node000006_Node000008" class="edge">
<title>Node6&#45;&gt;Node8</title>
<g id="a_edge11_Node000006_Node000008"><a xlink:title=" ">
<path fill="none" stroke="#63b8ff" d="M683.48,-142.17C701.86,-135.3 723.28,-127.37 742.75,-120.38 747.39,-118.71 752.2,-117 757.04,-115.29"/>
<polygon fill="#63b8ff" stroke="#63b8ff" points="757.93,-118.68 766.2,-112.07 755.61,-112.08 757.93,-118.68"/>
</a>
</g>
</g>
<!-- Node9 -->
<g id="Node000009" class="node">
<title>Node9</title>
<g id="a_Node000009"><a xlink:href="namespacevalidation__api.html#a6dd56dcf7358b332bb906a2d27fddd0b" target="_top" xlink:title="Converts string to all lowercase.">
<polygon fill="white" stroke="#666666" points="883.62,-59.75 753.62,-59.75 753.62,-39 883.62,-39 883.62,-59.75"/>
<text text-anchor="middle" x="818.62" y="-46.25" font-family="Helvetica,sans-Serif" font-size="10.00">validation_api::toLower</text>
</a>
</g>
</g>
<!-- Node6&#45;&gt;Node9 -->
<g id="edge12_Node000006_Node000009" class="edge">
<title>Node6&#45;&gt;Node9</title>
<g id="a_edge12_Node000006_Node000009"><a xlink:title=" ">
<path fill="none" stroke="#63b8ff" d="M652.8,-142.26C671.7,-121.66 706.22,-87.47 742.75,-68.38 745.65,-66.86 748.67,-65.46 751.77,-64.17"/>
<polygon fill="#63b8ff" stroke="#63b8ff" points="752.95,-67.47 761.12,-60.71 750.52,-60.9 752.95,-67.47"/>
</a>
</g>
</g>
<!-- Node10 -->
<g id="Node000010" class="node">
<title>Node10</title>
<g id="a_Node000010"><a xlink:href="namespacevalidation__api.html#aae32fd7a0b5886a49454679d46ed4bd1" target="_top" xlink:title="Validates Ahv string.">
<polygon fill="white" stroke="#666666" points="893.38,-20.75 743.88,-20.75 743.88,0 893.38,0 893.38,-20.75"/>
<text text-anchor="middle" x="818.62" y="-7.25" font-family="Helvetica,sans-Serif" font-size="10.00">validation_api::validateAhv</text>
</a>
</g>
</g>
<!-- Node6&#45;&gt;Node10 -->
<g id="edge13_Node000006_Node000010" class="edge">
<title>Node6&#45;&gt;Node10</title>
<g id="a_edge13_Node000006_Node000010"><a xlink:title=" ">
<path fill="none" stroke="#63b8ff" d="M647,-142.26C662.74,-114.43 697.69,-59.55 742.75,-30.38 745.45,-28.63 748.3,-27.03 751.24,-25.57"/>
<polygon fill="#63b8ff" stroke="#63b8ff" points="752.37,-28.9 760.17,-21.73 749.6,-22.47 752.37,-28.9"/>
</a>
</g>
</g>
<!-- Node11 -->
<g id="Node000011" class="node">
<title>Node11</title>
<g id="a_Node000011"><a xlink:href="namespacevalidation__api.html#a0a2b975e162ced567ba3a6075684092a" target="_top" xlink:title="Validates Iban string.">
<polygon fill="white" stroke="#666666" points="894.5,-188.75 742.75,-188.75 742.75,-168 894.5,-168 894.5,-188.75"/>
<text text-anchor="middle" x="818.62" y="-175.25" font-family="Helvetica,sans-Serif" font-size="10.00">validation_api::validateIban</text>
</a>
</g>
</g>
<!-- Node6&#45;&gt;Node11 -->
<g id="edge14_Node000006_Node000011" class="edge">
<title>Node6&#45;&gt;Node11</title>
<g id="a_edge14_Node000006_Node000011"><a xlink:title=" ">
<path fill="none" stroke="#63b8ff" d="M707.11,-166.69C714.98,-167.53 723.07,-168.38 731.12,-169.23"/>
<polygon fill="#63b8ff" stroke="#63b8ff" points="730.63,-172.7 740.94,-170.27 731.37,-165.74 730.63,-172.7"/>
</a>
</g>
</g>
</g>
</svg>
