<?xml version="1.0" encoding="UTF-8" standalone="no"?>
<!DOCTYPE svg PUBLIC "-//W3C//DTD SVG 1.1//EN"
 "http://www.w3.org/Graphics/SVG/1.1/DTD/svg11.dtd">
<!-- Generated by graphviz version 12.2.1 (0)
 -->
<!-- Title: validation_api::ConfigWatcher Pages: 1 -->
<svg width="270pt" height="480pt"
 viewBox="0.00 0.00 270.00 480.00" xmlns="http://www.w3.org/2000/svg" xmlns:xlink="http://www.w3.org/1999/xlink">
<g id="graph0" class="graph" transform="scale(1 1) rotate(0) translate(4 476)">
<title>validation_api::ConfigWatcher</title>
<!-- Node1 -->
<g id="Node000001" class="node">
<title>Node1</title>
<g id="a_Node000001"><a xlink:title="Class to watch for changes in a directory.">
<polygon fill="#999999" stroke="none" points="193.5,-260 55.75,-260 55.75,0 193.5,0 193.5,-260"/>
<text text-anchor="start" x="59.75" y="-246.5" font-family="Helvetica,sans-Serif" font-size="10.00">validation_api::ConfigWatcher</text>
<text text-anchor="start" x="71.31" y="-230.5" font-family="Helvetica,sans-Serif" font-size="10.00">&#45;</text>
<text text-anchor="start" x="89.88" y="-230.5" font-family="Helvetica,sans-Serif" font-size="10.00">fileAssocation_</text>
<text text-anchor="start" x="71.31" y="-214.5" font-family="Helvetica,sans-Serif" font-size="10.00">&#45;</text>
<text text-anchor="start" x="89.88" y="-214.5" font-family="Helvetica,sans-Serif" font-size="10.00">callback_</text>
<text text-anchor="start" x="71.31" y="-198.5" font-family="Helvetica,sans-Serif" font-size="10.00">&#45;</text>
<text text-anchor="start" x="89.88" y="-198.5" font-family="Helvetica,sans-Serif" font-size="10.00">io_context_</text>
<text text-anchor="start" x="71.31" y="-182.5" font-family="Helvetica,sans-Serif" font-size="10.00">&#45;</text>
<text text-anchor="start" x="89.88" y="-182.5" font-family="Helvetica,sans-Serif" font-size="10.00">path_</text>
<text text-anchor="start" x="71.31" y="-166.5" font-family="Helvetica,sans-Serif" font-size="10.00">&#45;</text>
<text text-anchor="start" x="89.88" y="-166.5" font-family="Helvetica,sans-Serif" font-size="10.00">running_</text>
<text text-anchor="start" x="71.31" y="-150.5" font-family="Helvetica,sans-Serif" font-size="10.00">&#45;</text>
<text text-anchor="start" x="89.88" y="-150.5" font-family="Helvetica,sans-Serif" font-size="10.00">watcherThread</text>
<text text-anchor="start" x="71.31" y="-134.5" font-family="Helvetica,sans-Serif" font-size="10.00">&#45;</text>
<text text-anchor="start" x="89.88" y="-134.5" font-family="Helvetica,sans-Serif" font-size="10.00">inotify_fd_</text>
<text text-anchor="start" x="71.31" y="-118.5" font-family="Helvetica,sans-Serif" font-size="10.00">&#45;</text>
<text text-anchor="start" x="89.88" y="-118.5" font-family="Helvetica,sans-Serif" font-size="10.00">watch_descriptor_</text>
<text text-anchor="start" x="71.31" y="-102.5" font-family="Helvetica,sans-Serif" font-size="10.00">&#45;</text>
<text text-anchor="start" x="89.88" y="-102.5" font-family="Helvetica,sans-Serif" font-size="10.00">logger_</text>
<text text-anchor="start" x="69.81" y="-86.5" font-family="Helvetica,sans-Serif" font-size="10.00">+</text>
<text text-anchor="start" x="89.88" y="-86.5" font-family="Helvetica,sans-Serif" font-size="10.00">ConfigWatcher()</text>
<text text-anchor="start" x="69.81" y="-70.5" font-family="Helvetica,sans-Serif" font-size="10.00">+</text>
<text text-anchor="start" x="89.88" y="-70.5" font-family="Helvetica,sans-Serif" font-size="10.00">~ConfigWatcher()</text>
<text text-anchor="start" x="69.81" y="-54.5" font-family="Helvetica,sans-Serif" font-size="10.00">+</text>
<text text-anchor="start" x="89.88" y="-54.5" font-family="Helvetica,sans-Serif" font-size="10.00">read_file()</text>
<text text-anchor="start" x="69.81" y="-38.5" font-family="Helvetica,sans-Serif" font-size="10.00">+</text>
<text text-anchor="start" x="89.88" y="-38.5" font-family="Helvetica,sans-Serif" font-size="10.00">run()</text>
<text text-anchor="start" x="69.81" y="-22.5" font-family="Helvetica,sans-Serif" font-size="10.00">+</text>
<text text-anchor="start" x="89.88" y="-22.5" font-family="Helvetica,sans-Serif" font-size="10.00">setup()</text>
<text text-anchor="start" x="69.81" y="-6.5" font-family="Helvetica,sans-Serif" font-size="10.00">+</text>
<text text-anchor="start" x="89.88" y="-6.5" font-family="Helvetica,sans-Serif" font-size="10.00">stop()</text>
<polygon fill="#666666" stroke="#666666" points="55.75,-242 55.75,-242 193.5,-242 193.5,-242 55.75,-242"/>
<polygon fill="#666666" stroke="#666666" points="55.75,-98 55.75,-98 87.88,-98 87.88,-98 55.75,-98"/>
<polygon fill="#666666" stroke="#666666" points="87.88,-98 87.88,-98 193.5,-98 193.5,-98 87.88,-98"/>
<polygon fill="none" stroke="#666666" points="55.75,0 55.75,-260 193.5,-260 193.5,0 55.75,0"/>
</a>
</g>
</g>
<!-- Node2 -->
<g id="Node000002" class="node">
<title>Node2</title>
<g id="a_Node000002"><a xlink:href="classvalidation__api_1_1IService.html" target="_top" xlink:title="Interface for all services.">
<polygon fill="white" stroke="none" points="109.25,-440 0,-440 0,-340 109.25,-340 109.25,-440"/>
<text text-anchor="start" x="4" y="-426.5" font-family="Helvetica,sans-Serif" font-size="10.00">validation_api::IService</text>
<text text-anchor="start" x="53.12" y="-410.5" font-family="Helvetica,sans-Serif" font-size="10.00"> </text>
<text text-anchor="start" x="14.81" y="-394.5" font-family="Helvetica,sans-Serif" font-size="10.00">+</text>
<text text-anchor="start" x="35.62" y="-394.5" font-family="Helvetica,sans-Serif" font-size="10.00">~IService()</text>
<text text-anchor="start" x="14.81" y="-378.5" font-family="Helvetica,sans-Serif" font-size="10.00">+</text>
<text text-anchor="start" x="35.62" y="-378.5" font-family="Helvetica,sans-Serif" font-size="10.00">run()</text>
<text text-anchor="start" x="14.81" y="-362.5" font-family="Helvetica,sans-Serif" font-size="10.00">+</text>
<text text-anchor="start" x="35.62" y="-362.5" font-family="Helvetica,sans-Serif" font-size="10.00">setup()</text>
<text text-anchor="start" x="14.81" y="-346.5" font-family="Helvetica,sans-Serif" font-size="10.00">+</text>
<text text-anchor="start" x="35.62" y="-346.5" font-family="Helvetica,sans-Serif" font-size="10.00">stop()</text>
<polygon fill="#666666" stroke="#666666" points="0,-422 0,-422 109.25,-422 109.25,-422 0,-422"/>
<polygon fill="#666666" stroke="#666666" points="0,-406 0,-406 109.25,-406 109.25,-406 0,-406"/>
<polygon fill="none" stroke="#666666" points="0,-340 0,-440 109.25,-440 109.25,-340 0,-340"/>
</a>
</g>
</g>
<!-- Node2&#45;&gt;Node1 -->
<g id="edge1_Node000001_Node000002" class="edge">
<title>Node2&#45;&gt;Node1</title>
<g id="a_edge1_Node000001_Node000002"><a xlink:title=" ">
<path fill="none" stroke="#63b8ff" d="M70.83,-329.28C76.48,-308.43 83.07,-284.15 89.66,-259.88"/>
<polygon fill="none" stroke="#63b8ff" points="67.51,-328.14 68.27,-338.71 74.27,-329.97 67.51,-328.14"/>
</a>
</g>
</g>
<!-- Node3 -->
<g id="Node000003" class="node">
<title>Node3</title>
<g id="a_Node000003"><a xlink:href="classvalidation__api_1_1ConfigService.html" target="_top" xlink:title="ConfigService class.">
<polygon fill="white" stroke="none" points="262,-472 127.25,-472 127.25,-308 262,-308 262,-472"/>
<text text-anchor="start" x="131.25" y="-458.5" font-family="Helvetica,sans-Serif" font-size="10.00">validation_api::ConfigService</text>
<text text-anchor="start" x="143.56" y="-442.5" font-family="Helvetica,sans-Serif" font-size="10.00">&#45;</text>
<text text-anchor="start" x="162.88" y="-442.5" font-family="Helvetica,sans-Serif" font-size="10.00">rwMutex_</text>
<text text-anchor="start" x="143.56" y="-426.5" font-family="Helvetica,sans-Serif" font-size="10.00">&#45;</text>
<text text-anchor="start" x="162.88" y="-426.5" font-family="Helvetica,sans-Serif" font-size="10.00">configs_</text>
<text text-anchor="start" x="143.56" y="-410.5" font-family="Helvetica,sans-Serif" font-size="10.00">&#45;</text>
<text text-anchor="start" x="162.88" y="-410.5" font-family="Helvetica,sans-Serif" font-size="10.00">logger_</text>
<text text-anchor="start" x="142.06" y="-394.5" font-family="Helvetica,sans-Serif" font-size="10.00">+</text>
<text text-anchor="start" x="162.88" y="-394.5" font-family="Helvetica,sans-Serif" font-size="10.00">ConfigService()</text>
<text text-anchor="start" x="142.06" y="-378.5" font-family="Helvetica,sans-Serif" font-size="10.00">+</text>
<text text-anchor="start" x="162.88" y="-378.5" font-family="Helvetica,sans-Serif" font-size="10.00">~ConfigService()</text>
<text text-anchor="start" x="142.06" y="-362.5" font-family="Helvetica,sans-Serif" font-size="10.00">+</text>
<text text-anchor="start" x="162.88" y="-362.5" font-family="Helvetica,sans-Serif" font-size="10.00">getConfig()</text>
<text text-anchor="start" x="142.06" y="-346.5" font-family="Helvetica,sans-Serif" font-size="10.00">+</text>
<text text-anchor="start" x="162.88" y="-346.5" font-family="Helvetica,sans-Serif" font-size="10.00">createConfig()</text>
<text text-anchor="start" x="142.06" y="-330.5" font-family="Helvetica,sans-Serif" font-size="10.00">+</text>
<text text-anchor="start" x="162.88" y="-330.5" font-family="Helvetica,sans-Serif" font-size="10.00">deleteConfig()</text>
<text text-anchor="start" x="142.06" y="-314.5" font-family="Helvetica,sans-Serif" font-size="10.00">+</text>
<text text-anchor="start" x="162.88" y="-314.5" font-family="Helvetica,sans-Serif" font-size="10.00">validateConfig()</text>
<polygon fill="#666666" stroke="#666666" points="127.25,-454 127.25,-454 262,-454 262,-454 127.25,-454"/>
<polygon fill="#666666" stroke="#666666" points="127.25,-406 127.25,-406 160.88,-406 160.88,-406 127.25,-406"/>
<polygon fill="#666666" stroke="#666666" points="160.88,-406 160.88,-406 262,-406 262,-406 160.88,-406"/>
<polygon fill="none" stroke="#666666" points="127.25,-308 127.25,-472 262,-472 262,-308 127.25,-308"/>
</a>
</g>
</g>
<!-- Node3&#45;&gt;Node1 -->
<g id="edge2_Node000001_Node000003" class="edge">
<title>Node3&#45;&gt;Node1</title>
<g id="a_edge2_Node000001_Node000003"><a xlink:title=" ">
<path fill="none" stroke="#63b8ff" d="M172.67,-308.08C169.54,-296.55 166.25,-284.42 162.92,-272.15"/>
<polygon fill="none" stroke="#63b8ff" points="162.96,-272.3 157.53,-267.55 159.82,-260.72 165.25,-265.46 162.96,-272.3"/>
</a>
</g>
<text text-anchor="middle" x="187.27" y="-280.5" font-family="Helvetica,sans-Serif" font-size="10.00" fill="grey"> &#45;service_</text>
</g>
</g>
</svg>
