<?xml version="1.0" encoding="UTF-8" standalone="no"?>
<!DOCTYPE svg PUBLIC "-//W3C//DTD SVG 1.1//EN"
 "http://www.w3.org/Graphics/SVG/1.1/DTD/svg11.dtd">
<!-- Generated by graphviz version 10.0.1 (0)
 -->
<!-- Title: validation_api::ConfigWatcher::run Pages: 1 -->
<svg width="768pt" height="180pt"
 viewBox="0.00 0.00 768.00 180.12" xmlns="http://www.w3.org/2000/svg" xmlns:xlink="http://www.w3.org/1999/xlink">
<g id="graph0" class="graph" transform="scale(1 1) rotate(0) translate(4 176.12)">
<title>validation_api::ConfigWatcher::run</title>
<!-- Node1 -->
<g id="Node000001" class="node">
<title>Node1</title>
<g id="a_Node000001"><a xlink:title="Start ConfigWatcher.">
<polygon fill="#999999" stroke="#666666" points="183.25,-113.75 0,-113.75 0,-93 183.25,-93 183.25,-113.75"/>
<text text-anchor="middle" x="91.62" y="-100.25" font-family="Helvetica,sans-Serif" font-size="10.00">validation_api::ConfigWatcher::run</text>
</a>
</g>
</g>
<!-- Node2 -->
<g id="Node000002" class="node">
<title>Node2</title>
<g id="a_Node000002"><a xlink:href="classvalidation__api_1_1ConfigService.html#a72b9695e86a85502ea559e009a878e4c" target="_top" xlink:title="getConfigs method">
<polygon fill="white" stroke="#666666" points="378.88,-172.12 221.12,-172.12 221.12,-138.62 378.88,-138.62 378.88,-172.12"/>
<text text-anchor="start" x="229.12" y="-158.62" font-family="Helvetica,sans-Serif" font-size="10.00">validation_api::ConfigService</text>
<text text-anchor="middle" x="300" y="-145.88" font-family="Helvetica,sans-Serif" font-size="10.00">::deleteConfig</text>
</a>
</g>
</g>
<!-- Node1&#45;&gt;Node2 -->
<g id="edge1_Node000001_Node000002" class="edge">
<title>Node1&#45;&gt;Node2</title>
<g id="a_edge1_Node000001_Node000002"><a xlink:title=" ">
<path fill="none" stroke="#63b8ff" d="M135.64,-114.21C160.04,-120.36 191.35,-128.25 220.02,-135.47"/>
<polygon fill="#63b8ff" stroke="#63b8ff" points="218.84,-138.79 229.39,-137.84 220.55,-132 218.84,-138.79"/>
</a>
</g>
</g>
<!-- Node3 -->
<g id="Node000003" class="node">
<title>Node3</title>
<g id="a_Node000003"><a xlink:href="classvalidation__api_1_1ConfigWatcher.html#a78820bcf2ebf9135785e207aae042e72" target="_top" xlink:title=" ">
<polygon fill="white" stroke="#666666" points="380.75,-120.12 219.25,-120.12 219.25,-86.62 380.75,-86.62 380.75,-120.12"/>
<text text-anchor="start" x="227.25" y="-106.62" font-family="Helvetica,sans-Serif" font-size="10.00">validation_api::ConfigWatcher</text>
<text text-anchor="middle" x="300" y="-93.88" font-family="Helvetica,sans-Serif" font-size="10.00">::read_file</text>
</a>
</g>
</g>
<!-- Node1&#45;&gt;Node3 -->
<g id="edge2_Node000001_Node000003" class="edge">
<title>Node1&#45;&gt;Node3</title>
<g id="a_edge2_Node000001_Node000003"><a xlink:title=" ">
<path fill="none" stroke="#63b8ff" d="M183.74,-103.38C191.65,-103.38 199.66,-103.38 207.57,-103.38"/>
<polygon fill="#63b8ff" stroke="#63b8ff" points="207.55,-106.88 217.55,-103.38 207.55,-99.88 207.55,-106.88"/>
</a>
</g>
</g>
<!-- Node10 -->
<g id="Node000010" class="node">
<title>Node10</title>
<g id="a_Node000010"><a xlink:href="ConfigWatcher_8cpp.html#af492780bc7786abac56fa242d4fc3045" target="_top" xlink:title=" ">
<polygon fill="white" stroke="#666666" points="335.38,-68.75 264.62,-68.75 264.62,-48 335.38,-48 335.38,-68.75"/>
<text text-anchor="middle" x="300" y="-55.25" font-family="Helvetica,sans-Serif" font-size="10.00">semaphore</text>
</a>
</g>
</g>
<!-- Node1&#45;&gt;Node10 -->
<g id="edge10_Node000001_Node000010" class="edge">
<title>Node1&#45;&gt;Node10</title>
<g id="a_edge10_Node000001_Node000010"><a xlink:title=" ">
<path fill="none" stroke="#63b8ff" d="M142.32,-92.54C176.03,-85.19 220.28,-75.54 253.15,-68.37"/>
<polygon fill="#63b8ff" stroke="#63b8ff" points="253.76,-71.82 262.79,-66.27 252.27,-64.98 253.76,-71.82"/>
</a>
</g>
</g>
<!-- Node4 -->
<g id="Node000004" class="node">
<title>Node4</title>
<g id="a_Node000004"><a xlink:href="classvalidation__api_1_1ConfigService.html#a8fee54d1f3f5eb92a17c3ecd72780f00" target="_top" xlink:title="getConfigs method">
<polygon fill="white" stroke="#666666" points="574.5,-155.12 416.75,-155.12 416.75,-121.62 574.5,-121.62 574.5,-155.12"/>
<text text-anchor="start" x="424.75" y="-141.62" font-family="Helvetica,sans-Serif" font-size="10.00">validation_api::ConfigService</text>
<text text-anchor="middle" x="495.62" y="-128.88" font-family="Helvetica,sans-Serif" font-size="10.00">::createConfig</text>
</a>
</g>
</g>
<!-- Node3&#45;&gt;Node4 -->
<g id="edge3_Node000003_Node000004" class="edge">
<title>Node3&#45;&gt;Node4</title>
<g id="a_edge3_Node000003_Node000004"><a xlink:title=" ">
<path fill="none" stroke="#63b8ff" d="M381.15,-117.86C389.07,-119.3 397.15,-120.75 405.15,-122.2"/>
<polygon fill="#63b8ff" stroke="#63b8ff" points="404.45,-125.63 414.91,-123.97 405.69,-118.74 404.45,-125.63"/>
</a>
</g>
</g>
<!-- Node5 -->
<g id="Node000005" class="node">
<title>Node5</title>
<g id="a_Node000005"><a xlink:href="namespacevalidation__api.html#aa82c6b3a43b6e6b59b529c22944cadca" target="_top" xlink:title="Ensures valid Xml configuration.">
<polygon fill="white" stroke="#666666" points="561,-85.12 430.25,-85.12 430.25,-51.62 561,-51.62 561,-85.12"/>
<text text-anchor="start" x="438.25" y="-71.62" font-family="Helvetica,sans-Serif" font-size="10.00">validation_api::validate</text>
<text text-anchor="middle" x="495.62" y="-58.88" font-family="Helvetica,sans-Serif" font-size="10.00">XmlConfig</text>
</a>
</g>
</g>
<!-- Node3&#45;&gt;Node5 -->
<g id="edge4_Node000003_Node000005" class="edge">
<title>Node3&#45;&gt;Node5</title>
<g id="a_edge4_Node000003_Node000005"><a xlink:title=" ">
<path fill="none" stroke="#63b8ff" d="M381.15,-88.89C393.58,-86.64 406.38,-84.33 418.71,-82.1"/>
<polygon fill="#63b8ff" stroke="#63b8ff" points="419.17,-85.57 428.39,-80.35 417.92,-78.68 419.17,-85.57"/>
</a>
</g>
</g>
<!-- Node5&#45;&gt;Node5 -->
<g id="edge9_Node000005_Node000005" class="edge">
<title>Node5&#45;&gt;Node5</title>
<g id="a_edge9_Node000005_Node000005"><a xlink:title=" ">
<path fill="none" stroke="#63b8ff" d="M461.54,-85.54C455.74,-94.74 467.11,-103.12 495.62,-103.12 511.67,-103.12 522.28,-100.47 527.46,-96.51"/>
<polygon fill="#63b8ff" stroke="#63b8ff" points="530.83,-97.52 529.41,-87.02 523.97,-96.12 530.83,-97.52"/>
</a>
</g>
</g>
<!-- Node6 -->
<g id="Node000006" class="node">
<title>Node6</title>
<g id="a_Node000006"><a xlink:href="namespacevalidation__api.html#a0c0f34d744f57bb06458867fbee4b7a9" target="_top" xlink:title="Insert an error into a json object.">
<polygon fill="white" stroke="#666666" points="760,-137.75 610.5,-137.75 610.5,-117 760,-117 760,-137.75"/>
<text text-anchor="middle" x="685.25" y="-124.25" font-family="Helvetica,sans-Serif" font-size="10.00">validation_api::insertToJson</text>
</a>
</g>
</g>
<!-- Node5&#45;&gt;Node6 -->
<g id="edge5_Node000005_Node000006" class="edge">
<title>Node5&#45;&gt;Node6</title>
<g id="a_edge5_Node000005_Node000006"><a xlink:title=" ">
<path fill="none" stroke="#63b8ff" d="M544.6,-85.58C564.84,-92.64 588.72,-100.7 610.5,-107.38 617.24,-109.44 624.36,-111.51 631.42,-113.5"/>
<polygon fill="#63b8ff" stroke="#63b8ff" points="630.35,-116.83 640.92,-116.13 632.22,-110.09 630.35,-116.83"/>
</a>
</g>
</g>
<!-- Node7 -->
<g id="Node000007" class="node">
<title>Node7</title>
<g id="a_Node000007"><a xlink:href="namespacevalidation__api.html#ac497c1198e4e7f0fe71ffbdb3e6beeaa" target="_top" xlink:title="Convert string to float.">
<polygon fill="white" stroke="#666666" points="747.25,-98.75 623.25,-98.75 623.25,-78 747.25,-78 747.25,-98.75"/>
<text text-anchor="middle" x="685.25" y="-85.25" font-family="Helvetica,sans-Serif" font-size="10.00">validation_api::isFloat</text>
</a>
</g>
</g>
<!-- Node5&#45;&gt;Node7 -->
<g id="edge6_Node000005_Node000007" class="edge">
<title>Node5&#45;&gt;Node7</title>
<g id="a_edge6_Node000005_Node000007"><a xlink:title=" ">
<path fill="none" stroke="#63b8ff" d="M561.46,-75.29C577.64,-77.01 595.09,-78.87 611.62,-80.63"/>
<polygon fill="#63b8ff" stroke="#63b8ff" points="611.07,-84.09 621.38,-81.67 611.81,-77.13 611.07,-84.09"/>
</a>
</g>
</g>
<!-- Node8 -->
<g id="Node000008" class="node">
<title>Node8</title>
<g id="a_Node000008"><a xlink:href="namespacevalidation__api.html#ac19e25b4d8364b0f52152440dd5ecbda" target="_top" xlink:title=" ">
<polygon fill="white" stroke="#666666" points="758.12,-59.75 612.38,-59.75 612.38,-39 758.12,-39 758.12,-59.75"/>
<text text-anchor="middle" x="685.25" y="-46.25" font-family="Helvetica,sans-Serif" font-size="10.00">validation_api::isValidUuid</text>
</a>
</g>
</g>
<!-- Node5&#45;&gt;Node8 -->
<g id="edge7_Node000005_Node000008" class="edge">
<title>Node5&#45;&gt;Node8</title>
<g id="a_edge7_Node000005_Node000008"><a xlink:title=" ">
<path fill="none" stroke="#63b8ff" d="M561.46,-61.81C574.07,-60.53 587.47,-59.18 600.59,-57.85"/>
<polygon fill="#63b8ff" stroke="#63b8ff" points="600.92,-61.33 610.52,-56.84 600.22,-54.37 600.92,-61.33"/>
</a>
</g>
</g>
<!-- Node9 -->
<g id="Node000009" class="node">
<title>Node9</title>
<g id="a_Node000009"><a xlink:href="namespacevalidation__api.html#a6dd56dcf7358b332bb906a2d27fddd0b" target="_top" xlink:title="Converts string to all lowercase.">
<polygon fill="white" stroke="#666666" points="750.25,-20.75 620.25,-20.75 620.25,0 750.25,0 750.25,-20.75"/>
<text text-anchor="middle" x="685.25" y="-7.25" font-family="Helvetica,sans-Serif" font-size="10.00">validation_api::toLower</text>
</a>
</g>
</g>
<!-- Node5&#45;&gt;Node9 -->
<g id="edge8_Node000005_Node000009" class="edge">
<title>Node5&#45;&gt;Node9</title>
<g id="a_edge8_Node000005_Node000009"><a xlink:title=" ">
<path fill="none" stroke="#63b8ff" d="M546.03,-51.2C565.98,-44.45 589.25,-36.8 610.5,-30.38 617.33,-28.31 624.55,-26.23 631.69,-24.23"/>
<polygon fill="#63b8ff" stroke="#63b8ff" points="632.62,-27.61 641.33,-21.57 630.76,-20.86 632.62,-27.61"/>
</a>
</g>
</g>
</g>
</svg>
