<?xml version="1.0" encoding="UTF-8" standalone="no"?>
<!DOCTYPE svg PUBLIC "-//W3C//DTD SVG 1.1//EN"
 "http://www.w3.org/Graphics/SVG/1.1/DTD/svg11.dtd">
<!-- Generated by graphviz version 10.0.1 (0)
 -->
<!-- Title: validation_api::ValidationServer::ValidationServer Pages: 1 -->
<svg width="1615pt" height="525pt"
 viewBox="0.00 0.00 1614.50 524.50" xmlns="http://www.w3.org/2000/svg" xmlns:xlink="http://www.w3.org/1999/xlink">
<g id="graph0" class="graph" transform="scale(1 1) rotate(0) translate(4 520.5)">
<title>validation_api::ValidationServer::ValidationServer</title>
<!-- Node1 -->
<g id="Node000001" class="node">
<title>Node1</title>
<g id="a_Node000001"><a xlink:title=" ">
<polygon fill="#999999" stroke="#666666" points="139.75,-96.5 0,-96.5 0,-63 139.75,-63 139.75,-96.5"/>
<text text-anchor="start" x="8" y="-83" font-family="Helvetica,sans-Serif" font-size="10.00">validation_api::Validation</text>
<text text-anchor="middle" x="69.88" y="-70.25" font-family="Helvetica,sans-Serif" font-size="10.00">Server::ValidationServer</text>
</a>
</g>
</g>
<!-- Node2 -->
<g id="Node000002" class="node">
<title>Node2</title>
<g id="a_Node000002"><a xlink:href="classvalidation__api_1_1ValidationServer.html#ad67c7031c85ea1cd6eb84f6b01c424df" target="_top" xlink:title="Start the server.">
<polygon fill="white" stroke="#666666" points="315.5,-122.5 175.75,-122.5 175.75,-89 315.5,-89 315.5,-122.5"/>
<text text-anchor="start" x="183.75" y="-109" font-family="Helvetica,sans-Serif" font-size="10.00">validation_api::Validation</text>
<text text-anchor="middle" x="245.62" y="-96.25" font-family="Helvetica,sans-Serif" font-size="10.00">Server::run</text>
</a>
</g>
</g>
<!-- Node1&#45;&gt;Node2 -->
<g id="edge1_Node000001_Node000002" class="edge">
<title>Node1&#45;&gt;Node2</title>
<g id="a_edge1_Node000001_Node000002"><a xlink:title=" ">
<path fill="none" stroke="#63b8ff" d="M140.04,-90.1C147.96,-91.28 156.07,-92.5 164.12,-93.7"/>
<polygon fill="#63b8ff" stroke="#63b8ff" points="163.5,-97.15 173.91,-95.17 164.54,-90.23 163.5,-97.15"/>
</a>
</g>
</g>
<!-- Node19 -->
<g id="Node000019" class="node">
<title>Node19</title>
<g id="a_Node000019"><a xlink:href="classvalidation__api_1_1ValidationServer.html#aee6d6d3e85ff6a2ca7a476f15e341aa8" target="_top" xlink:title="Setup the server.">
<polygon fill="white" stroke="#666666" points="315.5,-70.5 175.75,-70.5 175.75,-37 315.5,-37 315.5,-70.5"/>
<text text-anchor="start" x="183.75" y="-57" font-family="Helvetica,sans-Serif" font-size="10.00">validation_api::Validation</text>
<text text-anchor="middle" x="245.62" y="-44.25" font-family="Helvetica,sans-Serif" font-size="10.00">Server::setup</text>
</a>
</g>
</g>
<!-- Node1&#45;&gt;Node19 -->
<g id="edge26_Node000001_Node000019" class="edge">
<title>Node1&#45;&gt;Node19</title>
<g id="a_edge26_Node000001_Node000019"><a xlink:title=" ">
<path fill="none" stroke="#63b8ff" d="M140.04,-69.4C147.96,-68.22 156.07,-67 164.12,-65.8"/>
<polygon fill="#63b8ff" stroke="#63b8ff" points="164.54,-69.27 173.91,-64.33 163.5,-62.35 164.54,-69.27"/>
</a>
</g>
</g>
<!-- Node2&#45;&gt;Node2 -->
<g id="edge25_Node000002_Node000002" class="edge">
<title>Node2&#45;&gt;Node2</title>
<g id="a_edge25_Node000002_Node000002"><a xlink:title=" ">
<path fill="none" stroke="#63b8ff" d="M214.03,-122.91C208.66,-132.12 219.19,-140.5 245.62,-140.5 260.49,-140.5 270.33,-137.85 275.14,-133.89"/>
<polygon fill="#63b8ff" stroke="#63b8ff" points="278.51,-134.88 276.94,-124.4 271.63,-133.57 278.51,-134.88"/>
</a>
</g>
</g>
<!-- Node3 -->
<g id="Node000003" class="node">
<title>Node3</title>
<g id="a_Node000003"><a xlink:href="classvalidation__api_1_1ValidationServer.html#a7f5c5252fa7a28bef0345e6248139215" target="_top" xlink:title="Accept a connection.">
<polygon fill="white" stroke="#666666" points="491.25,-122.5 351.5,-122.5 351.5,-89 491.25,-89 491.25,-122.5"/>
<text text-anchor="start" x="359.5" y="-109" font-family="Helvetica,sans-Serif" font-size="10.00">validation_api::Validation</text>
<text text-anchor="middle" x="421.38" y="-96.25" font-family="Helvetica,sans-Serif" font-size="10.00">Server::accept</text>
</a>
</g>
</g>
<!-- Node2&#45;&gt;Node3 -->
<g id="edge2_Node000002_Node000003" class="edge">
<title>Node2&#45;&gt;Node3</title>
<g id="a_edge2_Node000002_Node000003"><a xlink:title=" ">
<path fill="none" stroke="#63b8ff" d="M315.79,-105.75C323.71,-105.75 331.82,-105.75 339.87,-105.75"/>
<polygon fill="#63b8ff" stroke="#63b8ff" points="339.65,-109.25 349.65,-105.75 339.65,-102.25 339.65,-109.25"/>
</a>
</g>
</g>
<!-- Node4 -->
<g id="Node000004" class="node">
<title>Node4</title>
<g id="a_Node000004"><a xlink:href="classvalidation__api_1_1ValidationServer.html#a59c4a313effe28cc0acca7b8bb3a26e4" target="_top" xlink:title=" ">
<polygon fill="white" stroke="#666666" points="676,-148.5 536.25,-148.5 536.25,-115 676,-115 676,-148.5"/>
<text text-anchor="start" x="544.25" y="-135" font-family="Helvetica,sans-Serif" font-size="10.00">validation_api::Validation</text>
<text text-anchor="middle" x="606.12" y="-122.25" font-family="Helvetica,sans-Serif" font-size="10.00">Server::asyncWriter</text>
</a>
</g>
</g>
<!-- Node3&#45;&gt;Node4 -->
<g id="edge3_Node000003_Node000004" class="edge">
<title>Node3&#45;&gt;Node4</title>
<g id="a_edge3_Node000003_Node000004"><a xlink:title=" ">
<path fill="none" stroke="#63b8ff" d="M491.73,-115.62C502.44,-117.14 513.59,-118.73 524.53,-120.28"/>
<polygon fill="#63b8ff" stroke="#63b8ff" points="523.93,-123.73 534.32,-121.68 524.92,-116.8 523.93,-123.73"/>
</a>
</g>
</g>
<!-- Node5 -->
<g id="Node000005" class="node">
<title>Node5</title>
<g id="a_Node000005"><a xlink:href="classvalidation__api_1_1ConfigService.html#a654e84f4f588f7391f93210c1e08344f" target="_top" xlink:title="getConfigs method">
<polygon fill="white" stroke="#666666" points="685,-96.5 527.25,-96.5 527.25,-63 685,-63 685,-96.5"/>
<text text-anchor="start" x="535.25" y="-83" font-family="Helvetica,sans-Serif" font-size="10.00">validation_api::ConfigService</text>
<text text-anchor="middle" x="606.12" y="-70.25" font-family="Helvetica,sans-Serif" font-size="10.00">::validateConfig</text>
</a>
</g>
</g>
<!-- Node3&#45;&gt;Node5 -->
<g id="edge4_Node000003_Node000005" class="edge">
<title>Node3&#45;&gt;Node5</title>
<g id="a_edge4_Node000003_Node000005"><a xlink:title=" ">
<path fill="none" stroke="#63b8ff" d="M491.73,-95.88C499.55,-94.77 507.6,-93.62 515.64,-92.48"/>
<polygon fill="#63b8ff" stroke="#63b8ff" points="516.05,-95.96 525.46,-91.08 515.06,-89.03 516.05,-95.96"/>
</a>
</g>
</g>
<!-- Node6 -->
<g id="Node000006" class="node">
<title>Node6</title>
<g id="a_Node000006"><a xlink:href="classvalidation__api_1_1Validation.html#ac6c337d3af39943a8e603a5f21f5922a" target="_top" xlink:title=" ">
<polygon fill="white" stroke="#666666" points="882.5,-90.12 721,-90.12 721,-69.38 882.5,-69.38 882.5,-90.12"/>
<text text-anchor="middle" x="801.75" y="-76.62" font-family="Helvetica,sans-Serif" font-size="10.00">validation_api::Validation::run</text>
</a>
</g>
</g>
<!-- Node5&#45;&gt;Node6 -->
<g id="edge5_Node000005_Node000006" class="edge">
<title>Node5&#45;&gt;Node6</title>
<g id="a_edge5_Node000005_Node000006"><a xlink:title=" ">
<path fill="none" stroke="#63b8ff" d="M685.32,-79.75C693.24,-79.75 701.33,-79.75 709.37,-79.75"/>
<polygon fill="#63b8ff" stroke="#63b8ff" points="709.17,-83.25 719.17,-79.75 709.17,-76.25 709.17,-83.25"/>
</a>
</g>
</g>
<!-- Node7 -->
<g id="Node000007" class="node">
<title>Node7</title>
<g id="a_Node000007"><a xlink:href="namespacevalidation__api.html#ac3e8e6ef097973f55220fc4fdeb08dc2" target="_top" xlink:title="Error builder.">
<polygon fill="white" stroke="#666666" points="1606.5,-151.12 1457.75,-151.12 1457.75,-130.38 1606.5,-130.38 1606.5,-151.12"/>
<text text-anchor="middle" x="1532.12" y="-137.62" font-family="Helvetica,sans-Serif" font-size="10.00">validation_api::errorBuilder</text>
</a>
</g>
</g>
<!-- Node6&#45;&gt;Node7 -->
<g id="edge6_Node000006_Node000007" class="edge">
<title>Node6&#45;&gt;Node7</title>
<g id="a_edge6_Node000006_Node000007"><a xlink:title=" ">
<path fill="none" stroke="#63b8ff" d="M882.92,-85.72C1000.97,-94.63 1228.48,-112.23 1421.75,-129.75 1429.66,-130.47 1437.88,-131.24 1446.11,-132.04"/>
<polygon fill="#63b8ff" stroke="#63b8ff" points="1445.51,-135.49 1455.8,-132.98 1446.19,-128.53 1445.51,-135.49"/>
</a>
</g>
</g>
<!-- Node8 -->
<g id="Node000008" class="node">
<title>Node8</title>
<g id="a_Node000008"><a xlink:href="classvalidation__api_1_1Validation.html#a21b9aefd80be5a639d2aa5e4c8ebe945" target="_top" xlink:title=" ">
<polygon fill="white" stroke="#666666" points="1058.25,-33.5 918.5,-33.5 918.5,0 1058.25,0 1058.25,-33.5"/>
<text text-anchor="start" x="926.5" y="-20" font-family="Helvetica,sans-Serif" font-size="10.00">validation_api::Validation</text>
<text text-anchor="middle" x="988.38" y="-7.25" font-family="Helvetica,sans-Serif" font-size="10.00">::fillRequestList</text>
</a>
</g>
</g>
<!-- Node6&#45;&gt;Node8 -->
<g id="edge7_Node000006_Node000008" class="edge">
<title>Node6&#45;&gt;Node8</title>
<g id="a_edge7_Node000006_Node000008"><a xlink:title=" ">
<path fill="none" stroke="#63b8ff" d="M834.49,-68.92C859.67,-60.33 895.61,-48.06 926.32,-37.59"/>
<polygon fill="#63b8ff" stroke="#63b8ff" points="927.17,-40.99 935.5,-34.45 924.91,-34.37 927.17,-40.99"/>
</a>
</g>
</g>
<!-- Node9 -->
<g id="Node000009" class="node">
<title>Node9</title>
<g id="a_Node000009"><a xlink:href="classvalidation__api_1_1Validation.html#a3c8146fc89af5b8cef0c1bb6c9d473f2" target="_top" xlink:title="Traverse through the json object and validate the fields.">
<polygon fill="white" stroke="#666666" points="1058.25,-221.5 918.5,-221.5 918.5,-188 1058.25,-188 1058.25,-221.5"/>
<text text-anchor="start" x="926.5" y="-208" font-family="Helvetica,sans-Serif" font-size="10.00">validation_api::Validation</text>
<text text-anchor="middle" x="988.38" y="-195.25" font-family="Helvetica,sans-Serif" font-size="10.00">::traverseAndValidate</text>
</a>
</g>
</g>
<!-- Node6&#45;&gt;Node9 -->
<g id="edge9_Node000006_Node000009" class="edge">
<title>Node6&#45;&gt;Node9</title>
<g id="a_edge9_Node000006_Node000009"><a xlink:title=" ">
<path fill="none" stroke="#63b8ff" d="M818.81,-90.62C848.47,-110.71 912.47,-154.04 952.52,-181.15"/>
<polygon fill="#63b8ff" stroke="#63b8ff" points="950.41,-183.95 960.65,-186.66 954.33,-178.15 950.41,-183.95"/>
</a>
</g>
</g>
<!-- Node8&#45;&gt;Node8 -->
<g id="edge8_Node000008_Node000008" class="edge">
<title>Node8&#45;&gt;Node8</title>
<g id="a_edge8_Node000008_Node000008"><a xlink:title=" ">
<path fill="none" stroke="#63b8ff" d="M956.78,-33.91C951.41,-43.12 961.94,-51.5 988.38,-51.5 1003.24,-51.5 1013.08,-48.85 1017.89,-44.89"/>
<polygon fill="#63b8ff" stroke="#63b8ff" points="1021.26,-45.88 1019.69,-35.4 1014.38,-44.57 1021.26,-45.88"/>
</a>
</g>
</g>
<!-- Node9&#45;&gt;Node7 -->
<g id="edge10_Node000009_Node000007" class="edge">
<title>Node9&#45;&gt;Node7</title>
<g id="a_edge10_Node000009_Node000007"><a xlink:title=" ">
<path fill="none" stroke="#63b8ff" d="M1043.52,-187.56C1099.53,-170.75 1189.86,-146.32 1270,-136.75 1336.97,-128.75 1354.32,-135.52 1421.75,-136.75 1429.56,-136.89 1437.69,-137.09 1445.82,-137.33"/>
<polygon fill="#63b8ff" stroke="#63b8ff" points="1445.68,-140.83 1455.79,-137.64 1445.9,-133.83 1445.68,-140.83"/>
</a>
</g>
</g>
<!-- Node9&#45;&gt;Node9 -->
<g id="edge13_Node000009_Node000009" class="edge">
<title>Node9&#45;&gt;Node9</title>
<g id="a_edge13_Node000009_Node000009"><a xlink:title=" ">
<path fill="none" stroke="#63b8ff" d="M956.78,-221.91C951.41,-231.12 961.94,-239.5 988.38,-239.5 1003.24,-239.5 1013.08,-236.85 1017.89,-232.89"/>
<polygon fill="#63b8ff" stroke="#63b8ff" points="1021.26,-233.88 1019.69,-223.4 1014.38,-232.57 1021.26,-233.88"/>
</a>
</g>
</g>
<!-- Node10 -->
<g id="Node000010" class="node">
<title>Node10</title>
<g id="a_Node000010"><a xlink:href="classvalidation__api_1_1Validation.html#a49e598a8189b6bd6edf1ecdb00ae8b9d" target="_top" xlink:title=" ">
<polygon fill="white" stroke="#666666" points="1602,-498.5 1462.25,-498.5 1462.25,-465 1602,-465 1602,-498.5"/>
<text text-anchor="start" x="1470.25" y="-485" font-family="Helvetica,sans-Serif" font-size="10.00">validation_api::Validation</text>
<text text-anchor="middle" x="1532.12" y="-472.25" font-family="Helvetica,sans-Serif" font-size="10.00">::findJsonField</text>
</a>
</g>
</g>
<!-- Node9&#45;&gt;Node10 -->
<g id="edge11_Node000009_Node000010" class="edge">
<title>Node9&#45;&gt;Node10</title>
<g id="a_edge11_Node000009_Node000010"><a xlink:title=" ">
<path fill="none" stroke="#63b8ff" d="M999.42,-221.86C1031.11,-273.86 1134.9,-429.96 1270,-485.75 1327.12,-509.34 1397.44,-506.67 1450.71,-499.03"/>
<polygon fill="#63b8ff" stroke="#63b8ff" points="1450.96,-502.53 1460.31,-497.56 1449.9,-495.61 1450.96,-502.53"/>
</a>
</g>
</g>
<!-- Node11 -->
<g id="Node000011" class="node">
<title>Node11</title>
<g id="a_Node000011"><a xlink:href="classvalidation__api_1_1Validation.html#a1cc0802269d88c233ad3c3d1d6c3dd12" target="_top" xlink:title=" ">
<polygon fill="white" stroke="#666666" points="1234,-301.5 1094.25,-301.5 1094.25,-268 1234,-268 1234,-301.5"/>
<text text-anchor="start" x="1102.25" y="-288" font-family="Helvetica,sans-Serif" font-size="10.00">validation_api::Validation</text>
<text text-anchor="middle" x="1164.12" y="-275.25" font-family="Helvetica,sans-Serif" font-size="10.00">::validate</text>
</a>
</g>
</g>
<!-- Node9&#45;&gt;Node11 -->
<g id="edge14_Node000009_Node000011" class="edge">
<title>Node9&#45;&gt;Node11</title>
<g id="a_edge14_Node000009_Node000011"><a xlink:title=" ">
<path fill="none" stroke="#63b8ff" d="M1026.65,-221.91C1052.64,-233.88 1087.55,-249.95 1115.55,-262.85"/>
<polygon fill="#63b8ff" stroke="#63b8ff" points="1113.99,-265.98 1124.54,-266.98 1116.92,-259.62 1113.99,-265.98"/>
</a>
</g>
</g>
<!-- Node10&#45;&gt;Node10 -->
<g id="edge12_Node000010_Node000010" class="edge">
<title>Node10&#45;&gt;Node10</title>
<g id="a_edge12_Node000010_Node000010"><a xlink:title=" ">
<path fill="none" stroke="#63b8ff" d="M1498.64,-498.91C1492.95,-508.12 1504.11,-516.5 1532.12,-516.5 1547.88,-516.5 1558.31,-513.85 1563.4,-509.89"/>
<polygon fill="#63b8ff" stroke="#63b8ff" points="1566.77,-510.89 1565.31,-500.4 1559.9,-509.51 1566.77,-510.89"/>
</a>
</g>
</g>
<!-- Node11&#45;&gt;Node7 -->
<g id="edge17_Node000011_Node000007" class="edge">
<title>Node11&#45;&gt;Node7</title>
<g id="a_edge17_Node000011_Node000007"><a xlink:title=" ">
<path fill="none" stroke="#63b8ff" d="M1191.35,-267.73C1212.01,-254.95 1241.93,-237.81 1270,-226.75 1334.69,-201.27 1355.96,-211.24 1421.75,-188.75 1448.44,-179.62 1477.64,-166.65 1499.16,-156.48"/>
<polygon fill="#63b8ff" stroke="#63b8ff" points="1500.48,-159.73 1507.99,-152.26 1497.46,-153.42 1500.48,-159.73"/>
</a>
</g>
</g>
<!-- Node12 -->
<g id="Node000012" class="node">
<title>Node12</title>
<g id="a_Node000012"><a xlink:href="classvalidation__api_1_1Validation.html#a7b6995b4592eb861af42e45b095382b7" target="_top" xlink:title="Checking Uuid values.">
<polygon fill="white" stroke="#666666" points="1415.75,-476.5 1276,-476.5 1276,-443 1415.75,-443 1415.75,-476.5"/>
<text text-anchor="start" x="1284" y="-463" font-family="Helvetica,sans-Serif" font-size="10.00">validation_api::Validation</text>
<text text-anchor="middle" x="1345.88" y="-450.25" font-family="Helvetica,sans-Serif" font-size="10.00">::checkNullOptionsVec</text>
</a>
</g>
</g>
<!-- Node11&#45;&gt;Node12 -->
<g id="edge15_Node000011_Node000012" class="edge">
<title>Node11&#45;&gt;Node12</title>
<g id="a_edge15_Node000011_Node000012"><a xlink:title=" ">
<path fill="none" stroke="#63b8ff" d="M1172.64,-301.66C1187.12,-332.34 1221.75,-397.38 1270,-433.75 1271.51,-434.89 1273.08,-435.98 1274.68,-437.03"/>
<polygon fill="#63b8ff" stroke="#63b8ff" points="1272.57,-439.85 1282.99,-441.78 1276.05,-433.77 1272.57,-439.85"/>
</a>
</g>
</g>
<!-- Node13 -->
<g id="Node000013" class="node">
<title>Node13</title>
<g id="a_Node000013"><a xlink:href="classvalidation__api_1_1Validation.html#ac59ae7a00f5fc950a3a572524127c4d3" target="_top" xlink:title="Checks if a json object is empty.">
<polygon fill="white" stroke="#666666" points="1415.75,-424.5 1276,-424.5 1276,-391 1415.75,-391 1415.75,-424.5"/>
<text text-anchor="start" x="1284" y="-411" font-family="Helvetica,sans-Serif" font-size="10.00">validation_api::Validation</text>
<text text-anchor="middle" x="1345.88" y="-398.25" font-family="Helvetica,sans-Serif" font-size="10.00">::isNullOrEmpty</text>
</a>
</g>
</g>
<!-- Node11&#45;&gt;Node13 -->
<g id="edge18_Node000011_Node000013" class="edge">
<title>Node11&#45;&gt;Node13</title>
<g id="a_edge18_Node000011_Node000013"><a xlink:title=" ">
<path fill="none" stroke="#63b8ff" d="M1179.45,-301.77C1198.25,-323.14 1233.21,-359.68 1270,-381.75 1272.29,-383.12 1274.66,-384.44 1277.09,-385.7"/>
<polygon fill="#63b8ff" stroke="#63b8ff" points="1275.44,-388.78 1285.97,-389.89 1278.43,-382.46 1275.44,-388.78"/>
</a>
</g>
</g>
<!-- Node14 -->
<g id="Node000014" class="node">
<title>Node14</title>
<g id="a_Node000014"><a xlink:href="namespacevalidation__api.html#ac19e25b4d8364b0f52152440dd5ecbda" target="_top" xlink:title=" ">
<polygon fill="white" stroke="#666666" points="1418.75,-373.12 1273,-373.12 1273,-352.38 1418.75,-352.38 1418.75,-373.12"/>
<text text-anchor="middle" x="1345.88" y="-359.62" font-family="Helvetica,sans-Serif" font-size="10.00">validation_api::isValidUuid</text>
</a>
</g>
</g>
<!-- Node11&#45;&gt;Node14 -->
<g id="edge19_Node000011_Node000014" class="edge">
<title>Node11&#45;&gt;Node14</title>
<g id="a_edge19_Node000011_Node000014"><a xlink:title=" ">
<path fill="none" stroke="#63b8ff" d="M1191.82,-301.91C1212.5,-314.6 1242.21,-331.55 1270,-342.75 1275.25,-344.86 1280.79,-346.82 1286.39,-348.62"/>
<polygon fill="#63b8ff" stroke="#63b8ff" points="1285.14,-351.9 1295.72,-351.44 1287.16,-345.2 1285.14,-351.9"/>
</a>
</g>
</g>
<!-- Node15 -->
<g id="Node000015" class="node">
<title>Node15</title>
<g id="a_Node000015"><a xlink:href="namespacevalidation__api.html#a6dd56dcf7358b332bb906a2d27fddd0b" target="_top" xlink:title="Converts string to all lowercase.">
<polygon fill="white" stroke="#666666" points="1410.88,-334.12 1280.88,-334.12 1280.88,-313.38 1410.88,-313.38 1410.88,-334.12"/>
<text text-anchor="middle" x="1345.88" y="-320.62" font-family="Helvetica,sans-Serif" font-size="10.00">validation_api::toLower</text>
</a>
</g>
</g>
<!-- Node11&#45;&gt;Node15 -->
<g id="edge20_Node000011_Node000015" class="edge">
<title>Node11&#45;&gt;Node15</title>
<g id="a_edge20_Node000011_Node000015"><a xlink:title=" ">
<path fill="none" stroke="#63b8ff" d="M1234.36,-299.77C1250.76,-303.33 1268.12,-307.1 1284.1,-310.56"/>
<polygon fill="#63b8ff" stroke="#63b8ff" points="1282.92,-313.89 1293.44,-312.59 1284.41,-307.05 1282.92,-313.89"/>
</a>
</g>
</g>
<!-- Node16 -->
<g id="Node000016" class="node">
<title>Node16</title>
<g id="a_Node000016"><a xlink:href="namespacevalidation__api.html#aae32fd7a0b5886a49454679d46ed4bd1" target="_top" xlink:title="Validates Ahv string.">
<polygon fill="white" stroke="#666666" points="1420.62,-295.12 1271.12,-295.12 1271.12,-274.38 1420.62,-274.38 1420.62,-295.12"/>
<text text-anchor="middle" x="1345.88" y="-281.62" font-family="Helvetica,sans-Serif" font-size="10.00">validation_api::validateAhv</text>
</a>
</g>
</g>
<!-- Node11&#45;&gt;Node16 -->
<g id="edge21_Node000011_Node000016" class="edge">
<title>Node11&#45;&gt;Node16</title>
<g id="a_edge21_Node000011_Node000016"><a xlink:title=" ">
<path fill="none" stroke="#63b8ff" d="M1234.36,-284.75C1242.59,-284.75 1251.06,-284.75 1259.48,-284.75"/>
<polygon fill="#63b8ff" stroke="#63b8ff" points="1259.39,-288.25 1269.39,-284.75 1259.39,-281.25 1259.39,-288.25"/>
</a>
</g>
</g>
<!-- Node17 -->
<g id="Node000017" class="node">
<title>Node17</title>
<g id="a_Node000017"><a xlink:href="classvalidation__api_1_1Validation.html#a512e2e0c3be1bea95ebfab280ec919ba" target="_top" xlink:title="Validates len options.">
<polygon fill="white" stroke="#666666" points="1415.75,-179.5 1276,-179.5 1276,-146 1415.75,-146 1415.75,-179.5"/>
<text text-anchor="start" x="1284" y="-166" font-family="Helvetica,sans-Serif" font-size="10.00">validation_api::Validation</text>
<text text-anchor="middle" x="1345.88" y="-153.25" font-family="Helvetica,sans-Serif" font-size="10.00">::validateConstraints</text>
</a>
</g>
</g>
<!-- Node11&#45;&gt;Node17 -->
<g id="edge22_Node000011_Node000017" class="edge">
<title>Node11&#45;&gt;Node17</title>
<g id="a_edge22_Node000011_Node000017"><a xlink:title=" ">
<path fill="none" stroke="#63b8ff" d="M1181.22,-267.79C1200.74,-247.97 1235.35,-215.17 1270,-193.75 1275.24,-190.51 1280.87,-187.48 1286.61,-184.67"/>
<polygon fill="#63b8ff" stroke="#63b8ff" points="1288.02,-187.87 1295.63,-180.5 1285.08,-181.52 1288.02,-187.87"/>
</a>
</g>
</g>
<!-- Node18 -->
<g id="Node000018" class="node">
<title>Node18</title>
<g id="a_Node000018"><a xlink:href="namespacevalidation__api.html#a0a2b975e162ced567ba3a6075684092a" target="_top" xlink:title="Validates Iban string.">
<polygon fill="white" stroke="#666666" points="1421.75,-256.12 1270,-256.12 1270,-235.38 1421.75,-235.38 1421.75,-256.12"/>
<text text-anchor="middle" x="1345.88" y="-242.62" font-family="Helvetica,sans-Serif" font-size="10.00">validation_api::validateIban</text>
</a>
</g>
</g>
<!-- Node11&#45;&gt;Node18 -->
<g id="edge24_Node000011_Node000018" class="edge">
<title>Node11&#45;&gt;Node18</title>
<g id="a_edge24_Node000011_Node000018"><a xlink:title=" ">
<path fill="none" stroke="#63b8ff" d="M1234.36,-269.73C1250.76,-266.17 1268.12,-262.4 1284.1,-258.94"/>
<polygon fill="#63b8ff" stroke="#63b8ff" points="1284.41,-262.45 1293.44,-256.91 1282.92,-255.61 1284.41,-262.45"/>
</a>
</g>
</g>
<!-- Node12&#45;&gt;Node10 -->
<g id="edge16_Node000012_Node000010" class="edge">
<title>Node12&#45;&gt;Node10</title>
<g id="a_edge16_Node000012_Node000010"><a xlink:title=" ">
<path fill="none" stroke="#63b8ff" d="M1416.01,-468C1427.27,-469.35 1439.01,-470.75 1450.52,-472.13"/>
<polygon fill="#63b8ff" stroke="#63b8ff" points="1450.06,-475.6 1460.41,-473.31 1450.89,-468.65 1450.06,-475.6"/>
</a>
</g>
</g>
<!-- Node17&#45;&gt;Node7 -->
<g id="edge23_Node000017_Node000007" class="edge">
<title>Node17&#45;&gt;Node7</title>
<g id="a_edge23_Node000017_Node000007"><a xlink:title=" ">
<path fill="none" stroke="#63b8ff" d="M1416.01,-154.5C1425.8,-153.33 1435.96,-152.11 1446.02,-150.91"/>
<polygon fill="#63b8ff" stroke="#63b8ff" points="1446.27,-154.41 1455.79,-149.75 1445.44,-147.46 1446.27,-154.41"/>
</a>
</g>
</g>
</g>
</svg>
