<?xml version="1.0" encoding="UTF-8" standalone="no"?>
<!DOCTYPE svg PUBLIC "-//W3C//DTD SVG 1.1//EN"
 "http://www.w3.org/Graphics/SVG/1.1/DTD/svg11.dtd">
<!-- Generated by graphviz version 10.0.1 (0)
 -->
<!-- Title: validation_api::ConfigWatcher::read_file Pages: 1 -->
<svg width="549pt" height="163pt"
 viewBox="0.00 0.00 548.75 163.12" xmlns="http://www.w3.org/2000/svg" xmlns:xlink="http://www.w3.org/1999/xlink">
<g id="graph0" class="graph" transform="scale(1 1) rotate(0) translate(4 159.12)">
<title>validation_api::ConfigWatcher::read_file</title>
<!-- Node1 -->
<g id="Node000001" class="node">
<title>Node1</title>
<g id="a_Node000001"><a xlink:title=" ">
<polygon fill="#999999" stroke="#666666" points="161.5,-120.12 0,-120.12 0,-86.62 161.5,-86.62 161.5,-120.12"/>
<text text-anchor="start" x="8" y="-106.62" font-family="Helvetica,sans-Serif" font-size="10.00">validation_api::ConfigWatcher</text>
<text text-anchor="middle" x="80.75" y="-93.88" font-family="Helvetica,sans-Serif" font-size="10.00">::read_file</text>
</a>
</g>
</g>
<!-- Node2 -->
<g id="Node000002" class="node">
<title>Node2</title>
<g id="a_Node000002"><a xlink:href="classvalidation__api_1_1ConfigService.html#a8fee54d1f3f5eb92a17c3ecd72780f00" target="_top" xlink:title="getConfigs method">
<polygon fill="white" stroke="#666666" points="355.25,-155.12 197.5,-155.12 197.5,-121.62 355.25,-121.62 355.25,-155.12"/>
<text text-anchor="start" x="205.5" y="-141.62" font-family="Helvetica,sans-Serif" font-size="10.00">validation_api::ConfigService</text>
<text text-anchor="middle" x="276.38" y="-128.88" font-family="Helvetica,sans-Serif" font-size="10.00">::createConfig</text>
</a>
</g>
</g>
<!-- Node1&#45;&gt;Node2 -->
<g id="edge1_Node000001_Node000002" class="edge">
<title>Node1&#45;&gt;Node2</title>
<g id="a_edge1_Node000001_Node000002"><a xlink:title=" ">
<path fill="none" stroke="#63b8ff" d="M161.9,-117.86C169.82,-119.3 177.9,-120.75 185.9,-122.2"/>
<polygon fill="#63b8ff" stroke="#63b8ff" points="185.2,-125.63 195.66,-123.97 186.44,-118.74 185.2,-125.63"/>
</a>
</g>
</g>
<!-- Node3 -->
<g id="Node000003" class="node">
<title>Node3</title>
<g id="a_Node000003"><a xlink:href="namespacevalidation__api.html#aa82c6b3a43b6e6b59b529c22944cadca" target="_top" xlink:title="Ensures valid Xml configuration.">
<polygon fill="white" stroke="#666666" points="341.75,-85.12 211,-85.12 211,-51.62 341.75,-51.62 341.75,-85.12"/>
<text text-anchor="start" x="219" y="-71.62" font-family="Helvetica,sans-Serif" font-size="10.00">validation_api::validate</text>
<text text-anchor="middle" x="276.38" y="-58.88" font-family="Helvetica,sans-Serif" font-size="10.00">XmlConfig</text>
</a>
</g>
</g>
<!-- Node1&#45;&gt;Node3 -->
<g id="edge2_Node000001_Node000003" class="edge">
<title>Node1&#45;&gt;Node3</title>
<g id="a_edge2_Node000001_Node000003"><a xlink:title=" ">
<path fill="none" stroke="#63b8ff" d="M161.9,-88.89C174.33,-86.64 187.13,-84.33 199.46,-82.1"/>
<polygon fill="#63b8ff" stroke="#63b8ff" points="199.92,-85.57 209.14,-80.35 198.67,-78.68 199.92,-85.57"/>
</a>
</g>
</g>
<!-- Node3&#45;&gt;Node3 -->
<g id="edge7_Node000003_Node000003" class="edge">
<title>Node3&#45;&gt;Node3</title>
<g id="a_edge7_Node000003_Node000003"><a xlink:title=" ">
<path fill="none" stroke="#63b8ff" d="M242.29,-85.54C236.49,-94.74 247.86,-103.12 276.38,-103.12 292.42,-103.12 303.03,-100.47 308.21,-96.51"/>
<polygon fill="#63b8ff" stroke="#63b8ff" points="311.58,-97.52 310.16,-87.02 304.72,-96.12 311.58,-97.52"/>
</a>
</g>
</g>
<!-- Node4 -->
<g id="Node000004" class="node">
<title>Node4</title>
<g id="a_Node000004"><a xlink:href="namespacevalidation__api.html#a0c0f34d744f57bb06458867fbee4b7a9" target="_top" xlink:title="Insert an error into a json object.">
<polygon fill="white" stroke="#666666" points="540.75,-137.75 391.25,-137.75 391.25,-117 540.75,-117 540.75,-137.75"/>
<text text-anchor="middle" x="466" y="-124.25" font-family="Helvetica,sans-Serif" font-size="10.00">validation_api::insertToJson</text>
</a>
</g>
</g>
<!-- Node3&#45;&gt;Node4 -->
<g id="edge3_Node000003_Node000004" class="edge">
<title>Node3&#45;&gt;Node4</title>
<g id="a_edge3_Node000003_Node000004"><a xlink:title=" ">
<path fill="none" stroke="#63b8ff" d="M325.35,-85.58C345.59,-92.64 369.47,-100.7 391.25,-107.38 397.99,-109.44 405.11,-111.51 412.17,-113.5"/>
<polygon fill="#63b8ff" stroke="#63b8ff" points="411.1,-116.83 421.67,-116.13 412.97,-110.09 411.1,-116.83"/>
</a>
</g>
</g>
<!-- Node5 -->
<g id="Node000005" class="node">
<title>Node5</title>
<g id="a_Node000005"><a xlink:href="namespacevalidation__api.html#ac497c1198e4e7f0fe71ffbdb3e6beeaa" target="_top" xlink:title="Convert string to float.">
<polygon fill="white" stroke="#666666" points="528,-98.75 404,-98.75 404,-78 528,-78 528,-98.75"/>
<text text-anchor="middle" x="466" y="-85.25" font-family="Helvetica,sans-Serif" font-size="10.00">validation_api::isFloat</text>
</a>
</g>
</g>
<!-- Node3&#45;&gt;Node5 -->
<g id="edge4_Node000003_Node000005" class="edge">
<title>Node3&#45;&gt;Node5</title>
<g id="a_edge4_Node000003_Node000005"><a xlink:title=" ">
<path fill="none" stroke="#63b8ff" d="M342.21,-75.29C358.39,-77.01 375.84,-78.87 392.37,-80.63"/>
<polygon fill="#63b8ff" stroke="#63b8ff" points="391.82,-84.09 402.13,-81.67 392.56,-77.13 391.82,-84.09"/>
</a>
</g>
</g>
<!-- Node6 -->
<g id="Node000006" class="node">
<title>Node6</title>
<g id="a_Node000006"><a xlink:href="namespacevalidation__api.html#ac19e25b4d8364b0f52152440dd5ecbda" target="_top" xlink:title=" ">
<polygon fill="white" stroke="#666666" points="538.88,-59.75 393.12,-59.75 393.12,-39 538.88,-39 538.88,-59.75"/>
<text text-anchor="middle" x="466" y="-46.25" font-family="Helvetica,sans-Serif" font-size="10.00">validation_api::isValidUuid</text>
</a>
</g>
</g>
<!-- Node3&#45;&gt;Node6 -->
<g id="edge5_Node000003_Node000006" class="edge">
<title>Node3&#45;&gt;Node6</title>
<g id="a_edge5_Node000003_Node000006"><a xlink:title=" ">
<path fill="none" stroke="#63b8ff" d="M342.21,-61.81C354.82,-60.53 368.22,-59.18 381.34,-57.85"/>
<polygon fill="#63b8ff" stroke="#63b8ff" points="381.67,-61.33 391.27,-56.84 380.97,-54.37 381.67,-61.33"/>
</a>
</g>
</g>
<!-- Node7 -->
<g id="Node000007" class="node">
<title>Node7</title>
<g id="a_Node000007"><a xlink:href="namespacevalidation__api.html#a6dd56dcf7358b332bb906a2d27fddd0b" target="_top" xlink:title="Converts string to all lowercase.">
<polygon fill="white" stroke="#666666" points="531,-20.75 401,-20.75 401,0 531,0 531,-20.75"/>
<text text-anchor="middle" x="466" y="-7.25" font-family="Helvetica,sans-Serif" font-size="10.00">validation_api::toLower</text>
</a>
</g>
</g>
<!-- Node3&#45;&gt;Node7 -->
<g id="edge6_Node000003_Node000007" class="edge">
<title>Node3&#45;&gt;Node7</title>
<g id="a_edge6_Node000003_Node000007"><a xlink:title=" ">
<path fill="none" stroke="#63b8ff" d="M326.78,-51.2C346.73,-44.45 370,-36.8 391.25,-30.38 398.08,-28.31 405.3,-26.23 412.44,-24.23"/>
<polygon fill="#63b8ff" stroke="#63b8ff" points="413.37,-27.61 422.08,-21.57 411.51,-20.86 413.37,-27.61"/>
</a>
</g>
</g>
</g>
</svg>
