<?xml version="1.0" encoding="UTF-8" standalone="no"?>
<!DOCTYPE svg PUBLIC "-//W3C//DTD SVG 1.1//EN"
 "http://www.w3.org/Graphics/SVG/1.1/DTD/svg11.dtd">
<!-- Generated by graphviz version 10.0.1 (0)
 -->
<!-- Title: validation_api::ValidationServer::ValidationServer Pages: 1 -->
<svg width="693pt" height="120pt"
 viewBox="0.00 0.00 693.00 119.50" xmlns="http://www.w3.org/2000/svg" xmlns:xlink="http://www.w3.org/1999/xlink">
<g id="graph0" class="graph" transform="scale(1 1) rotate(0) translate(4 115.5)">
<title>validation_api::ValidationServer::ValidationServer</title>
<!-- Node1 -->
<g id="Node000001" class="node">
<title>Node1</title>
<g id="a_Node000001"><a xlink:title=" ">
<polygon fill="#999999" stroke="#666666" points="139.75,-59.5 0,-59.5 0,-26 139.75,-26 139.75,-59.5"/>
<text text-anchor="start" x="8" y="-46" font-family="Helvetica,sans-Serif" font-size="10.00">validation_api::Validation</text>
<text text-anchor="middle" x="69.88" y="-33.25" font-family="Helvetica,sans-Serif" font-size="10.00">Server::ValidationServer</text>
</a>
</g>
</g>
<!-- Node2 -->
<g id="Node000002" class="node">
<title>Node2</title>
<g id="a_Node000002"><a xlink:href="classvalidation__api_1_1ValidationServer.html#ad67c7031c85ea1cd6eb84f6b01c424df" target="_top" xlink:title="Start the server.">
<polygon fill="white" stroke="#666666" points="315.5,-85.5 175.75,-85.5 175.75,-52 315.5,-52 315.5,-85.5"/>
<text text-anchor="start" x="183.75" y="-72" font-family="Helvetica,sans-Serif" font-size="10.00">validation_api::Validation</text>
<text text-anchor="middle" x="245.62" y="-59.25" font-family="Helvetica,sans-Serif" font-size="10.00">Server::run</text>
</a>
</g>
</g>
<!-- Node1&#45;&gt;Node2 -->
<g id="edge1_Node000001_Node000002" class="edge">
<title>Node1&#45;&gt;Node2</title>
<g id="a_edge1_Node000001_Node000002"><a xlink:title=" ">
<path fill="none" stroke="#63b8ff" d="M140.04,-53.1C147.96,-54.28 156.07,-55.5 164.12,-56.7"/>
<polygon fill="#63b8ff" stroke="#63b8ff" points="163.5,-60.15 173.91,-58.17 164.54,-53.23 163.5,-60.15"/>
</a>
</g>
</g>
<!-- Node6 -->
<g id="Node000006" class="node">
<title>Node6</title>
<g id="a_Node000006"><a xlink:href="classvalidation__api_1_1ValidationServer.html#aee6d6d3e85ff6a2ca7a476f15e341aa8" target="_top" xlink:title="Setup the server.">
<polygon fill="white" stroke="#666666" points="315.5,-33.5 175.75,-33.5 175.75,0 315.5,0 315.5,-33.5"/>
<text text-anchor="start" x="183.75" y="-20" font-family="Helvetica,sans-Serif" font-size="10.00">validation_api::Validation</text>
<text text-anchor="middle" x="245.62" y="-7.25" font-family="Helvetica,sans-Serif" font-size="10.00">Server::setup</text>
</a>
</g>
</g>
<!-- Node1&#45;&gt;Node6 -->
<g id="edge6_Node000001_Node000006" class="edge">
<title>Node1&#45;&gt;Node6</title>
<g id="a_edge6_Node000001_Node000006"><a xlink:title=" ">
<path fill="none" stroke="#63b8ff" d="M140.04,-32.4C147.96,-31.22 156.07,-30 164.12,-28.8"/>
<polygon fill="#63b8ff" stroke="#63b8ff" points="164.54,-32.27 173.91,-27.33 163.5,-25.35 164.54,-32.27"/>
</a>
</g>
</g>
<!-- Node2&#45;&gt;Node2 -->
<g id="edge5_Node000002_Node000002" class="edge">
<title>Node2&#45;&gt;Node2</title>
<g id="a_edge5_Node000002_Node000002"><a xlink:title=" ">
<path fill="none" stroke="#63b8ff" d="M214.03,-85.91C208.66,-95.12 219.19,-103.5 245.62,-103.5 260.49,-103.5 270.33,-100.85 275.14,-96.89"/>
<polygon fill="#63b8ff" stroke="#63b8ff" points="278.51,-97.88 276.94,-87.4 271.63,-96.57 278.51,-97.88"/>
</a>
</g>
</g>
<!-- Node3 -->
<g id="Node000003" class="node">
<title>Node3</title>
<g id="a_Node000003"><a xlink:href="classvalidation__api_1_1ValidationServer.html#a7f5c5252fa7a28bef0345e6248139215" target="_top" xlink:title="Accept a connection @detail This function is called when a connection is accepted....">
<polygon fill="white" stroke="#666666" points="491.25,-85.5 351.5,-85.5 351.5,-52 491.25,-52 491.25,-85.5"/>
<text text-anchor="start" x="359.5" y="-72" font-family="Helvetica,sans-Serif" font-size="10.00">validation_api::Validation</text>
<text text-anchor="middle" x="421.38" y="-59.25" font-family="Helvetica,sans-Serif" font-size="10.00">Server::accept</text>
</a>
</g>
</g>
<!-- Node2&#45;&gt;Node3 -->
<g id="edge2_Node000002_Node000003" class="edge">
<title>Node2&#45;&gt;Node3</title>
<g id="a_edge2_Node000002_Node000003"><a xlink:title=" ">
<path fill="none" stroke="#63b8ff" d="M315.79,-68.75C323.71,-68.75 331.82,-68.75 339.87,-68.75"/>
<polygon fill="#63b8ff" stroke="#63b8ff" points="339.65,-72.25 349.65,-68.75 339.65,-65.25 339.65,-72.25"/>
</a>
</g>
</g>
<!-- Node4 -->
<g id="Node000004" class="node">
<title>Node4</title>
<g id="a_Node000004"><a xlink:href="classvalidation__api_1_1ValidationServer.html#a59c4a313effe28cc0acca7b8bb3a26e4" target="_top" xlink:title=" ">
<polygon fill="white" stroke="#666666" points="676,-111.5 536.25,-111.5 536.25,-78 676,-78 676,-111.5"/>
<text text-anchor="start" x="544.25" y="-98" font-family="Helvetica,sans-Serif" font-size="10.00">validation_api::Validation</text>
<text text-anchor="middle" x="606.12" y="-85.25" font-family="Helvetica,sans-Serif" font-size="10.00">Server::asyncWriter</text>
</a>
</g>
</g>
<!-- Node3&#45;&gt;Node4 -->
<g id="edge3_Node000003_Node000004" class="edge">
<title>Node3&#45;&gt;Node4</title>
<g id="a_edge3_Node000003_Node000004"><a xlink:title=" ">
<path fill="none" stroke="#63b8ff" d="M491.73,-78.62C502.44,-80.14 513.59,-81.73 524.53,-83.28"/>
<polygon fill="#63b8ff" stroke="#63b8ff" points="523.93,-86.73 534.32,-84.68 524.92,-79.8 523.93,-86.73"/>
</a>
</g>
</g>
<!-- Node5 -->
<g id="Node000005" class="node">
<title>Node5</title>
<g id="a_Node000005"><a xlink:href="classvalidation__api_1_1ConfigService.html#a654e84f4f588f7391f93210c1e08344f" target="_top" xlink:title="getConfigs method">
<polygon fill="white" stroke="#666666" points="685,-59.5 527.25,-59.5 527.25,-26 685,-26 685,-59.5"/>
<text text-anchor="start" x="535.25" y="-46" font-family="Helvetica,sans-Serif" font-size="10.00">validation_api::ConfigService</text>
<text text-anchor="middle" x="606.12" y="-33.25" font-family="Helvetica,sans-Serif" font-size="10.00">::validateConfig</text>
</a>
</g>
</g>
<!-- Node3&#45;&gt;Node5 -->
<g id="edge4_Node000003_Node000005" class="edge">
<title>Node3&#45;&gt;Node5</title>
<g id="a_edge4_Node000003_Node000005"><a xlink:title=" ">
<path fill="none" stroke="#63b8ff" d="M491.73,-58.88C499.55,-57.77 507.6,-56.62 515.64,-55.48"/>
<polygon fill="#63b8ff" stroke="#63b8ff" points="516.05,-58.96 525.46,-54.08 515.06,-52.03 516.05,-58.96"/>
</a>
</g>
</g>
</g>
</svg>
