<?xml version="1.0" encoding="UTF-8" standalone="no"?>
<!DOCTYPE svg PUBLIC "-//W3C//DTD SVG 1.1//EN"
 "http://www.w3.org/Graphics/SVG/1.1/DTD/svg11.dtd">
<!-- Generated by graphviz version 10.0.1 (0)
 -->
<!-- Title: validation_api::ErrorBuilder::build Pages: 1 -->
<svg width="1474pt" height="167pt"
 viewBox="0.00 0.00 1474.00 167.24" xmlns="http://www.w3.org/2000/svg" xmlns:xlink="http://www.w3.org/1999/xlink">
<g id="graph0" class="graph" transform="scale(1 1) rotate(0) translate(4 163.24)">
<title>validation_api::ErrorBuilder::build</title>
<!-- Node1 -->
<g id="Node000001" class="node">
<title>Node1</title>
<g id="a_Node000001"><a xlink:title=" ">
<polygon fill="#999999" stroke="#666666" points="1466,-128.5 1317.25,-128.5 1317.25,-95 1466,-95 1466,-128.5"/>
<text text-anchor="start" x="1325.25" y="-115" font-family="Helvetica,sans-Serif" font-size="10.00">validation_api::ErrorBuilder</text>
<text text-anchor="middle" x="1391.62" y="-102.25" font-family="Helvetica,sans-Serif" font-size="10.00">::build</text>
</a>
</g>
</g>
<!-- Node2 -->
<g id="Node000002" class="node">
<title>Node2</title>
<g id="a_Node000002"><a xlink:href="classvalidation__api_1_1Validation.html#ac6c337d3af39943a8e603a5f21f5922a" target="_top" xlink:title=" ">
<polygon fill="white" stroke="#666666" points="897.12,-132.12 735.62,-132.12 735.62,-111.38 897.12,-111.38 897.12,-132.12"/>
<text text-anchor="middle" x="816.38" y="-118.62" font-family="Helvetica,sans-Serif" font-size="10.00">validation_api::Validation::run</text>
</a>
</g>
</g>
<!-- Node1&#45;&gt;Node2 -->
<g id="edge1_Node000001_Node000002" class="edge">
<title>Node1&#45;&gt;Node2</title>
<g id="a_edge1_Node000001_Node000002"><a xlink:title=" ">
<path fill="none" stroke="#63b8ff" d="M1305.75,-130.7C1215.78,-148.23 1069.63,-169.38 944,-153.75 911.82,-149.75 876.08,-140.23 850.8,-132.61"/>
<polygon fill="#63b8ff" stroke="#63b8ff" points="1306.37,-134.15 1315.49,-128.77 1305,-127.28 1306.37,-134.15"/>
</a>
</g>
</g>
<!-- Node7 -->
<g id="Node000007" class="node">
<title>Node7</title>
<g id="a_Node000007"><a xlink:href="classvalidation__api_1_1Validation.html#a3c8146fc89af5b8cef0c1bb6c9d473f2" target="_top" xlink:title="Traverse through the json object and validate the fields.">
<polygon fill="white" stroke="#666666" points="1094.62,-126.5 954.88,-126.5 954.88,-93 1094.62,-93 1094.62,-126.5"/>
<text text-anchor="start" x="962.88" y="-113" font-family="Helvetica,sans-Serif" font-size="10.00">validation_api::Validation</text>
<text text-anchor="middle" x="1024.75" y="-100.25" font-family="Helvetica,sans-Serif" font-size="10.00">::traverseAndValidate</text>
</a>
</g>
</g>
<!-- Node1&#45;&gt;Node7 -->
<g id="edge7_Node000001_Node000007" class="edge">
<title>Node1&#45;&gt;Node7</title>
<g id="a_edge7_Node000001_Node000007"><a xlink:title=" ">
<path fill="none" stroke="#63b8ff" d="M1305.32,-115.17C1297.19,-115.41 1289.06,-115.61 1281.25,-115.75 1219.15,-116.89 1203.59,-117.36 1141.5,-115.75 1126.41,-115.36 1110.23,-114.68 1094.89,-113.92"/>
<polygon fill="#63b8ff" stroke="#63b8ff" points="1305.4,-118.67 1315.29,-114.86 1305.18,-111.67 1305.4,-118.67"/>
</a>
</g>
</g>
<!-- Node8 -->
<g id="Node000008" class="node">
<title>Node8</title>
<g id="a_Node000008"><a xlink:href="classvalidation__api_1_1Validation.html#a1cc0802269d88c233ad3c3d1d6c3dd12" target="_top" xlink:title=" ">
<polygon fill="white" stroke="#666666" points="1281.25,-106.5 1141.5,-106.5 1141.5,-73 1281.25,-73 1281.25,-106.5"/>
<text text-anchor="start" x="1149.5" y="-93" font-family="Helvetica,sans-Serif" font-size="10.00">validation_api::Validation</text>
<text text-anchor="middle" x="1211.38" y="-80.25" font-family="Helvetica,sans-Serif" font-size="10.00">::validate</text>
</a>
</g>
</g>
<!-- Node1&#45;&gt;Node8 -->
<g id="edge10_Node000001_Node000008" class="edge">
<title>Node1&#45;&gt;Node8</title>
<g id="a_edge10_Node000001_Node000008"><a xlink:title=" ">
<path fill="none" stroke="#63b8ff" d="M1305.52,-101.25C1297.48,-100.25 1289.4,-99.26 1281.53,-98.29"/>
<polygon fill="#63b8ff" stroke="#63b8ff" points="1304.98,-104.71 1315.34,-102.46 1305.84,-97.76 1304.98,-104.71"/>
</a>
</g>
</g>
<!-- Node9 -->
<g id="Node000009" class="node">
<title>Node9</title>
<g id="a_Node000009"><a xlink:href="namespacevalidation__api.html#aa82c6b3a43b6e6b59b529c22944cadca" target="_top" xlink:title="Ensures valid Xml configuration.">
<polygon fill="white" stroke="#666666" points="1276.75,-36.5 1146,-36.5 1146,-3 1276.75,-3 1276.75,-36.5"/>
<text text-anchor="start" x="1154" y="-23" font-family="Helvetica,sans-Serif" font-size="10.00">validation_api::validate</text>
<text text-anchor="middle" x="1211.38" y="-10.25" font-family="Helvetica,sans-Serif" font-size="10.00">XmlConfig</text>
</a>
</g>
</g>
<!-- Node1&#45;&gt;Node9 -->
<g id="edge12_Node000001_Node000009" class="edge">
<title>Node1&#45;&gt;Node9</title>
<g id="a_edge12_Node000001_Node000009"><a xlink:title=" ">
<path fill="none" stroke="#63b8ff" d="M1347.33,-89.4C1316.01,-73.24 1274.32,-51.72 1245.61,-36.9"/>
<polygon fill="#63b8ff" stroke="#63b8ff" points="1345.68,-92.49 1356.17,-93.97 1348.89,-86.27 1345.68,-92.49"/>
</a>
</g>
</g>
<!-- Node3 -->
<g id="Node000003" class="node">
<title>Node3</title>
<g id="a_Node000003"><a xlink:href="classvalidation__api_1_1ConfigService.html#a654e84f4f588f7391f93210c1e08344f" target="_top" xlink:title="getConfigs method">
<polygon fill="white" stroke="#666666" points="686.88,-138.5 529.12,-138.5 529.12,-105 686.88,-105 686.88,-138.5"/>
<text text-anchor="start" x="537.12" y="-125" font-family="Helvetica,sans-Serif" font-size="10.00">validation_api::ConfigService</text>
<text text-anchor="middle" x="608" y="-112.25" font-family="Helvetica,sans-Serif" font-size="10.00">::validateConfig</text>
</a>
</g>
</g>
<!-- Node2&#45;&gt;Node3 -->
<g id="edge2_Node000002_Node000003" class="edge">
<title>Node2&#45;&gt;Node3</title>
<g id="a_edge2_Node000002_Node000003"><a xlink:title=" ">
<path fill="none" stroke="#63b8ff" d="M724.11,-121.75C711.85,-121.75 699.36,-121.75 687.34,-121.75"/>
<polygon fill="#63b8ff" stroke="#63b8ff" points="723.78,-125.25 733.78,-121.75 723.78,-118.25 723.78,-125.25"/>
</a>
</g>
</g>
<!-- Node4 -->
<g id="Node000004" class="node">
<title>Node4</title>
<g id="a_Node000004"><a xlink:href="classvalidation__api_1_1ValidationServer.html#a7f5c5252fa7a28bef0345e6248139215" target="_top" xlink:title="Accept a connection.">
<polygon fill="white" stroke="#666666" points="491.25,-138.5 351.5,-138.5 351.5,-105 491.25,-105 491.25,-138.5"/>
<text text-anchor="start" x="359.5" y="-125" font-family="Helvetica,sans-Serif" font-size="10.00">validation_api::Validation</text>
<text text-anchor="middle" x="421.38" y="-112.25" font-family="Helvetica,sans-Serif" font-size="10.00">Server::accept</text>
</a>
</g>
</g>
<!-- Node3&#45;&gt;Node4 -->
<g id="edge3_Node000003_Node000004" class="edge">
<title>Node3&#45;&gt;Node4</title>
<g id="a_edge3_Node000003_Node000004"><a xlink:title=" ">
<path fill="none" stroke="#63b8ff" d="M517.4,-121.75C508.78,-121.75 500.12,-121.75 491.73,-121.75"/>
<polygon fill="#63b8ff" stroke="#63b8ff" points="517.19,-125.25 527.19,-121.75 517.19,-118.25 517.19,-125.25"/>
</a>
</g>
</g>
<!-- Node5 -->
<g id="Node000005" class="node">
<title>Node5</title>
<g id="a_Node000005"><a xlink:href="classvalidation__api_1_1ValidationServer.html#ad67c7031c85ea1cd6eb84f6b01c424df" target="_top" xlink:title="Start the server.">
<polygon fill="white" stroke="#666666" points="315.5,-138.5 175.75,-138.5 175.75,-105 315.5,-105 315.5,-138.5"/>
<text text-anchor="start" x="183.75" y="-125" font-family="Helvetica,sans-Serif" font-size="10.00">validation_api::Validation</text>
<text text-anchor="middle" x="245.62" y="-112.25" font-family="Helvetica,sans-Serif" font-size="10.00">Server::run</text>
</a>
</g>
</g>
<!-- Node4&#45;&gt;Node5 -->
<g id="edge4_Node000004_Node000005" class="edge">
<title>Node4&#45;&gt;Node5</title>
<g id="a_edge4_Node000004_Node000005"><a xlink:title=" ">
<path fill="none" stroke="#63b8ff" d="M339.91,-121.75C331.87,-121.75 323.75,-121.75 315.84,-121.75"/>
<polygon fill="#63b8ff" stroke="#63b8ff" points="339.69,-125.25 349.69,-121.75 339.69,-118.25 339.69,-125.25"/>
</a>
</g>
</g>
<!-- Node5&#45;&gt;Node5 -->
<g id="edge5_Node000005_Node000005" class="edge">
<title>Node5&#45;&gt;Node5</title>
<g id="a_edge5_Node000005_Node000005"><a xlink:title=" ">
<path fill="none" stroke="#63b8ff" d="M275.14,-149.89C270.33,-153.85 260.49,-156.5 245.62,-156.5 219.19,-156.5 208.66,-148.12 214.03,-138.91"/>
<polygon fill="#63b8ff" stroke="#63b8ff" points="278.51,-150.88 276.94,-140.4 271.63,-149.57 278.51,-150.88"/>
</a>
</g>
</g>
<!-- Node6 -->
<g id="Node000006" class="node">
<title>Node6</title>
<g id="a_Node000006"><a xlink:href="classvalidation__api_1_1ValidationServer.html#a36098376f43a053f42d163d77a893e89" target="_top" xlink:title=" ">
<polygon fill="white" stroke="#666666" points="139.75,-138.5 0,-138.5 0,-105 139.75,-105 139.75,-138.5"/>
<text text-anchor="start" x="8" y="-125" font-family="Helvetica,sans-Serif" font-size="10.00">validation_api::Validation</text>
<text text-anchor="middle" x="69.88" y="-112.25" font-family="Helvetica,sans-Serif" font-size="10.00">Server::ValidationServer</text>
</a>
</g>
</g>
<!-- Node5&#45;&gt;Node6 -->
<g id="edge6_Node000005_Node000006" class="edge">
<title>Node5&#45;&gt;Node6</title>
<g id="a_edge6_Node000005_Node000006"><a xlink:title=" ">
<path fill="none" stroke="#63b8ff" d="M164.16,-121.75C156.12,-121.75 148,-121.75 140.09,-121.75"/>
<polygon fill="#63b8ff" stroke="#63b8ff" points="163.94,-125.25 173.94,-121.75 163.94,-118.25 163.94,-125.25"/>
</a>
</g>
</g>
<!-- Node7&#45;&gt;Node2 -->
<g id="edge8_Node000007_Node000002" class="edge">
<title>Node7&#45;&gt;Node2</title>
<g id="a_edge8_Node000007_Node000002"><a xlink:title=" ">
<path fill="none" stroke="#63b8ff" d="M943.15,-114.44C928.16,-115.31 912.51,-116.22 897.54,-117.09"/>
<polygon fill="#63b8ff" stroke="#63b8ff" points="943.17,-117.94 952.95,-113.87 942.76,-110.95 943.17,-117.94"/>
</a>
</g>
</g>
<!-- Node7&#45;&gt;Node7 -->
<g id="edge9_Node000007_Node000007" class="edge">
<title>Node7&#45;&gt;Node7</title>
<g id="a_edge9_Node000007_Node000007"><a xlink:title=" ">
<path fill="none" stroke="#63b8ff" d="M1056.09,-137.89C1050.98,-141.85 1040.54,-144.5 1024.75,-144.5 996.68,-144.5 985.5,-136.12 991.2,-126.91"/>
<polygon fill="#63b8ff" stroke="#63b8ff" points="1059.45,-138.89 1058,-128.4 1052.59,-137.51 1059.45,-138.89"/>
</a>
</g>
</g>
<!-- Node8&#45;&gt;Node7 -->
<g id="edge11_Node000008_Node000007" class="edge">
<title>Node8&#45;&gt;Node7</title>
<g id="a_edge11_Node000008_Node000007"><a xlink:title=" ">
<path fill="none" stroke="#63b8ff" d="M1129.69,-98.49C1118.16,-99.74 1106.39,-101.01 1095.1,-102.24"/>
<polygon fill="#63b8ff" stroke="#63b8ff" points="1130.03,-101.97 1139.6,-97.42 1129.28,-95.01 1130.03,-101.97"/>
</a>
</g>
</g>
<!-- Node9&#45;&gt;Node9 -->
<g id="edge18_Node000009_Node000009" class="edge">
<title>Node9&#45;&gt;Node9</title>
<g id="a_edge18_Node000009_Node000009"><a xlink:title=" ">
<path fill="none" stroke="#63b8ff" d="M1241.64,-47.89C1236.71,-51.85 1226.62,-54.5 1211.38,-54.5 1184.27,-54.5 1173.47,-46.12 1178.97,-36.91"/>
<polygon fill="#63b8ff" stroke="#63b8ff" points="1245.01,-48.88 1243.49,-38.4 1238.14,-47.55 1245.01,-48.88"/>
</a>
</g>
</g>
<!-- Node10 -->
<g id="Node000010" class="node">
<title>Node10</title>
<g id="a_Node000010"><a xlink:href="classvalidation__api_1_1ConfigWatcher.html#a78820bcf2ebf9135785e207aae042e72" target="_top" xlink:title="Reads a file.">
<polygon fill="white" stroke="#666666" points="1105.5,-36.5 944,-36.5 944,-3 1105.5,-3 1105.5,-36.5"/>
<text text-anchor="start" x="952" y="-23" font-family="Helvetica,sans-Serif" font-size="10.00">validation_api::ConfigWatcher</text>
<text text-anchor="middle" x="1024.75" y="-10.25" font-family="Helvetica,sans-Serif" font-size="10.00">::read_file</text>
</a>
</g>
</g>
<!-- Node9&#45;&gt;Node10 -->
<g id="edge13_Node000009_Node000010" class="edge">
<title>Node9&#45;&gt;Node10</title>
<g id="a_edge13_Node000009_Node000010"><a xlink:title=" ">
<path fill="none" stroke="#63b8ff" d="M1134.29,-19.75C1124.96,-19.75 1115.39,-19.75 1105.99,-19.75"/>
<polygon fill="#63b8ff" stroke="#63b8ff" points="1134.03,-23.25 1144.03,-19.75 1134.03,-16.25 1134.03,-23.25"/>
</a>
</g>
</g>
<!-- Node11 -->
<g id="Node000011" class="node">
<title>Node11</title>
<g id="a_Node000011"><a xlink:href="classvalidation__api_1_1ConfigWatcher.html#a13e118f62a6b13b780f44e12d5afed78" target="_top" xlink:title="Start ConfigWatcher.">
<polygon fill="white" stroke="#666666" points="908,-72.12 724.75,-72.12 724.75,-51.38 908,-51.38 908,-72.12"/>
<text text-anchor="middle" x="816.38" y="-58.62" font-family="Helvetica,sans-Serif" font-size="10.00">validation_api::ConfigWatcher::run</text>
</a>
</g>
</g>
<!-- Node10&#45;&gt;Node11 -->
<g id="edge14_Node000010_Node000011" class="edge">
<title>Node10&#45;&gt;Node11</title>
<g id="a_edge14_Node000010_Node000011"><a xlink:title=" ">
<path fill="none" stroke="#63b8ff" d="M932.66,-38.29C911.47,-42.6 889.59,-47.05 870.66,-50.91"/>
<polygon fill="#63b8ff" stroke="#63b8ff" points="933.08,-41.77 942.18,-36.35 931.68,-34.91 933.08,-41.77"/>
</a>
</g>
</g>
<!-- Node13 -->
<g id="Node000013" class="node">
<title>Node13</title>
<g id="a_Node000013"><a xlink:href="classvalidation__api_1_1ConfigWatcher.html#a6f8a66478001a8a0515344aac1fd0395" target="_top" xlink:title="Setup the ConfigWatcher.">
<polygon fill="white" stroke="#666666" points="897.12,-33.5 735.62,-33.5 735.62,0 897.12,0 897.12,-33.5"/>
<text text-anchor="start" x="743.62" y="-20" font-family="Helvetica,sans-Serif" font-size="10.00">validation_api::ConfigWatcher</text>
<text text-anchor="middle" x="816.38" y="-7.25" font-family="Helvetica,sans-Serif" font-size="10.00">::setup</text>
</a>
</g>
</g>
<!-- Node10&#45;&gt;Node13 -->
<g id="edge16_Node000010_Node000013" class="edge">
<title>Node10&#45;&gt;Node13</title>
<g id="a_edge16_Node000010_Node000013"><a xlink:title=" ">
<path fill="none" stroke="#63b8ff" d="M932.17,-18.42C920.58,-18.25 908.8,-18.08 897.42,-17.91"/>
<polygon fill="#63b8ff" stroke="#63b8ff" points="932.1,-21.92 942.15,-18.56 932.2,-14.92 932.1,-21.92"/>
</a>
</g>
</g>
<!-- Node12 -->
<g id="Node000012" class="node">
<title>Node12</title>
<g id="a_Node000012"><a xlink:href="classvalidation__api_1_1ConfigWatcher.html#ae52bfdab8da3ff71ba788f1929a9a053" target="_top" xlink:title="Construct a new validation api::ConfigWatcher::ConfigWatcher object.">
<polygon fill="white" stroke="#666666" points="688.75,-66.5 527.25,-66.5 527.25,-33 688.75,-33 688.75,-66.5"/>
<text text-anchor="start" x="535.25" y="-53" font-family="Helvetica,sans-Serif" font-size="10.00">validation_api::ConfigWatcher</text>
<text text-anchor="middle" x="608" y="-40.25" font-family="Helvetica,sans-Serif" font-size="10.00">::ConfigWatcher</text>
</a>
</g>
</g>
<!-- Node11&#45;&gt;Node12 -->
<g id="edge15_Node000011_Node000012" class="edge">
<title>Node11&#45;&gt;Node12</title>
<g id="a_edge15_Node000011_Node000012"><a xlink:title=" ">
<path fill="none" stroke="#63b8ff" d="M712.9,-55.79C704.85,-55.32 696.8,-54.86 688.93,-54.4"/>
<polygon fill="#63b8ff" stroke="#63b8ff" points="712.56,-59.28 722.74,-56.36 712.96,-52.29 712.56,-59.28"/>
</a>
</g>
</g>
<!-- Node13&#45;&gt;Node12 -->
<g id="edge17_Node000013_Node000012" class="edge">
<title>Node13&#45;&gt;Node12</title>
<g id="a_edge17_Node000013_Node000012"><a xlink:title=" ">
<path fill="none" stroke="#63b8ff" d="M724.15,-31.34C712.45,-33.21 700.54,-35.11 689.04,-36.95"/>
<polygon fill="#63b8ff" stroke="#63b8ff" points="724.47,-34.83 733.8,-29.79 723.37,-27.92 724.47,-34.83"/>
</a>
</g>
</g>
</g>
</svg>
