<?xml version="1.0" encoding="UTF-8" standalone="no"?>
<!DOCTYPE svg PUBLIC "-//W3C//DTD SVG 1.1//EN"
 "http://www.w3.org/Graphics/SVG/1.1/DTD/svg11.dtd">
<!-- Generated by graphviz version 10.0.1 (0)
 -->
<!-- Title: validation_api::ValidationServer::accept Pages: 1 -->
<svg width="342pt" height="94pt"
 viewBox="0.00 0.00 341.50 93.50" xmlns="http://www.w3.org/2000/svg" xmlns:xlink="http://www.w3.org/1999/xlink">
<g id="graph0" class="graph" transform="scale(1 1) rotate(0) translate(4 89.5)">
<title>validation_api::ValidationServer::accept</title>
<!-- Node1 -->
<g id="Node000001" class="node">
<title>Node1</title>
<g id="a_Node000001"><a xlink:title="Accept a connection @detail This function is called when a connection is accepted....">
<polygon fill="#999999" stroke="#666666" points="139.75,-59.5 0,-59.5 0,-26 139.75,-26 139.75,-59.5"/>
<text text-anchor="start" x="8" y="-46" font-family="Helvetica,sans-Serif" font-size="10.00">validation_api::Validation</text>
<text text-anchor="middle" x="69.88" y="-33.25" font-family="Helvetica,sans-Serif" font-size="10.00">Server::accept</text>
</a>
</g>
</g>
<!-- Node2 -->
<g id="Node000002" class="node">
<title>Node2</title>
<g id="a_Node000002"><a xlink:href="classvalidation__api_1_1ValidationServer.html#a59c4a313effe28cc0acca7b8bb3a26e4" target="_top" xlink:title=" ">
<polygon fill="white" stroke="#666666" points="324.5,-85.5 184.75,-85.5 184.75,-52 324.5,-52 324.5,-85.5"/>
<text text-anchor="start" x="192.75" y="-72" font-family="Helvetica,sans-Serif" font-size="10.00">validation_api::Validation</text>
<text text-anchor="middle" x="254.62" y="-59.25" font-family="Helvetica,sans-Serif" font-size="10.00">Server::asyncWriter</text>
</a>
</g>
</g>
<!-- Node1&#45;&gt;Node2 -->
<g id="edge1_Node000001_Node000002" class="edge">
<title>Node1&#45;&gt;Node2</title>
<g id="a_edge1_Node000001_Node000002"><a xlink:title=" ">
<path fill="none" stroke="#63b8ff" d="M140.23,-52.62C150.94,-54.14 162.09,-55.73 173.03,-57.28"/>
<polygon fill="#63b8ff" stroke="#63b8ff" points="172.43,-60.73 182.82,-58.68 173.42,-53.8 172.43,-60.73"/>
</a>
</g>
</g>
<!-- Node3 -->
<g id="Node000003" class="node">
<title>Node3</title>
<g id="a_Node000003"><a xlink:href="classvalidation__api_1_1ConfigService.html#a654e84f4f588f7391f93210c1e08344f" target="_top" xlink:title="getConfigs method">
<polygon fill="white" stroke="#666666" points="333.5,-33.5 175.75,-33.5 175.75,0 333.5,0 333.5,-33.5"/>
<text text-anchor="start" x="183.75" y="-20" font-family="Helvetica,sans-Serif" font-size="10.00">validation_api::ConfigService</text>
<text text-anchor="middle" x="254.62" y="-7.25" font-family="Helvetica,sans-Serif" font-size="10.00">::validateConfig</text>
</a>
</g>
</g>
<!-- Node1&#45;&gt;Node3 -->
<g id="edge2_Node000001_Node000003" class="edge">
<title>Node1&#45;&gt;Node3</title>
<g id="a_edge2_Node000001_Node000003"><a xlink:title=" ">
<path fill="none" stroke="#63b8ff" d="M140.23,-32.88C148.05,-31.77 156.1,-30.62 164.14,-29.48"/>
<polygon fill="#63b8ff" stroke="#63b8ff" points="164.55,-32.96 173.96,-28.08 163.56,-26.03 164.55,-32.96"/>
</a>
</g>
</g>
</g>
</svg>
