<?xml version="1.0" encoding="UTF-8" standalone="no"?>
<!DOCTYPE svg PUBLIC "-//W3C//DTD SVG 1.1//EN"
 "http://www.w3.org/Graphics/SVG/1.1/DTD/svg11.dtd">
<!-- Generated by graphviz version 10.0.1 (0)
 -->
<!-- Title: validation_api::IService Pages: 1 -->
<svg width="314pt" height="420pt"
 viewBox="0.00 0.00 314.00 420.00" xmlns="http://www.w3.org/2000/svg" xmlns:xlink="http://www.w3.org/1999/xlink">
<g id="graph0" class="graph" transform="scale(1 1) rotate(0) translate(4 416)">
<title>validation_api::IService</title>
<!-- Node1 -->
<g id="Node000001" class="node">
<title>Node1</title>
<g id="a_Node000001"><a xlink:title="Interface for all services.">
<polygon fill="#999999" stroke="none" points="220.5,-412 96.5,-412 96.5,-312 220.5,-312 220.5,-412"/>
<text text-anchor="start" x="101.5" y="-398.5" font-family="Helvetica,sans-Serif" font-size="10.00">validation_api::IService</text>
<text text-anchor="start" x="157" y="-382.5" font-family="Helvetica,sans-Serif" font-size="10.00"> </text>
<text text-anchor="start" x="112.88" y="-366.5" font-family="Helvetica,sans-Serif" font-size="10.00">+</text>
<text text-anchor="start" x="137.5" y="-366.5" font-family="Helvetica,sans-Serif" font-size="10.00">~IService()</text>
<text text-anchor="start" x="112.88" y="-350.5" font-family="Helvetica,sans-Serif" font-size="10.00">+</text>
<text text-anchor="start" x="137.5" y="-350.5" font-family="Helvetica,sans-Serif" font-size="10.00">run()</text>
<text text-anchor="start" x="112.88" y="-334.5" font-family="Helvetica,sans-Serif" font-size="10.00">+</text>
<text text-anchor="start" x="137.5" y="-334.5" font-family="Helvetica,sans-Serif" font-size="10.00">setup()</text>
<text text-anchor="start" x="112.88" y="-318.5" font-family="Helvetica,sans-Serif" font-size="10.00">+</text>
<text text-anchor="start" x="137.5" y="-318.5" font-family="Helvetica,sans-Serif" font-size="10.00">stop()</text>
<polygon fill="#666666" stroke="#666666" points="96.5,-394 96.5,-394 220.5,-394 220.5,-394 96.5,-394"/>
<polygon fill="#666666" stroke="#666666" points="96.5,-378 96.5,-378 220.5,-378 220.5,-378 96.5,-378"/>
<polygon fill="none" stroke="#666666" points="96.5,-312 96.5,-412 220.5,-412 220.5,-312 96.5,-312"/>
</a>
</g>
</g>
<!-- Node2 -->
<g id="Node000002" class="node">
<title>Node2</title>
<g id="a_Node000002"><a xlink:href="classvalidation__api_1_1ConfigWatcher.html" target="_top" xlink:title="Class to watch for changes in a directory.">
<polygon fill="white" stroke="none" points="155,-276 0,-276 0,0 155,0 155,-276"/>
<text text-anchor="start" x="4.75" y="-262.5" font-family="Helvetica,sans-Serif" font-size="10.00">validation_api::ConfigWatcher</text>
<text text-anchor="start" x="17.62" y="-246.5" font-family="Helvetica,sans-Serif" font-size="10.00">&#45;</text>
<text text-anchor="start" x="39" y="-246.5" font-family="Helvetica,sans-Serif" font-size="10.00">fileAssocation_</text>
<text text-anchor="start" x="17.62" y="-230.5" font-family="Helvetica,sans-Serif" font-size="10.00">&#45;</text>
<text text-anchor="start" x="39" y="-230.5" font-family="Helvetica,sans-Serif" font-size="10.00">callback_</text>
<text text-anchor="start" x="17.62" y="-214.5" font-family="Helvetica,sans-Serif" font-size="10.00">&#45;</text>
<text text-anchor="start" x="39" y="-214.5" font-family="Helvetica,sans-Serif" font-size="10.00">service_</text>
<text text-anchor="start" x="17.62" y="-198.5" font-family="Helvetica,sans-Serif" font-size="10.00">&#45;</text>
<text text-anchor="start" x="39" y="-198.5" font-family="Helvetica,sans-Serif" font-size="10.00">io_context_</text>
<text text-anchor="start" x="17.62" y="-182.5" font-family="Helvetica,sans-Serif" font-size="10.00">&#45;</text>
<text text-anchor="start" x="39" y="-182.5" font-family="Helvetica,sans-Serif" font-size="10.00">path_</text>
<text text-anchor="start" x="17.62" y="-166.5" font-family="Helvetica,sans-Serif" font-size="10.00">&#45;</text>
<text text-anchor="start" x="39" y="-166.5" font-family="Helvetica,sans-Serif" font-size="10.00">running_</text>
<text text-anchor="start" x="17.62" y="-150.5" font-family="Helvetica,sans-Serif" font-size="10.00">&#45;</text>
<text text-anchor="start" x="39" y="-150.5" font-family="Helvetica,sans-Serif" font-size="10.00">watcherThread</text>
<text text-anchor="start" x="17.62" y="-134.5" font-family="Helvetica,sans-Serif" font-size="10.00">&#45;</text>
<text text-anchor="start" x="39" y="-134.5" font-family="Helvetica,sans-Serif" font-size="10.00">inotify_fd_</text>
<text text-anchor="start" x="17.62" y="-118.5" font-family="Helvetica,sans-Serif" font-size="10.00">&#45;</text>
<text text-anchor="start" x="39" y="-118.5" font-family="Helvetica,sans-Serif" font-size="10.00">watch_descriptor_</text>
<text text-anchor="start" x="17.62" y="-102.5" font-family="Helvetica,sans-Serif" font-size="10.00">&#45;</text>
<text text-anchor="start" x="39" y="-102.5" font-family="Helvetica,sans-Serif" font-size="10.00">logger_</text>
<text text-anchor="start" x="15.38" y="-86.5" font-family="Helvetica,sans-Serif" font-size="10.00">+</text>
<text text-anchor="start" x="39" y="-86.5" font-family="Helvetica,sans-Serif" font-size="10.00">ConfigWatcher()</text>
<text text-anchor="start" x="15.38" y="-70.5" font-family="Helvetica,sans-Serif" font-size="10.00">+</text>
<text text-anchor="start" x="39" y="-70.5" font-family="Helvetica,sans-Serif" font-size="10.00">~ConfigWatcher()</text>
<text text-anchor="start" x="15.38" y="-54.5" font-family="Helvetica,sans-Serif" font-size="10.00">+</text>
<text text-anchor="start" x="39" y="-54.5" font-family="Helvetica,sans-Serif" font-size="10.00">read_file()</text>
<text text-anchor="start" x="15.38" y="-38.5" font-family="Helvetica,sans-Serif" font-size="10.00">+</text>
<text text-anchor="start" x="39" y="-38.5" font-family="Helvetica,sans-Serif" font-size="10.00">run()</text>
<text text-anchor="start" x="15.38" y="-22.5" font-family="Helvetica,sans-Serif" font-size="10.00">+</text>
<text text-anchor="start" x="39" y="-22.5" font-family="Helvetica,sans-Serif" font-size="10.00">setup()</text>
<text text-anchor="start" x="15.38" y="-6.5" font-family="Helvetica,sans-Serif" font-size="10.00">+</text>
<text text-anchor="start" x="39" y="-6.5" font-family="Helvetica,sans-Serif" font-size="10.00">stop()</text>
<polygon fill="#666666" stroke="#666666" points="0,-258 0,-258 155,-258 155,-258 0,-258"/>
<polygon fill="#666666" stroke="#666666" points="0,-98 0,-98 37,-98 37,-98 0,-98"/>
<polygon fill="#666666" stroke="#666666" points="37,-98 37,-98 155,-98 155,-98 37,-98"/>
<polygon fill="none" stroke="#666666" points="0,0 0,-276 155,-276 155,0 0,0"/>
</a>
</g>
</g>
<!-- Node1&#45;&gt;Node2 -->
<g id="edge1_Node000001_Node000002" class="edge">
<title>Node1&#45;&gt;Node2</title>
<g id="a_edge1_Node000001_Node000002"><a xlink:title=" ">
<path fill="none" stroke="#63b8ff" d="M136.7,-301.26C133.74,-293.14 130.61,-284.56 127.4,-275.75"/>
<polygon fill="none" stroke="#63b8ff" points="133.39,-302.39 140.11,-310.58 139.97,-299.99 133.39,-302.39"/>
</a>
</g>
</g>
<!-- Node3 -->
<g id="Node000003" class="node">
<title>Node3</title>
<g id="a_Node000003"><a xlink:href="classvalidation__api_1_1ValidationServer.html" target="_top" xlink:title="Class for exposing the application to the network.">
<polygon fill="white" stroke="none" points="306,-266.5 173,-266.5 173,-9.5 306,-9.5 306,-266.5"/>
<text text-anchor="start" x="177.62" y="-253" font-family="Helvetica,sans-Serif" font-size="10.00">validation_api::Validation</text>
<text text-anchor="start" x="223.75" y="-240.25" font-family="Helvetica,sans-Serif" font-size="10.00">Server</text>
<text text-anchor="start" x="183.12" y="-224" font-family="Helvetica,sans-Serif" font-size="10.00">&#45;</text>
<text text-anchor="start" x="197" y="-224" font-family="Helvetica,sans-Serif" font-size="10.00">running_</text>
<text text-anchor="start" x="183.12" y="-208" font-family="Helvetica,sans-Serif" font-size="10.00">&#45;</text>
<text text-anchor="start" x="197" y="-208" font-family="Helvetica,sans-Serif" font-size="10.00">io_context_</text>
<text text-anchor="start" x="183.12" y="-192" font-family="Helvetica,sans-Serif" font-size="10.00">&#45;</text>
<text text-anchor="start" x="197" y="-192" font-family="Helvetica,sans-Serif" font-size="10.00">acceptor_</text>
<text text-anchor="start" x="183.12" y="-176" font-family="Helvetica,sans-Serif" font-size="10.00">&#45;</text>
<text text-anchor="start" x="197" y="-176" font-family="Helvetica,sans-Serif" font-size="10.00">service_</text>
<text text-anchor="start" x="183.12" y="-160" font-family="Helvetica,sans-Serif" font-size="10.00">&#45;</text>
<text text-anchor="start" x="197" y="-160" font-family="Helvetica,sans-Serif" font-size="10.00">semaphore_</text>
<text text-anchor="start" x="183.12" y="-144" font-family="Helvetica,sans-Serif" font-size="10.00">&#45;</text>
<text text-anchor="start" x="197" y="-144" font-family="Helvetica,sans-Serif" font-size="10.00">logger_</text>
<text text-anchor="start" x="183.12" y="-128" font-family="Helvetica,sans-Serif" font-size="10.00">&#45;</text>
<text text-anchor="start" x="197" y="-128" font-family="Helvetica,sans-Serif" font-size="10.00">workGuard_</text>
<text text-anchor="start" x="180.88" y="-112" font-family="Helvetica,sans-Serif" font-size="10.00">+</text>
<text text-anchor="start" x="197" y="-112" font-family="Helvetica,sans-Serif" font-size="10.00">ValidationServer()</text>
<text text-anchor="start" x="180.88" y="-96" font-family="Helvetica,sans-Serif" font-size="10.00">+</text>
<text text-anchor="start" x="197" y="-96" font-family="Helvetica,sans-Serif" font-size="10.00">~ValidationServer()</text>
<text text-anchor="start" x="180.88" y="-80" font-family="Helvetica,sans-Serif" font-size="10.00">+</text>
<text text-anchor="start" x="197" y="-80" font-family="Helvetica,sans-Serif" font-size="10.00">setup()</text>
<text text-anchor="start" x="180.88" y="-64" font-family="Helvetica,sans-Serif" font-size="10.00">+</text>
<text text-anchor="start" x="197" y="-64" font-family="Helvetica,sans-Serif" font-size="10.00">run()</text>
<text text-anchor="start" x="180.88" y="-48" font-family="Helvetica,sans-Serif" font-size="10.00">+</text>
<text text-anchor="start" x="197" y="-48" font-family="Helvetica,sans-Serif" font-size="10.00">stop()</text>
<text text-anchor="start" x="183.12" y="-32" font-family="Helvetica,sans-Serif" font-size="10.00">&#45;</text>
<text text-anchor="start" x="197" y="-32" font-family="Helvetica,sans-Serif" font-size="10.00">accept()</text>
<text text-anchor="start" x="183.12" y="-16" font-family="Helvetica,sans-Serif" font-size="10.00">&#45;</text>
<text text-anchor="start" x="197" y="-16" font-family="Helvetica,sans-Serif" font-size="10.00">asyncWriter()</text>
<polygon fill="#666666" stroke="#666666" points="173,-235.5 173,-235.5 306,-235.5 306,-235.5 173,-235.5"/>
<polygon fill="#666666" stroke="#666666" points="173,-123.5 173,-123.5 195,-123.5 195,-123.5 173,-123.5"/>
<polygon fill="#666666" stroke="#666666" points="195,-123.5 195,-123.5 306,-123.5 306,-123.5 195,-123.5"/>
<polygon fill="none" stroke="#666666" points="173,-9.5 173,-266.5 306,-266.5 306,-9.5 173,-9.5"/>
</a>
</g>
</g>
<!-- Node1&#45;&gt;Node3 -->
<g id="edge2_Node000001_Node000003" class="edge">
<title>Node1&#45;&gt;Node3</title>
<g id="a_edge2_Node000001_Node000003"><a xlink:title=" ">
<path fill="none" stroke="#63b8ff" d="M180.27,-301.33C184.28,-290.35 188.6,-278.51 193.02,-266.4"/>
<polygon fill="none" stroke="#63b8ff" points="177.03,-299.99 176.89,-310.58 183.61,-302.39 177.03,-299.99"/>
</a>
</g>
</g>
</g>
</svg>
