<?xml version="1.0" encoding="UTF-8" standalone="no"?>
<!DOCTYPE svg PUBLIC "-//W3C//DTD SVG 1.1//EN"
 "http://www.w3.org/Graphics/SVG/1.1/DTD/svg11.dtd">
<!-- Generated by graphviz version 10.0.1 (0)
 -->
<!-- Title: validation_api::ConfigWatcher::read_file Pages: 1 -->
<svg width="586pt" height="80pt"
 viewBox="0.00 0.00 586.25 80.12" xmlns="http://www.w3.org/2000/svg" xmlns:xlink="http://www.w3.org/1999/xlink">
<g id="graph0" class="graph" transform="scale(1 1) rotate(0) translate(4 76.12)">
<title>validation_api::ConfigWatcher::read_file</title>
<!-- Node1 -->
<g id="Node000001" class="node">
<title>Node1</title>
<g id="a_Node000001"><a xlink:title=" ">
<polygon fill="#999999" stroke="#666666" points="578.25,-49.12 416.75,-49.12 416.75,-15.62 578.25,-15.62 578.25,-49.12"/>
<text text-anchor="start" x="424.75" y="-35.62" font-family="Helvetica,sans-Serif" font-size="10.00">validation_api::ConfigWatcher</text>
<text text-anchor="middle" x="497.5" y="-22.88" font-family="Helvetica,sans-Serif" font-size="10.00">::read_file</text>
</a>
</g>
</g>
<!-- Node2 -->
<g id="Node000002" class="node">
<title>Node2</title>
<g id="a_Node000002"><a xlink:href="classvalidation__api_1_1ConfigWatcher.html#a13e118f62a6b13b780f44e12d5afed78" target="_top" xlink:title="Start ConfigWatcher.">
<polygon fill="white" stroke="#666666" points="380.75,-20.75 197.5,-20.75 197.5,0 380.75,0 380.75,-20.75"/>
<text text-anchor="middle" x="289.12" y="-7.25" font-family="Helvetica,sans-Serif" font-size="10.00">validation_api::ConfigWatcher::run</text>
</a>
</g>
</g>
<!-- Node1&#45;&gt;Node2 -->
<g id="edge1_Node000001_Node000002" class="edge">
<title>Node1&#45;&gt;Node2</title>
<g id="a_edge1_Node000001_Node000002"><a xlink:title=" ">
<path fill="none" stroke="#63b8ff" d="M405.2,-22.64C397.22,-21.79 389.13,-20.93 381.14,-20.08"/>
<polygon fill="#63b8ff" stroke="#63b8ff" points="404.59,-26.1 414.91,-23.68 405.34,-19.14 404.59,-26.1"/>
</a>
</g>
</g>
<!-- Node5 -->
<g id="Node000005" class="node">
<title>Node5</title>
<g id="a_Node000005"><a xlink:href="classvalidation__api_1_1ConfigWatcher.html#a6f8a66478001a8a0515344aac1fd0395" target="_top" xlink:title="Setup the ConfigWatcher.">
<polygon fill="white" stroke="#666666" points="369.88,-72.12 208.38,-72.12 208.38,-38.62 369.88,-38.62 369.88,-72.12"/>
<text text-anchor="start" x="216.38" y="-58.62" font-family="Helvetica,sans-Serif" font-size="10.00">validation_api::ConfigWatcher</text>
<text text-anchor="middle" x="289.12" y="-45.88" font-family="Helvetica,sans-Serif" font-size="10.00">::setup</text>
</a>
</g>
</g>
<!-- Node1&#45;&gt;Node5 -->
<g id="edge4_Node000001_Node000005" class="edge">
<title>Node1&#45;&gt;Node5</title>
<g id="a_edge4_Node000001_Node000005"><a xlink:title=" ">
<path fill="none" stroke="#63b8ff" d="M405.28,-42.54C393.58,-43.85 381.67,-45.17 370.17,-46.45"/>
<polygon fill="#63b8ff" stroke="#63b8ff" points="405.36,-46.05 414.91,-41.47 404.58,-39.1 405.36,-46.05"/>
</a>
</g>
</g>
<!-- Node3 -->
<g id="Node000003" class="node">
<title>Node3</title>
<g id="a_Node000003"><a xlink:href="classvalidation__api_1_1ConfigWatcher.html#ae52bfdab8da3ff71ba788f1929a9a053" target="_top" xlink:title="Construct a new validation api::ConfigWatcher::ConfigWatcher object.">
<polygon fill="white" stroke="#666666" points="161.5,-72.12 0,-72.12 0,-38.62 161.5,-38.62 161.5,-72.12"/>
<text text-anchor="start" x="8" y="-58.62" font-family="Helvetica,sans-Serif" font-size="10.00">validation_api::ConfigWatcher</text>
<text text-anchor="middle" x="80.75" y="-45.88" font-family="Helvetica,sans-Serif" font-size="10.00">::ConfigWatcher</text>
</a>
</g>
</g>
<!-- Node2&#45;&gt;Node3 -->
<g id="edge2_Node000002_Node000003" class="edge">
<title>Node2&#45;&gt;Node3</title>
<g id="a_edge2_Node000002_Node000003"><a xlink:title=" ">
<path fill="none" stroke="#63b8ff" d="M224.8,-23.53C215.64,-25.47 206.32,-27.46 197.5,-29.38 184.62,-32.17 170.94,-35.2 157.68,-38.16"/>
<polygon fill="#63b8ff" stroke="#63b8ff" points="225.32,-27 234.38,-21.51 223.87,-20.15 225.32,-27"/>
</a>
</g>
</g>
<!-- Node4 -->
<g id="Node000004" class="node">
<title>Node4</title>
<g id="a_Node000004"><a xlink:href="main_8cpp.html#a0ddf1224851353fc92bfbff6f499fa97" target="_top" xlink:title=" ">
<polygon fill="white" stroke="#666666" points="101.12,-20.75 60.38,-20.75 60.38,0 101.12,0 101.12,-20.75"/>
<text text-anchor="middle" x="80.75" y="-7.25" font-family="Helvetica,sans-Serif" font-size="10.00">main</text>
</a>
</g>
</g>
<!-- Node2&#45;&gt;Node4 -->
<g id="edge3_Node000002_Node000004" class="edge">
<title>Node2&#45;&gt;Node4</title>
<g id="a_edge3_Node000002_Node000004"><a xlink:title=" ">
<path fill="none" stroke="#63b8ff" d="M185.69,-10.38C153.62,-10.38 121.45,-10.38 101.58,-10.38"/>
<polygon fill="#63b8ff" stroke="#63b8ff" points="185.49,-13.88 195.49,-10.38 185.49,-6.88 185.49,-13.88"/>
</a>
</g>
</g>
<!-- Node5&#45;&gt;Node3 -->
<g id="edge5_Node000005_Node000003" class="edge">
<title>Node5&#45;&gt;Node3</title>
<g id="a_edge5_Node000005_Node000003"><a xlink:title=" ">
<path fill="none" stroke="#63b8ff" d="M196.54,-55.38C184.96,-55.38 173.18,-55.38 161.79,-55.38"/>
<polygon fill="#63b8ff" stroke="#63b8ff" points="196.53,-58.88 206.53,-55.38 196.53,-51.88 196.53,-58.88"/>
</a>
</g>
</g>
</g>
</svg>
