<?xml version="1.0" encoding="UTF-8" standalone="no"?>
<!DOCTYPE svg PUBLIC "-//W3C//DTD SVG 1.1//EN"
 "http://www.w3.org/Graphics/SVG/1.1/DTD/svg11.dtd">
<!-- Generated by graphviz version 10.0.1 (0)
 -->
<!-- Title: validation_api::ValidationServer::run Pages: 1 -->
<svg width="1439pt" height="550pt"
 viewBox="0.00 0.00 1438.75 550.22" xmlns="http://www.w3.org/2000/svg" xmlns:xlink="http://www.w3.org/1999/xlink">
<g id="graph0" class="graph" transform="scale(1 1) rotate(0) translate(4 546.22)">
<title>validation_api::ValidationServer::run</title>
<!-- Node1 -->
<g id="Node000001" class="node">
<title>Node1</title>
<g id="a_Node000001"><a xlink:title="Start the server.">
<polygon fill="#999999" stroke="#666666" points="139.75,-516.22 0,-516.22 0,-482.72 139.75,-482.72 139.75,-516.22"/>
<text text-anchor="start" x="8" y="-502.72" font-family="Helvetica,sans-Serif" font-size="10.00">validation_api::Validation</text>
<text text-anchor="middle" x="69.88" y="-489.97" font-family="Helvetica,sans-Serif" font-size="10.00">Server::run</text>
</a>
</g>
</g>
<!-- Node1&#45;&gt;Node1 -->
<g id="edge25_Node000001_Node000001" class="edge">
<title>Node1&#45;&gt;Node1</title>
<g id="a_edge25_Node000001_Node000001"><a xlink:title=" ">
<path fill="none" stroke="#63b8ff" d="M38.28,-516.64C32.91,-525.84 43.44,-534.22 69.88,-534.22 84.74,-534.22 94.58,-531.57 99.39,-527.61"/>
<polygon fill="#63b8ff" stroke="#63b8ff" points="102.76,-528.6 101.19,-518.12 95.88,-527.3 102.76,-528.6"/>
</a>
</g>
</g>
<!-- Node2 -->
<g id="Node000002" class="node">
<title>Node2</title>
<g id="a_Node000002"><a xlink:href="classvalidation__api_1_1ValidationServer.html#a7f5c5252fa7a28bef0345e6248139215" target="_top" xlink:title="Accept a connection.">
<polygon fill="white" stroke="#666666" points="315.5,-516.22 175.75,-516.22 175.75,-482.72 315.5,-482.72 315.5,-516.22"/>
<text text-anchor="start" x="183.75" y="-502.72" font-family="Helvetica,sans-Serif" font-size="10.00">validation_api::Validation</text>
<text text-anchor="middle" x="245.62" y="-489.97" font-family="Helvetica,sans-Serif" font-size="10.00">Server::accept</text>
</a>
</g>
</g>
<!-- Node1&#45;&gt;Node2 -->
<g id="edge1_Node000001_Node000002" class="edge">
<title>Node1&#45;&gt;Node2</title>
<g id="a_edge1_Node000001_Node000002"><a xlink:title=" ">
<path fill="none" stroke="#63b8ff" d="M140.04,-499.47C147.96,-499.47 156.07,-499.47 164.12,-499.47"/>
<polygon fill="#63b8ff" stroke="#63b8ff" points="163.9,-502.97 173.9,-499.47 163.9,-495.97 163.9,-502.97"/>
</a>
</g>
</g>
<!-- Node3 -->
<g id="Node000003" class="node">
<title>Node3</title>
<g id="a_Node000003"><a xlink:href="classvalidation__api_1_1ValidationServer.html#a59c4a313effe28cc0acca7b8bb3a26e4" target="_top" xlink:title=" ">
<polygon fill="white" stroke="#666666" points="500.25,-542.22 360.5,-542.22 360.5,-508.72 500.25,-508.72 500.25,-542.22"/>
<text text-anchor="start" x="368.5" y="-528.72" font-family="Helvetica,sans-Serif" font-size="10.00">validation_api::Validation</text>
<text text-anchor="middle" x="430.38" y="-515.97" font-family="Helvetica,sans-Serif" font-size="10.00">Server::asyncWriter</text>
</a>
</g>
</g>
<!-- Node2&#45;&gt;Node3 -->
<g id="edge2_Node000002_Node000003" class="edge">
<title>Node2&#45;&gt;Node3</title>
<g id="a_edge2_Node000002_Node000003"><a xlink:title=" ">
<path fill="none" stroke="#63b8ff" d="M315.98,-509.34C326.69,-510.86 337.84,-512.45 348.78,-514.01"/>
<polygon fill="#63b8ff" stroke="#63b8ff" points="348.18,-517.46 358.57,-515.4 349.17,-510.53 348.18,-517.46"/>
</a>
</g>
</g>
<!-- Node4 -->
<g id="Node000004" class="node">
<title>Node4</title>
<g id="a_Node000004"><a xlink:href="classvalidation__api_1_1ConfigService.html#a654e84f4f588f7391f93210c1e08344f" target="_top" xlink:title="getConfigs method">
<polygon fill="white" stroke="#666666" points="509.25,-490.22 351.5,-490.22 351.5,-456.72 509.25,-456.72 509.25,-490.22"/>
<text text-anchor="start" x="359.5" y="-476.72" font-family="Helvetica,sans-Serif" font-size="10.00">validation_api::ConfigService</text>
<text text-anchor="middle" x="430.38" y="-463.97" font-family="Helvetica,sans-Serif" font-size="10.00">::validateConfig</text>
</a>
</g>
</g>
<!-- Node2&#45;&gt;Node4 -->
<g id="edge3_Node000002_Node000004" class="edge">
<title>Node2&#45;&gt;Node4</title>
<g id="a_edge3_Node000002_Node000004"><a xlink:title=" ">
<path fill="none" stroke="#63b8ff" d="M315.98,-489.61C323.8,-488.49 331.85,-487.35 339.89,-486.2"/>
<polygon fill="#63b8ff" stroke="#63b8ff" points="340.3,-489.68 349.71,-484.81 339.31,-482.75 340.3,-489.68"/>
</a>
</g>
</g>
<!-- Node5 -->
<g id="Node000005" class="node">
<title>Node5</title>
<g id="a_Node000005"><a xlink:href="namespacevalidation__api.html#ac3e8e6ef097973f55220fc4fdeb08dc2" target="_top" xlink:title="Error builder.">
<polygon fill="white" stroke="#666666" points="1430.75,-391.85 1282,-391.85 1282,-371.1 1430.75,-371.1 1430.75,-391.85"/>
<text text-anchor="middle" x="1356.38" y="-378.35" font-family="Helvetica,sans-Serif" font-size="10.00">validation_api::errorBuilder</text>
</a>
</g>
</g>
<!-- Node4&#45;&gt;Node5 -->
<g id="edge4_Node000004_Node000005" class="edge">
<title>Node4&#45;&gt;Node5</title>
<g id="a_edge4_Node000004_Node000005"><a xlink:title=" ">
<path fill="none" stroke="#63b8ff" d="M507.4,-490.71C583.84,-506.51 705.27,-527.47 811.62,-527.47 811.62,-527.47 811.62,-527.47 989.38,-527.47 1127.16,-527.47 1274.68,-437.1 1331.34,-398.56"/>
<polygon fill="#63b8ff" stroke="#63b8ff" points="1333.05,-401.63 1339.29,-393.07 1329.08,-395.87 1333.05,-401.63"/>
</a>
</g>
</g>
<!-- Node6 -->
<g id="Node000006" class="node">
<title>Node6</title>
<g id="a_Node000006"><a xlink:href="classvalidation__api_1_1Validation.html#ac6c337d3af39943a8e603a5f21f5922a" target="_top" xlink:title=" ">
<polygon fill="white" stroke="#666666" points="706.75,-452.85 545.25,-452.85 545.25,-432.1 706.75,-432.1 706.75,-452.85"/>
<text text-anchor="middle" x="626" y="-439.35" font-family="Helvetica,sans-Serif" font-size="10.00">validation_api::Validation::run</text>
</a>
</g>
</g>
<!-- Node4&#45;&gt;Node6 -->
<g id="edge5_Node000004_Node000006" class="edge">
<title>Node4&#45;&gt;Node6</title>
<g id="a_edge5_Node000004_Node000006"><a xlink:title=" ">
<path fill="none" stroke="#63b8ff" d="M509.57,-460.95C521.5,-459.04 533.82,-457.07 545.78,-455.16"/>
<polygon fill="#63b8ff" stroke="#63b8ff" points="546.28,-458.62 555.6,-453.58 545.18,-451.71 546.28,-458.62"/>
</a>
</g>
</g>
<!-- Node6&#45;&gt;Node5 -->
<g id="edge6_Node000006_Node000005" class="edge">
<title>Node6&#45;&gt;Node5</title>
<g id="a_edge6_Node000006_Node000005"><a xlink:title=" ">
<path fill="none" stroke="#63b8ff" d="M707.03,-435.77C845.56,-424.17 1128.77,-400.45 1270.55,-388.58"/>
<polygon fill="#63b8ff" stroke="#63b8ff" points="1270.57,-392.09 1280.25,-387.76 1269.99,-385.11 1270.57,-392.09"/>
</a>
</g>
</g>
<!-- Node7 -->
<g id="Node000007" class="node">
<title>Node7</title>
<g id="a_Node000007"><a xlink:href="classvalidation__api_1_1Validation.html#a21b9aefd80be5a639d2aa5e4c8ebe945" target="_top" xlink:title=" ">
<polygon fill="white" stroke="#666666" points="882.5,-481.22 742.75,-481.22 742.75,-447.72 882.5,-447.72 882.5,-481.22"/>
<text text-anchor="start" x="750.75" y="-467.72" font-family="Helvetica,sans-Serif" font-size="10.00">validation_api::Validation</text>
<text text-anchor="middle" x="812.62" y="-454.97" font-family="Helvetica,sans-Serif" font-size="10.00">::fillRequestList</text>
</a>
</g>
</g>
<!-- Node6&#45;&gt;Node7 -->
<g id="edge7_Node000006_Node000007" class="edge">
<title>Node6&#45;&gt;Node7</title>
<g id="a_edge7_Node000006_Node000007"><a xlink:title=" ">
<path fill="none" stroke="#63b8ff" d="M707.17,-452.03C715.18,-452.98 723.3,-453.95 731.31,-454.9"/>
<polygon fill="#63b8ff" stroke="#63b8ff" points="730.67,-458.35 741.02,-456.06 731.5,-451.4 730.67,-458.35"/>
</a>
</g>
</g>
<!-- Node8 -->
<g id="Node000008" class="node">
<title>Node8</title>
<g id="a_Node000008"><a xlink:href="classvalidation__api_1_1Validation.html#a3c8146fc89af5b8cef0c1bb6c9d473f2" target="_top" xlink:title="Traverse through the json object and validate the fields.">
<polygon fill="white" stroke="#666666" points="882.5,-302.22 742.75,-302.22 742.75,-268.72 882.5,-268.72 882.5,-302.22"/>
<text text-anchor="start" x="750.75" y="-288.72" font-family="Helvetica,sans-Serif" font-size="10.00">validation_api::Validation</text>
<text text-anchor="middle" x="812.62" y="-275.97" font-family="Helvetica,sans-Serif" font-size="10.00">::traverseAndValidate</text>
</a>
</g>
</g>
<!-- Node6&#45;&gt;Node8 -->
<g id="edge9_Node000006_Node000008" class="edge">
<title>Node6&#45;&gt;Node8</title>
<g id="a_edge9_Node000006_Node000008"><a xlink:title=" ">
<path fill="none" stroke="#63b8ff" d="M639.69,-431.68C669,-406.76 742.02,-344.66 782.84,-309.95"/>
<polygon fill="#63b8ff" stroke="#63b8ff" points="785.02,-312.69 790.37,-303.55 780.48,-307.36 785.02,-312.69"/>
</a>
</g>
</g>
<!-- Node7&#45;&gt;Node7 -->
<g id="edge8_Node000007_Node000007" class="edge">
<title>Node7&#45;&gt;Node7</title>
<g id="a_edge8_Node000007_Node000007"><a xlink:title=" ">
<path fill="none" stroke="#63b8ff" d="M781.03,-481.64C775.66,-490.84 786.19,-499.22 812.62,-499.22 827.49,-499.22 837.33,-496.57 842.14,-492.61"/>
<polygon fill="#63b8ff" stroke="#63b8ff" points="845.51,-493.6 843.94,-483.12 838.63,-492.3 845.51,-493.6"/>
</a>
</g>
</g>
<!-- Node8&#45;&gt;Node5 -->
<g id="edge10_Node000008_Node000005" class="edge">
<title>Node8&#45;&gt;Node5</title>
<g id="a_edge10_Node000008_Node000005"><a xlink:title=" ">
<path fill="none" stroke="#63b8ff" d="M864.67,-302.72C920.39,-320.78 1012.59,-348.44 1094.25,-362.47 1152.56,-372.49 1219.07,-377.24 1270.38,-379.48"/>
<polygon fill="#63b8ff" stroke="#63b8ff" points="1270.1,-382.97 1280.24,-379.88 1270.39,-375.98 1270.1,-382.97"/>
</a>
</g>
</g>
<!-- Node8&#45;&gt;Node8 -->
<g id="edge13_Node000008_Node000008" class="edge">
<title>Node8&#45;&gt;Node8</title>
<g id="a_edge13_Node000008_Node000008"><a xlink:title=" ">
<path fill="none" stroke="#63b8ff" d="M781.03,-302.64C775.66,-311.84 786.19,-320.22 812.62,-320.22 827.49,-320.22 837.33,-317.57 842.14,-313.61"/>
<polygon fill="#63b8ff" stroke="#63b8ff" points="845.51,-314.6 843.94,-304.12 838.63,-313.3 845.51,-314.6"/>
</a>
</g>
</g>
<!-- Node9 -->
<g id="Node000009" class="node">
<title>Node9</title>
<g id="a_Node000009"><a xlink:href="classvalidation__api_1_1Validation.html#a49e598a8189b6bd6edf1ecdb00ae8b9d" target="_top" xlink:title=" ">
<polygon fill="white" stroke="#666666" points="1426.25,-61.22 1286.5,-61.22 1286.5,-27.72 1426.25,-27.72 1426.25,-61.22"/>
<text text-anchor="start" x="1294.5" y="-47.72" font-family="Helvetica,sans-Serif" font-size="10.00">validation_api::Validation</text>
<text text-anchor="middle" x="1356.38" y="-34.97" font-family="Helvetica,sans-Serif" font-size="10.00">::findJsonField</text>
</a>
</g>
</g>
<!-- Node8&#45;&gt;Node9 -->
<g id="edge11_Node000008_Node000009" class="edge">
<title>Node8&#45;&gt;Node9</title>
<g id="a_edge11_Node000008_Node000009"><a xlink:title=" ">
<path fill="none" stroke="#63b8ff" d="M824.31,-268.26C857.03,-217.39 961.75,-68.01 1094.25,-14.47 1162.13,12.95 1247.5,-5.78 1301.77,-23.59"/>
<polygon fill="#63b8ff" stroke="#63b8ff" points="1300.5,-26.86 1311.09,-26.76 1302.75,-20.23 1300.5,-26.86"/>
</a>
</g>
</g>
<!-- Node10 -->
<g id="Node000010" class="node">
<title>Node10</title>
<g id="a_Node000010"><a xlink:href="classvalidation__api_1_1Validation.html#a1cc0802269d88c233ad3c3d1d6c3dd12" target="_top" xlink:title=" ">
<polygon fill="white" stroke="#666666" points="1058.25,-230.22 918.5,-230.22 918.5,-196.72 1058.25,-196.72 1058.25,-230.22"/>
<text text-anchor="start" x="926.5" y="-216.72" font-family="Helvetica,sans-Serif" font-size="10.00">validation_api::Validation</text>
<text text-anchor="middle" x="988.38" y="-203.97" font-family="Helvetica,sans-Serif" font-size="10.00">::validate</text>
</a>
</g>
</g>
<!-- Node8&#45;&gt;Node10 -->
<g id="edge14_Node000008_Node000010" class="edge">
<title>Node8&#45;&gt;Node10</title>
<g id="a_edge14_Node000008_Node000010"><a xlink:title=" ">
<path fill="none" stroke="#63b8ff" d="M855.24,-268.23C879.22,-258.29 909.59,-245.71 935.16,-235.11"/>
<polygon fill="#63b8ff" stroke="#63b8ff" points="936.5,-238.34 944.4,-231.28 933.82,-231.88 936.5,-238.34"/>
</a>
</g>
</g>
<!-- Node9&#45;&gt;Node9 -->
<g id="edge12_Node000009_Node000009" class="edge">
<title>Node9&#45;&gt;Node9</title>
<g id="a_edge12_Node000009_Node000009"><a xlink:title=" ">
<path fill="none" stroke="#63b8ff" d="M1322.89,-61.64C1317.2,-70.84 1328.36,-79.22 1356.38,-79.22 1372.13,-79.22 1382.56,-76.57 1387.65,-72.61"/>
<polygon fill="#63b8ff" stroke="#63b8ff" points="1391.02,-73.61 1389.56,-63.12 1384.15,-72.23 1391.02,-73.61"/>
</a>
</g>
</g>
<!-- Node10&#45;&gt;Node5 -->
<g id="edge17_Node000010_Node000005" class="edge">
<title>Node10&#45;&gt;Node5</title>
<g id="a_edge17_Node000010_Node000005"><a xlink:title=" ">
<path fill="none" stroke="#63b8ff" d="M1032.6,-196.33C1086.41,-177.96 1179.35,-156.24 1246,-194.47 1308.98,-230.6 1339.17,-318.56 1350.21,-359.65"/>
<polygon fill="#63b8ff" stroke="#63b8ff" points="1346.81,-360.49 1352.66,-369.32 1353.6,-358.77 1346.81,-360.49"/>
</a>
</g>
</g>
<!-- Node11 -->
<g id="Node000011" class="node">
<title>Node11</title>
<g id="a_Node000011"><a xlink:href="classvalidation__api_1_1Validation.html#a7b6995b4592eb861af42e45b095382b7" target="_top" xlink:title="Checking Uuid values.">
<polygon fill="white" stroke="#666666" points="1240,-109.22 1100.25,-109.22 1100.25,-75.72 1240,-75.72 1240,-109.22"/>
<text text-anchor="start" x="1108.25" y="-95.72" font-family="Helvetica,sans-Serif" font-size="10.00">validation_api::Validation</text>
<text text-anchor="middle" x="1170.12" y="-82.97" font-family="Helvetica,sans-Serif" font-size="10.00">::checkNullOptionsVec</text>
</a>
</g>
</g>
<!-- Node10&#45;&gt;Node11 -->
<g id="edge15_Node000010_Node000011" class="edge">
<title>Node10&#45;&gt;Node11</title>
<g id="a_edge15_Node000010_Node000011"><a xlink:title=" ">
<path fill="none" stroke="#63b8ff" d="M1004.1,-196.46C1023.05,-175.5 1057.9,-140.02 1094.25,-118.47 1096.68,-117.03 1099.21,-115.65 1101.8,-114.34"/>
<polygon fill="#63b8ff" stroke="#63b8ff" points="1103.06,-117.61 1110.65,-110.21 1100.1,-111.26 1103.06,-117.61"/>
</a>
</g>
</g>
<!-- Node12 -->
<g id="Node000012" class="node">
<title>Node12</title>
<g id="a_Node000012"><a xlink:href="classvalidation__api_1_1Validation.html#ac59ae7a00f5fc950a3a572524127c4d3" target="_top" xlink:title="Checks if a json object is empty.">
<polygon fill="white" stroke="#666666" points="1240,-57.22 1100.25,-57.22 1100.25,-23.72 1240,-23.72 1240,-57.22"/>
<text text-anchor="start" x="1108.25" y="-43.72" font-family="Helvetica,sans-Serif" font-size="10.00">validation_api::Validation</text>
<text text-anchor="middle" x="1170.12" y="-30.97" font-family="Helvetica,sans-Serif" font-size="10.00">::isNullOrEmpty</text>
</a>
</g>
</g>
<!-- Node10&#45;&gt;Node12 -->
<g id="edge18_Node000010_Node000012" class="edge">
<title>Node10&#45;&gt;Node12</title>
<g id="a_edge18_Node000010_Node000012"><a xlink:title=" ">
<path fill="none" stroke="#63b8ff" d="M997.19,-196.32C1011.89,-165.85 1046.57,-102.17 1094.25,-66.47 1095.76,-65.34 1097.33,-64.25 1098.94,-63.21"/>
<polygon fill="#63b8ff" stroke="#63b8ff" points="1100.3,-66.46 1107.26,-58.47 1096.84,-60.38 1100.3,-66.46"/>
</a>
</g>
</g>
<!-- Node13 -->
<g id="Node000013" class="node">
<title>Node13</title>
<g id="a_Node000013"><a xlink:href="namespacevalidation__api.html#ac19e25b4d8364b0f52152440dd5ecbda" target="_top" xlink:title=" ">
<polygon fill="white" stroke="#666666" points="1243,-301.85 1097.25,-301.85 1097.25,-281.1 1243,-281.1 1243,-301.85"/>
<text text-anchor="middle" x="1170.12" y="-288.35" font-family="Helvetica,sans-Serif" font-size="10.00">validation_api::isValidUuid</text>
</a>
</g>
</g>
<!-- Node10&#45;&gt;Node13 -->
<g id="edge19_Node000010_Node000013" class="edge">
<title>Node10&#45;&gt;Node13</title>
<g id="a_edge19_Node000010_Node000013"><a xlink:title=" ">
<path fill="none" stroke="#63b8ff" d="M1016.07,-230.63C1036.75,-243.32 1066.46,-260.27 1094.25,-271.47 1099.5,-273.59 1105.04,-275.55 1110.64,-277.35"/>
<polygon fill="#63b8ff" stroke="#63b8ff" points="1109.39,-280.62 1119.97,-280.17 1111.41,-273.92 1109.39,-280.62"/>
</a>
</g>
</g>
<!-- Node14 -->
<g id="Node000014" class="node">
<title>Node14</title>
<g id="a_Node000014"><a xlink:href="namespacevalidation__api.html#a6dd56dcf7358b332bb906a2d27fddd0b" target="_top" xlink:title="Converts string to all lowercase.">
<polygon fill="white" stroke="#666666" points="1235.12,-262.85 1105.12,-262.85 1105.12,-242.1 1235.12,-242.1 1235.12,-262.85"/>
<text text-anchor="middle" x="1170.12" y="-249.35" font-family="Helvetica,sans-Serif" font-size="10.00">validation_api::toLower</text>
</a>
</g>
</g>
<!-- Node10&#45;&gt;Node14 -->
<g id="edge20_Node000010_Node000014" class="edge">
<title>Node10&#45;&gt;Node14</title>
<g id="a_edge20_Node000010_Node000014"><a xlink:title=" ">
<path fill="none" stroke="#63b8ff" d="M1058.61,-228.5C1075.01,-232.05 1092.37,-235.82 1108.35,-239.29"/>
<polygon fill="#63b8ff" stroke="#63b8ff" points="1107.17,-242.61 1117.69,-241.31 1108.66,-235.77 1107.17,-242.61"/>
</a>
</g>
</g>
<!-- Node15 -->
<g id="Node000015" class="node">
<title>Node15</title>
<g id="a_Node000015"><a xlink:href="namespacevalidation__api.html#aae32fd7a0b5886a49454679d46ed4bd1" target="_top" xlink:title="Validates Ahv string.">
<polygon fill="white" stroke="#666666" points="1244.88,-223.85 1095.38,-223.85 1095.38,-203.1 1244.88,-203.1 1244.88,-223.85"/>
<text text-anchor="middle" x="1170.12" y="-210.35" font-family="Helvetica,sans-Serif" font-size="10.00">validation_api::validateAhv</text>
</a>
</g>
</g>
<!-- Node10&#45;&gt;Node15 -->
<g id="edge21_Node000010_Node000015" class="edge">
<title>Node10&#45;&gt;Node15</title>
<g id="a_edge21_Node000010_Node000015"><a xlink:title=" ">
<path fill="none" stroke="#63b8ff" d="M1058.61,-213.47C1066.84,-213.47 1075.31,-213.47 1083.73,-213.47"/>
<polygon fill="#63b8ff" stroke="#63b8ff" points="1083.64,-216.97 1093.64,-213.47 1083.64,-209.97 1083.64,-216.97"/>
</a>
</g>
</g>
<!-- Node16 -->
<g id="Node000016" class="node">
<title>Node16</title>
<g id="a_Node000016"><a xlink:href="classvalidation__api_1_1Validation.html#a512e2e0c3be1bea95ebfab280ec919ba" target="_top" xlink:title="Validates len options.">
<polygon fill="white" stroke="#666666" points="1240,-353.22 1100.25,-353.22 1100.25,-319.72 1240,-319.72 1240,-353.22"/>
<text text-anchor="start" x="1108.25" y="-339.72" font-family="Helvetica,sans-Serif" font-size="10.00">validation_api::Validation</text>
<text text-anchor="middle" x="1170.12" y="-326.97" font-family="Helvetica,sans-Serif" font-size="10.00">::validateConstraints</text>
</a>
</g>
</g>
<!-- Node10&#45;&gt;Node16 -->
<g id="edge22_Node000010_Node000016" class="edge">
<title>Node10&#45;&gt;Node16</title>
<g id="a_edge22_Node000010_Node000016"><a xlink:title=" ">
<path fill="none" stroke="#63b8ff" d="M1003.7,-230.49C1022.5,-251.86 1057.46,-288.4 1094.25,-310.47 1096.54,-311.85 1098.91,-313.16 1101.34,-314.42"/>
<polygon fill="#63b8ff" stroke="#63b8ff" points="1099.69,-317.51 1110.22,-318.62 1102.68,-311.18 1099.69,-317.51"/>
</a>
</g>
</g>
<!-- Node17 -->
<g id="Node000017" class="node">
<title>Node17</title>
<g id="a_Node000017"><a xlink:href="namespacevalidation__api.html#a0a2b975e162ced567ba3a6075684092a" target="_top" xlink:title="Validates Iban string.">
<polygon fill="white" stroke="#666666" points="1246,-147.85 1094.25,-147.85 1094.25,-127.1 1246,-127.1 1246,-147.85"/>
<text text-anchor="middle" x="1170.12" y="-134.35" font-family="Helvetica,sans-Serif" font-size="10.00">validation_api::validateIban</text>
</a>
</g>
</g>
<!-- Node10&#45;&gt;Node17 -->
<g id="edge24_Node000010_Node000017" class="edge">
<title>Node10&#45;&gt;Node17</title>
<g id="a_edge24_Node000010_Node000017"><a xlink:title=" ">
<path fill="none" stroke="#63b8ff" d="M1020.93,-196.27C1041.46,-185.47 1069.01,-171.71 1094.25,-161.47 1102.79,-158.01 1112.04,-154.7 1121.03,-151.71"/>
<polygon fill="#63b8ff" stroke="#63b8ff" points="1121.91,-155.1 1130.35,-148.69 1119.76,-148.44 1121.91,-155.1"/>
</a>
</g>
</g>
<!-- Node11&#45;&gt;Node9 -->
<g id="edge16_Node000011_Node000009" class="edge">
<title>Node11&#45;&gt;Node9</title>
<g id="a_edge16_Node000011_Node000009"><a xlink:title=" ">
<path fill="none" stroke="#63b8ff" d="M1237.12,-75.28C1250.49,-71.8 1264.65,-68.11 1278.35,-64.54"/>
<polygon fill="#63b8ff" stroke="#63b8ff" points="1278.96,-68 1287.75,-62.09 1277.19,-61.22 1278.96,-68"/>
</a>
</g>
</g>
<!-- Node16&#45;&gt;Node5 -->
<g id="edge23_Node000016_Node000005" class="edge">
<title>Node16&#45;&gt;Node5</title>
<g id="a_edge23_Node000016_Node000005"><a xlink:title=" ">
<path fill="none" stroke="#63b8ff" d="M1240.26,-353.36C1259.97,-358.17 1281.18,-363.35 1299.96,-367.94"/>
<polygon fill="#63b8ff" stroke="#63b8ff" points="1298.99,-371.3 1309.53,-370.28 1300.65,-364.5 1298.99,-371.3"/>
</a>
</g>
</g>
</g>
</svg>
