<?xml version="1.0" encoding="UTF-8" standalone="no"?>
<!DOCTYPE svg PUBLIC "-//W3C//DTD SVG 1.1//EN"
 "http://www.w3.org/Graphics/SVG/1.1/DTD/svg11.dtd">
<!-- Generated by graphviz version 10.0.1 (0)
 -->
<!-- Title: validation_api::ConfigWatcher::ConfigWatcher Pages: 1 -->
<svg width="780pt" height="184pt"
 viewBox="0.00 0.00 780.00 183.50" xmlns="http://www.w3.org/2000/svg" xmlns:xlink="http://www.w3.org/1999/xlink">
<g id="graph0" class="graph" transform="scale(1 1) rotate(0) translate(4 179.5)">
<title>validation_api::ConfigWatcher::ConfigWatcher</title>
<!-- Node1 -->
<g id="Node000001" class="node">
<title>Node1</title>
<g id="a_Node000001"><a xlink:title="Construct a new validation api::ConfigWatcher::ConfigWatcher object.">
<polygon fill="#999999" stroke="#666666" points="161.5,-85.5 0,-85.5 0,-52 161.5,-52 161.5,-85.5"/>
<text text-anchor="start" x="8" y="-72" font-family="Helvetica,sans-Serif" font-size="10.00">validation_api::ConfigWatcher</text>
<text text-anchor="middle" x="80.75" y="-59.25" font-family="Helvetica,sans-Serif" font-size="10.00">::ConfigWatcher</text>
</a>
</g>
</g>
<!-- Node2 -->
<g id="Node000002" class="node">
<title>Node2</title>
<g id="a_Node000002"><a xlink:href="classvalidation__api_1_1ConfigWatcher.html#a13e118f62a6b13b780f44e12d5afed78" target="_top" xlink:title="Start ConfigWatcher.">
<polygon fill="white" stroke="#666666" points="380.75,-124.12 197.5,-124.12 197.5,-103.38 380.75,-103.38 380.75,-124.12"/>
<text text-anchor="middle" x="289.12" y="-110.62" font-family="Helvetica,sans-Serif" font-size="10.00">validation_api::ConfigWatcher::run</text>
</a>
</g>
</g>
<!-- Node1&#45;&gt;Node2 -->
<g id="edge1_Node000001_Node000002" class="edge">
<title>Node1&#45;&gt;Node2</title>
<g id="a_edge1_Node000001_Node000002"><a xlink:title=" ">
<path fill="none" stroke="#63b8ff" d="M157.68,-85.97C170.94,-88.93 184.62,-91.95 197.5,-94.75 206.32,-96.67 215.64,-98.66 224.8,-100.59"/>
<polygon fill="#63b8ff" stroke="#63b8ff" points="223.87,-103.98 234.38,-102.61 225.32,-97.13 223.87,-103.98"/>
</a>
</g>
</g>
<!-- Node7 -->
<g id="Node000007" class="node">
<title>Node7</title>
<g id="a_Node000007"><a xlink:href="classvalidation__api_1_1ConfigWatcher.html#a6f8a66478001a8a0515344aac1fd0395" target="_top" xlink:title="Setup the ConfigWatcher.">
<polygon fill="white" stroke="#666666" points="369.88,-85.5 208.38,-85.5 208.38,-52 369.88,-52 369.88,-85.5"/>
<text text-anchor="start" x="216.38" y="-72" font-family="Helvetica,sans-Serif" font-size="10.00">validation_api::ConfigWatcher</text>
<text text-anchor="middle" x="289.12" y="-59.25" font-family="Helvetica,sans-Serif" font-size="10.00">::setup</text>
</a>
</g>
</g>
<!-- Node1&#45;&gt;Node7 -->
<g id="edge6_Node000001_Node000007" class="edge">
<title>Node1&#45;&gt;Node7</title>
<g id="a_edge6_Node000001_Node000007"><a xlink:title=" ">
<path fill="none" stroke="#63b8ff" d="M161.84,-68.75C173.22,-68.75 185,-68.75 196.59,-68.75"/>
<polygon fill="#63b8ff" stroke="#63b8ff" points="196.57,-72.25 206.57,-68.75 196.57,-65.25 196.57,-72.25"/>
</a>
</g>
</g>
<!-- Node8 -->
<g id="Node000008" class="node">
<title>Node8</title>
<g id="a_Node000008"><a xlink:href="classvalidation__api_1_1ConfigWatcher.html#ac67b7bc5802f99796c903d2fdac92648" target="_top" xlink:title="Stop the ConfigWatcher.">
<polygon fill="white" stroke="#666666" points="369.88,-33.5 208.38,-33.5 208.38,0 369.88,0 369.88,-33.5"/>
<text text-anchor="start" x="216.38" y="-20" font-family="Helvetica,sans-Serif" font-size="10.00">validation_api::ConfigWatcher</text>
<text text-anchor="middle" x="289.12" y="-7.25" font-family="Helvetica,sans-Serif" font-size="10.00">::stop</text>
</a>
</g>
</g>
<!-- Node1&#45;&gt;Node8 -->
<g id="edge8_Node000001_Node000008" class="edge">
<title>Node1&#45;&gt;Node8</title>
<g id="a_edge8_Node000001_Node000008"><a xlink:title=" ">
<path fill="none" stroke="#63b8ff" d="M150.18,-51.51C169,-46.76 189.57,-41.58 208.94,-36.7"/>
<polygon fill="#63b8ff" stroke="#63b8ff" points="209.57,-40.15 218.41,-34.32 207.86,-33.37 209.57,-40.15"/>
</a>
</g>
</g>
<!-- Node3 -->
<g id="Node000003" class="node">
<title>Node3</title>
<g id="a_Node000003"><a xlink:href="classvalidation__api_1_1ConfigService.html#a72b9695e86a85502ea559e009a878e4c" target="_top" xlink:title="getConfigs method">
<polygon fill="white" stroke="#666666" points="576.38,-175.5 418.62,-175.5 418.62,-142 576.38,-142 576.38,-175.5"/>
<text text-anchor="start" x="426.62" y="-162" font-family="Helvetica,sans-Serif" font-size="10.00">validation_api::ConfigService</text>
<text text-anchor="middle" x="497.5" y="-149.25" font-family="Helvetica,sans-Serif" font-size="10.00">::deleteConfig</text>
</a>
</g>
</g>
<!-- Node2&#45;&gt;Node3 -->
<g id="edge2_Node000002_Node000003" class="edge">
<title>Node2&#45;&gt;Node3</title>
<g id="a_edge2_Node000002_Node000003"><a xlink:title=" ">
<path fill="none" stroke="#63b8ff" d="M339.82,-124.59C360.01,-128.99 383.98,-134.22 407.02,-139.24"/>
<polygon fill="#63b8ff" stroke="#63b8ff" points="406.24,-142.65 416.76,-141.36 407.73,-135.81 406.24,-142.65"/>
</a>
</g>
</g>
<!-- Node4 -->
<g id="Node000004" class="node">
<title>Node4</title>
<g id="a_Node000004"><a xlink:href="classvalidation__api_1_1ConfigWatcher.html#a78820bcf2ebf9135785e207aae042e72" target="_top" xlink:title=" ">
<polygon fill="white" stroke="#666666" points="578.25,-85.5 416.75,-85.5 416.75,-52 578.25,-52 578.25,-85.5"/>
<text text-anchor="start" x="424.75" y="-72" font-family="Helvetica,sans-Serif" font-size="10.00">validation_api::ConfigWatcher</text>
<text text-anchor="middle" x="497.5" y="-59.25" font-family="Helvetica,sans-Serif" font-size="10.00">::read_file</text>
</a>
</g>
</g>
<!-- Node2&#45;&gt;Node4 -->
<g id="edge3_Node000002_Node000004" class="edge">
<title>Node2&#45;&gt;Node4</title>
<g id="a_edge3_Node000002_Node000004"><a xlink:title=" ">
<path fill="none" stroke="#63b8ff" d="M342.39,-102.93C354.96,-100.29 368.34,-97.44 380.75,-94.75 390.11,-92.72 399.89,-90.57 409.62,-88.41"/>
<polygon fill="#63b8ff" stroke="#63b8ff" points="410.1,-91.89 419.1,-86.3 408.57,-85.05 410.1,-91.89"/>
</a>
</g>
</g>
<!-- Node6 -->
<g id="Node000006" class="node">
<title>Node6</title>
<g id="a_Node000006"><a xlink:href="ConfigWatcher_8cpp.html#af492780bc7786abac56fa242d4fc3045" target="_top" xlink:title=" ">
<polygon fill="white" stroke="#666666" points="532.88,-124.12 462.12,-124.12 462.12,-103.38 532.88,-103.38 532.88,-124.12"/>
<text text-anchor="middle" x="497.5" y="-110.62" font-family="Helvetica,sans-Serif" font-size="10.00">semaphore</text>
</a>
</g>
</g>
<!-- Node2&#45;&gt;Node6 -->
<g id="edge5_Node000002_Node000006" class="edge">
<title>Node2&#45;&gt;Node6</title>
<g id="a_edge5_Node000002_Node000006"><a xlink:title=" ">
<path fill="none" stroke="#63b8ff" d="M381.24,-113.75C405.07,-113.75 429.77,-113.75 450.17,-113.75"/>
<polygon fill="#63b8ff" stroke="#63b8ff" points="450.12,-117.25 460.12,-113.75 450.12,-110.25 450.12,-117.25"/>
</a>
</g>
</g>
<!-- Node5 -->
<g id="Node000005" class="node">
<title>Node5</title>
<g id="a_Node000005"><a xlink:href="classvalidation__api_1_1ConfigService.html#a8fee54d1f3f5eb92a17c3ecd72780f00" target="_top" xlink:title="getConfigs method">
<polygon fill="white" stroke="#666666" points="772,-85.5 614.25,-85.5 614.25,-52 772,-52 772,-85.5"/>
<text text-anchor="start" x="622.25" y="-72" font-family="Helvetica,sans-Serif" font-size="10.00">validation_api::ConfigService</text>
<text text-anchor="middle" x="693.12" y="-59.25" font-family="Helvetica,sans-Serif" font-size="10.00">::createConfig</text>
</a>
</g>
</g>
<!-- Node4&#45;&gt;Node5 -->
<g id="edge4_Node000004_Node000005" class="edge">
<title>Node4&#45;&gt;Node5</title>
<g id="a_edge4_Node000004_Node000005"><a xlink:title=" ">
<path fill="none" stroke="#63b8ff" d="M578.65,-68.75C586.57,-68.75 594.65,-68.75 602.65,-68.75"/>
<polygon fill="#63b8ff" stroke="#63b8ff" points="602.39,-72.25 612.39,-68.75 602.39,-65.25 602.39,-72.25"/>
</a>
</g>
</g>
<!-- Node7&#45;&gt;Node4 -->
<g id="edge7_Node000007_Node000004" class="edge">
<title>Node7&#45;&gt;Node4</title>
<g id="a_edge7_Node000007_Node000004"><a xlink:title=" ">
<path fill="none" stroke="#63b8ff" d="M370.21,-68.75C381.6,-68.75 393.38,-68.75 404.96,-68.75"/>
<polygon fill="#63b8ff" stroke="#63b8ff" points="404.95,-72.25 414.95,-68.75 404.95,-65.25 404.95,-72.25"/>
</a>
</g>
</g>
</g>
</svg>
