<?xml version="1.0" encoding="UTF-8" standalone="no"?>
<!DOCTYPE svg PUBLIC "-//W3C//DTD SVG 1.1//EN"
 "http://www.w3.org/Graphics/SVG/1.1/DTD/svg11.dtd">
<!-- Generated by graphviz version 10.0.1 (0)
 -->
<!-- Title: validation_api::ValidationServer::run Pages: 1 -->
<svg width="1439pt" height="525pt"
 viewBox="0.00 0.00 1438.75 524.50" xmlns="http://www.w3.org/2000/svg" xmlns:xlink="http://www.w3.org/1999/xlink">
<g id="graph0" class="graph" transform="scale(1 1) rotate(0) translate(4 520.5)">
<title>validation_api::ValidationServer::run</title>
<!-- Node1 -->
<g id="Node000001" class="node">
<title>Node1</title>
<g id="a_Node000001"><a xlink:title="Start the server.">
<polygon fill="#999999" stroke="#666666" points="139.75,-122.5 0,-122.5 0,-89 139.75,-89 139.75,-122.5"/>
<text text-anchor="start" x="8" y="-109" font-family="Helvetica,sans-Serif" font-size="10.00">validation_api::Validation</text>
<text text-anchor="middle" x="69.88" y="-96.25" font-family="Helvetica,sans-Serif" font-size="10.00">Server::run</text>
</a>
</g>
</g>
<!-- Node1&#45;&gt;Node1 -->
<g id="edge24_Node000001_Node000001" class="edge">
<title>Node1&#45;&gt;Node1</title>
<g id="a_edge24_Node000001_Node000001"><a xlink:title=" ">
<path fill="none" stroke="#63b8ff" d="M38.28,-122.91C32.91,-132.12 43.44,-140.5 69.88,-140.5 84.74,-140.5 94.58,-137.85 99.39,-133.89"/>
<polygon fill="#63b8ff" stroke="#63b8ff" points="102.76,-134.88 101.19,-124.4 95.88,-133.57 102.76,-134.88"/>
</a>
</g>
</g>
<!-- Node2 -->
<g id="Node000002" class="node">
<title>Node2</title>
<g id="a_Node000002"><a xlink:href="classvalidation__api_1_1ValidationServer.html#a7f5c5252fa7a28bef0345e6248139215" target="_top" xlink:title="Accept a connection.">
<polygon fill="white" stroke="#666666" points="315.5,-122.5 175.75,-122.5 175.75,-89 315.5,-89 315.5,-122.5"/>
<text text-anchor="start" x="183.75" y="-109" font-family="Helvetica,sans-Serif" font-size="10.00">validation_api::Validation</text>
<text text-anchor="middle" x="245.62" y="-96.25" font-family="Helvetica,sans-Serif" font-size="10.00">Server::accept</text>
</a>
</g>
</g>
<!-- Node1&#45;&gt;Node2 -->
<g id="edge1_Node000001_Node000002" class="edge">
<title>Node1&#45;&gt;Node2</title>
<g id="a_edge1_Node000001_Node000002"><a xlink:title=" ">
<path fill="none" stroke="#63b8ff" d="M140.04,-105.75C147.96,-105.75 156.07,-105.75 164.12,-105.75"/>
<polygon fill="#63b8ff" stroke="#63b8ff" points="163.9,-109.25 173.9,-105.75 163.9,-102.25 163.9,-109.25"/>
</a>
</g>
</g>
<!-- Node3 -->
<g id="Node000003" class="node">
<title>Node3</title>
<g id="a_Node000003"><a xlink:href="classvalidation__api_1_1ValidationServer.html#a59c4a313effe28cc0acca7b8bb3a26e4" target="_top" xlink:title=" ">
<polygon fill="white" stroke="#666666" points="500.25,-148.5 360.5,-148.5 360.5,-115 500.25,-115 500.25,-148.5"/>
<text text-anchor="start" x="368.5" y="-135" font-family="Helvetica,sans-Serif" font-size="10.00">validation_api::Validation</text>
<text text-anchor="middle" x="430.38" y="-122.25" font-family="Helvetica,sans-Serif" font-size="10.00">Server::asyncWriter</text>
</a>
</g>
</g>
<!-- Node2&#45;&gt;Node3 -->
<g id="edge2_Node000002_Node000003" class="edge">
<title>Node2&#45;&gt;Node3</title>
<g id="a_edge2_Node000002_Node000003"><a xlink:title=" ">
<path fill="none" stroke="#63b8ff" d="M315.98,-115.62C326.69,-117.14 337.84,-118.73 348.78,-120.28"/>
<polygon fill="#63b8ff" stroke="#63b8ff" points="348.18,-123.73 358.57,-121.68 349.17,-116.8 348.18,-123.73"/>
</a>
</g>
</g>
<!-- Node4 -->
<g id="Node000004" class="node">
<title>Node4</title>
<g id="a_Node000004"><a xlink:href="classvalidation__api_1_1ConfigService.html#a654e84f4f588f7391f93210c1e08344f" target="_top" xlink:title="getConfigs method">
<polygon fill="white" stroke="#666666" points="509.25,-96.5 351.5,-96.5 351.5,-63 509.25,-63 509.25,-96.5"/>
<text text-anchor="start" x="359.5" y="-83" font-family="Helvetica,sans-Serif" font-size="10.00">validation_api::ConfigService</text>
<text text-anchor="middle" x="430.38" y="-70.25" font-family="Helvetica,sans-Serif" font-size="10.00">::validateConfig</text>
</a>
</g>
</g>
<!-- Node2&#45;&gt;Node4 -->
<g id="edge3_Node000002_Node000004" class="edge">
<title>Node2&#45;&gt;Node4</title>
<g id="a_edge3_Node000002_Node000004"><a xlink:title=" ">
<path fill="none" stroke="#63b8ff" d="M315.98,-95.88C323.8,-94.77 331.85,-93.62 339.89,-92.48"/>
<polygon fill="#63b8ff" stroke="#63b8ff" points="340.3,-95.96 349.71,-91.08 339.31,-89.03 340.3,-95.96"/>
</a>
</g>
</g>
<!-- Node5 -->
<g id="Node000005" class="node">
<title>Node5</title>
<g id="a_Node000005"><a xlink:href="classvalidation__api_1_1Validation.html#ac6c337d3af39943a8e603a5f21f5922a" target="_top" xlink:title=" ">
<polygon fill="white" stroke="#666666" points="706.75,-90.12 545.25,-90.12 545.25,-69.38 706.75,-69.38 706.75,-90.12"/>
<text text-anchor="middle" x="626" y="-76.62" font-family="Helvetica,sans-Serif" font-size="10.00">validation_api::Validation::run</text>
</a>
</g>
</g>
<!-- Node4&#45;&gt;Node5 -->
<g id="edge4_Node000004_Node000005" class="edge">
<title>Node4&#45;&gt;Node5</title>
<g id="a_edge4_Node000004_Node000005"><a xlink:title=" ">
<path fill="none" stroke="#63b8ff" d="M509.57,-79.75C517.49,-79.75 525.58,-79.75 533.62,-79.75"/>
<polygon fill="#63b8ff" stroke="#63b8ff" points="533.42,-83.25 543.42,-79.75 533.42,-76.25 533.42,-83.25"/>
</a>
</g>
</g>
<!-- Node6 -->
<g id="Node000006" class="node">
<title>Node6</title>
<g id="a_Node000006"><a xlink:href="namespacevalidation__api.html#ac3e8e6ef097973f55220fc4fdeb08dc2" target="_top" xlink:title="Error builder.">
<polygon fill="white" stroke="#666666" points="1430.75,-151.12 1282,-151.12 1282,-130.38 1430.75,-130.38 1430.75,-151.12"/>
<text text-anchor="middle" x="1356.38" y="-137.62" font-family="Helvetica,sans-Serif" font-size="10.00">validation_api::errorBuilder</text>
</a>
</g>
</g>
<!-- Node5&#45;&gt;Node6 -->
<g id="edge5_Node000005_Node000006" class="edge">
<title>Node5&#45;&gt;Node6</title>
<g id="a_edge5_Node000005_Node000006"><a xlink:title=" ">
<path fill="none" stroke="#63b8ff" d="M707.17,-85.72C825.22,-94.63 1052.73,-112.23 1246,-129.75 1253.91,-130.47 1262.13,-131.24 1270.36,-132.04"/>
<polygon fill="#63b8ff" stroke="#63b8ff" points="1269.76,-135.49 1280.05,-132.98 1270.44,-128.53 1269.76,-135.49"/>
</a>
</g>
</g>
<!-- Node7 -->
<g id="Node000007" class="node">
<title>Node7</title>
<g id="a_Node000007"><a xlink:href="classvalidation__api_1_1Validation.html#a21b9aefd80be5a639d2aa5e4c8ebe945" target="_top" xlink:title=" ">
<polygon fill="white" stroke="#666666" points="882.5,-33.5 742.75,-33.5 742.75,0 882.5,0 882.5,-33.5"/>
<text text-anchor="start" x="750.75" y="-20" font-family="Helvetica,sans-Serif" font-size="10.00">validation_api::Validation</text>
<text text-anchor="middle" x="812.62" y="-7.25" font-family="Helvetica,sans-Serif" font-size="10.00">::fillRequestList</text>
</a>
</g>
</g>
<!-- Node5&#45;&gt;Node7 -->
<g id="edge6_Node000005_Node000007" class="edge">
<title>Node5&#45;&gt;Node7</title>
<g id="a_edge6_Node000005_Node000007"><a xlink:title=" ">
<path fill="none" stroke="#63b8ff" d="M658.74,-68.92C683.92,-60.33 719.86,-48.06 750.57,-37.59"/>
<polygon fill="#63b8ff" stroke="#63b8ff" points="751.42,-40.99 759.75,-34.45 749.16,-34.37 751.42,-40.99"/>
</a>
</g>
</g>
<!-- Node8 -->
<g id="Node000008" class="node">
<title>Node8</title>
<g id="a_Node000008"><a xlink:href="classvalidation__api_1_1Validation.html#a3c8146fc89af5b8cef0c1bb6c9d473f2" target="_top" xlink:title="Traverse through the json object and validate the fields.">
<polygon fill="white" stroke="#666666" points="882.5,-221.5 742.75,-221.5 742.75,-188 882.5,-188 882.5,-221.5"/>
<text text-anchor="start" x="750.75" y="-208" font-family="Helvetica,sans-Serif" font-size="10.00">validation_api::Validation</text>
<text text-anchor="middle" x="812.62" y="-195.25" font-family="Helvetica,sans-Serif" font-size="10.00">::traverseAndValidate</text>
</a>
</g>
</g>
<!-- Node5&#45;&gt;Node8 -->
<g id="edge8_Node000005_Node000008" class="edge">
<title>Node5&#45;&gt;Node8</title>
<g id="a_edge8_Node000005_Node000008"><a xlink:title=" ">
<path fill="none" stroke="#63b8ff" d="M643.06,-90.62C672.72,-110.71 736.72,-154.04 776.77,-181.15"/>
<polygon fill="#63b8ff" stroke="#63b8ff" points="774.66,-183.95 784.9,-186.66 778.58,-178.15 774.66,-183.95"/>
</a>
</g>
</g>
<!-- Node7&#45;&gt;Node7 -->
<g id="edge7_Node000007_Node000007" class="edge">
<title>Node7&#45;&gt;Node7</title>
<g id="a_edge7_Node000007_Node000007"><a xlink:title=" ">
<path fill="none" stroke="#63b8ff" d="M781.03,-33.91C775.66,-43.12 786.19,-51.5 812.62,-51.5 827.49,-51.5 837.33,-48.85 842.14,-44.89"/>
<polygon fill="#63b8ff" stroke="#63b8ff" points="845.51,-45.88 843.94,-35.4 838.63,-44.57 845.51,-45.88"/>
</a>
</g>
</g>
<!-- Node8&#45;&gt;Node6 -->
<g id="edge9_Node000008_Node000006" class="edge">
<title>Node8&#45;&gt;Node6</title>
<g id="a_edge9_Node000008_Node000006"><a xlink:title=" ">
<path fill="none" stroke="#63b8ff" d="M867.77,-187.56C923.78,-170.75 1014.11,-146.32 1094.25,-136.75 1161.22,-128.75 1178.57,-135.52 1246,-136.75 1253.81,-136.89 1261.94,-137.09 1270.07,-137.33"/>
<polygon fill="#63b8ff" stroke="#63b8ff" points="1269.93,-140.83 1280.04,-137.64 1270.15,-133.83 1269.93,-140.83"/>
</a>
</g>
</g>
<!-- Node8&#45;&gt;Node8 -->
<g id="edge12_Node000008_Node000008" class="edge">
<title>Node8&#45;&gt;Node8</title>
<g id="a_edge12_Node000008_Node000008"><a xlink:title=" ">
<path fill="none" stroke="#63b8ff" d="M781.03,-221.91C775.66,-231.12 786.19,-239.5 812.62,-239.5 827.49,-239.5 837.33,-236.85 842.14,-232.89"/>
<polygon fill="#63b8ff" stroke="#63b8ff" points="845.51,-233.88 843.94,-223.4 838.63,-232.57 845.51,-233.88"/>
</a>
</g>
</g>
<!-- Node9 -->
<g id="Node000009" class="node">
<title>Node9</title>
<g id="a_Node000009"><a xlink:href="classvalidation__api_1_1Validation.html#a49e598a8189b6bd6edf1ecdb00ae8b9d" target="_top" xlink:title=" ">
<polygon fill="white" stroke="#666666" points="1426.25,-498.5 1286.5,-498.5 1286.5,-465 1426.25,-465 1426.25,-498.5"/>
<text text-anchor="start" x="1294.5" y="-485" font-family="Helvetica,sans-Serif" font-size="10.00">validation_api::Validation</text>
<text text-anchor="middle" x="1356.38" y="-472.25" font-family="Helvetica,sans-Serif" font-size="10.00">::findJsonField</text>
</a>
</g>
</g>
<!-- Node8&#45;&gt;Node9 -->
<g id="edge10_Node000008_Node000009" class="edge">
<title>Node8&#45;&gt;Node9</title>
<g id="a_edge10_Node000008_Node000009"><a xlink:title=" ">
<path fill="none" stroke="#63b8ff" d="M823.67,-221.86C855.36,-273.86 959.15,-429.96 1094.25,-485.75 1151.37,-509.34 1221.69,-506.67 1274.96,-499.03"/>
<polygon fill="#63b8ff" stroke="#63b8ff" points="1275.21,-502.53 1284.56,-497.56 1274.15,-495.61 1275.21,-502.53"/>
</a>
</g>
</g>
<!-- Node10 -->
<g id="Node000010" class="node">
<title>Node10</title>
<g id="a_Node000010"><a xlink:href="classvalidation__api_1_1Validation.html#a1cc0802269d88c233ad3c3d1d6c3dd12" target="_top" xlink:title=" ">
<polygon fill="white" stroke="#666666" points="1058.25,-301.5 918.5,-301.5 918.5,-268 1058.25,-268 1058.25,-301.5"/>
<text text-anchor="start" x="926.5" y="-288" font-family="Helvetica,sans-Serif" font-size="10.00">validation_api::Validation</text>
<text text-anchor="middle" x="988.38" y="-275.25" font-family="Helvetica,sans-Serif" font-size="10.00">::validate</text>
</a>
</g>
</g>
<!-- Node8&#45;&gt;Node10 -->
<g id="edge13_Node000008_Node000010" class="edge">
<title>Node8&#45;&gt;Node10</title>
<g id="a_edge13_Node000008_Node000010"><a xlink:title=" ">
<path fill="none" stroke="#63b8ff" d="M850.9,-221.91C876.89,-233.88 911.8,-249.95 939.8,-262.85"/>
<polygon fill="#63b8ff" stroke="#63b8ff" points="938.24,-265.98 948.79,-266.98 941.17,-259.62 938.24,-265.98"/>
</a>
</g>
</g>
<!-- Node9&#45;&gt;Node9 -->
<g id="edge11_Node000009_Node000009" class="edge">
<title>Node9&#45;&gt;Node9</title>
<g id="a_edge11_Node000009_Node000009"><a xlink:title=" ">
<path fill="none" stroke="#63b8ff" d="M1322.89,-498.91C1317.2,-508.12 1328.36,-516.5 1356.38,-516.5 1372.13,-516.5 1382.56,-513.85 1387.65,-509.89"/>
<polygon fill="#63b8ff" stroke="#63b8ff" points="1391.02,-510.89 1389.56,-500.4 1384.15,-509.51 1391.02,-510.89"/>
</a>
</g>
</g>
<!-- Node10&#45;&gt;Node6 -->
<g id="edge16_Node000010_Node000006" class="edge">
<title>Node10&#45;&gt;Node6</title>
<g id="a_edge16_Node000010_Node000006"><a xlink:title=" ">
<path fill="none" stroke="#63b8ff" d="M1015.6,-267.73C1036.26,-254.95 1066.18,-237.81 1094.25,-226.75 1158.94,-201.27 1180.21,-211.24 1246,-188.75 1272.69,-179.62 1301.89,-166.65 1323.41,-156.48"/>
<polygon fill="#63b8ff" stroke="#63b8ff" points="1324.73,-159.73 1332.24,-152.26 1321.71,-153.42 1324.73,-159.73"/>
</a>
</g>
</g>
<!-- Node11 -->
<g id="Node000011" class="node">
<title>Node11</title>
<g id="a_Node000011"><a xlink:href="classvalidation__api_1_1Validation.html#a7b6995b4592eb861af42e45b095382b7" target="_top" xlink:title="Checking Uuid values.">
<polygon fill="white" stroke="#666666" points="1240,-476.5 1100.25,-476.5 1100.25,-443 1240,-443 1240,-476.5"/>
<text text-anchor="start" x="1108.25" y="-463" font-family="Helvetica,sans-Serif" font-size="10.00">validation_api::Validation</text>
<text text-anchor="middle" x="1170.12" y="-450.25" font-family="Helvetica,sans-Serif" font-size="10.00">::checkNullOptionsVec</text>
</a>
</g>
</g>
<!-- Node10&#45;&gt;Node11 -->
<g id="edge14_Node000010_Node000011" class="edge">
<title>Node10&#45;&gt;Node11</title>
<g id="a_edge14_Node000010_Node000011"><a xlink:title=" ">
<path fill="none" stroke="#63b8ff" d="M996.89,-301.66C1011.37,-332.34 1046,-397.38 1094.25,-433.75 1095.76,-434.89 1097.33,-435.98 1098.93,-437.03"/>
<polygon fill="#63b8ff" stroke="#63b8ff" points="1096.82,-439.85 1107.24,-441.78 1100.3,-433.77 1096.82,-439.85"/>
</a>
</g>
</g>
<!-- Node12 -->
<g id="Node000012" class="node">
<title>Node12</title>
<g id="a_Node000012"><a xlink:href="classvalidation__api_1_1Validation.html#ac59ae7a00f5fc950a3a572524127c4d3" target="_top" xlink:title="Checks if a json object is empty.">
<polygon fill="white" stroke="#666666" points="1240,-424.5 1100.25,-424.5 1100.25,-391 1240,-391 1240,-424.5"/>
<text text-anchor="start" x="1108.25" y="-411" font-family="Helvetica,sans-Serif" font-size="10.00">validation_api::Validation</text>
<text text-anchor="middle" x="1170.12" y="-398.25" font-family="Helvetica,sans-Serif" font-size="10.00">::isNullOrEmpty</text>
</a>
</g>
</g>
<!-- Node10&#45;&gt;Node12 -->
<g id="edge17_Node000010_Node000012" class="edge">
<title>Node10&#45;&gt;Node12</title>
<g id="a_edge17_Node000010_Node000012"><a xlink:title=" ">
<path fill="none" stroke="#63b8ff" d="M1003.7,-301.77C1022.5,-323.14 1057.46,-359.68 1094.25,-381.75 1096.54,-383.12 1098.91,-384.44 1101.34,-385.7"/>
<polygon fill="#63b8ff" stroke="#63b8ff" points="1099.69,-388.78 1110.22,-389.89 1102.68,-382.46 1099.69,-388.78"/>
</a>
</g>
</g>
<!-- Node13 -->
<g id="Node000013" class="node">
<title>Node13</title>
<g id="a_Node000013"><a xlink:href="namespacevalidation__api.html#ac19e25b4d8364b0f52152440dd5ecbda" target="_top" xlink:title=" ">
<polygon fill="white" stroke="#666666" points="1243,-373.12 1097.25,-373.12 1097.25,-352.38 1243,-352.38 1243,-373.12"/>
<text text-anchor="middle" x="1170.12" y="-359.62" font-family="Helvetica,sans-Serif" font-size="10.00">validation_api::isValidUuid</text>
</a>
</g>
</g>
<!-- Node10&#45;&gt;Node13 -->
<g id="edge18_Node000010_Node000013" class="edge">
<title>Node10&#45;&gt;Node13</title>
<g id="a_edge18_Node000010_Node000013"><a xlink:title=" ">
<path fill="none" stroke="#63b8ff" d="M1016.07,-301.91C1036.75,-314.6 1066.46,-331.55 1094.25,-342.75 1099.5,-344.86 1105.04,-346.82 1110.64,-348.62"/>
<polygon fill="#63b8ff" stroke="#63b8ff" points="1109.39,-351.9 1119.97,-351.44 1111.41,-345.2 1109.39,-351.9"/>
</a>
</g>
</g>
<!-- Node14 -->
<g id="Node000014" class="node">
<title>Node14</title>
<g id="a_Node000014"><a xlink:href="namespacevalidation__api.html#a6dd56dcf7358b332bb906a2d27fddd0b" target="_top" xlink:title="Converts string to all lowercase.">
<polygon fill="white" stroke="#666666" points="1235.12,-334.12 1105.12,-334.12 1105.12,-313.38 1235.12,-313.38 1235.12,-334.12"/>
<text text-anchor="middle" x="1170.12" y="-320.62" font-family="Helvetica,sans-Serif" font-size="10.00">validation_api::toLower</text>
</a>
</g>
</g>
<!-- Node10&#45;&gt;Node14 -->
<g id="edge19_Node000010_Node000014" class="edge">
<title>Node10&#45;&gt;Node14</title>
<g id="a_edge19_Node000010_Node000014"><a xlink:title=" ">
<path fill="none" stroke="#63b8ff" d="M1058.61,-299.77C1075.01,-303.33 1092.37,-307.1 1108.35,-310.56"/>
<polygon fill="#63b8ff" stroke="#63b8ff" points="1107.17,-313.89 1117.69,-312.59 1108.66,-307.05 1107.17,-313.89"/>
</a>
</g>
</g>
<!-- Node15 -->
<g id="Node000015" class="node">
<title>Node15</title>
<g id="a_Node000015"><a xlink:href="namespacevalidation__api.html#aae32fd7a0b5886a49454679d46ed4bd1" target="_top" xlink:title="Validates Ahv string.">
<polygon fill="white" stroke="#666666" points="1244.88,-295.12 1095.38,-295.12 1095.38,-274.38 1244.88,-274.38 1244.88,-295.12"/>
<text text-anchor="middle" x="1170.12" y="-281.62" font-family="Helvetica,sans-Serif" font-size="10.00">validation_api::validateAhv</text>
</a>
</g>
</g>
<!-- Node10&#45;&gt;Node15 -->
<g id="edge20_Node000010_Node000015" class="edge">
<title>Node10&#45;&gt;Node15</title>
<g id="a_edge20_Node000010_Node000015"><a xlink:title=" ">
<path fill="none" stroke="#63b8ff" d="M1058.61,-284.75C1066.84,-284.75 1075.31,-284.75 1083.73,-284.75"/>
<polygon fill="#63b8ff" stroke="#63b8ff" points="1083.64,-288.25 1093.64,-284.75 1083.64,-281.25 1083.64,-288.25"/>
</a>
</g>
</g>
<!-- Node16 -->
<g id="Node000016" class="node">
<title>Node16</title>
<g id="a_Node000016"><a xlink:href="classvalidation__api_1_1Validation.html#a512e2e0c3be1bea95ebfab280ec919ba" target="_top" xlink:title="Validates len options.">
<polygon fill="white" stroke="#666666" points="1240,-179.5 1100.25,-179.5 1100.25,-146 1240,-146 1240,-179.5"/>
<text text-anchor="start" x="1108.25" y="-166" font-family="Helvetica,sans-Serif" font-size="10.00">validation_api::Validation</text>
<text text-anchor="middle" x="1170.12" y="-153.25" font-family="Helvetica,sans-Serif" font-size="10.00">::validateConstraints</text>
</a>
</g>
</g>
<!-- Node10&#45;&gt;Node16 -->
<g id="edge21_Node000010_Node000016" class="edge">
<title>Node10&#45;&gt;Node16</title>
<g id="a_edge21_Node000010_Node000016"><a xlink:title=" ">
<path fill="none" stroke="#63b8ff" d="M1005.47,-267.79C1024.99,-247.97 1059.6,-215.17 1094.25,-193.75 1099.49,-190.51 1105.12,-187.48 1110.86,-184.67"/>
<polygon fill="#63b8ff" stroke="#63b8ff" points="1112.27,-187.87 1119.88,-180.5 1109.33,-181.52 1112.27,-187.87"/>
</a>
</g>
</g>
<!-- Node17 -->
<g id="Node000017" class="node">
<title>Node17</title>
<g id="a_Node000017"><a xlink:href="namespacevalidation__api.html#a0a2b975e162ced567ba3a6075684092a" target="_top" xlink:title="Validates Iban string.">
<polygon fill="white" stroke="#666666" points="1246,-256.12 1094.25,-256.12 1094.25,-235.38 1246,-235.38 1246,-256.12"/>
<text text-anchor="middle" x="1170.12" y="-242.62" font-family="Helvetica,sans-Serif" font-size="10.00">validation_api::validateIban</text>
</a>
</g>
</g>
<!-- Node10&#45;&gt;Node17 -->
<g id="edge23_Node000010_Node000017" class="edge">
<title>Node10&#45;&gt;Node17</title>
<g id="a_edge23_Node000010_Node000017"><a xlink:title=" ">
<path fill="none" stroke="#63b8ff" d="M1058.61,-269.73C1075.01,-266.17 1092.37,-262.4 1108.35,-258.94"/>
<polygon fill="#63b8ff" stroke="#63b8ff" points="1108.66,-262.45 1117.69,-256.91 1107.17,-255.61 1108.66,-262.45"/>
</a>
</g>
</g>
<!-- Node11&#45;&gt;Node9 -->
<g id="edge15_Node000011_Node000009" class="edge">
<title>Node11&#45;&gt;Node9</title>
<g id="a_edge15_Node000011_Node000009"><a xlink:title=" ">
<path fill="none" stroke="#63b8ff" d="M1240.26,-468C1251.52,-469.35 1263.26,-470.75 1274.77,-472.13"/>
<polygon fill="#63b8ff" stroke="#63b8ff" points="1274.31,-475.6 1284.66,-473.31 1275.14,-468.65 1274.31,-475.6"/>
</a>
</g>
</g>
<!-- Node16&#45;&gt;Node6 -->
<g id="edge22_Node000016_Node000006" class="edge">
<title>Node16&#45;&gt;Node6</title>
<g id="a_edge22_Node000016_Node000006"><a xlink:title=" ">
<path fill="none" stroke="#63b8ff" d="M1240.26,-154.5C1250.05,-153.33 1260.21,-152.11 1270.27,-150.91"/>
<polygon fill="#63b8ff" stroke="#63b8ff" points="1270.52,-154.41 1280.04,-149.75 1269.69,-147.46 1270.52,-154.41"/>
</a>
</g>
</g>
</g>
</svg>
