<?xml version="1.0" encoding="UTF-8" standalone="no"?>
<!DOCTYPE svg PUBLIC "-//W3C//DTD SVG 1.1//EN"
 "http://www.w3.org/Graphics/SVG/1.1/DTD/svg11.dtd">
<!-- Generated by graphviz version 10.0.1 (0)
 -->
<!-- Title: validation_api::ConfigWatcher::setup Pages: 1 -->
<svg width="746pt" height="209pt"
 viewBox="0.00 0.00 745.50 209.12" xmlns="http://www.w3.org/2000/svg" xmlns:xlink="http://www.w3.org/1999/xlink">
<g id="graph0" class="graph" transform="scale(1 1) rotate(0) translate(4 205.12)">
<title>validation_api::ConfigWatcher::setup</title>
<!-- Node1 -->
<g id="Node000001" class="node">
<title>Node1</title>
<g id="a_Node000001"><a xlink:title="Setup the ConfigWatcher.">
<polygon fill="#999999" stroke="#666666" points="161.5,-152.12 0,-152.12 0,-118.62 161.5,-118.62 161.5,-152.12"/>
<text text-anchor="start" x="8" y="-138.62" font-family="Helvetica,sans-Serif" font-size="10.00">validation_api::ConfigWatcher</text>
<text text-anchor="middle" x="80.75" y="-125.88" font-family="Helvetica,sans-Serif" font-size="10.00">::setup</text>
</a>
</g>
</g>
<!-- Node2 -->
<g id="Node000002" class="node">
<title>Node2</title>
<g id="a_Node000002"><a xlink:href="classvalidation__api_1_1ConfigWatcher.html#a78820bcf2ebf9135785e207aae042e72" target="_top" xlink:title="Reads a file.">
<polygon fill="white" stroke="#666666" points="359,-152.12 197.5,-152.12 197.5,-118.62 359,-118.62 359,-152.12"/>
<text text-anchor="start" x="205.5" y="-138.62" font-family="Helvetica,sans-Serif" font-size="10.00">validation_api::ConfigWatcher</text>
<text text-anchor="middle" x="278.25" y="-125.88" font-family="Helvetica,sans-Serif" font-size="10.00">::read_file</text>
</a>
</g>
</g>
<!-- Node1&#45;&gt;Node2 -->
<g id="edge1_Node000001_Node000002" class="edge">
<title>Node1&#45;&gt;Node2</title>
<g id="a_edge1_Node000001_Node000002"><a xlink:title=" ">
<path fill="none" stroke="#63b8ff" d="M161.83,-135.38C169.79,-135.38 177.9,-135.38 185.96,-135.38"/>
<polygon fill="#63b8ff" stroke="#63b8ff" points="185.78,-138.88 195.78,-135.38 185.78,-131.88 185.78,-138.88"/>
</a>
</g>
</g>
<!-- Node3 -->
<g id="Node000003" class="node">
<title>Node3</title>
<g id="a_Node000003"><a xlink:href="classvalidation__api_1_1ConfigService.html#a8fee54d1f3f5eb92a17c3ecd72780f00" target="_top" xlink:title="getConfigs method">
<polygon fill="white" stroke="#666666" points="552.75,-187.12 395,-187.12 395,-153.62 552.75,-153.62 552.75,-187.12"/>
<text text-anchor="start" x="403" y="-173.62" font-family="Helvetica,sans-Serif" font-size="10.00">validation_api::ConfigService</text>
<text text-anchor="middle" x="473.88" y="-160.88" font-family="Helvetica,sans-Serif" font-size="10.00">::createConfig</text>
</a>
</g>
</g>
<!-- Node2&#45;&gt;Node3 -->
<g id="edge2_Node000002_Node000003" class="edge">
<title>Node2&#45;&gt;Node3</title>
<g id="a_edge2_Node000002_Node000003"><a xlink:title=" ">
<path fill="none" stroke="#63b8ff" d="M359.4,-149.86C367.32,-151.3 375.4,-152.75 383.4,-154.2"/>
<polygon fill="#63b8ff" stroke="#63b8ff" points="382.7,-157.63 393.16,-155.97 383.94,-150.74 382.7,-157.63"/>
</a>
</g>
</g>
<!-- Node4 -->
<g id="Node000004" class="node">
<title>Node4</title>
<g id="a_Node000004"><a xlink:href="namespacevalidation__api.html#aa82c6b3a43b6e6b59b529c22944cadca" target="_top" xlink:title="Ensures valid Xml configuration.">
<polygon fill="white" stroke="#666666" points="539.25,-117.12 408.5,-117.12 408.5,-83.62 539.25,-83.62 539.25,-117.12"/>
<text text-anchor="start" x="416.5" y="-103.62" font-family="Helvetica,sans-Serif" font-size="10.00">validation_api::validate</text>
<text text-anchor="middle" x="473.88" y="-90.88" font-family="Helvetica,sans-Serif" font-size="10.00">XmlConfig</text>
</a>
</g>
</g>
<!-- Node2&#45;&gt;Node4 -->
<g id="edge3_Node000002_Node000004" class="edge">
<title>Node2&#45;&gt;Node4</title>
<g id="a_edge3_Node000002_Node000004"><a xlink:title=" ">
<path fill="none" stroke="#63b8ff" d="M359.4,-120.89C371.83,-118.64 384.63,-116.33 396.96,-114.1"/>
<polygon fill="#63b8ff" stroke="#63b8ff" points="397.42,-117.57 406.64,-112.35 396.17,-110.68 397.42,-117.57"/>
</a>
</g>
</g>
<!-- Node4&#45;&gt;Node4 -->
<g id="edge9_Node000004_Node000004" class="edge">
<title>Node4&#45;&gt;Node4</title>
<g id="a_edge9_Node000004_Node000004"><a xlink:title=" ">
<path fill="none" stroke="#63b8ff" d="M439.85,-117.54C434.07,-126.74 445.41,-135.12 473.88,-135.12 489.88,-135.12 500.48,-132.47 505.65,-128.51"/>
<polygon fill="#63b8ff" stroke="#63b8ff" points="509.02,-129.52 507.59,-119.02 502.16,-128.12 509.02,-129.52"/>
</a>
</g>
</g>
<!-- Node5 -->
<g id="Node000005" class="node">
<title>Node5</title>
<g id="a_Node000005"><a xlink:href="classvalidation__api_1_1ErrorBuilder.html#a84327bbfe6c61e7be6966acc41ba6087" target="_top" xlink:title=" ">
<polygon fill="white" stroke="#666666" points="737.5,-201.12 588.75,-201.12 588.75,-167.62 737.5,-167.62 737.5,-201.12"/>
<text text-anchor="start" x="596.75" y="-187.62" font-family="Helvetica,sans-Serif" font-size="10.00">validation_api::ErrorBuilder</text>
<text text-anchor="middle" x="663.12" y="-174.88" font-family="Helvetica,sans-Serif" font-size="10.00">::build</text>
</a>
</g>
</g>
<!-- Node4&#45;&gt;Node5 -->
<g id="edge4_Node000004_Node000005" class="edge">
<title>Node4&#45;&gt;Node5</title>
<g id="a_edge4_Node000004_Node000005"><a xlink:title=" ">
<path fill="none" stroke="#63b8ff" d="M505.77,-117.5C528.38,-129.68 560.01,-146.03 588.75,-158.38 592.51,-159.99 596.41,-161.59 600.36,-163.15"/>
<polygon fill="#63b8ff" stroke="#63b8ff" points="598.87,-166.33 609.46,-166.64 601.38,-159.79 598.87,-166.33"/>
</a>
</g>
</g>
<!-- Node6 -->
<g id="Node000006" class="node">
<title>Node6</title>
<g id="a_Node000006"><a xlink:href="namespacevalidation__api.html#ac497c1198e4e7f0fe71ffbdb3e6beeaa" target="_top" xlink:title="Convert string to float.">
<polygon fill="white" stroke="#666666" points="725.12,-149.75 601.12,-149.75 601.12,-129 725.12,-129 725.12,-149.75"/>
<text text-anchor="middle" x="663.12" y="-136.25" font-family="Helvetica,sans-Serif" font-size="10.00">validation_api::isFloat</text>
</a>
</g>
</g>
<!-- Node4&#45;&gt;Node6 -->
<g id="edge5_Node000004_Node000006" class="edge">
<title>Node4&#45;&gt;Node6</title>
<g id="a_edge5_Node000004_Node000006"><a xlink:title=" ">
<path fill="none" stroke="#63b8ff" d="M539.58,-113.85C558.84,-117.86 579.92,-122.25 599.07,-126.24"/>
<polygon fill="#63b8ff" stroke="#63b8ff" points="598.12,-129.62 608.62,-128.23 599.55,-122.77 598.12,-129.62"/>
</a>
</g>
</g>
<!-- Node7 -->
<g id="Node000007" class="node">
<title>Node7</title>
<g id="a_Node000007"><a xlink:href="namespacevalidation__api.html#ac19e25b4d8364b0f52152440dd5ecbda" target="_top" xlink:title=" ">
<polygon fill="white" stroke="#666666" points="736,-110.75 590.25,-110.75 590.25,-90 736,-90 736,-110.75"/>
<text text-anchor="middle" x="663.12" y="-97.25" font-family="Helvetica,sans-Serif" font-size="10.00">validation_api::isValidUuid</text>
</a>
</g>
</g>
<!-- Node4&#45;&gt;Node7 -->
<g id="edge6_Node000004_Node000007" class="edge">
<title>Node4&#45;&gt;Node7</title>
<g id="a_edge6_Node000004_Node000007"><a xlink:title=" ">
<path fill="none" stroke="#63b8ff" d="M539.58,-100.38C552.17,-100.38 565.53,-100.38 578.63,-100.38"/>
<polygon fill="#63b8ff" stroke="#63b8ff" points="578.53,-103.88 588.53,-100.38 578.53,-96.88 578.53,-103.88"/>
</a>
</g>
</g>
<!-- Node8 -->
<g id="Node000008" class="node">
<title>Node8</title>
<g id="a_Node000008"><a xlink:href="classvalidation__api_1_1ErrorBuilder.html#a014e70c2f2b4a2ee879c363b4a2174f2" target="_top" xlink:title="Set the First Msg object.">
<polygon fill="white" stroke="#666666" points="737.5,-72.12 588.75,-72.12 588.75,-38.62 737.5,-38.62 737.5,-72.12"/>
<text text-anchor="start" x="596.75" y="-58.62" font-family="Helvetica,sans-Serif" font-size="10.00">validation_api::ErrorBuilder</text>
<text text-anchor="middle" x="663.12" y="-45.88" font-family="Helvetica,sans-Serif" font-size="10.00">::setSecondMsg</text>
</a>
</g>
</g>
<!-- Node4&#45;&gt;Node8 -->
<g id="edge7_Node000004_Node000008" class="edge">
<title>Node4&#45;&gt;Node8</title>
<g id="a_edge7_Node000004_Node000008"><a xlink:title=" ">
<path fill="none" stroke="#63b8ff" d="M539.58,-84.83C552.38,-81.75 565.98,-78.48 579.29,-75.28"/>
<polygon fill="#63b8ff" stroke="#63b8ff" points="579.99,-78.71 588.9,-72.97 578.36,-71.91 579.99,-78.71"/>
</a>
</g>
</g>
<!-- Node9 -->
<g id="Node000009" class="node">
<title>Node9</title>
<g id="a_Node000009"><a xlink:href="namespacevalidation__api.html#a6dd56dcf7358b332bb906a2d27fddd0b" target="_top" xlink:title="Converts string to all lowercase.">
<polygon fill="white" stroke="#666666" points="728.12,-20.75 598.12,-20.75 598.12,0 728.12,0 728.12,-20.75"/>
<text text-anchor="middle" x="663.12" y="-7.25" font-family="Helvetica,sans-Serif" font-size="10.00">validation_api::toLower</text>
</a>
</g>
</g>
<!-- Node4&#45;&gt;Node9 -->
<g id="edge8_Node000004_Node000009" class="edge">
<title>Node4&#45;&gt;Node9</title>
<g id="a_edge8_Node000004_Node000009"><a xlink:title=" ">
<path fill="none" stroke="#63b8ff" d="M497.71,-83.21C519.92,-67.24 555.14,-43.8 588.75,-29.38 592.78,-27.64 597.01,-26.04 601.32,-24.56"/>
<polygon fill="#63b8ff" stroke="#63b8ff" points="602.19,-27.96 610.66,-21.6 600.07,-21.29 602.19,-27.96"/>
</a>
</g>
</g>
</g>
</svg>
