<?xml version="1.0" encoding="UTF-8" standalone="no"?>
<!DOCTYPE svg PUBLIC "-//W3C//DTD SVG 1.1//EN"
 "http://www.w3.org/Graphics/SVG/1.1/DTD/svg11.dtd">
<!-- Generated by graphviz version 10.0.1 (0)
 -->
<!-- Title: validation_api::ValidationServer::run Pages: 1 -->
<svg width="517pt" height="94pt"
 viewBox="0.00 0.00 517.25 93.50" xmlns="http://www.w3.org/2000/svg" xmlns:xlink="http://www.w3.org/1999/xlink">
<g id="graph0" class="graph" transform="scale(1 1) rotate(0) translate(4 89.5)">
<title>validation_api::ValidationServer::run</title>
<!-- Node1 -->
<g id="Node000001" class="node">
<title>Node1</title>
<g id="a_Node000001"><a xlink:title="Start the server.">
<polygon fill="#999999" stroke="#666666" points="139.75,-59.5 0,-59.5 0,-26 139.75,-26 139.75,-59.5"/>
<text text-anchor="start" x="8" y="-46" font-family="Helvetica,sans-Serif" font-size="10.00">validation_api::Validation</text>
<text text-anchor="middle" x="69.88" y="-33.25" font-family="Helvetica,sans-Serif" font-size="10.00">Server::run</text>
</a>
</g>
</g>
<!-- Node1&#45;&gt;Node1 -->
<g id="edge4_Node000001_Node000001" class="edge">
<title>Node1&#45;&gt;Node1</title>
<g id="a_edge4_Node000001_Node000001"><a xlink:title=" ">
<path fill="none" stroke="#63b8ff" d="M38.28,-59.91C32.91,-69.12 43.44,-77.5 69.88,-77.5 84.74,-77.5 94.58,-74.85 99.39,-70.89"/>
<polygon fill="#63b8ff" stroke="#63b8ff" points="102.76,-71.88 101.19,-61.4 95.88,-70.57 102.76,-71.88"/>
</a>
</g>
</g>
<!-- Node2 -->
<g id="Node000002" class="node">
<title>Node2</title>
<g id="a_Node000002"><a xlink:href="classvalidation__api_1_1ValidationServer.html#a7f5c5252fa7a28bef0345e6248139215" target="_top" xlink:title="Accept a connection @detail This function is called when a connection is accepted....">
<polygon fill="white" stroke="#666666" points="315.5,-59.5 175.75,-59.5 175.75,-26 315.5,-26 315.5,-59.5"/>
<text text-anchor="start" x="183.75" y="-46" font-family="Helvetica,sans-Serif" font-size="10.00">validation_api::Validation</text>
<text text-anchor="middle" x="245.62" y="-33.25" font-family="Helvetica,sans-Serif" font-size="10.00">Server::accept</text>
</a>
</g>
</g>
<!-- Node1&#45;&gt;Node2 -->
<g id="edge1_Node000001_Node000002" class="edge">
<title>Node1&#45;&gt;Node2</title>
<g id="a_edge1_Node000001_Node000002"><a xlink:title=" ">
<path fill="none" stroke="#63b8ff" d="M140.04,-42.75C147.96,-42.75 156.07,-42.75 164.12,-42.75"/>
<polygon fill="#63b8ff" stroke="#63b8ff" points="163.9,-46.25 173.9,-42.75 163.9,-39.25 163.9,-46.25"/>
</a>
</g>
</g>
<!-- Node3 -->
<g id="Node000003" class="node">
<title>Node3</title>
<g id="a_Node000003"><a xlink:href="classvalidation__api_1_1ValidationServer.html#a59c4a313effe28cc0acca7b8bb3a26e4" target="_top" xlink:title=" ">
<polygon fill="white" stroke="#666666" points="500.25,-85.5 360.5,-85.5 360.5,-52 500.25,-52 500.25,-85.5"/>
<text text-anchor="start" x="368.5" y="-72" font-family="Helvetica,sans-Serif" font-size="10.00">validation_api::Validation</text>
<text text-anchor="middle" x="430.38" y="-59.25" font-family="Helvetica,sans-Serif" font-size="10.00">Server::asyncWriter</text>
</a>
</g>
</g>
<!-- Node2&#45;&gt;Node3 -->
<g id="edge2_Node000002_Node000003" class="edge">
<title>Node2&#45;&gt;Node3</title>
<g id="a_edge2_Node000002_Node000003"><a xlink:title=" ">
<path fill="none" stroke="#63b8ff" d="M315.98,-52.62C326.69,-54.14 337.84,-55.73 348.78,-57.28"/>
<polygon fill="#63b8ff" stroke="#63b8ff" points="348.18,-60.73 358.57,-58.68 349.17,-53.8 348.18,-60.73"/>
</a>
</g>
</g>
<!-- Node4 -->
<g id="Node000004" class="node">
<title>Node4</title>
<g id="a_Node000004"><a xlink:href="classvalidation__api_1_1ConfigService.html#a654e84f4f588f7391f93210c1e08344f" target="_top" xlink:title="getConfigs method">
<polygon fill="white" stroke="#666666" points="509.25,-33.5 351.5,-33.5 351.5,0 509.25,0 509.25,-33.5"/>
<text text-anchor="start" x="359.5" y="-20" font-family="Helvetica,sans-Serif" font-size="10.00">validation_api::ConfigService</text>
<text text-anchor="middle" x="430.38" y="-7.25" font-family="Helvetica,sans-Serif" font-size="10.00">::validateConfig</text>
</a>
</g>
</g>
<!-- Node2&#45;&gt;Node4 -->
<g id="edge3_Node000002_Node000004" class="edge">
<title>Node2&#45;&gt;Node4</title>
<g id="a_edge3_Node000002_Node000004"><a xlink:title=" ">
<path fill="none" stroke="#63b8ff" d="M315.98,-32.88C323.8,-31.77 331.85,-30.62 339.89,-29.48"/>
<polygon fill="#63b8ff" stroke="#63b8ff" points="340.3,-32.96 349.71,-28.08 339.31,-26.03 340.3,-32.96"/>
</a>
</g>
</g>
</g>
</svg>
