<?xml version="1.0" encoding="UTF-8" standalone="no"?>
<!DOCTYPE svg PUBLIC "-//W3C//DTD SVG 1.1//EN"
 "http://www.w3.org/Graphics/SVG/1.1/DTD/svg11.dtd">
<!-- Generated by graphviz version 10.0.1 (0)
 -->
<!-- Title: validation_api::ValidationServer::run Pages: 1 -->
<svg width="1254pt" height="338pt"
 viewBox="0.00 0.00 1254.00 338.12" xmlns="http://www.w3.org/2000/svg" xmlns:xlink="http://www.w3.org/1999/xlink">
<g id="graph0" class="graph" transform="scale(1 1) rotate(0) translate(4 334.12)">
<title>validation_api::ValidationServer::run</title>
<!-- Node1 -->
<g id="Node000001" class="node">
<title>Node1</title>
<g id="a_Node000001"><a xlink:title="Start the server.">
<polygon fill="#999999" stroke="#666666" points="139.75,-285.12 0,-285.12 0,-251.62 139.75,-251.62 139.75,-285.12"/>
<text text-anchor="start" x="8" y="-271.62" font-family="Helvetica,sans-Serif" font-size="10.00">validation_api::Validation</text>
<text text-anchor="middle" x="69.88" y="-258.88" font-family="Helvetica,sans-Serif" font-size="10.00">Server::run</text>
</a>
</g>
</g>
<!-- Node1&#45;&gt;Node1 -->
<g id="edge19_Node000001_Node000001" class="edge">
<title>Node1&#45;&gt;Node1</title>
<g id="a_edge19_Node000001_Node000001"><a xlink:title=" ">
<path fill="none" stroke="#63b8ff" d="M38.28,-285.54C32.91,-294.74 43.44,-303.12 69.88,-303.12 84.74,-303.12 94.58,-300.47 99.39,-296.51"/>
<polygon fill="#63b8ff" stroke="#63b8ff" points="102.76,-297.5 101.19,-287.03 95.88,-296.2 102.76,-297.5"/>
</a>
</g>
</g>
<!-- Node2 -->
<g id="Node000002" class="node">
<title>Node2</title>
<g id="a_Node000002"><a xlink:href="classvalidation__api_1_1ValidationServer.html#a7f5c5252fa7a28bef0345e6248139215" target="_top" xlink:title="Accept a connection.">
<polygon fill="white" stroke="#666666" points="315.5,-285.12 175.75,-285.12 175.75,-251.62 315.5,-251.62 315.5,-285.12"/>
<text text-anchor="start" x="183.75" y="-271.62" font-family="Helvetica,sans-Serif" font-size="10.00">validation_api::Validation</text>
<text text-anchor="middle" x="245.62" y="-258.88" font-family="Helvetica,sans-Serif" font-size="10.00">Server::accept</text>
</a>
</g>
</g>
<!-- Node1&#45;&gt;Node2 -->
<g id="edge1_Node000001_Node000002" class="edge">
<title>Node1&#45;&gt;Node2</title>
<g id="a_edge1_Node000001_Node000002"><a xlink:title=" ">
<path fill="none" stroke="#63b8ff" d="M140.04,-268.38C147.96,-268.38 156.07,-268.38 164.12,-268.38"/>
<polygon fill="#63b8ff" stroke="#63b8ff" points="163.9,-271.88 173.9,-268.38 163.9,-264.88 163.9,-271.88"/>
</a>
</g>
</g>
<!-- Node3 -->
<g id="Node000003" class="node">
<title>Node3</title>
<g id="a_Node000003"><a xlink:href="classvalidation__api_1_1ValidationServer.html#a59c4a313effe28cc0acca7b8bb3a26e4" target="_top" xlink:title=" ">
<polygon fill="white" stroke="#666666" points="500.25,-330.12 360.5,-330.12 360.5,-296.62 500.25,-296.62 500.25,-330.12"/>
<text text-anchor="start" x="368.5" y="-316.62" font-family="Helvetica,sans-Serif" font-size="10.00">validation_api::Validation</text>
<text text-anchor="middle" x="430.38" y="-303.88" font-family="Helvetica,sans-Serif" font-size="10.00">Server::asyncWriter</text>
</a>
</g>
</g>
<!-- Node2&#45;&gt;Node3 -->
<g id="edge2_Node000002_Node000003" class="edge">
<title>Node2&#45;&gt;Node3</title>
<g id="a_edge2_Node000002_Node000003"><a xlink:title=" ">
<path fill="none" stroke="#63b8ff" d="M315.98,-285.45C326.8,-288.12 338.07,-290.89 349.12,-293.61"/>
<polygon fill="#63b8ff" stroke="#63b8ff" points="348.06,-296.96 358.6,-295.95 349.73,-290.16 348.06,-296.96"/>
</a>
</g>
</g>
<!-- Node4 -->
<g id="Node000004" class="node">
<title>Node4</title>
<g id="a_Node000004"><a xlink:href="namespacevalidation__api.html#a402f9de5ae5cfa713cc6681b7ea2880c" target="_top" xlink:title=" ">
<polygon fill="white" stroke="#666666" points="505.5,-278.75 355.25,-278.75 355.25,-258 505.5,-258 505.5,-278.75"/>
<text text-anchor="middle" x="430.38" y="-265.25" font-family="Helvetica,sans-Serif" font-size="10.00">validation_api::errorsToJson</text>
</a>
</g>
</g>
<!-- Node2&#45;&gt;Node4 -->
<g id="edge3_Node000002_Node000004" class="edge">
<title>Node2&#45;&gt;Node4</title>
<g id="a_edge3_Node000002_Node000004"><a xlink:title=" ">
<path fill="none" stroke="#63b8ff" d="M315.98,-268.38C325.02,-268.38 334.37,-268.38 343.65,-268.38"/>
<polygon fill="#63b8ff" stroke="#63b8ff" points="343.38,-271.88 353.38,-268.38 343.38,-264.88 343.38,-271.88"/>
</a>
</g>
</g>
<!-- Node5 -->
<g id="Node000005" class="node">
<title>Node5</title>
<g id="a_Node000005"><a xlink:href="classvalidation__api_1_1ConfigService.html#a654e84f4f588f7391f93210c1e08344f" target="_top" xlink:title="getConfigs method">
<polygon fill="white" stroke="#666666" points="509.25,-240.12 351.5,-240.12 351.5,-206.62 509.25,-206.62 509.25,-240.12"/>
<text text-anchor="start" x="359.5" y="-226.62" font-family="Helvetica,sans-Serif" font-size="10.00">validation_api::ConfigService</text>
<text text-anchor="middle" x="430.38" y="-213.88" font-family="Helvetica,sans-Serif" font-size="10.00">::validateConfig</text>
</a>
</g>
</g>
<!-- Node2&#45;&gt;Node5 -->
<g id="edge4_Node000002_Node000005" class="edge">
<title>Node2&#45;&gt;Node5</title>
<g id="a_edge4_Node000002_Node000005"><a xlink:title=" ">
<path fill="none" stroke="#63b8ff" d="M315.98,-251.3C326.54,-248.7 337.53,-245.99 348.32,-243.33"/>
<polygon fill="#63b8ff" stroke="#63b8ff" points="349.12,-246.74 358,-240.95 347.45,-239.94 349.12,-246.74"/>
</a>
</g>
</g>
<!-- Node6 -->
<g id="Node000006" class="node">
<title>Node6</title>
<g id="a_Node000006"><a xlink:href="classvalidation__api_1_1Validation.html#ac6c337d3af39943a8e603a5f21f5922a" target="_top" xlink:title=" ">
<polygon fill="white" stroke="#666666" points="706.75,-233.75 545.25,-233.75 545.25,-213 706.75,-213 706.75,-233.75"/>
<text text-anchor="middle" x="626" y="-220.25" font-family="Helvetica,sans-Serif" font-size="10.00">validation_api::Validation::run</text>
</a>
</g>
</g>
<!-- Node5&#45;&gt;Node6 -->
<g id="edge5_Node000005_Node000006" class="edge">
<title>Node5&#45;&gt;Node6</title>
<g id="a_edge5_Node000005_Node000006"><a xlink:title=" ">
<path fill="none" stroke="#63b8ff" d="M509.57,-223.38C517.49,-223.38 525.58,-223.38 533.62,-223.38"/>
<polygon fill="#63b8ff" stroke="#63b8ff" points="533.42,-226.88 543.42,-223.38 533.42,-219.88 533.42,-226.88"/>
</a>
</g>
</g>
<!-- Node7 -->
<g id="Node000007" class="node">
<title>Node7</title>
<g id="a_Node000007"><a xlink:href="classvalidation__api_1_1Validation.html#a3c8146fc89af5b8cef0c1bb6c9d473f2" target="_top" xlink:title="Traverse through the json object and validate the fields.">
<polygon fill="white" stroke="#666666" points="882.5,-240.12 742.75,-240.12 742.75,-206.62 882.5,-206.62 882.5,-240.12"/>
<text text-anchor="start" x="750.75" y="-226.62" font-family="Helvetica,sans-Serif" font-size="10.00">validation_api::Validation</text>
<text text-anchor="middle" x="812.62" y="-213.88" font-family="Helvetica,sans-Serif" font-size="10.00">::traverseAndValidate</text>
</a>
</g>
</g>
<!-- Node6&#45;&gt;Node7 -->
<g id="edge6_Node000006_Node000007" class="edge">
<title>Node6&#45;&gt;Node7</title>
<g id="a_edge6_Node000006_Node000007"><a xlink:title=" ">
<path fill="none" stroke="#63b8ff" d="M707.17,-223.38C715.09,-223.38 723.12,-223.38 731.03,-223.38"/>
<polygon fill="#63b8ff" stroke="#63b8ff" points="731.01,-226.88 741.01,-223.38 731.01,-219.88 731.01,-226.88"/>
</a>
</g>
</g>
<!-- Node7&#45;&gt;Node7 -->
<g id="edge10_Node000007_Node000007" class="edge">
<title>Node7&#45;&gt;Node7</title>
<g id="a_edge10_Node000007_Node000007"><a xlink:title=" ">
<path fill="none" stroke="#63b8ff" d="M781.03,-240.54C775.66,-249.74 786.19,-258.12 812.62,-258.12 827.49,-258.12 837.33,-255.47 842.14,-251.51"/>
<polygon fill="#63b8ff" stroke="#63b8ff" points="845.51,-252.5 843.94,-242.03 838.63,-251.2 845.51,-252.5"/>
</a>
</g>
</g>
<!-- Node8 -->
<g id="Node000008" class="node">
<title>Node8</title>
<g id="a_Node000008"><a xlink:href="classvalidation__api_1_1ErrorBuilder.html#a84327bbfe6c61e7be6966acc41ba6087" target="_top" xlink:title="Set the First Msg object.">
<polygon fill="white" stroke="#666666" points="1244.5,-310.12 1095.75,-310.12 1095.75,-276.62 1244.5,-276.62 1244.5,-310.12"/>
<text text-anchor="start" x="1103.75" y="-296.62" font-family="Helvetica,sans-Serif" font-size="10.00">validation_api::ErrorBuilder</text>
<text text-anchor="middle" x="1170.12" y="-283.88" font-family="Helvetica,sans-Serif" font-size="10.00">::build</text>
</a>
</g>
</g>
<!-- Node7&#45;&gt;Node8 -->
<g id="edge7_Node000007_Node000008" class="edge">
<title>Node7&#45;&gt;Node8</title>
<g id="a_edge7_Node000007_Node000008"><a xlink:title=" ">
<path fill="none" stroke="#63b8ff" d="M882.59,-236.95C940.19,-248.3 1022.54,-264.51 1084.19,-276.65"/>
<polygon fill="#63b8ff" stroke="#63b8ff" points="1083.48,-280.08 1093.97,-278.58 1084.83,-273.21 1083.48,-280.08"/>
</a>
</g>
</g>
<!-- Node9 -->
<g id="Node000009" class="node">
<title>Node9</title>
<g id="a_Node000009"><a xlink:href="classvalidation__api_1_1Validation.html#a2005828d7e475090ef5a895348bfb760" target="_top" xlink:title=" ">
<polygon fill="white" stroke="#666666" points="1240,-240.12 1100.25,-240.12 1100.25,-206.62 1240,-206.62 1240,-240.12"/>
<text text-anchor="start" x="1108.25" y="-226.62" font-family="Helvetica,sans-Serif" font-size="10.00">validation_api::Validation</text>
<text text-anchor="middle" x="1170.12" y="-213.88" font-family="Helvetica,sans-Serif" font-size="10.00">::findJsonField</text>
</a>
</g>
</g>
<!-- Node7&#45;&gt;Node9 -->
<g id="edge8_Node000007_Node000009" class="edge">
<title>Node7&#45;&gt;Node9</title>
<g id="a_edge8_Node000007_Node000009"><a xlink:title=" ">
<path fill="none" stroke="#63b8ff" d="M882.59,-223.38C941.61,-223.38 1026.63,-223.38 1088.73,-223.38"/>
<polygon fill="#63b8ff" stroke="#63b8ff" points="1088.54,-226.88 1098.54,-223.38 1088.54,-219.88 1088.54,-226.88"/>
</a>
</g>
</g>
<!-- Node10 -->
<g id="Node000010" class="node">
<title>Node10</title>
<g id="a_Node000010"><a xlink:href="classvalidation__api_1_1Validation.html#a1cc0802269d88c233ad3c3d1d6c3dd12" target="_top" xlink:title=" ">
<polygon fill="white" stroke="#666666" points="1058.25,-176.12 918.5,-176.12 918.5,-142.62 1058.25,-142.62 1058.25,-176.12"/>
<text text-anchor="start" x="926.5" y="-162.62" font-family="Helvetica,sans-Serif" font-size="10.00">validation_api::Validation</text>
<text text-anchor="middle" x="988.38" y="-149.88" font-family="Helvetica,sans-Serif" font-size="10.00">::validate</text>
</a>
</g>
</g>
<!-- Node7&#45;&gt;Node10 -->
<g id="edge11_Node000007_Node000010" class="edge">
<title>Node7&#45;&gt;Node10</title>
<g id="a_edge11_Node000007_Node000010"><a xlink:title=" ">
<path fill="none" stroke="#63b8ff" d="M860.19,-206.22C881.71,-198.3 907.47,-188.81 930.16,-180.45"/>
<polygon fill="#63b8ff" stroke="#63b8ff" points="931.09,-183.84 939.26,-177.1 928.67,-177.27 931.09,-183.84"/>
</a>
</g>
</g>
<!-- Node9&#45;&gt;Node9 -->
<g id="edge9_Node000009_Node000009" class="edge">
<title>Node9&#45;&gt;Node9</title>
<g id="a_edge9_Node000009_Node000009"><a xlink:title=" ">
<path fill="none" stroke="#63b8ff" d="M1137.45,-240.54C1131.9,-249.74 1142.79,-258.12 1170.12,-258.12 1185.5,-258.12 1195.67,-255.47 1200.64,-251.51"/>
<polygon fill="#63b8ff" stroke="#63b8ff" points="1204.01,-252.51 1202.51,-242.02 1197.14,-251.16 1204.01,-252.51"/>
</a>
</g>
</g>
<!-- Node10&#45;&gt;Node8 -->
<g id="edge12_Node000010_Node000008" class="edge">
<title>Node10&#45;&gt;Node8</title>
<g id="a_edge12_Node000010_Node000008"><a xlink:title=" ">
<path fill="none" stroke="#63b8ff" d="M1001.72,-176.38C1019.64,-199.93 1055.01,-242.38 1094.25,-267.38 1096.37,-268.73 1098.57,-270.02 1100.83,-271.25"/>
<polygon fill="#63b8ff" stroke="#63b8ff" points="1099.15,-274.32 1109.66,-275.61 1102.25,-268.05 1099.15,-274.32"/>
</a>
</g>
</g>
<!-- Node10&#45;&gt;Node9 -->
<g id="edge13_Node000010_Node000009" class="edge">
<title>Node10&#45;&gt;Node9</title>
<g id="a_edge13_Node000010_Node000009"><a xlink:title=" ">
<path fill="none" stroke="#63b8ff" d="M1036.31,-176.53C1054.4,-183.11 1075.27,-190.64 1094.25,-197.38 1098.9,-199.02 1103.71,-200.72 1108.56,-202.42"/>
<polygon fill="#63b8ff" stroke="#63b8ff" points="1107.13,-205.63 1117.72,-205.63 1109.44,-199.02 1107.13,-205.63"/>
</a>
</g>
</g>
<!-- Node11 -->
<g id="Node000011" class="node">
<title>Node11</title>
<g id="a_Node000011"><a xlink:href="namespacevalidation__api.html#ac19e25b4d8364b0f52152440dd5ecbda" target="_top" xlink:title=" ">
<polygon fill="white" stroke="#666666" points="1243,-149.75 1097.25,-149.75 1097.25,-129 1243,-129 1243,-149.75"/>
<text text-anchor="middle" x="1170.12" y="-136.25" font-family="Helvetica,sans-Serif" font-size="10.00">validation_api::isValidUuid</text>
</a>
</g>
</g>
<!-- Node10&#45;&gt;Node11 -->
<g id="edge14_Node000010_Node000011" class="edge">
<title>Node10&#45;&gt;Node11</title>
<g id="a_edge14_Node000010_Node000011"><a xlink:title=" ">
<path fill="none" stroke="#63b8ff" d="M1058.61,-151.67C1067.45,-150.69 1076.56,-149.67 1085.58,-148.67"/>
<polygon fill="#63b8ff" stroke="#63b8ff" points="1085.89,-152.16 1095.44,-147.57 1085.11,-145.2 1085.89,-152.16"/>
</a>
</g>
</g>
<!-- Node12 -->
<g id="Node000012" class="node">
<title>Node12</title>
<g id="a_Node000012"><a xlink:href="classvalidation__api_1_1ErrorBuilder.html#a014e70c2f2b4a2ee879c363b4a2174f2" target="_top" xlink:title="Set the First Msg object.">
<polygon fill="white" stroke="#666666" points="1244.5,-111.12 1095.75,-111.12 1095.75,-77.62 1244.5,-77.62 1244.5,-111.12"/>
<text text-anchor="start" x="1103.75" y="-97.62" font-family="Helvetica,sans-Serif" font-size="10.00">validation_api::ErrorBuilder</text>
<text text-anchor="middle" x="1170.12" y="-84.88" font-family="Helvetica,sans-Serif" font-size="10.00">::setSecondMsg</text>
</a>
</g>
</g>
<!-- Node10&#45;&gt;Node12 -->
<g id="edge15_Node000010_Node000012" class="edge">
<title>Node10&#45;&gt;Node12</title>
<g id="a_edge15_Node000010_Node000012"><a xlink:title=" ">
<path fill="none" stroke="#63b8ff" d="M1034.98,-142.17C1053.36,-135.3 1074.78,-127.37 1094.25,-120.38 1098.89,-118.71 1103.7,-117 1108.54,-115.29"/>
<polygon fill="#63b8ff" stroke="#63b8ff" points="1109.43,-118.68 1117.7,-112.07 1107.11,-112.08 1109.43,-118.68"/>
</a>
</g>
</g>
<!-- Node13 -->
<g id="Node000013" class="node">
<title>Node13</title>
<g id="a_Node000013"><a xlink:href="namespacevalidation__api.html#a6dd56dcf7358b332bb906a2d27fddd0b" target="_top" xlink:title="Converts string to all lowercase.">
<polygon fill="white" stroke="#666666" points="1235.12,-59.75 1105.12,-59.75 1105.12,-39 1235.12,-39 1235.12,-59.75"/>
<text text-anchor="middle" x="1170.12" y="-46.25" font-family="Helvetica,sans-Serif" font-size="10.00">validation_api::toLower</text>
</a>
</g>
</g>
<!-- Node10&#45;&gt;Node13 -->
<g id="edge16_Node000010_Node000013" class="edge">
<title>Node10&#45;&gt;Node13</title>
<g id="a_edge16_Node000010_Node000013"><a xlink:title=" ">
<path fill="none" stroke="#63b8ff" d="M1004.3,-142.26C1023.2,-121.66 1057.72,-87.47 1094.25,-68.38 1097.15,-66.86 1100.17,-65.46 1103.27,-64.17"/>
<polygon fill="#63b8ff" stroke="#63b8ff" points="1104.45,-67.47 1112.62,-60.71 1102.02,-60.9 1104.45,-67.47"/>
</a>
</g>
</g>
<!-- Node14 -->
<g id="Node000014" class="node">
<title>Node14</title>
<g id="a_Node000014"><a xlink:href="namespacevalidation__api.html#aae32fd7a0b5886a49454679d46ed4bd1" target="_top" xlink:title="Validates Ahv string.">
<polygon fill="white" stroke="#666666" points="1244.88,-20.75 1095.38,-20.75 1095.38,0 1244.88,0 1244.88,-20.75"/>
<text text-anchor="middle" x="1170.12" y="-7.25" font-family="Helvetica,sans-Serif" font-size="10.00">validation_api::validateAhv</text>
</a>
</g>
</g>
<!-- Node10&#45;&gt;Node14 -->
<g id="edge17_Node000010_Node000014" class="edge">
<title>Node10&#45;&gt;Node14</title>
<g id="a_edge17_Node000010_Node000014"><a xlink:title=" ">
<path fill="none" stroke="#63b8ff" d="M998.5,-142.26C1014.24,-114.43 1049.19,-59.55 1094.25,-30.38 1096.95,-28.63 1099.8,-27.03 1102.74,-25.57"/>
<polygon fill="#63b8ff" stroke="#63b8ff" points="1103.87,-28.9 1111.67,-21.73 1101.1,-22.47 1103.87,-28.9"/>
</a>
</g>
</g>
<!-- Node15 -->
<g id="Node000015" class="node">
<title>Node15</title>
<g id="a_Node000015"><a xlink:href="namespacevalidation__api.html#a0a2b975e162ced567ba3a6075684092a" target="_top" xlink:title="Validates Iban string.">
<polygon fill="white" stroke="#666666" points="1246,-188.75 1094.25,-188.75 1094.25,-168 1246,-168 1246,-188.75"/>
<text text-anchor="middle" x="1170.12" y="-175.25" font-family="Helvetica,sans-Serif" font-size="10.00">validation_api::validateIban</text>
</a>
</g>
</g>
<!-- Node10&#45;&gt;Node15 -->
<g id="edge18_Node000010_Node000015" class="edge">
<title>Node10&#45;&gt;Node15</title>
<g id="a_edge18_Node000010_Node000015"><a xlink:title=" ">
<path fill="none" stroke="#63b8ff" d="M1058.61,-166.69C1066.48,-167.53 1074.57,-168.38 1082.62,-169.23"/>
<polygon fill="#63b8ff" stroke="#63b8ff" points="1082.13,-172.7 1092.44,-170.27 1082.87,-165.74 1082.13,-172.7"/>
</a>
</g>
</g>
</g>
</svg>
