<?xml version="1.0" encoding="UTF-8" standalone="no"?>
<!DOCTYPE svg PUBLIC "-//W3C//DTD SVG 1.1//EN"
 "http://www.w3.org/Graphics/SVG/1.1/DTD/svg11.dtd">
<!-- Generated by graphviz version 10.0.1 (0)
 -->
<!-- Title: validation_api::ValidationServer::stop Pages: 1 -->
<svg width="326pt" height="80pt"
 viewBox="0.00 0.00 325.75 80.12" xmlns="http://www.w3.org/2000/svg" xmlns:xlink="http://www.w3.org/1999/xlink">
<g id="graph0" class="graph" transform="scale(1 1) rotate(0) translate(4 76.12)">
<title>validation_api::ValidationServer::stop</title>
<!-- Node1 -->
<g id="Node000001" class="node">
<title>Node1</title>
<g id="a_Node000001"><a xlink:title="Stop the server.">
<polygon fill="#999999" stroke="#666666" points="317.75,-55.5 178,-55.5 178,-22 317.75,-22 317.75,-55.5"/>
<text text-anchor="start" x="186" y="-42" font-family="Helvetica,sans-Serif" font-size="10.00">validation_api::Validation</text>
<text text-anchor="middle" x="247.88" y="-29.25" font-family="Helvetica,sans-Serif" font-size="10.00">Server::stop</text>
</a>
</g>
</g>
<!-- Node2 -->
<g id="Node000002" class="node">
<title>Node2</title>
<g id="a_Node000002"><a xlink:href="main_8cpp.html#a0ddf1224851353fc92bfbff6f499fa97" target="_top" xlink:title=" ">
<polygon fill="white" stroke="#666666" points="91.38,-72.12 50.62,-72.12 50.62,-51.38 91.38,-51.38 91.38,-72.12"/>
<text text-anchor="middle" x="71" y="-58.62" font-family="Helvetica,sans-Serif" font-size="10.00">main</text>
</a>
</g>
</g>
<!-- Node1&#45;&gt;Node2 -->
<g id="edge1_Node000001_Node000002" class="edge">
<title>Node1&#45;&gt;Node2</title>
<g id="a_edge1_Node000001_Node000002"><a xlink:title=" ">
<path fill="none" stroke="#63b8ff" d="M166.18,-49.36C138.56,-53 110.04,-56.75 91.73,-59.15"/>
<polygon fill="#63b8ff" stroke="#63b8ff" points="166.55,-52.84 176.01,-48.07 165.64,-45.9 166.55,-52.84"/>
</a>
</g>
</g>
<!-- Node3 -->
<g id="Node000003" class="node">
<title>Node3</title>
<g id="a_Node000003"><a xlink:href="classvalidation__api_1_1ValidationServer.html#af7984f7e7c6eca3e68b09a0857859520" target="_top" xlink:title=" ">
<polygon fill="white" stroke="#666666" points="142,-33.5 0,-33.5 0,0 142,0 142,-33.5"/>
<text text-anchor="start" x="8" y="-20" font-family="Helvetica,sans-Serif" font-size="10.00">validation_api::Validation</text>
<text text-anchor="middle" x="71" y="-7.25" font-family="Helvetica,sans-Serif" font-size="10.00">Server::~ValidationServer</text>
</a>
</g>
</g>
<!-- Node1&#45;&gt;Node3 -->
<g id="edge2_Node000001_Node000003" class="edge">
<title>Node1&#45;&gt;Node3</title>
<g id="a_edge2_Node000001_Node000003"><a xlink:title=" ">
<path fill="none" stroke="#63b8ff" d="M166.31,-28.62C158.34,-27.61 150.29,-26.6 142.43,-25.61"/>
<polygon fill="#63b8ff" stroke="#63b8ff" points="165.65,-32.06 176.01,-29.83 166.52,-25.11 165.65,-32.06"/>
</a>
</g>
</g>
</g>
</svg>
