<?xml version="1.0" encoding="UTF-8" standalone="no"?>
<!DOCTYPE svg PUBLIC "-//W3C//DTD SVG 1.1//EN"
 "http://www.w3.org/Graphics/SVG/1.1/DTD/svg11.dtd">
<!-- Generated by graphviz version 12.2.1 (0)
 -->
<!-- Title: validation_api::ConfigService::validateConfig Pages: 1 -->
<svg width="1303pt" height="460pt"
 viewBox="0.00 0.00 1303.00 460.00" xmlns="http://www.w3.org/2000/svg" xmlns:xlink="http://www.w3.org/1999/xlink">
<g id="graph0" class="graph" transform="scale(1 1) rotate(0) translate(4 456)">
<title>validation_api::ConfigService::validateConfig</title>
<!-- Node1 -->
<g id="Node000001" class="node">
<title>Node1</title>
<g id="a_Node000001"><a xlink:title="getConfigs method">
<polygon fill="#999999" stroke="#666666" points="142.75,-418 0,-418 0,-386 142.75,-386 142.75,-418"/>
<text text-anchor="start" x="8" y="-404.5" font-family="Helvetica,sans-Serif" font-size="10.00">validation_api::ConfigService</text>
<text text-anchor="middle" x="71.38" y="-392.5" font-family="Helvetica,sans-Serif" font-size="10.00">::validateConfig</text>
</a>
</g>
</g>
<!-- Node2 -->
<g id="Node000002" class="node">
<title>Node2</title>
<g id="a_Node000002"><a xlink:href="namespacevalidation__api.html#a5bae631d887d296c01423cf04d9714fd" target="_top" xlink:title="Error builder.">
<polygon fill="white" stroke="#666666" points="1135.75,-323 1005,-323 1005,-303 1135.75,-303 1135.75,-323"/>
<text text-anchor="middle" x="1070.38" y="-309.5" font-family="Helvetica,sans-Serif" font-size="10.00">validation_api::errorBuilder</text>
</a>
</g>
</g>
<!-- Node1&#45;&gt;Node2 -->
<g id="edge1_Node000001_Node000002" class="edge">
<title>Node1&#45;&gt;Node2</title>
<g id="a_edge1_Node000001_Node000002"><a xlink:title=" ">
<path fill="none" stroke="#63b8ff" d="M143.13,-418.3C212.71,-432.89 322.15,-452 418.12,-452 418.12,-452 418.12,-452 738.62,-452 843.3,-452 875.68,-450.43 969,-403 1003.74,-385.34 1035.75,-352.58 1053.89,-331.83"/>
<polygon fill="#63b8ff" stroke="#63b8ff" points="1056.4,-334.28 1060.22,-324.4 1051.07,-329.74 1056.4,-334.28"/>
</a>
</g>
</g>
<!-- Node4 -->
<g id="Node000004" class="node">
<title>Node4</title>
<g id="a_Node000004"><a xlink:href="classvalidation__api_1_1Validation.html#ac6c337d3af39943a8e603a5f21f5922a" target="_top" xlink:title=" ">
<polygon fill="white" stroke="#666666" points="321.5,-393 178.75,-393 178.75,-373 321.5,-373 321.5,-393"/>
<text text-anchor="middle" x="250.12" y="-379.5" font-family="Helvetica,sans-Serif" font-size="10.00">validation_api::Validation::run</text>
</a>
</g>
</g>
<!-- Node1&#45;&gt;Node4 -->
<g id="edge3_Node000001_Node000004" class="edge">
<title>Node1&#45;&gt;Node4</title>
<g id="a_edge3_Node000001_Node000004"><a xlink:title=" ">
<path fill="none" stroke="#63b8ff" d="M143.25,-394.38C151.15,-393.53 159.24,-392.66 167.26,-391.8"/>
<polygon fill="#63b8ff" stroke="#63b8ff" points="167.45,-395.3 177.02,-390.75 166.7,-388.34 167.45,-395.3"/>
</a>
</g>
</g>
<!-- Node3 -->
<g id="Node000003" class="node">
<title>Node3</title>
<g id="a_Node000003"><a xlink:href="namespacevalidation__api.html#a701271391f61b2712479b44f10656427" target="_top" xlink:title=" ">
<polygon fill="white" stroke="#666666" points="1295,-329 1171.75,-329 1171.75,-297 1295,-297 1295,-329"/>
<text text-anchor="start" x="1179.75" y="-315.5" font-family="Helvetica,sans-Serif" font-size="10.00">validation_api::ErrorType</text>
<text text-anchor="middle" x="1233.38" y="-303.5" font-family="Helvetica,sans-Serif" font-size="10.00">ToString</text>
</a>
</g>
</g>
<!-- Node2&#45;&gt;Node3 -->
<g id="edge2_Node000002_Node000003" class="edge">
<title>Node2&#45;&gt;Node3</title>
<g id="a_edge2_Node000002_Node000003"><a xlink:title=" ">
<path fill="none" stroke="#63b8ff" d="M1135.93,-313C1143.9,-313 1152.08,-313 1160.16,-313"/>
<polygon fill="#63b8ff" stroke="#63b8ff" points="1159.95,-316.5 1169.95,-313 1159.95,-309.5 1159.95,-316.5"/>
</a>
</g>
</g>
<!-- Node4&#45;&gt;Node2 -->
<g id="edge4_Node000004_Node000002" class="edge">
<title>Node4&#45;&gt;Node2</title>
<g id="a_edge4_Node000004_Node000002"><a xlink:title=" ">
<path fill="none" stroke="#63b8ff" d="M320.95,-393.5C386.88,-402.49 488.62,-414 577.38,-414 577.38,-414 577.38,-414 738.62,-414 842.95,-414 871.03,-404.86 969,-369 996.45,-358.95 1025.34,-342.07 1045.05,-329.46"/>
<polygon fill="#63b8ff" stroke="#63b8ff" points="1046.73,-332.55 1053.19,-324.15 1042.9,-326.68 1046.73,-332.55"/>
</a>
</g>
</g>
<!-- Node5 -->
<g id="Node000005" class="node">
<title>Node5</title>
<g id="a_Node000005"><a xlink:href="classvalidation__api_1_1Validation.html#a21b9aefd80be5a639d2aa5e4c8ebe945" target="_top" xlink:title=" ">
<polygon fill="white" stroke="#666666" points="480.75,-368 357.5,-368 357.5,-336 480.75,-336 480.75,-368"/>
<text text-anchor="start" x="365.5" y="-354.5" font-family="Helvetica,sans-Serif" font-size="10.00">validation_api::Validation</text>
<text text-anchor="middle" x="419.12" y="-342.5" font-family="Helvetica,sans-Serif" font-size="10.00">::fillRequestList</text>
</a>
</g>
</g>
<!-- Node4&#45;&gt;Node5 -->
<g id="edge5_Node000004_Node000005" class="edge">
<title>Node4&#45;&gt;Node5</title>
<g id="a_edge5_Node000004_Node000005"><a xlink:title=" ">
<path fill="none" stroke="#63b8ff" d="M307.66,-372.5C319.96,-370.22 333.13,-367.78 345.94,-365.4"/>
<polygon fill="#63b8ff" stroke="#63b8ff" points="346.38,-368.88 355.58,-363.61 345.11,-361.99 346.38,-368.88"/>
</a>
</g>
</g>
<!-- Node6 -->
<g id="Node000006" class="node">
<title>Node6</title>
<g id="a_Node000006"><a xlink:href="classvalidation__api_1_1Validation.html#a3c8146fc89af5b8cef0c1bb6c9d473f2" target="_top" xlink:title="Traverse through the json object and validate the fields.">
<polygon fill="white" stroke="#666666" points="480.75,-300 357.5,-300 357.5,-268 480.75,-268 480.75,-300"/>
<text text-anchor="start" x="365.5" y="-286.5" font-family="Helvetica,sans-Serif" font-size="10.00">validation_api::Validation</text>
<text text-anchor="middle" x="419.12" y="-274.5" font-family="Helvetica,sans-Serif" font-size="10.00">::traverseAndValidate</text>
</a>
</g>
</g>
<!-- Node4&#45;&gt;Node6 -->
<g id="edge7_Node000004_Node000006" class="edge">
<title>Node4&#45;&gt;Node6</title>
<g id="a_edge7_Node000004_Node000006"><a xlink:title=" ">
<path fill="none" stroke="#63b8ff" d="M268.68,-372.59C295.05,-356.96 345.52,-327.04 380.46,-306.33"/>
<polygon fill="#63b8ff" stroke="#63b8ff" points="382.2,-309.36 389.02,-301.25 378.63,-303.34 382.2,-309.36"/>
</a>
</g>
</g>
<!-- Node5&#45;&gt;Node5 -->
<g id="edge6_Node000005_Node000005" class="edge">
<title>Node5&#45;&gt;Node5</title>
<g id="a_edge6_Node000005_Node000005"><a xlink:title=" ">
<path fill="none" stroke="#63b8ff" d="M390.69,-368.44C385.39,-377.58 394.86,-386 419.12,-386 432.39,-386 441.24,-383.48 445.66,-379.71"/>
<polygon fill="#63b8ff" stroke="#63b8ff" points="449.1,-380.38 447.3,-369.94 442.2,-379.22 449.1,-380.38"/>
</a>
</g>
</g>
<!-- Node6&#45;&gt;Node2 -->
<g id="edge8_Node000006_Node000002" class="edge">
<title>Node6&#45;&gt;Node2</title>
<g id="a_edge8_Node000006_Node000002"><a xlink:title=" ">
<path fill="none" stroke="#63b8ff" d="M453.28,-300.35C471.55,-308.59 494.91,-317.9 516.75,-323 712.76,-368.77 770.39,-379.72 969,-347 991.76,-343.25 1016.31,-335.02 1035.43,-327.59"/>
<polygon fill="#63b8ff" stroke="#63b8ff" points="1036.62,-330.88 1044.6,-323.92 1034.02,-324.39 1036.62,-330.88"/>
</a>
</g>
</g>
<!-- Node6&#45;&gt;Node6 -->
<g id="edge11_Node000006_Node000006" class="edge">
<title>Node6&#45;&gt;Node6</title>
<g id="a_edge11_Node000006_Node000006"><a xlink:title=" ">
<path fill="none" stroke="#63b8ff" d="M390.69,-300.44C385.39,-309.58 394.86,-318 419.12,-318 432.39,-318 441.24,-315.48 445.66,-311.71"/>
<polygon fill="#63b8ff" stroke="#63b8ff" points="449.1,-312.38 447.3,-301.94 442.2,-311.22 449.1,-312.38"/>
</a>
</g>
</g>
<!-- Node7 -->
<g id="Node000007" class="node">
<title>Node7</title>
<g id="a_Node000007"><a xlink:href="classvalidation__api_1_1Validation.html#a49e598a8189b6bd6edf1ecdb00ae8b9d" target="_top" xlink:title=" ">
<polygon fill="white" stroke="#666666" points="963.75,-320 840.5,-320 840.5,-288 963.75,-288 963.75,-320"/>
<text text-anchor="start" x="848.5" y="-306.5" font-family="Helvetica,sans-Serif" font-size="10.00">validation_api::Validation</text>
<text text-anchor="middle" x="902.12" y="-294.5" font-family="Helvetica,sans-Serif" font-size="10.00">::findJsonField</text>
</a>
</g>
</g>
<!-- Node6&#45;&gt;Node7 -->
<g id="edge9_Node000006_Node000007" class="edge">
<title>Node6&#45;&gt;Node7</title>
<g id="a_edge9_Node000006_Node000007"><a xlink:title=" ">
<path fill="none" stroke="#63b8ff" d="M481.13,-295.86C556,-308.97 686.85,-327.23 799.25,-319 808.9,-318.29 819.03,-317.21 828.99,-315.95"/>
<polygon fill="#63b8ff" stroke="#63b8ff" points="829.19,-319.46 838.64,-314.66 828.27,-312.52 829.19,-319.46"/>
</a>
</g>
</g>
<!-- Node8 -->
<g id="Node000008" class="node">
<title>Node8</title>
<g id="a_Node000008"><a xlink:href="classvalidation__api_1_1Validation.html#a1cc0802269d88c233ad3c3d1d6c3dd12" target="_top" xlink:title=" ">
<polygon fill="white" stroke="#666666" points="640,-244 516.75,-244 516.75,-212 640,-212 640,-244"/>
<text text-anchor="start" x="524.75" y="-230.5" font-family="Helvetica,sans-Serif" font-size="10.00">validation_api::Validation</text>
<text text-anchor="middle" x="578.38" y="-218.5" font-family="Helvetica,sans-Serif" font-size="10.00">::validate</text>
</a>
</g>
</g>
<!-- Node6&#45;&gt;Node8 -->
<g id="edge12_Node000006_Node000008" class="edge">
<title>Node6&#45;&gt;Node8</title>
<g id="a_edge12_Node000006_Node000008"><a xlink:title=" ">
<path fill="none" stroke="#63b8ff" d="M466.45,-267.5C483.34,-261.49 502.62,-254.62 520.32,-248.32"/>
<polygon fill="#63b8ff" stroke="#63b8ff" points="521.43,-251.64 529.68,-244.99 519.08,-245.04 521.43,-251.64"/>
</a>
</g>
</g>
<!-- Node7&#45;&gt;Node7 -->
<g id="edge10_Node000007_Node000007" class="edge">
<title>Node7&#45;&gt;Node7</title>
<g id="a_edge10_Node000007_Node000007"><a xlink:title=" ">
<path fill="none" stroke="#63b8ff" d="M872.76,-320.44C867.28,-329.58 877.06,-338 902.12,-338 915.83,-338 924.97,-335.48 929.54,-331.71"/>
<polygon fill="#63b8ff" stroke="#63b8ff" points="932.97,-332.39 931.23,-321.93 926.08,-331.19 932.97,-332.39"/>
</a>
</g>
</g>
<!-- Node8&#45;&gt;Node2 -->
<g id="edge15_Node000008_Node000002" class="edge">
<title>Node8&#45;&gt;Node2</title>
<g id="a_edge15_Node000008_Node000002"><a xlink:title=" ">
<path fill="none" stroke="#63b8ff" d="M640.44,-232.26C717.72,-238.5 854.54,-252.4 969,-279 990.47,-283.99 1013.83,-291.76 1032.61,-298.61"/>
<polygon fill="#63b8ff" stroke="#63b8ff" points="1031.36,-301.88 1041.95,-302.09 1033.8,-295.32 1031.36,-301.88"/>
</a>
</g>
</g>
<!-- Node9 -->
<g id="Node000009" class="node">
<title>Node9</title>
<g id="a_Node000009"><a xlink:href="classvalidation__api_1_1Validation.html#a7b6995b4592eb861af42e45b095382b7" target="_top" xlink:title="Checking Uuid values.">
<polygon fill="white" stroke="#666666" points="799.25,-310 676,-310 676,-278 799.25,-278 799.25,-310"/>
<text text-anchor="start" x="684" y="-296.5" font-family="Helvetica,sans-Serif" font-size="10.00">validation_api::Validation</text>
<text text-anchor="middle" x="737.62" y="-284.5" font-family="Helvetica,sans-Serif" font-size="10.00">::checkNullOptionsVec</text>
</a>
</g>
</g>
<!-- Node8&#45;&gt;Node9 -->
<g id="edge13_Node000008_Node000009" class="edge">
<title>Node8&#45;&gt;Node9</title>
<g id="a_edge13_Node000008_Node000009"><a xlink:title=" ">
<path fill="none" stroke="#63b8ff" d="M618.65,-244.48C639.37,-253.18 664.99,-263.94 687.07,-273.2"/>
<polygon fill="#63b8ff" stroke="#63b8ff" points="685.61,-276.38 696.18,-277.03 688.32,-269.93 685.61,-276.38"/>
</a>
</g>
</g>
<!-- Node10 -->
<g id="Node000010" class="node">
<title>Node10</title>
<g id="a_Node000010"><a xlink:href="classvalidation__api_1_1Validation.html#ac59ae7a00f5fc950a3a572524127c4d3" target="_top" xlink:title="Checks if a json object is empty.">
<polygon fill="white" stroke="#666666" points="799.25,-222 676,-222 676,-190 799.25,-190 799.25,-222"/>
<text text-anchor="start" x="684" y="-208.5" font-family="Helvetica,sans-Serif" font-size="10.00">validation_api::Validation</text>
<text text-anchor="middle" x="737.62" y="-196.5" font-family="Helvetica,sans-Serif" font-size="10.00">::isNullOrEmpty</text>
</a>
</g>
</g>
<!-- Node8&#45;&gt;Node10 -->
<g id="edge16_Node000008_Node000010" class="edge">
<title>Node8&#45;&gt;Node10</title>
<g id="a_edge16_Node000008_Node000010"><a xlink:title=" ">
<path fill="none" stroke="#63b8ff" d="M640.17,-219.49C648.1,-218.38 656.29,-217.24 664.38,-216.11"/>
<polygon fill="#63b8ff" stroke="#63b8ff" points="664.81,-219.58 674.23,-214.73 663.84,-212.65 664.81,-219.58"/>
</a>
</g>
</g>
<!-- Node11 -->
<g id="Node000011" class="node">
<title>Node11</title>
<g id="a_Node000011"><a xlink:href="namespacevalidation__api.html#a6dd56dcf7358b332bb906a2d27fddd0b" target="_top" xlink:title="Converts string to all lowercase.">
<polygon fill="white" stroke="#666666" points="960,-222 844.25,-222 844.25,-202 960,-202 960,-222"/>
<text text-anchor="middle" x="902.12" y="-208.5" font-family="Helvetica,sans-Serif" font-size="10.00">validation_api::toLower</text>
</a>
</g>
</g>
<!-- Node8&#45;&gt;Node11 -->
<g id="edge17_Node000008_Node000011" class="edge">
<title>Node8&#45;&gt;Node11</title>
<g id="a_edge17_Node000008_Node000011"><a xlink:title=" ">
<path fill="none" stroke="#63b8ff" d="M604.84,-211.64C623.66,-200.56 650.37,-186.9 676,-181 729.38,-168.71 745.07,-172.94 799.25,-181 821.26,-184.27 845.1,-191.32 864.18,-197.87"/>
<polygon fill="#63b8ff" stroke="#63b8ff" points="862.79,-201.1 873.38,-201.14 865.12,-194.5 862.79,-201.1"/>
</a>
</g>
</g>
<!-- Node12 -->
<g id="Node000012" class="node">
<title>Node12</title>
<g id="a_Node000012"><a xlink:href="classvalidation__api_1_1Validation.html#a4d77d8b938e4241f346b0360f4eec61e" target="_top" xlink:title=" ">
<polygon fill="white" stroke="#666666" points="799.25,-116 676,-116 676,-84 799.25,-84 799.25,-116"/>
<text text-anchor="start" x="684" y="-102.5" font-family="Helvetica,sans-Serif" font-size="10.00">validation_api::Validation</text>
<text text-anchor="middle" x="737.62" y="-90.5" font-family="Helvetica,sans-Serif" font-size="10.00">::validateOne</text>
</a>
</g>
</g>
<!-- Node8&#45;&gt;Node12 -->
<g id="edge18_Node000008_Node000012" class="edge">
<title>Node8&#45;&gt;Node12</title>
<g id="a_edge18_Node000008_Node000012"><a xlink:title=" ">
<path fill="none" stroke="#63b8ff" d="M598.89,-211.63C618.33,-195.37 649.09,-169.79 676,-148 685.96,-139.93 696.93,-131.21 706.76,-123.43"/>
<polygon fill="#63b8ff" stroke="#63b8ff" points="708.9,-126.21 714.58,-117.27 704.56,-120.71 708.9,-126.21"/>
</a>
</g>
</g>
<!-- Node9&#45;&gt;Node7 -->
<g id="edge14_Node000009_Node000007" class="edge">
<title>Node9&#45;&gt;Node7</title>
<g id="a_edge14_Node000009_Node000007"><a xlink:title=" ">
<path fill="none" stroke="#63b8ff" d="M799.6,-297.75C809.11,-298.34 819.02,-298.95 828.76,-299.55"/>
<polygon fill="#63b8ff" stroke="#63b8ff" points="828.38,-303.03 838.57,-300.15 828.81,-296.04 828.38,-303.03"/>
</a>
</g>
</g>
<!-- Node12&#45;&gt;Node2 -->
<g id="edge19_Node000012_Node000002" class="edge">
<title>Node12&#45;&gt;Node2</title>
<g id="a_edge19_Node000012_Node000002"><a xlink:title=" ">
<path fill="none" stroke="#63b8ff" d="M763.61,-116.45C782.63,-128.41 809.8,-144.32 835.25,-155 892.24,-178.9 917.16,-159.37 969,-193 1009.05,-218.99 1041.43,-265.86 1057.78,-292.69"/>
<polygon fill="#63b8ff" stroke="#63b8ff" points="1054.73,-294.41 1062.84,-301.23 1060.75,-290.84 1054.73,-294.41"/>
</a>
</g>
</g>
<!-- Node12&#45;&gt;Node11 -->
<g id="edge21_Node000012_Node000011" class="edge">
<title>Node12&#45;&gt;Node11</title>
<g id="a_edge21_Node000012_Node000011"><a xlink:title=" ">
<path fill="none" stroke="#63b8ff" d="M761.25,-116.47C772.98,-125.36 787.31,-136.79 799.25,-148 816.69,-164.37 815.43,-174.62 835.25,-188 840.42,-191.49 846.16,-194.54 852.04,-197.2"/>
<polygon fill="#63b8ff" stroke="#63b8ff" points="850.68,-200.42 861.26,-200.97 853.33,-193.95 850.68,-200.42"/>
</a>
</g>
</g>
<!-- Node12&#45;&gt;Node12 -->
<g id="edge26_Node000012_Node000012" class="edge">
<title>Node12&#45;&gt;Node12</title>
<g id="a_edge26_Node000012_Node000012"><a xlink:title=" ">
<path fill="none" stroke="#63b8ff" d="M709.19,-116.44C703.89,-125.58 713.36,-134 737.62,-134 750.89,-134 759.74,-131.48 764.16,-127.71"/>
<polygon fill="#63b8ff" stroke="#63b8ff" points="767.6,-128.38 765.8,-117.94 760.7,-127.22 767.6,-128.38"/>
</a>
</g>
</g>
<!-- Node13 -->
<g id="Node000013" class="node">
<title>Node13</title>
<g id="a_Node000013"><a xlink:href="namespacevalidation__api.html#ac19e25b4d8364b0f52152440dd5ecbda" target="_top" xlink:title=" ">
<polygon fill="white" stroke="#666666" points="967.12,-146 837.12,-146 837.12,-126 967.12,-126 967.12,-146"/>
<text text-anchor="middle" x="902.12" y="-132.5" font-family="Helvetica,sans-Serif" font-size="10.00">validation_api::isValidUuid</text>
</a>
</g>
</g>
<!-- Node12&#45;&gt;Node13 -->
<g id="edge20_Node000012_Node000013" class="edge">
<title>Node12&#45;&gt;Node13</title>
<g id="a_edge20_Node000012_Node000013"><a xlink:title=" ">
<path fill="none" stroke="#63b8ff" d="M799.6,-113.51C813.74,-116.64 828.75,-119.97 842.78,-123.07"/>
<polygon fill="#63b8ff" stroke="#63b8ff" points="841.78,-126.44 852.3,-125.18 843.3,-119.6 841.78,-126.44"/>
</a>
</g>
</g>
<!-- Node14 -->
<g id="Node000014" class="node">
<title>Node14</title>
<g id="a_Node000014"><a xlink:href="namespacevalidation__api.html#aae32fd7a0b5886a49454679d46ed4bd1" target="_top" xlink:title="Validates Ahv string.">
<polygon fill="white" stroke="#666666" points="968.25,-108 836,-108 836,-88 968.25,-88 968.25,-108"/>
<text text-anchor="middle" x="902.12" y="-94.5" font-family="Helvetica,sans-Serif" font-size="10.00">validation_api::validateAhv</text>
</a>
</g>
</g>
<!-- Node12&#45;&gt;Node14 -->
<g id="edge22_Node000012_Node000014" class="edge">
<title>Node12&#45;&gt;Node14</title>
<g id="a_edge22_Node000012_Node000014"><a xlink:title=" ">
<path fill="none" stroke="#63b8ff" d="M799.6,-99.25C807.71,-99.15 816.11,-99.05 824.44,-98.94"/>
<polygon fill="#63b8ff" stroke="#63b8ff" points="824.26,-102.45 834.22,-98.82 824.18,-95.45 824.26,-102.45"/>
</a>
</g>
</g>
<!-- Node15 -->
<g id="Node000015" class="node">
<title>Node15</title>
<g id="a_Node000015"><a xlink:href="classvalidation__api_1_1Validation.html#adcaf3ffa9f9242d9fb2577613c6ebf44" target="_top" xlink:title="Validates len options.">
<polygon fill="white" stroke="#666666" points="963.75,-70 840.5,-70 840.5,-38 963.75,-38 963.75,-70"/>
<text text-anchor="start" x="848.5" y="-56.5" font-family="Helvetica,sans-Serif" font-size="10.00">validation_api::Validation</text>
<text text-anchor="middle" x="902.12" y="-44.5" font-family="Helvetica,sans-Serif" font-size="10.00">::validateConstraints</text>
</a>
</g>
</g>
<!-- Node12&#45;&gt;Node15 -->
<g id="edge23_Node000012_Node000015" class="edge">
<title>Node12&#45;&gt;Node15</title>
<g id="a_edge23_Node000012_Node000015"><a xlink:title=" ">
<path fill="none" stroke="#63b8ff" d="M796.83,-83.52C808.34,-80.27 820.51,-76.82 832.33,-73.47"/>
<polygon fill="#63b8ff" stroke="#63b8ff" points="832.93,-76.94 841.59,-70.85 831.02,-70.21 832.93,-76.94"/>
</a>
</g>
</g>
<!-- Node16 -->
<g id="Node000016" class="node">
<title>Node16</title>
<g id="a_Node000016"><a xlink:href="namespacevalidation__api.html#a0a2b975e162ced567ba3a6075684092a" target="_top" xlink:title="Validates Iban string.">
<polygon fill="white" stroke="#666666" points="969,-20 835.25,-20 835.25,0 969,0 969,-20"/>
<text text-anchor="middle" x="902.12" y="-6.5" font-family="Helvetica,sans-Serif" font-size="10.00">validation_api::validateIban</text>
</a>
</g>
</g>
<!-- Node12&#45;&gt;Node16 -->
<g id="edge25_Node000012_Node000016" class="edge">
<title>Node12&#45;&gt;Node16</title>
<g id="a_edge25_Node000012_Node000016"><a xlink:title=" ">
<path fill="none" stroke="#63b8ff" d="M756.59,-83.74C775.09,-67.76 805.36,-43.7 835.25,-29 838.72,-27.29 842.37,-25.71 846.1,-24.26"/>
<polygon fill="#63b8ff" stroke="#63b8ff" points="847.06,-27.63 855.3,-20.98 844.71,-21.04 847.06,-27.63"/>
</a>
</g>
</g>
<!-- Node15&#45;&gt;Node2 -->
<g id="edge24_Node000015_Node000002" class="edge">
<title>Node15&#45;&gt;Node2</title>
<g id="a_edge24_Node000015_Node000002"><a xlink:title=" ">
<path fill="none" stroke="#63b8ff" d="M957.45,-70.32C961.63,-72.82 965.56,-75.7 969,-79 1032.17,-139.54 1057.66,-246.34 1065.97,-291.68"/>
<polygon fill="#63b8ff" stroke="#63b8ff" points="1062.52,-292.23 1067.66,-301.49 1069.42,-291.04 1062.52,-292.23"/>
</a>
</g>
</g>
</g>
</svg>
