<?xml version="1.0" encoding="UTF-8" standalone="no"?>
<!DOCTYPE svg PUBLIC "-//W3C//DTD SVG 1.1//EN"
 "http://www.w3.org/Graphics/SVG/1.1/DTD/svg11.dtd">
<!-- Generated by graphviz version 10.0.1 (0)
 -->
<!-- Title: validation_api::ConfigWatcher::ConfigWatcher Pages: 1 -->
<svg width="965pt" height="250pt"
 viewBox="0.00 0.00 964.75 250.12" xmlns="http://www.w3.org/2000/svg" xmlns:xlink="http://www.w3.org/1999/xlink">
<g id="graph0" class="graph" transform="scale(1 1) rotate(0) translate(4 246.12)">
<title>validation_api::ConfigWatcher::ConfigWatcher</title>
<!-- Node1 -->
<g id="Node000001" class="node">
<title>Node1</title>
<g id="a_Node000001"><a xlink:title="Construct a new validation api::ConfigWatcher::ConfigWatcher object.">
<polygon fill="#999999" stroke="#666666" points="161.5,-152.12 0,-152.12 0,-118.62 161.5,-118.62 161.5,-152.12"/>
<text text-anchor="start" x="8" y="-138.62" font-family="Helvetica,sans-Serif" font-size="10.00">validation_api::ConfigWatcher</text>
<text text-anchor="middle" x="80.75" y="-125.88" font-family="Helvetica,sans-Serif" font-size="10.00">::ConfigWatcher</text>
</a>
</g>
</g>
<!-- Node2 -->
<g id="Node000002" class="node">
<title>Node2</title>
<g id="a_Node000002"><a xlink:href="classvalidation__api_1_1ConfigWatcher.html#a13e118f62a6b13b780f44e12d5afed78" target="_top" xlink:title="Start ConfigWatcher.">
<polygon fill="white" stroke="#666666" points="380.75,-190.75 197.5,-190.75 197.5,-170 380.75,-170 380.75,-190.75"/>
<text text-anchor="middle" x="289.12" y="-177.25" font-family="Helvetica,sans-Serif" font-size="10.00">validation_api::ConfigWatcher::run</text>
</a>
</g>
</g>
<!-- Node1&#45;&gt;Node2 -->
<g id="edge1_Node000001_Node000002" class="edge">
<title>Node1&#45;&gt;Node2</title>
<g id="a_edge1_Node000001_Node000002"><a xlink:title=" ">
<path fill="none" stroke="#63b8ff" d="M157.68,-152.59C170.94,-155.55 184.62,-158.58 197.5,-161.38 206.32,-163.29 215.64,-165.28 224.8,-167.22"/>
<polygon fill="#63b8ff" stroke="#63b8ff" points="223.87,-170.6 234.38,-169.24 225.32,-163.75 223.87,-170.6"/>
</a>
</g>
</g>
<!-- Node13 -->
<g id="Node000013" class="node">
<title>Node13</title>
<g id="a_Node000013"><a xlink:href="classvalidation__api_1_1ConfigWatcher.html#a6f8a66478001a8a0515344aac1fd0395" target="_top" xlink:title="Setup the ConfigWatcher.">
<polygon fill="white" stroke="#666666" points="369.88,-152.12 208.38,-152.12 208.38,-118.62 369.88,-118.62 369.88,-152.12"/>
<text text-anchor="start" x="216.38" y="-138.62" font-family="Helvetica,sans-Serif" font-size="10.00">validation_api::ConfigWatcher</text>
<text text-anchor="middle" x="289.12" y="-125.88" font-family="Helvetica,sans-Serif" font-size="10.00">::setup</text>
</a>
</g>
</g>
<!-- Node1&#45;&gt;Node13 -->
<g id="edge13_Node000001_Node000013" class="edge">
<title>Node1&#45;&gt;Node13</title>
<g id="a_edge13_Node000001_Node000013"><a xlink:title=" ">
<path fill="none" stroke="#63b8ff" d="M161.84,-135.38C173.22,-135.38 185,-135.38 196.59,-135.38"/>
<polygon fill="#63b8ff" stroke="#63b8ff" points="196.57,-138.88 206.57,-135.38 196.57,-131.88 196.57,-138.88"/>
</a>
</g>
</g>
<!-- Node14 -->
<g id="Node000014" class="node">
<title>Node14</title>
<g id="a_Node000014"><a xlink:href="classvalidation__api_1_1ConfigWatcher.html#ac67b7bc5802f99796c903d2fdac92648" target="_top" xlink:title="Stop the ConfigWatcher.">
<polygon fill="white" stroke="#666666" points="369.88,-100.12 208.38,-100.12 208.38,-66.62 369.88,-66.62 369.88,-100.12"/>
<text text-anchor="start" x="216.38" y="-86.62" font-family="Helvetica,sans-Serif" font-size="10.00">validation_api::ConfigWatcher</text>
<text text-anchor="middle" x="289.12" y="-73.88" font-family="Helvetica,sans-Serif" font-size="10.00">::stop</text>
</a>
</g>
</g>
<!-- Node1&#45;&gt;Node14 -->
<g id="edge15_Node000001_Node000014" class="edge">
<title>Node1&#45;&gt;Node14</title>
<g id="a_edge15_Node000001_Node000014"><a xlink:title=" ">
<path fill="none" stroke="#63b8ff" d="M150.18,-118.13C169,-113.39 189.57,-108.21 208.94,-103.33"/>
<polygon fill="#63b8ff" stroke="#63b8ff" points="209.57,-106.78 218.41,-100.94 207.86,-99.99 209.57,-106.78"/>
</a>
</g>
</g>
<!-- Node3 -->
<g id="Node000003" class="node">
<title>Node3</title>
<g id="a_Node000003"><a xlink:href="classvalidation__api_1_1ConfigService.html#a72b9695e86a85502ea559e009a878e4c" target="_top" xlink:title="getConfigs method">
<polygon fill="white" stroke="#666666" points="576.38,-242.12 418.62,-242.12 418.62,-208.62 576.38,-208.62 576.38,-242.12"/>
<text text-anchor="start" x="426.62" y="-228.62" font-family="Helvetica,sans-Serif" font-size="10.00">validation_api::ConfigService</text>
<text text-anchor="middle" x="497.5" y="-215.88" font-family="Helvetica,sans-Serif" font-size="10.00">::deleteConfig</text>
</a>
</g>
</g>
<!-- Node2&#45;&gt;Node3 -->
<g id="edge2_Node000002_Node000003" class="edge">
<title>Node2&#45;&gt;Node3</title>
<g id="a_edge2_Node000002_Node000003"><a xlink:title=" ">
<path fill="none" stroke="#63b8ff" d="M339.82,-191.21C360.01,-195.61 383.98,-200.84 407.02,-205.86"/>
<polygon fill="#63b8ff" stroke="#63b8ff" points="406.24,-209.28 416.76,-207.99 407.73,-202.44 406.24,-209.28"/>
</a>
</g>
</g>
<!-- Node4 -->
<g id="Node000004" class="node">
<title>Node4</title>
<g id="a_Node000004"><a xlink:href="classvalidation__api_1_1ConfigWatcher.html#a78820bcf2ebf9135785e207aae042e72" target="_top" xlink:title="Reads a file.">
<polygon fill="white" stroke="#666666" points="578.25,-152.12 416.75,-152.12 416.75,-118.62 578.25,-118.62 578.25,-152.12"/>
<text text-anchor="start" x="424.75" y="-138.62" font-family="Helvetica,sans-Serif" font-size="10.00">validation_api::ConfigWatcher</text>
<text text-anchor="middle" x="497.5" y="-125.88" font-family="Helvetica,sans-Serif" font-size="10.00">::read_file</text>
</a>
</g>
</g>
<!-- Node2&#45;&gt;Node4 -->
<g id="edge3_Node000002_Node000004" class="edge">
<title>Node2&#45;&gt;Node4</title>
<g id="a_edge3_Node000002_Node000004"><a xlink:title=" ">
<path fill="none" stroke="#63b8ff" d="M342.39,-169.55C354.96,-166.91 368.34,-164.07 380.75,-161.38 390.11,-159.34 399.89,-157.19 409.62,-155.03"/>
<polygon fill="#63b8ff" stroke="#63b8ff" points="410.1,-158.51 419.1,-152.92 408.57,-151.68 410.1,-158.51"/>
</a>
</g>
</g>
<!-- Node12 -->
<g id="Node000012" class="node">
<title>Node12</title>
<g id="a_Node000012"><a xlink:href="ConfigWatcher_8cpp.html#af492780bc7786abac56fa242d4fc3045" target="_top" xlink:title=" ">
<polygon fill="white" stroke="#666666" points="532.88,-190.75 462.12,-190.75 462.12,-170 532.88,-170 532.88,-190.75"/>
<text text-anchor="middle" x="497.5" y="-177.25" font-family="Helvetica,sans-Serif" font-size="10.00">semaphore</text>
</a>
</g>
</g>
<!-- Node2&#45;&gt;Node12 -->
<g id="edge12_Node000002_Node000012" class="edge">
<title>Node2&#45;&gt;Node12</title>
<g id="a_edge12_Node000002_Node000012"><a xlink:title=" ">
<path fill="none" stroke="#63b8ff" d="M381.24,-180.38C405.07,-180.38 429.77,-180.38 450.17,-180.38"/>
<polygon fill="#63b8ff" stroke="#63b8ff" points="450.12,-183.88 460.12,-180.38 450.12,-176.88 450.12,-183.88"/>
</a>
</g>
</g>
<!-- Node5 -->
<g id="Node000005" class="node">
<title>Node5</title>
<g id="a_Node000005"><a xlink:href="classvalidation__api_1_1ConfigService.html#a8fee54d1f3f5eb92a17c3ecd72780f00" target="_top" xlink:title="getConfigs method">
<polygon fill="white" stroke="#666666" points="772,-187.12 614.25,-187.12 614.25,-153.62 772,-153.62 772,-187.12"/>
<text text-anchor="start" x="622.25" y="-173.62" font-family="Helvetica,sans-Serif" font-size="10.00">validation_api::ConfigService</text>
<text text-anchor="middle" x="693.12" y="-160.88" font-family="Helvetica,sans-Serif" font-size="10.00">::createConfig</text>
</a>
</g>
</g>
<!-- Node4&#45;&gt;Node5 -->
<g id="edge4_Node000004_Node000005" class="edge">
<title>Node4&#45;&gt;Node5</title>
<g id="a_edge4_Node000004_Node000005"><a xlink:title=" ">
<path fill="none" stroke="#63b8ff" d="M578.65,-149.86C586.57,-151.3 594.65,-152.75 602.65,-154.2"/>
<polygon fill="#63b8ff" stroke="#63b8ff" points="601.95,-157.63 612.41,-155.97 603.19,-150.74 601.95,-157.63"/>
</a>
</g>
</g>
<!-- Node6 -->
<g id="Node000006" class="node">
<title>Node6</title>
<g id="a_Node000006"><a xlink:href="namespacevalidation__api.html#aa82c6b3a43b6e6b59b529c22944cadca" target="_top" xlink:title="Ensures valid Xml configuration.">
<polygon fill="white" stroke="#666666" points="758.5,-117.12 627.75,-117.12 627.75,-83.62 758.5,-83.62 758.5,-117.12"/>
<text text-anchor="start" x="635.75" y="-103.62" font-family="Helvetica,sans-Serif" font-size="10.00">validation_api::validate</text>
<text text-anchor="middle" x="693.12" y="-90.88" font-family="Helvetica,sans-Serif" font-size="10.00">XmlConfig</text>
</a>
</g>
</g>
<!-- Node4&#45;&gt;Node6 -->
<g id="edge5_Node000004_Node000006" class="edge">
<title>Node4&#45;&gt;Node6</title>
<g id="a_edge5_Node000004_Node000006"><a xlink:title=" ">
<path fill="none" stroke="#63b8ff" d="M578.65,-120.89C591.08,-118.64 603.88,-116.33 616.21,-114.1"/>
<polygon fill="#63b8ff" stroke="#63b8ff" points="616.67,-117.57 625.89,-112.35 615.42,-110.68 616.67,-117.57"/>
</a>
</g>
</g>
<!-- Node6&#45;&gt;Node6 -->
<g id="edge11_Node000006_Node000006" class="edge">
<title>Node6&#45;&gt;Node6</title>
<g id="a_edge11_Node000006_Node000006"><a xlink:title=" ">
<path fill="none" stroke="#63b8ff" d="M659.1,-117.54C653.32,-126.74 664.66,-135.12 693.12,-135.12 709.13,-135.12 719.73,-132.47 724.9,-128.51"/>
<polygon fill="#63b8ff" stroke="#63b8ff" points="728.27,-129.52 726.84,-119.02 721.41,-128.12 728.27,-129.52"/>
</a>
</g>
</g>
<!-- Node7 -->
<g id="Node000007" class="node">
<title>Node7</title>
<g id="a_Node000007"><a xlink:href="classvalidation__api_1_1ErrorBuilder.html#a84327bbfe6c61e7be6966acc41ba6087" target="_top" xlink:title=" ">
<polygon fill="white" stroke="#666666" points="956.75,-201.12 808,-201.12 808,-167.62 956.75,-167.62 956.75,-201.12"/>
<text text-anchor="start" x="816" y="-187.62" font-family="Helvetica,sans-Serif" font-size="10.00">validation_api::ErrorBuilder</text>
<text text-anchor="middle" x="882.38" y="-174.88" font-family="Helvetica,sans-Serif" font-size="10.00">::build</text>
</a>
</g>
</g>
<!-- Node6&#45;&gt;Node7 -->
<g id="edge6_Node000006_Node000007" class="edge">
<title>Node6&#45;&gt;Node7</title>
<g id="a_edge6_Node000006_Node000007"><a xlink:title=" ">
<path fill="none" stroke="#63b8ff" d="M725.02,-117.5C747.63,-129.68 779.26,-146.03 808,-158.38 811.76,-159.99 815.66,-161.59 819.61,-163.15"/>
<polygon fill="#63b8ff" stroke="#63b8ff" points="818.12,-166.33 828.71,-166.64 820.63,-159.79 818.12,-166.33"/>
</a>
</g>
</g>
<!-- Node8 -->
<g id="Node000008" class="node">
<title>Node8</title>
<g id="a_Node000008"><a xlink:href="namespacevalidation__api.html#ac497c1198e4e7f0fe71ffbdb3e6beeaa" target="_top" xlink:title="Convert string to float.">
<polygon fill="white" stroke="#666666" points="944.38,-149.75 820.38,-149.75 820.38,-129 944.38,-129 944.38,-149.75"/>
<text text-anchor="middle" x="882.38" y="-136.25" font-family="Helvetica,sans-Serif" font-size="10.00">validation_api::isFloat</text>
</a>
</g>
</g>
<!-- Node6&#45;&gt;Node8 -->
<g id="edge7_Node000006_Node000008" class="edge">
<title>Node6&#45;&gt;Node8</title>
<g id="a_edge7_Node000006_Node000008"><a xlink:title=" ">
<path fill="none" stroke="#63b8ff" d="M758.83,-113.85C778.09,-117.86 799.17,-122.25 818.32,-126.24"/>
<polygon fill="#63b8ff" stroke="#63b8ff" points="817.37,-129.62 827.87,-128.23 818.8,-122.77 817.37,-129.62"/>
</a>
</g>
</g>
<!-- Node9 -->
<g id="Node000009" class="node">
<title>Node9</title>
<g id="a_Node000009"><a xlink:href="namespacevalidation__api.html#ac19e25b4d8364b0f52152440dd5ecbda" target="_top" xlink:title=" ">
<polygon fill="white" stroke="#666666" points="955.25,-110.75 809.5,-110.75 809.5,-90 955.25,-90 955.25,-110.75"/>
<text text-anchor="middle" x="882.38" y="-97.25" font-family="Helvetica,sans-Serif" font-size="10.00">validation_api::isValidUuid</text>
</a>
</g>
</g>
<!-- Node6&#45;&gt;Node9 -->
<g id="edge8_Node000006_Node000009" class="edge">
<title>Node6&#45;&gt;Node9</title>
<g id="a_edge8_Node000006_Node000009"><a xlink:title=" ">
<path fill="none" stroke="#63b8ff" d="M758.83,-100.38C771.42,-100.38 784.78,-100.38 797.88,-100.38"/>
<polygon fill="#63b8ff" stroke="#63b8ff" points="797.78,-103.88 807.78,-100.38 797.78,-96.88 797.78,-103.88"/>
</a>
</g>
</g>
<!-- Node10 -->
<g id="Node000010" class="node">
<title>Node10</title>
<g id="a_Node000010"><a xlink:href="classvalidation__api_1_1ErrorBuilder.html#a014e70c2f2b4a2ee879c363b4a2174f2" target="_top" xlink:title="Set the First Msg object.">
<polygon fill="white" stroke="#666666" points="956.75,-72.12 808,-72.12 808,-38.62 956.75,-38.62 956.75,-72.12"/>
<text text-anchor="start" x="816" y="-58.62" font-family="Helvetica,sans-Serif" font-size="10.00">validation_api::ErrorBuilder</text>
<text text-anchor="middle" x="882.38" y="-45.88" font-family="Helvetica,sans-Serif" font-size="10.00">::setSecondMsg</text>
</a>
</g>
</g>
<!-- Node6&#45;&gt;Node10 -->
<g id="edge9_Node000006_Node000010" class="edge">
<title>Node6&#45;&gt;Node10</title>
<g id="a_edge9_Node000006_Node000010"><a xlink:title=" ">
<path fill="none" stroke="#63b8ff" d="M758.83,-84.83C771.63,-81.75 785.23,-78.48 798.54,-75.28"/>
<polygon fill="#63b8ff" stroke="#63b8ff" points="799.24,-78.71 808.15,-72.97 797.61,-71.91 799.24,-78.71"/>
</a>
</g>
</g>
<!-- Node11 -->
<g id="Node000011" class="node">
<title>Node11</title>
<g id="a_Node000011"><a xlink:href="namespacevalidation__api.html#a6dd56dcf7358b332bb906a2d27fddd0b" target="_top" xlink:title="Converts string to all lowercase.">
<polygon fill="white" stroke="#666666" points="947.38,-20.75 817.38,-20.75 817.38,0 947.38,0 947.38,-20.75"/>
<text text-anchor="middle" x="882.38" y="-7.25" font-family="Helvetica,sans-Serif" font-size="10.00">validation_api::toLower</text>
</a>
</g>
</g>
<!-- Node6&#45;&gt;Node11 -->
<g id="edge10_Node000006_Node000011" class="edge">
<title>Node6&#45;&gt;Node11</title>
<g id="a_edge10_Node000006_Node000011"><a xlink:title=" ">
<path fill="none" stroke="#63b8ff" d="M716.96,-83.21C739.17,-67.24 774.39,-43.8 808,-29.38 812.03,-27.64 816.26,-26.04 820.57,-24.56"/>
<polygon fill="#63b8ff" stroke="#63b8ff" points="821.44,-27.96 829.91,-21.6 819.32,-21.29 821.44,-27.96"/>
</a>
</g>
</g>
<!-- Node13&#45;&gt;Node4 -->
<g id="edge14_Node000013_Node000004" class="edge">
<title>Node13&#45;&gt;Node4</title>
<g id="a_edge14_Node000013_Node000004"><a xlink:title=" ">
<path fill="none" stroke="#63b8ff" d="M370.21,-135.38C381.6,-135.38 393.38,-135.38 404.96,-135.38"/>
<polygon fill="#63b8ff" stroke="#63b8ff" points="404.95,-138.88 414.95,-135.38 404.95,-131.88 404.95,-138.88"/>
</a>
</g>
</g>
</g>
</svg>
