<?xml version="1.0" encoding="UTF-8" standalone="no"?>
<!DOCTYPE svg PUBLIC "-//W3C//DTD SVG 1.1//EN"
 "http://www.w3.org/Graphics/SVG/1.1/DTD/svg11.dtd">
<!-- Generated by graphviz version 10.0.1 (0)
 -->
<!-- Title: validation_api::ValidationServer Pages: 1 -->
<svg width="302pt" height="462pt"
 viewBox="0.00 0.00 301.50 461.75" xmlns="http://www.w3.org/2000/svg" xmlns:xlink="http://www.w3.org/1999/xlink">
<g id="graph0" class="graph" transform="scale(1 1) rotate(0) translate(4 457.75)">
<title>validation_api::ValidationServer</title>
<!-- Node1 -->
<g id="Node000001" class="node">
<title>Node1</title>
<g id="a_Node000001"><a xlink:title="Class for exposing the application to the network @detail This class uses the boost::asio library to ...">
<polygon fill="#999999" stroke="none" points="206.5,-241 73.5,-241 73.5,0 206.5,0 206.5,-241"/>
<text text-anchor="start" x="78.12" y="-227.5" font-family="Helvetica,sans-Serif" font-size="10.00">validation_api::Validation</text>
<text text-anchor="start" x="124.25" y="-214.75" font-family="Helvetica,sans-Serif" font-size="10.00">Server</text>
<text text-anchor="start" x="83.62" y="-198.5" font-family="Helvetica,sans-Serif" font-size="10.00">&#45;</text>
<text text-anchor="start" x="97.5" y="-198.5" font-family="Helvetica,sans-Serif" font-size="10.00">running_</text>
<text text-anchor="start" x="83.62" y="-182.5" font-family="Helvetica,sans-Serif" font-size="10.00">&#45;</text>
<text text-anchor="start" x="97.5" y="-182.5" font-family="Helvetica,sans-Serif" font-size="10.00">io_context_</text>
<text text-anchor="start" x="83.62" y="-166.5" font-family="Helvetica,sans-Serif" font-size="10.00">&#45;</text>
<text text-anchor="start" x="97.5" y="-166.5" font-family="Helvetica,sans-Serif" font-size="10.00">acceptor_</text>
<text text-anchor="start" x="83.62" y="-150.5" font-family="Helvetica,sans-Serif" font-size="10.00">&#45;</text>
<text text-anchor="start" x="97.5" y="-150.5" font-family="Helvetica,sans-Serif" font-size="10.00">semaphore_</text>
<text text-anchor="start" x="83.62" y="-134.5" font-family="Helvetica,sans-Serif" font-size="10.00">&#45;</text>
<text text-anchor="start" x="97.5" y="-134.5" font-family="Helvetica,sans-Serif" font-size="10.00">logger_</text>
<text text-anchor="start" x="83.62" y="-118.5" font-family="Helvetica,sans-Serif" font-size="10.00">&#45;</text>
<text text-anchor="start" x="97.5" y="-118.5" font-family="Helvetica,sans-Serif" font-size="10.00">workGuard_</text>
<text text-anchor="start" x="81.38" y="-102.5" font-family="Helvetica,sans-Serif" font-size="10.00">+</text>
<text text-anchor="start" x="97.5" y="-102.5" font-family="Helvetica,sans-Serif" font-size="10.00">ValidationServer()</text>
<text text-anchor="start" x="81.38" y="-86.5" font-family="Helvetica,sans-Serif" font-size="10.00">+</text>
<text text-anchor="start" x="97.5" y="-86.5" font-family="Helvetica,sans-Serif" font-size="10.00">~ValidationServer()</text>
<text text-anchor="start" x="81.38" y="-70.5" font-family="Helvetica,sans-Serif" font-size="10.00">+</text>
<text text-anchor="start" x="97.5" y="-70.5" font-family="Helvetica,sans-Serif" font-size="10.00">setup()</text>
<text text-anchor="start" x="81.38" y="-54.5" font-family="Helvetica,sans-Serif" font-size="10.00">+</text>
<text text-anchor="start" x="97.5" y="-54.5" font-family="Helvetica,sans-Serif" font-size="10.00">run()</text>
<text text-anchor="start" x="81.38" y="-38.5" font-family="Helvetica,sans-Serif" font-size="10.00">+</text>
<text text-anchor="start" x="97.5" y="-38.5" font-family="Helvetica,sans-Serif" font-size="10.00">stop()</text>
<text text-anchor="start" x="83.62" y="-22.5" font-family="Helvetica,sans-Serif" font-size="10.00">&#45;</text>
<text text-anchor="start" x="97.5" y="-22.5" font-family="Helvetica,sans-Serif" font-size="10.00">accept()</text>
<text text-anchor="start" x="83.62" y="-6.5" font-family="Helvetica,sans-Serif" font-size="10.00">&#45;</text>
<text text-anchor="start" x="97.5" y="-6.5" font-family="Helvetica,sans-Serif" font-size="10.00">asyncWriter()</text>
<polygon fill="#666666" stroke="#666666" points="73.5,-210 73.5,-210 206.5,-210 206.5,-210 73.5,-210"/>
<polygon fill="#666666" stroke="#666666" points="73.5,-114 73.5,-114 95.5,-114 95.5,-114 73.5,-114"/>
<polygon fill="#666666" stroke="#666666" points="95.5,-114 95.5,-114 206.5,-114 206.5,-114 95.5,-114"/>
<polygon fill="none" stroke="#666666" points="73.5,0 73.5,-241 206.5,-241 206.5,0 73.5,0"/>
</a>
</g>
</g>
<!-- Node2 -->
<g id="Node000002" class="node">
<title>Node2</title>
<g id="a_Node000002"><a xlink:href="classvalidation__api_1_1IService.html" target="_top" xlink:title="Interface for all services.">
<polygon fill="white" stroke="none" points="124,-421.75 0,-421.75 0,-321.75 124,-321.75 124,-421.75"/>
<text text-anchor="start" x="5" y="-408.25" font-family="Helvetica,sans-Serif" font-size="10.00">validation_api::IService</text>
<text text-anchor="start" x="60.5" y="-392.25" font-family="Helvetica,sans-Serif" font-size="10.00"> </text>
<text text-anchor="start" x="16.38" y="-376.25" font-family="Helvetica,sans-Serif" font-size="10.00">+</text>
<text text-anchor="start" x="41" y="-376.25" font-family="Helvetica,sans-Serif" font-size="10.00">~IService()</text>
<text text-anchor="start" x="16.38" y="-360.25" font-family="Helvetica,sans-Serif" font-size="10.00">+</text>
<text text-anchor="start" x="41" y="-360.25" font-family="Helvetica,sans-Serif" font-size="10.00">run()</text>
<text text-anchor="start" x="16.38" y="-344.25" font-family="Helvetica,sans-Serif" font-size="10.00">+</text>
<text text-anchor="start" x="41" y="-344.25" font-family="Helvetica,sans-Serif" font-size="10.00">setup()</text>
<text text-anchor="start" x="16.38" y="-328.25" font-family="Helvetica,sans-Serif" font-size="10.00">+</text>
<text text-anchor="start" x="41" y="-328.25" font-family="Helvetica,sans-Serif" font-size="10.00">stop()</text>
<polygon fill="#666666" stroke="#666666" points="0,-403.75 0,-403.75 124,-403.75 124,-403.75 0,-403.75"/>
<polygon fill="#666666" stroke="#666666" points="0,-387.75 0,-387.75 124,-387.75 124,-387.75 0,-387.75"/>
<polygon fill="none" stroke="#666666" points="0,-321.75 0,-421.75 124,-421.75 124,-321.75 0,-321.75"/>
</a>
</g>
</g>
<!-- Node2&#45;&gt;Node1 -->
<g id="edge1_Node000001_Node000002" class="edge">
<title>Node2&#45;&gt;Node1</title>
<g id="a_edge1_Node000001_Node000002"><a xlink:title=" ">
<path fill="none" stroke="#63b8ff" d="M80.68,-311.06C87.31,-289.88 95.02,-265.22 102.66,-240.83"/>
<polygon fill="none" stroke="#63b8ff" points="77.42,-309.77 77.77,-320.36 84.1,-311.86 77.42,-309.77"/>
</a>
</g>
</g>
<!-- Node3 -->
<g id="Node000003" class="node">
<title>Node3</title>
<g id="a_Node000003"><a xlink:href="classvalidation__api_1_1ConfigService.html" target="_top" xlink:title="ConfigService class.">
<polygon fill="white" stroke="none" points="293.5,-453.75 142.5,-453.75 142.5,-289.75 293.5,-289.75 293.5,-453.75"/>
<text text-anchor="start" x="147.12" y="-440.25" font-family="Helvetica,sans-Serif" font-size="10.00">validation_api::ConfigService</text>
<text text-anchor="start" x="160.62" y="-424.25" font-family="Helvetica,sans-Serif" font-size="10.00">&#45;</text>
<text text-anchor="start" x="182.5" y="-424.25" font-family="Helvetica,sans-Serif" font-size="10.00">rwMutex_</text>
<text text-anchor="start" x="160.62" y="-408.25" font-family="Helvetica,sans-Serif" font-size="10.00">&#45;</text>
<text text-anchor="start" x="182.5" y="-408.25" font-family="Helvetica,sans-Serif" font-size="10.00">configs_</text>
<text text-anchor="start" x="160.62" y="-392.25" font-family="Helvetica,sans-Serif" font-size="10.00">&#45;</text>
<text text-anchor="start" x="182.5" y="-392.25" font-family="Helvetica,sans-Serif" font-size="10.00">logger_</text>
<text text-anchor="start" x="158.38" y="-376.25" font-family="Helvetica,sans-Serif" font-size="10.00">+</text>
<text text-anchor="start" x="182.5" y="-376.25" font-family="Helvetica,sans-Serif" font-size="10.00">ConfigService()</text>
<text text-anchor="start" x="158.38" y="-360.25" font-family="Helvetica,sans-Serif" font-size="10.00">+</text>
<text text-anchor="start" x="182.5" y="-360.25" font-family="Helvetica,sans-Serif" font-size="10.00">~ConfigService()</text>
<text text-anchor="start" x="158.38" y="-344.25" font-family="Helvetica,sans-Serif" font-size="10.00">+</text>
<text text-anchor="start" x="182.5" y="-344.25" font-family="Helvetica,sans-Serif" font-size="10.00">getConfig()</text>
<text text-anchor="start" x="158.38" y="-328.25" font-family="Helvetica,sans-Serif" font-size="10.00">+</text>
<text text-anchor="start" x="182.5" y="-328.25" font-family="Helvetica,sans-Serif" font-size="10.00">createConfig()</text>
<text text-anchor="start" x="158.38" y="-312.25" font-family="Helvetica,sans-Serif" font-size="10.00">+</text>
<text text-anchor="start" x="182.5" y="-312.25" font-family="Helvetica,sans-Serif" font-size="10.00">deleteConfig()</text>
<text text-anchor="start" x="158.38" y="-296.25" font-family="Helvetica,sans-Serif" font-size="10.00">+</text>
<text text-anchor="start" x="182.5" y="-296.25" font-family="Helvetica,sans-Serif" font-size="10.00">validateConfig()</text>
<polygon fill="#666666" stroke="#666666" points="142.5,-435.75 142.5,-435.75 293.5,-435.75 293.5,-435.75 142.5,-435.75"/>
<polygon fill="#666666" stroke="#666666" points="142.5,-387.75 142.5,-387.75 180.5,-387.75 180.5,-387.75 142.5,-387.75"/>
<polygon fill="#666666" stroke="#666666" points="180.5,-387.75 180.5,-387.75 293.5,-387.75 293.5,-387.75 180.5,-387.75"/>
<polygon fill="none" stroke="#666666" points="142.5,-289.75 142.5,-453.75 293.5,-453.75 293.5,-289.75 142.5,-289.75"/>
</a>
</g>
</g>
<!-- Node3&#45;&gt;Node1 -->
<g id="edge2_Node000001_Node000003" class="edge">
<title>Node3&#45;&gt;Node1</title>
<g id="a_edge2_Node000001_Node000003"><a xlink:title=" ">
<path fill="none" stroke="#63b8ff" d="M192.68,-289.83C189.01,-278.1 185.15,-265.78 181.27,-253.37"/>
<polygon fill="none" stroke="#63b8ff" points="181.23,-253.25 175.62,-248.72 177.65,-241.8 183.26,-246.33 181.23,-253.25"/>
</a>
</g>
<text text-anchor="middle" x="208.62" y="-262.25" font-family="Helvetica,sans-Serif" font-size="10.00" fill="grey"> &#45;service_</text>
</g>
</g>
</svg>
