<?xml version="1.0" encoding="UTF-8" standalone="no"?>
<!DOCTYPE svg PUBLIC "-//W3C//DTD SVG 1.1//EN"
 "http://www.w3.org/Graphics/SVG/1.1/DTD/svg11.dtd">
<!-- Generated by graphviz version 10.0.1 (0)
 -->
<!-- Title: validation_api::ValidationServer::run Pages: 1 -->
<svg width="1430pt" height="349pt"
 viewBox="0.00 0.00 1429.75 348.86" xmlns="http://www.w3.org/2000/svg" xmlns:xlink="http://www.w3.org/1999/xlink">
<g id="graph0" class="graph" transform="scale(1 1) rotate(0) translate(4 344.86)">
<title>validation_api::ValidationServer::run</title>
<!-- Node1 -->
<g id="Node000001" class="node">
<title>Node1</title>
<g id="a_Node000001"><a xlink:title="Start the server.">
<polygon fill="#999999" stroke="#666666" points="139.75,-295.86 0,-295.86 0,-262.36 139.75,-262.36 139.75,-295.86"/>
<text text-anchor="start" x="8" y="-282.36" font-family="Helvetica,sans-Serif" font-size="10.00">validation_api::Validation</text>
<text text-anchor="middle" x="69.88" y="-269.61" font-family="Helvetica,sans-Serif" font-size="10.00">Server::run</text>
</a>
</g>
</g>
<!-- Node1&#45;&gt;Node1 -->
<g id="edge23_Node000001_Node000001" class="edge">
<title>Node1&#45;&gt;Node1</title>
<g id="a_edge23_Node000001_Node000001"><a xlink:title=" ">
<path fill="none" stroke="#63b8ff" d="M38.28,-296.27C32.91,-305.47 43.44,-313.86 69.88,-313.86 84.74,-313.86 94.58,-311.2 99.39,-307.25"/>
<polygon fill="#63b8ff" stroke="#63b8ff" points="102.76,-308.24 101.19,-297.76 95.88,-306.93 102.76,-308.24"/>
</a>
</g>
</g>
<!-- Node2 -->
<g id="Node000002" class="node">
<title>Node2</title>
<g id="a_Node000002"><a xlink:href="classvalidation__api_1_1ValidationServer.html#a7f5c5252fa7a28bef0345e6248139215" target="_top" xlink:title="Accept a connection.">
<polygon fill="white" stroke="#666666" points="315.5,-295.86 175.75,-295.86 175.75,-262.36 315.5,-262.36 315.5,-295.86"/>
<text text-anchor="start" x="183.75" y="-282.36" font-family="Helvetica,sans-Serif" font-size="10.00">validation_api::Validation</text>
<text text-anchor="middle" x="245.62" y="-269.61" font-family="Helvetica,sans-Serif" font-size="10.00">Server::accept</text>
</a>
</g>
</g>
<!-- Node1&#45;&gt;Node2 -->
<g id="edge1_Node000001_Node000002" class="edge">
<title>Node1&#45;&gt;Node2</title>
<g id="a_edge1_Node000001_Node000002"><a xlink:title=" ">
<path fill="none" stroke="#63b8ff" d="M140.04,-279.11C147.96,-279.11 156.07,-279.11 164.12,-279.11"/>
<polygon fill="#63b8ff" stroke="#63b8ff" points="163.9,-282.61 173.9,-279.11 163.9,-275.61 163.9,-282.61"/>
</a>
</g>
</g>
<!-- Node3 -->
<g id="Node000003" class="node">
<title>Node3</title>
<g id="a_Node000003"><a xlink:href="classvalidation__api_1_1ValidationServer.html#a59c4a313effe28cc0acca7b8bb3a26e4" target="_top" xlink:title=" ">
<polygon fill="white" stroke="#666666" points="500.25,-340.86 360.5,-340.86 360.5,-307.36 500.25,-307.36 500.25,-340.86"/>
<text text-anchor="start" x="368.5" y="-327.36" font-family="Helvetica,sans-Serif" font-size="10.00">validation_api::Validation</text>
<text text-anchor="middle" x="430.38" y="-314.61" font-family="Helvetica,sans-Serif" font-size="10.00">Server::asyncWriter</text>
</a>
</g>
</g>
<!-- Node2&#45;&gt;Node3 -->
<g id="edge2_Node000002_Node000003" class="edge">
<title>Node2&#45;&gt;Node3</title>
<g id="a_edge2_Node000002_Node000003"><a xlink:title=" ">
<path fill="none" stroke="#63b8ff" d="M315.98,-296.18C326.8,-298.85 338.07,-301.62 349.12,-304.35"/>
<polygon fill="#63b8ff" stroke="#63b8ff" points="348.06,-307.69 358.6,-306.68 349.73,-300.89 348.06,-307.69"/>
</a>
</g>
</g>
<!-- Node4 -->
<g id="Node000004" class="node">
<title>Node4</title>
<g id="a_Node000004"><a xlink:href="namespacevalidation__api.html#ad94de3de52c70b315f5b36cce4642718" target="_top" xlink:title=" ">
<polygon fill="white" stroke="#666666" points="505.5,-289.48 355.25,-289.48 355.25,-268.73 505.5,-268.73 505.5,-289.48"/>
<text text-anchor="middle" x="430.38" y="-275.98" font-family="Helvetica,sans-Serif" font-size="10.00">validation_api::errorsToJson</text>
</a>
</g>
</g>
<!-- Node2&#45;&gt;Node4 -->
<g id="edge3_Node000002_Node000004" class="edge">
<title>Node2&#45;&gt;Node4</title>
<g id="a_edge3_Node000002_Node000004"><a xlink:title=" ">
<path fill="none" stroke="#63b8ff" d="M315.98,-279.11C325.02,-279.11 334.37,-279.11 343.65,-279.11"/>
<polygon fill="#63b8ff" stroke="#63b8ff" points="343.38,-282.61 353.38,-279.11 343.38,-275.61 343.38,-282.61"/>
</a>
</g>
</g>
<!-- Node5 -->
<g id="Node000005" class="node">
<title>Node5</title>
<g id="a_Node000005"><a xlink:href="classvalidation__api_1_1ConfigService.html#a654e84f4f588f7391f93210c1e08344f" target="_top" xlink:title="getConfigs method">
<polygon fill="white" stroke="#666666" points="509.25,-250.86 351.5,-250.86 351.5,-217.36 509.25,-217.36 509.25,-250.86"/>
<text text-anchor="start" x="359.5" y="-237.36" font-family="Helvetica,sans-Serif" font-size="10.00">validation_api::ConfigService</text>
<text text-anchor="middle" x="430.38" y="-224.61" font-family="Helvetica,sans-Serif" font-size="10.00">::validateConfig</text>
</a>
</g>
</g>
<!-- Node2&#45;&gt;Node5 -->
<g id="edge4_Node000002_Node000005" class="edge">
<title>Node2&#45;&gt;Node5</title>
<g id="a_edge4_Node000002_Node000005"><a xlink:title=" ">
<path fill="none" stroke="#63b8ff" d="M315.98,-262.03C326.54,-259.43 337.53,-256.72 348.32,-254.07"/>
<polygon fill="#63b8ff" stroke="#63b8ff" points="349.12,-257.47 358,-251.68 347.45,-250.68 349.12,-257.47"/>
</a>
</g>
</g>
<!-- Node6 -->
<g id="Node000006" class="node">
<title>Node6</title>
<g id="a_Node000006"><a xlink:href="classvalidation__api_1_1Validation.html#ac6c337d3af39943a8e603a5f21f5922a" target="_top" xlink:title=" ">
<polygon fill="white" stroke="#666666" points="706.75,-244.48 545.25,-244.48 545.25,-223.73 706.75,-223.73 706.75,-244.48"/>
<text text-anchor="middle" x="626" y="-230.98" font-family="Helvetica,sans-Serif" font-size="10.00">validation_api::Validation::run</text>
</a>
</g>
</g>
<!-- Node5&#45;&gt;Node6 -->
<g id="edge5_Node000005_Node000006" class="edge">
<title>Node5&#45;&gt;Node6</title>
<g id="a_edge5_Node000005_Node000006"><a xlink:title=" ">
<path fill="none" stroke="#63b8ff" d="M509.57,-234.11C517.49,-234.11 525.58,-234.11 533.62,-234.11"/>
<polygon fill="#63b8ff" stroke="#63b8ff" points="533.42,-237.61 543.42,-234.11 533.42,-230.61 533.42,-237.61"/>
</a>
</g>
</g>
<!-- Node7 -->
<g id="Node000007" class="node">
<title>Node7</title>
<g id="a_Node000007"><a xlink:href="classvalidation__api_1_1ErrorBuilder.html#a84327bbfe6c61e7be6966acc41ba6087" target="_top" xlink:title=" ">
<polygon fill="white" stroke="#666666" points="1244.5,-314.86 1095.75,-314.86 1095.75,-281.36 1244.5,-281.36 1244.5,-314.86"/>
<text text-anchor="start" x="1103.75" y="-301.36" font-family="Helvetica,sans-Serif" font-size="10.00">validation_api::ErrorBuilder</text>
<text text-anchor="middle" x="1170.12" y="-288.61" font-family="Helvetica,sans-Serif" font-size="10.00">::build</text>
</a>
</g>
</g>
<!-- Node6&#45;&gt;Node7 -->
<g id="edge6_Node000006_Node000007" class="edge">
<title>Node6&#45;&gt;Node7</title>
<g id="a_edge6_Node000006_Node000007"><a xlink:title=" ">
<path fill="none" stroke="#63b8ff" d="M648.99,-244.88C671.82,-255.47 708.86,-271.06 742.75,-278.11 859.23,-302.33 997.3,-304.04 1084.07,-301.94"/>
<polygon fill="#63b8ff" stroke="#63b8ff" points="1084.03,-305.45 1093.93,-301.68 1083.84,-298.45 1084.03,-305.45"/>
</a>
</g>
</g>
<!-- Node8 -->
<g id="Node000008" class="node">
<title>Node8</title>
<g id="a_Node000008"><a xlink:href="classvalidation__api_1_1Validation.html#a21b9aefd80be5a639d2aa5e4c8ebe945" target="_top" xlink:title=" ">
<polygon fill="white" stroke="#666666" points="882.5,-250.86 742.75,-250.86 742.75,-217.36 882.5,-217.36 882.5,-250.86"/>
<text text-anchor="start" x="750.75" y="-237.36" font-family="Helvetica,sans-Serif" font-size="10.00">validation_api::Validation</text>
<text text-anchor="middle" x="812.62" y="-224.61" font-family="Helvetica,sans-Serif" font-size="10.00">::fillRequestList</text>
</a>
</g>
</g>
<!-- Node6&#45;&gt;Node8 -->
<g id="edge7_Node000006_Node000008" class="edge">
<title>Node6&#45;&gt;Node8</title>
<g id="a_edge7_Node000006_Node000008"><a xlink:title=" ">
<path fill="none" stroke="#63b8ff" d="M707.17,-234.11C715.09,-234.11 723.12,-234.11 731.03,-234.11"/>
<polygon fill="#63b8ff" stroke="#63b8ff" points="731.01,-237.61 741.01,-234.11 731.01,-230.61 731.01,-237.61"/>
</a>
</g>
</g>
<!-- Node9 -->
<g id="Node000009" class="node">
<title>Node9</title>
<g id="a_Node000009"><a xlink:href="classvalidation__api_1_1Validation.html#a3c8146fc89af5b8cef0c1bb6c9d473f2" target="_top" xlink:title="Traverse through the json object and validate the fields.">
<polygon fill="white" stroke="#666666" points="882.5,-180.86 742.75,-180.86 742.75,-147.36 882.5,-147.36 882.5,-180.86"/>
<text text-anchor="start" x="750.75" y="-167.36" font-family="Helvetica,sans-Serif" font-size="10.00">validation_api::Validation</text>
<text text-anchor="middle" x="812.62" y="-154.61" font-family="Helvetica,sans-Serif" font-size="10.00">::traverseAndValidate</text>
</a>
</g>
</g>
<!-- Node6&#45;&gt;Node9 -->
<g id="edge9_Node000006_Node000009" class="edge">
<title>Node6&#45;&gt;Node9</title>
<g id="a_edge9_Node000006_Node000009"><a xlink:title=" ">
<path fill="none" stroke="#63b8ff" d="M655.44,-223.32C682.09,-213.22 722.68,-197.83 755.79,-185.27"/>
<polygon fill="#63b8ff" stroke="#63b8ff" points="756.73,-188.66 764.84,-181.84 754.25,-182.12 756.73,-188.66"/>
</a>
</g>
</g>
<!-- Node8&#45;&gt;Node8 -->
<g id="edge8_Node000008_Node000008" class="edge">
<title>Node8&#45;&gt;Node8</title>
<g id="a_edge8_Node000008_Node000008"><a xlink:title=" ">
<path fill="none" stroke="#63b8ff" d="M781.03,-251.27C775.66,-260.47 786.19,-268.86 812.62,-268.86 827.49,-268.86 837.33,-266.2 842.14,-262.25"/>
<polygon fill="#63b8ff" stroke="#63b8ff" points="845.51,-263.24 843.94,-252.76 838.63,-261.93 845.51,-263.24"/>
</a>
</g>
</g>
<!-- Node9&#45;&gt;Node7 -->
<g id="edge10_Node000009_Node000007" class="edge">
<title>Node9&#45;&gt;Node7</title>
<g id="a_edge10_Node000009_Node000007"><a xlink:title=" ">
<path fill="none" stroke="#63b8ff" d="M856.72,-181.2C911.67,-202.88 1009.68,-241.16 1094.25,-272.11 1098.88,-273.8 1103.68,-275.53 1108.52,-277.25"/>
<polygon fill="#63b8ff" stroke="#63b8ff" points="1107.08,-280.46 1117.67,-280.49 1109.41,-273.86 1107.08,-280.46"/>
</a>
</g>
</g>
<!-- Node9&#45;&gt;Node9 -->
<g id="edge13_Node000009_Node000009" class="edge">
<title>Node9&#45;&gt;Node9</title>
<g id="a_edge13_Node000009_Node000009"><a xlink:title=" ">
<path fill="none" stroke="#63b8ff" d="M781.03,-181.27C775.66,-190.47 786.19,-198.86 812.62,-198.86 827.49,-198.86 837.33,-196.2 842.14,-192.25"/>
<polygon fill="#63b8ff" stroke="#63b8ff" points="845.51,-193.24 843.94,-182.76 838.63,-191.93 845.51,-193.24"/>
</a>
</g>
</g>
<!-- Node10 -->
<g id="Node000010" class="node">
<title>Node10</title>
<g id="a_Node000010"><a xlink:href="classvalidation__api_1_1Validation.html#a1931562aaf3ed21afc7d5f0fade04aa0" target="_top" xlink:title=" ">
<polygon fill="white" stroke="#666666" points="1421.75,-118.86 1282,-118.86 1282,-85.36 1421.75,-85.36 1421.75,-118.86"/>
<text text-anchor="start" x="1290" y="-105.36" font-family="Helvetica,sans-Serif" font-size="10.00">validation_api::Validation</text>
<text text-anchor="middle" x="1351.88" y="-92.61" font-family="Helvetica,sans-Serif" font-size="10.00">::findJsonField</text>
</a>
</g>
</g>
<!-- Node9&#45;&gt;Node10 -->
<g id="edge11_Node000009_Node000010" class="edge">
<title>Node9&#45;&gt;Node10</title>
<g id="a_edge11_Node000009_Node000010"><a xlink:title=" ">
<path fill="none" stroke="#63b8ff" d="M836.41,-146.93C882.24,-113.57 990.14,-41.03 1094.25,-15.11 1159.7,1.19 1182.56,7.78 1246,-15.11 1279.69,-27.26 1310.2,-55.46 1329.52,-76.48"/>
<polygon fill="#63b8ff" stroke="#63b8ff" points="1326.82,-78.71 1336.08,-83.85 1332.05,-74.06 1326.82,-78.71"/>
</a>
</g>
</g>
<!-- Node11 -->
<g id="Node000011" class="node">
<title>Node11</title>
<g id="a_Node000011"><a xlink:href="classvalidation__api_1_1Validation.html#a1cc0802269d88c233ad3c3d1d6c3dd12" target="_top" xlink:title=" ">
<polygon fill="white" stroke="#666666" points="1058.25,-179.86 918.5,-179.86 918.5,-146.36 1058.25,-146.36 1058.25,-179.86"/>
<text text-anchor="start" x="926.5" y="-166.36" font-family="Helvetica,sans-Serif" font-size="10.00">validation_api::Validation</text>
<text text-anchor="middle" x="988.38" y="-153.61" font-family="Helvetica,sans-Serif" font-size="10.00">::validate</text>
</a>
</g>
</g>
<!-- Node9&#45;&gt;Node11 -->
<g id="edge14_Node000009_Node000011" class="edge">
<title>Node9&#45;&gt;Node11</title>
<g id="a_edge14_Node000009_Node000011"><a xlink:title=" ">
<path fill="none" stroke="#63b8ff" d="M882.79,-163.71C890.71,-163.66 898.82,-163.62 906.87,-163.57"/>
<polygon fill="#63b8ff" stroke="#63b8ff" points="906.67,-167.07 916.65,-163.51 906.63,-160.07 906.67,-167.07"/>
</a>
</g>
</g>
<!-- Node10&#45;&gt;Node10 -->
<g id="edge12_Node000010_Node000010" class="edge">
<title>Node10&#45;&gt;Node10</title>
<g id="a_edge12_Node000010_Node000010"><a xlink:title=" ">
<path fill="none" stroke="#63b8ff" d="M1319.2,-119.27C1313.65,-128.47 1324.54,-136.86 1351.88,-136.86 1367.25,-136.86 1377.42,-134.2 1382.39,-130.25"/>
<polygon fill="#63b8ff" stroke="#63b8ff" points="1385.76,-131.24 1384.26,-120.76 1378.89,-129.89 1385.76,-131.24"/>
</a>
</g>
</g>
<!-- Node11&#45;&gt;Node7 -->
<g id="edge15_Node000011_Node000007" class="edge">
<title>Node11&#45;&gt;Node7</title>
<g id="a_edge15_Node000011_Node000007"><a xlink:title=" ">
<path fill="none" stroke="#63b8ff" d="M1013.09,-180.13C1027.06,-190.77 1044.61,-205.24 1058.25,-220.11 1077.26,-240.82 1071.87,-255.1 1094.25,-272.11 1095.76,-273.25 1097.32,-274.35 1098.92,-275.4"/>
<polygon fill="#63b8ff" stroke="#63b8ff" points="1096.8,-278.21 1107.21,-280.17 1100.29,-272.15 1096.8,-278.21"/>
</a>
</g>
</g>
<!-- Node12 -->
<g id="Node000012" class="node">
<title>Node12</title>
<g id="a_Node000012"><a xlink:href="classvalidation__api_1_1Validation.html#a7b6995b4592eb861af42e45b095382b7" target="_top" xlink:title="Checking Uuid values.">
<polygon fill="white" stroke="#666666" points="1240,-224.86 1100.25,-224.86 1100.25,-191.36 1240,-191.36 1240,-224.86"/>
<text text-anchor="start" x="1108.25" y="-211.36" font-family="Helvetica,sans-Serif" font-size="10.00">validation_api::Validation</text>
<text text-anchor="middle" x="1170.12" y="-198.61" font-family="Helvetica,sans-Serif" font-size="10.00">::checkNullOptionsVec</text>
</a>
</g>
</g>
<!-- Node11&#45;&gt;Node12 -->
<g id="edge16_Node000011_Node000012" class="edge">
<title>Node11&#45;&gt;Node12</title>
<g id="a_edge16_Node000011_Node000012"><a xlink:title=" ">
<path fill="none" stroke="#63b8ff" d="M1058.1,-180.31C1068.4,-182.89 1079.09,-185.57 1089.59,-188.2"/>
<polygon fill="#63b8ff" stroke="#63b8ff" points="1088.42,-191.51 1098.97,-190.54 1090.12,-184.72 1088.42,-191.51"/>
</a>
</g>
</g>
<!-- Node13 -->
<g id="Node000013" class="node">
<title>Node13</title>
<g id="a_Node000013"><a xlink:href="namespacevalidation__api.html#ac19e25b4d8364b0f52152440dd5ecbda" target="_top" xlink:title=" ">
<polygon fill="white" stroke="#666666" points="1243,-173.48 1097.25,-173.48 1097.25,-152.73 1243,-152.73 1243,-173.48"/>
<text text-anchor="middle" x="1170.12" y="-159.98" font-family="Helvetica,sans-Serif" font-size="10.00">validation_api::isValidUuid</text>
</a>
</g>
</g>
<!-- Node11&#45;&gt;Node13 -->
<g id="edge18_Node000011_Node000013" class="edge">
<title>Node11&#45;&gt;Node13</title>
<g id="a_edge18_Node000011_Node000013"><a xlink:title=" ">
<path fill="none" stroke="#63b8ff" d="M1058.61,-163.11C1067.45,-163.11 1076.56,-163.11 1085.58,-163.11"/>
<polygon fill="#63b8ff" stroke="#63b8ff" points="1085.43,-166.61 1095.43,-163.11 1085.43,-159.61 1085.43,-166.61"/>
</a>
</g>
</g>
<!-- Node14 -->
<g id="Node000014" class="node">
<title>Node14</title>
<g id="a_Node000014"><a xlink:href="classvalidation__api_1_1ErrorBuilder.html#a014e70c2f2b4a2ee879c363b4a2174f2" target="_top" xlink:title="Set the First Msg object.">
<polygon fill="white" stroke="#666666" points="1244.5,-134.86 1095.75,-134.86 1095.75,-101.36 1244.5,-101.36 1244.5,-134.86"/>
<text text-anchor="start" x="1103.75" y="-121.36" font-family="Helvetica,sans-Serif" font-size="10.00">validation_api::ErrorBuilder</text>
<text text-anchor="middle" x="1170.12" y="-108.61" font-family="Helvetica,sans-Serif" font-size="10.00">::setSecondMsg</text>
</a>
</g>
</g>
<!-- Node11&#45;&gt;Node14 -->
<g id="edge19_Node000011_Node000014" class="edge">
<title>Node11&#45;&gt;Node14</title>
<g id="a_edge19_Node000011_Node000014"><a xlink:title=" ">
<path fill="none" stroke="#63b8ff" d="M1058.1,-145.9C1068.4,-143.32 1079.09,-140.65 1089.59,-138.02"/>
<polygon fill="#63b8ff" stroke="#63b8ff" points="1090.12,-141.49 1098.97,-135.67 1088.42,-134.7 1090.12,-141.49"/>
</a>
</g>
</g>
<!-- Node15 -->
<g id="Node000015" class="node">
<title>Node15</title>
<g id="a_Node000015"><a xlink:href="namespacevalidation__api.html#a6dd56dcf7358b332bb906a2d27fddd0b" target="_top" xlink:title="Converts string to all lowercase.">
<polygon fill="white" stroke="#666666" points="1235.12,-83.48 1105.12,-83.48 1105.12,-62.73 1235.12,-62.73 1235.12,-83.48"/>
<text text-anchor="middle" x="1170.12" y="-69.98" font-family="Helvetica,sans-Serif" font-size="10.00">validation_api::toLower</text>
</a>
</g>
</g>
<!-- Node11&#45;&gt;Node15 -->
<g id="edge20_Node000011_Node000015" class="edge">
<title>Node11&#45;&gt;Node15</title>
<g id="a_edge20_Node000011_Node000015"><a xlink:title=" ">
<path fill="none" stroke="#63b8ff" d="M1009.78,-146.11C1030.03,-130.04 1062.55,-106.33 1094.25,-92.11 1098.02,-90.41 1101.97,-88.86 1105.99,-87.42"/>
<polygon fill="#63b8ff" stroke="#63b8ff" points="1106.91,-90.8 1115.34,-84.38 1104.74,-84.15 1106.91,-90.8"/>
</a>
</g>
</g>
<!-- Node16 -->
<g id="Node000016" class="node">
<title>Node16</title>
<g id="a_Node000016"><a xlink:href="namespacevalidation__api.html#aae32fd7a0b5886a49454679d46ed4bd1" target="_top" xlink:title="Validates Ahv string.">
<polygon fill="white" stroke="#666666" points="1244.88,-44.48 1095.38,-44.48 1095.38,-23.73 1244.88,-23.73 1244.88,-44.48"/>
<text text-anchor="middle" x="1170.12" y="-30.98" font-family="Helvetica,sans-Serif" font-size="10.00">validation_api::validateAhv</text>
</a>
</g>
</g>
<!-- Node11&#45;&gt;Node16 -->
<g id="edge21_Node000011_Node000016" class="edge">
<title>Node11&#45;&gt;Node16</title>
<g id="a_edge21_Node000011_Node000016"><a xlink:title=" ">
<path fill="none" stroke="#63b8ff" d="M1001.14,-145.94C1018.62,-121.76 1053.76,-77.99 1094.25,-54.11 1097.38,-52.26 1100.68,-50.58 1104.08,-49.06"/>
<polygon fill="#63b8ff" stroke="#63b8ff" points="1105.11,-52.41 1113.12,-45.48 1102.54,-45.91 1105.11,-52.41"/>
</a>
</g>
</g>
<!-- Node17 -->
<g id="Node000017" class="node">
<title>Node17</title>
<g id="a_Node000017"><a xlink:href="namespacevalidation__api.html#a0a2b975e162ced567ba3a6075684092a" target="_top" xlink:title="Validates Iban string.">
<polygon fill="white" stroke="#666666" points="1246,-263.48 1094.25,-263.48 1094.25,-242.73 1246,-242.73 1246,-263.48"/>
<text text-anchor="middle" x="1170.12" y="-249.98" font-family="Helvetica,sans-Serif" font-size="10.00">validation_api::validateIban</text>
</a>
</g>
</g>
<!-- Node11&#45;&gt;Node17 -->
<g id="edge22_Node000011_Node000017" class="edge">
<title>Node11&#45;&gt;Node17</title>
<g id="a_edge22_Node000011_Node000017"><a xlink:title=" ">
<path fill="none" stroke="#63b8ff" d="M1009.78,-180.1C1030.03,-196.17 1062.55,-219.88 1094.25,-234.11 1098.02,-235.8 1101.97,-237.36 1105.99,-238.79"/>
<polygon fill="#63b8ff" stroke="#63b8ff" points="1104.74,-242.07 1115.34,-241.84 1106.91,-235.41 1104.74,-242.07"/>
</a>
</g>
</g>
<!-- Node12&#45;&gt;Node10 -->
<g id="edge17_Node000012_Node000010" class="edge">
<title>Node12&#45;&gt;Node10</title>
<g id="a_edge17_Node000012_Node000010"><a xlink:title=" ">
<path fill="none" stroke="#63b8ff" d="M1227.17,-190.86C1233.65,-188.22 1240.06,-185.3 1246,-182.11 1274.52,-166.79 1303.52,-144 1323.77,-126.65"/>
<polygon fill="#63b8ff" stroke="#63b8ff" points="1326.04,-129.32 1331.29,-120.11 1321.45,-124.04 1326.04,-129.32"/>
</a>
</g>
</g>
</g>
</svg>
