<?xml version="1.0" encoding="UTF-8" standalone="no"?>
<!DOCTYPE svg PUBLIC "-//W3C//DTD SVG 1.1//EN"
 "http://www.w3.org/Graphics/SVG/1.1/DTD/svg11.dtd">
<!-- Generated by graphviz version 10.0.1 (0)
 -->
<!-- Title: validation_api::ValidationServer::accept Pages: 1 -->
<svg width="1263pt" height="525pt"
 viewBox="0.00 0.00 1263.00 524.50" xmlns="http://www.w3.org/2000/svg" xmlns:xlink="http://www.w3.org/1999/xlink">
<g id="graph0" class="graph" transform="scale(1 1) rotate(0) translate(4 520.5)">
<title>validation_api::ValidationServer::accept</title>
<!-- Node1 -->
<g id="Node000001" class="node">
<title>Node1</title>
<g id="a_Node000001"><a xlink:title="Accept a connection.">
<polygon fill="#999999" stroke="#666666" points="139.75,-122.5 0,-122.5 0,-89 139.75,-89 139.75,-122.5"/>
<text text-anchor="start" x="8" y="-109" font-family="Helvetica,sans-Serif" font-size="10.00">validation_api::Validation</text>
<text text-anchor="middle" x="69.88" y="-96.25" font-family="Helvetica,sans-Serif" font-size="10.00">Server::accept</text>
</a>
</g>
</g>
<!-- Node2 -->
<g id="Node000002" class="node">
<title>Node2</title>
<g id="a_Node000002"><a xlink:href="classvalidation__api_1_1ValidationServer.html#a59c4a313effe28cc0acca7b8bb3a26e4" target="_top" xlink:title=" ">
<polygon fill="white" stroke="#666666" points="324.5,-148.5 184.75,-148.5 184.75,-115 324.5,-115 324.5,-148.5"/>
<text text-anchor="start" x="192.75" y="-135" font-family="Helvetica,sans-Serif" font-size="10.00">validation_api::Validation</text>
<text text-anchor="middle" x="254.62" y="-122.25" font-family="Helvetica,sans-Serif" font-size="10.00">Server::asyncWriter</text>
</a>
</g>
</g>
<!-- Node1&#45;&gt;Node2 -->
<g id="edge1_Node000001_Node000002" class="edge">
<title>Node1&#45;&gt;Node2</title>
<g id="a_edge1_Node000001_Node000002"><a xlink:title=" ">
<path fill="none" stroke="#63b8ff" d="M140.23,-115.62C150.94,-117.14 162.09,-118.73 173.03,-120.28"/>
<polygon fill="#63b8ff" stroke="#63b8ff" points="172.43,-123.73 182.82,-121.68 173.42,-116.8 172.43,-123.73"/>
</a>
</g>
</g>
<!-- Node3 -->
<g id="Node000003" class="node">
<title>Node3</title>
<g id="a_Node000003"><a xlink:href="classvalidation__api_1_1ConfigService.html#a654e84f4f588f7391f93210c1e08344f" target="_top" xlink:title="getConfigs method">
<polygon fill="white" stroke="#666666" points="333.5,-96.5 175.75,-96.5 175.75,-63 333.5,-63 333.5,-96.5"/>
<text text-anchor="start" x="183.75" y="-83" font-family="Helvetica,sans-Serif" font-size="10.00">validation_api::ConfigService</text>
<text text-anchor="middle" x="254.62" y="-70.25" font-family="Helvetica,sans-Serif" font-size="10.00">::validateConfig</text>
</a>
</g>
</g>
<!-- Node1&#45;&gt;Node3 -->
<g id="edge2_Node000001_Node000003" class="edge">
<title>Node1&#45;&gt;Node3</title>
<g id="a_edge2_Node000001_Node000003"><a xlink:title=" ">
<path fill="none" stroke="#63b8ff" d="M140.23,-95.88C148.05,-94.77 156.1,-93.62 164.14,-92.48"/>
<polygon fill="#63b8ff" stroke="#63b8ff" points="164.55,-95.96 173.96,-91.08 163.56,-89.03 164.55,-95.96"/>
</a>
</g>
</g>
<!-- Node4 -->
<g id="Node000004" class="node">
<title>Node4</title>
<g id="a_Node000004"><a xlink:href="classvalidation__api_1_1Validation.html#ac6c337d3af39943a8e603a5f21f5922a" target="_top" xlink:title=" ">
<polygon fill="white" stroke="#666666" points="531,-90.12 369.5,-90.12 369.5,-69.38 531,-69.38 531,-90.12"/>
<text text-anchor="middle" x="450.25" y="-76.62" font-family="Helvetica,sans-Serif" font-size="10.00">validation_api::Validation::run</text>
</a>
</g>
</g>
<!-- Node3&#45;&gt;Node4 -->
<g id="edge3_Node000003_Node000004" class="edge">
<title>Node3&#45;&gt;Node4</title>
<g id="a_edge3_Node000003_Node000004"><a xlink:title=" ">
<path fill="none" stroke="#63b8ff" d="M333.82,-79.75C341.74,-79.75 349.83,-79.75 357.87,-79.75"/>
<polygon fill="#63b8ff" stroke="#63b8ff" points="357.67,-83.25 367.67,-79.75 357.67,-76.25 357.67,-83.25"/>
</a>
</g>
</g>
<!-- Node5 -->
<g id="Node000005" class="node">
<title>Node5</title>
<g id="a_Node000005"><a xlink:href="namespacevalidation__api.html#ac3e8e6ef097973f55220fc4fdeb08dc2" target="_top" xlink:title="Error builder.">
<polygon fill="white" stroke="#666666" points="1255,-151.12 1106.25,-151.12 1106.25,-130.38 1255,-130.38 1255,-151.12"/>
<text text-anchor="middle" x="1180.62" y="-137.62" font-family="Helvetica,sans-Serif" font-size="10.00">validation_api::errorBuilder</text>
</a>
</g>
</g>
<!-- Node4&#45;&gt;Node5 -->
<g id="edge4_Node000004_Node000005" class="edge">
<title>Node4&#45;&gt;Node5</title>
<g id="a_edge4_Node000004_Node000005"><a xlink:title=" ">
<path fill="none" stroke="#63b8ff" d="M531.42,-85.72C649.47,-94.63 876.98,-112.23 1070.25,-129.75 1078.16,-130.47 1086.38,-131.24 1094.61,-132.04"/>
<polygon fill="#63b8ff" stroke="#63b8ff" points="1094.01,-135.49 1104.3,-132.98 1094.69,-128.53 1094.01,-135.49"/>
</a>
</g>
</g>
<!-- Node6 -->
<g id="Node000006" class="node">
<title>Node6</title>
<g id="a_Node000006"><a xlink:href="classvalidation__api_1_1Validation.html#a21b9aefd80be5a639d2aa5e4c8ebe945" target="_top" xlink:title=" ">
<polygon fill="white" stroke="#666666" points="706.75,-33.5 567,-33.5 567,0 706.75,0 706.75,-33.5"/>
<text text-anchor="start" x="575" y="-20" font-family="Helvetica,sans-Serif" font-size="10.00">validation_api::Validation</text>
<text text-anchor="middle" x="636.88" y="-7.25" font-family="Helvetica,sans-Serif" font-size="10.00">::fillRequestList</text>
</a>
</g>
</g>
<!-- Node4&#45;&gt;Node6 -->
<g id="edge5_Node000004_Node000006" class="edge">
<title>Node4&#45;&gt;Node6</title>
<g id="a_edge5_Node000004_Node000006"><a xlink:title=" ">
<path fill="none" stroke="#63b8ff" d="M482.99,-68.92C508.17,-60.33 544.11,-48.06 574.82,-37.59"/>
<polygon fill="#63b8ff" stroke="#63b8ff" points="575.67,-40.99 584,-34.45 573.41,-34.37 575.67,-40.99"/>
</a>
</g>
</g>
<!-- Node7 -->
<g id="Node000007" class="node">
<title>Node7</title>
<g id="a_Node000007"><a xlink:href="classvalidation__api_1_1Validation.html#a3c8146fc89af5b8cef0c1bb6c9d473f2" target="_top" xlink:title="Traverse through the json object and validate the fields.">
<polygon fill="white" stroke="#666666" points="706.75,-221.5 567,-221.5 567,-188 706.75,-188 706.75,-221.5"/>
<text text-anchor="start" x="575" y="-208" font-family="Helvetica,sans-Serif" font-size="10.00">validation_api::Validation</text>
<text text-anchor="middle" x="636.88" y="-195.25" font-family="Helvetica,sans-Serif" font-size="10.00">::traverseAndValidate</text>
</a>
</g>
</g>
<!-- Node4&#45;&gt;Node7 -->
<g id="edge7_Node000004_Node000007" class="edge">
<title>Node4&#45;&gt;Node7</title>
<g id="a_edge7_Node000004_Node000007"><a xlink:title=" ">
<path fill="none" stroke="#63b8ff" d="M467.31,-90.62C496.97,-110.71 560.97,-154.04 601.02,-181.15"/>
<polygon fill="#63b8ff" stroke="#63b8ff" points="598.91,-183.95 609.15,-186.66 602.83,-178.15 598.91,-183.95"/>
</a>
</g>
</g>
<!-- Node6&#45;&gt;Node6 -->
<g id="edge6_Node000006_Node000006" class="edge">
<title>Node6&#45;&gt;Node6</title>
<g id="a_edge6_Node000006_Node000006"><a xlink:title=" ">
<path fill="none" stroke="#63b8ff" d="M605.28,-33.91C599.91,-43.12 610.44,-51.5 636.88,-51.5 651.74,-51.5 661.58,-48.85 666.39,-44.89"/>
<polygon fill="#63b8ff" stroke="#63b8ff" points="669.76,-45.88 668.19,-35.4 662.88,-44.57 669.76,-45.88"/>
</a>
</g>
</g>
<!-- Node7&#45;&gt;Node5 -->
<g id="edge8_Node000007_Node000005" class="edge">
<title>Node7&#45;&gt;Node5</title>
<g id="a_edge8_Node000007_Node000005"><a xlink:title=" ">
<path fill="none" stroke="#63b8ff" d="M692.02,-187.56C748.03,-170.75 838.36,-146.32 918.5,-136.75 985.47,-128.75 1002.82,-135.52 1070.25,-136.75 1078.06,-136.89 1086.19,-137.09 1094.32,-137.33"/>
<polygon fill="#63b8ff" stroke="#63b8ff" points="1094.18,-140.83 1104.29,-137.64 1094.4,-133.83 1094.18,-140.83"/>
</a>
</g>
</g>
<!-- Node7&#45;&gt;Node7 -->
<g id="edge11_Node000007_Node000007" class="edge">
<title>Node7&#45;&gt;Node7</title>
<g id="a_edge11_Node000007_Node000007"><a xlink:title=" ">
<path fill="none" stroke="#63b8ff" d="M605.28,-221.91C599.91,-231.12 610.44,-239.5 636.88,-239.5 651.74,-239.5 661.58,-236.85 666.39,-232.89"/>
<polygon fill="#63b8ff" stroke="#63b8ff" points="669.76,-233.88 668.19,-223.4 662.88,-232.57 669.76,-233.88"/>
</a>
</g>
</g>
<!-- Node8 -->
<g id="Node000008" class="node">
<title>Node8</title>
<g id="a_Node000008"><a xlink:href="classvalidation__api_1_1Validation.html#a49e598a8189b6bd6edf1ecdb00ae8b9d" target="_top" xlink:title=" ">
<polygon fill="white" stroke="#666666" points="1250.5,-498.5 1110.75,-498.5 1110.75,-465 1250.5,-465 1250.5,-498.5"/>
<text text-anchor="start" x="1118.75" y="-485" font-family="Helvetica,sans-Serif" font-size="10.00">validation_api::Validation</text>
<text text-anchor="middle" x="1180.62" y="-472.25" font-family="Helvetica,sans-Serif" font-size="10.00">::findJsonField</text>
</a>
</g>
</g>
<!-- Node7&#45;&gt;Node8 -->
<g id="edge9_Node000007_Node000008" class="edge">
<title>Node7&#45;&gt;Node8</title>
<g id="a_edge9_Node000007_Node000008"><a xlink:title=" ">
<path fill="none" stroke="#63b8ff" d="M647.92,-221.86C679.61,-273.86 783.4,-429.96 918.5,-485.75 975.62,-509.34 1045.94,-506.67 1099.21,-499.03"/>
<polygon fill="#63b8ff" stroke="#63b8ff" points="1099.46,-502.53 1108.81,-497.56 1098.4,-495.61 1099.46,-502.53"/>
</a>
</g>
</g>
<!-- Node9 -->
<g id="Node000009" class="node">
<title>Node9</title>
<g id="a_Node000009"><a xlink:href="classvalidation__api_1_1Validation.html#a1cc0802269d88c233ad3c3d1d6c3dd12" target="_top" xlink:title=" ">
<polygon fill="white" stroke="#666666" points="882.5,-301.5 742.75,-301.5 742.75,-268 882.5,-268 882.5,-301.5"/>
<text text-anchor="start" x="750.75" y="-288" font-family="Helvetica,sans-Serif" font-size="10.00">validation_api::Validation</text>
<text text-anchor="middle" x="812.62" y="-275.25" font-family="Helvetica,sans-Serif" font-size="10.00">::validate</text>
</a>
</g>
</g>
<!-- Node7&#45;&gt;Node9 -->
<g id="edge12_Node000007_Node000009" class="edge">
<title>Node7&#45;&gt;Node9</title>
<g id="a_edge12_Node000007_Node000009"><a xlink:title=" ">
<path fill="none" stroke="#63b8ff" d="M675.15,-221.91C701.14,-233.88 736.05,-249.95 764.05,-262.85"/>
<polygon fill="#63b8ff" stroke="#63b8ff" points="762.49,-265.98 773.04,-266.98 765.42,-259.62 762.49,-265.98"/>
</a>
</g>
</g>
<!-- Node8&#45;&gt;Node8 -->
<g id="edge10_Node000008_Node000008" class="edge">
<title>Node8&#45;&gt;Node8</title>
<g id="a_edge10_Node000008_Node000008"><a xlink:title=" ">
<path fill="none" stroke="#63b8ff" d="M1147.14,-498.91C1141.45,-508.12 1152.61,-516.5 1180.62,-516.5 1196.38,-516.5 1206.81,-513.85 1211.9,-509.89"/>
<polygon fill="#63b8ff" stroke="#63b8ff" points="1215.27,-510.89 1213.81,-500.4 1208.4,-509.51 1215.27,-510.89"/>
</a>
</g>
</g>
<!-- Node9&#45;&gt;Node5 -->
<g id="edge15_Node000009_Node000005" class="edge">
<title>Node9&#45;&gt;Node5</title>
<g id="a_edge15_Node000009_Node000005"><a xlink:title=" ">
<path fill="none" stroke="#63b8ff" d="M839.85,-267.73C860.51,-254.95 890.43,-237.81 918.5,-226.75 983.19,-201.27 1004.46,-211.24 1070.25,-188.75 1096.94,-179.62 1126.14,-166.65 1147.66,-156.48"/>
<polygon fill="#63b8ff" stroke="#63b8ff" points="1148.98,-159.73 1156.49,-152.26 1145.96,-153.42 1148.98,-159.73"/>
</a>
</g>
</g>
<!-- Node10 -->
<g id="Node000010" class="node">
<title>Node10</title>
<g id="a_Node000010"><a xlink:href="classvalidation__api_1_1Validation.html#a7b6995b4592eb861af42e45b095382b7" target="_top" xlink:title="Checking Uuid values.">
<polygon fill="white" stroke="#666666" points="1064.25,-476.5 924.5,-476.5 924.5,-443 1064.25,-443 1064.25,-476.5"/>
<text text-anchor="start" x="932.5" y="-463" font-family="Helvetica,sans-Serif" font-size="10.00">validation_api::Validation</text>
<text text-anchor="middle" x="994.38" y="-450.25" font-family="Helvetica,sans-Serif" font-size="10.00">::checkNullOptionsVec</text>
</a>
</g>
</g>
<!-- Node9&#45;&gt;Node10 -->
<g id="edge13_Node000009_Node000010" class="edge">
<title>Node9&#45;&gt;Node10</title>
<g id="a_edge13_Node000009_Node000010"><a xlink:title=" ">
<path fill="none" stroke="#63b8ff" d="M821.14,-301.66C835.62,-332.34 870.25,-397.38 918.5,-433.75 920.01,-434.89 921.58,-435.98 923.18,-437.03"/>
<polygon fill="#63b8ff" stroke="#63b8ff" points="921.07,-439.85 931.49,-441.78 924.55,-433.77 921.07,-439.85"/>
</a>
</g>
</g>
<!-- Node11 -->
<g id="Node000011" class="node">
<title>Node11</title>
<g id="a_Node000011"><a xlink:href="classvalidation__api_1_1Validation.html#ac59ae7a00f5fc950a3a572524127c4d3" target="_top" xlink:title="Checks if a json object is empty.">
<polygon fill="white" stroke="#666666" points="1064.25,-424.5 924.5,-424.5 924.5,-391 1064.25,-391 1064.25,-424.5"/>
<text text-anchor="start" x="932.5" y="-411" font-family="Helvetica,sans-Serif" font-size="10.00">validation_api::Validation</text>
<text text-anchor="middle" x="994.38" y="-398.25" font-family="Helvetica,sans-Serif" font-size="10.00">::isNullOrEmpty</text>
</a>
</g>
</g>
<!-- Node9&#45;&gt;Node11 -->
<g id="edge16_Node000009_Node000011" class="edge">
<title>Node9&#45;&gt;Node11</title>
<g id="a_edge16_Node000009_Node000011"><a xlink:title=" ">
<path fill="none" stroke="#63b8ff" d="M827.95,-301.77C846.75,-323.14 881.71,-359.68 918.5,-381.75 920.79,-383.12 923.16,-384.44 925.59,-385.7"/>
<polygon fill="#63b8ff" stroke="#63b8ff" points="923.94,-388.78 934.47,-389.89 926.93,-382.46 923.94,-388.78"/>
</a>
</g>
</g>
<!-- Node12 -->
<g id="Node000012" class="node">
<title>Node12</title>
<g id="a_Node000012"><a xlink:href="namespacevalidation__api.html#ac19e25b4d8364b0f52152440dd5ecbda" target="_top" xlink:title=" ">
<polygon fill="white" stroke="#666666" points="1067.25,-373.12 921.5,-373.12 921.5,-352.38 1067.25,-352.38 1067.25,-373.12"/>
<text text-anchor="middle" x="994.38" y="-359.62" font-family="Helvetica,sans-Serif" font-size="10.00">validation_api::isValidUuid</text>
</a>
</g>
</g>
<!-- Node9&#45;&gt;Node12 -->
<g id="edge17_Node000009_Node000012" class="edge">
<title>Node9&#45;&gt;Node12</title>
<g id="a_edge17_Node000009_Node000012"><a xlink:title=" ">
<path fill="none" stroke="#63b8ff" d="M840.32,-301.91C861,-314.6 890.71,-331.55 918.5,-342.75 923.75,-344.86 929.29,-346.82 934.89,-348.62"/>
<polygon fill="#63b8ff" stroke="#63b8ff" points="933.64,-351.9 944.22,-351.44 935.66,-345.2 933.64,-351.9"/>
</a>
</g>
</g>
<!-- Node13 -->
<g id="Node000013" class="node">
<title>Node13</title>
<g id="a_Node000013"><a xlink:href="namespacevalidation__api.html#a6dd56dcf7358b332bb906a2d27fddd0b" target="_top" xlink:title="Converts string to all lowercase.">
<polygon fill="white" stroke="#666666" points="1059.38,-334.12 929.38,-334.12 929.38,-313.38 1059.38,-313.38 1059.38,-334.12"/>
<text text-anchor="middle" x="994.38" y="-320.62" font-family="Helvetica,sans-Serif" font-size="10.00">validation_api::toLower</text>
</a>
</g>
</g>
<!-- Node9&#45;&gt;Node13 -->
<g id="edge18_Node000009_Node000013" class="edge">
<title>Node9&#45;&gt;Node13</title>
<g id="a_edge18_Node000009_Node000013"><a xlink:title=" ">
<path fill="none" stroke="#63b8ff" d="M882.86,-299.77C899.26,-303.33 916.62,-307.1 932.6,-310.56"/>
<polygon fill="#63b8ff" stroke="#63b8ff" points="931.42,-313.89 941.94,-312.59 932.91,-307.05 931.42,-313.89"/>
</a>
</g>
</g>
<!-- Node14 -->
<g id="Node000014" class="node">
<title>Node14</title>
<g id="a_Node000014"><a xlink:href="namespacevalidation__api.html#aae32fd7a0b5886a49454679d46ed4bd1" target="_top" xlink:title="Validates Ahv string.">
<polygon fill="white" stroke="#666666" points="1069.12,-295.12 919.62,-295.12 919.62,-274.38 1069.12,-274.38 1069.12,-295.12"/>
<text text-anchor="middle" x="994.38" y="-281.62" font-family="Helvetica,sans-Serif" font-size="10.00">validation_api::validateAhv</text>
</a>
</g>
</g>
<!-- Node9&#45;&gt;Node14 -->
<g id="edge19_Node000009_Node000014" class="edge">
<title>Node9&#45;&gt;Node14</title>
<g id="a_edge19_Node000009_Node000014"><a xlink:title=" ">
<path fill="none" stroke="#63b8ff" d="M882.86,-284.75C891.09,-284.75 899.56,-284.75 907.98,-284.75"/>
<polygon fill="#63b8ff" stroke="#63b8ff" points="907.89,-288.25 917.89,-284.75 907.89,-281.25 907.89,-288.25"/>
</a>
</g>
</g>
<!-- Node15 -->
<g id="Node000015" class="node">
<title>Node15</title>
<g id="a_Node000015"><a xlink:href="classvalidation__api_1_1Validation.html#a512e2e0c3be1bea95ebfab280ec919ba" target="_top" xlink:title="Validates len options.">
<polygon fill="white" stroke="#666666" points="1064.25,-179.5 924.5,-179.5 924.5,-146 1064.25,-146 1064.25,-179.5"/>
<text text-anchor="start" x="932.5" y="-166" font-family="Helvetica,sans-Serif" font-size="10.00">validation_api::Validation</text>
<text text-anchor="middle" x="994.38" y="-153.25" font-family="Helvetica,sans-Serif" font-size="10.00">::validateConstraints</text>
</a>
</g>
</g>
<!-- Node9&#45;&gt;Node15 -->
<g id="edge20_Node000009_Node000015" class="edge">
<title>Node9&#45;&gt;Node15</title>
<g id="a_edge20_Node000009_Node000015"><a xlink:title=" ">
<path fill="none" stroke="#63b8ff" d="M829.72,-267.79C849.24,-247.97 883.85,-215.17 918.5,-193.75 923.74,-190.51 929.37,-187.48 935.11,-184.67"/>
<polygon fill="#63b8ff" stroke="#63b8ff" points="936.52,-187.87 944.13,-180.5 933.58,-181.52 936.52,-187.87"/>
</a>
</g>
</g>
<!-- Node16 -->
<g id="Node000016" class="node">
<title>Node16</title>
<g id="a_Node000016"><a xlink:href="namespacevalidation__api.html#a0a2b975e162ced567ba3a6075684092a" target="_top" xlink:title="Validates Iban string.">
<polygon fill="white" stroke="#666666" points="1070.25,-256.12 918.5,-256.12 918.5,-235.38 1070.25,-235.38 1070.25,-256.12"/>
<text text-anchor="middle" x="994.38" y="-242.62" font-family="Helvetica,sans-Serif" font-size="10.00">validation_api::validateIban</text>
</a>
</g>
</g>
<!-- Node9&#45;&gt;Node16 -->
<g id="edge22_Node000009_Node000016" class="edge">
<title>Node9&#45;&gt;Node16</title>
<g id="a_edge22_Node000009_Node000016"><a xlink:title=" ">
<path fill="none" stroke="#63b8ff" d="M882.86,-269.73C899.26,-266.17 916.62,-262.4 932.6,-258.94"/>
<polygon fill="#63b8ff" stroke="#63b8ff" points="932.91,-262.45 941.94,-256.91 931.42,-255.61 932.91,-262.45"/>
</a>
</g>
</g>
<!-- Node10&#45;&gt;Node8 -->
<g id="edge14_Node000010_Node000008" class="edge">
<title>Node10&#45;&gt;Node8</title>
<g id="a_edge14_Node000010_Node000008"><a xlink:title=" ">
<path fill="none" stroke="#63b8ff" d="M1064.51,-468C1075.77,-469.35 1087.51,-470.75 1099.02,-472.13"/>
<polygon fill="#63b8ff" stroke="#63b8ff" points="1098.56,-475.6 1108.91,-473.31 1099.39,-468.65 1098.56,-475.6"/>
</a>
</g>
</g>
<!-- Node15&#45;&gt;Node5 -->
<g id="edge21_Node000015_Node000005" class="edge">
<title>Node15&#45;&gt;Node5</title>
<g id="a_edge21_Node000015_Node000005"><a xlink:title=" ">
<path fill="none" stroke="#63b8ff" d="M1064.51,-154.5C1074.3,-153.33 1084.46,-152.11 1094.52,-150.91"/>
<polygon fill="#63b8ff" stroke="#63b8ff" points="1094.77,-154.41 1104.29,-149.75 1093.94,-147.46 1094.77,-154.41"/>
</a>
</g>
</g>
</g>
</svg>
