<?xml version="1.0" encoding="UTF-8" standalone="no"?>
<!DOCTYPE svg PUBLIC "-//W3C//DTD SVG 1.1//EN"
 "http://www.w3.org/Graphics/SVG/1.1/DTD/svg11.dtd">
<!-- Generated by graphviz version 10.0.1 (0)
 -->
<!-- Title: validation_api::ConfigService::validateConfig Pages: 1 -->
<svg width="1087pt" height="535pt"
 viewBox="0.00 0.00 1087.25 535.47" xmlns="http://www.w3.org/2000/svg" xmlns:xlink="http://www.w3.org/1999/xlink">
<g id="graph0" class="graph" transform="scale(1 1) rotate(0) translate(4 531.47)">
<title>validation_api::ConfigService::validateConfig</title>
<!-- Node1 -->
<g id="Node000001" class="node">
<title>Node1</title>
<g id="a_Node000001"><a xlink:title="getConfigs method">
<polygon fill="#999999" stroke="#666666" points="157.75,-490.22 0,-490.22 0,-456.72 157.75,-456.72 157.75,-490.22"/>
<text text-anchor="start" x="8" y="-476.72" font-family="Helvetica,sans-Serif" font-size="10.00">validation_api::ConfigService</text>
<text text-anchor="middle" x="78.88" y="-463.97" font-family="Helvetica,sans-Serif" font-size="10.00">::validateConfig</text>
</a>
</g>
</g>
<!-- Node2 -->
<g id="Node000002" class="node">
<title>Node2</title>
<g id="a_Node000002"><a xlink:href="namespacevalidation__api.html#ac3e8e6ef097973f55220fc4fdeb08dc2" target="_top" xlink:title="Error builder.">
<polygon fill="white" stroke="#666666" points="1079.25,-391.85 930.5,-391.85 930.5,-371.1 1079.25,-371.1 1079.25,-391.85"/>
<text text-anchor="middle" x="1004.88" y="-378.35" font-family="Helvetica,sans-Serif" font-size="10.00">validation_api::errorBuilder</text>
</a>
</g>
</g>
<!-- Node1&#45;&gt;Node2 -->
<g id="edge1_Node000001_Node000002" class="edge">
<title>Node1&#45;&gt;Node2</title>
<g id="a_edge1_Node000001_Node000002"><a xlink:title=" ">
<path fill="none" stroke="#63b8ff" d="M155.9,-490.71C232.34,-506.51 353.77,-527.47 460.12,-527.47 460.12,-527.47 460.12,-527.47 637.88,-527.47 775.66,-527.47 923.18,-437.1 979.84,-398.56"/>
<polygon fill="#63b8ff" stroke="#63b8ff" points="981.55,-401.63 987.79,-393.07 977.58,-395.87 981.55,-401.63"/>
</a>
</g>
</g>
<!-- Node3 -->
<g id="Node000003" class="node">
<title>Node3</title>
<g id="a_Node000003"><a xlink:href="classvalidation__api_1_1Validation.html#ac6c337d3af39943a8e603a5f21f5922a" target="_top" xlink:title=" ">
<polygon fill="white" stroke="#666666" points="355.25,-452.85 193.75,-452.85 193.75,-432.1 355.25,-432.1 355.25,-452.85"/>
<text text-anchor="middle" x="274.5" y="-439.35" font-family="Helvetica,sans-Serif" font-size="10.00">validation_api::Validation::run</text>
</a>
</g>
</g>
<!-- Node1&#45;&gt;Node3 -->
<g id="edge2_Node000001_Node000003" class="edge">
<title>Node1&#45;&gt;Node3</title>
<g id="a_edge2_Node000001_Node000003"><a xlink:title=" ">
<path fill="none" stroke="#63b8ff" d="M158.07,-460.95C170,-459.04 182.32,-457.07 194.28,-455.16"/>
<polygon fill="#63b8ff" stroke="#63b8ff" points="194.78,-458.62 204.1,-453.58 193.68,-451.71 194.78,-458.62"/>
</a>
</g>
</g>
<!-- Node3&#45;&gt;Node2 -->
<g id="edge3_Node000003_Node000002" class="edge">
<title>Node3&#45;&gt;Node2</title>
<g id="a_edge3_Node000003_Node000002"><a xlink:title=" ">
<path fill="none" stroke="#63b8ff" d="M355.53,-435.77C494.06,-424.17 777.27,-400.45 919.05,-388.58"/>
<polygon fill="#63b8ff" stroke="#63b8ff" points="919.07,-392.09 928.75,-387.76 918.49,-385.11 919.07,-392.09"/>
</a>
</g>
</g>
<!-- Node4 -->
<g id="Node000004" class="node">
<title>Node4</title>
<g id="a_Node000004"><a xlink:href="classvalidation__api_1_1Validation.html#a21b9aefd80be5a639d2aa5e4c8ebe945" target="_top" xlink:title=" ">
<polygon fill="white" stroke="#666666" points="531,-481.22 391.25,-481.22 391.25,-447.72 531,-447.72 531,-481.22"/>
<text text-anchor="start" x="399.25" y="-467.72" font-family="Helvetica,sans-Serif" font-size="10.00">validation_api::Validation</text>
<text text-anchor="middle" x="461.12" y="-454.97" font-family="Helvetica,sans-Serif" font-size="10.00">::fillRequestList</text>
</a>
</g>
</g>
<!-- Node3&#45;&gt;Node4 -->
<g id="edge4_Node000003_Node000004" class="edge">
<title>Node3&#45;&gt;Node4</title>
<g id="a_edge4_Node000003_Node000004"><a xlink:title=" ">
<path fill="none" stroke="#63b8ff" d="M355.67,-452.03C363.68,-452.98 371.8,-453.95 379.81,-454.9"/>
<polygon fill="#63b8ff" stroke="#63b8ff" points="379.17,-458.35 389.52,-456.06 380,-451.4 379.17,-458.35"/>
</a>
</g>
</g>
<!-- Node5 -->
<g id="Node000005" class="node">
<title>Node5</title>
<g id="a_Node000005"><a xlink:href="classvalidation__api_1_1Validation.html#a3c8146fc89af5b8cef0c1bb6c9d473f2" target="_top" xlink:title="Traverse through the json object and validate the fields.">
<polygon fill="white" stroke="#666666" points="531,-302.22 391.25,-302.22 391.25,-268.72 531,-268.72 531,-302.22"/>
<text text-anchor="start" x="399.25" y="-288.72" font-family="Helvetica,sans-Serif" font-size="10.00">validation_api::Validation</text>
<text text-anchor="middle" x="461.12" y="-275.97" font-family="Helvetica,sans-Serif" font-size="10.00">::traverseAndValidate</text>
</a>
</g>
</g>
<!-- Node3&#45;&gt;Node5 -->
<g id="edge6_Node000003_Node000005" class="edge">
<title>Node3&#45;&gt;Node5</title>
<g id="a_edge6_Node000003_Node000005"><a xlink:title=" ">
<path fill="none" stroke="#63b8ff" d="M288.19,-431.68C317.5,-406.76 390.52,-344.66 431.34,-309.95"/>
<polygon fill="#63b8ff" stroke="#63b8ff" points="433.52,-312.69 438.87,-303.55 428.98,-307.36 433.52,-312.69"/>
</a>
</g>
</g>
<!-- Node4&#45;&gt;Node4 -->
<g id="edge5_Node000004_Node000004" class="edge">
<title>Node4&#45;&gt;Node4</title>
<g id="a_edge5_Node000004_Node000004"><a xlink:title=" ">
<path fill="none" stroke="#63b8ff" d="M429.53,-481.64C424.16,-490.84 434.69,-499.22 461.12,-499.22 475.99,-499.22 485.83,-496.57 490.64,-492.61"/>
<polygon fill="#63b8ff" stroke="#63b8ff" points="494.01,-493.6 492.44,-483.12 487.13,-492.3 494.01,-493.6"/>
</a>
</g>
</g>
<!-- Node5&#45;&gt;Node2 -->
<g id="edge7_Node000005_Node000002" class="edge">
<title>Node5&#45;&gt;Node2</title>
<g id="a_edge7_Node000005_Node000002"><a xlink:title=" ">
<path fill="none" stroke="#63b8ff" d="M513.17,-302.72C568.89,-320.78 661.09,-348.44 742.75,-362.47 801.06,-372.49 867.57,-377.24 918.88,-379.48"/>
<polygon fill="#63b8ff" stroke="#63b8ff" points="918.6,-382.97 928.74,-379.88 918.89,-375.98 918.6,-382.97"/>
</a>
</g>
</g>
<!-- Node5&#45;&gt;Node5 -->
<g id="edge10_Node000005_Node000005" class="edge">
<title>Node5&#45;&gt;Node5</title>
<g id="a_edge10_Node000005_Node000005"><a xlink:title=" ">
<path fill="none" stroke="#63b8ff" d="M429.53,-302.64C424.16,-311.84 434.69,-320.22 461.12,-320.22 475.99,-320.22 485.83,-317.57 490.64,-313.61"/>
<polygon fill="#63b8ff" stroke="#63b8ff" points="494.01,-314.6 492.44,-304.12 487.13,-313.3 494.01,-314.6"/>
</a>
</g>
</g>
<!-- Node6 -->
<g id="Node000006" class="node">
<title>Node6</title>
<g id="a_Node000006"><a xlink:href="classvalidation__api_1_1Validation.html#a49e598a8189b6bd6edf1ecdb00ae8b9d" target="_top" xlink:title=" ">
<polygon fill="white" stroke="#666666" points="1074.75,-61.22 935,-61.22 935,-27.72 1074.75,-27.72 1074.75,-61.22"/>
<text text-anchor="start" x="943" y="-47.72" font-family="Helvetica,sans-Serif" font-size="10.00">validation_api::Validation</text>
<text text-anchor="middle" x="1004.88" y="-34.97" font-family="Helvetica,sans-Serif" font-size="10.00">::findJsonField</text>
</a>
</g>
</g>
<!-- Node5&#45;&gt;Node6 -->
<g id="edge8_Node000005_Node000006" class="edge">
<title>Node5&#45;&gt;Node6</title>
<g id="a_edge8_Node000005_Node000006"><a xlink:title=" ">
<path fill="none" stroke="#63b8ff" d="M472.81,-268.26C505.53,-217.39 610.25,-68.01 742.75,-14.47 810.63,12.95 896,-5.78 950.27,-23.59"/>
<polygon fill="#63b8ff" stroke="#63b8ff" points="949,-26.86 959.59,-26.76 951.25,-20.23 949,-26.86"/>
</a>
</g>
</g>
<!-- Node7 -->
<g id="Node000007" class="node">
<title>Node7</title>
<g id="a_Node000007"><a xlink:href="classvalidation__api_1_1Validation.html#a1cc0802269d88c233ad3c3d1d6c3dd12" target="_top" xlink:title=" ">
<polygon fill="white" stroke="#666666" points="706.75,-230.22 567,-230.22 567,-196.72 706.75,-196.72 706.75,-230.22"/>
<text text-anchor="start" x="575" y="-216.72" font-family="Helvetica,sans-Serif" font-size="10.00">validation_api::Validation</text>
<text text-anchor="middle" x="636.88" y="-203.97" font-family="Helvetica,sans-Serif" font-size="10.00">::validate</text>
</a>
</g>
</g>
<!-- Node5&#45;&gt;Node7 -->
<g id="edge11_Node000005_Node000007" class="edge">
<title>Node5&#45;&gt;Node7</title>
<g id="a_edge11_Node000005_Node000007"><a xlink:title=" ">
<path fill="none" stroke="#63b8ff" d="M503.74,-268.23C527.72,-258.29 558.09,-245.71 583.66,-235.11"/>
<polygon fill="#63b8ff" stroke="#63b8ff" points="585,-238.34 592.9,-231.28 582.32,-231.88 585,-238.34"/>
</a>
</g>
</g>
<!-- Node6&#45;&gt;Node6 -->
<g id="edge9_Node000006_Node000006" class="edge">
<title>Node6&#45;&gt;Node6</title>
<g id="a_edge9_Node000006_Node000006"><a xlink:title=" ">
<path fill="none" stroke="#63b8ff" d="M971.39,-61.64C965.7,-70.84 976.86,-79.22 1004.88,-79.22 1020.63,-79.22 1031.06,-76.57 1036.15,-72.61"/>
<polygon fill="#63b8ff" stroke="#63b8ff" points="1039.52,-73.61 1038.06,-63.12 1032.65,-72.23 1039.52,-73.61"/>
</a>
</g>
</g>
<!-- Node7&#45;&gt;Node2 -->
<g id="edge14_Node000007_Node000002" class="edge">
<title>Node7&#45;&gt;Node2</title>
<g id="a_edge14_Node000007_Node000002"><a xlink:title=" ">
<path fill="none" stroke="#63b8ff" d="M681.1,-196.33C734.91,-177.96 827.85,-156.24 894.5,-194.47 957.48,-230.6 987.67,-318.56 998.71,-359.65"/>
<polygon fill="#63b8ff" stroke="#63b8ff" points="995.31,-360.49 1001.16,-369.32 1002.1,-358.77 995.31,-360.49"/>
</a>
</g>
</g>
<!-- Node8 -->
<g id="Node000008" class="node">
<title>Node8</title>
<g id="a_Node000008"><a xlink:href="classvalidation__api_1_1Validation.html#a7b6995b4592eb861af42e45b095382b7" target="_top" xlink:title="Checking Uuid values.">
<polygon fill="white" stroke="#666666" points="888.5,-109.22 748.75,-109.22 748.75,-75.72 888.5,-75.72 888.5,-109.22"/>
<text text-anchor="start" x="756.75" y="-95.72" font-family="Helvetica,sans-Serif" font-size="10.00">validation_api::Validation</text>
<text text-anchor="middle" x="818.62" y="-82.97" font-family="Helvetica,sans-Serif" font-size="10.00">::checkNullOptionsVec</text>
</a>
</g>
</g>
<!-- Node7&#45;&gt;Node8 -->
<g id="edge12_Node000007_Node000008" class="edge">
<title>Node7&#45;&gt;Node8</title>
<g id="a_edge12_Node000007_Node000008"><a xlink:title=" ">
<path fill="none" stroke="#63b8ff" d="M652.6,-196.46C671.55,-175.5 706.4,-140.02 742.75,-118.47 745.18,-117.03 747.71,-115.65 750.3,-114.34"/>
<polygon fill="#63b8ff" stroke="#63b8ff" points="751.56,-117.61 759.15,-110.21 748.6,-111.26 751.56,-117.61"/>
</a>
</g>
</g>
<!-- Node9 -->
<g id="Node000009" class="node">
<title>Node9</title>
<g id="a_Node000009"><a xlink:href="classvalidation__api_1_1Validation.html#ac59ae7a00f5fc950a3a572524127c4d3" target="_top" xlink:title="Checks if a json object is empty.">
<polygon fill="white" stroke="#666666" points="888.5,-57.22 748.75,-57.22 748.75,-23.72 888.5,-23.72 888.5,-57.22"/>
<text text-anchor="start" x="756.75" y="-43.72" font-family="Helvetica,sans-Serif" font-size="10.00">validation_api::Validation</text>
<text text-anchor="middle" x="818.62" y="-30.97" font-family="Helvetica,sans-Serif" font-size="10.00">::isNullOrEmpty</text>
</a>
</g>
</g>
<!-- Node7&#45;&gt;Node9 -->
<g id="edge15_Node000007_Node000009" class="edge">
<title>Node7&#45;&gt;Node9</title>
<g id="a_edge15_Node000007_Node000009"><a xlink:title=" ">
<path fill="none" stroke="#63b8ff" d="M645.69,-196.32C660.39,-165.85 695.07,-102.17 742.75,-66.47 744.26,-65.34 745.83,-64.25 747.44,-63.21"/>
<polygon fill="#63b8ff" stroke="#63b8ff" points="748.8,-66.46 755.76,-58.47 745.34,-60.38 748.8,-66.46"/>
</a>
</g>
</g>
<!-- Node10 -->
<g id="Node000010" class="node">
<title>Node10</title>
<g id="a_Node000010"><a xlink:href="namespacevalidation__api.html#ac19e25b4d8364b0f52152440dd5ecbda" target="_top" xlink:title=" ">
<polygon fill="white" stroke="#666666" points="891.5,-301.85 745.75,-301.85 745.75,-281.1 891.5,-281.1 891.5,-301.85"/>
<text text-anchor="middle" x="818.62" y="-288.35" font-family="Helvetica,sans-Serif" font-size="10.00">validation_api::isValidUuid</text>
</a>
</g>
</g>
<!-- Node7&#45;&gt;Node10 -->
<g id="edge16_Node000007_Node000010" class="edge">
<title>Node7&#45;&gt;Node10</title>
<g id="a_edge16_Node000007_Node000010"><a xlink:title=" ">
<path fill="none" stroke="#63b8ff" d="M664.57,-230.63C685.25,-243.32 714.96,-260.27 742.75,-271.47 748,-273.59 753.54,-275.55 759.14,-277.35"/>
<polygon fill="#63b8ff" stroke="#63b8ff" points="757.89,-280.62 768.47,-280.17 759.91,-273.92 757.89,-280.62"/>
</a>
</g>
</g>
<!-- Node11 -->
<g id="Node000011" class="node">
<title>Node11</title>
<g id="a_Node000011"><a xlink:href="namespacevalidation__api.html#a6dd56dcf7358b332bb906a2d27fddd0b" target="_top" xlink:title="Converts string to all lowercase.">
<polygon fill="white" stroke="#666666" points="883.62,-262.85 753.62,-262.85 753.62,-242.1 883.62,-242.1 883.62,-262.85"/>
<text text-anchor="middle" x="818.62" y="-249.35" font-family="Helvetica,sans-Serif" font-size="10.00">validation_api::toLower</text>
</a>
</g>
</g>
<!-- Node7&#45;&gt;Node11 -->
<g id="edge17_Node000007_Node000011" class="edge">
<title>Node7&#45;&gt;Node11</title>
<g id="a_edge17_Node000007_Node000011"><a xlink:title=" ">
<path fill="none" stroke="#63b8ff" d="M707.11,-228.5C723.51,-232.05 740.87,-235.82 756.85,-239.29"/>
<polygon fill="#63b8ff" stroke="#63b8ff" points="755.67,-242.61 766.19,-241.31 757.16,-235.77 755.67,-242.61"/>
</a>
</g>
</g>
<!-- Node12 -->
<g id="Node000012" class="node">
<title>Node12</title>
<g id="a_Node000012"><a xlink:href="namespacevalidation__api.html#aae32fd7a0b5886a49454679d46ed4bd1" target="_top" xlink:title="Validates Ahv string.">
<polygon fill="white" stroke="#666666" points="893.38,-223.85 743.88,-223.85 743.88,-203.1 893.38,-203.1 893.38,-223.85"/>
<text text-anchor="middle" x="818.62" y="-210.35" font-family="Helvetica,sans-Serif" font-size="10.00">validation_api::validateAhv</text>
</a>
</g>
</g>
<!-- Node7&#45;&gt;Node12 -->
<g id="edge18_Node000007_Node000012" class="edge">
<title>Node7&#45;&gt;Node12</title>
<g id="a_edge18_Node000007_Node000012"><a xlink:title=" ">
<path fill="none" stroke="#63b8ff" d="M707.11,-213.47C715.34,-213.47 723.81,-213.47 732.23,-213.47"/>
<polygon fill="#63b8ff" stroke="#63b8ff" points="732.14,-216.97 742.14,-213.47 732.14,-209.97 732.14,-216.97"/>
</a>
</g>
</g>
<!-- Node13 -->
<g id="Node000013" class="node">
<title>Node13</title>
<g id="a_Node000013"><a xlink:href="classvalidation__api_1_1Validation.html#a512e2e0c3be1bea95ebfab280ec919ba" target="_top" xlink:title="Validates len options.">
<polygon fill="white" stroke="#666666" points="888.5,-353.22 748.75,-353.22 748.75,-319.72 888.5,-319.72 888.5,-353.22"/>
<text text-anchor="start" x="756.75" y="-339.72" font-family="Helvetica,sans-Serif" font-size="10.00">validation_api::Validation</text>
<text text-anchor="middle" x="818.62" y="-326.97" font-family="Helvetica,sans-Serif" font-size="10.00">::validateConstraints</text>
</a>
</g>
</g>
<!-- Node7&#45;&gt;Node13 -->
<g id="edge19_Node000007_Node000013" class="edge">
<title>Node7&#45;&gt;Node13</title>
<g id="a_edge19_Node000007_Node000013"><a xlink:title=" ">
<path fill="none" stroke="#63b8ff" d="M652.2,-230.49C671,-251.86 705.96,-288.4 742.75,-310.47 745.04,-311.85 747.41,-313.16 749.84,-314.42"/>
<polygon fill="#63b8ff" stroke="#63b8ff" points="748.19,-317.51 758.72,-318.62 751.18,-311.18 748.19,-317.51"/>
</a>
</g>
</g>
<!-- Node14 -->
<g id="Node000014" class="node">
<title>Node14</title>
<g id="a_Node000014"><a xlink:href="namespacevalidation__api.html#a0a2b975e162ced567ba3a6075684092a" target="_top" xlink:title="Validates Iban string.">
<polygon fill="white" stroke="#666666" points="894.5,-147.85 742.75,-147.85 742.75,-127.1 894.5,-127.1 894.5,-147.85"/>
<text text-anchor="middle" x="818.62" y="-134.35" font-family="Helvetica,sans-Serif" font-size="10.00">validation_api::validateIban</text>
</a>
</g>
</g>
<!-- Node7&#45;&gt;Node14 -->
<g id="edge21_Node000007_Node000014" class="edge">
<title>Node7&#45;&gt;Node14</title>
<g id="a_edge21_Node000007_Node000014"><a xlink:title=" ">
<path fill="none" stroke="#63b8ff" d="M669.43,-196.27C689.96,-185.47 717.51,-171.71 742.75,-161.47 751.29,-158.01 760.54,-154.7 769.53,-151.71"/>
<polygon fill="#63b8ff" stroke="#63b8ff" points="770.41,-155.1 778.85,-148.69 768.26,-148.44 770.41,-155.1"/>
</a>
</g>
</g>
<!-- Node8&#45;&gt;Node6 -->
<g id="edge13_Node000008_Node000006" class="edge">
<title>Node8&#45;&gt;Node6</title>
<g id="a_edge13_Node000008_Node000006"><a xlink:title=" ">
<path fill="none" stroke="#63b8ff" d="M885.62,-75.28C898.99,-71.8 913.15,-68.11 926.85,-64.54"/>
<polygon fill="#63b8ff" stroke="#63b8ff" points="927.46,-68 936.25,-62.09 925.69,-61.22 927.46,-68"/>
</a>
</g>
</g>
<!-- Node13&#45;&gt;Node2 -->
<g id="edge20_Node000013_Node000002" class="edge">
<title>Node13&#45;&gt;Node2</title>
<g id="a_edge20_Node000013_Node000002"><a xlink:title=" ">
<path fill="none" stroke="#63b8ff" d="M888.76,-353.36C908.47,-358.17 929.68,-363.35 948.46,-367.94"/>
<polygon fill="#63b8ff" stroke="#63b8ff" points="947.49,-371.3 958.03,-370.28 949.15,-364.5 947.49,-371.3"/>
</a>
</g>
</g>
</g>
</svg>
