<?xml version="1.0" encoding="UTF-8" standalone="no"?>
<!DOCTYPE svg PUBLIC "-//W3C//DTD SVG 1.1//EN"
 "http://www.w3.org/Graphics/SVG/1.1/DTD/svg11.dtd">
<!-- Generated by graphviz version 10.0.1 (0)
 -->
<!-- Title: validation_api::ConfigWatcher Pages: 1 -->
<svg width="302pt" height="481pt"
 viewBox="0.00 0.00 301.50 480.75" xmlns="http://www.w3.org/2000/svg" xmlns:xlink="http://www.w3.org/1999/xlink">
<g id="graph0" class="graph" transform="scale(1 1) rotate(0) translate(4 476.75)">
<title>validation_api::ConfigWatcher</title>
<!-- Node1 -->
<g id="Node000001" class="node">
<title>Node1</title>
<g id="a_Node000001"><a xlink:title="Class to watch for changes in a directory.">
<polygon fill="#999999" stroke="none" points="217.5,-260 62.5,-260 62.5,0 217.5,0 217.5,-260"/>
<text text-anchor="start" x="67.25" y="-246.5" font-family="Helvetica,sans-Serif" font-size="10.00">validation_api::ConfigWatcher</text>
<text text-anchor="start" x="80.12" y="-230.5" font-family="Helvetica,sans-Serif" font-size="10.00">&#45;</text>
<text text-anchor="start" x="101.5" y="-230.5" font-family="Helvetica,sans-Serif" font-size="10.00">fileAssocation_</text>
<text text-anchor="start" x="80.12" y="-214.5" font-family="Helvetica,sans-Serif" font-size="10.00">&#45;</text>
<text text-anchor="start" x="101.5" y="-214.5" font-family="Helvetica,sans-Serif" font-size="10.00">callback_</text>
<text text-anchor="start" x="80.12" y="-198.5" font-family="Helvetica,sans-Serif" font-size="10.00">&#45;</text>
<text text-anchor="start" x="101.5" y="-198.5" font-family="Helvetica,sans-Serif" font-size="10.00">io_context_</text>
<text text-anchor="start" x="80.12" y="-182.5" font-family="Helvetica,sans-Serif" font-size="10.00">&#45;</text>
<text text-anchor="start" x="101.5" y="-182.5" font-family="Helvetica,sans-Serif" font-size="10.00">path_</text>
<text text-anchor="start" x="80.12" y="-166.5" font-family="Helvetica,sans-Serif" font-size="10.00">&#45;</text>
<text text-anchor="start" x="101.5" y="-166.5" font-family="Helvetica,sans-Serif" font-size="10.00">running</text>
<text text-anchor="start" x="80.12" y="-150.5" font-family="Helvetica,sans-Serif" font-size="10.00">&#45;</text>
<text text-anchor="start" x="101.5" y="-150.5" font-family="Helvetica,sans-Serif" font-size="10.00">watcherThread</text>
<text text-anchor="start" x="80.12" y="-134.5" font-family="Helvetica,sans-Serif" font-size="10.00">&#45;</text>
<text text-anchor="start" x="101.5" y="-134.5" font-family="Helvetica,sans-Serif" font-size="10.00">inotify_fd_</text>
<text text-anchor="start" x="80.12" y="-118.5" font-family="Helvetica,sans-Serif" font-size="10.00">&#45;</text>
<text text-anchor="start" x="101.5" y="-118.5" font-family="Helvetica,sans-Serif" font-size="10.00">watch_descriptor_</text>
<text text-anchor="start" x="80.12" y="-102.5" font-family="Helvetica,sans-Serif" font-size="10.00">&#45;</text>
<text text-anchor="start" x="101.5" y="-102.5" font-family="Helvetica,sans-Serif" font-size="10.00">logger_</text>
<text text-anchor="start" x="77.88" y="-86.5" font-family="Helvetica,sans-Serif" font-size="10.00">+</text>
<text text-anchor="start" x="101.5" y="-86.5" font-family="Helvetica,sans-Serif" font-size="10.00">ConfigWatcher()</text>
<text text-anchor="start" x="77.88" y="-70.5" font-family="Helvetica,sans-Serif" font-size="10.00">+</text>
<text text-anchor="start" x="101.5" y="-70.5" font-family="Helvetica,sans-Serif" font-size="10.00">~ConfigWatcher()</text>
<text text-anchor="start" x="77.88" y="-54.5" font-family="Helvetica,sans-Serif" font-size="10.00">+</text>
<text text-anchor="start" x="101.5" y="-54.5" font-family="Helvetica,sans-Serif" font-size="10.00">read_file()</text>
<text text-anchor="start" x="80.12" y="-38.5" font-family="Helvetica,sans-Serif" font-size="10.00">&#45;</text>
<text text-anchor="start" x="101.5" y="-38.5" font-family="Helvetica,sans-Serif" font-size="10.00">run()</text>
<text text-anchor="start" x="80.12" y="-22.5" font-family="Helvetica,sans-Serif" font-size="10.00">&#45;</text>
<text text-anchor="start" x="101.5" y="-22.5" font-family="Helvetica,sans-Serif" font-size="10.00">setup()</text>
<text text-anchor="start" x="80.12" y="-6.5" font-family="Helvetica,sans-Serif" font-size="10.00">&#45;</text>
<text text-anchor="start" x="101.5" y="-6.5" font-family="Helvetica,sans-Serif" font-size="10.00">stop()</text>
<polygon fill="#666666" stroke="#666666" points="62.5,-242 62.5,-242 217.5,-242 217.5,-242 62.5,-242"/>
<polygon fill="#666666" stroke="#666666" points="62.5,-98 62.5,-98 99.5,-98 99.5,-98 62.5,-98"/>
<polygon fill="#666666" stroke="#666666" points="99.5,-98 99.5,-98 217.5,-98 217.5,-98 99.5,-98"/>
<polygon fill="none" stroke="#666666" points="62.5,0 62.5,-260 217.5,-260 217.5,0 62.5,0"/>
</a>
</g>
</g>
<!-- Node2 -->
<g id="Node000002" class="node">
<title>Node2</title>
<g id="a_Node000002"><a xlink:href="classvalidation__api_1_1IService.html" target="_top" xlink:title="Interface for all services.">
<polygon fill="white" stroke="none" points="124,-440.75 0,-440.75 0,-340.75 124,-340.75 124,-440.75"/>
<text text-anchor="start" x="5" y="-427.25" font-family="Helvetica,sans-Serif" font-size="10.00">validation_api::IService</text>
<text text-anchor="start" x="60.5" y="-411.25" font-family="Helvetica,sans-Serif" font-size="10.00"> </text>
<text text-anchor="start" x="16.38" y="-395.25" font-family="Helvetica,sans-Serif" font-size="10.00">+</text>
<text text-anchor="start" x="41" y="-395.25" font-family="Helvetica,sans-Serif" font-size="10.00">~IService()</text>
<text text-anchor="start" x="18.62" y="-379.25" font-family="Helvetica,sans-Serif" font-size="10.00">&#45;</text>
<text text-anchor="start" x="41" y="-379.25" font-family="Helvetica,sans-Serif" font-size="10.00">run()</text>
<text text-anchor="start" x="18.62" y="-363.25" font-family="Helvetica,sans-Serif" font-size="10.00">&#45;</text>
<text text-anchor="start" x="41" y="-363.25" font-family="Helvetica,sans-Serif" font-size="10.00">setup()</text>
<text text-anchor="start" x="18.62" y="-347.25" font-family="Helvetica,sans-Serif" font-size="10.00">&#45;</text>
<text text-anchor="start" x="41" y="-347.25" font-family="Helvetica,sans-Serif" font-size="10.00">stop()</text>
<polygon fill="#666666" stroke="#666666" points="0,-422.75 0,-422.75 124,-422.75 124,-422.75 0,-422.75"/>
<polygon fill="#666666" stroke="#666666" points="0,-406.75 0,-406.75 124,-406.75 124,-406.75 0,-406.75"/>
<polygon fill="none" stroke="#666666" points="0,-340.75 0,-440.75 124,-440.75 124,-340.75 0,-340.75"/>
</a>
</g>
</g>
<!-- Node2&#45;&gt;Node1 -->
<g id="edge1_Node000001_Node000002" class="edge">
<title>Node2&#45;&gt;Node1</title>
<g id="a_edge1_Node000001_Node000002"><a xlink:title=" ">
<path fill="none" stroke="#63b8ff" d="M80.07,-329.82C86.39,-308.84 93.76,-284.4 101.12,-259.98"/>
<polygon fill="none" stroke="#63b8ff" points="76.73,-328.74 77.2,-339.33 83.44,-330.76 76.73,-328.74"/>
</a>
</g>
</g>
<!-- Node3 -->
<g id="Node000003" class="node">
<title>Node3</title>
<g id="a_Node000003"><a xlink:href="classvalidation__api_1_1ConfigService.html" target="_top" xlink:title="ConfigService class.">
<polygon fill="white" stroke="none" points="293.5,-472.75 142.5,-472.75 142.5,-308.75 293.5,-308.75 293.5,-472.75"/>
<text text-anchor="start" x="147.12" y="-459.25" font-family="Helvetica,sans-Serif" font-size="10.00">validation_api::ConfigService</text>
<text text-anchor="start" x="160.62" y="-443.25" font-family="Helvetica,sans-Serif" font-size="10.00">&#45;</text>
<text text-anchor="start" x="182.5" y="-443.25" font-family="Helvetica,sans-Serif" font-size="10.00">rwMutex_</text>
<text text-anchor="start" x="160.62" y="-427.25" font-family="Helvetica,sans-Serif" font-size="10.00">&#45;</text>
<text text-anchor="start" x="182.5" y="-427.25" font-family="Helvetica,sans-Serif" font-size="10.00">configs_</text>
<text text-anchor="start" x="160.62" y="-411.25" font-family="Helvetica,sans-Serif" font-size="10.00">&#45;</text>
<text text-anchor="start" x="182.5" y="-411.25" font-family="Helvetica,sans-Serif" font-size="10.00">logger_</text>
<text text-anchor="start" x="158.38" y="-395.25" font-family="Helvetica,sans-Serif" font-size="10.00">+</text>
<text text-anchor="start" x="182.5" y="-395.25" font-family="Helvetica,sans-Serif" font-size="10.00">ConfigService()</text>
<text text-anchor="start" x="158.38" y="-379.25" font-family="Helvetica,sans-Serif" font-size="10.00">+</text>
<text text-anchor="start" x="182.5" y="-379.25" font-family="Helvetica,sans-Serif" font-size="10.00">~ConfigService()</text>
<text text-anchor="start" x="158.38" y="-363.25" font-family="Helvetica,sans-Serif" font-size="10.00">+</text>
<text text-anchor="start" x="182.5" y="-363.25" font-family="Helvetica,sans-Serif" font-size="10.00">getConfig()</text>
<text text-anchor="start" x="158.38" y="-347.25" font-family="Helvetica,sans-Serif" font-size="10.00">+</text>
<text text-anchor="start" x="182.5" y="-347.25" font-family="Helvetica,sans-Serif" font-size="10.00">createConfig()</text>
<text text-anchor="start" x="158.38" y="-331.25" font-family="Helvetica,sans-Serif" font-size="10.00">+</text>
<text text-anchor="start" x="182.5" y="-331.25" font-family="Helvetica,sans-Serif" font-size="10.00">deleteConfig()</text>
<text text-anchor="start" x="158.38" y="-315.25" font-family="Helvetica,sans-Serif" font-size="10.00">+</text>
<text text-anchor="start" x="182.5" y="-315.25" font-family="Helvetica,sans-Serif" font-size="10.00">validateConfig()</text>
<polygon fill="#666666" stroke="#666666" points="142.5,-454.75 142.5,-454.75 293.5,-454.75 293.5,-454.75 142.5,-454.75"/>
<polygon fill="#666666" stroke="#666666" points="142.5,-406.75 142.5,-406.75 180.5,-406.75 180.5,-406.75 142.5,-406.75"/>
<polygon fill="#666666" stroke="#666666" points="180.5,-406.75 180.5,-406.75 293.5,-406.75 293.5,-406.75 180.5,-406.75"/>
<polygon fill="none" stroke="#666666" points="142.5,-308.75 142.5,-472.75 293.5,-472.75 293.5,-308.75 142.5,-308.75"/>
</a>
</g>
</g>
<!-- Node3&#45;&gt;Node1 -->
<g id="edge2_Node000001_Node000003" class="edge">
<title>Node3&#45;&gt;Node1</title>
<g id="a_edge2_Node000001_Node000003"><a xlink:title=" ">
<path fill="none" stroke="#63b8ff" d="M193.64,-308.94C190.05,-297.03 186.27,-284.48 182.44,-271.78"/>
<polygon fill="none" stroke="#63b8ff" points="182.48,-271.92 176.92,-267.33 179.02,-260.43 184.58,-265.02 182.48,-271.92"/>
</a>
</g>
<text text-anchor="middle" x="208.62" y="-281.25" font-family="Helvetica,sans-Serif" font-size="10.00" fill="grey"> &#45;service_</text>
</g>
</g>
</svg>
