<?xml version="1.0" encoding="UTF-8" standalone="no"?>
<!DOCTYPE svg PUBLIC "-//W3C//DTD SVG 1.1//EN"
 "http://www.w3.org/Graphics/SVG/1.1/DTD/svg11.dtd">
<!-- Generated by graphviz version 10.0.1 (0)
 -->
<!-- Title: validation_api::ValidationServer::run Pages: 1 -->
<svg width="1254pt" height="318pt"
 viewBox="0.00 0.00 1254.00 318.12" xmlns="http://www.w3.org/2000/svg" xmlns:xlink="http://www.w3.org/1999/xlink">
<g id="graph0" class="graph" transform="scale(1 1) rotate(0) translate(4 314.12)">
<title>validation_api::ValidationServer::run</title>
<!-- Node1 -->
<g id="Node000001" class="node">
<title>Node1</title>
<g id="a_Node000001"><a xlink:title="Start the server.">
<polygon fill="#999999" stroke="#666666" points="139.75,-239.12 0,-239.12 0,-205.62 139.75,-205.62 139.75,-239.12"/>
<text text-anchor="start" x="8" y="-225.62" font-family="Helvetica,sans-Serif" font-size="10.00">validation_api::Validation</text>
<text text-anchor="middle" x="69.88" y="-212.88" font-family="Helvetica,sans-Serif" font-size="10.00">Server::run</text>
</a>
</g>
</g>
<!-- Node1&#45;&gt;Node1 -->
<g id="edge18_Node000001_Node000001" class="edge">
<title>Node1&#45;&gt;Node1</title>
<g id="a_edge18_Node000001_Node000001"><a xlink:title=" ">
<path fill="none" stroke="#63b8ff" d="M38.28,-239.54C32.91,-248.74 43.44,-257.12 69.88,-257.12 84.74,-257.12 94.58,-254.47 99.39,-250.51"/>
<polygon fill="#63b8ff" stroke="#63b8ff" points="102.76,-251.5 101.19,-241.03 95.88,-250.2 102.76,-251.5"/>
</a>
</g>
</g>
<!-- Node2 -->
<g id="Node000002" class="node">
<title>Node2</title>
<g id="a_Node000002"><a xlink:href="classvalidation__api_1_1ValidationServer.html#a7f5c5252fa7a28bef0345e6248139215" target="_top" xlink:title="Accept a connection.">
<polygon fill="white" stroke="#666666" points="315.5,-239.12 175.75,-239.12 175.75,-205.62 315.5,-205.62 315.5,-239.12"/>
<text text-anchor="start" x="183.75" y="-225.62" font-family="Helvetica,sans-Serif" font-size="10.00">validation_api::Validation</text>
<text text-anchor="middle" x="245.62" y="-212.88" font-family="Helvetica,sans-Serif" font-size="10.00">Server::accept</text>
</a>
</g>
</g>
<!-- Node1&#45;&gt;Node2 -->
<g id="edge1_Node000001_Node000002" class="edge">
<title>Node1&#45;&gt;Node2</title>
<g id="a_edge1_Node000001_Node000002"><a xlink:title=" ">
<path fill="none" stroke="#63b8ff" d="M140.04,-222.38C147.96,-222.38 156.07,-222.38 164.12,-222.38"/>
<polygon fill="#63b8ff" stroke="#63b8ff" points="163.9,-225.88 173.9,-222.38 163.9,-218.88 163.9,-225.88"/>
</a>
</g>
</g>
<!-- Node3 -->
<g id="Node000003" class="node">
<title>Node3</title>
<g id="a_Node000003"><a xlink:href="classvalidation__api_1_1ValidationServer.html#a59c4a313effe28cc0acca7b8bb3a26e4" target="_top" xlink:title=" ">
<polygon fill="white" stroke="#666666" points="500.25,-284.12 360.5,-284.12 360.5,-250.62 500.25,-250.62 500.25,-284.12"/>
<text text-anchor="start" x="368.5" y="-270.62" font-family="Helvetica,sans-Serif" font-size="10.00">validation_api::Validation</text>
<text text-anchor="middle" x="430.38" y="-257.88" font-family="Helvetica,sans-Serif" font-size="10.00">Server::asyncWriter</text>
</a>
</g>
</g>
<!-- Node2&#45;&gt;Node3 -->
<g id="edge2_Node000002_Node000003" class="edge">
<title>Node2&#45;&gt;Node3</title>
<g id="a_edge2_Node000002_Node000003"><a xlink:title=" ">
<path fill="none" stroke="#63b8ff" d="M315.98,-239.45C326.8,-242.12 338.07,-244.89 349.12,-247.61"/>
<polygon fill="#63b8ff" stroke="#63b8ff" points="348.06,-250.96 358.6,-249.95 349.73,-244.16 348.06,-250.96"/>
</a>
</g>
</g>
<!-- Node4 -->
<g id="Node000004" class="node">
<title>Node4</title>
<g id="a_Node000004"><a xlink:href="namespacevalidation__api.html#ad94de3de52c70b315f5b36cce4642718" target="_top" xlink:title=" ">
<polygon fill="white" stroke="#666666" points="505.5,-232.75 355.25,-232.75 355.25,-212 505.5,-212 505.5,-232.75"/>
<text text-anchor="middle" x="430.38" y="-219.25" font-family="Helvetica,sans-Serif" font-size="10.00">validation_api::errorsToJson</text>
</a>
</g>
</g>
<!-- Node2&#45;&gt;Node4 -->
<g id="edge3_Node000002_Node000004" class="edge">
<title>Node2&#45;&gt;Node4</title>
<g id="a_edge3_Node000002_Node000004"><a xlink:title=" ">
<path fill="none" stroke="#63b8ff" d="M315.98,-222.38C325.02,-222.38 334.37,-222.38 343.65,-222.38"/>
<polygon fill="#63b8ff" stroke="#63b8ff" points="343.38,-225.88 353.38,-222.38 343.38,-218.88 343.38,-225.88"/>
</a>
</g>
</g>
<!-- Node5 -->
<g id="Node000005" class="node">
<title>Node5</title>
<g id="a_Node000005"><a xlink:href="classvalidation__api_1_1ConfigService.html#a654e84f4f588f7391f93210c1e08344f" target="_top" xlink:title="getConfigs method">
<polygon fill="white" stroke="#666666" points="509.25,-194.12 351.5,-194.12 351.5,-160.62 509.25,-160.62 509.25,-194.12"/>
<text text-anchor="start" x="359.5" y="-180.62" font-family="Helvetica,sans-Serif" font-size="10.00">validation_api::ConfigService</text>
<text text-anchor="middle" x="430.38" y="-167.88" font-family="Helvetica,sans-Serif" font-size="10.00">::validateConfig</text>
</a>
</g>
</g>
<!-- Node2&#45;&gt;Node5 -->
<g id="edge4_Node000002_Node000005" class="edge">
<title>Node2&#45;&gt;Node5</title>
<g id="a_edge4_Node000002_Node000005"><a xlink:title=" ">
<path fill="none" stroke="#63b8ff" d="M315.98,-205.3C326.54,-202.7 337.53,-199.99 348.32,-197.33"/>
<polygon fill="#63b8ff" stroke="#63b8ff" points="349.12,-200.74 358,-194.95 347.45,-193.94 349.12,-200.74"/>
</a>
</g>
</g>
<!-- Node6 -->
<g id="Node000006" class="node">
<title>Node6</title>
<g id="a_Node000006"><a xlink:href="classvalidation__api_1_1Validation.html#ac6c337d3af39943a8e603a5f21f5922a" target="_top" xlink:title=" ">
<polygon fill="white" stroke="#666666" points="706.75,-187.75 545.25,-187.75 545.25,-167 706.75,-167 706.75,-187.75"/>
<text text-anchor="middle" x="626" y="-174.25" font-family="Helvetica,sans-Serif" font-size="10.00">validation_api::Validation::run</text>
</a>
</g>
</g>
<!-- Node5&#45;&gt;Node6 -->
<g id="edge5_Node000005_Node000006" class="edge">
<title>Node5&#45;&gt;Node6</title>
<g id="a_edge5_Node000005_Node000006"><a xlink:title=" ">
<path fill="none" stroke="#63b8ff" d="M509.57,-177.38C517.49,-177.38 525.58,-177.38 533.62,-177.38"/>
<polygon fill="#63b8ff" stroke="#63b8ff" points="533.42,-180.88 543.42,-177.38 533.42,-173.88 533.42,-180.88"/>
</a>
</g>
</g>
<!-- Node7 -->
<g id="Node000007" class="node">
<title>Node7</title>
<g id="a_Node000007"><a xlink:href="classvalidation__api_1_1Validation.html#a3c8146fc89af5b8cef0c1bb6c9d473f2" target="_top" xlink:title="Traverse through the json object and validate the fields.">
<polygon fill="white" stroke="#666666" points="882.5,-194.12 742.75,-194.12 742.75,-160.62 882.5,-160.62 882.5,-194.12"/>
<text text-anchor="start" x="750.75" y="-180.62" font-family="Helvetica,sans-Serif" font-size="10.00">validation_api::Validation</text>
<text text-anchor="middle" x="812.62" y="-167.88" font-family="Helvetica,sans-Serif" font-size="10.00">::traverseAndValidate</text>
</a>
</g>
</g>
<!-- Node6&#45;&gt;Node7 -->
<g id="edge6_Node000006_Node000007" class="edge">
<title>Node6&#45;&gt;Node7</title>
<g id="a_edge6_Node000006_Node000007"><a xlink:title=" ">
<path fill="none" stroke="#63b8ff" d="M707.17,-177.38C715.09,-177.38 723.12,-177.38 731.03,-177.38"/>
<polygon fill="#63b8ff" stroke="#63b8ff" points="731.01,-180.88 741.01,-177.38 731.01,-173.88 731.01,-180.88"/>
</a>
</g>
</g>
<!-- Node7&#45;&gt;Node7 -->
<g id="edge9_Node000007_Node000007" class="edge">
<title>Node7&#45;&gt;Node7</title>
<g id="a_edge9_Node000007_Node000007"><a xlink:title=" ">
<path fill="none" stroke="#63b8ff" d="M781.03,-194.54C775.66,-203.74 786.19,-212.12 812.62,-212.12 827.49,-212.12 837.33,-209.47 842.14,-205.51"/>
<polygon fill="#63b8ff" stroke="#63b8ff" points="845.51,-206.5 843.94,-196.03 838.63,-205.2 845.51,-206.5"/>
</a>
</g>
</g>
<!-- Node8 -->
<g id="Node000008" class="node">
<title>Node8</title>
<g id="a_Node000008"><a xlink:href="classvalidation__api_1_1Validation.html#a2005828d7e475090ef5a895348bfb760" target="_top" xlink:title=" ">
<polygon fill="white" stroke="#666666" points="1240,-292.12 1100.25,-292.12 1100.25,-258.62 1240,-258.62 1240,-292.12"/>
<text text-anchor="start" x="1108.25" y="-278.62" font-family="Helvetica,sans-Serif" font-size="10.00">validation_api::Validation</text>
<text text-anchor="middle" x="1170.12" y="-265.88" font-family="Helvetica,sans-Serif" font-size="10.00">::findJsonField</text>
</a>
</g>
</g>
<!-- Node7&#45;&gt;Node8 -->
<g id="edge7_Node000007_Node000008" class="edge">
<title>Node7&#45;&gt;Node8</title>
<g id="a_edge7_Node000007_Node000008"><a xlink:title=" ">
<path fill="none" stroke="#63b8ff" d="M875.96,-194.56C937.23,-211.45 1030.74,-237.23 1095.61,-255.11"/>
<polygon fill="#63b8ff" stroke="#63b8ff" points="1094.54,-258.44 1105.11,-257.73 1096.4,-251.7 1094.54,-258.44"/>
</a>
</g>
</g>
<!-- Node9 -->
<g id="Node000009" class="node">
<title>Node9</title>
<g id="a_Node000009"><a xlink:href="classvalidation__api_1_1Validation.html#a1cc0802269d88c233ad3c3d1d6c3dd12" target="_top" xlink:title=" ">
<polygon fill="white" stroke="#666666" points="1058.25,-172.12 918.5,-172.12 918.5,-138.62 1058.25,-138.62 1058.25,-172.12"/>
<text text-anchor="start" x="926.5" y="-158.62" font-family="Helvetica,sans-Serif" font-size="10.00">validation_api::Validation</text>
<text text-anchor="middle" x="988.38" y="-145.88" font-family="Helvetica,sans-Serif" font-size="10.00">::validate</text>
</a>
</g>
</g>
<!-- Node7&#45;&gt;Node9 -->
<g id="edge10_Node000007_Node000009" class="edge">
<title>Node7&#45;&gt;Node9</title>
<g id="a_edge10_Node000007_Node000009"><a xlink:title=" ">
<path fill="none" stroke="#63b8ff" d="M882.79,-168.62C890.71,-167.62 898.82,-166.59 906.87,-165.57"/>
<polygon fill="#63b8ff" stroke="#63b8ff" points="907.18,-169.06 916.66,-164.33 906.3,-162.11 907.18,-169.06"/>
</a>
</g>
</g>
<!-- Node8&#45;&gt;Node8 -->
<g id="edge8_Node000008_Node000008" class="edge">
<title>Node8&#45;&gt;Node8</title>
<g id="a_edge8_Node000008_Node000008"><a xlink:title=" ">
<path fill="none" stroke="#63b8ff" d="M1137.45,-292.54C1131.9,-301.74 1142.79,-310.12 1170.12,-310.12 1185.5,-310.12 1195.67,-307.47 1200.64,-303.51"/>
<polygon fill="#63b8ff" stroke="#63b8ff" points="1204.01,-304.51 1202.51,-294.02 1197.14,-303.16 1204.01,-304.51"/>
</a>
</g>
</g>
<!-- Node9&#45;&gt;Node8 -->
<g id="edge12_Node000009_Node000008" class="edge">
<title>Node9&#45;&gt;Node8</title>
<g id="a_edge12_Node000009_Node000008"><a xlink:title=" ">
<path fill="none" stroke="#63b8ff" d="M1006.6,-172.36C1031.14,-196.27 1075.29,-238.2 1094.25,-249.38 1096.69,-250.81 1099.22,-252.18 1101.81,-253.5"/>
<polygon fill="#63b8ff" stroke="#63b8ff" points="1100.12,-256.57 1110.66,-257.61 1103.07,-250.22 1100.12,-256.57"/>
</a>
</g>
</g>
<!-- Node10 -->
<g id="Node000010" class="node">
<title>Node10</title>
<g id="a_Node000010"><a xlink:href="classvalidation__api_1_1ErrorBuilder.html#a84327bbfe6c61e7be6966acc41ba6087" target="_top" xlink:title=" ">
<polygon fill="white" stroke="#666666" points="1244.5,-240.12 1095.75,-240.12 1095.75,-206.62 1244.5,-206.62 1244.5,-240.12"/>
<text text-anchor="start" x="1103.75" y="-226.62" font-family="Helvetica,sans-Serif" font-size="10.00">validation_api::ErrorBuilder</text>
<text text-anchor="middle" x="1170.12" y="-213.88" font-family="Helvetica,sans-Serif" font-size="10.00">::build</text>
</a>
</g>
</g>
<!-- Node9&#45;&gt;Node10 -->
<g id="edge11_Node000009_Node000010" class="edge">
<title>Node9&#45;&gt;Node10</title>
<g id="a_edge11_Node000009_Node000010"><a xlink:title=" ">
<path fill="none" stroke="#63b8ff" d="M1031.05,-172.58C1050.22,-180.36 1073.31,-189.55 1094.25,-197.38 1098.67,-199.03 1103.26,-200.7 1107.88,-202.37"/>
<polygon fill="#63b8ff" stroke="#63b8ff" points="1106.64,-205.65 1117.24,-205.71 1108.99,-199.05 1106.64,-205.65"/>
</a>
</g>
</g>
<!-- Node11 -->
<g id="Node000011" class="node">
<title>Node11</title>
<g id="a_Node000011"><a xlink:href="namespacevalidation__api.html#ac19e25b4d8364b0f52152440dd5ecbda" target="_top" xlink:title=" ">
<polygon fill="white" stroke="#666666" points="1243,-188.75 1097.25,-188.75 1097.25,-168 1243,-168 1243,-188.75"/>
<text text-anchor="middle" x="1170.12" y="-175.25" font-family="Helvetica,sans-Serif" font-size="10.00">validation_api::isValidUuid</text>
</a>
</g>
</g>
<!-- Node9&#45;&gt;Node11 -->
<g id="edge13_Node000009_Node000011" class="edge">
<title>Node9&#45;&gt;Node11</title>
<g id="a_edge13_Node000009_Node000011"><a xlink:title=" ">
<path fill="none" stroke="#63b8ff" d="M1058.61,-164.23C1067.45,-165.36 1076.56,-166.53 1085.58,-167.69"/>
<polygon fill="#63b8ff" stroke="#63b8ff" points="1085.08,-171.15 1095.44,-168.95 1085.97,-164.21 1085.08,-171.15"/>
</a>
</g>
</g>
<!-- Node12 -->
<g id="Node000012" class="node">
<title>Node12</title>
<g id="a_Node000012"><a xlink:href="classvalidation__api_1_1ErrorBuilder.html#a014e70c2f2b4a2ee879c363b4a2174f2" target="_top" xlink:title=" ">
<polygon fill="white" stroke="#666666" points="1244.5,-150.12 1095.75,-150.12 1095.75,-116.62 1244.5,-116.62 1244.5,-150.12"/>
<text text-anchor="start" x="1103.75" y="-136.62" font-family="Helvetica,sans-Serif" font-size="10.00">validation_api::ErrorBuilder</text>
<text text-anchor="middle" x="1170.12" y="-123.88" font-family="Helvetica,sans-Serif" font-size="10.00">::setSecondMsg</text>
</a>
</g>
</g>
<!-- Node9&#45;&gt;Node12 -->
<g id="edge14_Node000009_Node000012" class="edge">
<title>Node9&#45;&gt;Node12</title>
<g id="a_edge14_Node000009_Node000012"><a xlink:title=" ">
<path fill="none" stroke="#63b8ff" d="M1058.61,-146.9C1067,-145.87 1075.65,-144.82 1084.23,-143.77"/>
<polygon fill="#63b8ff" stroke="#63b8ff" points="1084.45,-147.27 1093.95,-142.58 1083.6,-140.32 1084.45,-147.27"/>
</a>
</g>
</g>
<!-- Node13 -->
<g id="Node000013" class="node">
<title>Node13</title>
<g id="a_Node000013"><a xlink:href="namespacevalidation__api.html#a6dd56dcf7358b332bb906a2d27fddd0b" target="_top" xlink:title="Converts string to all lowercase.">
<polygon fill="white" stroke="#666666" points="1235.12,-98.75 1105.12,-98.75 1105.12,-78 1235.12,-78 1235.12,-98.75"/>
<text text-anchor="middle" x="1170.12" y="-85.25" font-family="Helvetica,sans-Serif" font-size="10.00">validation_api::toLower</text>
</a>
</g>
</g>
<!-- Node9&#45;&gt;Node13 -->
<g id="edge15_Node000009_Node000013" class="edge">
<title>Node9&#45;&gt;Node13</title>
<g id="a_edge15_Node000009_Node000013"><a xlink:title=" ">
<path fill="none" stroke="#63b8ff" d="M1022.74,-138.23C1043.04,-128.27 1069.7,-116.03 1094.25,-107.38 1099.49,-105.53 1105,-103.78 1110.55,-102.15"/>
<polygon fill="#63b8ff" stroke="#63b8ff" points="1111.07,-105.64 1119.75,-99.57 1109.18,-98.9 1111.07,-105.64"/>
</a>
</g>
</g>
<!-- Node14 -->
<g id="Node000014" class="node">
<title>Node14</title>
<g id="a_Node000014"><a xlink:href="namespacevalidation__api.html#aae32fd7a0b5886a49454679d46ed4bd1" target="_top" xlink:title="Validates Ahv string.">
<polygon fill="white" stroke="#666666" points="1244.88,-59.75 1095.38,-59.75 1095.38,-39 1244.88,-39 1244.88,-59.75"/>
<text text-anchor="middle" x="1170.12" y="-46.25" font-family="Helvetica,sans-Serif" font-size="10.00">validation_api::validateAhv</text>
</a>
</g>
</g>
<!-- Node9&#45;&gt;Node14 -->
<g id="edge16_Node000009_Node000014" class="edge">
<title>Node9&#45;&gt;Node14</title>
<g id="a_edge16_Node000009_Node000014"><a xlink:title=" ">
<path fill="none" stroke="#63b8ff" d="M1005.56,-138.27C1024.89,-118.82 1059.05,-87.43 1094.25,-69.38 1098.11,-67.39 1102.19,-65.59 1106.37,-63.96"/>
<polygon fill="#63b8ff" stroke="#63b8ff" points="1107.21,-67.38 1115.47,-60.75 1104.87,-60.78 1107.21,-67.38"/>
</a>
</g>
</g>
<!-- Node15 -->
<g id="Node000015" class="node">
<title>Node15</title>
<g id="a_Node000015"><a xlink:href="namespacevalidation__api.html#a0a2b975e162ced567ba3a6075684092a" target="_top" xlink:title="Validates Iban string.">
<polygon fill="white" stroke="#666666" points="1246,-20.75 1094.25,-20.75 1094.25,0 1246,0 1246,-20.75"/>
<text text-anchor="middle" x="1170.12" y="-7.25" font-family="Helvetica,sans-Serif" font-size="10.00">validation_api::validateIban</text>
</a>
</g>
</g>
<!-- Node9&#45;&gt;Node15 -->
<g id="edge17_Node000009_Node000015" class="edge">
<title>Node9&#45;&gt;Node15</title>
<g id="a_edge17_Node000009_Node000015"><a xlink:title=" ">
<path fill="none" stroke="#63b8ff" d="M998.9,-138.36C1014.96,-111.26 1050.04,-58.52 1094.25,-30.38 1096.96,-28.65 1099.82,-27.07 1102.78,-25.63"/>
<polygon fill="#63b8ff" stroke="#63b8ff" points="1103.9,-28.95 1111.72,-21.81 1101.15,-22.51 1103.9,-28.95"/>
</a>
</g>
</g>
</g>
</svg>
