<?xml version="1.0" encoding="UTF-8" standalone="no"?>
<!DOCTYPE svg PUBLIC "-//W3C//DTD SVG 1.1//EN"
 "http://www.w3.org/Graphics/SVG/1.1/DTD/svg11.dtd">
<!-- Generated by graphviz version 12.2.1 (0)
 -->
<!-- Title: validation_api::ValidationServer Pages: 1 -->
<svg width="270pt" height="460pt"
 viewBox="0.00 0.00 270.00 460.00" xmlns="http://www.w3.org/2000/svg" xmlns:xlink="http://www.w3.org/1999/xlink">
<g id="graph0" class="graph" transform="scale(1 1) rotate(0) translate(4 456)">
<title>validation_api::ValidationServer</title>
<!-- Node1 -->
<g id="Node000001" class="node">
<title>Node1</title>
<g id="a_Node000001"><a xlink:title="Class for exposing the application to the network.">
<polygon fill="#999999" stroke="none" points="182.25,-240 67,-240 67,0 182.25,0 182.25,-240"/>
<text text-anchor="start" x="71" y="-226.5" font-family="Helvetica,sans-Serif" font-size="10.00">validation_api::Validation</text>
<text text-anchor="start" x="110.38" y="-214.5" font-family="Helvetica,sans-Serif" font-size="10.00">Server</text>
<text text-anchor="start" x="76.19" y="-198.5" font-family="Helvetica,sans-Serif" font-size="10.00">&#45;</text>
<text text-anchor="start" x="88.38" y="-198.5" font-family="Helvetica,sans-Serif" font-size="10.00">running_</text>
<text text-anchor="start" x="76.19" y="-182.5" font-family="Helvetica,sans-Serif" font-size="10.00">&#45;</text>
<text text-anchor="start" x="88.38" y="-182.5" font-family="Helvetica,sans-Serif" font-size="10.00">io_context_</text>
<text text-anchor="start" x="76.19" y="-166.5" font-family="Helvetica,sans-Serif" font-size="10.00">&#45;</text>
<text text-anchor="start" x="88.38" y="-166.5" font-family="Helvetica,sans-Serif" font-size="10.00">acceptor_</text>
<text text-anchor="start" x="76.19" y="-150.5" font-family="Helvetica,sans-Serif" font-size="10.00">&#45;</text>
<text text-anchor="start" x="88.38" y="-150.5" font-family="Helvetica,sans-Serif" font-size="10.00">semaphore_</text>
<text text-anchor="start" x="76.19" y="-134.5" font-family="Helvetica,sans-Serif" font-size="10.00">&#45;</text>
<text text-anchor="start" x="88.38" y="-134.5" font-family="Helvetica,sans-Serif" font-size="10.00">logger_</text>
<text text-anchor="start" x="76.19" y="-118.5" font-family="Helvetica,sans-Serif" font-size="10.00">&#45;</text>
<text text-anchor="start" x="88.38" y="-118.5" font-family="Helvetica,sans-Serif" font-size="10.00">workGuard_</text>
<text text-anchor="start" x="74.69" y="-102.5" font-family="Helvetica,sans-Serif" font-size="10.00">+</text>
<text text-anchor="start" x="88.38" y="-102.5" font-family="Helvetica,sans-Serif" font-size="10.00">ValidationServer()</text>
<text text-anchor="start" x="74.69" y="-86.5" font-family="Helvetica,sans-Serif" font-size="10.00">+</text>
<text text-anchor="start" x="88.38" y="-86.5" font-family="Helvetica,sans-Serif" font-size="10.00">~ValidationServer()</text>
<text text-anchor="start" x="74.69" y="-70.5" font-family="Helvetica,sans-Serif" font-size="10.00">+</text>
<text text-anchor="start" x="88.38" y="-70.5" font-family="Helvetica,sans-Serif" font-size="10.00">setup()</text>
<text text-anchor="start" x="74.69" y="-54.5" font-family="Helvetica,sans-Serif" font-size="10.00">+</text>
<text text-anchor="start" x="88.38" y="-54.5" font-family="Helvetica,sans-Serif" font-size="10.00">run()</text>
<text text-anchor="start" x="74.69" y="-38.5" font-family="Helvetica,sans-Serif" font-size="10.00">+</text>
<text text-anchor="start" x="88.38" y="-38.5" font-family="Helvetica,sans-Serif" font-size="10.00">stop()</text>
<text text-anchor="start" x="76.19" y="-22.5" font-family="Helvetica,sans-Serif" font-size="10.00">&#45;</text>
<text text-anchor="start" x="88.38" y="-22.5" font-family="Helvetica,sans-Serif" font-size="10.00">accept()</text>
<text text-anchor="start" x="76.19" y="-6.5" font-family="Helvetica,sans-Serif" font-size="10.00">&#45;</text>
<text text-anchor="start" x="88.38" y="-6.5" font-family="Helvetica,sans-Serif" font-size="10.00">asyncWriter()</text>
<polygon fill="#666666" stroke="#666666" points="67,-210 67,-210 182.25,-210 182.25,-210 67,-210"/>
<polygon fill="#666666" stroke="#666666" points="67,-114 67,-114 86.38,-114 86.38,-114 67,-114"/>
<polygon fill="#666666" stroke="#666666" points="86.38,-114 86.38,-114 182.25,-114 182.25,-114 86.38,-114"/>
<polygon fill="none" stroke="#666666" points="67,0 67,-240 182.25,-240 182.25,0 67,0"/>
</a>
</g>
</g>
<!-- Node2 -->
<g id="Node000002" class="node">
<title>Node2</title>
<g id="a_Node000002"><a xlink:href="classvalidation__api_1_1IService.html" target="_top" xlink:title="Interface for all services.">
<polygon fill="white" stroke="none" points="109.25,-420 0,-420 0,-320 109.25,-320 109.25,-420"/>
<text text-anchor="start" x="4" y="-406.5" font-family="Helvetica,sans-Serif" font-size="10.00">validation_api::IService</text>
<text text-anchor="start" x="53.12" y="-390.5" font-family="Helvetica,sans-Serif" font-size="10.00"> </text>
<text text-anchor="start" x="14.81" y="-374.5" font-family="Helvetica,sans-Serif" font-size="10.00">+</text>
<text text-anchor="start" x="35.62" y="-374.5" font-family="Helvetica,sans-Serif" font-size="10.00">~IService()</text>
<text text-anchor="start" x="14.81" y="-358.5" font-family="Helvetica,sans-Serif" font-size="10.00">+</text>
<text text-anchor="start" x="35.62" y="-358.5" font-family="Helvetica,sans-Serif" font-size="10.00">run()</text>
<text text-anchor="start" x="14.81" y="-342.5" font-family="Helvetica,sans-Serif" font-size="10.00">+</text>
<text text-anchor="start" x="35.62" y="-342.5" font-family="Helvetica,sans-Serif" font-size="10.00">setup()</text>
<text text-anchor="start" x="14.81" y="-326.5" font-family="Helvetica,sans-Serif" font-size="10.00">+</text>
<text text-anchor="start" x="35.62" y="-326.5" font-family="Helvetica,sans-Serif" font-size="10.00">stop()</text>
<polygon fill="#666666" stroke="#666666" points="0,-402 0,-402 109.25,-402 109.25,-402 0,-402"/>
<polygon fill="#666666" stroke="#666666" points="0,-386 0,-386 109.25,-386 109.25,-386 0,-386"/>
<polygon fill="none" stroke="#666666" points="0,-320 0,-420 109.25,-420 109.25,-320 0,-320"/>
</a>
</g>
</g>
<!-- Node2&#45;&gt;Node1 -->
<g id="edge1_Node000001_Node000002" class="edge">
<title>Node2&#45;&gt;Node1</title>
<g id="a_edge1_Node000001_Node000002"><a xlink:title=" ">
<path fill="none" stroke="#63b8ff" d="M71.55,-309.05C77.46,-288.11 84.32,-263.79 91.11,-239.75"/>
<polygon fill="none" stroke="#63b8ff" points="68.21,-307.97 68.87,-318.55 74.95,-309.87 68.21,-307.97"/>
</a>
</g>
</g>
<!-- Node3 -->
<g id="Node000003" class="node">
<title>Node3</title>
<g id="a_Node000003"><a xlink:href="classvalidation__api_1_1ConfigService.html" target="_top" xlink:title="ConfigService class.">
<polygon fill="white" stroke="none" points="262,-452 127.25,-452 127.25,-288 262,-288 262,-452"/>
<text text-anchor="start" x="131.25" y="-438.5" font-family="Helvetica,sans-Serif" font-size="10.00">validation_api::ConfigService</text>
<text text-anchor="start" x="143.56" y="-422.5" font-family="Helvetica,sans-Serif" font-size="10.00">&#45;</text>
<text text-anchor="start" x="162.88" y="-422.5" font-family="Helvetica,sans-Serif" font-size="10.00">rwMutex_</text>
<text text-anchor="start" x="143.56" y="-406.5" font-family="Helvetica,sans-Serif" font-size="10.00">&#45;</text>
<text text-anchor="start" x="162.88" y="-406.5" font-family="Helvetica,sans-Serif" font-size="10.00">configs_</text>
<text text-anchor="start" x="143.56" y="-390.5" font-family="Helvetica,sans-Serif" font-size="10.00">&#45;</text>
<text text-anchor="start" x="162.88" y="-390.5" font-family="Helvetica,sans-Serif" font-size="10.00">logger_</text>
<text text-anchor="start" x="142.06" y="-374.5" font-family="Helvetica,sans-Serif" font-size="10.00">+</text>
<text text-anchor="start" x="162.88" y="-374.5" font-family="Helvetica,sans-Serif" font-size="10.00">ConfigService()</text>
<text text-anchor="start" x="142.06" y="-358.5" font-family="Helvetica,sans-Serif" font-size="10.00">+</text>
<text text-anchor="start" x="162.88" y="-358.5" font-family="Helvetica,sans-Serif" font-size="10.00">~ConfigService()</text>
<text text-anchor="start" x="142.06" y="-342.5" font-family="Helvetica,sans-Serif" font-size="10.00">+</text>
<text text-anchor="start" x="162.88" y="-342.5" font-family="Helvetica,sans-Serif" font-size="10.00">getConfig()</text>
<text text-anchor="start" x="142.06" y="-326.5" font-family="Helvetica,sans-Serif" font-size="10.00">+</text>
<text text-anchor="start" x="162.88" y="-326.5" font-family="Helvetica,sans-Serif" font-size="10.00">createConfig()</text>
<text text-anchor="start" x="142.06" y="-310.5" font-family="Helvetica,sans-Serif" font-size="10.00">+</text>
<text text-anchor="start" x="162.88" y="-310.5" font-family="Helvetica,sans-Serif" font-size="10.00">deleteConfig()</text>
<text text-anchor="start" x="142.06" y="-294.5" font-family="Helvetica,sans-Serif" font-size="10.00">+</text>
<text text-anchor="start" x="162.88" y="-294.5" font-family="Helvetica,sans-Serif" font-size="10.00">validateConfig()</text>
<polygon fill="#666666" stroke="#666666" points="127.25,-434 127.25,-434 262,-434 262,-434 127.25,-434"/>
<polygon fill="#666666" stroke="#666666" points="127.25,-386 127.25,-386 160.88,-386 160.88,-386 127.25,-386"/>
<polygon fill="#666666" stroke="#666666" points="160.88,-386 160.88,-386 262,-386 262,-386 160.88,-386"/>
<polygon fill="none" stroke="#666666" points="127.25,-288 127.25,-452 262,-452 262,-288 127.25,-288"/>
</a>
</g>
</g>
<!-- Node3&#45;&gt;Node1 -->
<g id="edge2_Node000001_Node000003" class="edge">
<title>Node3&#45;&gt;Node1</title>
<g id="a_edge2_Node000001_Node000003"><a xlink:title=" ">
<path fill="none" stroke="#63b8ff" d="M171.8,-288.14C168.51,-276.48 165.05,-264.23 161.57,-251.9"/>
<polygon fill="none" stroke="#63b8ff" points="161.59,-251.97 156.11,-247.28 158.33,-240.42 163.81,-245.11 161.59,-251.97"/>
</a>
</g>
<text text-anchor="middle" x="187.27" y="-260.5" font-family="Helvetica,sans-Serif" font-size="10.00" fill="grey"> &#45;service_</text>
</g>
</g>
</svg>
