<?xml version="1.0" encoding="UTF-8" standalone="no"?>
<!DOCTYPE svg PUBLIC "-//W3C//DTD SVG 1.1//EN"
 "http://www.w3.org/Graphics/SVG/1.1/DTD/svg11.dtd">
<!-- Generated by graphviz version 12.2.1 (0)
 -->
<!-- Title: validation_api::ConfigWatcher::ConfigWatcher Pages: 1 -->
<svg width="861pt" height="179pt"
 viewBox="0.00 0.00 860.50 179.00" xmlns="http://www.w3.org/2000/svg" xmlns:xlink="http://www.w3.org/1999/xlink">
<g id="graph0" class="graph" transform="scale(1 1) rotate(0) translate(4 175)">
<title>validation_api::ConfigWatcher::ConfigWatcher</title>
<!-- Node1 -->
<g id="Node000001" class="node">
<title>Node1</title>
<g id="a_Node000001"><a xlink:title=" ">
<polygon fill="#999999" stroke="#666666" points="145.75,-76 0,-76 0,-44 145.75,-44 145.75,-76"/>
<text text-anchor="start" x="8" y="-62.5" font-family="Helvetica,sans-Serif" font-size="10.00">validation_api::ConfigWatcher</text>
<text text-anchor="middle" x="72.88" y="-50.5" font-family="Helvetica,sans-Serif" font-size="10.00">::ConfigWatcher</text>
</a>
</g>
</g>
<!-- Node2 -->
<g id="Node000002" class="node">
<title>Node2</title>
<g id="a_Node000002"><a xlink:href="classvalidation__api_1_1ConfigWatcher.html#a13e118f62a6b13b780f44e12d5afed78" target="_top" xlink:title="Start ConfigWatcher.">
<polygon fill="white" stroke="#666666" points="347,-70 181.75,-70 181.75,-50 347,-50 347,-70"/>
<text text-anchor="middle" x="264.38" y="-56.5" font-family="Helvetica,sans-Serif" font-size="10.00">validation_api::ConfigWatcher::run</text>
</a>
</g>
</g>
<!-- Node1&#45;&gt;Node2 -->
<g id="edge1_Node000001_Node000002" class="edge">
<title>Node1&#45;&gt;Node2</title>
<g id="a_edge1_Node000001_Node000002"><a xlink:title=" ">
<path fill="none" stroke="#63b8ff" d="M146.06,-60C153.88,-60 161.92,-60 169.94,-60"/>
<polygon fill="#63b8ff" stroke="#63b8ff" points="169.74,-63.5 179.74,-60 169.74,-56.5 169.74,-63.5"/>
</a>
</g>
</g>
<!-- Node10 -->
<g id="Node000010" class="node">
<title>Node10</title>
<g id="a_Node000010"><a xlink:href="classvalidation__api_1_1ConfigWatcher.html#a6f8a66478001a8a0515344aac1fd0395" target="_top" xlink:title="Setup the ConfigWatcher.">
<polygon fill="white" stroke="#666666" points="337.25,-120 191.5,-120 191.5,-88 337.25,-88 337.25,-120"/>
<text text-anchor="start" x="199.5" y="-106.5" font-family="Helvetica,sans-Serif" font-size="10.00">validation_api::ConfigWatcher</text>
<text text-anchor="middle" x="264.38" y="-94.5" font-family="Helvetica,sans-Serif" font-size="10.00">::setup</text>
</a>
</g>
</g>
<!-- Node1&#45;&gt;Node10 -->
<g id="edge10_Node000001_Node000010" class="edge">
<title>Node1&#45;&gt;Node10</title>
<g id="a_edge10_Node000001_Node000010"><a xlink:title=" ">
<path fill="none" stroke="#63b8ff" d="M144.71,-76.45C156.62,-79.21 169.07,-82.1 181.24,-84.93"/>
<polygon fill="#63b8ff" stroke="#63b8ff" points="180.31,-88.31 190.84,-87.16 181.89,-81.49 180.31,-88.31"/>
</a>
</g>
</g>
<!-- Node11 -->
<g id="Node000011" class="node">
<title>Node11</title>
<g id="a_Node000011"><a xlink:href="classvalidation__api_1_1ConfigWatcher.html#ac67b7bc5802f99796c903d2fdac92648" target="_top" xlink:title="Stop the ConfigWatcher.">
<polygon fill="white" stroke="#666666" points="337.25,-32 191.5,-32 191.5,0 337.25,0 337.25,-32"/>
<text text-anchor="start" x="199.5" y="-18.5" font-family="Helvetica,sans-Serif" font-size="10.00">validation_api::ConfigWatcher</text>
<text text-anchor="middle" x="264.38" y="-6.5" font-family="Helvetica,sans-Serif" font-size="10.00">::stop</text>
</a>
</g>
</g>
<!-- Node1&#45;&gt;Node11 -->
<g id="edge12_Node000001_Node000011" class="edge">
<title>Node1&#45;&gt;Node11</title>
<g id="a_edge12_Node000001_Node000011"><a xlink:title=" ">
<path fill="none" stroke="#63b8ff" d="M144.71,-43.55C156.62,-40.79 169.07,-37.9 181.24,-35.07"/>
<polygon fill="#63b8ff" stroke="#63b8ff" points="181.89,-38.51 190.84,-32.84 180.31,-31.69 181.89,-38.51"/>
</a>
</g>
</g>
<!-- Node3 -->
<g id="Node000003" class="node">
<title>Node3</title>
<g id="a_Node000003"><a xlink:href="classvalidation__api_1_1ConfigWatcher.html#a78820bcf2ebf9135785e207aae042e72" target="_top" xlink:title=" ">
<polygon fill="white" stroke="#666666" points="528.75,-120 383,-120 383,-88 528.75,-88 528.75,-120"/>
<text text-anchor="start" x="391" y="-106.5" font-family="Helvetica,sans-Serif" font-size="10.00">validation_api::ConfigWatcher</text>
<text text-anchor="middle" x="455.88" y="-94.5" font-family="Helvetica,sans-Serif" font-size="10.00">::read_file</text>
</a>
</g>
</g>
<!-- Node2&#45;&gt;Node3 -->
<g id="edge2_Node000002_Node000003" class="edge">
<title>Node2&#45;&gt;Node3</title>
<g id="a_edge2_Node000002_Node000003"><a xlink:title=" ">
<path fill="none" stroke="#63b8ff" d="M310.28,-70.43C329.02,-74.78 351.39,-79.97 372.86,-84.96"/>
<polygon fill="#63b8ff" stroke="#63b8ff" points="371.98,-88.35 382.52,-87.2 373.57,-81.53 371.98,-88.35"/>
</a>
</g>
</g>
<!-- Node9 -->
<g id="Node000009" class="node">
<title>Node9</title>
<g id="a_Node000009"><a xlink:href="ConfigWatcher_8cpp.html#af492780bc7786abac56fa242d4fc3045" target="_top" xlink:title=" ">
<polygon fill="white" stroke="#666666" points="487.88,-70 423.88,-70 423.88,-50 487.88,-50 487.88,-70"/>
<text text-anchor="middle" x="455.88" y="-56.5" font-family="Helvetica,sans-Serif" font-size="10.00">semaphore</text>
</a>
</g>
</g>
<!-- Node2&#45;&gt;Node9 -->
<g id="edge9_Node000002_Node000009" class="edge">
<title>Node2&#45;&gt;Node9</title>
<g id="a_edge9_Node000002_Node000009"><a xlink:title=" ">
<path fill="none" stroke="#63b8ff" d="M347.39,-60C369.76,-60 393.09,-60 412.27,-60"/>
<polygon fill="#63b8ff" stroke="#63b8ff" points="412.12,-63.5 422.12,-60 412.12,-56.5 412.12,-63.5"/>
</a>
</g>
</g>
<!-- Node4 -->
<g id="Node000004" class="node">
<title>Node4</title>
<g id="a_Node000004"><a xlink:href="namespacevalidation__api.html#aa82c6b3a43b6e6b59b529c22944cadca" target="_top" xlink:title="Ensures valid Xml configuration.">
<polygon fill="white" stroke="#666666" points="679.75,-120 564.75,-120 564.75,-88 679.75,-88 679.75,-120"/>
<text text-anchor="start" x="572.75" y="-106.5" font-family="Helvetica,sans-Serif" font-size="10.00">validation_api::validate</text>
<text text-anchor="middle" x="622.25" y="-94.5" font-family="Helvetica,sans-Serif" font-size="10.00">XmlConfig</text>
</a>
</g>
</g>
<!-- Node3&#45;&gt;Node4 -->
<g id="edge3_Node000003_Node000004" class="edge">
<title>Node3&#45;&gt;Node4</title>
<g id="a_edge3_Node000003_Node000004"><a xlink:title=" ">
<path fill="none" stroke="#63b8ff" d="M528.97,-104C536.97,-104 545.1,-104 553.05,-104"/>
<polygon fill="#63b8ff" stroke="#63b8ff" points="553.01,-107.5 563.01,-104 553.01,-100.5 553.01,-107.5"/>
</a>
</g>
</g>
<!-- Node4&#45;&gt;Node4 -->
<g id="edge8_Node000004_Node000004" class="edge">
<title>Node4&#45;&gt;Node4</title>
<g id="a_edge8_Node000004_Node000004"><a xlink:title=" ">
<path fill="none" stroke="#63b8ff" d="M593.35,-120.44C587.96,-129.58 597.59,-138 622.25,-138 635.74,-138 644.73,-135.48 649.23,-131.71"/>
<polygon fill="#63b8ff" stroke="#63b8ff" points="652.66,-132.38 650.89,-121.93 645.76,-131.2 652.66,-132.38"/>
</a>
</g>
</g>
<!-- Node5 -->
<g id="Node000005" class="node">
<title>Node5</title>
<g id="a_Node000005"><a xlink:href="namespacevalidation__api.html#a0c0f34d744f57bb06458867fbee4b7a9" target="_top" xlink:title="Insert an error into a json object.">
<polygon fill="white" stroke="#666666" points="852.5,-171 715.75,-171 715.75,-151 852.5,-151 852.5,-171"/>
<text text-anchor="middle" x="784.12" y="-157.5" font-family="Helvetica,sans-Serif" font-size="10.00">validation_api::insertToJson</text>
</a>
</g>
</g>
<!-- Node4&#45;&gt;Node5 -->
<g id="edge4_Node000004_Node000005" class="edge">
<title>Node4&#45;&gt;Node5</title>
<g id="a_edge4_Node000004_Node000005"><a xlink:title=" ">
<path fill="none" stroke="#63b8ff" d="M660.23,-120.33C677.01,-127.45 697.21,-135.6 715.75,-142 721.14,-143.86 726.82,-145.68 732.5,-147.4"/>
<polygon fill="#63b8ff" stroke="#63b8ff" points="731.31,-150.7 741.89,-150.17 733.29,-143.99 731.31,-150.7"/>
</a>
</g>
</g>
<!-- Node6 -->
<g id="Node000006" class="node">
<title>Node6</title>
<g id="a_Node000006"><a xlink:href="namespacevalidation__api.html#ac497c1198e4e7f0fe71ffbdb3e6beeaa" target="_top" xlink:title="Convert string to float.">
<polygon fill="white" stroke="#666666" points="839.38,-133 728.88,-133 728.88,-113 839.38,-113 839.38,-133"/>
<text text-anchor="middle" x="784.12" y="-119.5" font-family="Helvetica,sans-Serif" font-size="10.00">validation_api::isFloat</text>
</a>
</g>
</g>
<!-- Node4&#45;&gt;Node6 -->
<g id="edge5_Node000004_Node000006" class="edge">
<title>Node4&#45;&gt;Node6</title>
<g id="a_edge5_Node000004_Node000006"><a xlink:title=" ">
<path fill="none" stroke="#63b8ff" d="M680.07,-110.75C692.16,-112.19 705.03,-113.72 717.42,-115.19"/>
<polygon fill="#63b8ff" stroke="#63b8ff" points="716.79,-118.64 727.13,-116.35 717.62,-111.69 716.79,-118.64"/>
</a>
</g>
</g>
<!-- Node7 -->
<g id="Node000007" class="node">
<title>Node7</title>
<g id="a_Node000007"><a xlink:href="namespacevalidation__api.html#ac19e25b4d8364b0f52152440dd5ecbda" target="_top" xlink:title=" ">
<polygon fill="white" stroke="#666666" points="849.12,-95 719.12,-95 719.12,-75 849.12,-75 849.12,-95"/>
<text text-anchor="middle" x="784.12" y="-81.5" font-family="Helvetica,sans-Serif" font-size="10.00">validation_api::isValidUuid</text>
</a>
</g>
</g>
<!-- Node4&#45;&gt;Node7 -->
<g id="edge6_Node000004_Node000007" class="edge">
<title>Node4&#45;&gt;Node7</title>
<g id="a_edge6_Node000004_Node000007"><a xlink:title=" ">
<path fill="none" stroke="#63b8ff" d="M680.07,-97.25C689,-96.19 698.35,-95.07 707.63,-93.97"/>
<polygon fill="#63b8ff" stroke="#63b8ff" points="707.85,-97.47 717.36,-92.82 707.02,-90.52 707.85,-97.47"/>
</a>
</g>
</g>
<!-- Node8 -->
<g id="Node000008" class="node">
<title>Node8</title>
<g id="a_Node000008"><a xlink:href="namespacevalidation__api.html#a6dd56dcf7358b332bb906a2d27fddd0b" target="_top" xlink:title="Converts string to all lowercase.">
<polygon fill="white" stroke="#666666" points="842,-57 726.25,-57 726.25,-37 842,-37 842,-57"/>
<text text-anchor="middle" x="784.12" y="-43.5" font-family="Helvetica,sans-Serif" font-size="10.00">validation_api::toLower</text>
</a>
</g>
</g>
<!-- Node4&#45;&gt;Node8 -->
<g id="edge7_Node000004_Node000008" class="edge">
<title>Node4&#45;&gt;Node8</title>
<g id="a_edge7_Node000004_Node000008"><a xlink:title=" ">
<path fill="none" stroke="#63b8ff" d="M660.23,-87.67C677.01,-80.55 697.21,-72.4 715.75,-66 721.14,-64.14 726.82,-62.32 732.5,-60.6"/>
<polygon fill="#63b8ff" stroke="#63b8ff" points="733.29,-64.01 741.89,-57.83 731.31,-57.3 733.29,-64.01"/>
</a>
</g>
</g>
<!-- Node10&#45;&gt;Node3 -->
<g id="edge11_Node000010_Node000003" class="edge">
<title>Node10&#45;&gt;Node3</title>
<g id="a_edge11_Node000010_Node000003"><a xlink:title=" ">
<path fill="none" stroke="#63b8ff" d="M337.56,-104C348.62,-104 360.11,-104 371.4,-104"/>
<polygon fill="#63b8ff" stroke="#63b8ff" points="371.07,-107.5 381.07,-104 371.07,-100.5 371.07,-107.5"/>
</a>
</g>
</g>
</g>
</svg>
