<?xml version="1.0" encoding="UTF-8" standalone="no"?>
<!DOCTYPE svg PUBLIC "-//W3C//DTD SVG 1.1//EN"
 "http://www.w3.org/Graphics/SVG/1.1/DTD/svg11.dtd">
<!-- Generated by graphviz version 12.2.1 (0)
 -->
<!-- Title: validation_api::ConfigWatcher Pages: 1 -->
<svg width="146pt" height="420pt"
 viewBox="0.00 0.00 145.75 420.00" xmlns="http://www.w3.org/2000/svg" xmlns:xlink="http://www.w3.org/1999/xlink">
<g id="graph0" class="graph" transform="scale(1 1) rotate(0) translate(4 416)">
<title>validation_api::ConfigWatcher</title>
<!-- Node1 -->
<g id="Node000001" class="node">
<title>Node1</title>
<g id="a_Node000001"><a xlink:title="Class to watch for changes in a directory.">
<polygon fill="#999999" stroke="none" points="137.75,-276 0,-276 0,0 137.75,0 137.75,-276"/>
<text text-anchor="start" x="4" y="-262.5" font-family="Helvetica,sans-Serif" font-size="10.00">validation_api::ConfigWatcher</text>
<text text-anchor="start" x="15.56" y="-246.5" font-family="Helvetica,sans-Serif" font-size="10.00">&#45;</text>
<text text-anchor="start" x="34.12" y="-246.5" font-family="Helvetica,sans-Serif" font-size="10.00">fileAssocation_</text>
<text text-anchor="start" x="15.56" y="-230.5" font-family="Helvetica,sans-Serif" font-size="10.00">&#45;</text>
<text text-anchor="start" x="34.12" y="-230.5" font-family="Helvetica,sans-Serif" font-size="10.00">callback_</text>
<text text-anchor="start" x="15.56" y="-214.5" font-family="Helvetica,sans-Serif" font-size="10.00">&#45;</text>
<text text-anchor="start" x="34.12" y="-214.5" font-family="Helvetica,sans-Serif" font-size="10.00">service_</text>
<text text-anchor="start" x="15.56" y="-198.5" font-family="Helvetica,sans-Serif" font-size="10.00">&#45;</text>
<text text-anchor="start" x="34.12" y="-198.5" font-family="Helvetica,sans-Serif" font-size="10.00">io_context_</text>
<text text-anchor="start" x="15.56" y="-182.5" font-family="Helvetica,sans-Serif" font-size="10.00">&#45;</text>
<text text-anchor="start" x="34.12" y="-182.5" font-family="Helvetica,sans-Serif" font-size="10.00">path_</text>
<text text-anchor="start" x="15.56" y="-166.5" font-family="Helvetica,sans-Serif" font-size="10.00">&#45;</text>
<text text-anchor="start" x="34.12" y="-166.5" font-family="Helvetica,sans-Serif" font-size="10.00">running_</text>
<text text-anchor="start" x="15.56" y="-150.5" font-family="Helvetica,sans-Serif" font-size="10.00">&#45;</text>
<text text-anchor="start" x="34.12" y="-150.5" font-family="Helvetica,sans-Serif" font-size="10.00">watcherThread</text>
<text text-anchor="start" x="15.56" y="-134.5" font-family="Helvetica,sans-Serif" font-size="10.00">&#45;</text>
<text text-anchor="start" x="34.12" y="-134.5" font-family="Helvetica,sans-Serif" font-size="10.00">inotify_fd_</text>
<text text-anchor="start" x="15.56" y="-118.5" font-family="Helvetica,sans-Serif" font-size="10.00">&#45;</text>
<text text-anchor="start" x="34.12" y="-118.5" font-family="Helvetica,sans-Serif" font-size="10.00">watch_descriptor_</text>
<text text-anchor="start" x="15.56" y="-102.5" font-family="Helvetica,sans-Serif" font-size="10.00">&#45;</text>
<text text-anchor="start" x="34.12" y="-102.5" font-family="Helvetica,sans-Serif" font-size="10.00">logger_</text>
<text text-anchor="start" x="14.06" y="-86.5" font-family="Helvetica,sans-Serif" font-size="10.00">+</text>
<text text-anchor="start" x="34.12" y="-86.5" font-family="Helvetica,sans-Serif" font-size="10.00">ConfigWatcher()</text>
<text text-anchor="start" x="14.06" y="-70.5" font-family="Helvetica,sans-Serif" font-size="10.00">+</text>
<text text-anchor="start" x="34.12" y="-70.5" font-family="Helvetica,sans-Serif" font-size="10.00">~ConfigWatcher()</text>
<text text-anchor="start" x="14.06" y="-54.5" font-family="Helvetica,sans-Serif" font-size="10.00">+</text>
<text text-anchor="start" x="34.12" y="-54.5" font-family="Helvetica,sans-Serif" font-size="10.00">read_file()</text>
<text text-anchor="start" x="14.06" y="-38.5" font-family="Helvetica,sans-Serif" font-size="10.00">+</text>
<text text-anchor="start" x="34.12" y="-38.5" font-family="Helvetica,sans-Serif" font-size="10.00">run()</text>
<text text-anchor="start" x="14.06" y="-22.5" font-family="Helvetica,sans-Serif" font-size="10.00">+</text>
<text text-anchor="start" x="34.12" y="-22.5" font-family="Helvetica,sans-Serif" font-size="10.00">setup()</text>
<text text-anchor="start" x="14.06" y="-6.5" font-family="Helvetica,sans-Serif" font-size="10.00">+</text>
<text text-anchor="start" x="34.12" y="-6.5" font-family="Helvetica,sans-Serif" font-size="10.00">stop()</text>
<polygon fill="#666666" stroke="#666666" points="0,-258 0,-258 137.75,-258 137.75,-258 0,-258"/>
<polygon fill="#666666" stroke="#666666" points="0,-98 0,-98 32.12,-98 32.12,-98 0,-98"/>
<polygon fill="#666666" stroke="#666666" points="32.12,-98 32.12,-98 137.75,-98 137.75,-98 32.12,-98"/>
<polygon fill="none" stroke="#666666" points="0,0 0,-276 137.75,-276 137.75,0 0,0"/>
</a>
</g>
</g>
<!-- Node2 -->
<g id="Node000002" class="node">
<title>Node2</title>
<g id="a_Node000002"><a xlink:href="classvalidation__api_1_1IService.html" target="_top" xlink:title="Interface for all services.">
<polygon fill="white" stroke="none" points="123.5,-412 14.25,-412 14.25,-312 123.5,-312 123.5,-412"/>
<text text-anchor="start" x="18.25" y="-398.5" font-family="Helvetica,sans-Serif" font-size="10.00">validation_api::IService</text>
<text text-anchor="start" x="67.38" y="-382.5" font-family="Helvetica,sans-Serif" font-size="10.00"> </text>
<text text-anchor="start" x="29.06" y="-366.5" font-family="Helvetica,sans-Serif" font-size="10.00">+</text>
<text text-anchor="start" x="49.88" y="-366.5" font-family="Helvetica,sans-Serif" font-size="10.00">~IService()</text>
<text text-anchor="start" x="29.06" y="-350.5" font-family="Helvetica,sans-Serif" font-size="10.00">+</text>
<text text-anchor="start" x="49.88" y="-350.5" font-family="Helvetica,sans-Serif" font-size="10.00">run()</text>
<text text-anchor="start" x="29.06" y="-334.5" font-family="Helvetica,sans-Serif" font-size="10.00">+</text>
<text text-anchor="start" x="49.88" y="-334.5" font-family="Helvetica,sans-Serif" font-size="10.00">setup()</text>
<text text-anchor="start" x="29.06" y="-318.5" font-family="Helvetica,sans-Serif" font-size="10.00">+</text>
<text text-anchor="start" x="49.88" y="-318.5" font-family="Helvetica,sans-Serif" font-size="10.00">stop()</text>
<polygon fill="#666666" stroke="#666666" points="14.25,-394 14.25,-394 123.5,-394 123.5,-394 14.25,-394"/>
<polygon fill="#666666" stroke="#666666" points="14.25,-378 14.25,-378 123.5,-378 123.5,-378 14.25,-378"/>
<polygon fill="none" stroke="#666666" points="14.25,-312 14.25,-412 123.5,-412 123.5,-312 14.25,-312"/>
</a>
</g>
</g>
<!-- Node2&#45;&gt;Node1 -->
<g id="edge1_Node000001_Node000002" class="edge">
<title>Node2&#45;&gt;Node1</title>
<g id="a_edge1_Node000001_Node000002"><a xlink:title=" ">
<path fill="none" stroke="#63b8ff" d="M68.88,-300.7C68.88,-292.75 68.88,-284.36 68.88,-275.75"/>
<polygon fill="none" stroke="#63b8ff" points="65.38,-300.49 68.88,-310.49 72.38,-300.49 65.38,-300.49"/>
</a>
</g>
</g>
</g>
</svg>
