<?xml version="1.0" encoding="UTF-8" standalone="no"?>
<!DOCTYPE svg PUBLIC "-//W3C//DTD SVG 1.1//EN"
 "http://www.w3.org/Graphics/SVG/1.1/DTD/svg11.dtd">
<!-- Generated by graphviz version 10.0.1 (0)
 -->
<!-- Title: validation_api::ConfigService::validateConfig Pages: 1 -->
<svg width="1087pt" height="525pt"
 viewBox="0.00 0.00 1087.25 524.50" xmlns="http://www.w3.org/2000/svg" xmlns:xlink="http://www.w3.org/1999/xlink">
<g id="graph0" class="graph" transform="scale(1 1) rotate(0) translate(4 520.5)">
<title>validation_api::ConfigService::validateConfig</title>
<!-- Node1 -->
<g id="Node000001" class="node">
<title>Node1</title>
<g id="a_Node000001"><a xlink:title="getConfigs method">
<polygon fill="#999999" stroke="#666666" points="157.75,-96.5 0,-96.5 0,-63 157.75,-63 157.75,-96.5"/>
<text text-anchor="start" x="8" y="-83" font-family="Helvetica,sans-Serif" font-size="10.00">validation_api::ConfigService</text>
<text text-anchor="middle" x="78.88" y="-70.25" font-family="Helvetica,sans-Serif" font-size="10.00">::validateConfig</text>
</a>
</g>
</g>
<!-- Node2 -->
<g id="Node000002" class="node">
<title>Node2</title>
<g id="a_Node000002"><a xlink:href="classvalidation__api_1_1Validation.html#ac6c337d3af39943a8e603a5f21f5922a" target="_top" xlink:title=" ">
<polygon fill="white" stroke="#666666" points="355.25,-90.12 193.75,-90.12 193.75,-69.38 355.25,-69.38 355.25,-90.12"/>
<text text-anchor="middle" x="274.5" y="-76.62" font-family="Helvetica,sans-Serif" font-size="10.00">validation_api::Validation::run</text>
</a>
</g>
</g>
<!-- Node1&#45;&gt;Node2 -->
<g id="edge1_Node000001_Node000002" class="edge">
<title>Node1&#45;&gt;Node2</title>
<g id="a_edge1_Node000001_Node000002"><a xlink:title=" ">
<path fill="none" stroke="#63b8ff" d="M158.07,-79.75C165.99,-79.75 174.08,-79.75 182.12,-79.75"/>
<polygon fill="#63b8ff" stroke="#63b8ff" points="181.92,-83.25 191.92,-79.75 181.92,-76.25 181.92,-83.25"/>
</a>
</g>
</g>
<!-- Node3 -->
<g id="Node000003" class="node">
<title>Node3</title>
<g id="a_Node000003"><a xlink:href="namespacevalidation__api.html#ac3e8e6ef097973f55220fc4fdeb08dc2" target="_top" xlink:title="Error builder.">
<polygon fill="white" stroke="#666666" points="1079.25,-151.12 930.5,-151.12 930.5,-130.38 1079.25,-130.38 1079.25,-151.12"/>
<text text-anchor="middle" x="1004.88" y="-137.62" font-family="Helvetica,sans-Serif" font-size="10.00">validation_api::errorBuilder</text>
</a>
</g>
</g>
<!-- Node2&#45;&gt;Node3 -->
<g id="edge2_Node000002_Node000003" class="edge">
<title>Node2&#45;&gt;Node3</title>
<g id="a_edge2_Node000002_Node000003"><a xlink:title=" ">
<path fill="none" stroke="#63b8ff" d="M355.67,-85.72C473.72,-94.63 701.23,-112.23 894.5,-129.75 902.41,-130.47 910.63,-131.24 918.86,-132.04"/>
<polygon fill="#63b8ff" stroke="#63b8ff" points="918.26,-135.49 928.55,-132.98 918.94,-128.53 918.26,-135.49"/>
</a>
</g>
</g>
<!-- Node4 -->
<g id="Node000004" class="node">
<title>Node4</title>
<g id="a_Node000004"><a xlink:href="classvalidation__api_1_1Validation.html#a21b9aefd80be5a639d2aa5e4c8ebe945" target="_top" xlink:title=" ">
<polygon fill="white" stroke="#666666" points="531,-33.5 391.25,-33.5 391.25,0 531,0 531,-33.5"/>
<text text-anchor="start" x="399.25" y="-20" font-family="Helvetica,sans-Serif" font-size="10.00">validation_api::Validation</text>
<text text-anchor="middle" x="461.12" y="-7.25" font-family="Helvetica,sans-Serif" font-size="10.00">::fillRequestList</text>
</a>
</g>
</g>
<!-- Node2&#45;&gt;Node4 -->
<g id="edge3_Node000002_Node000004" class="edge">
<title>Node2&#45;&gt;Node4</title>
<g id="a_edge3_Node000002_Node000004"><a xlink:title=" ">
<path fill="none" stroke="#63b8ff" d="M307.24,-68.92C332.42,-60.33 368.36,-48.06 399.07,-37.59"/>
<polygon fill="#63b8ff" stroke="#63b8ff" points="399.92,-40.99 408.25,-34.45 397.66,-34.37 399.92,-40.99"/>
</a>
</g>
</g>
<!-- Node5 -->
<g id="Node000005" class="node">
<title>Node5</title>
<g id="a_Node000005"><a xlink:href="classvalidation__api_1_1Validation.html#a3c8146fc89af5b8cef0c1bb6c9d473f2" target="_top" xlink:title="Traverse through the json object and validate the fields.">
<polygon fill="white" stroke="#666666" points="531,-221.5 391.25,-221.5 391.25,-188 531,-188 531,-221.5"/>
<text text-anchor="start" x="399.25" y="-208" font-family="Helvetica,sans-Serif" font-size="10.00">validation_api::Validation</text>
<text text-anchor="middle" x="461.12" y="-195.25" font-family="Helvetica,sans-Serif" font-size="10.00">::traverseAndValidate</text>
</a>
</g>
</g>
<!-- Node2&#45;&gt;Node5 -->
<g id="edge5_Node000002_Node000005" class="edge">
<title>Node2&#45;&gt;Node5</title>
<g id="a_edge5_Node000002_Node000005"><a xlink:title=" ">
<path fill="none" stroke="#63b8ff" d="M291.56,-90.62C321.22,-110.71 385.22,-154.04 425.27,-181.15"/>
<polygon fill="#63b8ff" stroke="#63b8ff" points="423.16,-183.95 433.4,-186.66 427.08,-178.15 423.16,-183.95"/>
</a>
</g>
</g>
<!-- Node4&#45;&gt;Node4 -->
<g id="edge4_Node000004_Node000004" class="edge">
<title>Node4&#45;&gt;Node4</title>
<g id="a_edge4_Node000004_Node000004"><a xlink:title=" ">
<path fill="none" stroke="#63b8ff" d="M429.53,-33.91C424.16,-43.12 434.69,-51.5 461.12,-51.5 475.99,-51.5 485.83,-48.85 490.64,-44.89"/>
<polygon fill="#63b8ff" stroke="#63b8ff" points="494.01,-45.88 492.44,-35.4 487.13,-44.57 494.01,-45.88"/>
</a>
</g>
</g>
<!-- Node5&#45;&gt;Node3 -->
<g id="edge6_Node000005_Node000003" class="edge">
<title>Node5&#45;&gt;Node3</title>
<g id="a_edge6_Node000005_Node000003"><a xlink:title=" ">
<path fill="none" stroke="#63b8ff" d="M516.27,-187.56C572.28,-170.75 662.61,-146.32 742.75,-136.75 809.72,-128.75 827.07,-135.52 894.5,-136.75 902.31,-136.89 910.44,-137.09 918.57,-137.33"/>
<polygon fill="#63b8ff" stroke="#63b8ff" points="918.43,-140.83 928.54,-137.64 918.65,-133.83 918.43,-140.83"/>
</a>
</g>
</g>
<!-- Node5&#45;&gt;Node5 -->
<g id="edge9_Node000005_Node000005" class="edge">
<title>Node5&#45;&gt;Node5</title>
<g id="a_edge9_Node000005_Node000005"><a xlink:title=" ">
<path fill="none" stroke="#63b8ff" d="M429.53,-221.91C424.16,-231.12 434.69,-239.5 461.12,-239.5 475.99,-239.5 485.83,-236.85 490.64,-232.89"/>
<polygon fill="#63b8ff" stroke="#63b8ff" points="494.01,-233.88 492.44,-223.4 487.13,-232.57 494.01,-233.88"/>
</a>
</g>
</g>
<!-- Node6 -->
<g id="Node000006" class="node">
<title>Node6</title>
<g id="a_Node000006"><a xlink:href="classvalidation__api_1_1Validation.html#a49e598a8189b6bd6edf1ecdb00ae8b9d" target="_top" xlink:title=" ">
<polygon fill="white" stroke="#666666" points="1074.75,-498.5 935,-498.5 935,-465 1074.75,-465 1074.75,-498.5"/>
<text text-anchor="start" x="943" y="-485" font-family="Helvetica,sans-Serif" font-size="10.00">validation_api::Validation</text>
<text text-anchor="middle" x="1004.88" y="-472.25" font-family="Helvetica,sans-Serif" font-size="10.00">::findJsonField</text>
</a>
</g>
</g>
<!-- Node5&#45;&gt;Node6 -->
<g id="edge7_Node000005_Node000006" class="edge">
<title>Node5&#45;&gt;Node6</title>
<g id="a_edge7_Node000005_Node000006"><a xlink:title=" ">
<path fill="none" stroke="#63b8ff" d="M472.17,-221.86C503.86,-273.86 607.65,-429.96 742.75,-485.75 799.87,-509.34 870.19,-506.67 923.46,-499.03"/>
<polygon fill="#63b8ff" stroke="#63b8ff" points="923.71,-502.53 933.06,-497.56 922.65,-495.61 923.71,-502.53"/>
</a>
</g>
</g>
<!-- Node7 -->
<g id="Node000007" class="node">
<title>Node7</title>
<g id="a_Node000007"><a xlink:href="classvalidation__api_1_1Validation.html#a1cc0802269d88c233ad3c3d1d6c3dd12" target="_top" xlink:title=" ">
<polygon fill="white" stroke="#666666" points="706.75,-301.5 567,-301.5 567,-268 706.75,-268 706.75,-301.5"/>
<text text-anchor="start" x="575" y="-288" font-family="Helvetica,sans-Serif" font-size="10.00">validation_api::Validation</text>
<text text-anchor="middle" x="636.88" y="-275.25" font-family="Helvetica,sans-Serif" font-size="10.00">::validate</text>
</a>
</g>
</g>
<!-- Node5&#45;&gt;Node7 -->
<g id="edge10_Node000005_Node000007" class="edge">
<title>Node5&#45;&gt;Node7</title>
<g id="a_edge10_Node000005_Node000007"><a xlink:title=" ">
<path fill="none" stroke="#63b8ff" d="M499.4,-221.91C525.39,-233.88 560.3,-249.95 588.3,-262.85"/>
<polygon fill="#63b8ff" stroke="#63b8ff" points="586.74,-265.98 597.29,-266.98 589.67,-259.62 586.74,-265.98"/>
</a>
</g>
</g>
<!-- Node6&#45;&gt;Node6 -->
<g id="edge8_Node000006_Node000006" class="edge">
<title>Node6&#45;&gt;Node6</title>
<g id="a_edge8_Node000006_Node000006"><a xlink:title=" ">
<path fill="none" stroke="#63b8ff" d="M971.39,-498.91C965.7,-508.12 976.86,-516.5 1004.88,-516.5 1020.63,-516.5 1031.06,-513.85 1036.15,-509.89"/>
<polygon fill="#63b8ff" stroke="#63b8ff" points="1039.52,-510.89 1038.06,-500.4 1032.65,-509.51 1039.52,-510.89"/>
</a>
</g>
</g>
<!-- Node7&#45;&gt;Node3 -->
<g id="edge13_Node000007_Node000003" class="edge">
<title>Node7&#45;&gt;Node3</title>
<g id="a_edge13_Node000007_Node000003"><a xlink:title=" ">
<path fill="none" stroke="#63b8ff" d="M664.1,-267.73C684.76,-254.95 714.68,-237.81 742.75,-226.75 807.44,-201.27 828.71,-211.24 894.5,-188.75 921.19,-179.62 950.39,-166.65 971.91,-156.48"/>
<polygon fill="#63b8ff" stroke="#63b8ff" points="973.23,-159.73 980.74,-152.26 970.21,-153.42 973.23,-159.73"/>
</a>
</g>
</g>
<!-- Node8 -->
<g id="Node000008" class="node">
<title>Node8</title>
<g id="a_Node000008"><a xlink:href="classvalidation__api_1_1Validation.html#a7b6995b4592eb861af42e45b095382b7" target="_top" xlink:title="Checking Uuid values.">
<polygon fill="white" stroke="#666666" points="888.5,-476.5 748.75,-476.5 748.75,-443 888.5,-443 888.5,-476.5"/>
<text text-anchor="start" x="756.75" y="-463" font-family="Helvetica,sans-Serif" font-size="10.00">validation_api::Validation</text>
<text text-anchor="middle" x="818.62" y="-450.25" font-family="Helvetica,sans-Serif" font-size="10.00">::checkNullOptionsVec</text>
</a>
</g>
</g>
<!-- Node7&#45;&gt;Node8 -->
<g id="edge11_Node000007_Node000008" class="edge">
<title>Node7&#45;&gt;Node8</title>
<g id="a_edge11_Node000007_Node000008"><a xlink:title=" ">
<path fill="none" stroke="#63b8ff" d="M645.39,-301.66C659.87,-332.34 694.5,-397.38 742.75,-433.75 744.26,-434.89 745.83,-435.98 747.43,-437.03"/>
<polygon fill="#63b8ff" stroke="#63b8ff" points="745.32,-439.85 755.74,-441.78 748.8,-433.77 745.32,-439.85"/>
</a>
</g>
</g>
<!-- Node9 -->
<g id="Node000009" class="node">
<title>Node9</title>
<g id="a_Node000009"><a xlink:href="classvalidation__api_1_1Validation.html#ac59ae7a00f5fc950a3a572524127c4d3" target="_top" xlink:title="Checks if a json object is empty.">
<polygon fill="white" stroke="#666666" points="888.5,-424.5 748.75,-424.5 748.75,-391 888.5,-391 888.5,-424.5"/>
<text text-anchor="start" x="756.75" y="-411" font-family="Helvetica,sans-Serif" font-size="10.00">validation_api::Validation</text>
<text text-anchor="middle" x="818.62" y="-398.25" font-family="Helvetica,sans-Serif" font-size="10.00">::isNullOrEmpty</text>
</a>
</g>
</g>
<!-- Node7&#45;&gt;Node9 -->
<g id="edge14_Node000007_Node000009" class="edge">
<title>Node7&#45;&gt;Node9</title>
<g id="a_edge14_Node000007_Node000009"><a xlink:title=" ">
<path fill="none" stroke="#63b8ff" d="M652.2,-301.77C671,-323.14 705.96,-359.68 742.75,-381.75 745.04,-383.12 747.41,-384.44 749.84,-385.7"/>
<polygon fill="#63b8ff" stroke="#63b8ff" points="748.19,-388.78 758.72,-389.89 751.18,-382.46 748.19,-388.78"/>
</a>
</g>
</g>
<!-- Node10 -->
<g id="Node000010" class="node">
<title>Node10</title>
<g id="a_Node000010"><a xlink:href="namespacevalidation__api.html#ac19e25b4d8364b0f52152440dd5ecbda" target="_top" xlink:title=" ">
<polygon fill="white" stroke="#666666" points="891.5,-373.12 745.75,-373.12 745.75,-352.38 891.5,-352.38 891.5,-373.12"/>
<text text-anchor="middle" x="818.62" y="-359.62" font-family="Helvetica,sans-Serif" font-size="10.00">validation_api::isValidUuid</text>
</a>
</g>
</g>
<!-- Node7&#45;&gt;Node10 -->
<g id="edge15_Node000007_Node000010" class="edge">
<title>Node7&#45;&gt;Node10</title>
<g id="a_edge15_Node000007_Node000010"><a xlink:title=" ">
<path fill="none" stroke="#63b8ff" d="M664.57,-301.91C685.25,-314.6 714.96,-331.55 742.75,-342.75 748,-344.86 753.54,-346.82 759.14,-348.62"/>
<polygon fill="#63b8ff" stroke="#63b8ff" points="757.89,-351.9 768.47,-351.44 759.91,-345.2 757.89,-351.9"/>
</a>
</g>
</g>
<!-- Node11 -->
<g id="Node000011" class="node">
<title>Node11</title>
<g id="a_Node000011"><a xlink:href="namespacevalidation__api.html#a6dd56dcf7358b332bb906a2d27fddd0b" target="_top" xlink:title="Converts string to all lowercase.">
<polygon fill="white" stroke="#666666" points="883.62,-334.12 753.62,-334.12 753.62,-313.38 883.62,-313.38 883.62,-334.12"/>
<text text-anchor="middle" x="818.62" y="-320.62" font-family="Helvetica,sans-Serif" font-size="10.00">validation_api::toLower</text>
</a>
</g>
</g>
<!-- Node7&#45;&gt;Node11 -->
<g id="edge16_Node000007_Node000011" class="edge">
<title>Node7&#45;&gt;Node11</title>
<g id="a_edge16_Node000007_Node000011"><a xlink:title=" ">
<path fill="none" stroke="#63b8ff" d="M707.11,-299.77C723.51,-303.33 740.87,-307.1 756.85,-310.56"/>
<polygon fill="#63b8ff" stroke="#63b8ff" points="755.67,-313.89 766.19,-312.59 757.16,-307.05 755.67,-313.89"/>
</a>
</g>
</g>
<!-- Node12 -->
<g id="Node000012" class="node">
<title>Node12</title>
<g id="a_Node000012"><a xlink:href="namespacevalidation__api.html#aae32fd7a0b5886a49454679d46ed4bd1" target="_top" xlink:title="Validates Ahv string.">
<polygon fill="white" stroke="#666666" points="893.38,-295.12 743.88,-295.12 743.88,-274.38 893.38,-274.38 893.38,-295.12"/>
<text text-anchor="middle" x="818.62" y="-281.62" font-family="Helvetica,sans-Serif" font-size="10.00">validation_api::validateAhv</text>
</a>
</g>
</g>
<!-- Node7&#45;&gt;Node12 -->
<g id="edge17_Node000007_Node000012" class="edge">
<title>Node7&#45;&gt;Node12</title>
<g id="a_edge17_Node000007_Node000012"><a xlink:title=" ">
<path fill="none" stroke="#63b8ff" d="M707.11,-284.75C715.34,-284.75 723.81,-284.75 732.23,-284.75"/>
<polygon fill="#63b8ff" stroke="#63b8ff" points="732.14,-288.25 742.14,-284.75 732.14,-281.25 732.14,-288.25"/>
</a>
</g>
</g>
<!-- Node13 -->
<g id="Node000013" class="node">
<title>Node13</title>
<g id="a_Node000013"><a xlink:href="classvalidation__api_1_1Validation.html#a512e2e0c3be1bea95ebfab280ec919ba" target="_top" xlink:title="Validates len options.">
<polygon fill="white" stroke="#666666" points="888.5,-179.5 748.75,-179.5 748.75,-146 888.5,-146 888.5,-179.5"/>
<text text-anchor="start" x="756.75" y="-166" font-family="Helvetica,sans-Serif" font-size="10.00">validation_api::Validation</text>
<text text-anchor="middle" x="818.62" y="-153.25" font-family="Helvetica,sans-Serif" font-size="10.00">::validateConstraints</text>
</a>
</g>
</g>
<!-- Node7&#45;&gt;Node13 -->
<g id="edge18_Node000007_Node000013" class="edge">
<title>Node7&#45;&gt;Node13</title>
<g id="a_edge18_Node000007_Node000013"><a xlink:title=" ">
<path fill="none" stroke="#63b8ff" d="M653.97,-267.79C673.49,-247.97 708.1,-215.17 742.75,-193.75 747.99,-190.51 753.62,-187.48 759.36,-184.67"/>
<polygon fill="#63b8ff" stroke="#63b8ff" points="760.77,-187.87 768.38,-180.5 757.83,-181.52 760.77,-187.87"/>
</a>
</g>
</g>
<!-- Node14 -->
<g id="Node000014" class="node">
<title>Node14</title>
<g id="a_Node000014"><a xlink:href="namespacevalidation__api.html#a0a2b975e162ced567ba3a6075684092a" target="_top" xlink:title="Validates Iban string.">
<polygon fill="white" stroke="#666666" points="894.5,-256.12 742.75,-256.12 742.75,-235.38 894.5,-235.38 894.5,-256.12"/>
<text text-anchor="middle" x="818.62" y="-242.62" font-family="Helvetica,sans-Serif" font-size="10.00">validation_api::validateIban</text>
</a>
</g>
</g>
<!-- Node7&#45;&gt;Node14 -->
<g id="edge20_Node000007_Node000014" class="edge">
<title>Node7&#45;&gt;Node14</title>
<g id="a_edge20_Node000007_Node000014"><a xlink:title=" ">
<path fill="none" stroke="#63b8ff" d="M707.11,-269.73C723.51,-266.17 740.87,-262.4 756.85,-258.94"/>
<polygon fill="#63b8ff" stroke="#63b8ff" points="757.16,-262.45 766.19,-256.91 755.67,-255.61 757.16,-262.45"/>
</a>
</g>
</g>
<!-- Node8&#45;&gt;Node6 -->
<g id="edge12_Node000008_Node000006" class="edge">
<title>Node8&#45;&gt;Node6</title>
<g id="a_edge12_Node000008_Node000006"><a xlink:title=" ">
<path fill="none" stroke="#63b8ff" d="M888.76,-468C900.02,-469.35 911.76,-470.75 923.27,-472.13"/>
<polygon fill="#63b8ff" stroke="#63b8ff" points="922.81,-475.6 933.16,-473.31 923.64,-468.65 922.81,-475.6"/>
</a>
</g>
</g>
<!-- Node13&#45;&gt;Node3 -->
<g id="edge19_Node000013_Node000003" class="edge">
<title>Node13&#45;&gt;Node3</title>
<g id="a_edge19_Node000013_Node000003"><a xlink:title=" ">
<path fill="none" stroke="#63b8ff" d="M888.76,-154.5C898.55,-153.33 908.71,-152.11 918.77,-150.91"/>
<polygon fill="#63b8ff" stroke="#63b8ff" points="919.02,-154.41 928.54,-149.75 918.19,-147.46 919.02,-154.41"/>
</a>
</g>
</g>
</g>
</svg>
