<?xml version="1.0" encoding="UTF-8" standalone="no"?>
<!DOCTYPE svg PUBLIC "-//W3C//DTD SVG 1.1//EN"
 "http://www.w3.org/Graphics/SVG/1.1/DTD/svg11.dtd">
<!-- Generated by graphviz version 10.0.1 (0)
 -->
<!-- Title: validation_api::ValidationServer::ValidationServer Pages: 1 -->
<svg width="1606pt" height="349pt"
 viewBox="0.00 0.00 1605.50 348.86" xmlns="http://www.w3.org/2000/svg" xmlns:xlink="http://www.w3.org/1999/xlink">
<g id="graph0" class="graph" transform="scale(1 1) rotate(0) translate(4 344.86)">
<title>validation_api::ValidationServer::ValidationServer</title>
<!-- Node1 -->
<g id="Node000001" class="node">
<title>Node1</title>
<g id="a_Node000001"><a xlink:title=" ">
<polygon fill="#999999" stroke="#666666" points="139.75,-269.86 0,-269.86 0,-236.36 139.75,-236.36 139.75,-269.86"/>
<text text-anchor="start" x="8" y="-256.36" font-family="Helvetica,sans-Serif" font-size="10.00">validation_api::Validation</text>
<text text-anchor="middle" x="69.88" y="-243.61" font-family="Helvetica,sans-Serif" font-size="10.00">Server::ValidationServer</text>
</a>
</g>
</g>
<!-- Node2 -->
<g id="Node000002" class="node">
<title>Node2</title>
<g id="a_Node000002"><a xlink:href="classvalidation__api_1_1ValidationServer.html#ad67c7031c85ea1cd6eb84f6b01c424df" target="_top" xlink:title="Start the server.">
<polygon fill="white" stroke="#666666" points="315.5,-295.86 175.75,-295.86 175.75,-262.36 315.5,-262.36 315.5,-295.86"/>
<text text-anchor="start" x="183.75" y="-282.36" font-family="Helvetica,sans-Serif" font-size="10.00">validation_api::Validation</text>
<text text-anchor="middle" x="245.62" y="-269.61" font-family="Helvetica,sans-Serif" font-size="10.00">Server::run</text>
</a>
</g>
</g>
<!-- Node1&#45;&gt;Node2 -->
<g id="edge1_Node000001_Node000002" class="edge">
<title>Node1&#45;&gt;Node2</title>
<g id="a_edge1_Node000001_Node000002"><a xlink:title=" ">
<path fill="none" stroke="#63b8ff" d="M140.04,-263.46C147.96,-264.64 156.07,-265.86 164.12,-267.06"/>
<polygon fill="#63b8ff" stroke="#63b8ff" points="163.5,-270.51 173.91,-268.53 164.54,-263.58 163.5,-270.51"/>
</a>
</g>
</g>
<!-- Node19 -->
<g id="Node000019" class="node">
<title>Node19</title>
<g id="a_Node000019"><a xlink:href="classvalidation__api_1_1ValidationServer.html#aee6d6d3e85ff6a2ca7a476f15e341aa8" target="_top" xlink:title="Setup the server.">
<polygon fill="white" stroke="#666666" points="315.5,-243.86 175.75,-243.86 175.75,-210.36 315.5,-210.36 315.5,-243.86"/>
<text text-anchor="start" x="183.75" y="-230.36" font-family="Helvetica,sans-Serif" font-size="10.00">validation_api::Validation</text>
<text text-anchor="middle" x="245.62" y="-217.61" font-family="Helvetica,sans-Serif" font-size="10.00">Server::setup</text>
</a>
</g>
</g>
<!-- Node1&#45;&gt;Node19 -->
<g id="edge25_Node000001_Node000019" class="edge">
<title>Node1&#45;&gt;Node19</title>
<g id="a_edge25_Node000001_Node000019"><a xlink:title=" ">
<path fill="none" stroke="#63b8ff" d="M140.04,-242.76C147.96,-241.57 156.07,-240.36 164.12,-239.15"/>
<polygon fill="#63b8ff" stroke="#63b8ff" points="164.54,-242.63 173.91,-237.69 163.5,-235.71 164.54,-242.63"/>
</a>
</g>
</g>
<!-- Node2&#45;&gt;Node2 -->
<g id="edge24_Node000002_Node000002" class="edge">
<title>Node2&#45;&gt;Node2</title>
<g id="a_edge24_Node000002_Node000002"><a xlink:title=" ">
<path fill="none" stroke="#63b8ff" d="M214.03,-296.27C208.66,-305.47 219.19,-313.86 245.62,-313.86 260.49,-313.86 270.33,-311.2 275.14,-307.25"/>
<polygon fill="#63b8ff" stroke="#63b8ff" points="278.51,-308.24 276.94,-297.76 271.63,-306.93 278.51,-308.24"/>
</a>
</g>
</g>
<!-- Node3 -->
<g id="Node000003" class="node">
<title>Node3</title>
<g id="a_Node000003"><a xlink:href="classvalidation__api_1_1ValidationServer.html#a7f5c5252fa7a28bef0345e6248139215" target="_top" xlink:title="Accept a connection.">
<polygon fill="white" stroke="#666666" points="491.25,-295.86 351.5,-295.86 351.5,-262.36 491.25,-262.36 491.25,-295.86"/>
<text text-anchor="start" x="359.5" y="-282.36" font-family="Helvetica,sans-Serif" font-size="10.00">validation_api::Validation</text>
<text text-anchor="middle" x="421.38" y="-269.61" font-family="Helvetica,sans-Serif" font-size="10.00">Server::accept</text>
</a>
</g>
</g>
<!-- Node2&#45;&gt;Node3 -->
<g id="edge2_Node000002_Node000003" class="edge">
<title>Node2&#45;&gt;Node3</title>
<g id="a_edge2_Node000002_Node000003"><a xlink:title=" ">
<path fill="none" stroke="#63b8ff" d="M315.79,-279.11C323.71,-279.11 331.82,-279.11 339.87,-279.11"/>
<polygon fill="#63b8ff" stroke="#63b8ff" points="339.65,-282.61 349.65,-279.11 339.65,-275.61 339.65,-282.61"/>
</a>
</g>
</g>
<!-- Node4 -->
<g id="Node000004" class="node">
<title>Node4</title>
<g id="a_Node000004"><a xlink:href="classvalidation__api_1_1ValidationServer.html#a59c4a313effe28cc0acca7b8bb3a26e4" target="_top" xlink:title=" ">
<polygon fill="white" stroke="#666666" points="676,-340.86 536.25,-340.86 536.25,-307.36 676,-307.36 676,-340.86"/>
<text text-anchor="start" x="544.25" y="-327.36" font-family="Helvetica,sans-Serif" font-size="10.00">validation_api::Validation</text>
<text text-anchor="middle" x="606.12" y="-314.61" font-family="Helvetica,sans-Serif" font-size="10.00">Server::asyncWriter</text>
</a>
</g>
</g>
<!-- Node3&#45;&gt;Node4 -->
<g id="edge3_Node000003_Node000004" class="edge">
<title>Node3&#45;&gt;Node4</title>
<g id="a_edge3_Node000003_Node000004"><a xlink:title=" ">
<path fill="none" stroke="#63b8ff" d="M491.73,-296.18C502.55,-298.85 513.82,-301.62 524.87,-304.35"/>
<polygon fill="#63b8ff" stroke="#63b8ff" points="523.81,-307.69 534.35,-306.68 525.48,-300.89 523.81,-307.69"/>
</a>
</g>
</g>
<!-- Node5 -->
<g id="Node000005" class="node">
<title>Node5</title>
<g id="a_Node000005"><a xlink:href="namespacevalidation__api.html#ad94de3de52c70b315f5b36cce4642718" target="_top" xlink:title=" ">
<polygon fill="white" stroke="#666666" points="681.25,-289.48 531,-289.48 531,-268.73 681.25,-268.73 681.25,-289.48"/>
<text text-anchor="middle" x="606.12" y="-275.98" font-family="Helvetica,sans-Serif" font-size="10.00">validation_api::errorsToJson</text>
</a>
</g>
</g>
<!-- Node3&#45;&gt;Node5 -->
<g id="edge4_Node000003_Node000005" class="edge">
<title>Node3&#45;&gt;Node5</title>
<g id="a_edge4_Node000003_Node000005"><a xlink:title=" ">
<path fill="none" stroke="#63b8ff" d="M491.73,-279.11C500.77,-279.11 510.12,-279.11 519.4,-279.11"/>
<polygon fill="#63b8ff" stroke="#63b8ff" points="519.13,-282.61 529.13,-279.11 519.13,-275.61 519.13,-282.61"/>
</a>
</g>
</g>
<!-- Node6 -->
<g id="Node000006" class="node">
<title>Node6</title>
<g id="a_Node000006"><a xlink:href="classvalidation__api_1_1ConfigService.html#a654e84f4f588f7391f93210c1e08344f" target="_top" xlink:title="getConfigs method">
<polygon fill="white" stroke="#666666" points="685,-250.86 527.25,-250.86 527.25,-217.36 685,-217.36 685,-250.86"/>
<text text-anchor="start" x="535.25" y="-237.36" font-family="Helvetica,sans-Serif" font-size="10.00">validation_api::ConfigService</text>
<text text-anchor="middle" x="606.12" y="-224.61" font-family="Helvetica,sans-Serif" font-size="10.00">::validateConfig</text>
</a>
</g>
</g>
<!-- Node3&#45;&gt;Node6 -->
<g id="edge5_Node000003_Node000006" class="edge">
<title>Node3&#45;&gt;Node6</title>
<g id="a_edge5_Node000003_Node000006"><a xlink:title=" ">
<path fill="none" stroke="#63b8ff" d="M491.73,-262.03C502.29,-259.43 513.28,-256.72 524.07,-254.07"/>
<polygon fill="#63b8ff" stroke="#63b8ff" points="524.87,-257.47 533.75,-251.68 523.2,-250.68 524.87,-257.47"/>
</a>
</g>
</g>
<!-- Node7 -->
<g id="Node000007" class="node">
<title>Node7</title>
<g id="a_Node000007"><a xlink:href="classvalidation__api_1_1Validation.html#ac6c337d3af39943a8e603a5f21f5922a" target="_top" xlink:title=" ">
<polygon fill="white" stroke="#666666" points="882.5,-244.48 721,-244.48 721,-223.73 882.5,-223.73 882.5,-244.48"/>
<text text-anchor="middle" x="801.75" y="-230.98" font-family="Helvetica,sans-Serif" font-size="10.00">validation_api::Validation::run</text>
</a>
</g>
</g>
<!-- Node6&#45;&gt;Node7 -->
<g id="edge6_Node000006_Node000007" class="edge">
<title>Node6&#45;&gt;Node7</title>
<g id="a_edge6_Node000006_Node000007"><a xlink:title=" ">
<path fill="none" stroke="#63b8ff" d="M685.32,-234.11C693.24,-234.11 701.33,-234.11 709.37,-234.11"/>
<polygon fill="#63b8ff" stroke="#63b8ff" points="709.17,-237.61 719.17,-234.11 709.17,-230.61 709.17,-237.61"/>
</a>
</g>
</g>
<!-- Node8 -->
<g id="Node000008" class="node">
<title>Node8</title>
<g id="a_Node000008"><a xlink:href="classvalidation__api_1_1ErrorBuilder.html#a84327bbfe6c61e7be6966acc41ba6087" target="_top" xlink:title=" ">
<polygon fill="white" stroke="#666666" points="1420.25,-314.86 1271.5,-314.86 1271.5,-281.36 1420.25,-281.36 1420.25,-314.86"/>
<text text-anchor="start" x="1279.5" y="-301.36" font-family="Helvetica,sans-Serif" font-size="10.00">validation_api::ErrorBuilder</text>
<text text-anchor="middle" x="1345.88" y="-288.61" font-family="Helvetica,sans-Serif" font-size="10.00">::build</text>
</a>
</g>
</g>
<!-- Node7&#45;&gt;Node8 -->
<g id="edge7_Node000007_Node000008" class="edge">
<title>Node7&#45;&gt;Node8</title>
<g id="a_edge7_Node000007_Node000008"><a xlink:title=" ">
<path fill="none" stroke="#63b8ff" d="M824.74,-244.88C847.57,-255.47 884.61,-271.06 918.5,-278.11 1034.98,-302.33 1173.05,-304.04 1259.82,-301.94"/>
<polygon fill="#63b8ff" stroke="#63b8ff" points="1259.78,-305.45 1269.68,-301.68 1259.59,-298.45 1259.78,-305.45"/>
</a>
</g>
</g>
<!-- Node9 -->
<g id="Node000009" class="node">
<title>Node9</title>
<g id="a_Node000009"><a xlink:href="classvalidation__api_1_1Validation.html#a21b9aefd80be5a639d2aa5e4c8ebe945" target="_top" xlink:title=" ">
<polygon fill="white" stroke="#666666" points="1058.25,-250.86 918.5,-250.86 918.5,-217.36 1058.25,-217.36 1058.25,-250.86"/>
<text text-anchor="start" x="926.5" y="-237.36" font-family="Helvetica,sans-Serif" font-size="10.00">validation_api::Validation</text>
<text text-anchor="middle" x="988.38" y="-224.61" font-family="Helvetica,sans-Serif" font-size="10.00">::fillRequestList</text>
</a>
</g>
</g>
<!-- Node7&#45;&gt;Node9 -->
<g id="edge8_Node000007_Node000009" class="edge">
<title>Node7&#45;&gt;Node9</title>
<g id="a_edge8_Node000007_Node000009"><a xlink:title=" ">
<path fill="none" stroke="#63b8ff" d="M882.92,-234.11C890.84,-234.11 898.87,-234.11 906.78,-234.11"/>
<polygon fill="#63b8ff" stroke="#63b8ff" points="906.76,-237.61 916.76,-234.11 906.76,-230.61 906.76,-237.61"/>
</a>
</g>
</g>
<!-- Node10 -->
<g id="Node000010" class="node">
<title>Node10</title>
<g id="a_Node000010"><a xlink:href="classvalidation__api_1_1Validation.html#a3c8146fc89af5b8cef0c1bb6c9d473f2" target="_top" xlink:title="Traverse through the json object and validate the fields.">
<polygon fill="white" stroke="#666666" points="1058.25,-180.86 918.5,-180.86 918.5,-147.36 1058.25,-147.36 1058.25,-180.86"/>
<text text-anchor="start" x="926.5" y="-167.36" font-family="Helvetica,sans-Serif" font-size="10.00">validation_api::Validation</text>
<text text-anchor="middle" x="988.38" y="-154.61" font-family="Helvetica,sans-Serif" font-size="10.00">::traverseAndValidate</text>
</a>
</g>
</g>
<!-- Node7&#45;&gt;Node10 -->
<g id="edge10_Node000007_Node000010" class="edge">
<title>Node7&#45;&gt;Node10</title>
<g id="a_edge10_Node000007_Node000010"><a xlink:title=" ">
<path fill="none" stroke="#63b8ff" d="M831.19,-223.32C857.84,-213.22 898.43,-197.83 931.54,-185.27"/>
<polygon fill="#63b8ff" stroke="#63b8ff" points="932.48,-188.66 940.59,-181.84 930,-182.12 932.48,-188.66"/>
</a>
</g>
</g>
<!-- Node9&#45;&gt;Node9 -->
<g id="edge9_Node000009_Node000009" class="edge">
<title>Node9&#45;&gt;Node9</title>
<g id="a_edge9_Node000009_Node000009"><a xlink:title=" ">
<path fill="none" stroke="#63b8ff" d="M956.78,-251.27C951.41,-260.47 961.94,-268.86 988.38,-268.86 1003.24,-268.86 1013.08,-266.2 1017.89,-262.25"/>
<polygon fill="#63b8ff" stroke="#63b8ff" points="1021.26,-263.24 1019.69,-252.76 1014.38,-261.93 1021.26,-263.24"/>
</a>
</g>
</g>
<!-- Node10&#45;&gt;Node8 -->
<g id="edge11_Node000010_Node000008" class="edge">
<title>Node10&#45;&gt;Node8</title>
<g id="a_edge11_Node000010_Node000008"><a xlink:title=" ">
<path fill="none" stroke="#63b8ff" d="M1032.47,-181.2C1087.42,-202.88 1185.43,-241.16 1270,-272.11 1274.63,-273.8 1279.43,-275.53 1284.27,-277.25"/>
<polygon fill="#63b8ff" stroke="#63b8ff" points="1282.83,-280.46 1293.42,-280.49 1285.16,-273.86 1282.83,-280.46"/>
</a>
</g>
</g>
<!-- Node10&#45;&gt;Node10 -->
<g id="edge14_Node000010_Node000010" class="edge">
<title>Node10&#45;&gt;Node10</title>
<g id="a_edge14_Node000010_Node000010"><a xlink:title=" ">
<path fill="none" stroke="#63b8ff" d="M956.78,-181.27C951.41,-190.47 961.94,-198.86 988.38,-198.86 1003.24,-198.86 1013.08,-196.2 1017.89,-192.25"/>
<polygon fill="#63b8ff" stroke="#63b8ff" points="1021.26,-193.24 1019.69,-182.76 1014.38,-191.93 1021.26,-193.24"/>
</a>
</g>
</g>
<!-- Node11 -->
<g id="Node000011" class="node">
<title>Node11</title>
<g id="a_Node000011"><a xlink:href="classvalidation__api_1_1Validation.html#a1931562aaf3ed21afc7d5f0fade04aa0" target="_top" xlink:title=" ">
<polygon fill="white" stroke="#666666" points="1597.5,-118.86 1457.75,-118.86 1457.75,-85.36 1597.5,-85.36 1597.5,-118.86"/>
<text text-anchor="start" x="1465.75" y="-105.36" font-family="Helvetica,sans-Serif" font-size="10.00">validation_api::Validation</text>
<text text-anchor="middle" x="1527.62" y="-92.61" font-family="Helvetica,sans-Serif" font-size="10.00">::findJsonField</text>
</a>
</g>
</g>
<!-- Node10&#45;&gt;Node11 -->
<g id="edge12_Node000010_Node000011" class="edge">
<title>Node10&#45;&gt;Node11</title>
<g id="a_edge12_Node000010_Node000011"><a xlink:title=" ">
<path fill="none" stroke="#63b8ff" d="M1012.16,-146.93C1057.99,-113.57 1165.89,-41.03 1270,-15.11 1335.45,1.19 1358.31,7.78 1421.75,-15.11 1455.44,-27.26 1485.95,-55.46 1505.27,-76.48"/>
<polygon fill="#63b8ff" stroke="#63b8ff" points="1502.57,-78.71 1511.83,-83.85 1507.8,-74.06 1502.57,-78.71"/>
</a>
</g>
</g>
<!-- Node12 -->
<g id="Node000012" class="node">
<title>Node12</title>
<g id="a_Node000012"><a xlink:href="classvalidation__api_1_1Validation.html#a1cc0802269d88c233ad3c3d1d6c3dd12" target="_top" xlink:title=" ">
<polygon fill="white" stroke="#666666" points="1234,-179.86 1094.25,-179.86 1094.25,-146.36 1234,-146.36 1234,-179.86"/>
<text text-anchor="start" x="1102.25" y="-166.36" font-family="Helvetica,sans-Serif" font-size="10.00">validation_api::Validation</text>
<text text-anchor="middle" x="1164.12" y="-153.61" font-family="Helvetica,sans-Serif" font-size="10.00">::validate</text>
</a>
</g>
</g>
<!-- Node10&#45;&gt;Node12 -->
<g id="edge15_Node000010_Node000012" class="edge">
<title>Node10&#45;&gt;Node12</title>
<g id="a_edge15_Node000010_Node000012"><a xlink:title=" ">
<path fill="none" stroke="#63b8ff" d="M1058.54,-163.71C1066.46,-163.66 1074.57,-163.62 1082.62,-163.57"/>
<polygon fill="#63b8ff" stroke="#63b8ff" points="1082.42,-167.07 1092.4,-163.51 1082.38,-160.07 1082.42,-167.07"/>
</a>
</g>
</g>
<!-- Node11&#45;&gt;Node11 -->
<g id="edge13_Node000011_Node000011" class="edge">
<title>Node11&#45;&gt;Node11</title>
<g id="a_edge13_Node000011_Node000011"><a xlink:title=" ">
<path fill="none" stroke="#63b8ff" d="M1494.95,-119.27C1489.4,-128.47 1500.29,-136.86 1527.62,-136.86 1543,-136.86 1553.17,-134.2 1558.14,-130.25"/>
<polygon fill="#63b8ff" stroke="#63b8ff" points="1561.51,-131.24 1560.01,-120.76 1554.64,-129.89 1561.51,-131.24"/>
</a>
</g>
</g>
<!-- Node12&#45;&gt;Node8 -->
<g id="edge16_Node000012_Node000008" class="edge">
<title>Node12&#45;&gt;Node8</title>
<g id="a_edge16_Node000012_Node000008"><a xlink:title=" ">
<path fill="none" stroke="#63b8ff" d="M1188.84,-180.13C1202.81,-190.77 1220.36,-205.24 1234,-220.11 1253.01,-240.82 1247.62,-255.1 1270,-272.11 1271.51,-273.25 1273.07,-274.35 1274.67,-275.4"/>
<polygon fill="#63b8ff" stroke="#63b8ff" points="1272.55,-278.21 1282.96,-280.17 1276.04,-272.15 1272.55,-278.21"/>
</a>
</g>
</g>
<!-- Node13 -->
<g id="Node000013" class="node">
<title>Node13</title>
<g id="a_Node000013"><a xlink:href="classvalidation__api_1_1Validation.html#a7b6995b4592eb861af42e45b095382b7" target="_top" xlink:title="Checking Uuid values.">
<polygon fill="white" stroke="#666666" points="1415.75,-224.86 1276,-224.86 1276,-191.36 1415.75,-191.36 1415.75,-224.86"/>
<text text-anchor="start" x="1284" y="-211.36" font-family="Helvetica,sans-Serif" font-size="10.00">validation_api::Validation</text>
<text text-anchor="middle" x="1345.88" y="-198.61" font-family="Helvetica,sans-Serif" font-size="10.00">::checkNullOptionsVec</text>
</a>
</g>
</g>
<!-- Node12&#45;&gt;Node13 -->
<g id="edge17_Node000012_Node000013" class="edge">
<title>Node12&#45;&gt;Node13</title>
<g id="a_edge17_Node000012_Node000013"><a xlink:title=" ">
<path fill="none" stroke="#63b8ff" d="M1233.85,-180.31C1244.15,-182.89 1254.84,-185.57 1265.34,-188.2"/>
<polygon fill="#63b8ff" stroke="#63b8ff" points="1264.17,-191.51 1274.72,-190.54 1265.87,-184.72 1264.17,-191.51"/>
</a>
</g>
</g>
<!-- Node14 -->
<g id="Node000014" class="node">
<title>Node14</title>
<g id="a_Node000014"><a xlink:href="namespacevalidation__api.html#ac19e25b4d8364b0f52152440dd5ecbda" target="_top" xlink:title=" ">
<polygon fill="white" stroke="#666666" points="1418.75,-173.48 1273,-173.48 1273,-152.73 1418.75,-152.73 1418.75,-173.48"/>
<text text-anchor="middle" x="1345.88" y="-159.98" font-family="Helvetica,sans-Serif" font-size="10.00">validation_api::isValidUuid</text>
</a>
</g>
</g>
<!-- Node12&#45;&gt;Node14 -->
<g id="edge19_Node000012_Node000014" class="edge">
<title>Node12&#45;&gt;Node14</title>
<g id="a_edge19_Node000012_Node000014"><a xlink:title=" ">
<path fill="none" stroke="#63b8ff" d="M1234.36,-163.11C1243.2,-163.11 1252.31,-163.11 1261.33,-163.11"/>
<polygon fill="#63b8ff" stroke="#63b8ff" points="1261.18,-166.61 1271.18,-163.11 1261.18,-159.61 1261.18,-166.61"/>
</a>
</g>
</g>
<!-- Node15 -->
<g id="Node000015" class="node">
<title>Node15</title>
<g id="a_Node000015"><a xlink:href="classvalidation__api_1_1ErrorBuilder.html#a014e70c2f2b4a2ee879c363b4a2174f2" target="_top" xlink:title="Set the First Msg object.">
<polygon fill="white" stroke="#666666" points="1420.25,-134.86 1271.5,-134.86 1271.5,-101.36 1420.25,-101.36 1420.25,-134.86"/>
<text text-anchor="start" x="1279.5" y="-121.36" font-family="Helvetica,sans-Serif" font-size="10.00">validation_api::ErrorBuilder</text>
<text text-anchor="middle" x="1345.88" y="-108.61" font-family="Helvetica,sans-Serif" font-size="10.00">::setSecondMsg</text>
</a>
</g>
</g>
<!-- Node12&#45;&gt;Node15 -->
<g id="edge20_Node000012_Node000015" class="edge">
<title>Node12&#45;&gt;Node15</title>
<g id="a_edge20_Node000012_Node000015"><a xlink:title=" ">
<path fill="none" stroke="#63b8ff" d="M1233.85,-145.9C1244.15,-143.32 1254.84,-140.65 1265.34,-138.02"/>
<polygon fill="#63b8ff" stroke="#63b8ff" points="1265.87,-141.49 1274.72,-135.67 1264.17,-134.7 1265.87,-141.49"/>
</a>
</g>
</g>
<!-- Node16 -->
<g id="Node000016" class="node">
<title>Node16</title>
<g id="a_Node000016"><a xlink:href="namespacevalidation__api.html#a6dd56dcf7358b332bb906a2d27fddd0b" target="_top" xlink:title="Converts string to all lowercase.">
<polygon fill="white" stroke="#666666" points="1410.88,-83.48 1280.88,-83.48 1280.88,-62.73 1410.88,-62.73 1410.88,-83.48"/>
<text text-anchor="middle" x="1345.88" y="-69.98" font-family="Helvetica,sans-Serif" font-size="10.00">validation_api::toLower</text>
</a>
</g>
</g>
<!-- Node12&#45;&gt;Node16 -->
<g id="edge21_Node000012_Node000016" class="edge">
<title>Node12&#45;&gt;Node16</title>
<g id="a_edge21_Node000012_Node000016"><a xlink:title=" ">
<path fill="none" stroke="#63b8ff" d="M1185.53,-146.11C1205.78,-130.04 1238.3,-106.33 1270,-92.11 1273.77,-90.41 1277.72,-88.86 1281.74,-87.42"/>
<polygon fill="#63b8ff" stroke="#63b8ff" points="1282.66,-90.8 1291.09,-84.38 1280.49,-84.15 1282.66,-90.8"/>
</a>
</g>
</g>
<!-- Node17 -->
<g id="Node000017" class="node">
<title>Node17</title>
<g id="a_Node000017"><a xlink:href="namespacevalidation__api.html#aae32fd7a0b5886a49454679d46ed4bd1" target="_top" xlink:title="Validates Ahv string.">
<polygon fill="white" stroke="#666666" points="1420.62,-44.48 1271.12,-44.48 1271.12,-23.73 1420.62,-23.73 1420.62,-44.48"/>
<text text-anchor="middle" x="1345.88" y="-30.98" font-family="Helvetica,sans-Serif" font-size="10.00">validation_api::validateAhv</text>
</a>
</g>
</g>
<!-- Node12&#45;&gt;Node17 -->
<g id="edge22_Node000012_Node000017" class="edge">
<title>Node12&#45;&gt;Node17</title>
<g id="a_edge22_Node000012_Node000017"><a xlink:title=" ">
<path fill="none" stroke="#63b8ff" d="M1176.89,-145.94C1194.37,-121.76 1229.51,-77.99 1270,-54.11 1273.13,-52.26 1276.43,-50.58 1279.83,-49.06"/>
<polygon fill="#63b8ff" stroke="#63b8ff" points="1280.86,-52.41 1288.87,-45.48 1278.29,-45.91 1280.86,-52.41"/>
</a>
</g>
</g>
<!-- Node18 -->
<g id="Node000018" class="node">
<title>Node18</title>
<g id="a_Node000018"><a xlink:href="namespacevalidation__api.html#a0a2b975e162ced567ba3a6075684092a" target="_top" xlink:title="Validates Iban string.">
<polygon fill="white" stroke="#666666" points="1421.75,-263.48 1270,-263.48 1270,-242.73 1421.75,-242.73 1421.75,-263.48"/>
<text text-anchor="middle" x="1345.88" y="-249.98" font-family="Helvetica,sans-Serif" font-size="10.00">validation_api::validateIban</text>
</a>
</g>
</g>
<!-- Node12&#45;&gt;Node18 -->
<g id="edge23_Node000012_Node000018" class="edge">
<title>Node12&#45;&gt;Node18</title>
<g id="a_edge23_Node000012_Node000018"><a xlink:title=" ">
<path fill="none" stroke="#63b8ff" d="M1185.53,-180.1C1205.78,-196.17 1238.3,-219.88 1270,-234.11 1273.77,-235.8 1277.72,-237.36 1281.74,-238.79"/>
<polygon fill="#63b8ff" stroke="#63b8ff" points="1280.49,-242.07 1291.09,-241.84 1282.66,-235.41 1280.49,-242.07"/>
</a>
</g>
</g>
<!-- Node13&#45;&gt;Node11 -->
<g id="edge18_Node000013_Node000011" class="edge">
<title>Node13&#45;&gt;Node11</title>
<g id="a_edge18_Node000013_Node000011"><a xlink:title=" ">
<path fill="none" stroke="#63b8ff" d="M1402.92,-190.86C1409.4,-188.22 1415.81,-185.3 1421.75,-182.11 1450.27,-166.79 1479.27,-144 1499.52,-126.65"/>
<polygon fill="#63b8ff" stroke="#63b8ff" points="1501.79,-129.32 1507.04,-120.11 1497.2,-124.04 1501.79,-129.32"/>
</a>
</g>
</g>
</g>
</svg>
