<?xml version="1.0" encoding="UTF-8" standalone="no"?>
<!DOCTYPE svg PUBLIC "-//W3C//DTD SVG 1.1//EN"
 "http://www.w3.org/Graphics/SVG/1.1/DTD/svg11.dtd">
<!-- Generated by graphviz version 12.2.1 (0)
 -->
<!-- Title: validation_api::ValidationServer::run Pages: 1 -->
<svg width="450pt" height="58pt"
 viewBox="0.00 0.00 449.75 58.00" xmlns="http://www.w3.org/2000/svg" xmlns:xlink="http://www.w3.org/1999/xlink">
<g id="graph0" class="graph" transform="scale(1 1) rotate(0) translate(4 54)">
<title>validation_api::ValidationServer::run</title>
<!-- Node1 -->
<g id="Node000001" class="node">
<title>Node1</title>
<g id="a_Node000001"><a xlink:title="Start the server.">
<polygon fill="#999999" stroke="#666666" points="123.25,-32 0,-32 0,0 123.25,0 123.25,-32"/>
<text text-anchor="start" x="8" y="-18.5" font-family="Helvetica,sans-Serif" font-size="10.00">validation_api::Validation</text>
<text text-anchor="middle" x="61.62" y="-6.5" font-family="Helvetica,sans-Serif" font-size="10.00">Server::run</text>
</a>
</g>
</g>
<!-- Node1&#45;&gt;Node1 -->
<g id="edge3_Node000001_Node000001" class="edge">
<title>Node1&#45;&gt;Node1</title>
<g id="a_edge3_Node000001_Node000001"><a xlink:title=" ">
<path fill="none" stroke="#63b8ff" d="M33.19,-32.44C27.89,-41.58 37.36,-50 61.62,-50 74.89,-50 83.74,-47.48 88.16,-43.71"/>
<polygon fill="#63b8ff" stroke="#63b8ff" points="91.6,-44.38 89.8,-33.94 84.7,-43.22 91.6,-44.38"/>
</a>
</g>
</g>
<!-- Node2 -->
<g id="Node000002" class="node">
<title>Node2</title>
<g id="a_Node000002"><a xlink:href="classvalidation__api_1_1ValidationServer.html#a7f5c5252fa7a28bef0345e6248139215" target="_top" xlink:title="Accept a connection.">
<polygon fill="white" stroke="#666666" points="282.5,-32 159.25,-32 159.25,0 282.5,0 282.5,-32"/>
<text text-anchor="start" x="167.25" y="-18.5" font-family="Helvetica,sans-Serif" font-size="10.00">validation_api::Validation</text>
<text text-anchor="middle" x="220.88" y="-6.5" font-family="Helvetica,sans-Serif" font-size="10.00">Server::accept</text>
</a>
</g>
</g>
<!-- Node1&#45;&gt;Node2 -->
<g id="edge1_Node000001_Node000002" class="edge">
<title>Node1&#45;&gt;Node2</title>
<g id="a_edge1_Node000001_Node000002"><a xlink:title=" ">
<path fill="none" stroke="#63b8ff" d="M123.42,-16C131.35,-16 139.54,-16 147.63,-16"/>
<polygon fill="#63b8ff" stroke="#63b8ff" points="147.47,-19.5 157.47,-16 147.47,-12.5 147.47,-19.5"/>
</a>
</g>
</g>
<!-- Node3 -->
<g id="Node000003" class="node">
<title>Node3</title>
<g id="a_Node000003"><a xlink:href="classvalidation__api_1_1ValidationServer.html#a59c4a313effe28cc0acca7b8bb3a26e4" target="_top" xlink:title=" ">
<polygon fill="white" stroke="#666666" points="441.75,-32 318.5,-32 318.5,0 441.75,0 441.75,-32"/>
<text text-anchor="start" x="326.5" y="-18.5" font-family="Helvetica,sans-Serif" font-size="10.00">validation_api::Validation</text>
<text text-anchor="middle" x="380.12" y="-6.5" font-family="Helvetica,sans-Serif" font-size="10.00">Server::asyncWriter</text>
</a>
</g>
</g>
<!-- Node2&#45;&gt;Node3 -->
<g id="edge2_Node000002_Node000003" class="edge">
<title>Node2&#45;&gt;Node3</title>
<g id="a_edge2_Node000002_Node000003"><a xlink:title=" ">
<path fill="none" stroke="#63b8ff" d="M282.67,-16C290.6,-16 298.79,-16 306.88,-16"/>
<polygon fill="#63b8ff" stroke="#63b8ff" points="306.72,-19.5 316.72,-16 306.72,-12.5 306.72,-19.5"/>
</a>
</g>
</g>
</g>
</svg>
