<?xml version="1.0" encoding="UTF-8" standalone="no"?>
<!DOCTYPE svg PUBLIC "-//W3C//DTD SVG 1.1//EN"
 "http://www.w3.org/Graphics/SVG/1.1/DTD/svg11.dtd">
<!-- Generated by graphviz version 10.0.1 (0)
 -->
<!-- Title: validation_api::ConfigWatcher::read_file Pages: 1 -->
<svg width="548pt" height="209pt"
 viewBox="0.00 0.00 548.00 209.12" xmlns="http://www.w3.org/2000/svg" xmlns:xlink="http://www.w3.org/1999/xlink">
<g id="graph0" class="graph" transform="scale(1 1) rotate(0) translate(4 205.12)">
<title>validation_api::ConfigWatcher::read_file</title>
<!-- Node1 -->
<g id="Node000001" class="node">
<title>Node1</title>
<g id="a_Node000001"><a xlink:title="Reads a file.">
<polygon fill="#999999" stroke="#666666" points="161.5,-152.12 0,-152.12 0,-118.62 161.5,-118.62 161.5,-152.12"/>
<text text-anchor="start" x="8" y="-138.62" font-family="Helvetica,sans-Serif" font-size="10.00">validation_api::ConfigWatcher</text>
<text text-anchor="middle" x="80.75" y="-125.88" font-family="Helvetica,sans-Serif" font-size="10.00">::read_file</text>
</a>
</g>
</g>
<!-- Node2 -->
<g id="Node000002" class="node">
<title>Node2</title>
<g id="a_Node000002"><a xlink:href="classvalidation__api_1_1ConfigService.html#a8fee54d1f3f5eb92a17c3ecd72780f00" target="_top" xlink:title="getConfigs method">
<polygon fill="white" stroke="#666666" points="355.25,-187.12 197.5,-187.12 197.5,-153.62 355.25,-153.62 355.25,-187.12"/>
<text text-anchor="start" x="205.5" y="-173.62" font-family="Helvetica,sans-Serif" font-size="10.00">validation_api::ConfigService</text>
<text text-anchor="middle" x="276.38" y="-160.88" font-family="Helvetica,sans-Serif" font-size="10.00">::createConfig</text>
</a>
</g>
</g>
<!-- Node1&#45;&gt;Node2 -->
<g id="edge1_Node000001_Node000002" class="edge">
<title>Node1&#45;&gt;Node2</title>
<g id="a_edge1_Node000001_Node000002"><a xlink:title=" ">
<path fill="none" stroke="#63b8ff" d="M161.9,-149.86C169.82,-151.3 177.9,-152.75 185.9,-154.2"/>
<polygon fill="#63b8ff" stroke="#63b8ff" points="185.2,-157.63 195.66,-155.97 186.44,-150.74 185.2,-157.63"/>
</a>
</g>
</g>
<!-- Node3 -->
<g id="Node000003" class="node">
<title>Node3</title>
<g id="a_Node000003"><a xlink:href="namespacevalidation__api.html#aa82c6b3a43b6e6b59b529c22944cadca" target="_top" xlink:title="Ensures valid Xml configuration.">
<polygon fill="white" stroke="#666666" points="341.75,-117.12 211,-117.12 211,-83.62 341.75,-83.62 341.75,-117.12"/>
<text text-anchor="start" x="219" y="-103.62" font-family="Helvetica,sans-Serif" font-size="10.00">validation_api::validate</text>
<text text-anchor="middle" x="276.38" y="-90.88" font-family="Helvetica,sans-Serif" font-size="10.00">XmlConfig</text>
</a>
</g>
</g>
<!-- Node1&#45;&gt;Node3 -->
<g id="edge2_Node000001_Node000003" class="edge">
<title>Node1&#45;&gt;Node3</title>
<g id="a_edge2_Node000001_Node000003"><a xlink:title=" ">
<path fill="none" stroke="#63b8ff" d="M161.9,-120.89C174.33,-118.64 187.13,-116.33 199.46,-114.1"/>
<polygon fill="#63b8ff" stroke="#63b8ff" points="199.92,-117.57 209.14,-112.35 198.67,-110.68 199.92,-117.57"/>
</a>
</g>
</g>
<!-- Node3&#45;&gt;Node3 -->
<g id="edge8_Node000003_Node000003" class="edge">
<title>Node3&#45;&gt;Node3</title>
<g id="a_edge8_Node000003_Node000003"><a xlink:title=" ">
<path fill="none" stroke="#63b8ff" d="M242.35,-117.54C236.57,-126.74 247.91,-135.12 276.38,-135.12 292.38,-135.12 302.98,-132.47 308.15,-128.51"/>
<polygon fill="#63b8ff" stroke="#63b8ff" points="311.52,-129.52 310.09,-119.02 304.66,-128.12 311.52,-129.52"/>
</a>
</g>
</g>
<!-- Node4 -->
<g id="Node000004" class="node">
<title>Node4</title>
<g id="a_Node000004"><a xlink:href="classvalidation__api_1_1ErrorBuilder.html#a84327bbfe6c61e7be6966acc41ba6087" target="_top" xlink:title=" ">
<polygon fill="white" stroke="#666666" points="540,-201.12 391.25,-201.12 391.25,-167.62 540,-167.62 540,-201.12"/>
<text text-anchor="start" x="399.25" y="-187.62" font-family="Helvetica,sans-Serif" font-size="10.00">validation_api::ErrorBuilder</text>
<text text-anchor="middle" x="465.62" y="-174.88" font-family="Helvetica,sans-Serif" font-size="10.00">::build</text>
</a>
</g>
</g>
<!-- Node3&#45;&gt;Node4 -->
<g id="edge3_Node000003_Node000004" class="edge">
<title>Node3&#45;&gt;Node4</title>
<g id="a_edge3_Node000003_Node000004"><a xlink:title=" ">
<path fill="none" stroke="#63b8ff" d="M308.27,-117.5C330.88,-129.68 362.51,-146.03 391.25,-158.38 395.01,-159.99 398.91,-161.59 402.86,-163.15"/>
<polygon fill="#63b8ff" stroke="#63b8ff" points="401.37,-166.33 411.96,-166.64 403.88,-159.79 401.37,-166.33"/>
</a>
</g>
</g>
<!-- Node5 -->
<g id="Node000005" class="node">
<title>Node5</title>
<g id="a_Node000005"><a xlink:href="namespacevalidation__api.html#ac497c1198e4e7f0fe71ffbdb3e6beeaa" target="_top" xlink:title="Convert string to float.">
<polygon fill="white" stroke="#666666" points="527.62,-149.75 403.62,-149.75 403.62,-129 527.62,-129 527.62,-149.75"/>
<text text-anchor="middle" x="465.62" y="-136.25" font-family="Helvetica,sans-Serif" font-size="10.00">validation_api::isFloat</text>
</a>
</g>
</g>
<!-- Node3&#45;&gt;Node5 -->
<g id="edge4_Node000003_Node000005" class="edge">
<title>Node3&#45;&gt;Node5</title>
<g id="a_edge4_Node000003_Node000005"><a xlink:title=" ">
<path fill="none" stroke="#63b8ff" d="M342.08,-113.85C361.34,-117.86 382.42,-122.25 401.57,-126.24"/>
<polygon fill="#63b8ff" stroke="#63b8ff" points="400.62,-129.62 411.12,-128.23 402.05,-122.77 400.62,-129.62"/>
</a>
</g>
</g>
<!-- Node6 -->
<g id="Node000006" class="node">
<title>Node6</title>
<g id="a_Node000006"><a xlink:href="namespacevalidation__api.html#ac19e25b4d8364b0f52152440dd5ecbda" target="_top" xlink:title=" ">
<polygon fill="white" stroke="#666666" points="538.5,-110.75 392.75,-110.75 392.75,-90 538.5,-90 538.5,-110.75"/>
<text text-anchor="middle" x="465.62" y="-97.25" font-family="Helvetica,sans-Serif" font-size="10.00">validation_api::isValidUuid</text>
</a>
</g>
</g>
<!-- Node3&#45;&gt;Node6 -->
<g id="edge5_Node000003_Node000006" class="edge">
<title>Node3&#45;&gt;Node6</title>
<g id="a_edge5_Node000003_Node000006"><a xlink:title=" ">
<path fill="none" stroke="#63b8ff" d="M342.08,-100.38C354.67,-100.38 368.03,-100.38 381.13,-100.38"/>
<polygon fill="#63b8ff" stroke="#63b8ff" points="381.03,-103.88 391.03,-100.38 381.03,-96.88 381.03,-103.88"/>
</a>
</g>
</g>
<!-- Node7 -->
<g id="Node000007" class="node">
<title>Node7</title>
<g id="a_Node000007"><a xlink:href="classvalidation__api_1_1ErrorBuilder.html#a014e70c2f2b4a2ee879c363b4a2174f2" target="_top" xlink:title="Set the First Msg object.">
<polygon fill="white" stroke="#666666" points="540,-72.12 391.25,-72.12 391.25,-38.62 540,-38.62 540,-72.12"/>
<text text-anchor="start" x="399.25" y="-58.62" font-family="Helvetica,sans-Serif" font-size="10.00">validation_api::ErrorBuilder</text>
<text text-anchor="middle" x="465.62" y="-45.88" font-family="Helvetica,sans-Serif" font-size="10.00">::setSecondMsg</text>
</a>
</g>
</g>
<!-- Node3&#45;&gt;Node7 -->
<g id="edge6_Node000003_Node000007" class="edge">
<title>Node3&#45;&gt;Node7</title>
<g id="a_edge6_Node000003_Node000007"><a xlink:title=" ">
<path fill="none" stroke="#63b8ff" d="M342.08,-84.83C354.88,-81.75 368.48,-78.48 381.79,-75.28"/>
<polygon fill="#63b8ff" stroke="#63b8ff" points="382.49,-78.71 391.4,-72.97 380.86,-71.91 382.49,-78.71"/>
</a>
</g>
</g>
<!-- Node8 -->
<g id="Node000008" class="node">
<title>Node8</title>
<g id="a_Node000008"><a xlink:href="namespacevalidation__api.html#a6dd56dcf7358b332bb906a2d27fddd0b" target="_top" xlink:title="Converts string to all lowercase.">
<polygon fill="white" stroke="#666666" points="530.62,-20.75 400.62,-20.75 400.62,0 530.62,0 530.62,-20.75"/>
<text text-anchor="middle" x="465.62" y="-7.25" font-family="Helvetica,sans-Serif" font-size="10.00">validation_api::toLower</text>
</a>
</g>
</g>
<!-- Node3&#45;&gt;Node8 -->
<g id="edge7_Node000003_Node000008" class="edge">
<title>Node3&#45;&gt;Node8</title>
<g id="a_edge7_Node000003_Node000008"><a xlink:title=" ">
<path fill="none" stroke="#63b8ff" d="M300.21,-83.21C322.42,-67.24 357.64,-43.8 391.25,-29.38 395.28,-27.64 399.51,-26.04 403.82,-24.56"/>
<polygon fill="#63b8ff" stroke="#63b8ff" points="404.69,-27.96 413.16,-21.6 402.57,-21.29 404.69,-27.96"/>
</a>
</g>
</g>
</g>
</svg>
