<?xml version="1.0" encoding="UTF-8" standalone="no"?>
<!DOCTYPE svg PUBLIC "-//W3C//DTD SVG 1.1//EN"
 "http://www.w3.org/Graphics/SVG/1.1/DTD/svg11.dtd">
<!-- Generated by graphviz version 12.2.1 (0)
 -->
<!-- Title: validation_api::IService Pages: 1 -->
<svg width="280pt" height="420pt"
 viewBox="0.00 0.00 279.50 420.00" xmlns="http://www.w3.org/2000/svg" xmlns:xlink="http://www.w3.org/1999/xlink">
<g id="graph0" class="graph" transform="scale(1 1) rotate(0) translate(4 416)">
<title>validation_api::IService</title>
<!-- Node1 -->
<g id="Node000001" class="node">
<title>Node1</title>
<g id="a_Node000001"><a xlink:title="Interface for all services.">
<polygon fill="#999999" stroke="none" points="195.5,-412 86.25,-412 86.25,-312 195.5,-312 195.5,-412"/>
<text text-anchor="start" x="90.25" y="-398.5" font-family="Helvetica,sans-Serif" font-size="10.00">validation_api::IService</text>
<text text-anchor="start" x="139.38" y="-382.5" font-family="Helvetica,sans-Serif" font-size="10.00"> </text>
<text text-anchor="start" x="101.06" y="-366.5" font-family="Helvetica,sans-Serif" font-size="10.00">+</text>
<text text-anchor="start" x="121.88" y="-366.5" font-family="Helvetica,sans-Serif" font-size="10.00">~IService()</text>
<text text-anchor="start" x="101.06" y="-350.5" font-family="Helvetica,sans-Serif" font-size="10.00">+</text>
<text text-anchor="start" x="121.88" y="-350.5" font-family="Helvetica,sans-Serif" font-size="10.00">run()</text>
<text text-anchor="start" x="101.06" y="-334.5" font-family="Helvetica,sans-Serif" font-size="10.00">+</text>
<text text-anchor="start" x="121.88" y="-334.5" font-family="Helvetica,sans-Serif" font-size="10.00">setup()</text>
<text text-anchor="start" x="101.06" y="-318.5" font-family="Helvetica,sans-Serif" font-size="10.00">+</text>
<text text-anchor="start" x="121.88" y="-318.5" font-family="Helvetica,sans-Serif" font-size="10.00">stop()</text>
<polygon fill="#666666" stroke="#666666" points="86.25,-394 86.25,-394 195.5,-394 195.5,-394 86.25,-394"/>
<polygon fill="#666666" stroke="#666666" points="86.25,-378 86.25,-378 195.5,-378 195.5,-378 86.25,-378"/>
<polygon fill="none" stroke="#666666" points="86.25,-312 86.25,-412 195.5,-412 195.5,-312 86.25,-312"/>
</a>
</g>
</g>
<!-- Node2 -->
<g id="Node000002" class="node">
<title>Node2</title>
<g id="a_Node000002"><a xlink:href="classvalidation__api_1_1ConfigWatcher.html" target="_top" xlink:title="Class to watch for changes in a directory.">
<polygon fill="white" stroke="none" points="137.75,-276 0,-276 0,0 137.75,0 137.75,-276"/>
<text text-anchor="start" x="4" y="-262.5" font-family="Helvetica,sans-Serif" font-size="10.00">validation_api::ConfigWatcher</text>
<text text-anchor="start" x="15.56" y="-246.5" font-family="Helvetica,sans-Serif" font-size="10.00">&#45;</text>
<text text-anchor="start" x="34.12" y="-246.5" font-family="Helvetica,sans-Serif" font-size="10.00">fileAssocation_</text>
<text text-anchor="start" x="15.56" y="-230.5" font-family="Helvetica,sans-Serif" font-size="10.00">&#45;</text>
<text text-anchor="start" x="34.12" y="-230.5" font-family="Helvetica,sans-Serif" font-size="10.00">callback_</text>
<text text-anchor="start" x="15.56" y="-214.5" font-family="Helvetica,sans-Serif" font-size="10.00">&#45;</text>
<text text-anchor="start" x="34.12" y="-214.5" font-family="Helvetica,sans-Serif" font-size="10.00">service_</text>
<text text-anchor="start" x="15.56" y="-198.5" font-family="Helvetica,sans-Serif" font-size="10.00">&#45;</text>
<text text-anchor="start" x="34.12" y="-198.5" font-family="Helvetica,sans-Serif" font-size="10.00">io_context_</text>
<text text-anchor="start" x="15.56" y="-182.5" font-family="Helvetica,sans-Serif" font-size="10.00">&#45;</text>
<text text-anchor="start" x="34.12" y="-182.5" font-family="Helvetica,sans-Serif" font-size="10.00">path_</text>
<text text-anchor="start" x="15.56" y="-166.5" font-family="Helvetica,sans-Serif" font-size="10.00">&#45;</text>
<text text-anchor="start" x="34.12" y="-166.5" font-family="Helvetica,sans-Serif" font-size="10.00">running_</text>
<text text-anchor="start" x="15.56" y="-150.5" font-family="Helvetica,sans-Serif" font-size="10.00">&#45;</text>
<text text-anchor="start" x="34.12" y="-150.5" font-family="Helvetica,sans-Serif" font-size="10.00">watcherThread</text>
<text text-anchor="start" x="15.56" y="-134.5" font-family="Helvetica,sans-Serif" font-size="10.00">&#45;</text>
<text text-anchor="start" x="34.12" y="-134.5" font-family="Helvetica,sans-Serif" font-size="10.00">inotify_fd_</text>
<text text-anchor="start" x="15.56" y="-118.5" font-family="Helvetica,sans-Serif" font-size="10.00">&#45;</text>
<text text-anchor="start" x="34.12" y="-118.5" font-family="Helvetica,sans-Serif" font-size="10.00">watch_descriptor_</text>
<text text-anchor="start" x="15.56" y="-102.5" font-family="Helvetica,sans-Serif" font-size="10.00">&#45;</text>
<text text-anchor="start" x="34.12" y="-102.5" font-family="Helvetica,sans-Serif" font-size="10.00">logger_</text>
<text text-anchor="start" x="14.06" y="-86.5" font-family="Helvetica,sans-Serif" font-size="10.00">+</text>
<text text-anchor="start" x="34.12" y="-86.5" font-family="Helvetica,sans-Serif" font-size="10.00">ConfigWatcher()</text>
<text text-anchor="start" x="14.06" y="-70.5" font-family="Helvetica,sans-Serif" font-size="10.00">+</text>
<text text-anchor="start" x="34.12" y="-70.5" font-family="Helvetica,sans-Serif" font-size="10.00">~ConfigWatcher()</text>
<text text-anchor="start" x="14.06" y="-54.5" font-family="Helvetica,sans-Serif" font-size="10.00">+</text>
<text text-anchor="start" x="34.12" y="-54.5" font-family="Helvetica,sans-Serif" font-size="10.00">read_file()</text>
<text text-anchor="start" x="14.06" y="-38.5" font-family="Helvetica,sans-Serif" font-size="10.00">+</text>
<text text-anchor="start" x="34.12" y="-38.5" font-family="Helvetica,sans-Serif" font-size="10.00">run()</text>
<text text-anchor="start" x="14.06" y="-22.5" font-family="Helvetica,sans-Serif" font-size="10.00">+</text>
<text text-anchor="start" x="34.12" y="-22.5" font-family="Helvetica,sans-Serif" font-size="10.00">setup()</text>
<text text-anchor="start" x="14.06" y="-6.5" font-family="Helvetica,sans-Serif" font-size="10.00">+</text>
<text text-anchor="start" x="34.12" y="-6.5" font-family="Helvetica,sans-Serif" font-size="10.00">stop()</text>
<polygon fill="#666666" stroke="#666666" points="0,-258 0,-258 137.75,-258 137.75,-258 0,-258"/>
<polygon fill="#666666" stroke="#666666" points="0,-98 0,-98 32.12,-98 32.12,-98 0,-98"/>
<polygon fill="#666666" stroke="#666666" points="32.12,-98 32.12,-98 137.75,-98 137.75,-98 32.12,-98"/>
<polygon fill="none" stroke="#666666" points="0,0 0,-276 137.75,-276 137.75,0 0,0"/>
</a>
</g>
</g>
<!-- Node1&#45;&gt;Node2 -->
<g id="edge1_Node000001_Node000002" class="edge">
<title>Node1&#45;&gt;Node2</title>
<g id="a_edge1_Node000001_Node000002"><a xlink:title=" ">
<path fill="none" stroke="#63b8ff" d="M121.5,-301.26C118.87,-293.14 116.09,-284.56 113.23,-275.75"/>
<polygon fill="none" stroke="#63b8ff" points="118.1,-302.13 124.52,-310.57 124.76,-299.97 118.1,-302.13"/>
</a>
</g>
</g>
<!-- Node3 -->
<g id="Node000003" class="node">
<title>Node3</title>
<g id="a_Node000003"><a xlink:href="classvalidation__api_1_1ValidationServer.html" target="_top" xlink:title="Class for exposing the application to the network.">
<polygon fill="white" stroke="none" points="271.5,-266 156.25,-266 156.25,-10 271.5,-10 271.5,-266"/>
<text text-anchor="start" x="160.25" y="-252.5" font-family="Helvetica,sans-Serif" font-size="10.00">validation_api::Validation</text>
<text text-anchor="start" x="199.62" y="-240.5" font-family="Helvetica,sans-Serif" font-size="10.00">Server</text>
<text text-anchor="start" x="165.44" y="-224.5" font-family="Helvetica,sans-Serif" font-size="10.00">&#45;</text>
<text text-anchor="start" x="177.62" y="-224.5" font-family="Helvetica,sans-Serif" font-size="10.00">running_</text>
<text text-anchor="start" x="165.44" y="-208.5" font-family="Helvetica,sans-Serif" font-size="10.00">&#45;</text>
<text text-anchor="start" x="177.62" y="-208.5" font-family="Helvetica,sans-Serif" font-size="10.00">io_context_</text>
<text text-anchor="start" x="165.44" y="-192.5" font-family="Helvetica,sans-Serif" font-size="10.00">&#45;</text>
<text text-anchor="start" x="177.62" y="-192.5" font-family="Helvetica,sans-Serif" font-size="10.00">acceptor_</text>
<text text-anchor="start" x="165.44" y="-176.5" font-family="Helvetica,sans-Serif" font-size="10.00">&#45;</text>
<text text-anchor="start" x="177.62" y="-176.5" font-family="Helvetica,sans-Serif" font-size="10.00">service_</text>
<text text-anchor="start" x="165.44" y="-160.5" font-family="Helvetica,sans-Serif" font-size="10.00">&#45;</text>
<text text-anchor="start" x="177.62" y="-160.5" font-family="Helvetica,sans-Serif" font-size="10.00">semaphore_</text>
<text text-anchor="start" x="165.44" y="-144.5" font-family="Helvetica,sans-Serif" font-size="10.00">&#45;</text>
<text text-anchor="start" x="177.62" y="-144.5" font-family="Helvetica,sans-Serif" font-size="10.00">logger_</text>
<text text-anchor="start" x="165.44" y="-128.5" font-family="Helvetica,sans-Serif" font-size="10.00">&#45;</text>
<text text-anchor="start" x="177.62" y="-128.5" font-family="Helvetica,sans-Serif" font-size="10.00">workGuard_</text>
<text text-anchor="start" x="163.94" y="-112.5" font-family="Helvetica,sans-Serif" font-size="10.00">+</text>
<text text-anchor="start" x="177.62" y="-112.5" font-family="Helvetica,sans-Serif" font-size="10.00">ValidationServer()</text>
<text text-anchor="start" x="163.94" y="-96.5" font-family="Helvetica,sans-Serif" font-size="10.00">+</text>
<text text-anchor="start" x="177.62" y="-96.5" font-family="Helvetica,sans-Serif" font-size="10.00">~ValidationServer()</text>
<text text-anchor="start" x="163.94" y="-80.5" font-family="Helvetica,sans-Serif" font-size="10.00">+</text>
<text text-anchor="start" x="177.62" y="-80.5" font-family="Helvetica,sans-Serif" font-size="10.00">setup()</text>
<text text-anchor="start" x="163.94" y="-64.5" font-family="Helvetica,sans-Serif" font-size="10.00">+</text>
<text text-anchor="start" x="177.62" y="-64.5" font-family="Helvetica,sans-Serif" font-size="10.00">run()</text>
<text text-anchor="start" x="163.94" y="-48.5" font-family="Helvetica,sans-Serif" font-size="10.00">+</text>
<text text-anchor="start" x="177.62" y="-48.5" font-family="Helvetica,sans-Serif" font-size="10.00">stop()</text>
<text text-anchor="start" x="165.44" y="-32.5" font-family="Helvetica,sans-Serif" font-size="10.00">&#45;</text>
<text text-anchor="start" x="177.62" y="-32.5" font-family="Helvetica,sans-Serif" font-size="10.00">accept()</text>
<text text-anchor="start" x="165.44" y="-16.5" font-family="Helvetica,sans-Serif" font-size="10.00">&#45;</text>
<text text-anchor="start" x="177.62" y="-16.5" font-family="Helvetica,sans-Serif" font-size="10.00">asyncWriter()</text>
<polygon fill="#666666" stroke="#666666" points="156.25,-236 156.25,-236 271.5,-236 271.5,-236 156.25,-236"/>
<polygon fill="#666666" stroke="#666666" points="156.25,-124 156.25,-124 175.62,-124 175.62,-124 156.25,-124"/>
<polygon fill="#666666" stroke="#666666" points="175.62,-124 175.62,-124 271.5,-124 271.5,-124 175.62,-124"/>
<polygon fill="none" stroke="#666666" points="156.25,-10 156.25,-266 271.5,-266 271.5,-10 156.25,-10"/>
</a>
</g>
</g>
<!-- Node1&#45;&gt;Node3 -->
<g id="edge2_Node000001_Node000003" class="edge">
<title>Node1&#45;&gt;Node3</title>
<g id="a_edge2_Node000001_Node000003"><a xlink:title=" ">
<path fill="none" stroke="#63b8ff" d="M160.53,-301.23C164.18,-290.14 168.11,-278.18 172.13,-265.95"/>
<polygon fill="none" stroke="#63b8ff" points="157.26,-299.98 157.46,-310.57 163.91,-302.16 157.26,-299.98"/>
</a>
</g>
</g>
</g>
</svg>
