<?xml version="1.0" encoding="UTF-8" standalone="no"?>
<!DOCTYPE svg PUBLIC "-//W3C//DTD SVG 1.1//EN"
 "http://www.w3.org/Graphics/SVG/1.1/DTD/svg11.dtd">
<!-- Generated by graphviz version 12.2.1 (0)
 -->
<!-- Title: validation_api::ConfigWatcher::run Pages: 1 -->
<svg width="679pt" height="142pt"
 viewBox="0.00 0.00 678.75 142.00" xmlns="http://www.w3.org/2000/svg" xmlns:xlink="http://www.w3.org/1999/xlink">
<g id="graph0" class="graph" transform="scale(1 1) rotate(0) translate(4 138)">
<title>validation_api::ConfigWatcher::run</title>
<!-- Node1 -->
<g id="Node000001" class="node">
<title>Node1</title>
<g id="a_Node000001"><a xlink:title="Start ConfigWatcher.">
<polygon fill="#999999" stroke="#666666" points="165.25,-55 0,-55 0,-35 165.25,-35 165.25,-55"/>
<text text-anchor="middle" x="82.62" y="-41.5" font-family="Helvetica,sans-Serif" font-size="10.00">validation_api::ConfigWatcher::run</text>
</a>
</g>
</g>
<!-- Node2 -->
<g id="Node000002" class="node">
<title>Node2</title>
<g id="a_Node000002"><a xlink:href="classvalidation__api_1_1ConfigWatcher.html#a78820bcf2ebf9135785e207aae042e72" target="_top" xlink:title=" ">
<polygon fill="white" stroke="#666666" points="347,-83 201.25,-83 201.25,-51 347,-51 347,-83"/>
<text text-anchor="start" x="209.25" y="-69.5" font-family="Helvetica,sans-Serif" font-size="10.00">validation_api::ConfigWatcher</text>
<text text-anchor="middle" x="274.12" y="-57.5" font-family="Helvetica,sans-Serif" font-size="10.00">::read_file</text>
</a>
</g>
</g>
<!-- Node1&#45;&gt;Node2 -->
<g id="edge1_Node000001_Node000002" class="edge">
<title>Node1&#45;&gt;Node2</title>
<g id="a_edge1_Node000001_Node000002"><a xlink:title=" ">
<path fill="none" stroke="#63b8ff" d="M165.64,-54.52C173.59,-55.45 181.67,-56.38 189.64,-57.31"/>
<polygon fill="#63b8ff" stroke="#63b8ff" points="188.97,-60.75 199.31,-58.43 189.78,-53.8 188.97,-60.75"/>
</a>
</g>
</g>
<!-- Node8 -->
<g id="Node000008" class="node">
<title>Node8</title>
<g id="a_Node000008"><a xlink:href="ConfigWatcher_8cpp.html#af492780bc7786abac56fa242d4fc3045" target="_top" xlink:title=" ">
<polygon fill="white" stroke="#666666" points="306.12,-33 242.12,-33 242.12,-13 306.12,-13 306.12,-33"/>
<text text-anchor="middle" x="274.12" y="-19.5" font-family="Helvetica,sans-Serif" font-size="10.00">semaphore</text>
</a>
</g>
</g>
<!-- Node1&#45;&gt;Node8 -->
<g id="edge8_Node000001_Node000008" class="edge">
<title>Node1&#45;&gt;Node8</title>
<g id="a_edge8_Node000001_Node000008"><a xlink:title=" ">
<path fill="none" stroke="#63b8ff" d="M165.64,-35.48C188.01,-32.88 211.34,-30.17 230.52,-27.95"/>
<polygon fill="#63b8ff" stroke="#63b8ff" points="230.85,-31.43 240.38,-26.8 230.05,-24.48 230.85,-31.43"/>
</a>
</g>
</g>
<!-- Node3 -->
<g id="Node000003" class="node">
<title>Node3</title>
<g id="a_Node000003"><a xlink:href="namespacevalidation__api.html#aa82c6b3a43b6e6b59b529c22944cadca" target="_top" xlink:title="Ensures valid Xml configuration.">
<polygon fill="white" stroke="#666666" points="498,-83 383,-83 383,-51 498,-51 498,-83"/>
<text text-anchor="start" x="391" y="-69.5" font-family="Helvetica,sans-Serif" font-size="10.00">validation_api::validate</text>
<text text-anchor="middle" x="440.5" y="-57.5" font-family="Helvetica,sans-Serif" font-size="10.00">XmlConfig</text>
</a>
</g>
</g>
<!-- Node2&#45;&gt;Node3 -->
<g id="edge2_Node000002_Node000003" class="edge">
<title>Node2&#45;&gt;Node3</title>
<g id="a_edge2_Node000002_Node000003"><a xlink:title=" ">
<path fill="none" stroke="#63b8ff" d="M347.22,-67C355.22,-67 363.35,-67 371.3,-67"/>
<polygon fill="#63b8ff" stroke="#63b8ff" points="371.26,-70.5 381.26,-67 371.26,-63.5 371.26,-70.5"/>
</a>
</g>
</g>
<!-- Node3&#45;&gt;Node3 -->
<g id="edge7_Node000003_Node000003" class="edge">
<title>Node3&#45;&gt;Node3</title>
<g id="a_edge7_Node000003_Node000003"><a xlink:title=" ">
<path fill="none" stroke="#63b8ff" d="M411.6,-83.44C406.21,-92.58 415.84,-101 440.5,-101 453.99,-101 462.98,-98.48 467.48,-94.71"/>
<polygon fill="#63b8ff" stroke="#63b8ff" points="470.91,-95.38 469.14,-84.93 464.01,-94.2 470.91,-95.38"/>
</a>
</g>
</g>
<!-- Node4 -->
<g id="Node000004" class="node">
<title>Node4</title>
<g id="a_Node000004"><a xlink:href="namespacevalidation__api.html#a0c0f34d744f57bb06458867fbee4b7a9" target="_top" xlink:title="Insert an error into a json object.">
<polygon fill="white" stroke="#666666" points="670.75,-134 534,-134 534,-114 670.75,-114 670.75,-134"/>
<text text-anchor="middle" x="602.38" y="-120.5" font-family="Helvetica,sans-Serif" font-size="10.00">validation_api::insertToJson</text>
</a>
</g>
</g>
<!-- Node3&#45;&gt;Node4 -->
<g id="edge3_Node000003_Node000004" class="edge">
<title>Node3&#45;&gt;Node4</title>
<g id="a_edge3_Node000003_Node000004"><a xlink:title=" ">
<path fill="none" stroke="#63b8ff" d="M478.48,-83.33C495.26,-90.45 515.46,-98.6 534,-105 539.39,-106.86 545.07,-108.68 550.75,-110.4"/>
<polygon fill="#63b8ff" stroke="#63b8ff" points="549.56,-113.7 560.14,-113.17 551.54,-106.99 549.56,-113.7"/>
</a>
</g>
</g>
<!-- Node5 -->
<g id="Node000005" class="node">
<title>Node5</title>
<g id="a_Node000005"><a xlink:href="namespacevalidation__api.html#ac497c1198e4e7f0fe71ffbdb3e6beeaa" target="_top" xlink:title="Convert string to float.">
<polygon fill="white" stroke="#666666" points="657.62,-96 547.12,-96 547.12,-76 657.62,-76 657.62,-96"/>
<text text-anchor="middle" x="602.38" y="-82.5" font-family="Helvetica,sans-Serif" font-size="10.00">validation_api::isFloat</text>
</a>
</g>
</g>
<!-- Node3&#45;&gt;Node5 -->
<g id="edge4_Node000003_Node000005" class="edge">
<title>Node3&#45;&gt;Node5</title>
<g id="a_edge4_Node000003_Node000005"><a xlink:title=" ">
<path fill="none" stroke="#63b8ff" d="M498.32,-73.75C510.41,-75.19 523.28,-76.72 535.67,-78.19"/>
<polygon fill="#63b8ff" stroke="#63b8ff" points="535.04,-81.64 545.38,-79.35 535.87,-74.69 535.04,-81.64"/>
</a>
</g>
</g>
<!-- Node6 -->
<g id="Node000006" class="node">
<title>Node6</title>
<g id="a_Node000006"><a xlink:href="namespacevalidation__api.html#ac19e25b4d8364b0f52152440dd5ecbda" target="_top" xlink:title=" ">
<polygon fill="white" stroke="#666666" points="667.38,-58 537.38,-58 537.38,-38 667.38,-38 667.38,-58"/>
<text text-anchor="middle" x="602.38" y="-44.5" font-family="Helvetica,sans-Serif" font-size="10.00">validation_api::isValidUuid</text>
</a>
</g>
</g>
<!-- Node3&#45;&gt;Node6 -->
<g id="edge5_Node000003_Node000006" class="edge">
<title>Node3&#45;&gt;Node6</title>
<g id="a_edge5_Node000003_Node000006"><a xlink:title=" ">
<path fill="none" stroke="#63b8ff" d="M498.32,-60.25C507.25,-59.19 516.6,-58.07 525.88,-56.97"/>
<polygon fill="#63b8ff" stroke="#63b8ff" points="526.1,-60.47 535.61,-55.82 525.27,-53.52 526.1,-60.47"/>
</a>
</g>
</g>
<!-- Node7 -->
<g id="Node000007" class="node">
<title>Node7</title>
<g id="a_Node000007"><a xlink:href="namespacevalidation__api.html#a6dd56dcf7358b332bb906a2d27fddd0b" target="_top" xlink:title="Converts string to all lowercase.">
<polygon fill="white" stroke="#666666" points="660.25,-20 544.5,-20 544.5,0 660.25,0 660.25,-20"/>
<text text-anchor="middle" x="602.38" y="-6.5" font-family="Helvetica,sans-Serif" font-size="10.00">validation_api::toLower</text>
</a>
</g>
</g>
<!-- Node3&#45;&gt;Node7 -->
<g id="edge6_Node000003_Node000007" class="edge">
<title>Node3&#45;&gt;Node7</title>
<g id="a_edge6_Node000003_Node000007"><a xlink:title=" ">
<path fill="none" stroke="#63b8ff" d="M478.48,-50.67C495.26,-43.55 515.46,-35.4 534,-29 539.39,-27.14 545.07,-25.32 550.75,-23.6"/>
<polygon fill="#63b8ff" stroke="#63b8ff" points="551.54,-27.01 560.14,-20.83 549.56,-20.3 551.54,-27.01"/>
</a>
</g>
</g>
</g>
</svg>
