<?xml version="1.0" encoding="UTF-8" standalone="no"?>
<!DOCTYPE svg PUBLIC "-//W3C//DTD SVG 1.1//EN"
 "http://www.w3.org/Graphics/SVG/1.1/DTD/svg11.dtd">
<!-- Generated by graphviz version 10.0.1 (0)
 -->
<!-- Title: validation_api::ConfigWatcher::setup Pages: 1 -->
<svg width="746pt" height="163pt"
 viewBox="0.00 0.00 746.25 163.12" xmlns="http://www.w3.org/2000/svg" xmlns:xlink="http://www.w3.org/1999/xlink">
<g id="graph0" class="graph" transform="scale(1 1) rotate(0) translate(4 159.12)">
<title>validation_api::ConfigWatcher::setup</title>
<!-- Node1 -->
<g id="Node000001" class="node">
<title>Node1</title>
<g id="a_Node000001"><a xlink:title="Setup the ConfigWatcher.">
<polygon fill="#999999" stroke="#666666" points="161.5,-120.12 0,-120.12 0,-86.62 161.5,-86.62 161.5,-120.12"/>
<text text-anchor="start" x="8" y="-106.62" font-family="Helvetica,sans-Serif" font-size="10.00">validation_api::ConfigWatcher</text>
<text text-anchor="middle" x="80.75" y="-93.88" font-family="Helvetica,sans-Serif" font-size="10.00">::setup</text>
</a>
</g>
</g>
<!-- Node2 -->
<g id="Node000002" class="node">
<title>Node2</title>
<g id="a_Node000002"><a xlink:href="classvalidation__api_1_1ConfigWatcher.html#a78820bcf2ebf9135785e207aae042e72" target="_top" xlink:title=" ">
<polygon fill="white" stroke="#666666" points="359,-120.12 197.5,-120.12 197.5,-86.62 359,-86.62 359,-120.12"/>
<text text-anchor="start" x="205.5" y="-106.62" font-family="Helvetica,sans-Serif" font-size="10.00">validation_api::ConfigWatcher</text>
<text text-anchor="middle" x="278.25" y="-93.88" font-family="Helvetica,sans-Serif" font-size="10.00">::read_file</text>
</a>
</g>
</g>
<!-- Node1&#45;&gt;Node2 -->
<g id="edge1_Node000001_Node000002" class="edge">
<title>Node1&#45;&gt;Node2</title>
<g id="a_edge1_Node000001_Node000002"><a xlink:title=" ">
<path fill="none" stroke="#63b8ff" d="M161.83,-103.38C169.79,-103.38 177.9,-103.38 185.96,-103.38"/>
<polygon fill="#63b8ff" stroke="#63b8ff" points="185.78,-106.88 195.78,-103.38 185.78,-99.88 185.78,-106.88"/>
</a>
</g>
</g>
<!-- Node3 -->
<g id="Node000003" class="node">
<title>Node3</title>
<g id="a_Node000003"><a xlink:href="classvalidation__api_1_1ConfigService.html#a8fee54d1f3f5eb92a17c3ecd72780f00" target="_top" xlink:title="getConfigs method">
<polygon fill="white" stroke="#666666" points="552.75,-155.12 395,-155.12 395,-121.62 552.75,-121.62 552.75,-155.12"/>
<text text-anchor="start" x="403" y="-141.62" font-family="Helvetica,sans-Serif" font-size="10.00">validation_api::ConfigService</text>
<text text-anchor="middle" x="473.88" y="-128.88" font-family="Helvetica,sans-Serif" font-size="10.00">::createConfig</text>
</a>
</g>
</g>
<!-- Node2&#45;&gt;Node3 -->
<g id="edge2_Node000002_Node000003" class="edge">
<title>Node2&#45;&gt;Node3</title>
<g id="a_edge2_Node000002_Node000003"><a xlink:title=" ">
<path fill="none" stroke="#63b8ff" d="M359.4,-117.86C367.32,-119.3 375.4,-120.75 383.4,-122.2"/>
<polygon fill="#63b8ff" stroke="#63b8ff" points="382.7,-125.63 393.16,-123.97 383.94,-118.74 382.7,-125.63"/>
</a>
</g>
</g>
<!-- Node4 -->
<g id="Node000004" class="node">
<title>Node4</title>
<g id="a_Node000004"><a xlink:href="namespacevalidation__api.html#aa82c6b3a43b6e6b59b529c22944cadca" target="_top" xlink:title="Ensures valid Xml configuration.">
<polygon fill="white" stroke="#666666" points="539.25,-85.12 408.5,-85.12 408.5,-51.62 539.25,-51.62 539.25,-85.12"/>
<text text-anchor="start" x="416.5" y="-71.62" font-family="Helvetica,sans-Serif" font-size="10.00">validation_api::validate</text>
<text text-anchor="middle" x="473.88" y="-58.88" font-family="Helvetica,sans-Serif" font-size="10.00">XmlConfig</text>
</a>
</g>
</g>
<!-- Node2&#45;&gt;Node4 -->
<g id="edge3_Node000002_Node000004" class="edge">
<title>Node2&#45;&gt;Node4</title>
<g id="a_edge3_Node000002_Node000004"><a xlink:title=" ">
<path fill="none" stroke="#63b8ff" d="M359.4,-88.89C371.83,-86.64 384.63,-84.33 396.96,-82.1"/>
<polygon fill="#63b8ff" stroke="#63b8ff" points="397.42,-85.57 406.64,-80.35 396.17,-78.68 397.42,-85.57"/>
</a>
</g>
</g>
<!-- Node4&#45;&gt;Node4 -->
<g id="edge8_Node000004_Node000004" class="edge">
<title>Node4&#45;&gt;Node4</title>
<g id="a_edge8_Node000004_Node000004"><a xlink:title=" ">
<path fill="none" stroke="#63b8ff" d="M439.79,-85.54C433.99,-94.74 445.36,-103.12 473.88,-103.12 489.92,-103.12 500.53,-100.47 505.71,-96.51"/>
<polygon fill="#63b8ff" stroke="#63b8ff" points="509.08,-97.52 507.66,-87.02 502.22,-96.12 509.08,-97.52"/>
</a>
</g>
</g>
<!-- Node5 -->
<g id="Node000005" class="node">
<title>Node5</title>
<g id="a_Node000005"><a xlink:href="namespacevalidation__api.html#a0c0f34d744f57bb06458867fbee4b7a9" target="_top" xlink:title="Insert an error into a json object.">
<polygon fill="white" stroke="#666666" points="738.25,-137.75 588.75,-137.75 588.75,-117 738.25,-117 738.25,-137.75"/>
<text text-anchor="middle" x="663.5" y="-124.25" font-family="Helvetica,sans-Serif" font-size="10.00">validation_api::insertToJson</text>
</a>
</g>
</g>
<!-- Node4&#45;&gt;Node5 -->
<g id="edge4_Node000004_Node000005" class="edge">
<title>Node4&#45;&gt;Node5</title>
<g id="a_edge4_Node000004_Node000005"><a xlink:title=" ">
<path fill="none" stroke="#63b8ff" d="M522.85,-85.58C543.09,-92.64 566.97,-100.7 588.75,-107.38 595.49,-109.44 602.61,-111.51 609.67,-113.5"/>
<polygon fill="#63b8ff" stroke="#63b8ff" points="608.6,-116.83 619.17,-116.13 610.47,-110.09 608.6,-116.83"/>
</a>
</g>
</g>
<!-- Node6 -->
<g id="Node000006" class="node">
<title>Node6</title>
<g id="a_Node000006"><a xlink:href="namespacevalidation__api.html#ac497c1198e4e7f0fe71ffbdb3e6beeaa" target="_top" xlink:title="Convert string to float.">
<polygon fill="white" stroke="#666666" points="725.5,-98.75 601.5,-98.75 601.5,-78 725.5,-78 725.5,-98.75"/>
<text text-anchor="middle" x="663.5" y="-85.25" font-family="Helvetica,sans-Serif" font-size="10.00">validation_api::isFloat</text>
</a>
</g>
</g>
<!-- Node4&#45;&gt;Node6 -->
<g id="edge5_Node000004_Node000006" class="edge">
<title>Node4&#45;&gt;Node6</title>
<g id="a_edge5_Node000004_Node000006"><a xlink:title=" ">
<path fill="none" stroke="#63b8ff" d="M539.71,-75.29C555.89,-77.01 573.34,-78.87 589.87,-80.63"/>
<polygon fill="#63b8ff" stroke="#63b8ff" points="589.32,-84.09 599.63,-81.67 590.06,-77.13 589.32,-84.09"/>
</a>
</g>
</g>
<!-- Node7 -->
<g id="Node000007" class="node">
<title>Node7</title>
<g id="a_Node000007"><a xlink:href="namespacevalidation__api.html#ac19e25b4d8364b0f52152440dd5ecbda" target="_top" xlink:title=" ">
<polygon fill="white" stroke="#666666" points="736.38,-59.75 590.62,-59.75 590.62,-39 736.38,-39 736.38,-59.75"/>
<text text-anchor="middle" x="663.5" y="-46.25" font-family="Helvetica,sans-Serif" font-size="10.00">validation_api::isValidUuid</text>
</a>
</g>
</g>
<!-- Node4&#45;&gt;Node7 -->
<g id="edge6_Node000004_Node000007" class="edge">
<title>Node4&#45;&gt;Node7</title>
<g id="a_edge6_Node000004_Node000007"><a xlink:title=" ">
<path fill="none" stroke="#63b8ff" d="M539.71,-61.81C552.32,-60.53 565.72,-59.18 578.84,-57.85"/>
<polygon fill="#63b8ff" stroke="#63b8ff" points="579.17,-61.33 588.77,-56.84 578.47,-54.37 579.17,-61.33"/>
</a>
</g>
</g>
<!-- Node8 -->
<g id="Node000008" class="node">
<title>Node8</title>
<g id="a_Node000008"><a xlink:href="namespacevalidation__api.html#a6dd56dcf7358b332bb906a2d27fddd0b" target="_top" xlink:title="Converts string to all lowercase.">
<polygon fill="white" stroke="#666666" points="728.5,-20.75 598.5,-20.75 598.5,0 728.5,0 728.5,-20.75"/>
<text text-anchor="middle" x="663.5" y="-7.25" font-family="Helvetica,sans-Serif" font-size="10.00">validation_api::toLower</text>
</a>
</g>
</g>
<!-- Node4&#45;&gt;Node8 -->
<g id="edge7_Node000004_Node000008" class="edge">
<title>Node4&#45;&gt;Node8</title>
<g id="a_edge7_Node000004_Node000008"><a xlink:title=" ">
<path fill="none" stroke="#63b8ff" d="M524.28,-51.2C544.23,-44.45 567.5,-36.8 588.75,-30.38 595.58,-28.31 602.8,-26.23 609.94,-24.23"/>
<polygon fill="#63b8ff" stroke="#63b8ff" points="610.87,-27.61 619.58,-21.57 609.01,-20.86 610.87,-27.61"/>
</a>
</g>
</g>
</g>
</svg>
