<?xml version="1.0" encoding="UTF-8" standalone="no"?>
<!DOCTYPE svg PUBLIC "-//W3C//DTD SVG 1.1//EN"
 "http://www.w3.org/Graphics/SVG/1.1/DTD/svg11.dtd">
<!-- Generated by graphviz version 10.0.1 (0)
 -->
<!-- Title: validation_api::ErrorBuilder Pages: 1 -->
<svg width="150pt" height="124pt"
 viewBox="0.00 0.00 150.00 124.00" xmlns="http://www.w3.org/2000/svg" xmlns:xlink="http://www.w3.org/1999/xlink">
<g id="graph0" class="graph" transform="scale(1 1) rotate(0) translate(4 120)">
<title>validation_api::ErrorBuilder</title>
<!-- Node1 -->
<g id="Node000001" class="node">
<title>Node1</title>
<g id="a_Node000001"><a xlink:title="ErrorBuilder class.">
<polygon fill="#999999" stroke="none" points="142,-116 0,-116 0,0 142,0 142,-116"/>
<text text-anchor="start" x="4.62" y="-102.5" font-family="Helvetica,sans-Serif" font-size="10.00">validation_api::ErrorBuilder</text>
<text text-anchor="start" x="17.12" y="-86.5" font-family="Helvetica,sans-Serif" font-size="10.00">&#45;</text>
<text text-anchor="start" x="38" y="-86.5" font-family="Helvetica,sans-Serif" font-size="10.00">type_</text>
<text text-anchor="start" x="17.12" y="-70.5" font-family="Helvetica,sans-Serif" font-size="10.00">&#45;</text>
<text text-anchor="start" x="38" y="-70.5" font-family="Helvetica,sans-Serif" font-size="10.00">firstMsg_</text>
<text text-anchor="start" x="17.12" y="-54.5" font-family="Helvetica,sans-Serif" font-size="10.00">&#45;</text>
<text text-anchor="start" x="38" y="-54.5" font-family="Helvetica,sans-Serif" font-size="10.00">secondMsg_</text>
<text text-anchor="start" x="14.88" y="-38.5" font-family="Helvetica,sans-Serif" font-size="10.00">+</text>
<text text-anchor="start" x="38" y="-38.5" font-family="Helvetica,sans-Serif" font-size="10.00">ErrorBuilder()</text>
<text text-anchor="start" x="14.88" y="-22.5" font-family="Helvetica,sans-Serif" font-size="10.00">+</text>
<text text-anchor="start" x="38" y="-22.5" font-family="Helvetica,sans-Serif" font-size="10.00">setSecondMsg()</text>
<text text-anchor="start" x="14.88" y="-6.5" font-family="Helvetica,sans-Serif" font-size="10.00">+</text>
<text text-anchor="start" x="38" y="-6.5" font-family="Helvetica,sans-Serif" font-size="10.00">build()</text>
<polygon fill="#666666" stroke="#666666" points="0,-98 0,-98 142,-98 142,-98 0,-98"/>
<polygon fill="#666666" stroke="#666666" points="0,-50 0,-50 36,-50 36,-50 0,-50"/>
<polygon fill="#666666" stroke="#666666" points="36,-50 36,-50 142,-50 142,-50 36,-50"/>
<polygon fill="none" stroke="#666666" points="0,0 0,-116 142,-116 142,0 0,0"/>
</a>
</g>
</g>
</g>
</svg>
