<?xml version="1.0" encoding="UTF-8" standalone="no"?>
<!DOCTYPE svg PUBLIC "-//W3C//DTD SVG 1.1//EN"
 "http://www.w3.org/Graphics/SVG/1.1/DTD/svg11.dtd">
<!-- Generated by graphviz version 10.0.1 (0)
 -->
<!-- Title: validation_api::ValidationServer::accept Pages: 1 -->
<svg width="1078pt" height="318pt"
 viewBox="0.00 0.00 1078.25 318.12" xmlns="http://www.w3.org/2000/svg" xmlns:xlink="http://www.w3.org/1999/xlink">
<g id="graph0" class="graph" transform="scale(1 1) rotate(0) translate(4 314.12)">
<title>validation_api::ValidationServer::accept</title>
<!-- Node1 -->
<g id="Node000001" class="node">
<title>Node1</title>
<g id="a_Node000001"><a xlink:title="Accept a connection.">
<polygon fill="#999999" stroke="#666666" points="139.75,-239.12 0,-239.12 0,-205.62 139.75,-205.62 139.75,-239.12"/>
<text text-anchor="start" x="8" y="-225.62" font-family="Helvetica,sans-Serif" font-size="10.00">validation_api::Validation</text>
<text text-anchor="middle" x="69.88" y="-212.88" font-family="Helvetica,sans-Serif" font-size="10.00">Server::accept</text>
</a>
</g>
</g>
<!-- Node2 -->
<g id="Node000002" class="node">
<title>Node2</title>
<g id="a_Node000002"><a xlink:href="classvalidation__api_1_1ValidationServer.html#a59c4a313effe28cc0acca7b8bb3a26e4" target="_top" xlink:title=" ">
<polygon fill="white" stroke="#666666" points="324.5,-284.12 184.75,-284.12 184.75,-250.62 324.5,-250.62 324.5,-284.12"/>
<text text-anchor="start" x="192.75" y="-270.62" font-family="Helvetica,sans-Serif" font-size="10.00">validation_api::Validation</text>
<text text-anchor="middle" x="254.62" y="-257.88" font-family="Helvetica,sans-Serif" font-size="10.00">Server::asyncWriter</text>
</a>
</g>
</g>
<!-- Node1&#45;&gt;Node2 -->
<g id="edge1_Node000001_Node000002" class="edge">
<title>Node1&#45;&gt;Node2</title>
<g id="a_edge1_Node000001_Node000002"><a xlink:title=" ">
<path fill="none" stroke="#63b8ff" d="M140.23,-239.45C151.05,-242.12 162.32,-244.89 173.37,-247.61"/>
<polygon fill="#63b8ff" stroke="#63b8ff" points="172.31,-250.96 182.85,-249.95 173.98,-244.16 172.31,-250.96"/>
</a>
</g>
</g>
<!-- Node3 -->
<g id="Node000003" class="node">
<title>Node3</title>
<g id="a_Node000003"><a xlink:href="namespacevalidation__api.html#ad94de3de52c70b315f5b36cce4642718" target="_top" xlink:title=" ">
<polygon fill="white" stroke="#666666" points="329.75,-232.75 179.5,-232.75 179.5,-212 329.75,-212 329.75,-232.75"/>
<text text-anchor="middle" x="254.62" y="-219.25" font-family="Helvetica,sans-Serif" font-size="10.00">validation_api::errorsToJson</text>
</a>
</g>
</g>
<!-- Node1&#45;&gt;Node3 -->
<g id="edge2_Node000001_Node000003" class="edge">
<title>Node1&#45;&gt;Node3</title>
<g id="a_edge2_Node000001_Node000003"><a xlink:title=" ">
<path fill="none" stroke="#63b8ff" d="M140.23,-222.38C149.27,-222.38 158.62,-222.38 167.9,-222.38"/>
<polygon fill="#63b8ff" stroke="#63b8ff" points="167.63,-225.88 177.63,-222.38 167.63,-218.88 167.63,-225.88"/>
</a>
</g>
</g>
<!-- Node4 -->
<g id="Node000004" class="node">
<title>Node4</title>
<g id="a_Node000004"><a xlink:href="classvalidation__api_1_1ConfigService.html#a654e84f4f588f7391f93210c1e08344f" target="_top" xlink:title="getConfigs method">
<polygon fill="white" stroke="#666666" points="333.5,-194.12 175.75,-194.12 175.75,-160.62 333.5,-160.62 333.5,-194.12"/>
<text text-anchor="start" x="183.75" y="-180.62" font-family="Helvetica,sans-Serif" font-size="10.00">validation_api::ConfigService</text>
<text text-anchor="middle" x="254.62" y="-167.88" font-family="Helvetica,sans-Serif" font-size="10.00">::validateConfig</text>
</a>
</g>
</g>
<!-- Node1&#45;&gt;Node4 -->
<g id="edge3_Node000001_Node000004" class="edge">
<title>Node1&#45;&gt;Node4</title>
<g id="a_edge3_Node000001_Node000004"><a xlink:title=" ">
<path fill="none" stroke="#63b8ff" d="M140.23,-205.3C150.79,-202.7 161.78,-199.99 172.57,-197.33"/>
<polygon fill="#63b8ff" stroke="#63b8ff" points="173.37,-200.74 182.25,-194.95 171.7,-193.94 173.37,-200.74"/>
</a>
</g>
</g>
<!-- Node5 -->
<g id="Node000005" class="node">
<title>Node5</title>
<g id="a_Node000005"><a xlink:href="classvalidation__api_1_1Validation.html#ac6c337d3af39943a8e603a5f21f5922a" target="_top" xlink:title=" ">
<polygon fill="white" stroke="#666666" points="531,-187.75 369.5,-187.75 369.5,-167 531,-167 531,-187.75"/>
<text text-anchor="middle" x="450.25" y="-174.25" font-family="Helvetica,sans-Serif" font-size="10.00">validation_api::Validation::run</text>
</a>
</g>
</g>
<!-- Node4&#45;&gt;Node5 -->
<g id="edge4_Node000004_Node000005" class="edge">
<title>Node4&#45;&gt;Node5</title>
<g id="a_edge4_Node000004_Node000005"><a xlink:title=" ">
<path fill="none" stroke="#63b8ff" d="M333.82,-177.38C341.74,-177.38 349.83,-177.38 357.87,-177.38"/>
<polygon fill="#63b8ff" stroke="#63b8ff" points="357.67,-180.88 367.67,-177.38 357.67,-173.88 357.67,-180.88"/>
</a>
</g>
</g>
<!-- Node6 -->
<g id="Node000006" class="node">
<title>Node6</title>
<g id="a_Node000006"><a xlink:href="classvalidation__api_1_1Validation.html#a3c8146fc89af5b8cef0c1bb6c9d473f2" target="_top" xlink:title="Traverse through the json object and validate the fields.">
<polygon fill="white" stroke="#666666" points="706.75,-194.12 567,-194.12 567,-160.62 706.75,-160.62 706.75,-194.12"/>
<text text-anchor="start" x="575" y="-180.62" font-family="Helvetica,sans-Serif" font-size="10.00">validation_api::Validation</text>
<text text-anchor="middle" x="636.88" y="-167.88" font-family="Helvetica,sans-Serif" font-size="10.00">::traverseAndValidate</text>
</a>
</g>
</g>
<!-- Node5&#45;&gt;Node6 -->
<g id="edge5_Node000005_Node000006" class="edge">
<title>Node5&#45;&gt;Node6</title>
<g id="a_edge5_Node000005_Node000006"><a xlink:title=" ">
<path fill="none" stroke="#63b8ff" d="M531.42,-177.38C539.34,-177.38 547.37,-177.38 555.28,-177.38"/>
<polygon fill="#63b8ff" stroke="#63b8ff" points="555.26,-180.88 565.26,-177.38 555.26,-173.88 555.26,-180.88"/>
</a>
</g>
</g>
<!-- Node6&#45;&gt;Node6 -->
<g id="edge8_Node000006_Node000006" class="edge">
<title>Node6&#45;&gt;Node6</title>
<g id="a_edge8_Node000006_Node000006"><a xlink:title=" ">
<path fill="none" stroke="#63b8ff" d="M605.28,-194.54C599.91,-203.74 610.44,-212.12 636.88,-212.12 651.74,-212.12 661.58,-209.47 666.39,-205.51"/>
<polygon fill="#63b8ff" stroke="#63b8ff" points="669.76,-206.5 668.19,-196.03 662.88,-205.2 669.76,-206.5"/>
</a>
</g>
</g>
<!-- Node7 -->
<g id="Node000007" class="node">
<title>Node7</title>
<g id="a_Node000007"><a xlink:href="classvalidation__api_1_1Validation.html#a2005828d7e475090ef5a895348bfb760" target="_top" xlink:title=" ">
<polygon fill="white" stroke="#666666" points="1064.25,-292.12 924.5,-292.12 924.5,-258.62 1064.25,-258.62 1064.25,-292.12"/>
<text text-anchor="start" x="932.5" y="-278.62" font-family="Helvetica,sans-Serif" font-size="10.00">validation_api::Validation</text>
<text text-anchor="middle" x="994.38" y="-265.88" font-family="Helvetica,sans-Serif" font-size="10.00">::findJsonField</text>
</a>
</g>
</g>
<!-- Node6&#45;&gt;Node7 -->
<g id="edge6_Node000006_Node000007" class="edge">
<title>Node6&#45;&gt;Node7</title>
<g id="a_edge6_Node000006_Node000007"><a xlink:title=" ">
<path fill="none" stroke="#63b8ff" d="M700.21,-194.56C761.48,-211.45 854.99,-237.23 919.86,-255.11"/>
<polygon fill="#63b8ff" stroke="#63b8ff" points="918.79,-258.44 929.36,-257.73 920.65,-251.7 918.79,-258.44"/>
</a>
</g>
</g>
<!-- Node8 -->
<g id="Node000008" class="node">
<title>Node8</title>
<g id="a_Node000008"><a xlink:href="classvalidation__api_1_1Validation.html#a1cc0802269d88c233ad3c3d1d6c3dd12" target="_top" xlink:title=" ">
<polygon fill="white" stroke="#666666" points="882.5,-172.12 742.75,-172.12 742.75,-138.62 882.5,-138.62 882.5,-172.12"/>
<text text-anchor="start" x="750.75" y="-158.62" font-family="Helvetica,sans-Serif" font-size="10.00">validation_api::Validation</text>
<text text-anchor="middle" x="812.62" y="-145.88" font-family="Helvetica,sans-Serif" font-size="10.00">::validate</text>
</a>
</g>
</g>
<!-- Node6&#45;&gt;Node8 -->
<g id="edge9_Node000006_Node000008" class="edge">
<title>Node6&#45;&gt;Node8</title>
<g id="a_edge9_Node000006_Node000008"><a xlink:title=" ">
<path fill="none" stroke="#63b8ff" d="M707.04,-168.62C714.96,-167.62 723.07,-166.59 731.12,-165.57"/>
<polygon fill="#63b8ff" stroke="#63b8ff" points="731.43,-169.06 740.91,-164.33 730.55,-162.11 731.43,-169.06"/>
</a>
</g>
</g>
<!-- Node7&#45;&gt;Node7 -->
<g id="edge7_Node000007_Node000007" class="edge">
<title>Node7&#45;&gt;Node7</title>
<g id="a_edge7_Node000007_Node000007"><a xlink:title=" ">
<path fill="none" stroke="#63b8ff" d="M961.7,-292.54C956.15,-301.74 967.04,-310.12 994.38,-310.12 1009.75,-310.12 1019.92,-307.47 1024.89,-303.51"/>
<polygon fill="#63b8ff" stroke="#63b8ff" points="1028.26,-304.51 1026.76,-294.02 1021.39,-303.16 1028.26,-304.51"/>
</a>
</g>
</g>
<!-- Node8&#45;&gt;Node7 -->
<g id="edge11_Node000008_Node000007" class="edge">
<title>Node8&#45;&gt;Node7</title>
<g id="a_edge11_Node000008_Node000007"><a xlink:title=" ">
<path fill="none" stroke="#63b8ff" d="M830.85,-172.36C855.39,-196.27 899.54,-238.2 918.5,-249.38 920.94,-250.81 923.47,-252.18 926.06,-253.5"/>
<polygon fill="#63b8ff" stroke="#63b8ff" points="924.37,-256.57 934.91,-257.61 927.32,-250.22 924.37,-256.57"/>
</a>
</g>
</g>
<!-- Node9 -->
<g id="Node000009" class="node">
<title>Node9</title>
<g id="a_Node000009"><a xlink:href="classvalidation__api_1_1ErrorBuilder.html#a84327bbfe6c61e7be6966acc41ba6087" target="_top" xlink:title=" ">
<polygon fill="white" stroke="#666666" points="1068.75,-240.12 920,-240.12 920,-206.62 1068.75,-206.62 1068.75,-240.12"/>
<text text-anchor="start" x="928" y="-226.62" font-family="Helvetica,sans-Serif" font-size="10.00">validation_api::ErrorBuilder</text>
<text text-anchor="middle" x="994.38" y="-213.88" font-family="Helvetica,sans-Serif" font-size="10.00">::build</text>
</a>
</g>
</g>
<!-- Node8&#45;&gt;Node9 -->
<g id="edge10_Node000008_Node000009" class="edge">
<title>Node8&#45;&gt;Node9</title>
<g id="a_edge10_Node000008_Node000009"><a xlink:title=" ">
<path fill="none" stroke="#63b8ff" d="M855.3,-172.58C874.47,-180.36 897.56,-189.55 918.5,-197.38 922.92,-199.03 927.51,-200.7 932.13,-202.37"/>
<polygon fill="#63b8ff" stroke="#63b8ff" points="930.89,-205.65 941.49,-205.71 933.24,-199.05 930.89,-205.65"/>
</a>
</g>
</g>
<!-- Node10 -->
<g id="Node000010" class="node">
<title>Node10</title>
<g id="a_Node000010"><a xlink:href="namespacevalidation__api.html#ac19e25b4d8364b0f52152440dd5ecbda" target="_top" xlink:title=" ">
<polygon fill="white" stroke="#666666" points="1067.25,-188.75 921.5,-188.75 921.5,-168 1067.25,-168 1067.25,-188.75"/>
<text text-anchor="middle" x="994.38" y="-175.25" font-family="Helvetica,sans-Serif" font-size="10.00">validation_api::isValidUuid</text>
</a>
</g>
</g>
<!-- Node8&#45;&gt;Node10 -->
<g id="edge12_Node000008_Node000010" class="edge">
<title>Node8&#45;&gt;Node10</title>
<g id="a_edge12_Node000008_Node000010"><a xlink:title=" ">
<path fill="none" stroke="#63b8ff" d="M882.86,-164.23C891.7,-165.36 900.81,-166.53 909.83,-167.69"/>
<polygon fill="#63b8ff" stroke="#63b8ff" points="909.33,-171.15 919.69,-168.95 910.22,-164.21 909.33,-171.15"/>
</a>
</g>
</g>
<!-- Node11 -->
<g id="Node000011" class="node">
<title>Node11</title>
<g id="a_Node000011"><a xlink:href="classvalidation__api_1_1ErrorBuilder.html#a014e70c2f2b4a2ee879c363b4a2174f2" target="_top" xlink:title=" ">
<polygon fill="white" stroke="#666666" points="1068.75,-150.12 920,-150.12 920,-116.62 1068.75,-116.62 1068.75,-150.12"/>
<text text-anchor="start" x="928" y="-136.62" font-family="Helvetica,sans-Serif" font-size="10.00">validation_api::ErrorBuilder</text>
<text text-anchor="middle" x="994.38" y="-123.88" font-family="Helvetica,sans-Serif" font-size="10.00">::setSecondMsg</text>
</a>
</g>
</g>
<!-- Node8&#45;&gt;Node11 -->
<g id="edge13_Node000008_Node000011" class="edge">
<title>Node8&#45;&gt;Node11</title>
<g id="a_edge13_Node000008_Node000011"><a xlink:title=" ">
<path fill="none" stroke="#63b8ff" d="M882.86,-146.9C891.25,-145.87 899.9,-144.82 908.48,-143.77"/>
<polygon fill="#63b8ff" stroke="#63b8ff" points="908.7,-147.27 918.2,-142.58 907.85,-140.32 908.7,-147.27"/>
</a>
</g>
</g>
<!-- Node12 -->
<g id="Node000012" class="node">
<title>Node12</title>
<g id="a_Node000012"><a xlink:href="namespacevalidation__api.html#a6dd56dcf7358b332bb906a2d27fddd0b" target="_top" xlink:title="Converts string to all lowercase.">
<polygon fill="white" stroke="#666666" points="1059.38,-98.75 929.38,-98.75 929.38,-78 1059.38,-78 1059.38,-98.75"/>
<text text-anchor="middle" x="994.38" y="-85.25" font-family="Helvetica,sans-Serif" font-size="10.00">validation_api::toLower</text>
</a>
</g>
</g>
<!-- Node8&#45;&gt;Node12 -->
<g id="edge14_Node000008_Node000012" class="edge">
<title>Node8&#45;&gt;Node12</title>
<g id="a_edge14_Node000008_Node000012"><a xlink:title=" ">
<path fill="none" stroke="#63b8ff" d="M846.99,-138.23C867.29,-128.27 893.95,-116.03 918.5,-107.38 923.74,-105.53 929.25,-103.78 934.8,-102.15"/>
<polygon fill="#63b8ff" stroke="#63b8ff" points="935.32,-105.64 944,-99.57 933.43,-98.9 935.32,-105.64"/>
</a>
</g>
</g>
<!-- Node13 -->
<g id="Node000013" class="node">
<title>Node13</title>
<g id="a_Node000013"><a xlink:href="namespacevalidation__api.html#aae32fd7a0b5886a49454679d46ed4bd1" target="_top" xlink:title="Validates Ahv string.">
<polygon fill="white" stroke="#666666" points="1069.12,-59.75 919.62,-59.75 919.62,-39 1069.12,-39 1069.12,-59.75"/>
<text text-anchor="middle" x="994.38" y="-46.25" font-family="Helvetica,sans-Serif" font-size="10.00">validation_api::validateAhv</text>
</a>
</g>
</g>
<!-- Node8&#45;&gt;Node13 -->
<g id="edge15_Node000008_Node000013" class="edge">
<title>Node8&#45;&gt;Node13</title>
<g id="a_edge15_Node000008_Node000013"><a xlink:title=" ">
<path fill="none" stroke="#63b8ff" d="M829.81,-138.27C849.14,-118.82 883.3,-87.43 918.5,-69.38 922.36,-67.39 926.44,-65.59 930.62,-63.96"/>
<polygon fill="#63b8ff" stroke="#63b8ff" points="931.46,-67.38 939.72,-60.75 929.12,-60.78 931.46,-67.38"/>
</a>
</g>
</g>
<!-- Node14 -->
<g id="Node000014" class="node">
<title>Node14</title>
<g id="a_Node000014"><a xlink:href="namespacevalidation__api.html#a0a2b975e162ced567ba3a6075684092a" target="_top" xlink:title="Validates Iban string.">
<polygon fill="white" stroke="#666666" points="1070.25,-20.75 918.5,-20.75 918.5,0 1070.25,0 1070.25,-20.75"/>
<text text-anchor="middle" x="994.38" y="-7.25" font-family="Helvetica,sans-Serif" font-size="10.00">validation_api::validateIban</text>
</a>
</g>
</g>
<!-- Node8&#45;&gt;Node14 -->
<g id="edge16_Node000008_Node000014" class="edge">
<title>Node8&#45;&gt;Node14</title>
<g id="a_edge16_Node000008_Node000014"><a xlink:title=" ">
<path fill="none" stroke="#63b8ff" d="M823.15,-138.36C839.21,-111.26 874.29,-58.52 918.5,-30.38 921.21,-28.65 924.07,-27.07 927.03,-25.63"/>
<polygon fill="#63b8ff" stroke="#63b8ff" points="928.15,-28.95 935.97,-21.81 925.4,-22.51 928.15,-28.95"/>
</a>
</g>
</g>
</g>
</svg>
