<?xml version="1.0" encoding="UTF-8" standalone="no"?>
<!DOCTYPE svg PUBLIC "-//W3C//DTD SVG 1.1//EN"
 "http://www.w3.org/Graphics/SVG/1.1/DTD/svg11.dtd">
<!-- Generated by graphviz version 10.0.1 (0)
 -->
<!-- Title: validation_api::ValidationServer::accept Pages: 1 -->
<svg width="1254pt" height="349pt"
 viewBox="0.00 0.00 1254.00 348.86" xmlns="http://www.w3.org/2000/svg" xmlns:xlink="http://www.w3.org/1999/xlink">
<g id="graph0" class="graph" transform="scale(1 1) rotate(0) translate(4 344.86)">
<title>validation_api::ValidationServer::accept</title>
<!-- Node1 -->
<g id="Node000001" class="node">
<title>Node1</title>
<g id="a_Node000001"><a xlink:title="Accept a connection.">
<polygon fill="#999999" stroke="#666666" points="139.75,-295.86 0,-295.86 0,-262.36 139.75,-262.36 139.75,-295.86"/>
<text text-anchor="start" x="8" y="-282.36" font-family="Helvetica,sans-Serif" font-size="10.00">validation_api::Validation</text>
<text text-anchor="middle" x="69.88" y="-269.61" font-family="Helvetica,sans-Serif" font-size="10.00">Server::accept</text>
</a>
</g>
</g>
<!-- Node2 -->
<g id="Node000002" class="node">
<title>Node2</title>
<g id="a_Node000002"><a xlink:href="classvalidation__api_1_1ValidationServer.html#a59c4a313effe28cc0acca7b8bb3a26e4" target="_top" xlink:title=" ">
<polygon fill="white" stroke="#666666" points="324.5,-340.86 184.75,-340.86 184.75,-307.36 324.5,-307.36 324.5,-340.86"/>
<text text-anchor="start" x="192.75" y="-327.36" font-family="Helvetica,sans-Serif" font-size="10.00">validation_api::Validation</text>
<text text-anchor="middle" x="254.62" y="-314.61" font-family="Helvetica,sans-Serif" font-size="10.00">Server::asyncWriter</text>
</a>
</g>
</g>
<!-- Node1&#45;&gt;Node2 -->
<g id="edge1_Node000001_Node000002" class="edge">
<title>Node1&#45;&gt;Node2</title>
<g id="a_edge1_Node000001_Node000002"><a xlink:title=" ">
<path fill="none" stroke="#63b8ff" d="M140.23,-296.18C151.05,-298.85 162.32,-301.62 173.37,-304.35"/>
<polygon fill="#63b8ff" stroke="#63b8ff" points="172.31,-307.69 182.85,-306.68 173.98,-300.89 172.31,-307.69"/>
</a>
</g>
</g>
<!-- Node3 -->
<g id="Node000003" class="node">
<title>Node3</title>
<g id="a_Node000003"><a xlink:href="namespacevalidation__api.html#ad94de3de52c70b315f5b36cce4642718" target="_top" xlink:title=" ">
<polygon fill="white" stroke="#666666" points="329.75,-289.48 179.5,-289.48 179.5,-268.73 329.75,-268.73 329.75,-289.48"/>
<text text-anchor="middle" x="254.62" y="-275.98" font-family="Helvetica,sans-Serif" font-size="10.00">validation_api::errorsToJson</text>
</a>
</g>
</g>
<!-- Node1&#45;&gt;Node3 -->
<g id="edge2_Node000001_Node000003" class="edge">
<title>Node1&#45;&gt;Node3</title>
<g id="a_edge2_Node000001_Node000003"><a xlink:title=" ">
<path fill="none" stroke="#63b8ff" d="M140.23,-279.11C149.27,-279.11 158.62,-279.11 167.9,-279.11"/>
<polygon fill="#63b8ff" stroke="#63b8ff" points="167.63,-282.61 177.63,-279.11 167.63,-275.61 167.63,-282.61"/>
</a>
</g>
</g>
<!-- Node4 -->
<g id="Node000004" class="node">
<title>Node4</title>
<g id="a_Node000004"><a xlink:href="classvalidation__api_1_1ConfigService.html#a654e84f4f588f7391f93210c1e08344f" target="_top" xlink:title="getConfigs method">
<polygon fill="white" stroke="#666666" points="333.5,-250.86 175.75,-250.86 175.75,-217.36 333.5,-217.36 333.5,-250.86"/>
<text text-anchor="start" x="183.75" y="-237.36" font-family="Helvetica,sans-Serif" font-size="10.00">validation_api::ConfigService</text>
<text text-anchor="middle" x="254.62" y="-224.61" font-family="Helvetica,sans-Serif" font-size="10.00">::validateConfig</text>
</a>
</g>
</g>
<!-- Node1&#45;&gt;Node4 -->
<g id="edge3_Node000001_Node000004" class="edge">
<title>Node1&#45;&gt;Node4</title>
<g id="a_edge3_Node000001_Node000004"><a xlink:title=" ">
<path fill="none" stroke="#63b8ff" d="M140.23,-262.03C150.79,-259.43 161.78,-256.72 172.57,-254.07"/>
<polygon fill="#63b8ff" stroke="#63b8ff" points="173.37,-257.47 182.25,-251.68 171.7,-250.68 173.37,-257.47"/>
</a>
</g>
</g>
<!-- Node5 -->
<g id="Node000005" class="node">
<title>Node5</title>
<g id="a_Node000005"><a xlink:href="classvalidation__api_1_1Validation.html#ac6c337d3af39943a8e603a5f21f5922a" target="_top" xlink:title=" ">
<polygon fill="white" stroke="#666666" points="531,-244.48 369.5,-244.48 369.5,-223.73 531,-223.73 531,-244.48"/>
<text text-anchor="middle" x="450.25" y="-230.98" font-family="Helvetica,sans-Serif" font-size="10.00">validation_api::Validation::run</text>
</a>
</g>
</g>
<!-- Node4&#45;&gt;Node5 -->
<g id="edge4_Node000004_Node000005" class="edge">
<title>Node4&#45;&gt;Node5</title>
<g id="a_edge4_Node000004_Node000005"><a xlink:title=" ">
<path fill="none" stroke="#63b8ff" d="M333.82,-234.11C341.74,-234.11 349.83,-234.11 357.87,-234.11"/>
<polygon fill="#63b8ff" stroke="#63b8ff" points="357.67,-237.61 367.67,-234.11 357.67,-230.61 357.67,-237.61"/>
</a>
</g>
</g>
<!-- Node6 -->
<g id="Node000006" class="node">
<title>Node6</title>
<g id="a_Node000006"><a xlink:href="classvalidation__api_1_1ErrorBuilder.html#a84327bbfe6c61e7be6966acc41ba6087" target="_top" xlink:title=" ">
<polygon fill="white" stroke="#666666" points="1068.75,-314.86 920,-314.86 920,-281.36 1068.75,-281.36 1068.75,-314.86"/>
<text text-anchor="start" x="928" y="-301.36" font-family="Helvetica,sans-Serif" font-size="10.00">validation_api::ErrorBuilder</text>
<text text-anchor="middle" x="994.38" y="-288.61" font-family="Helvetica,sans-Serif" font-size="10.00">::build</text>
</a>
</g>
</g>
<!-- Node5&#45;&gt;Node6 -->
<g id="edge5_Node000005_Node000006" class="edge">
<title>Node5&#45;&gt;Node6</title>
<g id="a_edge5_Node000005_Node000006"><a xlink:title=" ">
<path fill="none" stroke="#63b8ff" d="M473.24,-244.88C496.07,-255.47 533.11,-271.06 567,-278.11 683.48,-302.33 821.55,-304.04 908.32,-301.94"/>
<polygon fill="#63b8ff" stroke="#63b8ff" points="908.28,-305.45 918.18,-301.68 908.09,-298.45 908.28,-305.45"/>
</a>
</g>
</g>
<!-- Node7 -->
<g id="Node000007" class="node">
<title>Node7</title>
<g id="a_Node000007"><a xlink:href="classvalidation__api_1_1Validation.html#a21b9aefd80be5a639d2aa5e4c8ebe945" target="_top" xlink:title=" ">
<polygon fill="white" stroke="#666666" points="706.75,-250.86 567,-250.86 567,-217.36 706.75,-217.36 706.75,-250.86"/>
<text text-anchor="start" x="575" y="-237.36" font-family="Helvetica,sans-Serif" font-size="10.00">validation_api::Validation</text>
<text text-anchor="middle" x="636.88" y="-224.61" font-family="Helvetica,sans-Serif" font-size="10.00">::fillRequestList</text>
</a>
</g>
</g>
<!-- Node5&#45;&gt;Node7 -->
<g id="edge6_Node000005_Node000007" class="edge">
<title>Node5&#45;&gt;Node7</title>
<g id="a_edge6_Node000005_Node000007"><a xlink:title=" ">
<path fill="none" stroke="#63b8ff" d="M531.42,-234.11C539.34,-234.11 547.37,-234.11 555.28,-234.11"/>
<polygon fill="#63b8ff" stroke="#63b8ff" points="555.26,-237.61 565.26,-234.11 555.26,-230.61 555.26,-237.61"/>
</a>
</g>
</g>
<!-- Node8 -->
<g id="Node000008" class="node">
<title>Node8</title>
<g id="a_Node000008"><a xlink:href="classvalidation__api_1_1Validation.html#a3c8146fc89af5b8cef0c1bb6c9d473f2" target="_top" xlink:title="Traverse through the json object and validate the fields.">
<polygon fill="white" stroke="#666666" points="706.75,-180.86 567,-180.86 567,-147.36 706.75,-147.36 706.75,-180.86"/>
<text text-anchor="start" x="575" y="-167.36" font-family="Helvetica,sans-Serif" font-size="10.00">validation_api::Validation</text>
<text text-anchor="middle" x="636.88" y="-154.61" font-family="Helvetica,sans-Serif" font-size="10.00">::traverseAndValidate</text>
</a>
</g>
</g>
<!-- Node5&#45;&gt;Node8 -->
<g id="edge8_Node000005_Node000008" class="edge">
<title>Node5&#45;&gt;Node8</title>
<g id="a_edge8_Node000005_Node000008"><a xlink:title=" ">
<path fill="none" stroke="#63b8ff" d="M479.69,-223.32C506.34,-213.22 546.93,-197.83 580.04,-185.27"/>
<polygon fill="#63b8ff" stroke="#63b8ff" points="580.98,-188.66 589.09,-181.84 578.5,-182.12 580.98,-188.66"/>
</a>
</g>
</g>
<!-- Node7&#45;&gt;Node7 -->
<g id="edge7_Node000007_Node000007" class="edge">
<title>Node7&#45;&gt;Node7</title>
<g id="a_edge7_Node000007_Node000007"><a xlink:title=" ">
<path fill="none" stroke="#63b8ff" d="M605.28,-251.27C599.91,-260.47 610.44,-268.86 636.88,-268.86 651.74,-268.86 661.58,-266.2 666.39,-262.25"/>
<polygon fill="#63b8ff" stroke="#63b8ff" points="669.76,-263.24 668.19,-252.76 662.88,-261.93 669.76,-263.24"/>
</a>
</g>
</g>
<!-- Node8&#45;&gt;Node6 -->
<g id="edge9_Node000008_Node000006" class="edge">
<title>Node8&#45;&gt;Node6</title>
<g id="a_edge9_Node000008_Node000006"><a xlink:title=" ">
<path fill="none" stroke="#63b8ff" d="M680.97,-181.2C735.92,-202.88 833.93,-241.16 918.5,-272.11 923.13,-273.8 927.93,-275.53 932.77,-277.25"/>
<polygon fill="#63b8ff" stroke="#63b8ff" points="931.33,-280.46 941.92,-280.49 933.66,-273.86 931.33,-280.46"/>
</a>
</g>
</g>
<!-- Node8&#45;&gt;Node8 -->
<g id="edge12_Node000008_Node000008" class="edge">
<title>Node8&#45;&gt;Node8</title>
<g id="a_edge12_Node000008_Node000008"><a xlink:title=" ">
<path fill="none" stroke="#63b8ff" d="M605.28,-181.27C599.91,-190.47 610.44,-198.86 636.88,-198.86 651.74,-198.86 661.58,-196.2 666.39,-192.25"/>
<polygon fill="#63b8ff" stroke="#63b8ff" points="669.76,-193.24 668.19,-182.76 662.88,-191.93 669.76,-193.24"/>
</a>
</g>
</g>
<!-- Node9 -->
<g id="Node000009" class="node">
<title>Node9</title>
<g id="a_Node000009"><a xlink:href="classvalidation__api_1_1Validation.html#a1931562aaf3ed21afc7d5f0fade04aa0" target="_top" xlink:title=" ">
<polygon fill="white" stroke="#666666" points="1246,-118.86 1106.25,-118.86 1106.25,-85.36 1246,-85.36 1246,-118.86"/>
<text text-anchor="start" x="1114.25" y="-105.36" font-family="Helvetica,sans-Serif" font-size="10.00">validation_api::Validation</text>
<text text-anchor="middle" x="1176.12" y="-92.61" font-family="Helvetica,sans-Serif" font-size="10.00">::findJsonField</text>
</a>
</g>
</g>
<!-- Node8&#45;&gt;Node9 -->
<g id="edge10_Node000008_Node000009" class="edge">
<title>Node8&#45;&gt;Node9</title>
<g id="a_edge10_Node000008_Node000009"><a xlink:title=" ">
<path fill="none" stroke="#63b8ff" d="M660.66,-146.93C706.49,-113.57 814.39,-41.03 918.5,-15.11 983.95,1.19 1006.81,7.78 1070.25,-15.11 1103.94,-27.26 1134.45,-55.46 1153.77,-76.48"/>
<polygon fill="#63b8ff" stroke="#63b8ff" points="1151.07,-78.71 1160.33,-83.85 1156.3,-74.06 1151.07,-78.71"/>
</a>
</g>
</g>
<!-- Node10 -->
<g id="Node000010" class="node">
<title>Node10</title>
<g id="a_Node000010"><a xlink:href="classvalidation__api_1_1Validation.html#a1cc0802269d88c233ad3c3d1d6c3dd12" target="_top" xlink:title=" ">
<polygon fill="white" stroke="#666666" points="882.5,-179.86 742.75,-179.86 742.75,-146.36 882.5,-146.36 882.5,-179.86"/>
<text text-anchor="start" x="750.75" y="-166.36" font-family="Helvetica,sans-Serif" font-size="10.00">validation_api::Validation</text>
<text text-anchor="middle" x="812.62" y="-153.61" font-family="Helvetica,sans-Serif" font-size="10.00">::validate</text>
</a>
</g>
</g>
<!-- Node8&#45;&gt;Node10 -->
<g id="edge13_Node000008_Node000010" class="edge">
<title>Node8&#45;&gt;Node10</title>
<g id="a_edge13_Node000008_Node000010"><a xlink:title=" ">
<path fill="none" stroke="#63b8ff" d="M707.04,-163.71C714.96,-163.66 723.07,-163.62 731.12,-163.57"/>
<polygon fill="#63b8ff" stroke="#63b8ff" points="730.92,-167.07 740.9,-163.51 730.88,-160.07 730.92,-167.07"/>
</a>
</g>
</g>
<!-- Node9&#45;&gt;Node9 -->
<g id="edge11_Node000009_Node000009" class="edge">
<title>Node9&#45;&gt;Node9</title>
<g id="a_edge11_Node000009_Node000009"><a xlink:title=" ">
<path fill="none" stroke="#63b8ff" d="M1143.45,-119.27C1137.9,-128.47 1148.79,-136.86 1176.12,-136.86 1191.5,-136.86 1201.67,-134.2 1206.64,-130.25"/>
<polygon fill="#63b8ff" stroke="#63b8ff" points="1210.01,-131.24 1208.51,-120.76 1203.14,-129.89 1210.01,-131.24"/>
</a>
</g>
</g>
<!-- Node10&#45;&gt;Node6 -->
<g id="edge14_Node000010_Node000006" class="edge">
<title>Node10&#45;&gt;Node6</title>
<g id="a_edge14_Node000010_Node000006"><a xlink:title=" ">
<path fill="none" stroke="#63b8ff" d="M837.34,-180.13C851.31,-190.77 868.86,-205.24 882.5,-220.11 901.51,-240.82 896.12,-255.1 918.5,-272.11 920.01,-273.25 921.57,-274.35 923.17,-275.4"/>
<polygon fill="#63b8ff" stroke="#63b8ff" points="921.05,-278.21 931.46,-280.17 924.54,-272.15 921.05,-278.21"/>
</a>
</g>
</g>
<!-- Node11 -->
<g id="Node000011" class="node">
<title>Node11</title>
<g id="a_Node000011"><a xlink:href="classvalidation__api_1_1Validation.html#a7b6995b4592eb861af42e45b095382b7" target="_top" xlink:title="Checking Uuid values.">
<polygon fill="white" stroke="#666666" points="1064.25,-224.86 924.5,-224.86 924.5,-191.36 1064.25,-191.36 1064.25,-224.86"/>
<text text-anchor="start" x="932.5" y="-211.36" font-family="Helvetica,sans-Serif" font-size="10.00">validation_api::Validation</text>
<text text-anchor="middle" x="994.38" y="-198.61" font-family="Helvetica,sans-Serif" font-size="10.00">::checkNullOptionsVec</text>
</a>
</g>
</g>
<!-- Node10&#45;&gt;Node11 -->
<g id="edge15_Node000010_Node000011" class="edge">
<title>Node10&#45;&gt;Node11</title>
<g id="a_edge15_Node000010_Node000011"><a xlink:title=" ">
<path fill="none" stroke="#63b8ff" d="M882.35,-180.31C892.65,-182.89 903.34,-185.57 913.84,-188.2"/>
<polygon fill="#63b8ff" stroke="#63b8ff" points="912.67,-191.51 923.22,-190.54 914.37,-184.72 912.67,-191.51"/>
</a>
</g>
</g>
<!-- Node12 -->
<g id="Node000012" class="node">
<title>Node12</title>
<g id="a_Node000012"><a xlink:href="namespacevalidation__api.html#ac19e25b4d8364b0f52152440dd5ecbda" target="_top" xlink:title=" ">
<polygon fill="white" stroke="#666666" points="1067.25,-173.48 921.5,-173.48 921.5,-152.73 1067.25,-152.73 1067.25,-173.48"/>
<text text-anchor="middle" x="994.38" y="-159.98" font-family="Helvetica,sans-Serif" font-size="10.00">validation_api::isValidUuid</text>
</a>
</g>
</g>
<!-- Node10&#45;&gt;Node12 -->
<g id="edge17_Node000010_Node000012" class="edge">
<title>Node10&#45;&gt;Node12</title>
<g id="a_edge17_Node000010_Node000012"><a xlink:title=" ">
<path fill="none" stroke="#63b8ff" d="M882.86,-163.11C891.7,-163.11 900.81,-163.11 909.83,-163.11"/>
<polygon fill="#63b8ff" stroke="#63b8ff" points="909.68,-166.61 919.68,-163.11 909.68,-159.61 909.68,-166.61"/>
</a>
</g>
</g>
<!-- Node13 -->
<g id="Node000013" class="node">
<title>Node13</title>
<g id="a_Node000013"><a xlink:href="classvalidation__api_1_1ErrorBuilder.html#a014e70c2f2b4a2ee879c363b4a2174f2" target="_top" xlink:title="Set the First Msg object.">
<polygon fill="white" stroke="#666666" points="1068.75,-134.86 920,-134.86 920,-101.36 1068.75,-101.36 1068.75,-134.86"/>
<text text-anchor="start" x="928" y="-121.36" font-family="Helvetica,sans-Serif" font-size="10.00">validation_api::ErrorBuilder</text>
<text text-anchor="middle" x="994.38" y="-108.61" font-family="Helvetica,sans-Serif" font-size="10.00">::setSecondMsg</text>
</a>
</g>
</g>
<!-- Node10&#45;&gt;Node13 -->
<g id="edge18_Node000010_Node000013" class="edge">
<title>Node10&#45;&gt;Node13</title>
<g id="a_edge18_Node000010_Node000013"><a xlink:title=" ">
<path fill="none" stroke="#63b8ff" d="M882.35,-145.9C892.65,-143.32 903.34,-140.65 913.84,-138.02"/>
<polygon fill="#63b8ff" stroke="#63b8ff" points="914.37,-141.49 923.22,-135.67 912.67,-134.7 914.37,-141.49"/>
</a>
</g>
</g>
<!-- Node14 -->
<g id="Node000014" class="node">
<title>Node14</title>
<g id="a_Node000014"><a xlink:href="namespacevalidation__api.html#a6dd56dcf7358b332bb906a2d27fddd0b" target="_top" xlink:title="Converts string to all lowercase.">
<polygon fill="white" stroke="#666666" points="1059.38,-83.48 929.38,-83.48 929.38,-62.73 1059.38,-62.73 1059.38,-83.48"/>
<text text-anchor="middle" x="994.38" y="-69.98" font-family="Helvetica,sans-Serif" font-size="10.00">validation_api::toLower</text>
</a>
</g>
</g>
<!-- Node10&#45;&gt;Node14 -->
<g id="edge19_Node000010_Node000014" class="edge">
<title>Node10&#45;&gt;Node14</title>
<g id="a_edge19_Node000010_Node000014"><a xlink:title=" ">
<path fill="none" stroke="#63b8ff" d="M834.03,-146.11C854.28,-130.04 886.8,-106.33 918.5,-92.11 922.27,-90.41 926.22,-88.86 930.24,-87.42"/>
<polygon fill="#63b8ff" stroke="#63b8ff" points="931.16,-90.8 939.59,-84.38 928.99,-84.15 931.16,-90.8"/>
</a>
</g>
</g>
<!-- Node15 -->
<g id="Node000015" class="node">
<title>Node15</title>
<g id="a_Node000015"><a xlink:href="namespacevalidation__api.html#aae32fd7a0b5886a49454679d46ed4bd1" target="_top" xlink:title="Validates Ahv string.">
<polygon fill="white" stroke="#666666" points="1069.12,-44.48 919.62,-44.48 919.62,-23.73 1069.12,-23.73 1069.12,-44.48"/>
<text text-anchor="middle" x="994.38" y="-30.98" font-family="Helvetica,sans-Serif" font-size="10.00">validation_api::validateAhv</text>
</a>
</g>
</g>
<!-- Node10&#45;&gt;Node15 -->
<g id="edge20_Node000010_Node000015" class="edge">
<title>Node10&#45;&gt;Node15</title>
<g id="a_edge20_Node000010_Node000015"><a xlink:title=" ">
<path fill="none" stroke="#63b8ff" d="M825.39,-145.94C842.87,-121.76 878.01,-77.99 918.5,-54.11 921.63,-52.26 924.93,-50.58 928.33,-49.06"/>
<polygon fill="#63b8ff" stroke="#63b8ff" points="929.36,-52.41 937.37,-45.48 926.79,-45.91 929.36,-52.41"/>
</a>
</g>
</g>
<!-- Node16 -->
<g id="Node000016" class="node">
<title>Node16</title>
<g id="a_Node000016"><a xlink:href="namespacevalidation__api.html#a0a2b975e162ced567ba3a6075684092a" target="_top" xlink:title="Validates Iban string.">
<polygon fill="white" stroke="#666666" points="1070.25,-263.48 918.5,-263.48 918.5,-242.73 1070.25,-242.73 1070.25,-263.48"/>
<text text-anchor="middle" x="994.38" y="-249.98" font-family="Helvetica,sans-Serif" font-size="10.00">validation_api::validateIban</text>
</a>
</g>
</g>
<!-- Node10&#45;&gt;Node16 -->
<g id="edge21_Node000010_Node000016" class="edge">
<title>Node10&#45;&gt;Node16</title>
<g id="a_edge21_Node000010_Node000016"><a xlink:title=" ">
<path fill="none" stroke="#63b8ff" d="M834.03,-180.1C854.28,-196.17 886.8,-219.88 918.5,-234.11 922.27,-235.8 926.22,-237.36 930.24,-238.79"/>
<polygon fill="#63b8ff" stroke="#63b8ff" points="928.99,-242.07 939.59,-241.84 931.16,-235.41 928.99,-242.07"/>
</a>
</g>
</g>
<!-- Node11&#45;&gt;Node9 -->
<g id="edge16_Node000011_Node000009" class="edge">
<title>Node11&#45;&gt;Node9</title>
<g id="a_edge16_Node000011_Node000009"><a xlink:title=" ">
<path fill="none" stroke="#63b8ff" d="M1051.42,-190.86C1057.9,-188.22 1064.31,-185.3 1070.25,-182.11 1098.77,-166.79 1127.77,-144 1148.02,-126.65"/>
<polygon fill="#63b8ff" stroke="#63b8ff" points="1150.29,-129.32 1155.54,-120.11 1145.7,-124.04 1150.29,-129.32"/>
</a>
</g>
</g>
</g>
</svg>
