<?xml version="1.0" encoding="UTF-8" standalone="no"?>
<!DOCTYPE svg PUBLIC "-//W3C//DTD SVG 1.1//EN"
 "http://www.w3.org/Graphics/SVG/1.1/DTD/svg11.dtd">
<!-- Generated by graphviz version 12.2.1 (0)
 -->
<!-- Title: validation_api::ConfigService Pages: 1 -->
<svg width="143pt" height="172pt"
 viewBox="0.00 0.00 142.75 172.00" xmlns="http://www.w3.org/2000/svg" xmlns:xlink="http://www.w3.org/1999/xlink">
<g id="graph0" class="graph" transform="scale(1 1) rotate(0) translate(4 168)">
<title>validation_api::ConfigService</title>
<!-- Node1 -->
<g id="Node000001" class="node">
<title>Node1</title>
<g id="a_Node000001"><a xlink:title="ConfigService class.">
<polygon fill="#999999" stroke="none" points="134.75,-164 0,-164 0,0 134.75,0 134.75,-164"/>
<text text-anchor="start" x="4" y="-150.5" font-family="Helvetica,sans-Serif" font-size="10.00">validation_api::ConfigService</text>
<text text-anchor="start" x="16.31" y="-134.5" font-family="Helvetica,sans-Serif" font-size="10.00">&#45;</text>
<text text-anchor="start" x="35.62" y="-134.5" font-family="Helvetica,sans-Serif" font-size="10.00">rwMutex_</text>
<text text-anchor="start" x="16.31" y="-118.5" font-family="Helvetica,sans-Serif" font-size="10.00">&#45;</text>
<text text-anchor="start" x="35.62" y="-118.5" font-family="Helvetica,sans-Serif" font-size="10.00">configs_</text>
<text text-anchor="start" x="16.31" y="-102.5" font-family="Helvetica,sans-Serif" font-size="10.00">&#45;</text>
<text text-anchor="start" x="35.62" y="-102.5" font-family="Helvetica,sans-Serif" font-size="10.00">logger_</text>
<text text-anchor="start" x="14.81" y="-86.5" font-family="Helvetica,sans-Serif" font-size="10.00">+</text>
<text text-anchor="start" x="35.62" y="-86.5" font-family="Helvetica,sans-Serif" font-size="10.00">ConfigService()</text>
<text text-anchor="start" x="14.81" y="-70.5" font-family="Helvetica,sans-Serif" font-size="10.00">+</text>
<text text-anchor="start" x="35.62" y="-70.5" font-family="Helvetica,sans-Serif" font-size="10.00">~ConfigService()</text>
<text text-anchor="start" x="14.81" y="-54.5" font-family="Helvetica,sans-Serif" font-size="10.00">+</text>
<text text-anchor="start" x="35.62" y="-54.5" font-family="Helvetica,sans-Serif" font-size="10.00">getConfig()</text>
<text text-anchor="start" x="14.81" y="-38.5" font-family="Helvetica,sans-Serif" font-size="10.00">+</text>
<text text-anchor="start" x="35.62" y="-38.5" font-family="Helvetica,sans-Serif" font-size="10.00">createConfig()</text>
<text text-anchor="start" x="14.81" y="-22.5" font-family="Helvetica,sans-Serif" font-size="10.00">+</text>
<text text-anchor="start" x="35.62" y="-22.5" font-family="Helvetica,sans-Serif" font-size="10.00">deleteConfig()</text>
<text text-anchor="start" x="14.81" y="-6.5" font-family="Helvetica,sans-Serif" font-size="10.00">+</text>
<text text-anchor="start" x="35.62" y="-6.5" font-family="Helvetica,sans-Serif" font-size="10.00">validateConfig()</text>
<polygon fill="#666666" stroke="#666666" points="0,-146 0,-146 134.75,-146 134.75,-146 0,-146"/>
<polygon fill="#666666" stroke="#666666" points="0,-98 0,-98 33.62,-98 33.62,-98 0,-98"/>
<polygon fill="#666666" stroke="#666666" points="33.62,-98 33.62,-98 134.75,-98 134.75,-98 33.62,-98"/>
<polygon fill="none" stroke="#666666" points="0,0 0,-164 134.75,-164 134.75,0 0,0"/>
</a>
</g>
</g>
</g>
</svg>
