<?xml version="1.0" encoding="UTF-8" standalone="no"?>
<!DOCTYPE svg PUBLIC "-//W3C//DTD SVG 1.1//EN"
 "http://www.w3.org/Graphics/SVG/1.1/DTD/svg11.dtd">
<!-- Generated by graphviz version 10.0.1 (0)
 -->
<!-- Title: validation_api::ConfigService::validateConfig Pages: 1 -->
<svg width="903pt" height="318pt"
 viewBox="0.00 0.00 902.50 318.12" xmlns="http://www.w3.org/2000/svg" xmlns:xlink="http://www.w3.org/1999/xlink">
<g id="graph0" class="graph" transform="scale(1 1) rotate(0) translate(4 314.12)">
<title>validation_api::ConfigService::validateConfig</title>
<!-- Node1 -->
<g id="Node000001" class="node">
<title>Node1</title>
<g id="a_Node000001"><a xlink:title="getConfigs method">
<polygon fill="#999999" stroke="#666666" points="157.75,-194.12 0,-194.12 0,-160.62 157.75,-160.62 157.75,-194.12"/>
<text text-anchor="start" x="8" y="-180.62" font-family="Helvetica,sans-Serif" font-size="10.00">validation_api::ConfigService</text>
<text text-anchor="middle" x="78.88" y="-167.88" font-family="Helvetica,sans-Serif" font-size="10.00">::validateConfig</text>
</a>
</g>
</g>
<!-- Node2 -->
<g id="Node000002" class="node">
<title>Node2</title>
<g id="a_Node000002"><a xlink:href="classvalidation__api_1_1Validation.html#ac6c337d3af39943a8e603a5f21f5922a" target="_top" xlink:title=" ">
<polygon fill="white" stroke="#666666" points="355.25,-187.75 193.75,-187.75 193.75,-167 355.25,-167 355.25,-187.75"/>
<text text-anchor="middle" x="274.5" y="-174.25" font-family="Helvetica,sans-Serif" font-size="10.00">validation_api::Validation::run</text>
</a>
</g>
</g>
<!-- Node1&#45;&gt;Node2 -->
<g id="edge1_Node000001_Node000002" class="edge">
<title>Node1&#45;&gt;Node2</title>
<g id="a_edge1_Node000001_Node000002"><a xlink:title=" ">
<path fill="none" stroke="#63b8ff" d="M158.07,-177.38C165.99,-177.38 174.08,-177.38 182.12,-177.38"/>
<polygon fill="#63b8ff" stroke="#63b8ff" points="181.92,-180.88 191.92,-177.38 181.92,-173.88 181.92,-180.88"/>
</a>
</g>
</g>
<!-- Node3 -->
<g id="Node000003" class="node">
<title>Node3</title>
<g id="a_Node000003"><a xlink:href="classvalidation__api_1_1Validation.html#a3c8146fc89af5b8cef0c1bb6c9d473f2" target="_top" xlink:title="Traverse through the json object and validate the fields.">
<polygon fill="white" stroke="#666666" points="531,-194.12 391.25,-194.12 391.25,-160.62 531,-160.62 531,-194.12"/>
<text text-anchor="start" x="399.25" y="-180.62" font-family="Helvetica,sans-Serif" font-size="10.00">validation_api::Validation</text>
<text text-anchor="middle" x="461.12" y="-167.88" font-family="Helvetica,sans-Serif" font-size="10.00">::traverseAndValidate</text>
</a>
</g>
</g>
<!-- Node2&#45;&gt;Node3 -->
<g id="edge2_Node000002_Node000003" class="edge">
<title>Node2&#45;&gt;Node3</title>
<g id="a_edge2_Node000002_Node000003"><a xlink:title=" ">
<path fill="none" stroke="#63b8ff" d="M355.67,-177.38C363.59,-177.38 371.62,-177.38 379.53,-177.38"/>
<polygon fill="#63b8ff" stroke="#63b8ff" points="379.51,-180.88 389.51,-177.38 379.51,-173.88 379.51,-180.88"/>
</a>
</g>
</g>
<!-- Node3&#45;&gt;Node3 -->
<g id="edge5_Node000003_Node000003" class="edge">
<title>Node3&#45;&gt;Node3</title>
<g id="a_edge5_Node000003_Node000003"><a xlink:title=" ">
<path fill="none" stroke="#63b8ff" d="M429.53,-194.54C424.16,-203.74 434.69,-212.12 461.12,-212.12 475.99,-212.12 485.83,-209.47 490.64,-205.51"/>
<polygon fill="#63b8ff" stroke="#63b8ff" points="494.01,-206.5 492.44,-196.03 487.13,-205.2 494.01,-206.5"/>
</a>
</g>
</g>
<!-- Node4 -->
<g id="Node000004" class="node">
<title>Node4</title>
<g id="a_Node000004"><a xlink:href="classvalidation__api_1_1Validation.html#a2005828d7e475090ef5a895348bfb760" target="_top" xlink:title=" ">
<polygon fill="white" stroke="#666666" points="888.5,-292.12 748.75,-292.12 748.75,-258.62 888.5,-258.62 888.5,-292.12"/>
<text text-anchor="start" x="756.75" y="-278.62" font-family="Helvetica,sans-Serif" font-size="10.00">validation_api::Validation</text>
<text text-anchor="middle" x="818.62" y="-265.88" font-family="Helvetica,sans-Serif" font-size="10.00">::findJsonField</text>
</a>
</g>
</g>
<!-- Node3&#45;&gt;Node4 -->
<g id="edge3_Node000003_Node000004" class="edge">
<title>Node3&#45;&gt;Node4</title>
<g id="a_edge3_Node000003_Node000004"><a xlink:title=" ">
<path fill="none" stroke="#63b8ff" d="M524.46,-194.56C585.73,-211.45 679.24,-237.23 744.11,-255.11"/>
<polygon fill="#63b8ff" stroke="#63b8ff" points="743.04,-258.44 753.61,-257.73 744.9,-251.7 743.04,-258.44"/>
</a>
</g>
</g>
<!-- Node5 -->
<g id="Node000005" class="node">
<title>Node5</title>
<g id="a_Node000005"><a xlink:href="classvalidation__api_1_1Validation.html#a1cc0802269d88c233ad3c3d1d6c3dd12" target="_top" xlink:title=" ">
<polygon fill="white" stroke="#666666" points="706.75,-172.12 567,-172.12 567,-138.62 706.75,-138.62 706.75,-172.12"/>
<text text-anchor="start" x="575" y="-158.62" font-family="Helvetica,sans-Serif" font-size="10.00">validation_api::Validation</text>
<text text-anchor="middle" x="636.88" y="-145.88" font-family="Helvetica,sans-Serif" font-size="10.00">::validate</text>
</a>
</g>
</g>
<!-- Node3&#45;&gt;Node5 -->
<g id="edge6_Node000003_Node000005" class="edge">
<title>Node3&#45;&gt;Node5</title>
<g id="a_edge6_Node000003_Node000005"><a xlink:title=" ">
<path fill="none" stroke="#63b8ff" d="M531.29,-168.62C539.21,-167.62 547.32,-166.59 555.37,-165.57"/>
<polygon fill="#63b8ff" stroke="#63b8ff" points="555.68,-169.06 565.16,-164.33 554.8,-162.11 555.68,-169.06"/>
</a>
</g>
</g>
<!-- Node4&#45;&gt;Node4 -->
<g id="edge4_Node000004_Node000004" class="edge">
<title>Node4&#45;&gt;Node4</title>
<g id="a_edge4_Node000004_Node000004"><a xlink:title=" ">
<path fill="none" stroke="#63b8ff" d="M785.95,-292.54C780.4,-301.74 791.29,-310.12 818.62,-310.12 834,-310.12 844.17,-307.47 849.14,-303.51"/>
<polygon fill="#63b8ff" stroke="#63b8ff" points="852.51,-304.51 851.01,-294.02 845.64,-303.16 852.51,-304.51"/>
</a>
</g>
</g>
<!-- Node5&#45;&gt;Node4 -->
<g id="edge8_Node000005_Node000004" class="edge">
<title>Node5&#45;&gt;Node4</title>
<g id="a_edge8_Node000005_Node000004"><a xlink:title=" ">
<path fill="none" stroke="#63b8ff" d="M655.1,-172.36C679.64,-196.27 723.79,-238.2 742.75,-249.38 745.19,-250.81 747.72,-252.18 750.31,-253.5"/>
<polygon fill="#63b8ff" stroke="#63b8ff" points="748.62,-256.57 759.16,-257.61 751.57,-250.22 748.62,-256.57"/>
</a>
</g>
</g>
<!-- Node6 -->
<g id="Node000006" class="node">
<title>Node6</title>
<g id="a_Node000006"><a xlink:href="classvalidation__api_1_1ErrorBuilder.html#a84327bbfe6c61e7be6966acc41ba6087" target="_top" xlink:title=" ">
<polygon fill="white" stroke="#666666" points="893,-240.12 744.25,-240.12 744.25,-206.62 893,-206.62 893,-240.12"/>
<text text-anchor="start" x="752.25" y="-226.62" font-family="Helvetica,sans-Serif" font-size="10.00">validation_api::ErrorBuilder</text>
<text text-anchor="middle" x="818.62" y="-213.88" font-family="Helvetica,sans-Serif" font-size="10.00">::build</text>
</a>
</g>
</g>
<!-- Node5&#45;&gt;Node6 -->
<g id="edge7_Node000005_Node000006" class="edge">
<title>Node5&#45;&gt;Node6</title>
<g id="a_edge7_Node000005_Node000006"><a xlink:title=" ">
<path fill="none" stroke="#63b8ff" d="M679.55,-172.58C698.72,-180.36 721.81,-189.55 742.75,-197.38 747.17,-199.03 751.76,-200.7 756.38,-202.37"/>
<polygon fill="#63b8ff" stroke="#63b8ff" points="755.14,-205.65 765.74,-205.71 757.49,-199.05 755.14,-205.65"/>
</a>
</g>
</g>
<!-- Node7 -->
<g id="Node000007" class="node">
<title>Node7</title>
<g id="a_Node000007"><a xlink:href="namespacevalidation__api.html#ac19e25b4d8364b0f52152440dd5ecbda" target="_top" xlink:title=" ">
<polygon fill="white" stroke="#666666" points="891.5,-188.75 745.75,-188.75 745.75,-168 891.5,-168 891.5,-188.75"/>
<text text-anchor="middle" x="818.62" y="-175.25" font-family="Helvetica,sans-Serif" font-size="10.00">validation_api::isValidUuid</text>
</a>
</g>
</g>
<!-- Node5&#45;&gt;Node7 -->
<g id="edge9_Node000005_Node000007" class="edge">
<title>Node5&#45;&gt;Node7</title>
<g id="a_edge9_Node000005_Node000007"><a xlink:title=" ">
<path fill="none" stroke="#63b8ff" d="M707.11,-164.23C715.95,-165.36 725.06,-166.53 734.08,-167.69"/>
<polygon fill="#63b8ff" stroke="#63b8ff" points="733.58,-171.15 743.94,-168.95 734.47,-164.21 733.58,-171.15"/>
</a>
</g>
</g>
<!-- Node8 -->
<g id="Node000008" class="node">
<title>Node8</title>
<g id="a_Node000008"><a xlink:href="classvalidation__api_1_1ErrorBuilder.html#a014e70c2f2b4a2ee879c363b4a2174f2" target="_top" xlink:title=" ">
<polygon fill="white" stroke="#666666" points="893,-150.12 744.25,-150.12 744.25,-116.62 893,-116.62 893,-150.12"/>
<text text-anchor="start" x="752.25" y="-136.62" font-family="Helvetica,sans-Serif" font-size="10.00">validation_api::ErrorBuilder</text>
<text text-anchor="middle" x="818.62" y="-123.88" font-family="Helvetica,sans-Serif" font-size="10.00">::setSecondMsg</text>
</a>
</g>
</g>
<!-- Node5&#45;&gt;Node8 -->
<g id="edge10_Node000005_Node000008" class="edge">
<title>Node5&#45;&gt;Node8</title>
<g id="a_edge10_Node000005_Node000008"><a xlink:title=" ">
<path fill="none" stroke="#63b8ff" d="M707.11,-146.9C715.5,-145.87 724.15,-144.82 732.73,-143.77"/>
<polygon fill="#63b8ff" stroke="#63b8ff" points="732.95,-147.27 742.45,-142.58 732.1,-140.32 732.95,-147.27"/>
</a>
</g>
</g>
<!-- Node9 -->
<g id="Node000009" class="node">
<title>Node9</title>
<g id="a_Node000009"><a xlink:href="namespacevalidation__api.html#a6dd56dcf7358b332bb906a2d27fddd0b" target="_top" xlink:title="Converts string to all lowercase.">
<polygon fill="white" stroke="#666666" points="883.62,-98.75 753.62,-98.75 753.62,-78 883.62,-78 883.62,-98.75"/>
<text text-anchor="middle" x="818.62" y="-85.25" font-family="Helvetica,sans-Serif" font-size="10.00">validation_api::toLower</text>
</a>
</g>
</g>
<!-- Node5&#45;&gt;Node9 -->
<g id="edge11_Node000005_Node000009" class="edge">
<title>Node5&#45;&gt;Node9</title>
<g id="a_edge11_Node000005_Node000009"><a xlink:title=" ">
<path fill="none" stroke="#63b8ff" d="M671.24,-138.23C691.54,-128.27 718.2,-116.03 742.75,-107.38 747.99,-105.53 753.5,-103.78 759.05,-102.15"/>
<polygon fill="#63b8ff" stroke="#63b8ff" points="759.57,-105.64 768.25,-99.57 757.68,-98.9 759.57,-105.64"/>
</a>
</g>
</g>
<!-- Node10 -->
<g id="Node000010" class="node">
<title>Node10</title>
<g id="a_Node000010"><a xlink:href="namespacevalidation__api.html#aae32fd7a0b5886a49454679d46ed4bd1" target="_top" xlink:title="Validates Ahv string.">
<polygon fill="white" stroke="#666666" points="893.38,-59.75 743.88,-59.75 743.88,-39 893.38,-39 893.38,-59.75"/>
<text text-anchor="middle" x="818.62" y="-46.25" font-family="Helvetica,sans-Serif" font-size="10.00">validation_api::validateAhv</text>
</a>
</g>
</g>
<!-- Node5&#45;&gt;Node10 -->
<g id="edge12_Node000005_Node000010" class="edge">
<title>Node5&#45;&gt;Node10</title>
<g id="a_edge12_Node000005_Node000010"><a xlink:title=" ">
<path fill="none" stroke="#63b8ff" d="M654.06,-138.27C673.39,-118.82 707.55,-87.43 742.75,-69.38 746.61,-67.39 750.69,-65.59 754.87,-63.96"/>
<polygon fill="#63b8ff" stroke="#63b8ff" points="755.71,-67.38 763.97,-60.75 753.37,-60.78 755.71,-67.38"/>
</a>
</g>
</g>
<!-- Node11 -->
<g id="Node000011" class="node">
<title>Node11</title>
<g id="a_Node000011"><a xlink:href="namespacevalidation__api.html#a0a2b975e162ced567ba3a6075684092a" target="_top" xlink:title="Validates Iban string.">
<polygon fill="white" stroke="#666666" points="894.5,-20.75 742.75,-20.75 742.75,0 894.5,0 894.5,-20.75"/>
<text text-anchor="middle" x="818.62" y="-7.25" font-family="Helvetica,sans-Serif" font-size="10.00">validation_api::validateIban</text>
</a>
</g>
</g>
<!-- Node5&#45;&gt;Node11 -->
<g id="edge13_Node000005_Node000011" class="edge">
<title>Node5&#45;&gt;Node11</title>
<g id="a_edge13_Node000005_Node000011"><a xlink:title=" ">
<path fill="none" stroke="#63b8ff" d="M647.4,-138.36C663.46,-111.26 698.54,-58.52 742.75,-30.38 745.46,-28.65 748.32,-27.07 751.28,-25.63"/>
<polygon fill="#63b8ff" stroke="#63b8ff" points="752.4,-28.95 760.22,-21.81 749.65,-22.51 752.4,-28.95"/>
</a>
</g>
</g>
</g>
</svg>
