<?xml version="1.0" encoding="UTF-8" standalone="no"?>
<!DOCTYPE svg PUBLIC "-//W3C//DTD SVG 1.1//EN"
 "http://www.w3.org/Graphics/SVG/1.1/DTD/svg11.dtd">
<!-- Generated by graphviz version 10.0.1 (0)
 -->
<!-- Title: validation_api::ConfigWatcher::ConfigWatcher Pages: 1 -->
<svg width="966pt" height="218pt"
 viewBox="0.00 0.00 965.50 218.12" xmlns="http://www.w3.org/2000/svg" xmlns:xlink="http://www.w3.org/1999/xlink">
<g id="graph0" class="graph" transform="scale(1 1) rotate(0) translate(4 214.12)">
<title>validation_api::ConfigWatcher::ConfigWatcher</title>
<!-- Node1 -->
<g id="Node000001" class="node">
<title>Node1</title>
<g id="a_Node000001"><a xlink:title=" ">
<polygon fill="#999999" stroke="#666666" points="161.5,-120.12 0,-120.12 0,-86.62 161.5,-86.62 161.5,-120.12"/>
<text text-anchor="start" x="8" y="-106.62" font-family="Helvetica,sans-Serif" font-size="10.00">validation_api::ConfigWatcher</text>
<text text-anchor="middle" x="80.75" y="-93.88" font-family="Helvetica,sans-Serif" font-size="10.00">::ConfigWatcher</text>
</a>
</g>
</g>
<!-- Node2 -->
<g id="Node000002" class="node">
<title>Node2</title>
<g id="a_Node000002"><a xlink:href="classvalidation__api_1_1ConfigWatcher.html#a13e118f62a6b13b780f44e12d5afed78" target="_top" xlink:title="Start ConfigWatcher.">
<polygon fill="white" stroke="#666666" points="380.75,-158.75 197.5,-158.75 197.5,-138 380.75,-138 380.75,-158.75"/>
<text text-anchor="middle" x="289.12" y="-145.25" font-family="Helvetica,sans-Serif" font-size="10.00">validation_api::ConfigWatcher::run</text>
</a>
</g>
</g>
<!-- Node1&#45;&gt;Node2 -->
<g id="edge1_Node000001_Node000002" class="edge">
<title>Node1&#45;&gt;Node2</title>
<g id="a_edge1_Node000001_Node000002"><a xlink:title=" ">
<path fill="none" stroke="#63b8ff" d="M157.68,-120.59C170.94,-123.55 184.62,-126.58 197.5,-129.38 206.32,-131.29 215.64,-133.28 224.8,-135.22"/>
<polygon fill="#63b8ff" stroke="#63b8ff" points="223.87,-138.6 234.38,-137.24 225.32,-131.75 223.87,-138.6"/>
</a>
</g>
</g>
<!-- Node12 -->
<g id="Node000012" class="node">
<title>Node12</title>
<g id="a_Node000012"><a xlink:href="classvalidation__api_1_1ConfigWatcher.html#a6f8a66478001a8a0515344aac1fd0395" target="_top" xlink:title="Setup the ConfigWatcher.">
<polygon fill="white" stroke="#666666" points="369.88,-120.12 208.38,-120.12 208.38,-86.62 369.88,-86.62 369.88,-120.12"/>
<text text-anchor="start" x="216.38" y="-106.62" font-family="Helvetica,sans-Serif" font-size="10.00">validation_api::ConfigWatcher</text>
<text text-anchor="middle" x="289.12" y="-93.88" font-family="Helvetica,sans-Serif" font-size="10.00">::setup</text>
</a>
</g>
</g>
<!-- Node1&#45;&gt;Node12 -->
<g id="edge12_Node000001_Node000012" class="edge">
<title>Node1&#45;&gt;Node12</title>
<g id="a_edge12_Node000001_Node000012"><a xlink:title=" ">
<path fill="none" stroke="#63b8ff" d="M161.84,-103.38C173.22,-103.38 185,-103.38 196.59,-103.38"/>
<polygon fill="#63b8ff" stroke="#63b8ff" points="196.57,-106.88 206.57,-103.38 196.57,-99.88 196.57,-106.88"/>
</a>
</g>
</g>
<!-- Node13 -->
<g id="Node000013" class="node">
<title>Node13</title>
<g id="a_Node000013"><a xlink:href="classvalidation__api_1_1ConfigWatcher.html#ac67b7bc5802f99796c903d2fdac92648" target="_top" xlink:title="Stop the ConfigWatcher.">
<polygon fill="white" stroke="#666666" points="369.88,-68.12 208.38,-68.12 208.38,-34.62 369.88,-34.62 369.88,-68.12"/>
<text text-anchor="start" x="216.38" y="-54.62" font-family="Helvetica,sans-Serif" font-size="10.00">validation_api::ConfigWatcher</text>
<text text-anchor="middle" x="289.12" y="-41.88" font-family="Helvetica,sans-Serif" font-size="10.00">::stop</text>
</a>
</g>
</g>
<!-- Node1&#45;&gt;Node13 -->
<g id="edge14_Node000001_Node000013" class="edge">
<title>Node1&#45;&gt;Node13</title>
<g id="a_edge14_Node000001_Node000013"><a xlink:title=" ">
<path fill="none" stroke="#63b8ff" d="M150.18,-86.13C169,-81.39 189.57,-76.21 208.94,-71.33"/>
<polygon fill="#63b8ff" stroke="#63b8ff" points="209.57,-74.78 218.41,-68.94 207.86,-67.99 209.57,-74.78"/>
</a>
</g>
</g>
<!-- Node3 -->
<g id="Node000003" class="node">
<title>Node3</title>
<g id="a_Node000003"><a xlink:href="classvalidation__api_1_1ConfigService.html#a72b9695e86a85502ea559e009a878e4c" target="_top" xlink:title="getConfigs method">
<polygon fill="white" stroke="#666666" points="576.38,-210.12 418.62,-210.12 418.62,-176.62 576.38,-176.62 576.38,-210.12"/>
<text text-anchor="start" x="426.62" y="-196.62" font-family="Helvetica,sans-Serif" font-size="10.00">validation_api::ConfigService</text>
<text text-anchor="middle" x="497.5" y="-183.88" font-family="Helvetica,sans-Serif" font-size="10.00">::deleteConfig</text>
</a>
</g>
</g>
<!-- Node2&#45;&gt;Node3 -->
<g id="edge2_Node000002_Node000003" class="edge">
<title>Node2&#45;&gt;Node3</title>
<g id="a_edge2_Node000002_Node000003"><a xlink:title=" ">
<path fill="none" stroke="#63b8ff" d="M339.82,-159.21C360.01,-163.61 383.98,-168.84 407.02,-173.86"/>
<polygon fill="#63b8ff" stroke="#63b8ff" points="406.24,-177.28 416.76,-175.99 407.73,-170.44 406.24,-177.28"/>
</a>
</g>
</g>
<!-- Node4 -->
<g id="Node000004" class="node">
<title>Node4</title>
<g id="a_Node000004"><a xlink:href="classvalidation__api_1_1ConfigWatcher.html#a78820bcf2ebf9135785e207aae042e72" target="_top" xlink:title=" ">
<polygon fill="white" stroke="#666666" points="578.25,-120.12 416.75,-120.12 416.75,-86.62 578.25,-86.62 578.25,-120.12"/>
<text text-anchor="start" x="424.75" y="-106.62" font-family="Helvetica,sans-Serif" font-size="10.00">validation_api::ConfigWatcher</text>
<text text-anchor="middle" x="497.5" y="-93.88" font-family="Helvetica,sans-Serif" font-size="10.00">::read_file</text>
</a>
</g>
</g>
<!-- Node2&#45;&gt;Node4 -->
<g id="edge3_Node000002_Node000004" class="edge">
<title>Node2&#45;&gt;Node4</title>
<g id="a_edge3_Node000002_Node000004"><a xlink:title=" ">
<path fill="none" stroke="#63b8ff" d="M342.39,-137.55C354.96,-134.91 368.34,-132.07 380.75,-129.38 390.11,-127.34 399.89,-125.19 409.62,-123.03"/>
<polygon fill="#63b8ff" stroke="#63b8ff" points="410.1,-126.51 419.1,-120.92 408.57,-119.68 410.1,-126.51"/>
</a>
</g>
</g>
<!-- Node11 -->
<g id="Node000011" class="node">
<title>Node11</title>
<g id="a_Node000011"><a xlink:href="ConfigWatcher_8cpp.html#af492780bc7786abac56fa242d4fc3045" target="_top" xlink:title=" ">
<polygon fill="white" stroke="#666666" points="532.88,-158.75 462.12,-158.75 462.12,-138 532.88,-138 532.88,-158.75"/>
<text text-anchor="middle" x="497.5" y="-145.25" font-family="Helvetica,sans-Serif" font-size="10.00">semaphore</text>
</a>
</g>
</g>
<!-- Node2&#45;&gt;Node11 -->
<g id="edge11_Node000002_Node000011" class="edge">
<title>Node2&#45;&gt;Node11</title>
<g id="a_edge11_Node000002_Node000011"><a xlink:title=" ">
<path fill="none" stroke="#63b8ff" d="M381.24,-148.38C405.07,-148.38 429.77,-148.38 450.17,-148.38"/>
<polygon fill="#63b8ff" stroke="#63b8ff" points="450.12,-151.88 460.12,-148.38 450.12,-144.88 450.12,-151.88"/>
</a>
</g>
</g>
<!-- Node5 -->
<g id="Node000005" class="node">
<title>Node5</title>
<g id="a_Node000005"><a xlink:href="classvalidation__api_1_1ConfigService.html#a8fee54d1f3f5eb92a17c3ecd72780f00" target="_top" xlink:title="getConfigs method">
<polygon fill="white" stroke="#666666" points="772,-155.12 614.25,-155.12 614.25,-121.62 772,-121.62 772,-155.12"/>
<text text-anchor="start" x="622.25" y="-141.62" font-family="Helvetica,sans-Serif" font-size="10.00">validation_api::ConfigService</text>
<text text-anchor="middle" x="693.12" y="-128.88" font-family="Helvetica,sans-Serif" font-size="10.00">::createConfig</text>
</a>
</g>
</g>
<!-- Node4&#45;&gt;Node5 -->
<g id="edge4_Node000004_Node000005" class="edge">
<title>Node4&#45;&gt;Node5</title>
<g id="a_edge4_Node000004_Node000005"><a xlink:title=" ">
<path fill="none" stroke="#63b8ff" d="M578.65,-117.86C586.57,-119.3 594.65,-120.75 602.65,-122.2"/>
<polygon fill="#63b8ff" stroke="#63b8ff" points="601.95,-125.63 612.41,-123.97 603.19,-118.74 601.95,-125.63"/>
</a>
</g>
</g>
<!-- Node6 -->
<g id="Node000006" class="node">
<title>Node6</title>
<g id="a_Node000006"><a xlink:href="namespacevalidation__api.html#aa82c6b3a43b6e6b59b529c22944cadca" target="_top" xlink:title="Ensures valid Xml configuration.">
<polygon fill="white" stroke="#666666" points="758.5,-85.12 627.75,-85.12 627.75,-51.62 758.5,-51.62 758.5,-85.12"/>
<text text-anchor="start" x="635.75" y="-71.62" font-family="Helvetica,sans-Serif" font-size="10.00">validation_api::validate</text>
<text text-anchor="middle" x="693.12" y="-58.88" font-family="Helvetica,sans-Serif" font-size="10.00">XmlConfig</text>
</a>
</g>
</g>
<!-- Node4&#45;&gt;Node6 -->
<g id="edge5_Node000004_Node000006" class="edge">
<title>Node4&#45;&gt;Node6</title>
<g id="a_edge5_Node000004_Node000006"><a xlink:title=" ">
<path fill="none" stroke="#63b8ff" d="M578.65,-88.89C591.08,-86.64 603.88,-84.33 616.21,-82.1"/>
<polygon fill="#63b8ff" stroke="#63b8ff" points="616.67,-85.57 625.89,-80.35 615.42,-78.68 616.67,-85.57"/>
</a>
</g>
</g>
<!-- Node6&#45;&gt;Node6 -->
<g id="edge10_Node000006_Node000006" class="edge">
<title>Node6&#45;&gt;Node6</title>
<g id="a_edge10_Node000006_Node000006"><a xlink:title=" ">
<path fill="none" stroke="#63b8ff" d="M659.04,-85.54C653.24,-94.74 664.61,-103.12 693.12,-103.12 709.17,-103.12 719.78,-100.47 724.96,-96.51"/>
<polygon fill="#63b8ff" stroke="#63b8ff" points="728.33,-97.52 726.91,-87.02 721.47,-96.12 728.33,-97.52"/>
</a>
</g>
</g>
<!-- Node7 -->
<g id="Node000007" class="node">
<title>Node7</title>
<g id="a_Node000007"><a xlink:href="namespacevalidation__api.html#a0c0f34d744f57bb06458867fbee4b7a9" target="_top" xlink:title="Insert an error into a json object.">
<polygon fill="white" stroke="#666666" points="957.5,-137.75 808,-137.75 808,-117 957.5,-117 957.5,-137.75"/>
<text text-anchor="middle" x="882.75" y="-124.25" font-family="Helvetica,sans-Serif" font-size="10.00">validation_api::insertToJson</text>
</a>
</g>
</g>
<!-- Node6&#45;&gt;Node7 -->
<g id="edge6_Node000006_Node000007" class="edge">
<title>Node6&#45;&gt;Node7</title>
<g id="a_edge6_Node000006_Node000007"><a xlink:title=" ">
<path fill="none" stroke="#63b8ff" d="M742.1,-85.58C762.34,-92.64 786.22,-100.7 808,-107.38 814.74,-109.44 821.86,-111.51 828.92,-113.5"/>
<polygon fill="#63b8ff" stroke="#63b8ff" points="827.85,-116.83 838.42,-116.13 829.72,-110.09 827.85,-116.83"/>
</a>
</g>
</g>
<!-- Node8 -->
<g id="Node000008" class="node">
<title>Node8</title>
<g id="a_Node000008"><a xlink:href="namespacevalidation__api.html#ac497c1198e4e7f0fe71ffbdb3e6beeaa" target="_top" xlink:title="Convert string to float.">
<polygon fill="white" stroke="#666666" points="944.75,-98.75 820.75,-98.75 820.75,-78 944.75,-78 944.75,-98.75"/>
<text text-anchor="middle" x="882.75" y="-85.25" font-family="Helvetica,sans-Serif" font-size="10.00">validation_api::isFloat</text>
</a>
</g>
</g>
<!-- Node6&#45;&gt;Node8 -->
<g id="edge7_Node000006_Node000008" class="edge">
<title>Node6&#45;&gt;Node8</title>
<g id="a_edge7_Node000006_Node000008"><a xlink:title=" ">
<path fill="none" stroke="#63b8ff" d="M758.96,-75.29C775.14,-77.01 792.59,-78.87 809.12,-80.63"/>
<polygon fill="#63b8ff" stroke="#63b8ff" points="808.57,-84.09 818.88,-81.67 809.31,-77.13 808.57,-84.09"/>
</a>
</g>
</g>
<!-- Node9 -->
<g id="Node000009" class="node">
<title>Node9</title>
<g id="a_Node000009"><a xlink:href="namespacevalidation__api.html#ac19e25b4d8364b0f52152440dd5ecbda" target="_top" xlink:title=" ">
<polygon fill="white" stroke="#666666" points="955.62,-59.75 809.88,-59.75 809.88,-39 955.62,-39 955.62,-59.75"/>
<text text-anchor="middle" x="882.75" y="-46.25" font-family="Helvetica,sans-Serif" font-size="10.00">validation_api::isValidUuid</text>
</a>
</g>
</g>
<!-- Node6&#45;&gt;Node9 -->
<g id="edge8_Node000006_Node000009" class="edge">
<title>Node6&#45;&gt;Node9</title>
<g id="a_edge8_Node000006_Node000009"><a xlink:title=" ">
<path fill="none" stroke="#63b8ff" d="M758.96,-61.81C771.57,-60.53 784.97,-59.18 798.09,-57.85"/>
<polygon fill="#63b8ff" stroke="#63b8ff" points="798.42,-61.33 808.02,-56.84 797.72,-54.37 798.42,-61.33"/>
</a>
</g>
</g>
<!-- Node10 -->
<g id="Node000010" class="node">
<title>Node10</title>
<g id="a_Node000010"><a xlink:href="namespacevalidation__api.html#a6dd56dcf7358b332bb906a2d27fddd0b" target="_top" xlink:title="Converts string to all lowercase.">
<polygon fill="white" stroke="#666666" points="947.75,-20.75 817.75,-20.75 817.75,0 947.75,0 947.75,-20.75"/>
<text text-anchor="middle" x="882.75" y="-7.25" font-family="Helvetica,sans-Serif" font-size="10.00">validation_api::toLower</text>
</a>
</g>
</g>
<!-- Node6&#45;&gt;Node10 -->
<g id="edge9_Node000006_Node000010" class="edge">
<title>Node6&#45;&gt;Node10</title>
<g id="a_edge9_Node000006_Node000010"><a xlink:title=" ">
<path fill="none" stroke="#63b8ff" d="M743.53,-51.2C763.48,-44.45 786.75,-36.8 808,-30.38 814.83,-28.31 822.05,-26.23 829.19,-24.23"/>
<polygon fill="#63b8ff" stroke="#63b8ff" points="830.12,-27.61 838.83,-21.57 828.26,-20.86 830.12,-27.61"/>
</a>
</g>
</g>
<!-- Node12&#45;&gt;Node4 -->
<g id="edge13_Node000012_Node000004" class="edge">
<title>Node12&#45;&gt;Node4</title>
<g id="a_edge13_Node000012_Node000004"><a xlink:title=" ">
<path fill="none" stroke="#63b8ff" d="M370.21,-103.38C381.6,-103.38 393.38,-103.38 404.96,-103.38"/>
<polygon fill="#63b8ff" stroke="#63b8ff" points="404.95,-106.88 414.95,-103.38 404.95,-99.88 404.95,-106.88"/>
</a>
</g>
</g>
</g>
</svg>
