<?xml version="1.0" encoding="UTF-8" standalone="no"?>
<!DOCTYPE svg PUBLIC "-//W3C//DTD SVG 1.1//EN"
 "http://www.w3.org/Graphics/SVG/1.1/DTD/svg11.dtd">
<!-- Generated by graphviz version 10.0.1 (0)
 -->
<!-- Title: validation_api::ValidationServer::ValidationServer Pages: 1 -->
<svg width="1430pt" height="318pt"
 viewBox="0.00 0.00 1429.75 318.12" xmlns="http://www.w3.org/2000/svg" xmlns:xlink="http://www.w3.org/1999/xlink">
<g id="graph0" class="graph" transform="scale(1 1) rotate(0) translate(4 314.12)">
<title>validation_api::ValidationServer::ValidationServer</title>
<!-- Node1 -->
<g id="Node000001" class="node">
<title>Node1</title>
<g id="a_Node000001"><a xlink:title=" ">
<polygon fill="#999999" stroke="#666666" points="139.75,-213.12 0,-213.12 0,-179.62 139.75,-179.62 139.75,-213.12"/>
<text text-anchor="start" x="8" y="-199.62" font-family="Helvetica,sans-Serif" font-size="10.00">validation_api::Validation</text>
<text text-anchor="middle" x="69.88" y="-186.88" font-family="Helvetica,sans-Serif" font-size="10.00">Server::ValidationServer</text>
</a>
</g>
</g>
<!-- Node2 -->
<g id="Node000002" class="node">
<title>Node2</title>
<g id="a_Node000002"><a xlink:href="classvalidation__api_1_1ValidationServer.html#ad67c7031c85ea1cd6eb84f6b01c424df" target="_top" xlink:title="Start the server.">
<polygon fill="white" stroke="#666666" points="315.5,-239.12 175.75,-239.12 175.75,-205.62 315.5,-205.62 315.5,-239.12"/>
<text text-anchor="start" x="183.75" y="-225.62" font-family="Helvetica,sans-Serif" font-size="10.00">validation_api::Validation</text>
<text text-anchor="middle" x="245.62" y="-212.88" font-family="Helvetica,sans-Serif" font-size="10.00">Server::run</text>
</a>
</g>
</g>
<!-- Node1&#45;&gt;Node2 -->
<g id="edge1_Node000001_Node000002" class="edge">
<title>Node1&#45;&gt;Node2</title>
<g id="a_edge1_Node000001_Node000002"><a xlink:title=" ">
<path fill="none" stroke="#63b8ff" d="M140.04,-206.73C147.96,-207.91 156.07,-209.12 164.12,-210.33"/>
<polygon fill="#63b8ff" stroke="#63b8ff" points="163.5,-213.77 173.91,-211.79 164.54,-206.85 163.5,-213.77"/>
</a>
</g>
</g>
<!-- Node17 -->
<g id="Node000017" class="node">
<title>Node17</title>
<g id="a_Node000017"><a xlink:href="classvalidation__api_1_1ValidationServer.html#aee6d6d3e85ff6a2ca7a476f15e341aa8" target="_top" xlink:title="Setup the server.">
<polygon fill="white" stroke="#666666" points="315.5,-187.12 175.75,-187.12 175.75,-153.62 315.5,-153.62 315.5,-187.12"/>
<text text-anchor="start" x="183.75" y="-173.62" font-family="Helvetica,sans-Serif" font-size="10.00">validation_api::Validation</text>
<text text-anchor="middle" x="245.62" y="-160.88" font-family="Helvetica,sans-Serif" font-size="10.00">Server::setup</text>
</a>
</g>
</g>
<!-- Node1&#45;&gt;Node17 -->
<g id="edge20_Node000001_Node000017" class="edge">
<title>Node1&#45;&gt;Node17</title>
<g id="a_edge20_Node000001_Node000017"><a xlink:title=" ">
<path fill="none" stroke="#63b8ff" d="M140.04,-186.02C147.96,-184.84 156.07,-183.63 164.12,-182.42"/>
<polygon fill="#63b8ff" stroke="#63b8ff" points="164.54,-185.9 173.91,-180.96 163.5,-178.98 164.54,-185.9"/>
</a>
</g>
</g>
<!-- Node2&#45;&gt;Node2 -->
<g id="edge19_Node000002_Node000002" class="edge">
<title>Node2&#45;&gt;Node2</title>
<g id="a_edge19_Node000002_Node000002"><a xlink:title=" ">
<path fill="none" stroke="#63b8ff" d="M214.03,-239.54C208.66,-248.74 219.19,-257.12 245.62,-257.12 260.49,-257.12 270.33,-254.47 275.14,-250.51"/>
<polygon fill="#63b8ff" stroke="#63b8ff" points="278.51,-251.5 276.94,-241.03 271.63,-250.2 278.51,-251.5"/>
</a>
</g>
</g>
<!-- Node3 -->
<g id="Node000003" class="node">
<title>Node3</title>
<g id="a_Node000003"><a xlink:href="classvalidation__api_1_1ValidationServer.html#a7f5c5252fa7a28bef0345e6248139215" target="_top" xlink:title="Accept a connection.">
<polygon fill="white" stroke="#666666" points="491.25,-239.12 351.5,-239.12 351.5,-205.62 491.25,-205.62 491.25,-239.12"/>
<text text-anchor="start" x="359.5" y="-225.62" font-family="Helvetica,sans-Serif" font-size="10.00">validation_api::Validation</text>
<text text-anchor="middle" x="421.38" y="-212.88" font-family="Helvetica,sans-Serif" font-size="10.00">Server::accept</text>
</a>
</g>
</g>
<!-- Node2&#45;&gt;Node3 -->
<g id="edge2_Node000002_Node000003" class="edge">
<title>Node2&#45;&gt;Node3</title>
<g id="a_edge2_Node000002_Node000003"><a xlink:title=" ">
<path fill="none" stroke="#63b8ff" d="M315.79,-222.38C323.71,-222.38 331.82,-222.38 339.87,-222.38"/>
<polygon fill="#63b8ff" stroke="#63b8ff" points="339.65,-225.88 349.65,-222.38 339.65,-218.88 339.65,-225.88"/>
</a>
</g>
</g>
<!-- Node4 -->
<g id="Node000004" class="node">
<title>Node4</title>
<g id="a_Node000004"><a xlink:href="classvalidation__api_1_1ValidationServer.html#a59c4a313effe28cc0acca7b8bb3a26e4" target="_top" xlink:title=" ">
<polygon fill="white" stroke="#666666" points="676,-284.12 536.25,-284.12 536.25,-250.62 676,-250.62 676,-284.12"/>
<text text-anchor="start" x="544.25" y="-270.62" font-family="Helvetica,sans-Serif" font-size="10.00">validation_api::Validation</text>
<text text-anchor="middle" x="606.12" y="-257.88" font-family="Helvetica,sans-Serif" font-size="10.00">Server::asyncWriter</text>
</a>
</g>
</g>
<!-- Node3&#45;&gt;Node4 -->
<g id="edge3_Node000003_Node000004" class="edge">
<title>Node3&#45;&gt;Node4</title>
<g id="a_edge3_Node000003_Node000004"><a xlink:title=" ">
<path fill="none" stroke="#63b8ff" d="M491.73,-239.45C502.55,-242.12 513.82,-244.89 524.87,-247.61"/>
<polygon fill="#63b8ff" stroke="#63b8ff" points="523.81,-250.96 534.35,-249.95 525.48,-244.16 523.81,-250.96"/>
</a>
</g>
</g>
<!-- Node5 -->
<g id="Node000005" class="node">
<title>Node5</title>
<g id="a_Node000005"><a xlink:href="namespacevalidation__api.html#ad94de3de52c70b315f5b36cce4642718" target="_top" xlink:title=" ">
<polygon fill="white" stroke="#666666" points="681.25,-232.75 531,-232.75 531,-212 681.25,-212 681.25,-232.75"/>
<text text-anchor="middle" x="606.12" y="-219.25" font-family="Helvetica,sans-Serif" font-size="10.00">validation_api::errorsToJson</text>
</a>
</g>
</g>
<!-- Node3&#45;&gt;Node5 -->
<g id="edge4_Node000003_Node000005" class="edge">
<title>Node3&#45;&gt;Node5</title>
<g id="a_edge4_Node000003_Node000005"><a xlink:title=" ">
<path fill="none" stroke="#63b8ff" d="M491.73,-222.38C500.77,-222.38 510.12,-222.38 519.4,-222.38"/>
<polygon fill="#63b8ff" stroke="#63b8ff" points="519.13,-225.88 529.13,-222.38 519.13,-218.88 519.13,-225.88"/>
</a>
</g>
</g>
<!-- Node6 -->
<g id="Node000006" class="node">
<title>Node6</title>
<g id="a_Node000006"><a xlink:href="classvalidation__api_1_1ConfigService.html#a654e84f4f588f7391f93210c1e08344f" target="_top" xlink:title="getConfigs method">
<polygon fill="white" stroke="#666666" points="685,-194.12 527.25,-194.12 527.25,-160.62 685,-160.62 685,-194.12"/>
<text text-anchor="start" x="535.25" y="-180.62" font-family="Helvetica,sans-Serif" font-size="10.00">validation_api::ConfigService</text>
<text text-anchor="middle" x="606.12" y="-167.88" font-family="Helvetica,sans-Serif" font-size="10.00">::validateConfig</text>
</a>
</g>
</g>
<!-- Node3&#45;&gt;Node6 -->
<g id="edge5_Node000003_Node000006" class="edge">
<title>Node3&#45;&gt;Node6</title>
<g id="a_edge5_Node000003_Node000006"><a xlink:title=" ">
<path fill="none" stroke="#63b8ff" d="M491.73,-205.3C502.29,-202.7 513.28,-199.99 524.07,-197.33"/>
<polygon fill="#63b8ff" stroke="#63b8ff" points="524.87,-200.74 533.75,-194.95 523.2,-193.94 524.87,-200.74"/>
</a>
</g>
</g>
<!-- Node7 -->
<g id="Node000007" class="node">
<title>Node7</title>
<g id="a_Node000007"><a xlink:href="classvalidation__api_1_1Validation.html#ac6c337d3af39943a8e603a5f21f5922a" target="_top" xlink:title=" ">
<polygon fill="white" stroke="#666666" points="882.5,-187.75 721,-187.75 721,-167 882.5,-167 882.5,-187.75"/>
<text text-anchor="middle" x="801.75" y="-174.25" font-family="Helvetica,sans-Serif" font-size="10.00">validation_api::Validation::run</text>
</a>
</g>
</g>
<!-- Node6&#45;&gt;Node7 -->
<g id="edge6_Node000006_Node000007" class="edge">
<title>Node6&#45;&gt;Node7</title>
<g id="a_edge6_Node000006_Node000007"><a xlink:title=" ">
<path fill="none" stroke="#63b8ff" d="M685.32,-177.38C693.24,-177.38 701.33,-177.38 709.37,-177.38"/>
<polygon fill="#63b8ff" stroke="#63b8ff" points="709.17,-180.88 719.17,-177.38 709.17,-173.88 709.17,-180.88"/>
</a>
</g>
</g>
<!-- Node8 -->
<g id="Node000008" class="node">
<title>Node8</title>
<g id="a_Node000008"><a xlink:href="classvalidation__api_1_1Validation.html#a3c8146fc89af5b8cef0c1bb6c9d473f2" target="_top" xlink:title="Traverse through the json object and validate the fields.">
<polygon fill="white" stroke="#666666" points="1058.25,-194.12 918.5,-194.12 918.5,-160.62 1058.25,-160.62 1058.25,-194.12"/>
<text text-anchor="start" x="926.5" y="-180.62" font-family="Helvetica,sans-Serif" font-size="10.00">validation_api::Validation</text>
<text text-anchor="middle" x="988.38" y="-167.88" font-family="Helvetica,sans-Serif" font-size="10.00">::traverseAndValidate</text>
</a>
</g>
</g>
<!-- Node7&#45;&gt;Node8 -->
<g id="edge7_Node000007_Node000008" class="edge">
<title>Node7&#45;&gt;Node8</title>
<g id="a_edge7_Node000007_Node000008"><a xlink:title=" ">
<path fill="none" stroke="#63b8ff" d="M882.92,-177.38C890.84,-177.38 898.87,-177.38 906.78,-177.38"/>
<polygon fill="#63b8ff" stroke="#63b8ff" points="906.76,-180.88 916.76,-177.38 906.76,-173.88 906.76,-180.88"/>
</a>
</g>
</g>
<!-- Node8&#45;&gt;Node8 -->
<g id="edge10_Node000008_Node000008" class="edge">
<title>Node8&#45;&gt;Node8</title>
<g id="a_edge10_Node000008_Node000008"><a xlink:title=" ">
<path fill="none" stroke="#63b8ff" d="M956.78,-194.54C951.41,-203.74 961.94,-212.12 988.38,-212.12 1003.24,-212.12 1013.08,-209.47 1017.89,-205.51"/>
<polygon fill="#63b8ff" stroke="#63b8ff" points="1021.26,-206.5 1019.69,-196.03 1014.38,-205.2 1021.26,-206.5"/>
</a>
</g>
</g>
<!-- Node9 -->
<g id="Node000009" class="node">
<title>Node9</title>
<g id="a_Node000009"><a xlink:href="classvalidation__api_1_1Validation.html#a2005828d7e475090ef5a895348bfb760" target="_top" xlink:title=" ">
<polygon fill="white" stroke="#666666" points="1415.75,-292.12 1276,-292.12 1276,-258.62 1415.75,-258.62 1415.75,-292.12"/>
<text text-anchor="start" x="1284" y="-278.62" font-family="Helvetica,sans-Serif" font-size="10.00">validation_api::Validation</text>
<text text-anchor="middle" x="1345.88" y="-265.88" font-family="Helvetica,sans-Serif" font-size="10.00">::findJsonField</text>
</a>
</g>
</g>
<!-- Node8&#45;&gt;Node9 -->
<g id="edge8_Node000008_Node000009" class="edge">
<title>Node8&#45;&gt;Node9</title>
<g id="a_edge8_Node000008_Node000009"><a xlink:title=" ">
<path fill="none" stroke="#63b8ff" d="M1051.71,-194.56C1112.98,-211.45 1206.49,-237.23 1271.36,-255.11"/>
<polygon fill="#63b8ff" stroke="#63b8ff" points="1270.29,-258.44 1280.86,-257.73 1272.15,-251.7 1270.29,-258.44"/>
</a>
</g>
</g>
<!-- Node10 -->
<g id="Node000010" class="node">
<title>Node10</title>
<g id="a_Node000010"><a xlink:href="classvalidation__api_1_1Validation.html#a1cc0802269d88c233ad3c3d1d6c3dd12" target="_top" xlink:title=" ">
<polygon fill="white" stroke="#666666" points="1234,-172.12 1094.25,-172.12 1094.25,-138.62 1234,-138.62 1234,-172.12"/>
<text text-anchor="start" x="1102.25" y="-158.62" font-family="Helvetica,sans-Serif" font-size="10.00">validation_api::Validation</text>
<text text-anchor="middle" x="1164.12" y="-145.88" font-family="Helvetica,sans-Serif" font-size="10.00">::validate</text>
</a>
</g>
</g>
<!-- Node8&#45;&gt;Node10 -->
<g id="edge11_Node000008_Node000010" class="edge">
<title>Node8&#45;&gt;Node10</title>
<g id="a_edge11_Node000008_Node000010"><a xlink:title=" ">
<path fill="none" stroke="#63b8ff" d="M1058.54,-168.62C1066.46,-167.62 1074.57,-166.59 1082.62,-165.57"/>
<polygon fill="#63b8ff" stroke="#63b8ff" points="1082.93,-169.06 1092.41,-164.33 1082.05,-162.11 1082.93,-169.06"/>
</a>
</g>
</g>
<!-- Node9&#45;&gt;Node9 -->
<g id="edge9_Node000009_Node000009" class="edge">
<title>Node9&#45;&gt;Node9</title>
<g id="a_edge9_Node000009_Node000009"><a xlink:title=" ">
<path fill="none" stroke="#63b8ff" d="M1313.2,-292.54C1307.65,-301.74 1318.54,-310.12 1345.88,-310.12 1361.25,-310.12 1371.42,-307.47 1376.39,-303.51"/>
<polygon fill="#63b8ff" stroke="#63b8ff" points="1379.76,-304.51 1378.26,-294.02 1372.89,-303.16 1379.76,-304.51"/>
</a>
</g>
</g>
<!-- Node10&#45;&gt;Node9 -->
<g id="edge13_Node000010_Node000009" class="edge">
<title>Node10&#45;&gt;Node9</title>
<g id="a_edge13_Node000010_Node000009"><a xlink:title=" ">
<path fill="none" stroke="#63b8ff" d="M1182.35,-172.36C1206.89,-196.27 1251.04,-238.2 1270,-249.38 1272.44,-250.81 1274.97,-252.18 1277.56,-253.5"/>
<polygon fill="#63b8ff" stroke="#63b8ff" points="1275.87,-256.57 1286.41,-257.61 1278.82,-250.22 1275.87,-256.57"/>
</a>
</g>
</g>
<!-- Node11 -->
<g id="Node000011" class="node">
<title>Node11</title>
<g id="a_Node000011"><a xlink:href="classvalidation__api_1_1ErrorBuilder.html#a84327bbfe6c61e7be6966acc41ba6087" target="_top" xlink:title=" ">
<polygon fill="white" stroke="#666666" points="1420.25,-240.12 1271.5,-240.12 1271.5,-206.62 1420.25,-206.62 1420.25,-240.12"/>
<text text-anchor="start" x="1279.5" y="-226.62" font-family="Helvetica,sans-Serif" font-size="10.00">validation_api::ErrorBuilder</text>
<text text-anchor="middle" x="1345.88" y="-213.88" font-family="Helvetica,sans-Serif" font-size="10.00">::build</text>
</a>
</g>
</g>
<!-- Node10&#45;&gt;Node11 -->
<g id="edge12_Node000010_Node000011" class="edge">
<title>Node10&#45;&gt;Node11</title>
<g id="a_edge12_Node000010_Node000011"><a xlink:title=" ">
<path fill="none" stroke="#63b8ff" d="M1206.8,-172.58C1225.97,-180.36 1249.06,-189.55 1270,-197.38 1274.42,-199.03 1279.01,-200.7 1283.63,-202.37"/>
<polygon fill="#63b8ff" stroke="#63b8ff" points="1282.39,-205.65 1292.99,-205.71 1284.74,-199.05 1282.39,-205.65"/>
</a>
</g>
</g>
<!-- Node12 -->
<g id="Node000012" class="node">
<title>Node12</title>
<g id="a_Node000012"><a xlink:href="namespacevalidation__api.html#ac19e25b4d8364b0f52152440dd5ecbda" target="_top" xlink:title=" ">
<polygon fill="white" stroke="#666666" points="1418.75,-188.75 1273,-188.75 1273,-168 1418.75,-168 1418.75,-188.75"/>
<text text-anchor="middle" x="1345.88" y="-175.25" font-family="Helvetica,sans-Serif" font-size="10.00">validation_api::isValidUuid</text>
</a>
</g>
</g>
<!-- Node10&#45;&gt;Node12 -->
<g id="edge14_Node000010_Node000012" class="edge">
<title>Node10&#45;&gt;Node12</title>
<g id="a_edge14_Node000010_Node000012"><a xlink:title=" ">
<path fill="none" stroke="#63b8ff" d="M1234.36,-164.23C1243.2,-165.36 1252.31,-166.53 1261.33,-167.69"/>
<polygon fill="#63b8ff" stroke="#63b8ff" points="1260.83,-171.15 1271.19,-168.95 1261.72,-164.21 1260.83,-171.15"/>
</a>
</g>
</g>
<!-- Node13 -->
<g id="Node000013" class="node">
<title>Node13</title>
<g id="a_Node000013"><a xlink:href="classvalidation__api_1_1ErrorBuilder.html#a014e70c2f2b4a2ee879c363b4a2174f2" target="_top" xlink:title=" ">
<polygon fill="white" stroke="#666666" points="1420.25,-150.12 1271.5,-150.12 1271.5,-116.62 1420.25,-116.62 1420.25,-150.12"/>
<text text-anchor="start" x="1279.5" y="-136.62" font-family="Helvetica,sans-Serif" font-size="10.00">validation_api::ErrorBuilder</text>
<text text-anchor="middle" x="1345.88" y="-123.88" font-family="Helvetica,sans-Serif" font-size="10.00">::setSecondMsg</text>
</a>
</g>
</g>
<!-- Node10&#45;&gt;Node13 -->
<g id="edge15_Node000010_Node000013" class="edge">
<title>Node10&#45;&gt;Node13</title>
<g id="a_edge15_Node000010_Node000013"><a xlink:title=" ">
<path fill="none" stroke="#63b8ff" d="M1234.36,-146.9C1242.75,-145.87 1251.4,-144.82 1259.98,-143.77"/>
<polygon fill="#63b8ff" stroke="#63b8ff" points="1260.2,-147.27 1269.7,-142.58 1259.35,-140.32 1260.2,-147.27"/>
</a>
</g>
</g>
<!-- Node14 -->
<g id="Node000014" class="node">
<title>Node14</title>
<g id="a_Node000014"><a xlink:href="namespacevalidation__api.html#a6dd56dcf7358b332bb906a2d27fddd0b" target="_top" xlink:title="Converts string to all lowercase.">
<polygon fill="white" stroke="#666666" points="1410.88,-98.75 1280.88,-98.75 1280.88,-78 1410.88,-78 1410.88,-98.75"/>
<text text-anchor="middle" x="1345.88" y="-85.25" font-family="Helvetica,sans-Serif" font-size="10.00">validation_api::toLower</text>
</a>
</g>
</g>
<!-- Node10&#45;&gt;Node14 -->
<g id="edge16_Node000010_Node000014" class="edge">
<title>Node10&#45;&gt;Node14</title>
<g id="a_edge16_Node000010_Node000014"><a xlink:title=" ">
<path fill="none" stroke="#63b8ff" d="M1198.49,-138.23C1218.79,-128.27 1245.45,-116.03 1270,-107.38 1275.24,-105.53 1280.75,-103.78 1286.3,-102.15"/>
<polygon fill="#63b8ff" stroke="#63b8ff" points="1286.82,-105.64 1295.5,-99.57 1284.93,-98.9 1286.82,-105.64"/>
</a>
</g>
</g>
<!-- Node15 -->
<g id="Node000015" class="node">
<title>Node15</title>
<g id="a_Node000015"><a xlink:href="namespacevalidation__api.html#aae32fd7a0b5886a49454679d46ed4bd1" target="_top" xlink:title="Validates Ahv string.">
<polygon fill="white" stroke="#666666" points="1420.62,-59.75 1271.12,-59.75 1271.12,-39 1420.62,-39 1420.62,-59.75"/>
<text text-anchor="middle" x="1345.88" y="-46.25" font-family="Helvetica,sans-Serif" font-size="10.00">validation_api::validateAhv</text>
</a>
</g>
</g>
<!-- Node10&#45;&gt;Node15 -->
<g id="edge17_Node000010_Node000015" class="edge">
<title>Node10&#45;&gt;Node15</title>
<g id="a_edge17_Node000010_Node000015"><a xlink:title=" ">
<path fill="none" stroke="#63b8ff" d="M1181.31,-138.27C1200.64,-118.82 1234.8,-87.43 1270,-69.38 1273.86,-67.39 1277.94,-65.59 1282.12,-63.96"/>
<polygon fill="#63b8ff" stroke="#63b8ff" points="1282.96,-67.38 1291.22,-60.75 1280.62,-60.78 1282.96,-67.38"/>
</a>
</g>
</g>
<!-- Node16 -->
<g id="Node000016" class="node">
<title>Node16</title>
<g id="a_Node000016"><a xlink:href="namespacevalidation__api.html#a0a2b975e162ced567ba3a6075684092a" target="_top" xlink:title="Validates Iban string.">
<polygon fill="white" stroke="#666666" points="1421.75,-20.75 1270,-20.75 1270,0 1421.75,0 1421.75,-20.75"/>
<text text-anchor="middle" x="1345.88" y="-7.25" font-family="Helvetica,sans-Serif" font-size="10.00">validation_api::validateIban</text>
</a>
</g>
</g>
<!-- Node10&#45;&gt;Node16 -->
<g id="edge18_Node000010_Node000016" class="edge">
<title>Node10&#45;&gt;Node16</title>
<g id="a_edge18_Node000010_Node000016"><a xlink:title=" ">
<path fill="none" stroke="#63b8ff" d="M1174.65,-138.36C1190.71,-111.26 1225.79,-58.52 1270,-30.38 1272.71,-28.65 1275.57,-27.07 1278.53,-25.63"/>
<polygon fill="#63b8ff" stroke="#63b8ff" points="1279.65,-28.95 1287.47,-21.81 1276.9,-22.51 1279.65,-28.95"/>
</a>
</g>
</g>
</g>
</svg>
