<?xml version="1.0" encoding="UTF-8" standalone="no"?>
<!DOCTYPE svg PUBLIC "-//W3C//DTD SVG 1.1//EN"
 "http://www.w3.org/Graphics/SVG/1.1/DTD/svg11.dtd">
<!-- Generated by graphviz version 10.0.1 (0)
 -->
<!-- Title: validation_api::ConfigService::createConfig Pages: 1 -->
<svg width="780pt" height="80pt"
 viewBox="0.00 0.00 780.00 80.12" xmlns="http://www.w3.org/2000/svg" xmlns:xlink="http://www.w3.org/1999/xlink">
<g id="graph0" class="graph" transform="scale(1 1) rotate(0) translate(4 76.12)">
<title>validation_api::ConfigService::createConfig</title>
<!-- Node1 -->
<g id="Node000001" class="node">
<title>Node1</title>
<g id="a_Node000001"><a xlink:title="getConfigs method">
<polygon fill="#999999" stroke="#666666" points="772,-55.5 614.25,-55.5 614.25,-22 772,-22 772,-55.5"/>
<text text-anchor="start" x="622.25" y="-42" font-family="Helvetica,sans-Serif" font-size="10.00">validation_api::ConfigService</text>
<text text-anchor="middle" x="693.12" y="-29.25" font-family="Helvetica,sans-Serif" font-size="10.00">::createConfig</text>
</a>
</g>
</g>
<!-- Node2 -->
<g id="Node000002" class="node">
<title>Node2</title>
<g id="a_Node000002"><a xlink:href="classvalidation__api_1_1ConfigWatcher.html#a78820bcf2ebf9135785e207aae042e72" target="_top" xlink:title="Reads a file.">
<polygon fill="white" stroke="#666666" points="578.25,-55.5 416.75,-55.5 416.75,-22 578.25,-22 578.25,-55.5"/>
<text text-anchor="start" x="424.75" y="-42" font-family="Helvetica,sans-Serif" font-size="10.00">validation_api::ConfigWatcher</text>
<text text-anchor="middle" x="497.5" y="-29.25" font-family="Helvetica,sans-Serif" font-size="10.00">::read_file</text>
</a>
</g>
</g>
<!-- Node1&#45;&gt;Node2 -->
<g id="edge1_Node000001_Node000002" class="edge">
<title>Node1&#45;&gt;Node2</title>
<g id="a_edge1_Node000001_Node000002"><a xlink:title=" ">
<path fill="none" stroke="#63b8ff" d="M602.64,-38.75C594.61,-38.75 586.51,-38.75 578.57,-38.75"/>
<polygon fill="#63b8ff" stroke="#63b8ff" points="602.41,-42.25 612.41,-38.75 602.41,-35.25 602.41,-42.25"/>
</a>
</g>
</g>
<!-- Node3 -->
<g id="Node000003" class="node">
<title>Node3</title>
<g id="a_Node000003"><a xlink:href="classvalidation__api_1_1ConfigWatcher.html#a13e118f62a6b13b780f44e12d5afed78" target="_top" xlink:title="Start ConfigWatcher.">
<polygon fill="white" stroke="#666666" points="380.75,-72.12 197.5,-72.12 197.5,-51.38 380.75,-51.38 380.75,-72.12"/>
<text text-anchor="middle" x="289.12" y="-58.62" font-family="Helvetica,sans-Serif" font-size="10.00">validation_api::ConfigWatcher::run</text>
</a>
</g>
</g>
<!-- Node2&#45;&gt;Node3 -->
<g id="edge2_Node000002_Node000003" class="edge">
<title>Node2&#45;&gt;Node3</title>
<g id="a_edge2_Node000002_Node000003"><a xlink:title=" ">
<path fill="none" stroke="#63b8ff" d="M405.2,-48.92C397.22,-49.82 389.13,-50.72 381.14,-51.61"/>
<polygon fill="#63b8ff" stroke="#63b8ff" points="405.36,-52.43 414.91,-47.84 404.58,-45.47 405.36,-52.43"/>
</a>
</g>
</g>
<!-- Node5 -->
<g id="Node000005" class="node">
<title>Node5</title>
<g id="a_Node000005"><a xlink:href="classvalidation__api_1_1ConfigWatcher.html#a6f8a66478001a8a0515344aac1fd0395" target="_top" xlink:title="Setup the ConfigWatcher.">
<polygon fill="white" stroke="#666666" points="369.88,-33.5 208.38,-33.5 208.38,0 369.88,0 369.88,-33.5"/>
<text text-anchor="start" x="216.38" y="-20" font-family="Helvetica,sans-Serif" font-size="10.00">validation_api::ConfigWatcher</text>
<text text-anchor="middle" x="289.12" y="-7.25" font-family="Helvetica,sans-Serif" font-size="10.00">::setup</text>
</a>
</g>
</g>
<!-- Node2&#45;&gt;Node5 -->
<g id="edge4_Node000002_Node000005" class="edge">
<title>Node2&#45;&gt;Node5</title>
<g id="a_edge4_Node000002_Node000005"><a xlink:title=" ">
<path fill="none" stroke="#63b8ff" d="M405.28,-29.03C393.58,-27.78 381.67,-26.51 370.17,-25.28"/>
<polygon fill="#63b8ff" stroke="#63b8ff" points="404.59,-32.47 414.91,-30.05 405.34,-25.51 404.59,-32.47"/>
</a>
</g>
</g>
<!-- Node4 -->
<g id="Node000004" class="node">
<title>Node4</title>
<g id="a_Node000004"><a xlink:href="classvalidation__api_1_1ConfigWatcher.html#ae52bfdab8da3ff71ba788f1929a9a053" target="_top" xlink:title="Construct a new validation api::ConfigWatcher::ConfigWatcher object.">
<polygon fill="white" stroke="#666666" points="161.5,-55.5 0,-55.5 0,-22 161.5,-22 161.5,-55.5"/>
<text text-anchor="start" x="8" y="-42" font-family="Helvetica,sans-Serif" font-size="10.00">validation_api::ConfigWatcher</text>
<text text-anchor="middle" x="80.75" y="-29.25" font-family="Helvetica,sans-Serif" font-size="10.00">::ConfigWatcher</text>
</a>
</g>
</g>
<!-- Node3&#45;&gt;Node4 -->
<g id="edge3_Node000003_Node000004" class="edge">
<title>Node3&#45;&gt;Node4</title>
<g id="a_edge3_Node000003_Node000004"><a xlink:title=" ">
<path fill="none" stroke="#63b8ff" d="M185.65,-50.33C177.6,-49.43 169.55,-48.53 161.68,-47.66"/>
<polygon fill="#63b8ff" stroke="#63b8ff" points="185.17,-53.8 195.5,-51.43 185.95,-46.84 185.17,-53.8"/>
</a>
</g>
</g>
<!-- Node5&#45;&gt;Node4 -->
<g id="edge5_Node000005_Node000004" class="edge">
<title>Node5&#45;&gt;Node4</title>
<g id="a_edge5_Node000005_Node000004"><a xlink:title=" ">
<path fill="none" stroke="#63b8ff" d="M196.9,-26.47C185.2,-27.72 173.29,-28.99 161.79,-30.22"/>
<polygon fill="#63b8ff" stroke="#63b8ff" points="196.96,-29.99 206.53,-25.45 196.22,-23.03 196.96,-29.99"/>
</a>
</g>
</g>
</g>
</svg>
