<?xml version="1.0" encoding="UTF-8" standalone="no"?>
<!DOCTYPE svg PUBLIC "-//W3C//DTD SVG 1.1//EN"
 "http://www.w3.org/Graphics/SVG/1.1/DTD/svg11.dtd">
<!-- Generated by graphviz version 10.0.1 (0)
 -->
<!-- Title: validation_api::ConfigService::validateConfig Pages: 1 -->
<svg width="1078pt" height="323pt"
 viewBox="0.00 0.00 1078.25 322.86" xmlns="http://www.w3.org/2000/svg" xmlns:xlink="http://www.w3.org/1999/xlink">
<g id="graph0" class="graph" transform="scale(1 1) rotate(0) translate(4 318.86)">
<title>validation_api::ConfigService::validateConfig</title>
<!-- Node1 -->
<g id="Node000001" class="node">
<title>Node1</title>
<g id="a_Node000001"><a xlink:title="getConfigs method">
<polygon fill="#999999" stroke="#666666" points="157.75,-250.86 0,-250.86 0,-217.36 157.75,-217.36 157.75,-250.86"/>
<text text-anchor="start" x="8" y="-237.36" font-family="Helvetica,sans-Serif" font-size="10.00">validation_api::ConfigService</text>
<text text-anchor="middle" x="78.88" y="-224.61" font-family="Helvetica,sans-Serif" font-size="10.00">::validateConfig</text>
</a>
</g>
</g>
<!-- Node2 -->
<g id="Node000002" class="node">
<title>Node2</title>
<g id="a_Node000002"><a xlink:href="classvalidation__api_1_1Validation.html#ac6c337d3af39943a8e603a5f21f5922a" target="_top" xlink:title=" ">
<polygon fill="white" stroke="#666666" points="355.25,-244.48 193.75,-244.48 193.75,-223.73 355.25,-223.73 355.25,-244.48"/>
<text text-anchor="middle" x="274.5" y="-230.98" font-family="Helvetica,sans-Serif" font-size="10.00">validation_api::Validation::run</text>
</a>
</g>
</g>
<!-- Node1&#45;&gt;Node2 -->
<g id="edge1_Node000001_Node000002" class="edge">
<title>Node1&#45;&gt;Node2</title>
<g id="a_edge1_Node000001_Node000002"><a xlink:title=" ">
<path fill="none" stroke="#63b8ff" d="M158.07,-234.11C165.99,-234.11 174.08,-234.11 182.12,-234.11"/>
<polygon fill="#63b8ff" stroke="#63b8ff" points="181.92,-237.61 191.92,-234.11 181.92,-230.61 181.92,-237.61"/>
</a>
</g>
</g>
<!-- Node3 -->
<g id="Node000003" class="node">
<title>Node3</title>
<g id="a_Node000003"><a xlink:href="classvalidation__api_1_1ErrorBuilder.html#a84327bbfe6c61e7be6966acc41ba6087" target="_top" xlink:title=" ">
<polygon fill="white" stroke="#666666" points="893,-314.86 744.25,-314.86 744.25,-281.36 893,-281.36 893,-314.86"/>
<text text-anchor="start" x="752.25" y="-301.36" font-family="Helvetica,sans-Serif" font-size="10.00">validation_api::ErrorBuilder</text>
<text text-anchor="middle" x="818.62" y="-288.61" font-family="Helvetica,sans-Serif" font-size="10.00">::build</text>
</a>
</g>
</g>
<!-- Node2&#45;&gt;Node3 -->
<g id="edge2_Node000002_Node000003" class="edge">
<title>Node2&#45;&gt;Node3</title>
<g id="a_edge2_Node000002_Node000003"><a xlink:title=" ">
<path fill="none" stroke="#63b8ff" d="M297.49,-244.88C320.32,-255.47 357.36,-271.06 391.25,-278.11 507.73,-302.33 645.8,-304.04 732.57,-301.94"/>
<polygon fill="#63b8ff" stroke="#63b8ff" points="732.53,-305.45 742.43,-301.68 732.34,-298.45 732.53,-305.45"/>
</a>
</g>
</g>
<!-- Node4 -->
<g id="Node000004" class="node">
<title>Node4</title>
<g id="a_Node000004"><a xlink:href="classvalidation__api_1_1Validation.html#a21b9aefd80be5a639d2aa5e4c8ebe945" target="_top" xlink:title=" ">
<polygon fill="white" stroke="#666666" points="531,-250.86 391.25,-250.86 391.25,-217.36 531,-217.36 531,-250.86"/>
<text text-anchor="start" x="399.25" y="-237.36" font-family="Helvetica,sans-Serif" font-size="10.00">validation_api::Validation</text>
<text text-anchor="middle" x="461.12" y="-224.61" font-family="Helvetica,sans-Serif" font-size="10.00">::fillRequestList</text>
</a>
</g>
</g>
<!-- Node2&#45;&gt;Node4 -->
<g id="edge3_Node000002_Node000004" class="edge">
<title>Node2&#45;&gt;Node4</title>
<g id="a_edge3_Node000002_Node000004"><a xlink:title=" ">
<path fill="none" stroke="#63b8ff" d="M355.67,-234.11C363.59,-234.11 371.62,-234.11 379.53,-234.11"/>
<polygon fill="#63b8ff" stroke="#63b8ff" points="379.51,-237.61 389.51,-234.11 379.51,-230.61 379.51,-237.61"/>
</a>
</g>
</g>
<!-- Node5 -->
<g id="Node000005" class="node">
<title>Node5</title>
<g id="a_Node000005"><a xlink:href="classvalidation__api_1_1Validation.html#a3c8146fc89af5b8cef0c1bb6c9d473f2" target="_top" xlink:title="Traverse through the json object and validate the fields.">
<polygon fill="white" stroke="#666666" points="531,-180.86 391.25,-180.86 391.25,-147.36 531,-147.36 531,-180.86"/>
<text text-anchor="start" x="399.25" y="-167.36" font-family="Helvetica,sans-Serif" font-size="10.00">validation_api::Validation</text>
<text text-anchor="middle" x="461.12" y="-154.61" font-family="Helvetica,sans-Serif" font-size="10.00">::traverseAndValidate</text>
</a>
</g>
</g>
<!-- Node2&#45;&gt;Node5 -->
<g id="edge5_Node000002_Node000005" class="edge">
<title>Node2&#45;&gt;Node5</title>
<g id="a_edge5_Node000002_Node000005"><a xlink:title=" ">
<path fill="none" stroke="#63b8ff" d="M303.94,-223.32C330.59,-213.22 371.18,-197.83 404.29,-185.27"/>
<polygon fill="#63b8ff" stroke="#63b8ff" points="405.23,-188.66 413.34,-181.84 402.75,-182.12 405.23,-188.66"/>
</a>
</g>
</g>
<!-- Node4&#45;&gt;Node4 -->
<g id="edge4_Node000004_Node000004" class="edge">
<title>Node4&#45;&gt;Node4</title>
<g id="a_edge4_Node000004_Node000004"><a xlink:title=" ">
<path fill="none" stroke="#63b8ff" d="M429.53,-251.27C424.16,-260.47 434.69,-268.86 461.12,-268.86 475.99,-268.86 485.83,-266.2 490.64,-262.25"/>
<polygon fill="#63b8ff" stroke="#63b8ff" points="494.01,-263.24 492.44,-252.76 487.13,-261.93 494.01,-263.24"/>
</a>
</g>
</g>
<!-- Node5&#45;&gt;Node3 -->
<g id="edge6_Node000005_Node000003" class="edge">
<title>Node5&#45;&gt;Node3</title>
<g id="a_edge6_Node000005_Node000003"><a xlink:title=" ">
<path fill="none" stroke="#63b8ff" d="M505.22,-181.2C560.17,-202.88 658.18,-241.16 742.75,-272.11 747.38,-273.8 752.18,-275.53 757.02,-277.25"/>
<polygon fill="#63b8ff" stroke="#63b8ff" points="755.58,-280.46 766.17,-280.49 757.91,-273.86 755.58,-280.46"/>
</a>
</g>
</g>
<!-- Node5&#45;&gt;Node5 -->
<g id="edge9_Node000005_Node000005" class="edge">
<title>Node5&#45;&gt;Node5</title>
<g id="a_edge9_Node000005_Node000005"><a xlink:title=" ">
<path fill="none" stroke="#63b8ff" d="M429.53,-181.27C424.16,-190.47 434.69,-198.86 461.12,-198.86 475.99,-198.86 485.83,-196.2 490.64,-192.25"/>
<polygon fill="#63b8ff" stroke="#63b8ff" points="494.01,-193.24 492.44,-182.76 487.13,-191.93 494.01,-193.24"/>
</a>
</g>
</g>
<!-- Node6 -->
<g id="Node000006" class="node">
<title>Node6</title>
<g id="a_Node000006"><a xlink:href="classvalidation__api_1_1Validation.html#a1931562aaf3ed21afc7d5f0fade04aa0" target="_top" xlink:title=" ">
<polygon fill="white" stroke="#666666" points="1070.25,-118.86 930.5,-118.86 930.5,-85.36 1070.25,-85.36 1070.25,-118.86"/>
<text text-anchor="start" x="938.5" y="-105.36" font-family="Helvetica,sans-Serif" font-size="10.00">validation_api::Validation</text>
<text text-anchor="middle" x="1000.38" y="-92.61" font-family="Helvetica,sans-Serif" font-size="10.00">::findJsonField</text>
</a>
</g>
</g>
<!-- Node5&#45;&gt;Node6 -->
<g id="edge7_Node000005_Node000006" class="edge">
<title>Node5&#45;&gt;Node6</title>
<g id="a_edge7_Node000005_Node000006"><a xlink:title=" ">
<path fill="none" stroke="#63b8ff" d="M484.91,-146.93C530.74,-113.57 638.64,-41.03 742.75,-15.11 808.2,1.19 831.06,7.78 894.5,-15.11 928.19,-27.26 958.7,-55.46 978.02,-76.48"/>
<polygon fill="#63b8ff" stroke="#63b8ff" points="975.32,-78.71 984.58,-83.85 980.55,-74.06 975.32,-78.71"/>
</a>
</g>
</g>
<!-- Node7 -->
<g id="Node000007" class="node">
<title>Node7</title>
<g id="a_Node000007"><a xlink:href="classvalidation__api_1_1Validation.html#a1cc0802269d88c233ad3c3d1d6c3dd12" target="_top" xlink:title=" ">
<polygon fill="white" stroke="#666666" points="706.75,-179.86 567,-179.86 567,-146.36 706.75,-146.36 706.75,-179.86"/>
<text text-anchor="start" x="575" y="-166.36" font-family="Helvetica,sans-Serif" font-size="10.00">validation_api::Validation</text>
<text text-anchor="middle" x="636.88" y="-153.61" font-family="Helvetica,sans-Serif" font-size="10.00">::validate</text>
</a>
</g>
</g>
<!-- Node5&#45;&gt;Node7 -->
<g id="edge10_Node000005_Node000007" class="edge">
<title>Node5&#45;&gt;Node7</title>
<g id="a_edge10_Node000005_Node000007"><a xlink:title=" ">
<path fill="none" stroke="#63b8ff" d="M531.29,-163.71C539.21,-163.66 547.32,-163.62 555.37,-163.57"/>
<polygon fill="#63b8ff" stroke="#63b8ff" points="555.17,-167.07 565.15,-163.51 555.13,-160.07 555.17,-167.07"/>
</a>
</g>
</g>
<!-- Node6&#45;&gt;Node6 -->
<g id="edge8_Node000006_Node000006" class="edge">
<title>Node6&#45;&gt;Node6</title>
<g id="a_edge8_Node000006_Node000006"><a xlink:title=" ">
<path fill="none" stroke="#63b8ff" d="M967.7,-119.27C962.15,-128.47 973.04,-136.86 1000.38,-136.86 1015.75,-136.86 1025.92,-134.2 1030.89,-130.25"/>
<polygon fill="#63b8ff" stroke="#63b8ff" points="1034.26,-131.24 1032.76,-120.76 1027.39,-129.89 1034.26,-131.24"/>
</a>
</g>
</g>
<!-- Node7&#45;&gt;Node3 -->
<g id="edge11_Node000007_Node000003" class="edge">
<title>Node7&#45;&gt;Node3</title>
<g id="a_edge11_Node000007_Node000003"><a xlink:title=" ">
<path fill="none" stroke="#63b8ff" d="M661.59,-180.13C675.56,-190.77 693.11,-205.24 706.75,-220.11 725.76,-240.82 720.37,-255.1 742.75,-272.11 744.26,-273.25 745.82,-274.35 747.42,-275.4"/>
<polygon fill="#63b8ff" stroke="#63b8ff" points="745.3,-278.21 755.71,-280.17 748.79,-272.15 745.3,-278.21"/>
</a>
</g>
</g>
<!-- Node8 -->
<g id="Node000008" class="node">
<title>Node8</title>
<g id="a_Node000008"><a xlink:href="classvalidation__api_1_1Validation.html#a7b6995b4592eb861af42e45b095382b7" target="_top" xlink:title="Checking Uuid values.">
<polygon fill="white" stroke="#666666" points="888.5,-224.86 748.75,-224.86 748.75,-191.36 888.5,-191.36 888.5,-224.86"/>
<text text-anchor="start" x="756.75" y="-211.36" font-family="Helvetica,sans-Serif" font-size="10.00">validation_api::Validation</text>
<text text-anchor="middle" x="818.62" y="-198.61" font-family="Helvetica,sans-Serif" font-size="10.00">::checkNullOptionsVec</text>
</a>
</g>
</g>
<!-- Node7&#45;&gt;Node8 -->
<g id="edge12_Node000007_Node000008" class="edge">
<title>Node7&#45;&gt;Node8</title>
<g id="a_edge12_Node000007_Node000008"><a xlink:title=" ">
<path fill="none" stroke="#63b8ff" d="M706.6,-180.31C716.9,-182.89 727.59,-185.57 738.09,-188.2"/>
<polygon fill="#63b8ff" stroke="#63b8ff" points="736.92,-191.51 747.47,-190.54 738.62,-184.72 736.92,-191.51"/>
</a>
</g>
</g>
<!-- Node9 -->
<g id="Node000009" class="node">
<title>Node9</title>
<g id="a_Node000009"><a xlink:href="namespacevalidation__api.html#ac19e25b4d8364b0f52152440dd5ecbda" target="_top" xlink:title=" ">
<polygon fill="white" stroke="#666666" points="891.5,-173.48 745.75,-173.48 745.75,-152.73 891.5,-152.73 891.5,-173.48"/>
<text text-anchor="middle" x="818.62" y="-159.98" font-family="Helvetica,sans-Serif" font-size="10.00">validation_api::isValidUuid</text>
</a>
</g>
</g>
<!-- Node7&#45;&gt;Node9 -->
<g id="edge14_Node000007_Node000009" class="edge">
<title>Node7&#45;&gt;Node9</title>
<g id="a_edge14_Node000007_Node000009"><a xlink:title=" ">
<path fill="none" stroke="#63b8ff" d="M707.11,-163.11C715.95,-163.11 725.06,-163.11 734.08,-163.11"/>
<polygon fill="#63b8ff" stroke="#63b8ff" points="733.93,-166.61 743.93,-163.11 733.93,-159.61 733.93,-166.61"/>
</a>
</g>
</g>
<!-- Node10 -->
<g id="Node000010" class="node">
<title>Node10</title>
<g id="a_Node000010"><a xlink:href="classvalidation__api_1_1ErrorBuilder.html#a014e70c2f2b4a2ee879c363b4a2174f2" target="_top" xlink:title="Set the First Msg object.">
<polygon fill="white" stroke="#666666" points="893,-134.86 744.25,-134.86 744.25,-101.36 893,-101.36 893,-134.86"/>
<text text-anchor="start" x="752.25" y="-121.36" font-family="Helvetica,sans-Serif" font-size="10.00">validation_api::ErrorBuilder</text>
<text text-anchor="middle" x="818.62" y="-108.61" font-family="Helvetica,sans-Serif" font-size="10.00">::setSecondMsg</text>
</a>
</g>
</g>
<!-- Node7&#45;&gt;Node10 -->
<g id="edge15_Node000007_Node000010" class="edge">
<title>Node7&#45;&gt;Node10</title>
<g id="a_edge15_Node000007_Node000010"><a xlink:title=" ">
<path fill="none" stroke="#63b8ff" d="M706.6,-145.9C716.9,-143.32 727.59,-140.65 738.09,-138.02"/>
<polygon fill="#63b8ff" stroke="#63b8ff" points="738.62,-141.49 747.47,-135.67 736.92,-134.7 738.62,-141.49"/>
</a>
</g>
</g>
<!-- Node11 -->
<g id="Node000011" class="node">
<title>Node11</title>
<g id="a_Node000011"><a xlink:href="namespacevalidation__api.html#a6dd56dcf7358b332bb906a2d27fddd0b" target="_top" xlink:title="Converts string to all lowercase.">
<polygon fill="white" stroke="#666666" points="883.62,-83.48 753.62,-83.48 753.62,-62.73 883.62,-62.73 883.62,-83.48"/>
<text text-anchor="middle" x="818.62" y="-69.98" font-family="Helvetica,sans-Serif" font-size="10.00">validation_api::toLower</text>
</a>
</g>
</g>
<!-- Node7&#45;&gt;Node11 -->
<g id="edge16_Node000007_Node000011" class="edge">
<title>Node7&#45;&gt;Node11</title>
<g id="a_edge16_Node000007_Node000011"><a xlink:title=" ">
<path fill="none" stroke="#63b8ff" d="M658.28,-146.11C678.53,-130.04 711.05,-106.33 742.75,-92.11 746.52,-90.41 750.47,-88.86 754.49,-87.42"/>
<polygon fill="#63b8ff" stroke="#63b8ff" points="755.41,-90.8 763.84,-84.38 753.24,-84.15 755.41,-90.8"/>
</a>
</g>
</g>
<!-- Node12 -->
<g id="Node000012" class="node">
<title>Node12</title>
<g id="a_Node000012"><a xlink:href="namespacevalidation__api.html#aae32fd7a0b5886a49454679d46ed4bd1" target="_top" xlink:title="Validates Ahv string.">
<polygon fill="white" stroke="#666666" points="893.38,-44.48 743.88,-44.48 743.88,-23.73 893.38,-23.73 893.38,-44.48"/>
<text text-anchor="middle" x="818.62" y="-30.98" font-family="Helvetica,sans-Serif" font-size="10.00">validation_api::validateAhv</text>
</a>
</g>
</g>
<!-- Node7&#45;&gt;Node12 -->
<g id="edge17_Node000007_Node000012" class="edge">
<title>Node7&#45;&gt;Node12</title>
<g id="a_edge17_Node000007_Node000012"><a xlink:title=" ">
<path fill="none" stroke="#63b8ff" d="M649.64,-145.94C667.12,-121.76 702.26,-77.99 742.75,-54.11 745.88,-52.26 749.18,-50.58 752.58,-49.06"/>
<polygon fill="#63b8ff" stroke="#63b8ff" points="753.61,-52.41 761.62,-45.48 751.04,-45.91 753.61,-52.41"/>
</a>
</g>
</g>
<!-- Node13 -->
<g id="Node000013" class="node">
<title>Node13</title>
<g id="a_Node000013"><a xlink:href="namespacevalidation__api.html#a0a2b975e162ced567ba3a6075684092a" target="_top" xlink:title="Validates Iban string.">
<polygon fill="white" stroke="#666666" points="894.5,-263.48 742.75,-263.48 742.75,-242.73 894.5,-242.73 894.5,-263.48"/>
<text text-anchor="middle" x="818.62" y="-249.98" font-family="Helvetica,sans-Serif" font-size="10.00">validation_api::validateIban</text>
</a>
</g>
</g>
<!-- Node7&#45;&gt;Node13 -->
<g id="edge18_Node000007_Node000013" class="edge">
<title>Node7&#45;&gt;Node13</title>
<g id="a_edge18_Node000007_Node000013"><a xlink:title=" ">
<path fill="none" stroke="#63b8ff" d="M658.28,-180.1C678.53,-196.17 711.05,-219.88 742.75,-234.11 746.52,-235.8 750.47,-237.36 754.49,-238.79"/>
<polygon fill="#63b8ff" stroke="#63b8ff" points="753.24,-242.07 763.84,-241.84 755.41,-235.41 753.24,-242.07"/>
</a>
</g>
</g>
<!-- Node8&#45;&gt;Node6 -->
<g id="edge13_Node000008_Node000006" class="edge">
<title>Node8&#45;&gt;Node6</title>
<g id="a_edge13_Node000008_Node000006"><a xlink:title=" ">
<path fill="none" stroke="#63b8ff" d="M875.67,-190.86C882.15,-188.22 888.56,-185.3 894.5,-182.11 923.02,-166.79 952.02,-144 972.27,-126.65"/>
<polygon fill="#63b8ff" stroke="#63b8ff" points="974.54,-129.32 979.79,-120.11 969.95,-124.04 974.54,-129.32"/>
</a>
</g>
</g>
</g>
</svg>
