<?xml version="1.0" encoding="UTF-8" standalone="no"?>
<!DOCTYPE svg PUBLIC "-//W3C//DTD SVG 1.1//EN"
 "http://www.w3.org/Graphics/SVG/1.1/DTD/svg11.dtd">
<!-- Generated by graphviz version 12.2.1 (0)
 -->
<!-- Title: validation_api::ConfigWatcher::setup Pages: 1 -->
<svg width="659pt" height="142pt"
 viewBox="0.00 0.00 659.25 142.00" xmlns="http://www.w3.org/2000/svg" xmlns:xlink="http://www.w3.org/1999/xlink">
<g id="graph0" class="graph" transform="scale(1 1) rotate(0) translate(4 138)">
<title>validation_api::ConfigWatcher::setup</title>
<!-- Node1 -->
<g id="Node000001" class="node">
<title>Node1</title>
<g id="a_Node000001"><a xlink:title="Setup the ConfigWatcher.">
<polygon fill="#999999" stroke="#666666" points="145.75,-83 0,-83 0,-51 145.75,-51 145.75,-83"/>
<text text-anchor="start" x="8" y="-69.5" font-family="Helvetica,sans-Serif" font-size="10.00">validation_api::ConfigWatcher</text>
<text text-anchor="middle" x="72.88" y="-57.5" font-family="Helvetica,sans-Serif" font-size="10.00">::setup</text>
</a>
</g>
</g>
<!-- Node2 -->
<g id="Node000002" class="node">
<title>Node2</title>
<g id="a_Node000002"><a xlink:href="classvalidation__api_1_1ConfigWatcher.html#a78820bcf2ebf9135785e207aae042e72" target="_top" xlink:title=" ">
<polygon fill="white" stroke="#666666" points="327.5,-83 181.75,-83 181.75,-51 327.5,-51 327.5,-83"/>
<text text-anchor="start" x="189.75" y="-69.5" font-family="Helvetica,sans-Serif" font-size="10.00">validation_api::ConfigWatcher</text>
<text text-anchor="middle" x="254.62" y="-57.5" font-family="Helvetica,sans-Serif" font-size="10.00">::read_file</text>
</a>
</g>
</g>
<!-- Node1&#45;&gt;Node2 -->
<g id="edge1_Node000001_Node000002" class="edge">
<title>Node1&#45;&gt;Node2</title>
<g id="a_edge1_Node000001_Node000002"><a xlink:title=" ">
<path fill="none" stroke="#63b8ff" d="M146.21,-67C154.1,-67 162.18,-67 170.19,-67"/>
<polygon fill="#63b8ff" stroke="#63b8ff" points="169.93,-70.5 179.93,-67 169.93,-63.5 169.93,-70.5"/>
</a>
</g>
</g>
<!-- Node3 -->
<g id="Node000003" class="node">
<title>Node3</title>
<g id="a_Node000003"><a xlink:href="namespacevalidation__api.html#aa82c6b3a43b6e6b59b529c22944cadca" target="_top" xlink:title="Ensures valid Xml configuration.">
<polygon fill="white" stroke="#666666" points="478.5,-83 363.5,-83 363.5,-51 478.5,-51 478.5,-83"/>
<text text-anchor="start" x="371.5" y="-69.5" font-family="Helvetica,sans-Serif" font-size="10.00">validation_api::validate</text>
<text text-anchor="middle" x="421" y="-57.5" font-family="Helvetica,sans-Serif" font-size="10.00">XmlConfig</text>
</a>
</g>
</g>
<!-- Node2&#45;&gt;Node3 -->
<g id="edge2_Node000002_Node000003" class="edge">
<title>Node2&#45;&gt;Node3</title>
<g id="a_edge2_Node000002_Node000003"><a xlink:title=" ">
<path fill="none" stroke="#63b8ff" d="M327.72,-67C335.72,-67 343.85,-67 351.8,-67"/>
<polygon fill="#63b8ff" stroke="#63b8ff" points="351.76,-70.5 361.76,-67 351.76,-63.5 351.76,-70.5"/>
</a>
</g>
</g>
<!-- Node3&#45;&gt;Node3 -->
<g id="edge7_Node000003_Node000003" class="edge">
<title>Node3&#45;&gt;Node3</title>
<g id="a_edge7_Node000003_Node000003"><a xlink:title=" ">
<path fill="none" stroke="#63b8ff" d="M392.1,-83.44C386.71,-92.58 396.34,-101 421,-101 434.49,-101 443.48,-98.48 447.98,-94.71"/>
<polygon fill="#63b8ff" stroke="#63b8ff" points="451.41,-95.38 449.64,-84.93 444.51,-94.2 451.41,-95.38"/>
</a>
</g>
</g>
<!-- Node4 -->
<g id="Node000004" class="node">
<title>Node4</title>
<g id="a_Node000004"><a xlink:href="namespacevalidation__api.html#a0c0f34d744f57bb06458867fbee4b7a9" target="_top" xlink:title="Insert an error into a json object.">
<polygon fill="white" stroke="#666666" points="651.25,-134 514.5,-134 514.5,-114 651.25,-114 651.25,-134"/>
<text text-anchor="middle" x="582.88" y="-120.5" font-family="Helvetica,sans-Serif" font-size="10.00">validation_api::insertToJson</text>
</a>
</g>
</g>
<!-- Node3&#45;&gt;Node4 -->
<g id="edge3_Node000003_Node000004" class="edge">
<title>Node3&#45;&gt;Node4</title>
<g id="a_edge3_Node000003_Node000004"><a xlink:title=" ">
<path fill="none" stroke="#63b8ff" d="M458.98,-83.33C475.76,-90.45 495.96,-98.6 514.5,-105 519.89,-106.86 525.57,-108.68 531.25,-110.4"/>
<polygon fill="#63b8ff" stroke="#63b8ff" points="530.06,-113.7 540.64,-113.17 532.04,-106.99 530.06,-113.7"/>
</a>
</g>
</g>
<!-- Node5 -->
<g id="Node000005" class="node">
<title>Node5</title>
<g id="a_Node000005"><a xlink:href="namespacevalidation__api.html#ac497c1198e4e7f0fe71ffbdb3e6beeaa" target="_top" xlink:title="Convert string to float.">
<polygon fill="white" stroke="#666666" points="638.12,-96 527.62,-96 527.62,-76 638.12,-76 638.12,-96"/>
<text text-anchor="middle" x="582.88" y="-82.5" font-family="Helvetica,sans-Serif" font-size="10.00">validation_api::isFloat</text>
</a>
</g>
</g>
<!-- Node3&#45;&gt;Node5 -->
<g id="edge4_Node000003_Node000005" class="edge">
<title>Node3&#45;&gt;Node5</title>
<g id="a_edge4_Node000003_Node000005"><a xlink:title=" ">
<path fill="none" stroke="#63b8ff" d="M478.82,-73.75C490.91,-75.19 503.78,-76.72 516.17,-78.19"/>
<polygon fill="#63b8ff" stroke="#63b8ff" points="515.54,-81.64 525.88,-79.35 516.37,-74.69 515.54,-81.64"/>
</a>
</g>
</g>
<!-- Node6 -->
<g id="Node000006" class="node">
<title>Node6</title>
<g id="a_Node000006"><a xlink:href="namespacevalidation__api.html#ac19e25b4d8364b0f52152440dd5ecbda" target="_top" xlink:title=" ">
<polygon fill="white" stroke="#666666" points="647.88,-58 517.88,-58 517.88,-38 647.88,-38 647.88,-58"/>
<text text-anchor="middle" x="582.88" y="-44.5" font-family="Helvetica,sans-Serif" font-size="10.00">validation_api::isValidUuid</text>
</a>
</g>
</g>
<!-- Node3&#45;&gt;Node6 -->
<g id="edge5_Node000003_Node000006" class="edge">
<title>Node3&#45;&gt;Node6</title>
<g id="a_edge5_Node000003_Node000006"><a xlink:title=" ">
<path fill="none" stroke="#63b8ff" d="M478.82,-60.25C487.75,-59.19 497.1,-58.07 506.38,-56.97"/>
<polygon fill="#63b8ff" stroke="#63b8ff" points="506.6,-60.47 516.11,-55.82 505.77,-53.52 506.6,-60.47"/>
</a>
</g>
</g>
<!-- Node7 -->
<g id="Node000007" class="node">
<title>Node7</title>
<g id="a_Node000007"><a xlink:href="namespacevalidation__api.html#a6dd56dcf7358b332bb906a2d27fddd0b" target="_top" xlink:title="Converts string to all lowercase.">
<polygon fill="white" stroke="#666666" points="640.75,-20 525,-20 525,0 640.75,0 640.75,-20"/>
<text text-anchor="middle" x="582.88" y="-6.5" font-family="Helvetica,sans-Serif" font-size="10.00">validation_api::toLower</text>
</a>
</g>
</g>
<!-- Node3&#45;&gt;Node7 -->
<g id="edge6_Node000003_Node000007" class="edge">
<title>Node3&#45;&gt;Node7</title>
<g id="a_edge6_Node000003_Node000007"><a xlink:title=" ">
<path fill="none" stroke="#63b8ff" d="M458.98,-50.67C475.76,-43.55 495.96,-35.4 514.5,-29 519.89,-27.14 525.57,-25.32 531.25,-23.6"/>
<polygon fill="#63b8ff" stroke="#63b8ff" points="532.04,-27.01 540.64,-20.83 530.06,-20.3 532.04,-27.01"/>
</a>
</g>
</g>
</g>
</svg>
