<?xml version="1.0" encoding="UTF-8" standalone="no"?>
<!DOCTYPE svg PUBLIC "-//W3C//DTD SVG 1.1//EN"
 "http://www.w3.org/Graphics/SVG/1.1/DTD/svg11.dtd">
<!-- Generated by graphviz version 12.2.1 (0)
 -->
<!-- Title: validation_api::ConfigService::validateConfig Pages: 1 -->
<svg width="985pt" height="525pt"
 viewBox="0.00 0.00 984.50 524.52" xmlns="http://www.w3.org/2000/svg" xmlns:xlink="http://www.w3.org/1999/xlink">
<g id="graph0" class="graph" transform="scale(1 1) rotate(0) translate(4 520.52)">
<title>validation_api::ConfigService::validateConfig</title>
<!-- Node1 -->
<g id="Node000001" class="node">
<title>Node1</title>
<g id="a_Node000001"><a xlink:title="getConfigs method">
<polygon fill="#999999" stroke="#666666" points="142.75,-479.52 0,-479.52 0,-447.52 142.75,-447.52 142.75,-479.52"/>
<text text-anchor="start" x="8" y="-466.02" font-family="Helvetica,sans-Serif" font-size="10.00">validation_api::ConfigService</text>
<text text-anchor="middle" x="71.38" y="-454.02" font-family="Helvetica,sans-Serif" font-size="10.00">::validateConfig</text>
</a>
</g>
</g>
<!-- Node2 -->
<g id="Node000002" class="node">
<title>Node2</title>
<g id="a_Node000002"><a xlink:href="namespacevalidation__api.html#ac3e8e6ef097973f55220fc4fdeb08dc2" target="_top" xlink:title="Error builder.">
<polygon fill="white" stroke="#666666" points="976.5,-382.52 845.75,-382.52 845.75,-362.52 976.5,-362.52 976.5,-382.52"/>
<text text-anchor="middle" x="911.12" y="-369.02" font-family="Helvetica,sans-Serif" font-size="10.00">validation_api::errorBuilder</text>
</a>
</g>
</g>
<!-- Node1&#45;&gt;Node2 -->
<g id="edge1_Node000001_Node000002" class="edge">
<title>Node1&#45;&gt;Node2</title>
<g id="a_edge1_Node000001_Node000002"><a xlink:title=" ">
<path fill="none" stroke="#63b8ff" d="M139.48,-479.99C208.81,-495.55 320.35,-516.52 418.12,-516.52 418.12,-516.52 418.12,-516.52 579.38,-516.52 705.02,-516.52 836.87,-428.07 888.03,-389.81"/>
<polygon fill="#63b8ff" stroke="#63b8ff" points="890.11,-392.63 895.96,-383.79 885.88,-387.05 890.11,-392.63"/>
</a>
</g>
</g>
<!-- Node3 -->
<g id="Node000003" class="node">
<title>Node3</title>
<g id="a_Node000003"><a xlink:href="classvalidation__api_1_1Validation.html#ac6c337d3af39943a8e603a5f21f5922a" target="_top" xlink:title=" ">
<polygon fill="white" stroke="#666666" points="321.5,-442.52 178.75,-442.52 178.75,-422.52 321.5,-422.52 321.5,-442.52"/>
<text text-anchor="middle" x="250.12" y="-429.02" font-family="Helvetica,sans-Serif" font-size="10.00">validation_api::Validation::run</text>
</a>
</g>
</g>
<!-- Node1&#45;&gt;Node3 -->
<g id="edge2_Node000001_Node000003" class="edge">
<title>Node1&#45;&gt;Node3</title>
<g id="a_edge2_Node000001_Node000003"><a xlink:title=" ">
<path fill="none" stroke="#63b8ff" d="M143.25,-451.09C154.7,-449.08 166.56,-447 178.02,-444.99"/>
<polygon fill="#63b8ff" stroke="#63b8ff" points="178.58,-448.44 187.82,-443.27 177.37,-441.55 178.58,-448.44"/>
</a>
</g>
</g>
<!-- Node3&#45;&gt;Node2 -->
<g id="edge3_Node000003_Node000002" class="edge">
<title>Node3&#45;&gt;Node2</title>
<g id="a_edge3_Node000003_Node000002"><a xlink:title=" ">
<path fill="none" stroke="#63b8ff" d="M321.96,-426.07C447,-414.68 705.77,-391.12 834.28,-379.42"/>
<polygon fill="#63b8ff" stroke="#63b8ff" points="834.41,-382.92 844.05,-378.53 833.77,-375.95 834.41,-382.92"/>
</a>
</g>
</g>
<!-- Node4 -->
<g id="Node000004" class="node">
<title>Node4</title>
<g id="a_Node000004"><a xlink:href="classvalidation__api_1_1Validation.html#a21b9aefd80be5a639d2aa5e4c8ebe945" target="_top" xlink:title=" ">
<polygon fill="white" stroke="#666666" points="480.75,-470.52 357.5,-470.52 357.5,-438.52 480.75,-438.52 480.75,-470.52"/>
<text text-anchor="start" x="365.5" y="-457.02" font-family="Helvetica,sans-Serif" font-size="10.00">validation_api::Validation</text>
<text text-anchor="middle" x="419.12" y="-445.02" font-family="Helvetica,sans-Serif" font-size="10.00">::fillRequestList</text>
</a>
</g>
</g>
<!-- Node3&#45;&gt;Node4 -->
<g id="edge4_Node000003_Node000004" class="edge">
<title>Node3&#45;&gt;Node4</title>
<g id="a_edge4_Node000003_Node000004"><a xlink:title=" ">
<path fill="none" stroke="#63b8ff" d="M321.95,-441.85C329.92,-442.9 338.06,-443.97 346.05,-445.02"/>
<polygon fill="#63b8ff" stroke="#63b8ff" points="345.35,-448.46 355.72,-446.29 346.26,-441.52 345.35,-448.46"/>
</a>
</g>
</g>
<!-- Node5 -->
<g id="Node000005" class="node">
<title>Node5</title>
<g id="a_Node000005"><a xlink:href="classvalidation__api_1_1Validation.html#a3c8146fc89af5b8cef0c1bb6c9d473f2" target="_top" xlink:title="Traverse through the json object and validate the fields.">
<polygon fill="white" stroke="#666666" points="480.75,-294.52 357.5,-294.52 357.5,-262.52 480.75,-262.52 480.75,-294.52"/>
<text text-anchor="start" x="365.5" y="-281.02" font-family="Helvetica,sans-Serif" font-size="10.00">validation_api::Validation</text>
<text text-anchor="middle" x="419.12" y="-269.02" font-family="Helvetica,sans-Serif" font-size="10.00">::traverseAndValidate</text>
</a>
</g>
</g>
<!-- Node3&#45;&gt;Node5 -->
<g id="edge6_Node000003_Node000005" class="edge">
<title>Node3&#45;&gt;Node5</title>
<g id="a_edge6_Node000003_Node000005"><a xlink:title=" ">
<path fill="none" stroke="#63b8ff" d="M262.34,-422.17C288.68,-397.89 355.04,-336.69 392.09,-302.53"/>
<polygon fill="#63b8ff" stroke="#63b8ff" points="394.31,-305.24 399.29,-295.89 389.56,-300.09 394.31,-305.24"/>
</a>
</g>
</g>
<!-- Node4&#45;&gt;Node4 -->
<g id="edge5_Node000004_Node000004" class="edge">
<title>Node4&#45;&gt;Node4</title>
<g id="a_edge5_Node000004_Node000004"><a xlink:title=" ">
<path fill="none" stroke="#63b8ff" d="M390.69,-470.96C385.39,-480.1 394.86,-488.52 419.12,-488.52 432.39,-488.52 441.24,-486 445.66,-482.22"/>
<polygon fill="#63b8ff" stroke="#63b8ff" points="449.1,-482.89 447.3,-472.45 442.2,-481.73 449.1,-482.89"/>
</a>
</g>
</g>
<!-- Node5&#45;&gt;Node2 -->
<g id="edge7_Node000005_Node000002" class="edge">
<title>Node5&#45;&gt;Node2</title>
<g id="a_edge7_Node000005_Node000002"><a xlink:title=" ">
<path fill="none" stroke="#63b8ff" d="M465.66,-294.94C516.31,-312.47 600.89,-339.61 676,-353.52 728.21,-363.18 787.89,-367.93 833.92,-370.26"/>
<polygon fill="#63b8ff" stroke="#63b8ff" points="833.65,-373.75 843.8,-370.73 833.98,-366.76 833.65,-373.75"/>
</a>
</g>
</g>
<!-- Node5&#45;&gt;Node5 -->
<g id="edge10_Node000005_Node000005" class="edge">
<title>Node5&#45;&gt;Node5</title>
<g id="a_edge10_Node000005_Node000005"><a xlink:title=" ">
<path fill="none" stroke="#63b8ff" d="M390.69,-294.96C385.39,-304.1 394.86,-312.52 419.12,-312.52 432.39,-312.52 441.24,-310 445.66,-306.22"/>
<polygon fill="#63b8ff" stroke="#63b8ff" points="449.1,-306.89 447.3,-296.45 442.2,-305.73 449.1,-306.89"/>
</a>
</g>
</g>
<!-- Node6 -->
<g id="Node000006" class="node">
<title>Node6</title>
<g id="a_Node000006"><a xlink:href="classvalidation__api_1_1Validation.html#a49e598a8189b6bd6edf1ecdb00ae8b9d" target="_top" xlink:title=" ">
<polygon fill="white" stroke="#666666" points="972.75,-57.52 849.5,-57.52 849.5,-25.52 972.75,-25.52 972.75,-57.52"/>
<text text-anchor="start" x="857.5" y="-44.02" font-family="Helvetica,sans-Serif" font-size="10.00">validation_api::Validation</text>
<text text-anchor="middle" x="911.12" y="-32.02" font-family="Helvetica,sans-Serif" font-size="10.00">::findJsonField</text>
</a>
</g>
</g>
<!-- Node5&#45;&gt;Node6 -->
<g id="edge8_Node000005_Node000006" class="edge">
<title>Node5&#45;&gt;Node6</title>
<g id="a_edge8_Node000005_Node000006"><a xlink:title=" ">
<path fill="none" stroke="#63b8ff" d="M429.35,-262.07C458.06,-212.77 551.49,-66.37 676,-13.52 735.73,11.84 811.25,-4.94 860.11,-21.4"/>
<polygon fill="#63b8ff" stroke="#63b8ff" points="858.7,-24.61 869.29,-24.61 861.01,-18 858.7,-24.61"/>
</a>
</g>
</g>
<!-- Node7 -->
<g id="Node000007" class="node">
<title>Node7</title>
<g id="a_Node000007"><a xlink:href="classvalidation__api_1_1Validation.html#a1cc0802269d88c233ad3c3d1d6c3dd12" target="_top" xlink:title=" ">
<polygon fill="white" stroke="#666666" points="640,-224.52 516.75,-224.52 516.75,-192.52 640,-192.52 640,-224.52"/>
<text text-anchor="start" x="524.75" y="-211.02" font-family="Helvetica,sans-Serif" font-size="10.00">validation_api::Validation</text>
<text text-anchor="middle" x="578.38" y="-199.02" font-family="Helvetica,sans-Serif" font-size="10.00">::validate</text>
</a>
</g>
</g>
<!-- Node5&#45;&gt;Node7 -->
<g id="edge11_Node000005_Node000007" class="edge">
<title>Node5&#45;&gt;Node7</title>
<g id="a_edge11_Node000005_Node000007"><a xlink:title=" ">
<path fill="none" stroke="#63b8ff" d="M456.99,-262.1C478.8,-252.4 506.64,-240 530.06,-229.58"/>
<polygon fill="#63b8ff" stroke="#63b8ff" points="531.37,-232.83 539.08,-225.56 528.52,-226.43 531.37,-232.83"/>
</a>
</g>
</g>
<!-- Node6&#45;&gt;Node6 -->
<g id="edge9_Node000006_Node000006" class="edge">
<title>Node6&#45;&gt;Node6</title>
<g id="a_edge9_Node000006_Node000006"><a xlink:title=" ">
<path fill="none" stroke="#63b8ff" d="M881.09,-57.96C875.48,-67.1 885.49,-75.52 911.12,-75.52 925.14,-75.52 934.49,-73 939.16,-69.22"/>
<polygon fill="#63b8ff" stroke="#63b8ff" points="942.6,-69.91 940.9,-59.45 935.7,-68.68 942.6,-69.91"/>
</a>
</g>
</g>
<!-- Node7&#45;&gt;Node2 -->
<g id="edge14_Node000007_Node000002" class="edge">
<title>Node7&#45;&gt;Node2</title>
<g id="a_edge14_Node000007_Node000002"><a xlink:title=" ">
<path fill="none" stroke="#63b8ff" d="M619.17,-192.06C667.75,-174.78 750.7,-154.55 809.75,-189.52 869.81,-225.07 896.31,-310.72 905.76,-350.95"/>
<polygon fill="#63b8ff" stroke="#63b8ff" points="902.31,-351.59 907.88,-360.61 909.15,-350.09 902.31,-351.59"/>
</a>
</g>
</g>
<!-- Node8 -->
<g id="Node000008" class="node">
<title>Node8</title>
<g id="a_Node000008"><a xlink:href="classvalidation__api_1_1Validation.html#a7b6995b4592eb861af42e45b095382b7" target="_top" xlink:title="Checking Uuid values.">
<polygon fill="white" stroke="#666666" points="804.5,-104.52 681.25,-104.52 681.25,-72.52 804.5,-72.52 804.5,-104.52"/>
<text text-anchor="start" x="689.25" y="-91.02" font-family="Helvetica,sans-Serif" font-size="10.00">validation_api::Validation</text>
<text text-anchor="middle" x="742.88" y="-79.02" font-family="Helvetica,sans-Serif" font-size="10.00">::checkNullOptionsVec</text>
</a>
</g>
</g>
<!-- Node7&#45;&gt;Node8 -->
<g id="edge12_Node000007_Node000008" class="edge">
<title>Node7&#45;&gt;Node8</title>
<g id="a_edge12_Node000007_Node000008"><a xlink:title=" ">
<path fill="none" stroke="#63b8ff" d="M592.16,-192.32C609.28,-171.55 641.53,-135.6 676,-113.52 677.85,-112.33 679.77,-111.18 681.74,-110.08"/>
<polygon fill="#63b8ff" stroke="#63b8ff" points="683.19,-113.27 690.52,-105.62 680.02,-107.03 683.19,-113.27"/>
</a>
</g>
</g>
<!-- Node9 -->
<g id="Node000009" class="node">
<title>Node9</title>
<g id="a_Node000009"><a xlink:href="classvalidation__api_1_1Validation.html#ac59ae7a00f5fc950a3a572524127c4d3" target="_top" xlink:title="Checks if a json object is empty.">
<polygon fill="white" stroke="#666666" points="804.5,-54.52 681.25,-54.52 681.25,-22.52 804.5,-22.52 804.5,-54.52"/>
<text text-anchor="start" x="689.25" y="-41.02" font-family="Helvetica,sans-Serif" font-size="10.00">validation_api::Validation</text>
<text text-anchor="middle" x="742.88" y="-29.02" font-family="Helvetica,sans-Serif" font-size="10.00">::isNullOrEmpty</text>
</a>
</g>
</g>
<!-- Node7&#45;&gt;Node9 -->
<g id="edge15_Node000007_Node000009" class="edge">
<title>Node7&#45;&gt;Node9</title>
<g id="a_edge15_Node000007_Node000009"><a xlink:title=" ">
<path fill="none" stroke="#63b8ff" d="M586.16,-192.18C599.27,-162.52 630.81,-99.52 676,-63.52 677.13,-62.62 678.3,-61.74 679.49,-60.9"/>
<polygon fill="#63b8ff" stroke="#63b8ff" points="681.15,-63.99 687.87,-55.79 677.51,-58.01 681.15,-63.99"/>
</a>
</g>
</g>
<!-- Node10 -->
<g id="Node000010" class="node">
<title>Node10</title>
<g id="a_Node000010"><a xlink:href="namespacevalidation__api.html#ac19e25b4d8364b0f52152440dd5ecbda" target="_top" xlink:title=" ">
<polygon fill="white" stroke="#666666" points="807.88,-294.52 677.88,-294.52 677.88,-274.52 807.88,-274.52 807.88,-294.52"/>
<text text-anchor="middle" x="742.88" y="-281.02" font-family="Helvetica,sans-Serif" font-size="10.00">validation_api::isValidUuid</text>
</a>
</g>
</g>
<!-- Node7&#45;&gt;Node10 -->
<g id="edge16_Node000007_Node000010" class="edge">
<title>Node7&#45;&gt;Node10</title>
<g id="a_edge16_Node000007_Node000010"><a xlink:title=" ">
<path fill="none" stroke="#63b8ff" d="M603.1,-224.81C622.13,-237.31 649.89,-254.26 676,-265.52 680.24,-267.34 684.71,-269.05 689.24,-270.64"/>
<polygon fill="#63b8ff" stroke="#63b8ff" points="687.82,-273.86 698.41,-273.64 690,-267.21 687.82,-273.86"/>
</a>
</g>
</g>
<!-- Node11 -->
<g id="Node000011" class="node">
<title>Node11</title>
<g id="a_Node000011"><a xlink:href="namespacevalidation__api.html#a6dd56dcf7358b332bb906a2d27fddd0b" target="_top" xlink:title="Converts string to all lowercase.">
<polygon fill="white" stroke="#666666" points="800.75,-256.52 685,-256.52 685,-236.52 800.75,-236.52 800.75,-256.52"/>
<text text-anchor="middle" x="742.88" y="-243.02" font-family="Helvetica,sans-Serif" font-size="10.00">validation_api::toLower</text>
</a>
</g>
</g>
<!-- Node7&#45;&gt;Node11 -->
<g id="edge17_Node000007_Node000011" class="edge">
<title>Node7&#45;&gt;Node11</title>
<g id="a_edge17_Node000007_Node000011"><a xlink:title=" ">
<path fill="none" stroke="#63b8ff" d="M640.35,-222.77C655.35,-226.28 671.33,-230.02 686.07,-233.47"/>
<polygon fill="#63b8ff" stroke="#63b8ff" points="685.06,-236.82 695.59,-235.69 686.65,-230.01 685.06,-236.82"/>
</a>
</g>
</g>
<!-- Node12 -->
<g id="Node000012" class="node">
<title>Node12</title>
<g id="a_Node000012"><a xlink:href="namespacevalidation__api.html#aae32fd7a0b5886a49454679d46ed4bd1" target="_top" xlink:title="Validates Ahv string.">
<polygon fill="white" stroke="#666666" points="809,-218.52 676.75,-218.52 676.75,-198.52 809,-198.52 809,-218.52"/>
<text text-anchor="middle" x="742.88" y="-205.02" font-family="Helvetica,sans-Serif" font-size="10.00">validation_api::validateAhv</text>
</a>
</g>
</g>
<!-- Node7&#45;&gt;Node12 -->
<g id="edge18_Node000007_Node000012" class="edge">
<title>Node7&#45;&gt;Node12</title>
<g id="a_edge18_Node000007_Node000012"><a xlink:title=" ">
<path fill="none" stroke="#63b8ff" d="M640.35,-208.52C648.46,-208.52 656.86,-208.52 665.19,-208.52"/>
<polygon fill="#63b8ff" stroke="#63b8ff" points="664.97,-212.02 674.97,-208.52 664.97,-205.02 664.97,-212.02"/>
</a>
</g>
</g>
<!-- Node13 -->
<g id="Node000013" class="node">
<title>Node13</title>
<g id="a_Node000013"><a xlink:href="classvalidation__api_1_1Validation.html#a512e2e0c3be1bea95ebfab280ec919ba" target="_top" xlink:title="Validates len options.">
<polygon fill="white" stroke="#666666" points="804.5,-344.52 681.25,-344.52 681.25,-312.52 804.5,-312.52 804.5,-344.52"/>
<text text-anchor="start" x="689.25" y="-331.02" font-family="Helvetica,sans-Serif" font-size="10.00">validation_api::Validation</text>
<text text-anchor="middle" x="742.88" y="-319.02" font-family="Helvetica,sans-Serif" font-size="10.00">::validateConstraints</text>
</a>
</g>
</g>
<!-- Node7&#45;&gt;Node13 -->
<g id="edge19_Node000007_Node000013" class="edge">
<title>Node7&#45;&gt;Node13</title>
<g id="a_edge19_Node000007_Node000013"><a xlink:title=" ">
<path fill="none" stroke="#63b8ff" d="M592.16,-224.72C609.28,-245.48 641.53,-281.43 676,-303.52 677.85,-304.7 679.77,-305.85 681.74,-306.95"/>
<polygon fill="#63b8ff" stroke="#63b8ff" points="680.02,-310 690.52,-311.41 683.19,-303.76 680.02,-310"/>
</a>
</g>
</g>
<!-- Node14 -->
<g id="Node000014" class="node">
<title>Node14</title>
<g id="a_Node000014"><a xlink:href="namespacevalidation__api.html#a0a2b975e162ced567ba3a6075684092a" target="_top" xlink:title="Validates Iban string.">
<polygon fill="white" stroke="#666666" points="809.75,-142.52 676,-142.52 676,-122.52 809.75,-122.52 809.75,-142.52"/>
<text text-anchor="middle" x="742.88" y="-129.02" font-family="Helvetica,sans-Serif" font-size="10.00">validation_api::validateIban</text>
</a>
</g>
</g>
<!-- Node7&#45;&gt;Node14 -->
<g id="edge21_Node000007_Node000014" class="edge">
<title>Node7&#45;&gt;Node14</title>
<g id="a_edge21_Node000007_Node000014"><a xlink:title=" ">
<path fill="none" stroke="#63b8ff" d="M607.16,-192.18C626.19,-181.34 652.19,-167.19 676,-156.52 683.56,-153.13 691.76,-149.84 699.72,-146.85"/>
<polygon fill="#63b8ff" stroke="#63b8ff" points="700.73,-150.2 708.92,-143.48 698.33,-143.63 700.73,-150.2"/>
</a>
</g>
</g>
<!-- Node8&#45;&gt;Node6 -->
<g id="edge13_Node000008_Node000006" class="edge">
<title>Node8&#45;&gt;Node6</title>
<g id="a_edge13_Node000008_Node000006"><a xlink:title=" ">
<path fill="none" stroke="#63b8ff" d="M802.02,-72.08C814.68,-68.5 828.18,-64.68 841.21,-61"/>
<polygon fill="#63b8ff" stroke="#63b8ff" points="841.88,-64.44 850.56,-58.36 839.98,-57.71 841.88,-64.44"/>
</a>
</g>
</g>
<!-- Node13&#45;&gt;Node2 -->
<g id="edge20_Node000013_Node000002" class="edge">
<title>Node13&#45;&gt;Node2</title>
<g id="a_edge20_Node000013_Node000002"><a xlink:title=" ">
<path fill="none" stroke="#63b8ff" d="M804.84,-344.65C822.93,-349.44 842.53,-354.63 859.86,-359.21"/>
<polygon fill="#63b8ff" stroke="#63b8ff" points="858.86,-362.57 869.42,-361.74 860.65,-355.8 858.86,-362.57"/>
</a>
</g>
</g>
</g>
</svg>
