<?xml version="1.0" encoding="UTF-8" standalone="no"?>
<!DOCTYPE svg PUBLIC "-//W3C//DTD SVG 1.1//EN"
 "http://www.w3.org/Graphics/SVG/1.1/DTD/svg11.dtd">
<!-- Generated by graphviz version 10.0.1 (0)
 -->
<!-- Title: validation_api::ConfigWatcher::run Pages: 1 -->
<svg width="767pt" height="212pt"
 viewBox="0.00 0.00 767.25 212.12" xmlns="http://www.w3.org/2000/svg" xmlns:xlink="http://www.w3.org/1999/xlink">
<g id="graph0" class="graph" transform="scale(1 1) rotate(0) translate(4 208.12)">
<title>validation_api::ConfigWatcher::run</title>
<!-- Node1 -->
<g id="Node000001" class="node">
<title>Node1</title>
<g id="a_Node000001"><a xlink:title="Start ConfigWatcher.">
<polygon fill="#999999" stroke="#666666" points="183.25,-145.75 0,-145.75 0,-125 183.25,-125 183.25,-145.75"/>
<text text-anchor="middle" x="91.62" y="-132.25" font-family="Helvetica,sans-Serif" font-size="10.00">validation_api::ConfigWatcher::run</text>
</a>
</g>
</g>
<!-- Node2 -->
<g id="Node000002" class="node">
<title>Node2</title>
<g id="a_Node000002"><a xlink:href="classvalidation__api_1_1ConfigService.html#a72b9695e86a85502ea559e009a878e4c" target="_top" xlink:title="getConfigs method">
<polygon fill="white" stroke="#666666" points="378.88,-204.12 221.12,-204.12 221.12,-170.62 378.88,-170.62 378.88,-204.12"/>
<text text-anchor="start" x="229.12" y="-190.62" font-family="Helvetica,sans-Serif" font-size="10.00">validation_api::ConfigService</text>
<text text-anchor="middle" x="300" y="-177.88" font-family="Helvetica,sans-Serif" font-size="10.00">::deleteConfig</text>
</a>
</g>
</g>
<!-- Node1&#45;&gt;Node2 -->
<g id="edge1_Node000001_Node000002" class="edge">
<title>Node1&#45;&gt;Node2</title>
<g id="a_edge1_Node000001_Node000002"><a xlink:title=" ">
<path fill="none" stroke="#63b8ff" d="M135.64,-146.21C160.04,-152.36 191.35,-160.25 220.02,-167.47"/>
<polygon fill="#63b8ff" stroke="#63b8ff" points="218.84,-170.79 229.39,-169.84 220.55,-164 218.84,-170.79"/>
</a>
</g>
</g>
<!-- Node3 -->
<g id="Node000003" class="node">
<title>Node3</title>
<g id="a_Node000003"><a xlink:href="classvalidation__api_1_1ConfigWatcher.html#a78820bcf2ebf9135785e207aae042e72" target="_top" xlink:title="Reads a file.">
<polygon fill="white" stroke="#666666" points="380.75,-152.12 219.25,-152.12 219.25,-118.62 380.75,-118.62 380.75,-152.12"/>
<text text-anchor="start" x="227.25" y="-138.62" font-family="Helvetica,sans-Serif" font-size="10.00">validation_api::ConfigWatcher</text>
<text text-anchor="middle" x="300" y="-125.88" font-family="Helvetica,sans-Serif" font-size="10.00">::read_file</text>
</a>
</g>
</g>
<!-- Node1&#45;&gt;Node3 -->
<g id="edge2_Node000001_Node000003" class="edge">
<title>Node1&#45;&gt;Node3</title>
<g id="a_edge2_Node000001_Node000003"><a xlink:title=" ">
<path fill="none" stroke="#63b8ff" d="M183.74,-135.38C191.65,-135.38 199.66,-135.38 207.57,-135.38"/>
<polygon fill="#63b8ff" stroke="#63b8ff" points="207.55,-138.88 217.55,-135.38 207.55,-131.88 207.55,-138.88"/>
</a>
</g>
</g>
<!-- Node11 -->
<g id="Node000011" class="node">
<title>Node11</title>
<g id="a_Node000011"><a xlink:href="ConfigWatcher_8cpp.html#af492780bc7786abac56fa242d4fc3045" target="_top" xlink:title=" ">
<polygon fill="white" stroke="#666666" points="335.38,-100.75 264.62,-100.75 264.62,-80 335.38,-80 335.38,-100.75"/>
<text text-anchor="middle" x="300" y="-87.25" font-family="Helvetica,sans-Serif" font-size="10.00">semaphore</text>
</a>
</g>
</g>
<!-- Node1&#45;&gt;Node11 -->
<g id="edge11_Node000001_Node000011" class="edge">
<title>Node1&#45;&gt;Node11</title>
<g id="a_edge11_Node000001_Node000011"><a xlink:title=" ">
<path fill="none" stroke="#63b8ff" d="M142.32,-124.54C176.03,-117.19 220.28,-107.54 253.15,-100.37"/>
<polygon fill="#63b8ff" stroke="#63b8ff" points="253.76,-103.82 262.79,-98.27 252.27,-96.98 253.76,-103.82"/>
</a>
</g>
</g>
<!-- Node4 -->
<g id="Node000004" class="node">
<title>Node4</title>
<g id="a_Node000004"><a xlink:href="classvalidation__api_1_1ConfigService.html#a8fee54d1f3f5eb92a17c3ecd72780f00" target="_top" xlink:title="getConfigs method">
<polygon fill="white" stroke="#666666" points="574.5,-187.12 416.75,-187.12 416.75,-153.62 574.5,-153.62 574.5,-187.12"/>
<text text-anchor="start" x="424.75" y="-173.62" font-family="Helvetica,sans-Serif" font-size="10.00">validation_api::ConfigService</text>
<text text-anchor="middle" x="495.62" y="-160.88" font-family="Helvetica,sans-Serif" font-size="10.00">::createConfig</text>
</a>
</g>
</g>
<!-- Node3&#45;&gt;Node4 -->
<g id="edge3_Node000003_Node000004" class="edge">
<title>Node3&#45;&gt;Node4</title>
<g id="a_edge3_Node000003_Node000004"><a xlink:title=" ">
<path fill="none" stroke="#63b8ff" d="M381.15,-149.86C389.07,-151.3 397.15,-152.75 405.15,-154.2"/>
<polygon fill="#63b8ff" stroke="#63b8ff" points="404.45,-157.63 414.91,-155.97 405.69,-150.74 404.45,-157.63"/>
</a>
</g>
</g>
<!-- Node5 -->
<g id="Node000005" class="node">
<title>Node5</title>
<g id="a_Node000005"><a xlink:href="namespacevalidation__api.html#aa82c6b3a43b6e6b59b529c22944cadca" target="_top" xlink:title="Ensures valid Xml configuration.">
<polygon fill="white" stroke="#666666" points="561,-117.12 430.25,-117.12 430.25,-83.62 561,-83.62 561,-117.12"/>
<text text-anchor="start" x="438.25" y="-103.62" font-family="Helvetica,sans-Serif" font-size="10.00">validation_api::validate</text>
<text text-anchor="middle" x="495.62" y="-90.88" font-family="Helvetica,sans-Serif" font-size="10.00">XmlConfig</text>
</a>
</g>
</g>
<!-- Node3&#45;&gt;Node5 -->
<g id="edge4_Node000003_Node000005" class="edge">
<title>Node3&#45;&gt;Node5</title>
<g id="a_edge4_Node000003_Node000005"><a xlink:title=" ">
<path fill="none" stroke="#63b8ff" d="M381.15,-120.89C393.58,-118.64 406.38,-116.33 418.71,-114.1"/>
<polygon fill="#63b8ff" stroke="#63b8ff" points="419.17,-117.57 428.39,-112.35 417.92,-110.68 419.17,-117.57"/>
</a>
</g>
</g>
<!-- Node5&#45;&gt;Node5 -->
<g id="edge10_Node000005_Node000005" class="edge">
<title>Node5&#45;&gt;Node5</title>
<g id="a_edge10_Node000005_Node000005"><a xlink:title=" ">
<path fill="none" stroke="#63b8ff" d="M461.6,-117.54C455.82,-126.74 467.16,-135.12 495.62,-135.12 511.63,-135.12 522.23,-132.47 527.4,-128.51"/>
<polygon fill="#63b8ff" stroke="#63b8ff" points="530.77,-129.52 529.34,-119.02 523.91,-128.12 530.77,-129.52"/>
</a>
</g>
</g>
<!-- Node6 -->
<g id="Node000006" class="node">
<title>Node6</title>
<g id="a_Node000006"><a xlink:href="classvalidation__api_1_1ErrorBuilder.html#a84327bbfe6c61e7be6966acc41ba6087" target="_top" xlink:title=" ">
<polygon fill="white" stroke="#666666" points="759.25,-201.12 610.5,-201.12 610.5,-167.62 759.25,-167.62 759.25,-201.12"/>
<text text-anchor="start" x="618.5" y="-187.62" font-family="Helvetica,sans-Serif" font-size="10.00">validation_api::ErrorBuilder</text>
<text text-anchor="middle" x="684.88" y="-174.88" font-family="Helvetica,sans-Serif" font-size="10.00">::build</text>
</a>
</g>
</g>
<!-- Node5&#45;&gt;Node6 -->
<g id="edge5_Node000005_Node000006" class="edge">
<title>Node5&#45;&gt;Node6</title>
<g id="a_edge5_Node000005_Node000006"><a xlink:title=" ">
<path fill="none" stroke="#63b8ff" d="M527.52,-117.5C550.13,-129.68 581.76,-146.03 610.5,-158.38 614.26,-159.99 618.16,-161.59 622.11,-163.15"/>
<polygon fill="#63b8ff" stroke="#63b8ff" points="620.62,-166.33 631.21,-166.64 623.13,-159.79 620.62,-166.33"/>
</a>
</g>
</g>
<!-- Node7 -->
<g id="Node000007" class="node">
<title>Node7</title>
<g id="a_Node000007"><a xlink:href="namespacevalidation__api.html#ac497c1198e4e7f0fe71ffbdb3e6beeaa" target="_top" xlink:title="Convert string to float.">
<polygon fill="white" stroke="#666666" points="746.88,-149.75 622.88,-149.75 622.88,-129 746.88,-129 746.88,-149.75"/>
<text text-anchor="middle" x="684.88" y="-136.25" font-family="Helvetica,sans-Serif" font-size="10.00">validation_api::isFloat</text>
</a>
</g>
</g>
<!-- Node5&#45;&gt;Node7 -->
<g id="edge6_Node000005_Node000007" class="edge">
<title>Node5&#45;&gt;Node7</title>
<g id="a_edge6_Node000005_Node000007"><a xlink:title=" ">
<path fill="none" stroke="#63b8ff" d="M561.33,-113.85C580.59,-117.86 601.67,-122.25 620.82,-126.24"/>
<polygon fill="#63b8ff" stroke="#63b8ff" points="619.87,-129.62 630.37,-128.23 621.3,-122.77 619.87,-129.62"/>
</a>
</g>
</g>
<!-- Node8 -->
<g id="Node000008" class="node">
<title>Node8</title>
<g id="a_Node000008"><a xlink:href="namespacevalidation__api.html#ac19e25b4d8364b0f52152440dd5ecbda" target="_top" xlink:title=" ">
<polygon fill="white" stroke="#666666" points="757.75,-110.75 612,-110.75 612,-90 757.75,-90 757.75,-110.75"/>
<text text-anchor="middle" x="684.88" y="-97.25" font-family="Helvetica,sans-Serif" font-size="10.00">validation_api::isValidUuid</text>
</a>
</g>
</g>
<!-- Node5&#45;&gt;Node8 -->
<g id="edge7_Node000005_Node000008" class="edge">
<title>Node5&#45;&gt;Node8</title>
<g id="a_edge7_Node000005_Node000008"><a xlink:title=" ">
<path fill="none" stroke="#63b8ff" d="M561.33,-100.38C573.92,-100.38 587.28,-100.38 600.38,-100.38"/>
<polygon fill="#63b8ff" stroke="#63b8ff" points="600.28,-103.88 610.28,-100.38 600.28,-96.88 600.28,-103.88"/>
</a>
</g>
</g>
<!-- Node9 -->
<g id="Node000009" class="node">
<title>Node9</title>
<g id="a_Node000009"><a xlink:href="classvalidation__api_1_1ErrorBuilder.html#a014e70c2f2b4a2ee879c363b4a2174f2" target="_top" xlink:title=" ">
<polygon fill="white" stroke="#666666" points="759.25,-72.12 610.5,-72.12 610.5,-38.62 759.25,-38.62 759.25,-72.12"/>
<text text-anchor="start" x="618.5" y="-58.62" font-family="Helvetica,sans-Serif" font-size="10.00">validation_api::ErrorBuilder</text>
<text text-anchor="middle" x="684.88" y="-45.88" font-family="Helvetica,sans-Serif" font-size="10.00">::setSecondMsg</text>
</a>
</g>
</g>
<!-- Node5&#45;&gt;Node9 -->
<g id="edge8_Node000005_Node000009" class="edge">
<title>Node5&#45;&gt;Node9</title>
<g id="a_edge8_Node000005_Node000009"><a xlink:title=" ">
<path fill="none" stroke="#63b8ff" d="M561.33,-84.83C574.13,-81.75 587.73,-78.48 601.04,-75.28"/>
<polygon fill="#63b8ff" stroke="#63b8ff" points="601.74,-78.71 610.65,-72.97 600.11,-71.91 601.74,-78.71"/>
</a>
</g>
</g>
<!-- Node10 -->
<g id="Node000010" class="node">
<title>Node10</title>
<g id="a_Node000010"><a xlink:href="namespacevalidation__api.html#a6dd56dcf7358b332bb906a2d27fddd0b" target="_top" xlink:title="Converts string to all lowercase.">
<polygon fill="white" stroke="#666666" points="749.88,-20.75 619.88,-20.75 619.88,0 749.88,0 749.88,-20.75"/>
<text text-anchor="middle" x="684.88" y="-7.25" font-family="Helvetica,sans-Serif" font-size="10.00">validation_api::toLower</text>
</a>
</g>
</g>
<!-- Node5&#45;&gt;Node10 -->
<g id="edge9_Node000005_Node000010" class="edge">
<title>Node5&#45;&gt;Node10</title>
<g id="a_edge9_Node000005_Node000010"><a xlink:title=" ">
<path fill="none" stroke="#63b8ff" d="M519.46,-83.21C541.67,-67.24 576.89,-43.8 610.5,-29.38 614.53,-27.64 618.76,-26.04 623.07,-24.56"/>
<polygon fill="#63b8ff" stroke="#63b8ff" points="623.94,-27.96 632.41,-21.6 621.82,-21.29 623.94,-27.96"/>
</a>
</g>
</g>
</g>
</svg>
