<?xml version="1.0" encoding="UTF-8" standalone="no"?>
<!DOCTYPE svg PUBLIC "-//W3C//DTD SVG 1.1//EN"
 "http://www.w3.org/Graphics/SVG/1.1/DTD/svg11.dtd">
<!-- Generated by graphviz version 10.0.1 (0)
 -->
<!-- Title: validation_api::ConfigWatcher::run Pages: 1 -->
<svg width="583pt" height="132pt"
 viewBox="0.00 0.00 582.50 132.12" xmlns="http://www.w3.org/2000/svg" xmlns:xlink="http://www.w3.org/1999/xlink">
<g id="graph0" class="graph" transform="scale(1 1) rotate(0) translate(4 128.12)">
<title>validation_api::ConfigWatcher::run</title>
<!-- Node1 -->
<g id="Node000001" class="node">
<title>Node1</title>
<g id="a_Node000001"><a xlink:title="Start ConfigWatcher.">
<polygon fill="#999999" stroke="#666666" points="183.25,-65.75 0,-65.75 0,-45 183.25,-45 183.25,-65.75"/>
<text text-anchor="middle" x="91.62" y="-52.25" font-family="Helvetica,sans-Serif" font-size="10.00">validation_api::ConfigWatcher::run</text>
</a>
</g>
</g>
<!-- Node2 -->
<g id="Node000002" class="node">
<title>Node2</title>
<g id="a_Node000002"><a xlink:href="classvalidation__api_1_1ConfigService.html#a72b9695e86a85502ea559e009a878e4c" target="_top" xlink:title="getConfigs method">
<polygon fill="white" stroke="#666666" points="378.88,-124.12 221.12,-124.12 221.12,-90.62 378.88,-90.62 378.88,-124.12"/>
<text text-anchor="start" x="229.12" y="-110.62" font-family="Helvetica,sans-Serif" font-size="10.00">validation_api::ConfigService</text>
<text text-anchor="middle" x="300" y="-97.88" font-family="Helvetica,sans-Serif" font-size="10.00">::deleteConfig</text>
</a>
</g>
</g>
<!-- Node1&#45;&gt;Node2 -->
<g id="edge1_Node000001_Node000002" class="edge">
<title>Node1&#45;&gt;Node2</title>
<g id="a_edge1_Node000001_Node000002"><a xlink:title=" ">
<path fill="none" stroke="#63b8ff" d="M135.64,-66.21C160.04,-72.36 191.35,-80.25 220.02,-87.47"/>
<polygon fill="#63b8ff" stroke="#63b8ff" points="218.84,-90.79 229.39,-89.84 220.55,-84 218.84,-90.79"/>
</a>
</g>
</g>
<!-- Node3 -->
<g id="Node000003" class="node">
<title>Node3</title>
<g id="a_Node000003"><a xlink:href="classvalidation__api_1_1ConfigWatcher.html#a78820bcf2ebf9135785e207aae042e72" target="_top" xlink:title="Reads a file.">
<polygon fill="white" stroke="#666666" points="380.75,-72.12 219.25,-72.12 219.25,-38.62 380.75,-38.62 380.75,-72.12"/>
<text text-anchor="start" x="227.25" y="-58.62" font-family="Helvetica,sans-Serif" font-size="10.00">validation_api::ConfigWatcher</text>
<text text-anchor="middle" x="300" y="-45.88" font-family="Helvetica,sans-Serif" font-size="10.00">::read_file</text>
</a>
</g>
</g>
<!-- Node1&#45;&gt;Node3 -->
<g id="edge2_Node000001_Node000003" class="edge">
<title>Node1&#45;&gt;Node3</title>
<g id="a_edge2_Node000001_Node000003"><a xlink:title=" ">
<path fill="none" stroke="#63b8ff" d="M183.74,-55.38C191.65,-55.38 199.66,-55.38 207.57,-55.38"/>
<polygon fill="#63b8ff" stroke="#63b8ff" points="207.55,-58.88 217.55,-55.38 207.55,-51.88 207.55,-58.88"/>
</a>
</g>
</g>
<!-- Node5 -->
<g id="Node000005" class="node">
<title>Node5</title>
<g id="a_Node000005"><a xlink:href="ConfigWatcher_8cpp.html#af492780bc7786abac56fa242d4fc3045" target="_top" xlink:title=" ">
<polygon fill="white" stroke="#666666" points="335.38,-20.75 264.62,-20.75 264.62,0 335.38,0 335.38,-20.75"/>
<text text-anchor="middle" x="300" y="-7.25" font-family="Helvetica,sans-Serif" font-size="10.00">semaphore</text>
</a>
</g>
</g>
<!-- Node1&#45;&gt;Node5 -->
<g id="edge4_Node000001_Node000005" class="edge">
<title>Node1&#45;&gt;Node5</title>
<g id="a_edge4_Node000001_Node000005"><a xlink:title=" ">
<path fill="none" stroke="#63b8ff" d="M142.32,-44.54C176.03,-37.19 220.28,-27.54 253.15,-20.37"/>
<polygon fill="#63b8ff" stroke="#63b8ff" points="253.76,-23.82 262.79,-18.27 252.27,-16.98 253.76,-23.82"/>
</a>
</g>
</g>
<!-- Node4 -->
<g id="Node000004" class="node">
<title>Node4</title>
<g id="a_Node000004"><a xlink:href="classvalidation__api_1_1ConfigService.html#a8fee54d1f3f5eb92a17c3ecd72780f00" target="_top" xlink:title="getConfigs method">
<polygon fill="white" stroke="#666666" points="574.5,-72.12 416.75,-72.12 416.75,-38.62 574.5,-38.62 574.5,-72.12"/>
<text text-anchor="start" x="424.75" y="-58.62" font-family="Helvetica,sans-Serif" font-size="10.00">validation_api::ConfigService</text>
<text text-anchor="middle" x="495.62" y="-45.88" font-family="Helvetica,sans-Serif" font-size="10.00">::createConfig</text>
</a>
</g>
</g>
<!-- Node3&#45;&gt;Node4 -->
<g id="edge3_Node000003_Node000004" class="edge">
<title>Node3&#45;&gt;Node4</title>
<g id="a_edge3_Node000003_Node000004"><a xlink:title=" ">
<path fill="none" stroke="#63b8ff" d="M381.15,-55.38C389.07,-55.38 397.15,-55.38 405.15,-55.38"/>
<polygon fill="#63b8ff" stroke="#63b8ff" points="404.89,-58.88 414.89,-55.38 404.89,-51.88 404.89,-58.88"/>
</a>
</g>
</g>
</g>
</svg>
