<?xml version="1.0" encoding="UTF-8" standalone="no"?>
<!DOCTYPE svg PUBLIC "-//W3C//DTD SVG 1.1//EN"
 "http://www.w3.org/Graphics/SVG/1.1/DTD/svg11.dtd">
<!-- Generated by graphviz version 10.0.1 (0)
 -->
<!-- Title: validation_api::ValidationServer::ValidationServer Pages: 1 -->
<svg width="1615pt" height="550pt"
 viewBox="0.00 0.00 1614.50 550.22" xmlns="http://www.w3.org/2000/svg" xmlns:xlink="http://www.w3.org/1999/xlink">
<g id="graph0" class="graph" transform="scale(1 1) rotate(0) translate(4 546.22)">
<title>validation_api::ValidationServer::ValidationServer</title>
<!-- Node1 -->
<g id="Node000001" class="node">
<title>Node1</title>
<g id="a_Node000001"><a xlink:title=" ">
<polygon fill="#999999" stroke="#666666" points="139.75,-490.22 0,-490.22 0,-456.72 139.75,-456.72 139.75,-490.22"/>
<text text-anchor="start" x="8" y="-476.72" font-family="Helvetica,sans-Serif" font-size="10.00">validation_api::Validation</text>
<text text-anchor="middle" x="69.88" y="-463.97" font-family="Helvetica,sans-Serif" font-size="10.00">Server::ValidationServer</text>
</a>
</g>
</g>
<!-- Node2 -->
<g id="Node000002" class="node">
<title>Node2</title>
<g id="a_Node000002"><a xlink:href="classvalidation__api_1_1ValidationServer.html#ad67c7031c85ea1cd6eb84f6b01c424df" target="_top" xlink:title="Start the server.">
<polygon fill="white" stroke="#666666" points="315.5,-516.22 175.75,-516.22 175.75,-482.72 315.5,-482.72 315.5,-516.22"/>
<text text-anchor="start" x="183.75" y="-502.72" font-family="Helvetica,sans-Serif" font-size="10.00">validation_api::Validation</text>
<text text-anchor="middle" x="245.62" y="-489.97" font-family="Helvetica,sans-Serif" font-size="10.00">Server::run</text>
</a>
</g>
</g>
<!-- Node1&#45;&gt;Node2 -->
<g id="edge1_Node000001_Node000002" class="edge">
<title>Node1&#45;&gt;Node2</title>
<g id="a_edge1_Node000001_Node000002"><a xlink:title=" ">
<path fill="none" stroke="#63b8ff" d="M140.04,-483.82C147.96,-485.01 156.07,-486.22 164.12,-487.43"/>
<polygon fill="#63b8ff" stroke="#63b8ff" points="163.5,-490.87 173.91,-488.89 164.54,-483.95 163.5,-490.87"/>
</a>
</g>
</g>
<!-- Node19 -->
<g id="Node000019" class="node">
<title>Node19</title>
<g id="a_Node000019"><a xlink:href="classvalidation__api_1_1ValidationServer.html#aee6d6d3e85ff6a2ca7a476f15e341aa8" target="_top" xlink:title="Setup the server.">
<polygon fill="white" stroke="#666666" points="315.5,-464.22 175.75,-464.22 175.75,-430.72 315.5,-430.72 315.5,-464.22"/>
<text text-anchor="start" x="183.75" y="-450.72" font-family="Helvetica,sans-Serif" font-size="10.00">validation_api::Validation</text>
<text text-anchor="middle" x="245.62" y="-437.97" font-family="Helvetica,sans-Serif" font-size="10.00">Server::setup</text>
</a>
</g>
</g>
<!-- Node1&#45;&gt;Node19 -->
<g id="edge27_Node000001_Node000019" class="edge">
<title>Node1&#45;&gt;Node19</title>
<g id="a_edge27_Node000001_Node000019"><a xlink:title=" ">
<path fill="none" stroke="#63b8ff" d="M140.04,-463.12C147.96,-461.94 156.07,-460.72 164.12,-459.52"/>
<polygon fill="#63b8ff" stroke="#63b8ff" points="164.54,-463 173.91,-458.05 163.5,-456.07 164.54,-463"/>
</a>
</g>
</g>
<!-- Node2&#45;&gt;Node2 -->
<g id="edge26_Node000002_Node000002" class="edge">
<title>Node2&#45;&gt;Node2</title>
<g id="a_edge26_Node000002_Node000002"><a xlink:title=" ">
<path fill="none" stroke="#63b8ff" d="M214.03,-516.64C208.66,-525.84 219.19,-534.22 245.62,-534.22 260.49,-534.22 270.33,-531.57 275.14,-527.61"/>
<polygon fill="#63b8ff" stroke="#63b8ff" points="278.51,-528.6 276.94,-518.12 271.63,-527.3 278.51,-528.6"/>
</a>
</g>
</g>
<!-- Node3 -->
<g id="Node000003" class="node">
<title>Node3</title>
<g id="a_Node000003"><a xlink:href="classvalidation__api_1_1ValidationServer.html#a7f5c5252fa7a28bef0345e6248139215" target="_top" xlink:title="Accept a connection.">
<polygon fill="white" stroke="#666666" points="491.25,-516.22 351.5,-516.22 351.5,-482.72 491.25,-482.72 491.25,-516.22"/>
<text text-anchor="start" x="359.5" y="-502.72" font-family="Helvetica,sans-Serif" font-size="10.00">validation_api::Validation</text>
<text text-anchor="middle" x="421.38" y="-489.97" font-family="Helvetica,sans-Serif" font-size="10.00">Server::accept</text>
</a>
</g>
</g>
<!-- Node2&#45;&gt;Node3 -->
<g id="edge2_Node000002_Node000003" class="edge">
<title>Node2&#45;&gt;Node3</title>
<g id="a_edge2_Node000002_Node000003"><a xlink:title=" ">
<path fill="none" stroke="#63b8ff" d="M315.79,-499.47C323.71,-499.47 331.82,-499.47 339.87,-499.47"/>
<polygon fill="#63b8ff" stroke="#63b8ff" points="339.65,-502.97 349.65,-499.47 339.65,-495.97 339.65,-502.97"/>
</a>
</g>
</g>
<!-- Node4 -->
<g id="Node000004" class="node">
<title>Node4</title>
<g id="a_Node000004"><a xlink:href="classvalidation__api_1_1ValidationServer.html#a59c4a313effe28cc0acca7b8bb3a26e4" target="_top" xlink:title=" ">
<polygon fill="white" stroke="#666666" points="676,-542.22 536.25,-542.22 536.25,-508.72 676,-508.72 676,-542.22"/>
<text text-anchor="start" x="544.25" y="-528.72" font-family="Helvetica,sans-Serif" font-size="10.00">validation_api::Validation</text>
<text text-anchor="middle" x="606.12" y="-515.97" font-family="Helvetica,sans-Serif" font-size="10.00">Server::asyncWriter</text>
</a>
</g>
</g>
<!-- Node3&#45;&gt;Node4 -->
<g id="edge3_Node000003_Node000004" class="edge">
<title>Node3&#45;&gt;Node4</title>
<g id="a_edge3_Node000003_Node000004"><a xlink:title=" ">
<path fill="none" stroke="#63b8ff" d="M491.73,-509.34C502.44,-510.86 513.59,-512.45 524.53,-514.01"/>
<polygon fill="#63b8ff" stroke="#63b8ff" points="523.93,-517.46 534.32,-515.4 524.92,-510.53 523.93,-517.46"/>
</a>
</g>
</g>
<!-- Node5 -->
<g id="Node000005" class="node">
<title>Node5</title>
<g id="a_Node000005"><a xlink:href="classvalidation__api_1_1ConfigService.html#a654e84f4f588f7391f93210c1e08344f" target="_top" xlink:title="getConfigs method">
<polygon fill="white" stroke="#666666" points="685,-490.22 527.25,-490.22 527.25,-456.72 685,-456.72 685,-490.22"/>
<text text-anchor="start" x="535.25" y="-476.72" font-family="Helvetica,sans-Serif" font-size="10.00">validation_api::ConfigService</text>
<text text-anchor="middle" x="606.12" y="-463.97" font-family="Helvetica,sans-Serif" font-size="10.00">::validateConfig</text>
</a>
</g>
</g>
<!-- Node3&#45;&gt;Node5 -->
<g id="edge4_Node000003_Node000005" class="edge">
<title>Node3&#45;&gt;Node5</title>
<g id="a_edge4_Node000003_Node000005"><a xlink:title=" ">
<path fill="none" stroke="#63b8ff" d="M491.73,-489.61C499.55,-488.49 507.6,-487.35 515.64,-486.2"/>
<polygon fill="#63b8ff" stroke="#63b8ff" points="516.05,-489.68 525.46,-484.81 515.06,-482.75 516.05,-489.68"/>
</a>
</g>
</g>
<!-- Node6 -->
<g id="Node000006" class="node">
<title>Node6</title>
<g id="a_Node000006"><a xlink:href="namespacevalidation__api.html#ac3e8e6ef097973f55220fc4fdeb08dc2" target="_top" xlink:title="Error builder.">
<polygon fill="white" stroke="#666666" points="1606.5,-391.85 1457.75,-391.85 1457.75,-371.1 1606.5,-371.1 1606.5,-391.85"/>
<text text-anchor="middle" x="1532.12" y="-378.35" font-family="Helvetica,sans-Serif" font-size="10.00">validation_api::errorBuilder</text>
</a>
</g>
</g>
<!-- Node5&#45;&gt;Node6 -->
<g id="edge5_Node000005_Node000006" class="edge">
<title>Node5&#45;&gt;Node6</title>
<g id="a_edge5_Node000005_Node000006"><a xlink:title=" ">
<path fill="none" stroke="#63b8ff" d="M683.15,-490.71C759.59,-506.51 881.02,-527.47 987.38,-527.47 987.38,-527.47 987.38,-527.47 1165.12,-527.47 1302.91,-527.47 1450.43,-437.1 1507.09,-398.56"/>
<polygon fill="#63b8ff" stroke="#63b8ff" points="1508.8,-401.63 1515.04,-393.07 1504.83,-395.87 1508.8,-401.63"/>
</a>
</g>
</g>
<!-- Node7 -->
<g id="Node000007" class="node">
<title>Node7</title>
<g id="a_Node000007"><a xlink:href="classvalidation__api_1_1Validation.html#ac6c337d3af39943a8e603a5f21f5922a" target="_top" xlink:title=" ">
<polygon fill="white" stroke="#666666" points="882.5,-452.85 721,-452.85 721,-432.1 882.5,-432.1 882.5,-452.85"/>
<text text-anchor="middle" x="801.75" y="-439.35" font-family="Helvetica,sans-Serif" font-size="10.00">validation_api::Validation::run</text>
</a>
</g>
</g>
<!-- Node5&#45;&gt;Node7 -->
<g id="edge6_Node000005_Node000007" class="edge">
<title>Node5&#45;&gt;Node7</title>
<g id="a_edge6_Node000005_Node000007"><a xlink:title=" ">
<path fill="none" stroke="#63b8ff" d="M685.32,-460.95C697.25,-459.04 709.57,-457.07 721.53,-455.16"/>
<polygon fill="#63b8ff" stroke="#63b8ff" points="722.03,-458.62 731.35,-453.58 720.93,-451.71 722.03,-458.62"/>
</a>
</g>
</g>
<!-- Node7&#45;&gt;Node6 -->
<g id="edge7_Node000007_Node000006" class="edge">
<title>Node7&#45;&gt;Node6</title>
<g id="a_edge7_Node000007_Node000006"><a xlink:title=" ">
<path fill="none" stroke="#63b8ff" d="M882.78,-435.77C1021.31,-424.17 1304.52,-400.45 1446.3,-388.58"/>
<polygon fill="#63b8ff" stroke="#63b8ff" points="1446.32,-392.09 1456,-387.76 1445.74,-385.11 1446.32,-392.09"/>
</a>
</g>
</g>
<!-- Node8 -->
<g id="Node000008" class="node">
<title>Node8</title>
<g id="a_Node000008"><a xlink:href="classvalidation__api_1_1Validation.html#a21b9aefd80be5a639d2aa5e4c8ebe945" target="_top" xlink:title=" ">
<polygon fill="white" stroke="#666666" points="1058.25,-481.22 918.5,-481.22 918.5,-447.72 1058.25,-447.72 1058.25,-481.22"/>
<text text-anchor="start" x="926.5" y="-467.72" font-family="Helvetica,sans-Serif" font-size="10.00">validation_api::Validation</text>
<text text-anchor="middle" x="988.38" y="-454.97" font-family="Helvetica,sans-Serif" font-size="10.00">::fillRequestList</text>
</a>
</g>
</g>
<!-- Node7&#45;&gt;Node8 -->
<g id="edge8_Node000007_Node000008" class="edge">
<title>Node7&#45;&gt;Node8</title>
<g id="a_edge8_Node000007_Node000008"><a xlink:title=" ">
<path fill="none" stroke="#63b8ff" d="M882.92,-452.03C890.93,-452.98 899.05,-453.95 907.06,-454.9"/>
<polygon fill="#63b8ff" stroke="#63b8ff" points="906.42,-458.35 916.77,-456.06 907.25,-451.4 906.42,-458.35"/>
</a>
</g>
</g>
<!-- Node9 -->
<g id="Node000009" class="node">
<title>Node9</title>
<g id="a_Node000009"><a xlink:href="classvalidation__api_1_1Validation.html#a3c8146fc89af5b8cef0c1bb6c9d473f2" target="_top" xlink:title="Traverse through the json object and validate the fields.">
<polygon fill="white" stroke="#666666" points="1058.25,-302.22 918.5,-302.22 918.5,-268.72 1058.25,-268.72 1058.25,-302.22"/>
<text text-anchor="start" x="926.5" y="-288.72" font-family="Helvetica,sans-Serif" font-size="10.00">validation_api::Validation</text>
<text text-anchor="middle" x="988.38" y="-275.97" font-family="Helvetica,sans-Serif" font-size="10.00">::traverseAndValidate</text>
</a>
</g>
</g>
<!-- Node7&#45;&gt;Node9 -->
<g id="edge10_Node000007_Node000009" class="edge">
<title>Node7&#45;&gt;Node9</title>
<g id="a_edge10_Node000007_Node000009"><a xlink:title=" ">
<path fill="none" stroke="#63b8ff" d="M815.44,-431.68C844.75,-406.76 917.77,-344.66 958.59,-309.95"/>
<polygon fill="#63b8ff" stroke="#63b8ff" points="960.77,-312.69 966.12,-303.55 956.23,-307.36 960.77,-312.69"/>
</a>
</g>
</g>
<!-- Node8&#45;&gt;Node8 -->
<g id="edge9_Node000008_Node000008" class="edge">
<title>Node8&#45;&gt;Node8</title>
<g id="a_edge9_Node000008_Node000008"><a xlink:title=" ">
<path fill="none" stroke="#63b8ff" d="M956.78,-481.64C951.41,-490.84 961.94,-499.22 988.38,-499.22 1003.24,-499.22 1013.08,-496.57 1017.89,-492.61"/>
<polygon fill="#63b8ff" stroke="#63b8ff" points="1021.26,-493.6 1019.69,-483.12 1014.38,-492.3 1021.26,-493.6"/>
</a>
</g>
</g>
<!-- Node9&#45;&gt;Node6 -->
<g id="edge11_Node000009_Node000006" class="edge">
<title>Node9&#45;&gt;Node6</title>
<g id="a_edge11_Node000009_Node000006"><a xlink:title=" ">
<path fill="none" stroke="#63b8ff" d="M1040.42,-302.72C1096.14,-320.78 1188.34,-348.44 1270,-362.47 1328.31,-372.49 1394.82,-377.24 1446.13,-379.48"/>
<polygon fill="#63b8ff" stroke="#63b8ff" points="1445.85,-382.97 1455.99,-379.88 1446.14,-375.98 1445.85,-382.97"/>
</a>
</g>
</g>
<!-- Node9&#45;&gt;Node9 -->
<g id="edge14_Node000009_Node000009" class="edge">
<title>Node9&#45;&gt;Node9</title>
<g id="a_edge14_Node000009_Node000009"><a xlink:title=" ">
<path fill="none" stroke="#63b8ff" d="M956.78,-302.64C951.41,-311.84 961.94,-320.22 988.38,-320.22 1003.24,-320.22 1013.08,-317.57 1017.89,-313.61"/>
<polygon fill="#63b8ff" stroke="#63b8ff" points="1021.26,-314.6 1019.69,-304.12 1014.38,-313.3 1021.26,-314.6"/>
</a>
</g>
</g>
<!-- Node10 -->
<g id="Node000010" class="node">
<title>Node10</title>
<g id="a_Node000010"><a xlink:href="classvalidation__api_1_1Validation.html#a49e598a8189b6bd6edf1ecdb00ae8b9d" target="_top" xlink:title=" ">
<polygon fill="white" stroke="#666666" points="1602,-61.22 1462.25,-61.22 1462.25,-27.72 1602,-27.72 1602,-61.22"/>
<text text-anchor="start" x="1470.25" y="-47.72" font-family="Helvetica,sans-Serif" font-size="10.00">validation_api::Validation</text>
<text text-anchor="middle" x="1532.12" y="-34.97" font-family="Helvetica,sans-Serif" font-size="10.00">::findJsonField</text>
</a>
</g>
</g>
<!-- Node9&#45;&gt;Node10 -->
<g id="edge12_Node000009_Node000010" class="edge">
<title>Node9&#45;&gt;Node10</title>
<g id="a_edge12_Node000009_Node000010"><a xlink:title=" ">
<path fill="none" stroke="#63b8ff" d="M1000.06,-268.26C1032.78,-217.39 1137.5,-68.01 1270,-14.47 1337.88,12.95 1423.25,-5.78 1477.52,-23.59"/>
<polygon fill="#63b8ff" stroke="#63b8ff" points="1476.25,-26.86 1486.84,-26.76 1478.5,-20.23 1476.25,-26.86"/>
</a>
</g>
</g>
<!-- Node11 -->
<g id="Node000011" class="node">
<title>Node11</title>
<g id="a_Node000011"><a xlink:href="classvalidation__api_1_1Validation.html#a1cc0802269d88c233ad3c3d1d6c3dd12" target="_top" xlink:title=" ">
<polygon fill="white" stroke="#666666" points="1234,-230.22 1094.25,-230.22 1094.25,-196.72 1234,-196.72 1234,-230.22"/>
<text text-anchor="start" x="1102.25" y="-216.72" font-family="Helvetica,sans-Serif" font-size="10.00">validation_api::Validation</text>
<text text-anchor="middle" x="1164.12" y="-203.97" font-family="Helvetica,sans-Serif" font-size="10.00">::validate</text>
</a>
</g>
</g>
<!-- Node9&#45;&gt;Node11 -->
<g id="edge15_Node000009_Node000011" class="edge">
<title>Node9&#45;&gt;Node11</title>
<g id="a_edge15_Node000009_Node000011"><a xlink:title=" ">
<path fill="none" stroke="#63b8ff" d="M1030.99,-268.23C1054.97,-258.29 1085.34,-245.71 1110.91,-235.11"/>
<polygon fill="#63b8ff" stroke="#63b8ff" points="1112.25,-238.34 1120.15,-231.28 1109.57,-231.88 1112.25,-238.34"/>
</a>
</g>
</g>
<!-- Node10&#45;&gt;Node10 -->
<g id="edge13_Node000010_Node000010" class="edge">
<title>Node10&#45;&gt;Node10</title>
<g id="a_edge13_Node000010_Node000010"><a xlink:title=" ">
<path fill="none" stroke="#63b8ff" d="M1498.64,-61.64C1492.95,-70.84 1504.11,-79.22 1532.12,-79.22 1547.88,-79.22 1558.31,-76.57 1563.4,-72.61"/>
<polygon fill="#63b8ff" stroke="#63b8ff" points="1566.77,-73.61 1565.31,-63.12 1559.9,-72.23 1566.77,-73.61"/>
</a>
</g>
</g>
<!-- Node11&#45;&gt;Node6 -->
<g id="edge18_Node000011_Node000006" class="edge">
<title>Node11&#45;&gt;Node6</title>
<g id="a_edge18_Node000011_Node000006"><a xlink:title=" ">
<path fill="none" stroke="#63b8ff" d="M1208.35,-196.33C1262.16,-177.96 1355.1,-156.24 1421.75,-194.47 1484.73,-230.6 1514.92,-318.56 1525.96,-359.65"/>
<polygon fill="#63b8ff" stroke="#63b8ff" points="1522.56,-360.49 1528.41,-369.32 1529.35,-358.77 1522.56,-360.49"/>
</a>
</g>
</g>
<!-- Node12 -->
<g id="Node000012" class="node">
<title>Node12</title>
<g id="a_Node000012"><a xlink:href="classvalidation__api_1_1Validation.html#a7b6995b4592eb861af42e45b095382b7" target="_top" xlink:title="Checking Uuid values.">
<polygon fill="white" stroke="#666666" points="1415.75,-109.22 1276,-109.22 1276,-75.72 1415.75,-75.72 1415.75,-109.22"/>
<text text-anchor="start" x="1284" y="-95.72" font-family="Helvetica,sans-Serif" font-size="10.00">validation_api::Validation</text>
<text text-anchor="middle" x="1345.88" y="-82.97" font-family="Helvetica,sans-Serif" font-size="10.00">::checkNullOptionsVec</text>
</a>
</g>
</g>
<!-- Node11&#45;&gt;Node12 -->
<g id="edge16_Node000011_Node000012" class="edge">
<title>Node11&#45;&gt;Node12</title>
<g id="a_edge16_Node000011_Node000012"><a xlink:title=" ">
<path fill="none" stroke="#63b8ff" d="M1179.85,-196.46C1198.8,-175.5 1233.65,-140.02 1270,-118.47 1272.43,-117.03 1274.96,-115.65 1277.55,-114.34"/>
<polygon fill="#63b8ff" stroke="#63b8ff" points="1278.81,-117.61 1286.4,-110.21 1275.85,-111.26 1278.81,-117.61"/>
</a>
</g>
</g>
<!-- Node13 -->
<g id="Node000013" class="node">
<title>Node13</title>
<g id="a_Node000013"><a xlink:href="classvalidation__api_1_1Validation.html#ac59ae7a00f5fc950a3a572524127c4d3" target="_top" xlink:title="Checks if a json object is empty.">
<polygon fill="white" stroke="#666666" points="1415.75,-57.22 1276,-57.22 1276,-23.72 1415.75,-23.72 1415.75,-57.22"/>
<text text-anchor="start" x="1284" y="-43.72" font-family="Helvetica,sans-Serif" font-size="10.00">validation_api::Validation</text>
<text text-anchor="middle" x="1345.88" y="-30.97" font-family="Helvetica,sans-Serif" font-size="10.00">::isNullOrEmpty</text>
</a>
</g>
</g>
<!-- Node11&#45;&gt;Node13 -->
<g id="edge19_Node000011_Node000013" class="edge">
<title>Node11&#45;&gt;Node13</title>
<g id="a_edge19_Node000011_Node000013"><a xlink:title=" ">
<path fill="none" stroke="#63b8ff" d="M1172.94,-196.32C1187.64,-165.85 1222.32,-102.17 1270,-66.47 1271.51,-65.34 1273.08,-64.25 1274.69,-63.21"/>
<polygon fill="#63b8ff" stroke="#63b8ff" points="1276.05,-66.46 1283.01,-58.47 1272.59,-60.38 1276.05,-66.46"/>
</a>
</g>
</g>
<!-- Node14 -->
<g id="Node000014" class="node">
<title>Node14</title>
<g id="a_Node000014"><a xlink:href="namespacevalidation__api.html#ac19e25b4d8364b0f52152440dd5ecbda" target="_top" xlink:title=" ">
<polygon fill="white" stroke="#666666" points="1418.75,-301.85 1273,-301.85 1273,-281.1 1418.75,-281.1 1418.75,-301.85"/>
<text text-anchor="middle" x="1345.88" y="-288.35" font-family="Helvetica,sans-Serif" font-size="10.00">validation_api::isValidUuid</text>
</a>
</g>
</g>
<!-- Node11&#45;&gt;Node14 -->
<g id="edge20_Node000011_Node000014" class="edge">
<title>Node11&#45;&gt;Node14</title>
<g id="a_edge20_Node000011_Node000014"><a xlink:title=" ">
<path fill="none" stroke="#63b8ff" d="M1191.82,-230.63C1212.5,-243.32 1242.21,-260.27 1270,-271.47 1275.25,-273.59 1280.79,-275.55 1286.39,-277.35"/>
<polygon fill="#63b8ff" stroke="#63b8ff" points="1285.14,-280.62 1295.72,-280.17 1287.16,-273.92 1285.14,-280.62"/>
</a>
</g>
</g>
<!-- Node15 -->
<g id="Node000015" class="node">
<title>Node15</title>
<g id="a_Node000015"><a xlink:href="namespacevalidation__api.html#a6dd56dcf7358b332bb906a2d27fddd0b" target="_top" xlink:title="Converts string to all lowercase.">
<polygon fill="white" stroke="#666666" points="1410.88,-262.85 1280.88,-262.85 1280.88,-242.1 1410.88,-242.1 1410.88,-262.85"/>
<text text-anchor="middle" x="1345.88" y="-249.35" font-family="Helvetica,sans-Serif" font-size="10.00">validation_api::toLower</text>
</a>
</g>
</g>
<!-- Node11&#45;&gt;Node15 -->
<g id="edge21_Node000011_Node000015" class="edge">
<title>Node11&#45;&gt;Node15</title>
<g id="a_edge21_Node000011_Node000015"><a xlink:title=" ">
<path fill="none" stroke="#63b8ff" d="M1234.36,-228.5C1250.76,-232.05 1268.12,-235.82 1284.1,-239.29"/>
<polygon fill="#63b8ff" stroke="#63b8ff" points="1282.92,-242.61 1293.44,-241.31 1284.41,-235.77 1282.92,-242.61"/>
</a>
</g>
</g>
<!-- Node16 -->
<g id="Node000016" class="node">
<title>Node16</title>
<g id="a_Node000016"><a xlink:href="namespacevalidation__api.html#aae32fd7a0b5886a49454679d46ed4bd1" target="_top" xlink:title="Validates Ahv string.">
<polygon fill="white" stroke="#666666" points="1420.62,-223.85 1271.12,-223.85 1271.12,-203.1 1420.62,-203.1 1420.62,-223.85"/>
<text text-anchor="middle" x="1345.88" y="-210.35" font-family="Helvetica,sans-Serif" font-size="10.00">validation_api::validateAhv</text>
</a>
</g>
</g>
<!-- Node11&#45;&gt;Node16 -->
<g id="edge22_Node000011_Node000016" class="edge">
<title>Node11&#45;&gt;Node16</title>
<g id="a_edge22_Node000011_Node000016"><a xlink:title=" ">
<path fill="none" stroke="#63b8ff" d="M1234.36,-213.47C1242.59,-213.47 1251.06,-213.47 1259.48,-213.47"/>
<polygon fill="#63b8ff" stroke="#63b8ff" points="1259.39,-216.97 1269.39,-213.47 1259.39,-209.97 1259.39,-216.97"/>
</a>
</g>
</g>
<!-- Node17 -->
<g id="Node000017" class="node">
<title>Node17</title>
<g id="a_Node000017"><a xlink:href="classvalidation__api_1_1Validation.html#a512e2e0c3be1bea95ebfab280ec919ba" target="_top" xlink:title="Validates len options.">
<polygon fill="white" stroke="#666666" points="1415.75,-353.22 1276,-353.22 1276,-319.72 1415.75,-319.72 1415.75,-353.22"/>
<text text-anchor="start" x="1284" y="-339.72" font-family="Helvetica,sans-Serif" font-size="10.00">validation_api::Validation</text>
<text text-anchor="middle" x="1345.88" y="-326.97" font-family="Helvetica,sans-Serif" font-size="10.00">::validateConstraints</text>
</a>
</g>
</g>
<!-- Node11&#45;&gt;Node17 -->
<g id="edge23_Node000011_Node000017" class="edge">
<title>Node11&#45;&gt;Node17</title>
<g id="a_edge23_Node000011_Node000017"><a xlink:title=" ">
<path fill="none" stroke="#63b8ff" d="M1179.45,-230.49C1198.25,-251.86 1233.21,-288.4 1270,-310.47 1272.29,-311.85 1274.66,-313.16 1277.09,-314.42"/>
<polygon fill="#63b8ff" stroke="#63b8ff" points="1275.44,-317.51 1285.97,-318.62 1278.43,-311.18 1275.44,-317.51"/>
</a>
</g>
</g>
<!-- Node18 -->
<g id="Node000018" class="node">
<title>Node18</title>
<g id="a_Node000018"><a xlink:href="namespacevalidation__api.html#a0a2b975e162ced567ba3a6075684092a" target="_top" xlink:title="Validates Iban string.">
<polygon fill="white" stroke="#666666" points="1421.75,-147.85 1270,-147.85 1270,-127.1 1421.75,-127.1 1421.75,-147.85"/>
<text text-anchor="middle" x="1345.88" y="-134.35" font-family="Helvetica,sans-Serif" font-size="10.00">validation_api::validateIban</text>
</a>
</g>
</g>
<!-- Node11&#45;&gt;Node18 -->
<g id="edge25_Node000011_Node000018" class="edge">
<title>Node11&#45;&gt;Node18</title>
<g id="a_edge25_Node000011_Node000018"><a xlink:title=" ">
<path fill="none" stroke="#63b8ff" d="M1196.68,-196.27C1217.21,-185.47 1244.76,-171.71 1270,-161.47 1278.54,-158.01 1287.79,-154.7 1296.78,-151.71"/>
<polygon fill="#63b8ff" stroke="#63b8ff" points="1297.66,-155.1 1306.1,-148.69 1295.51,-148.44 1297.66,-155.1"/>
</a>
</g>
</g>
<!-- Node12&#45;&gt;Node10 -->
<g id="edge17_Node000012_Node000010" class="edge">
<title>Node12&#45;&gt;Node10</title>
<g id="a_edge17_Node000012_Node000010"><a xlink:title=" ">
<path fill="none" stroke="#63b8ff" d="M1412.87,-75.28C1426.24,-71.8 1440.4,-68.11 1454.1,-64.54"/>
<polygon fill="#63b8ff" stroke="#63b8ff" points="1454.71,-68 1463.5,-62.09 1452.94,-61.22 1454.71,-68"/>
</a>
</g>
</g>
<!-- Node17&#45;&gt;Node6 -->
<g id="edge24_Node000017_Node000006" class="edge">
<title>Node17&#45;&gt;Node6</title>
<g id="a_edge24_Node000017_Node000006"><a xlink:title=" ">
<path fill="none" stroke="#63b8ff" d="M1416.01,-353.36C1435.72,-358.17 1456.93,-363.35 1475.71,-367.94"/>
<polygon fill="#63b8ff" stroke="#63b8ff" points="1474.74,-371.3 1485.28,-370.28 1476.4,-364.5 1474.74,-371.3"/>
</a>
</g>
</g>
</g>
</svg>
