<?xml version="1.0" encoding="UTF-8" standalone="no"?>
<!DOCTYPE svg PUBLIC "-//W3C//DTD SVG 1.1//EN"
 "http://www.w3.org/Graphics/SVG/1.1/DTD/svg11.dtd">
<!-- Generated by graphviz version 10.0.1 (0)
 -->
<!-- Title: include/validation&#45;api/ConfigService.hpp Pages: 1 -->
<svg width="750pt" height="225pt"
 viewBox="0.00 0.00 749.74 224.50" xmlns="http://www.w3.org/2000/svg" xmlns:xlink="http://www.w3.org/1999/xlink">
<g id="graph0" class="graph" transform="scale(1 1) rotate(0) translate(4 220.5)">
<title>include/validation&#45;api/ConfigService.hpp</title>
<!-- Node1 -->
<g id="Node000001" class="node">
<title>Node1</title>
<g id="a_Node000001"><a xlink:title=" ">
<polygon fill="#999999" stroke="#666666" points="372.99,-216.5 247.49,-216.5 247.49,-183 372.99,-183 372.99,-216.5"/>
<text text-anchor="start" x="255.49" y="-203" font-family="Helvetica,sans-Serif" font-size="10.00">include/validation</text>
<text text-anchor="middle" x="310.24" y="-190.25" font-family="Helvetica,sans-Serif" font-size="10.00">&#45;api/ConfigService.hpp</text>
</a>
</g>
</g>
<!-- Node2 -->
<g id="Node000002" class="node">
<title>Node2</title>
<g id="a_Node000002"><a xlink:href="Helpers_8hpp.html" target="_top" xlink:title=" ">
<polygon fill="white" stroke="#666666" points="282.11,-140.62 154.36,-140.62 154.36,-119.88 282.11,-119.88 282.11,-140.62"/>
<text text-anchor="middle" x="218.24" y="-127.12" font-family="Helvetica,sans-Serif" font-size="10.00">include/lib/Helpers.hpp</text>
</a>
</g>
</g>
<!-- Node1&#45;&gt;Node2 -->
<g id="edge1_Node000001_Node000002" class="edge">
<title>Node1&#45;&gt;Node2</title>
<g id="a_edge1_Node000001_Node000002"><a xlink:title=" ">
<path fill="none" stroke="#63b8ff" d="M279.29,-176.04C263.08,-164.15 244.07,-150.2 231.62,-141.07"/>
<polygon fill="#63b8ff" stroke="#63b8ff" points="277.08,-178.76 287.21,-181.86 281.22,-173.12 277.08,-178.76"/>
</a>
</g>
</g>
<!-- Node3 -->
<g id="Node000003" class="node">
<title>Node3</title>
<g id="a_Node000003"><a xlink:href="Validation_8hpp.html" target="_top" xlink:title=" ">
<polygon fill="white" stroke="#666666" points="151.74,-77.5 12.74,-77.5 12.74,-56.75 151.74,-56.75 151.74,-77.5"/>
<text text-anchor="middle" x="82.24" y="-64" font-family="Helvetica,sans-Serif" font-size="10.00">include/lib/Validation.hpp</text>
</a>
</g>
</g>
<!-- Node1&#45;&gt;Node3 -->
<g id="edge9_Node000001_Node000003" class="edge">
<title>Node1&#45;&gt;Node3</title>
<g id="a_edge9_Node000001_Node000003"><a xlink:title=" ">
<path fill="none" stroke="#63b8ff" d="M236.3,-185.47C206.22,-177.64 172.26,-165.5 145.24,-147 118.05,-128.39 96.82,-94.57 87.46,-77.92"/>
<polygon fill="#63b8ff" stroke="#63b8ff" points="235.16,-188.79 245.71,-187.8 236.85,-182 235.16,-188.79"/>
</a>
</g>
</g>
<!-- Node4 -->
<g id="Node000004" class="node">
<title>Node4</title>
<g id="a_Node000004"><a xlink:href="ConfigService_8cpp.html" target="_top" xlink:title=" ">
<polygon fill="white" stroke="#666666" points="141.36,-20.75 21.11,-20.75 21.11,0 141.36,0 141.36,-20.75"/>
<text text-anchor="middle" x="81.24" y="-7.25" font-family="Helvetica,sans-Serif" font-size="10.00">src/ConfigService.cpp</text>
</a>
</g>
</g>
<!-- Node1&#45;&gt;Node4 -->
<g id="edge16_Node000001_Node000004" class="edge">
<title>Node1&#45;&gt;Node4</title>
<g id="a_edge16_Node000001_Node000004"><a xlink:title=" ">
<path fill="none" stroke="#63b8ff" d="M235.81,-194.97C159.99,-186.48 47.48,-159.85 3.24,-77.5 -10.42,-52.09 24.69,-32.29 52.16,-21.22"/>
<polygon fill="#63b8ff" stroke="#63b8ff" points="235.37,-198.44 245.67,-195.98 236.08,-191.48 235.37,-198.44"/>
</a>
</g>
</g>
<!-- Node7 -->
<g id="Node000007" class="node">
<title>Node7</title>
<g id="a_Node000007"><a xlink:href="Helpers_8cpp.html" target="_top" xlink:title=" ">
<polygon fill="white" stroke="#666666" points="352.24,-77.5 246.24,-77.5 246.24,-56.75 352.24,-56.75 352.24,-77.5"/>
<text text-anchor="middle" x="299.24" y="-64" font-family="Helvetica,sans-Serif" font-size="10.00">src/lib/Helpers.cpp</text>
</a>
</g>
</g>
<!-- Node1&#45;&gt;Node7 -->
<g id="edge17_Node000001_Node000007" class="edge">
<title>Node1&#45;&gt;Node7</title>
<g id="a_edge17_Node000001_Node000007"><a xlink:title=" ">
<path fill="none" stroke="#63b8ff" d="M307.93,-171.28C305.47,-142.1 301.71,-97.51 300.06,-77.93"/>
<polygon fill="#63b8ff" stroke="#63b8ff" points="304.44,-171.55 308.76,-181.22 311.41,-170.97 304.44,-171.55"/>
</a>
</g>
</g>
<!-- Node8 -->
<g id="Node000008" class="node">
<title>Node8</title>
<g id="a_Node000008"><a xlink:href="ConfigWatcher_8hpp.html" target="_top" xlink:title=" ">
<polygon fill="white" stroke="#666666" points="481.49,-147 352.99,-147 352.99,-113.5 481.49,-113.5 481.49,-147"/>
<text text-anchor="start" x="360.99" y="-133.5" font-family="Helvetica,sans-Serif" font-size="10.00">include/validation</text>
<text text-anchor="middle" x="417.24" y="-120.75" font-family="Helvetica,sans-Serif" font-size="10.00">&#45;api/ConfigWatcher.hpp</text>
</a>
</g>
</g>
<!-- Node1&#45;&gt;Node8 -->
<g id="edge10_Node000001_Node000008" class="edge">
<title>Node1&#45;&gt;Node8</title>
<g id="a_edge10_Node000001_Node000008"><a xlink:title=" ">
<path fill="none" stroke="#63b8ff" d="M345.44,-176.54C360.59,-166.99 377.96,-156.03 391.82,-147.29"/>
<polygon fill="#63b8ff" stroke="#63b8ff" points="343.74,-173.48 337.15,-181.77 347.47,-179.4 343.74,-173.48"/>
</a>
</g>
</g>
<!-- Node9 -->
<g id="Node000009" class="node">
<title>Node9</title>
<g id="a_Node000009"><a xlink:href="main_8cpp.html" target="_top" xlink:title=" ">
<polygon fill="white" stroke="#666666" points="590.36,-77.5 512.11,-77.5 512.11,-56.75 590.36,-56.75 590.36,-77.5"/>
<text text-anchor="middle" x="551.24" y="-64" font-family="Helvetica,sans-Serif" font-size="10.00">src/main.cpp</text>
</a>
</g>
</g>
<!-- Node1&#45;&gt;Node9 -->
<g id="edge18_Node000001_Node000009" class="edge">
<title>Node1&#45;&gt;Node9</title>
<g id="a_edge18_Node000001_Node000009"><a xlink:title=" ">
<path fill="none" stroke="#63b8ff" d="M384.1,-188.41C418.56,-180.98 458.8,-168.34 490.24,-147 517.17,-128.73 537.44,-94.75 546.31,-78"/>
<polygon fill="#63b8ff" stroke="#63b8ff" points="383.71,-184.92 374.62,-190.35 385.11,-191.78 383.71,-184.92"/>
</a>
</g>
</g>
<!-- Node10 -->
<g id="Node000010" class="node">
<title>Node10</title>
<g id="a_Node000010"><a xlink:href="ValidationServer_8hpp.html" target="_top" xlink:title=" ">
<polygon fill="white" stroke="#666666" points="675.36,-147 537.11,-147 537.11,-113.5 675.36,-113.5 675.36,-147"/>
<text text-anchor="start" x="545.11" y="-133.5" font-family="Helvetica,sans-Serif" font-size="10.00">include/validation</text>
<text text-anchor="middle" x="606.24" y="-120.75" font-family="Helvetica,sans-Serif" font-size="10.00">&#45;api/ValidationServer.hpp</text>
</a>
</g>
</g>
<!-- Node1&#45;&gt;Node10 -->
<g id="edge13_Node000001_Node000010" class="edge">
<title>Node1&#45;&gt;Node10</title>
<g id="a_edge13_Node000001_Node000010"><a xlink:title=" ">
<path fill="none" stroke="#63b8ff" d="M384.34,-181.85C431.04,-171.2 490.94,-157.54 536.73,-147.1"/>
<polygon fill="#63b8ff" stroke="#63b8ff" points="383.82,-178.38 374.85,-184.02 385.38,-185.2 383.82,-178.38"/>
</a>
</g>
</g>
<!-- Node2&#45;&gt;Node3 -->
<g id="edge2_Node000002_Node000003" class="edge">
<title>Node2&#45;&gt;Node3</title>
<g id="a_edge2_Node000002_Node000003"><a xlink:title=" ">
<path fill="none" stroke="#63b8ff" d="M186.17,-114.84C160.86,-103.46 126.22,-87.89 104.03,-77.92"/>
<polygon fill="#63b8ff" stroke="#63b8ff" points="184.45,-117.9 195.01,-118.81 187.32,-111.52 184.45,-117.9"/>
</a>
</g>
</g>
<!-- Node2&#45;&gt;Node4 -->
<g id="edge5_Node000002_Node000004" class="edge">
<title>Node2&#45;&gt;Node4</title>
<g id="a_edge5_Node000002_Node000004"><a xlink:title=" ">
<path fill="none" stroke="#63b8ff" d="M206.28,-110.64C195.56,-94.95 178.71,-72.58 160.24,-56.75 142.83,-41.82 119.79,-29.25 103.09,-21.15"/>
<polygon fill="#63b8ff" stroke="#63b8ff" points="203.11,-112.2 211.56,-118.59 208.95,-108.32 203.11,-112.2"/>
</a>
</g>
</g>
<!-- Node5 -->
<g id="Node000005" class="node">
<title>Node5</title>
<g id="a_Node000005"><a xlink:href="Validation_8cpp.html" target="_top" xlink:title=" ">
<polygon fill="white" stroke="#666666" points="276.86,-20.75 159.61,-20.75 159.61,0 276.86,0 276.86,-20.75"/>
<text text-anchor="middle" x="218.24" y="-7.25" font-family="Helvetica,sans-Serif" font-size="10.00">src/lib/Validation.cpp</text>
</a>
</g>
</g>
<!-- Node2&#45;&gt;Node5 -->
<g id="edge8_Node000002_Node000005" class="edge">
<title>Node2&#45;&gt;Node5</title>
<g id="a_edge8_Node000002_Node000005"><a xlink:title=" ">
<path fill="none" stroke="#63b8ff" d="M218.24,-108.21C218.24,-82.52 218.24,-40.17 218.24,-21.15"/>
<polygon fill="#63b8ff" stroke="#63b8ff" points="214.74,-108.09 218.24,-118.09 221.74,-108.09 214.74,-108.09"/>
</a>
</g>
</g>
<!-- Node6 -->
<g id="Node000006" class="node">
<title>Node6</title>
<g id="a_Node000006"><a xlink:href="ConfigWatcher_8cpp.html" target="_top" xlink:title=" ">
<polygon fill="white" stroke="#666666" points="493.86,-77.5 370.61,-77.5 370.61,-56.75 493.86,-56.75 493.86,-77.5"/>
<text text-anchor="middle" x="432.24" y="-64" font-family="Helvetica,sans-Serif" font-size="10.00">src/ConfigWatcher.cpp</text>
</a>
</g>
</g>
<!-- Node2&#45;&gt;Node6 -->
<g id="edge6_Node000002_Node000006" class="edge">
<title>Node2&#45;&gt;Node6</title>
<g id="a_edge6_Node000002_Node000006"><a xlink:title=" ">
<path fill="none" stroke="#63b8ff" d="M263.45,-116.34C303.62,-104.86 361.47,-88.34 397.94,-77.92"/>
<polygon fill="#63b8ff" stroke="#63b8ff" points="262.73,-112.9 254.08,-119.01 264.65,-119.63 262.73,-112.9"/>
</a>
</g>
</g>
<!-- Node2&#45;&gt;Node7 -->
<g id="edge7_Node000002_Node000007" class="edge">
<title>Node2&#45;&gt;Node7</title>
<g id="a_edge7_Node000002_Node000007"><a xlink:title=" ">
<path fill="none" stroke="#63b8ff" d="M240.22,-112.66C254.96,-101.54 273.87,-87.27 286.26,-77.92"/>
<polygon fill="#63b8ff" stroke="#63b8ff" points="238.33,-109.7 232.46,-118.52 242.55,-115.29 238.33,-109.7"/>
</a>
</g>
</g>
<!-- Node3&#45;&gt;Node4 -->
<g id="edge3_Node000003_Node000004" class="edge">
<title>Node3&#45;&gt;Node4</title>
<g id="a_edge3_Node000003_Node000004"><a xlink:title=" ">
<path fill="none" stroke="#63b8ff" d="M81.85,-44.88C81.7,-36.66 81.54,-27.68 81.42,-21.08"/>
<polygon fill="#63b8ff" stroke="#63b8ff" points="78.35,-44.89 82.03,-54.82 85.35,-44.76 78.35,-44.89"/>
</a>
</g>
</g>
<!-- Node3&#45;&gt;Node5 -->
<g id="edge4_Node000003_Node000005" class="edge">
<title>Node3&#45;&gt;Node5</title>
<g id="a_edge4_Node000003_Node000005"><a xlink:title=" ">
<path fill="none" stroke="#63b8ff" d="M117.06,-52.11C141.2,-42.39 172.73,-29.69 194.13,-21.08"/>
<polygon fill="#63b8ff" stroke="#63b8ff" points="115.93,-48.79 107.96,-55.77 118.54,-55.28 115.93,-48.79"/>
</a>
</g>
</g>
<!-- Node8&#45;&gt;Node6 -->
<g id="edge11_Node000008_Node000006" class="edge">
<title>Node8&#45;&gt;Node6</title>
<g id="a_edge11_Node000008_Node000006"><a xlink:title=" ">
<path fill="none" stroke="#63b8ff" d="M423.86,-102.27C425.98,-93.62 428.2,-84.57 429.82,-77.97"/>
<polygon fill="#63b8ff" stroke="#63b8ff" points="420.52,-101.17 421.54,-111.72 427.32,-102.84 420.52,-101.17"/>
</a>
</g>
</g>
<!-- Node8&#45;&gt;Node9 -->
<g id="edge12_Node000008_Node000009" class="edge">
<title>Node8&#45;&gt;Node9</title>
<g id="a_edge12_Node000008_Node000009"><a xlink:title=" ">
<path fill="none" stroke="#63b8ff" d="M463.21,-108.28C485.77,-97.99 511.89,-86.08 529.78,-77.92"/>
<polygon fill="#63b8ff" stroke="#63b8ff" points="461.82,-105.07 454.17,-112.4 464.72,-111.44 461.82,-105.07"/>
</a>
</g>
</g>
<!-- Node10&#45;&gt;Node9 -->
<g id="edge15_Node000010_Node000009" class="edge">
<title>Node10&#45;&gt;Node9</title>
<g id="a_edge15_Node000010_Node000009"><a xlink:title=" ">
<path fill="none" stroke="#63b8ff" d="M584.31,-104.88C575.84,-95.47 566.64,-85.24 560.09,-77.97"/>
<polygon fill="#63b8ff" stroke="#63b8ff" points="581.48,-106.97 590.77,-112.07 586.69,-102.29 581.48,-106.97"/>
</a>
</g>
</g>
<!-- Node11 -->
<g id="Node000011" class="node">
<title>Node11</title>
<g id="a_Node000011"><a xlink:href="ValidationServer_8cpp.html" target="_top" xlink:title=" ">
<polygon fill="white" stroke="#666666" points="741.74,-77.5 608.74,-77.5 608.74,-56.75 741.74,-56.75 741.74,-77.5"/>
<text text-anchor="middle" x="675.24" y="-64" font-family="Helvetica,sans-Serif" font-size="10.00">src/ValidationServer.cpp</text>
</a>
</g>
</g>
<!-- Node10&#45;&gt;Node11 -->
<g id="edge14_Node000010_Node000011" class="edge">
<title>Node10&#45;&gt;Node11</title>
<g id="a_edge14_Node000010_Node000011"><a xlink:title=" ">
<path fill="none" stroke="#63b8ff" d="M632.77,-105.75C643.66,-96.1 655.67,-85.46 664.13,-77.97"/>
<polygon fill="#63b8ff" stroke="#63b8ff" points="630.66,-102.94 625.5,-112.19 635.31,-108.18 630.66,-102.94"/>
</a>
</g>
</g>
</g>
</svg>
