<?xml version="1.0" encoding="UTF-8" standalone="no"?>
<!DOCTYPE svg PUBLIC "-//W3C//DTD SVG 1.1//EN"
 "http://www.w3.org/Graphics/SVG/1.1/DTD/svg11.dtd">
<!-- Generated by graphviz version 10.0.1 (0)
 -->
<!-- Title: src/ConfigWatcher.cpp Pages: 1 -->
<svg width="820pt" height="199pt"
 viewBox="0.00 0.00 820.38 199.00" xmlns="http://www.w3.org/2000/svg" xmlns:xlink="http://www.w3.org/1999/xlink">
<g id="graph0" class="graph" transform="scale(1 1) rotate(0) translate(4 195)">
<title>src/ConfigWatcher.cpp</title>
<!-- Node1 -->
<g id="Node000001" class="node">
<title>Node1</title>
<g id="a_Node000001"><a xlink:title=" ">
<polygon fill="#999999" stroke="#666666" points="598.25,-191 475,-191 475,-170.25 598.25,-170.25 598.25,-191"/>
<text text-anchor="middle" x="536.62" y="-177.5" font-family="Helvetica,sans-Serif" font-size="10.00">src/ConfigWatcher.cpp</text>
</a>
</g>
</g>
<!-- Node2 -->
<g id="Node000002" class="node">
<title>Node2</title>
<g id="a_Node000002"><a xlink:href="ConfigWatcher_8hpp.html" target="_top" xlink:title=" ">
<polygon fill="white" stroke="#666666" points="315.25,-134.25 138,-134.25 138,-113.5 315.25,-113.5 315.25,-134.25"/>
<text text-anchor="middle" x="226.62" y="-120.75" font-family="Helvetica,sans-Serif" font-size="10.00">validation&#45;api/ConfigWatcher.hpp</text>
</a>
</g>
</g>
<!-- Node1&#45;&gt;Node2 -->
<g id="edge1_Node000001_Node000002" class="edge">
<title>Node1&#45;&gt;Node2</title>
<g id="a_edge1_Node000001_Node000002"><a xlink:title=" ">
<path fill="none" stroke="#63b8ff" d="M480.85,-169.77C428.33,-160.5 349.61,-146.6 293.69,-136.72"/>
<polygon fill="#63b8ff" stroke="#63b8ff" points="294.43,-133.3 283.97,-135 293.21,-140.19 294.43,-133.3"/>
</a>
</g>
</g>
<!-- Node11 -->
<g id="Node000011" class="node">
<title>Node11</title>
<g id="a_Node000011"><a xlink:title=" ">
<polygon fill="#e0e0e0" stroke="#999999" points="407.5,-134.25 333.75,-134.25 333.75,-113.5 407.5,-113.5 407.5,-134.25"/>
<text text-anchor="middle" x="370.62" y="-120.75" font-family="Helvetica,sans-Serif" font-size="10.00">sys/inotify.h</text>
</a>
</g>
</g>
<!-- Node1&#45;&gt;Node11 -->
<g id="edge10_Node000001_Node000011" class="edge">
<title>Node1&#45;&gt;Node11</title>
<g id="a_edge10_Node000001_Node000011"><a xlink:title=" ">
<path fill="none" stroke="#63b8ff" d="M506.95,-169.84C480.24,-161.03 440.75,-148 411.14,-138.24"/>
<polygon fill="#63b8ff" stroke="#63b8ff" points="412.36,-134.95 401.76,-135.14 410.16,-141.6 412.36,-134.95"/>
</a>
</g>
</g>
<!-- Node12 -->
<g id="Node000012" class="node">
<title>Node12</title>
<g id="a_Node000012"><a xlink:title=" ">
<polygon fill="#e0e0e0" stroke="#999999" points="543.62,-134.25 425.62,-134.25 425.62,-113.5 543.62,-113.5 543.62,-134.25"/>
<text text-anchor="middle" x="484.62" y="-120.75" font-family="Helvetica,sans-Serif" font-size="10.00">boost/filesystem.hpp</text>
</a>
</g>
</g>
<!-- Node1&#45;&gt;Node12 -->
<g id="edge11_Node000001_Node000012" class="edge">
<title>Node1&#45;&gt;Node12</title>
<g id="a_edge11_Node000001_Node000012"><a xlink:title=" ">
<path fill="none" stroke="#63b8ff" d="M527.33,-169.84C520.23,-162.36 510.25,-151.86 501.72,-142.88"/>
<polygon fill="#63b8ff" stroke="#63b8ff" points="504.31,-140.52 494.88,-135.68 499.23,-145.34 504.31,-140.52"/>
</a>
</g>
</g>
<!-- Node13 -->
<g id="Node000013" class="node">
<title>Node13</title>
<g id="a_Node000013"><a xlink:title=" ">
<polygon fill="#e0e0e0" stroke="#999999" points="615.75,-134.25 561.5,-134.25 561.5,-113.5 615.75,-113.5 615.75,-134.25"/>
<text text-anchor="middle" x="588.62" y="-120.75" font-family="Helvetica,sans-Serif" font-size="10.00">fstream</text>
</a>
</g>
</g>
<!-- Node1&#45;&gt;Node13 -->
<g id="edge12_Node000001_Node000013" class="edge">
<title>Node1&#45;&gt;Node13</title>
<g id="a_edge12_Node000001_Node000013"><a xlink:title=" ">
<path fill="none" stroke="#63b8ff" d="M545.92,-169.84C553.02,-162.36 563,-151.86 571.53,-142.88"/>
<polygon fill="#63b8ff" stroke="#63b8ff" points="574.02,-145.34 578.37,-135.68 568.94,-140.52 574.02,-145.34"/>
</a>
</g>
</g>
<!-- Node14 -->
<g id="Node000014" class="node">
<title>Node14</title>
<g id="a_Node000014"><a xlink:title=" ">
<polygon fill="#e0e0e0" stroke="#999999" points="705,-134.25 634.25,-134.25 634.25,-113.5 705,-113.5 705,-134.25"/>
<text text-anchor="middle" x="669.62" y="-120.75" font-family="Helvetica,sans-Serif" font-size="10.00">semaphore</text>
</a>
</g>
</g>
<!-- Node1&#45;&gt;Node14 -->
<g id="edge13_Node000001_Node000014" class="edge">
<title>Node1&#45;&gt;Node14</title>
<g id="a_edge13_Node000001_Node000014"><a xlink:title=" ">
<path fill="none" stroke="#63b8ff" d="M560.4,-169.84C581.3,-161.23 611.96,-148.61 635.48,-138.93"/>
<polygon fill="#63b8ff" stroke="#63b8ff" points="636.74,-142.2 644.65,-135.15 634.07,-135.72 636.74,-142.2"/>
</a>
</g>
</g>
<!-- Node15 -->
<g id="Node000015" class="node">
<title>Node15</title>
<g id="a_Node000015"><a xlink:title=" ">
<polygon fill="#e0e0e0" stroke="#999999" points="812.38,-134.25 722.88,-134.25 722.88,-113.5 812.38,-113.5 812.38,-134.25"/>
<text text-anchor="middle" x="767.62" y="-120.75" font-family="Helvetica,sans-Serif" font-size="10.00">lib/Helpers.hpp</text>
</a>
</g>
</g>
<!-- Node1&#45;&gt;Node15 -->
<g id="edge14_Node000001_Node000015" class="edge">
<title>Node1&#45;&gt;Node15</title>
<g id="a_edge14_Node000001_Node000015"><a xlink:title=" ">
<path fill="none" stroke="#63b8ff" d="M578.19,-169.77C616.5,-160.69 673.54,-147.17 715.02,-137.34"/>
<polygon fill="#63b8ff" stroke="#63b8ff" points="715.61,-140.8 724.53,-135.09 713.99,-133.99 715.61,-140.8"/>
</a>
</g>
</g>
<!-- Node3 -->
<g id="Node000003" class="node">
<title>Node3</title>
<g id="a_Node000003"><a xlink:title=" ">
<polygon fill="#e0e0e0" stroke="#999999" points="87.25,-77.5 0,-77.5 0,-56.75 87.25,-56.75 87.25,-77.5"/>
<text text-anchor="middle" x="43.62" y="-64" font-family="Helvetica,sans-Serif" font-size="10.00">boost/asio.hpp</text>
</a>
</g>
</g>
<!-- Node2&#45;&gt;Node3 -->
<g id="edge2_Node000002_Node000003" class="edge">
<title>Node2&#45;&gt;Node3</title>
<g id="a_edge2_Node000002_Node000003"><a xlink:title=" ">
<path fill="none" stroke="#63b8ff" d="M193.91,-113.09C164.07,-104.16 119.78,-90.91 87,-81.1"/>
<polygon fill="#63b8ff" stroke="#63b8ff" points="88.4,-77.87 77.82,-78.35 86.39,-84.57 88.4,-77.87"/>
</a>
</g>
</g>
<!-- Node4 -->
<g id="Node000004" class="node">
<title>Node4</title>
<g id="a_Node000004"><a xlink:title=" ">
<polygon fill="#e0e0e0" stroke="#999999" points="197.88,-77.5 105.38,-77.5 105.38,-56.75 197.88,-56.75 197.88,-77.5"/>
<text text-anchor="middle" x="151.62" y="-64" font-family="Helvetica,sans-Serif" font-size="10.00">unordered_map</text>
</a>
</g>
</g>
<!-- Node2&#45;&gt;Node4 -->
<g id="edge3_Node000002_Node000004" class="edge">
<title>Node2&#45;&gt;Node4</title>
<g id="a_edge3_Node000002_Node000004"><a xlink:title=" ">
<path fill="none" stroke="#63b8ff" d="M213.22,-113.09C202.34,-105.15 186.77,-93.78 174.01,-84.46"/>
<polygon fill="#63b8ff" stroke="#63b8ff" points="176.28,-81.79 166.14,-78.72 172.15,-87.44 176.28,-81.79"/>
</a>
</g>
</g>
<!-- Node5 -->
<g id="Node000005" class="node">
<title>Node5</title>
<g id="a_Node000005"><a xlink:href="ConfigService_8hpp.html" target="_top" xlink:title=" ">
<polygon fill="white" stroke="#666666" points="389.75,-77.5 215.5,-77.5 215.5,-56.75 389.75,-56.75 389.75,-77.5"/>
<text text-anchor="middle" x="302.62" y="-64" font-family="Helvetica,sans-Serif" font-size="10.00">validation&#45;api/ConfigService.hpp</text>
</a>
</g>
</g>
<!-- Node2&#45;&gt;Node5 -->
<g id="edge4_Node000002_Node000005" class="edge">
<title>Node2&#45;&gt;Node5</title>
<g id="a_edge4_Node000002_Node000005"><a xlink:title=" ">
<path fill="none" stroke="#63b8ff" d="M240.21,-113.09C251.24,-105.15 267.01,-93.78 279.95,-84.46"/>
<polygon fill="#63b8ff" stroke="#63b8ff" points="281.86,-87.4 287.93,-78.71 277.77,-81.72 281.86,-87.4"/>
</a>
</g>
</g>
<!-- Node10 -->
<g id="Node000010" class="node">
<title>Node10</title>
<g id="a_Node000010"><a xlink:href="IService_8hpp.html" target="_top" xlink:title=" ">
<polygon fill="white" stroke="#666666" points="553.88,-77.5 407.38,-77.5 407.38,-56.75 553.88,-56.75 553.88,-77.5"/>
<text text-anchor="middle" x="480.62" y="-64" font-family="Helvetica,sans-Serif" font-size="10.00">validation&#45;api/IService.hpp</text>
</a>
</g>
</g>
<!-- Node2&#45;&gt;Node10 -->
<g id="edge9_Node000002_Node000010" class="edge">
<title>Node2&#45;&gt;Node10</title>
<g id="a_edge9_Node000002_Node000010"><a xlink:title=" ">
<path fill="none" stroke="#63b8ff" d="M272.33,-113.02C314.73,-103.88 377.98,-90.25 423.65,-80.41"/>
<polygon fill="#63b8ff" stroke="#63b8ff" points="424.34,-83.84 433.38,-78.31 422.87,-76.99 424.34,-83.84"/>
</a>
</g>
</g>
<!-- Node6 -->
<g id="Node000006" class="node">
<title>Node6</title>
<g id="a_Node000006"><a xlink:title=" ">
<polygon fill="#e0e0e0" stroke="#999999" points="173.88,-20.75 81.38,-20.75 81.38,0 173.88,0 173.88,-20.75"/>
<text text-anchor="middle" x="127.62" y="-7.25" font-family="Helvetica,sans-Serif" font-size="10.00">spdlog/spdlog.h</text>
</a>
</g>
</g>
<!-- Node5&#45;&gt;Node6 -->
<g id="edge5_Node000005_Node000006" class="edge">
<title>Node5&#45;&gt;Node6</title>
<g id="a_edge5_Node000005_Node000006"><a xlink:title=" ">
<path fill="none" stroke="#63b8ff" d="M271.34,-56.34C242.93,-47.45 200.82,-34.27 169.52,-24.48"/>
<polygon fill="#63b8ff" stroke="#63b8ff" points="170.97,-21.27 160.38,-21.62 168.88,-27.95 170.97,-21.27"/>
</a>
</g>
</g>
<!-- Node7 -->
<g id="Node000007" class="node">
<title>Node7</title>
<g id="a_Node000007"><a xlink:title=" ">
<polygon fill="#e0e0e0" stroke="#999999" points="290.88,-20.75 192.38,-20.75 192.38,0 290.88,0 290.88,-20.75"/>
<text text-anchor="middle" x="241.62" y="-7.25" font-family="Helvetica,sans-Serif" font-size="10.00">boost/thread.hpp</text>
</a>
</g>
</g>
<!-- Node5&#45;&gt;Node7 -->
<g id="edge6_Node000005_Node000007" class="edge">
<title>Node5&#45;&gt;Node7</title>
<g id="a_edge6_Node000005_Node000007"><a xlink:title=" ">
<path fill="none" stroke="#63b8ff" d="M291.72,-56.34C283.13,-48.63 270.95,-37.7 260.75,-28.54"/>
<polygon fill="#63b8ff" stroke="#63b8ff" points="263.34,-26.16 253.56,-22.09 258.67,-31.37 263.34,-26.16"/>
</a>
</g>
</g>
<!-- Node8 -->
<g id="Node000008" class="node">
<title>Node8</title>
<g id="a_Node000008"><a xlink:title=" ">
<polygon fill="#e0e0e0" stroke="#999999" points="418.12,-20.75 309.12,-20.75 309.12,0 418.12,0 418.12,-20.75"/>
<text text-anchor="middle" x="363.62" y="-7.25" font-family="Helvetica,sans-Serif" font-size="10.00">nlohmann/json.hpp</text>
</a>
</g>
</g>
<!-- Node5&#45;&gt;Node8 -->
<g id="edge7_Node000005_Node000008" class="edge">
<title>Node5&#45;&gt;Node8</title>
<g id="a_edge7_Node000005_Node000008"><a xlink:title=" ">
<path fill="none" stroke="#63b8ff" d="M313.53,-56.34C322.12,-48.63 334.3,-37.7 344.5,-28.54"/>
<polygon fill="#63b8ff" stroke="#63b8ff" points="346.58,-31.37 351.69,-22.09 341.91,-26.16 346.58,-31.37"/>
</a>
</g>
</g>
<!-- Node9 -->
<g id="Node000009" class="node">
<title>Node9</title>
<g id="a_Node000009"><a xlink:title=" ">
<polygon fill="#e0e0e0" stroke="#999999" points="513,-20.75 436.25,-20.75 436.25,0 513,0 513,-20.75"/>
<text text-anchor="middle" x="474.62" y="-7.25" font-family="Helvetica,sans-Serif" font-size="10.00">pugixml.hpp</text>
</a>
</g>
</g>
<!-- Node5&#45;&gt;Node9 -->
<g id="edge8_Node000005_Node000009" class="edge">
<title>Node5&#45;&gt;Node9</title>
<g id="a_edge8_Node000005_Node000009"><a xlink:title=" ">
<path fill="none" stroke="#63b8ff" d="M333.38,-56.34C361.17,-47.49 402.32,-34.39 433.05,-24.61"/>
<polygon fill="#63b8ff" stroke="#63b8ff" points="433.94,-28 442.41,-21.63 431.82,-21.33 433.94,-28"/>
</a>
</g>
</g>
</g>
</svg>
