<?xml version="1.0" encoding="UTF-8" standalone="no"?>
<!DOCTYPE svg PUBLIC "-//W3C//DTD SVG 1.1//EN"
 "http://www.w3.org/Graphics/SVG/1.1/DTD/svg11.dtd">
<!-- Generated by graphviz version 10.0.1 (0)
 -->
<!-- Title: include/validation&#45;api/ConfigService.hpp Pages: 1 -->
<svg width="777pt" height="168pt"
 viewBox="0.00 0.00 777.25 167.75" xmlns="http://www.w3.org/2000/svg" xmlns:xlink="http://www.w3.org/1999/xlink">
<g id="graph0" class="graph" transform="scale(1 1) rotate(0) translate(4 163.75)">
<title>include/validation&#45;api/ConfigService.hpp</title>
<!-- Node1 -->
<g id="Node000001" class="node">
<title>Node1</title>
<g id="a_Node000001"><a xlink:title=" ">
<polygon fill="#999999" stroke="#666666" points="352.88,-159.75 227.38,-159.75 227.38,-126.25 352.88,-126.25 352.88,-159.75"/>
<text text-anchor="start" x="235.38" y="-146.25" font-family="Helvetica,sans-Serif" font-size="10.00">include/validation</text>
<text text-anchor="middle" x="290.12" y="-133.5" font-family="Helvetica,sans-Serif" font-size="10.00">&#45;api/ConfigService.hpp</text>
</a>
</g>
</g>
<!-- Node2 -->
<g id="Node000002" class="node">
<title>Node2</title>
<g id="a_Node000002"><a xlink:href="Helpers_8hpp.html" target="_top" xlink:title=" ">
<polygon fill="white" stroke="#666666" points="400,-83.88 272.25,-83.88 272.25,-63.12 400,-63.12 400,-83.88"/>
<text text-anchor="middle" x="336.12" y="-70.38" font-family="Helvetica,sans-Serif" font-size="10.00">include/lib/Helpers.hpp</text>
</a>
</g>
</g>
<!-- Node1&#45;&gt;Node2 -->
<g id="edge1_Node000001_Node000002" class="edge">
<title>Node1&#45;&gt;Node2</title>
<g id="a_edge1_Node000001_Node000002"><a xlink:title=" ">
<path fill="none" stroke="#63b8ff" d="M307.44,-116.59C315.11,-105.34 323.67,-92.77 329.43,-84.32"/>
<polygon fill="#63b8ff" stroke="#63b8ff" points="304.62,-114.52 301.88,-124.75 310.4,-118.46 304.62,-114.52"/>
</a>
</g>
</g>
<!-- Node3 -->
<g id="Node000003" class="node">
<title>Node3</title>
<g id="a_Node000003"><a xlink:href="ConfigService_8cpp.html" target="_top" xlink:title=" ">
<polygon fill="white" stroke="#666666" points="120.25,-20.75 0,-20.75 0,0 120.25,0 120.25,-20.75"/>
<text text-anchor="middle" x="60.12" y="-7.25" font-family="Helvetica,sans-Serif" font-size="10.00">src/ConfigService.cpp</text>
</a>
</g>
</g>
<!-- Node1&#45;&gt;Node3 -->
<g id="edge16_Node000001_Node000003" class="edge">
<title>Node1&#45;&gt;Node3</title>
<g id="a_edge16_Node000001_Node000003"><a xlink:title=" ">
<path fill="none" stroke="#63b8ff" d="M215.71,-137.53C147.07,-131.67 52.38,-118.57 29.12,-90.25 11.76,-69.1 35.99,-37.05 50.54,-21.1"/>
<polygon fill="#63b8ff" stroke="#63b8ff" points="215.16,-140.99 225.41,-138.32 215.73,-134.02 215.16,-140.99"/>
</a>
</g>
</g>
<!-- Node6 -->
<g id="Node000006" class="node">
<title>Node6</title>
<g id="a_Node000006"><a xlink:href="Helpers_8cpp.html" target="_top" xlink:title=" ">
<polygon fill="white" stroke="#666666" points="380.12,-20.75 274.12,-20.75 274.12,0 380.12,0 380.12,-20.75"/>
<text text-anchor="middle" x="327.12" y="-7.25" font-family="Helvetica,sans-Serif" font-size="10.00">src/lib/Helpers.cpp</text>
</a>
</g>
</g>
<!-- Node1&#45;&gt;Node6 -->
<g id="edge17_Node000001_Node000006" class="edge">
<title>Node1&#45;&gt;Node6</title>
<g id="a_edge17_Node000001_Node000006"><a xlink:title=" ">
<path fill="none" stroke="#63b8ff" d="M271.92,-116.46C261.89,-99.04 253.29,-75.77 263.12,-56.75 271.63,-40.29 289.16,-28.52 303.73,-21.09"/>
<polygon fill="#63b8ff" stroke="#63b8ff" points="268.79,-118.06 277.05,-124.68 274.72,-114.35 268.79,-118.06"/>
</a>
</g>
</g>
<!-- Node7 -->
<g id="Node000007" class="node">
<title>Node7</title>
<g id="a_Node000007"><a xlink:href="Validation_8cpp.html" target="_top" xlink:title=" ">
<polygon fill="white" stroke="#666666" points="255.75,-20.75 138.5,-20.75 138.5,0 255.75,0 255.75,-20.75"/>
<text text-anchor="middle" x="197.12" y="-7.25" font-family="Helvetica,sans-Serif" font-size="10.00">src/lib/Validation.cpp</text>
</a>
</g>
</g>
<!-- Node1&#45;&gt;Node7 -->
<g id="edge18_Node000001_Node000007" class="edge">
<title>Node1&#45;&gt;Node7</title>
<g id="a_edge18_Node000001_Node000007"><a xlink:title=" ">
<path fill="none" stroke="#63b8ff" d="M272.22,-116.85C251.5,-87.75 218.42,-41.29 204.11,-21.18"/>
<polygon fill="#63b8ff" stroke="#63b8ff" points="269.19,-118.63 277.84,-124.75 274.89,-114.57 269.19,-118.63"/>
</a>
</g>
</g>
<!-- Node8 -->
<g id="Node000008" class="node">
<title>Node8</title>
<g id="a_Node000008"><a xlink:href="Validation_8hpp.html" target="_top" xlink:title=" ">
<polygon fill="white" stroke="#666666" points="177.62,-83.88 38.62,-83.88 38.62,-63.12 177.62,-63.12 177.62,-83.88"/>
<text text-anchor="middle" x="108.12" y="-70.38" font-family="Helvetica,sans-Serif" font-size="10.00">include/lib/Validation.hpp</text>
</a>
</g>
</g>
<!-- Node1&#45;&gt;Node8 -->
<g id="edge7_Node000001_Node000008" class="edge">
<title>Node1&#45;&gt;Node8</title>
<g id="a_edge7_Node000001_Node000008"><a xlink:title=" ">
<path fill="none" stroke="#63b8ff" d="M236,-121.92C202.59,-109.54 161.21,-94.19 134.74,-84.37"/>
<polygon fill="#63b8ff" stroke="#63b8ff" points="234.52,-125.11 245.11,-125.31 236.95,-118.55 234.52,-125.11"/>
</a>
</g>
</g>
<!-- Node9 -->
<g id="Node000009" class="node">
<title>Node9</title>
<g id="a_Node000009"><a xlink:href="ConfigWatcher_8hpp.html" target="_top" xlink:title=" ">
<polygon fill="white" stroke="#666666" points="546.38,-90.25 417.88,-90.25 417.88,-56.75 546.38,-56.75 546.38,-90.25"/>
<text text-anchor="start" x="425.88" y="-76.75" font-family="Helvetica,sans-Serif" font-size="10.00">include/validation</text>
<text text-anchor="middle" x="482.12" y="-64" font-family="Helvetica,sans-Serif" font-size="10.00">&#45;api/ConfigWatcher.hpp</text>
</a>
</g>
</g>
<!-- Node1&#45;&gt;Node9 -->
<g id="edge10_Node000001_Node000009" class="edge">
<title>Node1&#45;&gt;Node9</title>
<g id="a_edge10_Node000001_Node000009"><a xlink:title=" ">
<path fill="none" stroke="#63b8ff" d="M346.73,-122.1C375.23,-112.08 409.33,-100.09 436.18,-90.65"/>
<polygon fill="#63b8ff" stroke="#63b8ff" points="345.81,-118.71 337.54,-125.33 348.14,-125.32 345.81,-118.71"/>
</a>
</g>
</g>
<!-- Node10 -->
<g id="Node000010" class="node">
<title>Node10</title>
<g id="a_Node000010"><a xlink:href="main_8cpp.html" target="_top" xlink:title=" ">
<polygon fill="white" stroke="#666666" points="769.25,-20.75 691,-20.75 691,0 769.25,0 769.25,-20.75"/>
<text text-anchor="middle" x="730.12" y="-7.25" font-family="Helvetica,sans-Serif" font-size="10.00">src/main.cpp</text>
</a>
</g>
</g>
<!-- Node1&#45;&gt;Node10 -->
<g id="edge19_Node000001_Node000010" class="edge">
<title>Node1&#45;&gt;Node10</title>
<g id="a_edge19_Node000001_Node000010"><a xlink:title=" ">
<path fill="none" stroke="#63b8ff" d="M364.71,-142.7C471.72,-142.11 661.42,-134.59 711.12,-90.25 730.99,-72.53 731.88,-37.98 730.98,-21.11"/>
<polygon fill="#63b8ff" stroke="#63b8ff" points="364.86,-139.2 354.87,-142.73 364.88,-146.2 364.86,-139.2"/>
</a>
</g>
</g>
<!-- Node11 -->
<g id="Node000011" class="node">
<title>Node11</title>
<g id="a_Node000011"><a xlink:href="ValidationServer_8hpp.html" target="_top" xlink:title=" ">
<polygon fill="white" stroke="#666666" points="702.25,-90.25 564,-90.25 564,-56.75 702.25,-56.75 702.25,-90.25"/>
<text text-anchor="start" x="572" y="-76.75" font-family="Helvetica,sans-Serif" font-size="10.00">include/validation</text>
<text text-anchor="middle" x="633.12" y="-64" font-family="Helvetica,sans-Serif" font-size="10.00">&#45;api/ValidationServer.hpp</text>
</a>
</g>
</g>
<!-- Node1&#45;&gt;Node11 -->
<g id="edge13_Node000001_Node000011" class="edge">
<title>Node1&#45;&gt;Node11</title>
<g id="a_edge13_Node000001_Node000011"><a xlink:title=" ">
<path fill="none" stroke="#63b8ff" d="M364.35,-127.64C417.5,-117.32 490.74,-103.04 555.12,-90.25 557.97,-89.68 560.87,-89.11 563.81,-88.52"/>
<polygon fill="#63b8ff" stroke="#63b8ff" points="363.96,-124.15 354.81,-129.49 365.3,-131.02 363.96,-124.15"/>
</a>
</g>
</g>
<!-- Node2&#45;&gt;Node3 -->
<g id="edge2_Node000002_Node000003" class="edge">
<title>Node2&#45;&gt;Node3</title>
<g id="a_edge2_Node000002_Node000003"><a xlink:title=" ">
<path fill="none" stroke="#63b8ff" d="M280.78,-60.24C228.88,-48.75 152.3,-31.79 104.36,-21.17"/>
<polygon fill="#63b8ff" stroke="#63b8ff" points="279.78,-63.61 290.3,-62.35 281.3,-56.77 279.78,-63.61"/>
</a>
</g>
</g>
<!-- Node4 -->
<g id="Node000004" class="node">
<title>Node4</title>
<g id="a_Node000004"><a xlink:href="ConfigWatcher_8cpp.html" target="_top" xlink:title=" ">
<polygon fill="white" stroke="#666666" points="521.75,-20.75 398.5,-20.75 398.5,0 521.75,0 521.75,-20.75"/>
<text text-anchor="middle" x="460.12" y="-7.25" font-family="Helvetica,sans-Serif" font-size="10.00">src/ConfigWatcher.cpp</text>
</a>
</g>
</g>
<!-- Node2&#45;&gt;Node4 -->
<g id="edge3_Node000002_Node000004" class="edge">
<title>Node2&#45;&gt;Node4</title>
<g id="a_edge3_Node000002_Node000004"><a xlink:title=" ">
<path fill="none" stroke="#63b8ff" d="M366.29,-57.63C389.29,-46.29 420.29,-31.01 440.25,-21.17"/>
<polygon fill="#63b8ff" stroke="#63b8ff" points="364.83,-54.45 357.41,-62.01 367.92,-60.73 364.83,-54.45"/>
</a>
</g>
</g>
<!-- Node5 -->
<g id="Node000005" class="node">
<title>Node5</title>
<g id="a_Node000005"><a xlink:href="ValidationServer_8cpp.html" target="_top" xlink:title=" ">
<polygon fill="white" stroke="#666666" points="672.62,-20.75 539.62,-20.75 539.62,0 672.62,0 672.62,-20.75"/>
<text text-anchor="middle" x="606.12" y="-7.25" font-family="Helvetica,sans-Serif" font-size="10.00">src/ValidationServer.cpp</text>
</a>
</g>
</g>
<!-- Node2&#45;&gt;Node5 -->
<g id="edge4_Node000002_Node000005" class="edge">
<title>Node2&#45;&gt;Node5</title>
<g id="a_edge4_Node000002_Node000005"><a xlink:title=" ">
<path fill="none" stroke="#63b8ff" d="M390.59,-60.17C441.35,-48.68 516.05,-31.77 562.85,-21.17"/>
<polygon fill="#63b8ff" stroke="#63b8ff" points="389.96,-56.72 380.98,-62.35 391.51,-63.55 389.96,-56.72"/>
</a>
</g>
</g>
<!-- Node2&#45;&gt;Node6 -->
<g id="edge5_Node000002_Node000006" class="edge">
<title>Node2&#45;&gt;Node6</title>
<g id="a_edge5_Node000002_Node000006"><a xlink:title=" ">
<path fill="none" stroke="#63b8ff" d="M333.04,-51.58C331.51,-41.19 329.74,-29.15 328.54,-20.97"/>
<polygon fill="#63b8ff" stroke="#63b8ff" points="329.54,-51.8 334.46,-61.18 336.46,-50.78 329.54,-51.8"/>
</a>
</g>
</g>
<!-- Node2&#45;&gt;Node7 -->
<g id="edge6_Node000002_Node000007" class="edge">
<title>Node2&#45;&gt;Node7</title>
<g id="a_edge6_Node000002_Node000007"><a xlink:title=" ">
<path fill="none" stroke="#63b8ff" d="M303.35,-58.09C277.48,-46.71 242.08,-31.14 219.4,-21.17"/>
<polygon fill="#63b8ff" stroke="#63b8ff" points="301.84,-61.25 312.41,-62.07 304.66,-54.84 301.84,-61.25"/>
</a>
</g>
</g>
<!-- Node8&#45;&gt;Node3 -->
<g id="edge8_Node000008_Node000003" class="edge">
<title>Node8&#45;&gt;Node3</title>
<g id="a_edge8_Node000008_Node000003"><a xlink:title=" ">
<path fill="none" stroke="#63b8ff" d="M93.53,-53.92C84.99,-43.04 74.57,-29.77 67.66,-20.97"/>
<polygon fill="#63b8ff" stroke="#63b8ff" points="90.55,-55.79 99.48,-61.49 96.05,-51.46 90.55,-55.79"/>
</a>
</g>
</g>
<!-- Node8&#45;&gt;Node7 -->
<g id="edge9_Node000008_Node000007" class="edge">
<title>Node8&#45;&gt;Node7</title>
<g id="a_edge9_Node000008_Node000007"><a xlink:title=" ">
<path fill="none" stroke="#63b8ff" d="M131.82,-56.23C148.08,-45.06 169.12,-30.61 182.86,-21.17"/>
<polygon fill="#63b8ff" stroke="#63b8ff" points="129.93,-53.28 123.67,-61.82 133.9,-59.05 129.93,-53.28"/>
</a>
</g>
</g>
<!-- Node9&#45;&gt;Node4 -->
<g id="edge11_Node000009_Node000004" class="edge">
<title>Node9&#45;&gt;Node4</title>
<g id="a_edge11_Node000009_Node000004"><a xlink:title=" ">
<path fill="none" stroke="#63b8ff" d="M472.52,-45.81C469.37,-37.07 466.07,-27.9 463.67,-21.22"/>
<polygon fill="#63b8ff" stroke="#63b8ff" points="469.15,-46.79 475.83,-55.02 475.74,-44.42 469.15,-46.79"/>
</a>
</g>
</g>
<!-- Node9&#45;&gt;Node10 -->
<g id="edge12_Node000009_Node000010" class="edge">
<title>Node9&#45;&gt;Node10</title>
<g id="a_edge12_Node000009_Node000010"><a xlink:title=" ">
<path fill="none" stroke="#63b8ff" d="M557.57,-53.9C601.48,-43.08 655.03,-29.88 690.72,-21.09"/>
<polygon fill="#63b8ff" stroke="#63b8ff" points="556.98,-50.45 548.11,-56.24 558.65,-57.24 556.98,-50.45"/>
</a>
</g>
</g>
<!-- Node11&#45;&gt;Node5 -->
<g id="edge14_Node000011_Node000005" class="edge">
<title>Node11&#45;&gt;Node5</title>
<g id="a_edge14_Node000011_Node000005"><a xlink:title=" ">
<path fill="none" stroke="#63b8ff" d="M621.47,-46.11C617.57,-37.27 613.46,-27.97 610.47,-21.22"/>
<polygon fill="#63b8ff" stroke="#63b8ff" points="618.18,-47.32 625.42,-55.06 624.58,-44.49 618.18,-47.32"/>
</a>
</g>
</g>
<!-- Node11&#45;&gt;Node10 -->
<g id="edge15_Node000011_Node000010" class="edge">
<title>Node11&#45;&gt;Node10</title>
<g id="a_edge15_Node000011_Node000010"><a xlink:title=" ">
<path fill="none" stroke="#63b8ff" d="M668.41,-50.27C684.27,-40.27 702.17,-28.99 714.59,-21.17"/>
<polygon fill="#63b8ff" stroke="#63b8ff" points="666.74,-47.18 660.15,-55.47 670.47,-53.1 666.74,-47.18"/>
</a>
</g>
</g>
</g>
</svg>
