<?xml version="1.0" encoding="UTF-8" standalone="no"?>
<!DOCTYPE svg PUBLIC "-//W3C//DTD SVG 1.1//EN"
 "http://www.w3.org/Graphics/SVG/1.1/DTD/svg11.dtd">
<!-- Generated by graphviz version 12.2.1 (0)
 -->
<!-- Title: include/validation&#45;api/ConfigService.hpp Pages: 1 -->
<svg width="401pt" height="96pt"
 viewBox="0.00 0.00 401.38 96.00" xmlns="http://www.w3.org/2000/svg" xmlns:xlink="http://www.w3.org/1999/xlink">
<g id="graph0" class="graph" transform="scale(1 1) rotate(0) translate(4 92)">
<title>include/validation&#45;api/ConfigService.hpp</title>
<!-- Node1 -->
<g id="Node000001" class="node">
<title>Node1</title>
<g id="a_Node000001"><a xlink:title=" ">
<polygon fill="#999999" stroke="#666666" points="259.62,-88 144.62,-88 144.62,-56 259.62,-56 259.62,-88"/>
<text text-anchor="start" x="152.62" y="-74.5" font-family="Helvetica,sans-Serif" font-size="10.00">include/validation</text>
<text text-anchor="middle" x="202.12" y="-62.5" font-family="Helvetica,sans-Serif" font-size="10.00">&#45;api/ConfigService.hpp</text>
</a>
</g>
</g>
<!-- Node2 -->
<g id="Node000002" class="node">
<title>Node2</title>
<g id="a_Node000002"><a xlink:title=" ">
<polygon fill="#e0e0e0" stroke="#999999" points="84.25,-20 0,-20 0,0 84.25,0 84.25,-20"/>
<text text-anchor="middle" x="42.12" y="-6.5" font-family="Helvetica,sans-Serif" font-size="10.00">spdlog/spdlog.h</text>
</a>
</g>
</g>
<!-- Node1&#45;&gt;Node2 -->
<g id="edge1_Node000001_Node000002" class="edge">
<title>Node1&#45;&gt;Node2</title>
<g id="a_edge1_Node000001_Node000002"><a xlink:title=" ">
<path fill="none" stroke="#63b8ff" d="M160.92,-55.55C135.23,-45.91 102.49,-33.64 77.89,-24.41"/>
<polygon fill="#63b8ff" stroke="#63b8ff" points="79.22,-21.17 68.63,-20.94 76.76,-27.73 79.22,-21.17"/>
</a>
</g>
</g>
<!-- Node3 -->
<g id="Node000003" class="node">
<title>Node3</title>
<g id="a_Node000003"><a xlink:title=" ">
<polygon fill="#e0e0e0" stroke="#999999" points="191.5,-20 102.75,-20 102.75,0 191.5,0 191.5,-20"/>
<text text-anchor="middle" x="147.12" y="-6.5" font-family="Helvetica,sans-Serif" font-size="10.00">boost/thread.hpp</text>
</a>
</g>
</g>
<!-- Node1&#45;&gt;Node3 -->
<g id="edge2_Node000001_Node000003" class="edge">
<title>Node1&#45;&gt;Node3</title>
<g id="a_edge2_Node000001_Node000003"><a xlink:title=" ">
<path fill="none" stroke="#63b8ff" d="M187.96,-55.55C180.48,-47.39 171.27,-37.33 163.48,-28.84"/>
<polygon fill="#63b8ff" stroke="#63b8ff" points="166.11,-26.53 156.77,-21.52 160.95,-31.26 166.11,-26.53"/>
</a>
</g>
</g>
<!-- Node4 -->
<g id="Node000004" class="node">
<title>Node4</title>
<g id="a_Node000004"><a xlink:title=" ">
<polygon fill="#e0e0e0" stroke="#999999" points="307,-20 209.25,-20 209.25,0 307,0 307,-20"/>
<text text-anchor="middle" x="258.12" y="-6.5" font-family="Helvetica,sans-Serif" font-size="10.00">nlohmann/json.hpp</text>
</a>
</g>
</g>
<!-- Node1&#45;&gt;Node4 -->
<g id="edge3_Node000001_Node000004" class="edge">
<title>Node1&#45;&gt;Node4</title>
<g id="a_edge3_Node000001_Node000004"><a xlink:title=" ">
<path fill="none" stroke="#63b8ff" d="M216.55,-55.55C224.24,-47.3 233.75,-37.12 241.72,-28.57"/>
<polygon fill="#63b8ff" stroke="#63b8ff" points="244.05,-31.21 248.31,-21.51 238.93,-26.44 244.05,-31.21"/>
</a>
</g>
</g>
<!-- Node5 -->
<g id="Node000005" class="node">
<title>Node5</title>
<g id="a_Node000005"><a xlink:title=" ">
<polygon fill="#e0e0e0" stroke="#999999" points="393.38,-20 324.88,-20 324.88,0 393.38,0 393.38,-20"/>
<text text-anchor="middle" x="359.12" y="-6.5" font-family="Helvetica,sans-Serif" font-size="10.00">pugixml.hpp</text>
</a>
</g>
</g>
<!-- Node1&#45;&gt;Node5 -->
<g id="edge4_Node000001_Node000005" class="edge">
<title>Node1&#45;&gt;Node5</title>
<g id="a_edge4_Node000001_Node000005"><a xlink:title=" ">
<path fill="none" stroke="#63b8ff" d="M242.56,-55.55C267.77,-45.91 299.89,-33.64 324.03,-24.41"/>
<polygon fill="#63b8ff" stroke="#63b8ff" points="325,-27.79 333.09,-20.95 322.5,-21.25 325,-27.79"/>
</a>
</g>
</g>
</g>
</svg>
