<?xml version="1.0" encoding="UTF-8" standalone="no"?>
<!DOCTYPE svg PUBLIC "-//W3C//DTD SVG 1.1//EN"
 "http://www.w3.org/Graphics/SVG/1.1/DTD/svg11.dtd">
<!-- Generated by graphviz version 10.0.1 (0)
 -->
<!-- Title: include/validation&#45;api/ConfigWatcher.hpp Pages: 1 -->
<svg width="562pt" height="155pt"
 viewBox="0.00 0.00 561.88 155.00" xmlns="http://www.w3.org/2000/svg" xmlns:xlink="http://www.w3.org/1999/xlink">
<g id="graph0" class="graph" transform="scale(1 1) rotate(0) translate(4 151)">
<title>include/validation&#45;api/ConfigWatcher.hpp</title>
<!-- Node1 -->
<g id="Node000001" class="node">
<title>Node1</title>
<g id="a_Node000001"><a xlink:title=" ">
<polygon fill="#999999" stroke="#666666" points="290.88,-147 162.38,-147 162.38,-113.5 290.88,-113.5 290.88,-147"/>
<text text-anchor="start" x="170.38" y="-133.5" font-family="Helvetica,sans-Serif" font-size="10.00">include/validation</text>
<text text-anchor="middle" x="226.62" y="-120.75" font-family="Helvetica,sans-Serif" font-size="10.00">&#45;api/ConfigWatcher.hpp</text>
</a>
</g>
</g>
<!-- Node2 -->
<g id="Node000002" class="node">
<title>Node2</title>
<g id="a_Node000002"><a xlink:title=" ">
<polygon fill="#e0e0e0" stroke="#999999" points="87.25,-77.5 0,-77.5 0,-56.75 87.25,-56.75 87.25,-77.5"/>
<text text-anchor="middle" x="43.62" y="-64" font-family="Helvetica,sans-Serif" font-size="10.00">boost/asio.hpp</text>
</a>
</g>
</g>
<!-- Node1&#45;&gt;Node2 -->
<g id="edge1_Node000001_Node000002" class="edge">
<title>Node1&#45;&gt;Node2</title>
<g id="a_edge1_Node000001_Node000002"><a xlink:title=" ">
<path fill="none" stroke="#63b8ff" d="M178.06,-113.03C148.66,-103.21 111.59,-90.83 83.83,-81.56"/>
<polygon fill="#63b8ff" stroke="#63b8ff" points="84.96,-78.24 74.37,-78.39 82.75,-84.88 84.96,-78.24"/>
</a>
</g>
</g>
<!-- Node3 -->
<g id="Node000003" class="node">
<title>Node3</title>
<g id="a_Node000003"><a xlink:title=" ">
<polygon fill="#e0e0e0" stroke="#999999" points="197.88,-77.5 105.38,-77.5 105.38,-56.75 197.88,-56.75 197.88,-77.5"/>
<text text-anchor="middle" x="151.62" y="-64" font-family="Helvetica,sans-Serif" font-size="10.00">unordered_map</text>
</a>
</g>
</g>
<!-- Node1&#45;&gt;Node3 -->
<g id="edge2_Node000001_Node000003" class="edge">
<title>Node1&#45;&gt;Node3</title>
<g id="a_edge2_Node000001_Node000003"><a xlink:title=" ">
<path fill="none" stroke="#63b8ff" d="M206.92,-113.19C196.31,-104.55 183.23,-93.88 172.46,-85.1"/>
<polygon fill="#63b8ff" stroke="#63b8ff" points="174.84,-82.53 164.87,-78.92 170.41,-87.95 174.84,-82.53"/>
</a>
</g>
</g>
<!-- Node4 -->
<g id="Node000004" class="node">
<title>Node4</title>
<g id="a_Node000004"><a xlink:href="ConfigService_8hpp.html" target="_top" xlink:title=" ">
<polygon fill="white" stroke="#666666" points="389.75,-77.5 215.5,-77.5 215.5,-56.75 389.75,-56.75 389.75,-77.5"/>
<text text-anchor="middle" x="302.62" y="-64" font-family="Helvetica,sans-Serif" font-size="10.00">validation&#45;api/ConfigService.hpp</text>
</a>
</g>
</g>
<!-- Node1&#45;&gt;Node4 -->
<g id="edge3_Node000001_Node000004" class="edge">
<title>Node1&#45;&gt;Node4</title>
<g id="a_edge3_Node000001_Node000004"><a xlink:title=" ">
<path fill="none" stroke="#63b8ff" d="M246.59,-113.19C257.34,-104.55 270.6,-93.88 281.52,-85.1"/>
<polygon fill="#63b8ff" stroke="#63b8ff" points="283.61,-87.91 289.21,-78.92 279.22,-82.46 283.61,-87.91"/>
</a>
</g>
</g>
<!-- Node9 -->
<g id="Node000009" class="node">
<title>Node9</title>
<g id="a_Node000009"><a xlink:href="IService_8hpp.html" target="_top" xlink:title=" ">
<polygon fill="white" stroke="#666666" points="553.88,-77.5 407.38,-77.5 407.38,-56.75 553.88,-56.75 553.88,-77.5"/>
<text text-anchor="middle" x="480.62" y="-64" font-family="Helvetica,sans-Serif" font-size="10.00">validation&#45;api/IService.hpp</text>
</a>
</g>
</g>
<!-- Node1&#45;&gt;Node9 -->
<g id="edge8_Node000001_Node000009" class="edge">
<title>Node1&#45;&gt;Node9</title>
<g id="a_edge8_Node000001_Node000009"><a xlink:title=" ">
<path fill="none" stroke="#63b8ff" d="M291.05,-113.75C333.68,-103.49 388.85,-90.21 428.67,-80.63"/>
<polygon fill="#63b8ff" stroke="#63b8ff" points="429.35,-84.06 438.26,-78.32 427.72,-77.26 429.35,-84.06"/>
</a>
</g>
</g>
<!-- Node5 -->
<g id="Node000005" class="node">
<title>Node5</title>
<g id="a_Node000005"><a xlink:title=" ">
<polygon fill="#e0e0e0" stroke="#999999" points="173.88,-20.75 81.38,-20.75 81.38,0 173.88,0 173.88,-20.75"/>
<text text-anchor="middle" x="127.62" y="-7.25" font-family="Helvetica,sans-Serif" font-size="10.00">spdlog/spdlog.h</text>
</a>
</g>
</g>
<!-- Node4&#45;&gt;Node5 -->
<g id="edge4_Node000004_Node000005" class="edge">
<title>Node4&#45;&gt;Node5</title>
<g id="a_edge4_Node000004_Node000005"><a xlink:title=" ">
<path fill="none" stroke="#63b8ff" d="M271.34,-56.34C242.93,-47.45 200.82,-34.27 169.52,-24.48"/>
<polygon fill="#63b8ff" stroke="#63b8ff" points="170.97,-21.27 160.38,-21.62 168.88,-27.95 170.97,-21.27"/>
</a>
</g>
</g>
<!-- Node6 -->
<g id="Node000006" class="node">
<title>Node6</title>
<g id="a_Node000006"><a xlink:title=" ">
<polygon fill="#e0e0e0" stroke="#999999" points="290.88,-20.75 192.38,-20.75 192.38,0 290.88,0 290.88,-20.75"/>
<text text-anchor="middle" x="241.62" y="-7.25" font-family="Helvetica,sans-Serif" font-size="10.00">boost/thread.hpp</text>
</a>
</g>
</g>
<!-- Node4&#45;&gt;Node6 -->
<g id="edge5_Node000004_Node000006" class="edge">
<title>Node4&#45;&gt;Node6</title>
<g id="a_edge5_Node000004_Node000006"><a xlink:title=" ">
<path fill="none" stroke="#63b8ff" d="M291.72,-56.34C283.13,-48.63 270.95,-37.7 260.75,-28.54"/>
<polygon fill="#63b8ff" stroke="#63b8ff" points="263.34,-26.16 253.56,-22.09 258.67,-31.37 263.34,-26.16"/>
</a>
</g>
</g>
<!-- Node7 -->
<g id="Node000007" class="node">
<title>Node7</title>
<g id="a_Node000007"><a xlink:title=" ">
<polygon fill="#e0e0e0" stroke="#999999" points="418.12,-20.75 309.12,-20.75 309.12,0 418.12,0 418.12,-20.75"/>
<text text-anchor="middle" x="363.62" y="-7.25" font-family="Helvetica,sans-Serif" font-size="10.00">nlohmann/json.hpp</text>
</a>
</g>
</g>
<!-- Node4&#45;&gt;Node7 -->
<g id="edge6_Node000004_Node000007" class="edge">
<title>Node4&#45;&gt;Node7</title>
<g id="a_edge6_Node000004_Node000007"><a xlink:title=" ">
<path fill="none" stroke="#63b8ff" d="M313.53,-56.34C322.12,-48.63 334.3,-37.7 344.5,-28.54"/>
<polygon fill="#63b8ff" stroke="#63b8ff" points="346.58,-31.37 351.69,-22.09 341.91,-26.16 346.58,-31.37"/>
</a>
</g>
</g>
<!-- Node8 -->
<g id="Node000008" class="node">
<title>Node8</title>
<g id="a_Node000008"><a xlink:title=" ">
<polygon fill="#e0e0e0" stroke="#999999" points="513,-20.75 436.25,-20.75 436.25,0 513,0 513,-20.75"/>
<text text-anchor="middle" x="474.62" y="-7.25" font-family="Helvetica,sans-Serif" font-size="10.00">pugixml.hpp</text>
</a>
</g>
</g>
<!-- Node4&#45;&gt;Node8 -->
<g id="edge7_Node000004_Node000008" class="edge">
<title>Node4&#45;&gt;Node8</title>
<g id="a_edge7_Node000004_Node000008"><a xlink:title=" ">
<path fill="none" stroke="#63b8ff" d="M333.38,-56.34C361.17,-47.49 402.32,-34.39 433.05,-24.61"/>
<polygon fill="#63b8ff" stroke="#63b8ff" points="433.94,-28 442.41,-21.63 431.82,-21.33 433.94,-28"/>
</a>
</g>
</g>
</g>
</svg>
