<?xml version="1.0" encoding="UTF-8" standalone="no"?>
<!DOCTYPE svg PUBLIC "-//W3C//DTD SVG 1.1//EN"
 "http://www.w3.org/Graphics/SVG/1.1/DTD/svg11.dtd">
<!-- Generated by graphviz version 12.2.1 (0)
 -->
<!-- Title: include/validation&#45;api/ConfigService.hpp Pages: 1 -->
<svg width="700pt" height="220pt"
 viewBox="0.00 0.00 699.84 220.00" xmlns="http://www.w3.org/2000/svg" xmlns:xlink="http://www.w3.org/1999/xlink">
<g id="graph0" class="graph" transform="scale(1 1) rotate(0) translate(4 216)">
<title>include/validation&#45;api/ConfigService.hpp</title>
<!-- Node1 -->
<g id="Node000001" class="node">
<title>Node1</title>
<g id="a_Node000001"><a xlink:title=" ">
<polygon fill="#999999" stroke="#666666" points="345.46,-212 230.46,-212 230.46,-180 345.46,-180 345.46,-212"/>
<text text-anchor="start" x="238.46" y="-198.5" font-family="Helvetica,sans-Serif" font-size="10.00">include/validation</text>
<text text-anchor="middle" x="287.96" y="-186.5" font-family="Helvetica,sans-Serif" font-size="10.00">&#45;api/ConfigService.hpp</text>
</a>
</g>
</g>
<!-- Node2 -->
<g id="Node000002" class="node">
<title>Node2</title>
<g id="a_Node000002"><a xlink:href="Helpers_8hpp.html" target="_top" xlink:title=" ">
<polygon fill="white" stroke="#666666" points="259.46,-138 144.46,-138 144.46,-118 259.46,-118 259.46,-138"/>
<text text-anchor="middle" x="201.96" y="-124.5" font-family="Helvetica,sans-Serif" font-size="10.00">include/lib/Helpers.hpp</text>
</a>
</g>
</g>
<!-- Node1&#45;&gt;Node2 -->
<g id="edge1_Node000001_Node000002" class="edge">
<title>Node1&#45;&gt;Node2</title>
<g id="a_edge1_Node000001_Node000002"><a xlink:title=" ">
<path fill="none" stroke="#63b8ff" d="M258.92,-172.71C243.63,-160.98 225.7,-147.22 214.1,-138.32"/>
<polygon fill="#63b8ff" stroke="#63b8ff" points="256.75,-175.46 266.82,-178.77 261.01,-169.91 256.75,-175.46"/>
</a>
</g>
</g>
<!-- Node3 -->
<g id="Node000003" class="node">
<title>Node3</title>
<g id="a_Node000003"><a xlink:href="Validation_8hpp.html" target="_top" xlink:title=" ">
<polygon fill="white" stroke="#666666" points="135.59,-76 12.34,-76 12.34,-56 135.59,-56 135.59,-76"/>
<text text-anchor="middle" x="73.96" y="-62.5" font-family="Helvetica,sans-Serif" font-size="10.00">include/lib/Validation.hpp</text>
</a>
</g>
</g>
<!-- Node1&#45;&gt;Node3 -->
<g id="edge9_Node000001_Node000003" class="edge">
<title>Node1&#45;&gt;Node3</title>
<g id="a_edge9_Node000001_Node000003"><a xlink:title=" ">
<path fill="none" stroke="#63b8ff" d="M219.48,-180.93C191.87,-173.07 160.76,-161.27 135.96,-144 109.34,-125.46 88.23,-92.33 79.01,-76.25"/>
<polygon fill="#63b8ff" stroke="#63b8ff" points="218.23,-184.21 228.8,-183.45 220.06,-177.46 218.23,-184.21"/>
</a>
</g>
</g>
<!-- Node4 -->
<g id="Node000004" class="node">
<title>Node4</title>
<g id="a_Node000004"><a xlink:href="ConfigService_8cpp.html" target="_top" xlink:title=" ">
<polygon fill="white" stroke="#666666" points="130.34,-20 17.59,-20 17.59,0 130.34,0 130.34,-20"/>
<text text-anchor="middle" x="73.96" y="-6.5" font-family="Helvetica,sans-Serif" font-size="10.00">src/ConfigService.cpp</text>
</a>
</g>
</g>
<!-- Node1&#45;&gt;Node4 -->
<g id="edge16_Node000001_Node000004" class="edge">
<title>Node1&#45;&gt;Node4</title>
<g id="a_edge16_Node000001_Node000004"><a xlink:title=" ">
<path fill="none" stroke="#63b8ff" d="M219,-190.12C148.32,-180.82 43.23,-153.87 2.96,-76 -9.78,-51.36 23.86,-31.34 49.08,-20.32"/>
<polygon fill="#63b8ff" stroke="#63b8ff" points="218.18,-193.54 228.53,-191.28 219.03,-186.6 218.18,-193.54"/>
</a>
</g>
</g>
<!-- Node7 -->
<g id="Node000007" class="node">
<title>Node7</title>
<g id="a_Node000007"><a xlink:href="Helpers_8cpp.html" target="_top" xlink:title=" ">
<polygon fill="white" stroke="#666666" points="327.84,-76 230.09,-76 230.09,-56 327.84,-56 327.84,-76"/>
<text text-anchor="middle" x="278.96" y="-62.5" font-family="Helvetica,sans-Serif" font-size="10.00">src/lib/Helpers.cpp</text>
</a>
</g>
</g>
<!-- Node1&#45;&gt;Node7 -->
<g id="edge17_Node000001_Node000007" class="edge">
<title>Node1&#45;&gt;Node7</title>
<g id="a_edge17_Node000001_Node000007"><a xlink:title=" ">
<path fill="none" stroke="#63b8ff" d="M286.09,-168.31C284.06,-139.57 280.96,-95.42 279.62,-76.33"/>
<polygon fill="#63b8ff" stroke="#63b8ff" points="282.58,-168.32 286.77,-178.05 289.56,-167.83 282.58,-168.32"/>
</a>
</g>
</g>
<!-- Node8 -->
<g id="Node000008" class="node">
<title>Node8</title>
<g id="a_Node000008"><a xlink:href="ConfigWatcher_8hpp.html" target="_top" xlink:title=" ">
<polygon fill="white" stroke="#666666" points="447.96,-144 329.96,-144 329.96,-112 447.96,-112 447.96,-144"/>
<text text-anchor="start" x="337.96" y="-130.5" font-family="Helvetica,sans-Serif" font-size="10.00">include/validation</text>
<text text-anchor="middle" x="388.96" y="-118.5" font-family="Helvetica,sans-Serif" font-size="10.00">&#45;api/ConfigWatcher.hpp</text>
</a>
</g>
</g>
<!-- Node1&#45;&gt;Node8 -->
<g id="edge10_Node000001_Node000008" class="edge">
<title>Node1&#45;&gt;Node8</title>
<g id="a_edge10_Node000001_Node000008"><a xlink:title=" ">
<path fill="none" stroke="#63b8ff" d="M321.24,-173.25C335.69,-163.81 352.29,-152.97 365.43,-144.38"/>
<polygon fill="#63b8ff" stroke="#63b8ff" points="319.37,-170.3 312.91,-178.7 323.19,-176.16 319.37,-170.3"/>
</a>
</g>
</g>
<!-- Node9 -->
<g id="Node000009" class="node">
<title>Node9</title>
<g id="a_Node000009"><a xlink:href="main_8cpp.html" target="_top" xlink:title=" ">
<polygon fill="white" stroke="#666666" points="552.09,-76 479.84,-76 479.84,-56 552.09,-56 552.09,-76"/>
<text text-anchor="middle" x="515.96" y="-62.5" font-family="Helvetica,sans-Serif" font-size="10.00">src/main.cpp</text>
</a>
</g>
</g>
<!-- Node1&#45;&gt;Node9 -->
<g id="edge18_Node000001_Node000009" class="edge">
<title>Node1&#45;&gt;Node9</title>
<g id="a_edge18_Node000001_Node000009"><a xlink:title=" ">
<path fill="none" stroke="#63b8ff" d="M357.09,-184.29C389.52,-176.84 427.42,-164.43 456.96,-144 483.14,-125.9 502.82,-92.55 511.33,-76.34"/>
<polygon fill="#63b8ff" stroke="#63b8ff" points="356.38,-180.87 347.35,-186.41 357.87,-187.71 356.38,-180.87"/>
</a>
</g>
</g>
<!-- Node10 -->
<g id="Node000010" class="node">
<title>Node10</title>
<g id="a_Node000010"><a xlink:href="ValidationServer_8hpp.html" target="_top" xlink:title=" ">
<polygon fill="white" stroke="#666666" points="627.96,-144 503.96,-144 503.96,-112 627.96,-112 627.96,-144"/>
<text text-anchor="start" x="511.96" y="-130.5" font-family="Helvetica,sans-Serif" font-size="10.00">include/validation</text>
<text text-anchor="middle" x="565.96" y="-118.5" font-family="Helvetica,sans-Serif" font-size="10.00">&#45;api/ValidationServer.hpp</text>
</a>
</g>
</g>
<!-- Node1&#45;&gt;Node10 -->
<g id="edge13_Node000001_Node000010" class="edge">
<title>Node1&#45;&gt;Node10</title>
<g id="a_edge13_Node000001_Node000010"><a xlink:title=" ">
<path fill="none" stroke="#63b8ff" d="M357.04,-178.6C402.02,-167.92 460.21,-154.11 503.75,-143.77"/>
<polygon fill="#63b8ff" stroke="#63b8ff" points="356.3,-175.18 347.37,-180.89 357.91,-181.99 356.3,-175.18"/>
</a>
</g>
</g>
<!-- Node2&#45;&gt;Node3 -->
<g id="edge2_Node000002_Node000003" class="edge">
<title>Node2&#45;&gt;Node3</title>
<g id="a_edge2_Node000002_Node000003"><a xlink:title=" ">
<path fill="none" stroke="#63b8ff" d="M171.61,-112.77C147.55,-101.49 114.62,-86.06 93.82,-76.31"/>
<polygon fill="#63b8ff" stroke="#63b8ff" points="170.05,-115.91 180.59,-116.98 173.02,-109.57 170.05,-115.91"/>
</a>
</g>
</g>
<!-- Node2&#45;&gt;Node4 -->
<g id="edge5_Node000002_Node000004" class="edge">
<title>Node2&#45;&gt;Node4</title>
<g id="a_edge5_Node000002_Node000004"><a xlink:title=" ">
<path fill="none" stroke="#63b8ff" d="M189.72,-108.54C179.06,-93.32 162.58,-71.75 144.96,-56 128.75,-41.51 107.36,-28.64 92.31,-20.42"/>
<polygon fill="#63b8ff" stroke="#63b8ff" points="186.74,-110.37 195.26,-116.66 192.52,-106.43 186.74,-110.37"/>
</a>
</g>
</g>
<!-- Node5 -->
<g id="Node000005" class="node">
<title>Node5</title>
<g id="a_Node000005"><a xlink:href="Validation_8cpp.html" target="_top" xlink:title=" ">
<polygon fill="white" stroke="#666666" points="253.96,-20 147.96,-20 147.96,0 253.96,0 253.96,-20"/>
<text text-anchor="middle" x="200.96" y="-6.5" font-family="Helvetica,sans-Serif" font-size="10.00">src/lib/Validation.cpp</text>
</a>
</g>
</g>
<!-- Node2&#45;&gt;Node5 -->
<g id="edge8_Node000002_Node000005" class="edge">
<title>Node2&#45;&gt;Node5</title>
<g id="a_edge8_Node000002_Node000005"><a xlink:title=" ">
<path fill="none" stroke="#63b8ff" d="M201.78,-106.23C201.56,-80.8 201.2,-38.84 201.04,-20.3"/>
<polygon fill="#63b8ff" stroke="#63b8ff" points="198.28,-106.02 201.87,-115.99 205.28,-105.96 198.28,-106.02"/>
</a>
</g>
</g>
<!-- Node6 -->
<g id="Node000006" class="node">
<title>Node6</title>
<g id="a_Node000006"><a xlink:href="ConfigWatcher_8cpp.html" target="_top" xlink:title=" ">
<polygon fill="white" stroke="#666666" points="461.84,-76 346.09,-76 346.09,-56 461.84,-56 461.84,-76"/>
<text text-anchor="middle" x="403.96" y="-62.5" font-family="Helvetica,sans-Serif" font-size="10.00">src/ConfigWatcher.cpp</text>
</a>
</g>
</g>
<!-- Node2&#45;&gt;Node6 -->
<g id="edge6_Node000002_Node000006" class="edge">
<title>Node2&#45;&gt;Node6</title>
<g id="a_edge6_Node000002_Node000006"><a xlink:title=" ">
<path fill="none" stroke="#63b8ff" d="M244.3,-114.43C282.49,-103.08 337.81,-86.65 372.29,-76.41"/>
<polygon fill="#63b8ff" stroke="#63b8ff" points="243.56,-110.99 234.98,-117.19 245.56,-117.7 243.56,-110.99"/>
</a>
</g>
</g>
<!-- Node2&#45;&gt;Node7 -->
<g id="edge7_Node000002_Node000007" class="edge">
<title>Node2&#45;&gt;Node7</title>
<g id="a_edge7_Node000002_Node000007"><a xlink:title=" ">
<path fill="none" stroke="#63b8ff" d="M223.02,-110.59C237.17,-99.57 255.29,-85.44 267.02,-76.31"/>
<polygon fill="#63b8ff" stroke="#63b8ff" points="220.92,-107.79 215.19,-116.69 225.23,-113.31 220.92,-107.79"/>
</a>
</g>
</g>
<!-- Node3&#45;&gt;Node4 -->
<g id="edge3_Node000003_Node000004" class="edge">
<title>Node3&#45;&gt;Node4</title>
<g id="a_edge3_Node000003_Node000004"><a xlink:title=" ">
<path fill="none" stroke="#63b8ff" d="M73.96,-44.13C73.96,-35.9 73.96,-26.85 73.96,-20.3"/>
<polygon fill="#63b8ff" stroke="#63b8ff" points="70.46,-44.08 73.96,-54.08 77.46,-44.08 70.46,-44.08"/>
</a>
</g>
</g>
<!-- Node3&#45;&gt;Node5 -->
<g id="edge4_Node000003_Node000005" class="edge">
<title>Node3&#45;&gt;Node5</title>
<g id="a_edge4_Node000003_Node000005"><a xlink:title=" ">
<path fill="none" stroke="#63b8ff" d="M106.56,-51.14C129.17,-41.52 158.7,-28.97 178.67,-20.48"/>
<polygon fill="#63b8ff" stroke="#63b8ff" points="105.31,-47.87 97.48,-55 108.05,-54.31 105.31,-47.87"/>
</a>
</g>
</g>
<!-- Node8&#45;&gt;Node6 -->
<g id="edge11_Node000008_Node000006" class="edge">
<title>Node8&#45;&gt;Node6</title>
<g id="a_edge11_Node000008_Node000006"><a xlink:title=" ">
<path fill="none" stroke="#63b8ff" d="M395.55,-100.66C397.71,-92.01 399.98,-82.95 401.61,-76.41"/>
<polygon fill="#63b8ff" stroke="#63b8ff" points="392.22,-99.53 393.19,-110.08 399.01,-101.23 392.22,-99.53"/>
</a>
</g>
</g>
<!-- Node8&#45;&gt;Node9 -->
<g id="edge12_Node000008_Node000009" class="edge">
<title>Node8&#45;&gt;Node9</title>
<g id="a_edge12_Node000008_Node000009"><a xlink:title=" ">
<path fill="none" stroke="#63b8ff" d="M431.98,-106.68C453.67,-96.43 478.94,-84.49 496.05,-76.41"/>
<polygon fill="#63b8ff" stroke="#63b8ff" points="430.58,-103.47 423.04,-110.9 433.57,-109.79 430.58,-103.47"/>
</a>
</g>
</g>
<!-- Node10&#45;&gt;Node9 -->
<g id="edge15_Node000010_Node000009" class="edge">
<title>Node10&#45;&gt;Node9</title>
<g id="a_edge15_Node000010_Node000009"><a xlink:title=" ">
<path fill="none" stroke="#63b8ff" d="M545.95,-102.98C538.18,-93.66 529.74,-83.54 523.8,-76.41"/>
<polygon fill="#63b8ff" stroke="#63b8ff" points="543.03,-104.94 552.12,-110.39 548.4,-100.46 543.03,-104.94"/>
</a>
</g>
</g>
<!-- Node11 -->
<g id="Node000011" class="node">
<title>Node11</title>
<g id="a_Node000011"><a xlink:href="ValidationServer_8cpp.html" target="_top" xlink:title=" ">
<polygon fill="white" stroke="#666666" points="691.84,-76 570.09,-76 570.09,-56 691.84,-56 691.84,-76"/>
<text text-anchor="middle" x="630.96" y="-62.5" font-family="Helvetica,sans-Serif" font-size="10.00">src/ValidationServer.cpp</text>
</a>
</g>
</g>
<!-- Node10&#45;&gt;Node11 -->
<g id="edge14_Node000010_Node000011" class="edge">
<title>Node10&#45;&gt;Node11</title>
<g id="a_edge14_Node000010_Node000011"><a xlink:title=" ">
<path fill="none" stroke="#63b8ff" d="M591.05,-103.84C601.4,-94.29 612.81,-83.76 620.77,-76.41"/>
<polygon fill="#63b8ff" stroke="#63b8ff" points="588.79,-101.17 583.81,-110.52 593.54,-106.31 588.79,-101.17"/>
</a>
</g>
</g>
</g>
</svg>
