<?xml version="1.0" encoding="UTF-8" standalone="no"?>
<!DOCTYPE svg PUBLIC "-//W3C//DTD SVG 1.1//EN"
 "http://www.w3.org/Graphics/SVG/1.1/DTD/svg11.dtd">
<!-- Generated by graphviz version 10.0.1 (0)
 -->
<!-- Title: src/ConfigService.cpp Pages: 1 -->
<svg width="493pt" height="142pt"
 viewBox="0.00 0.00 492.62 142.25" xmlns="http://www.w3.org/2000/svg" xmlns:xlink="http://www.w3.org/1999/xlink">
<g id="graph0" class="graph" transform="scale(1 1) rotate(0) translate(4 138.25)">
<title>src/ConfigService.cpp</title>
<!-- Node1 -->
<g id="Node000001" class="node">
<title>Node1</title>
<g id="a_Node000001"><a xlink:title=" ">
<polygon fill="#999999" stroke="#666666" points="182.38,-134.25 62.12,-134.25 62.12,-113.5 182.38,-113.5 182.38,-134.25"/>
<text text-anchor="middle" x="122.25" y="-120.75" font-family="Helvetica,sans-Serif" font-size="10.00">src/ConfigService.cpp</text>
</a>
</g>
</g>
<!-- Node2 -->
<g id="Node000002" class="node">
<title>Node2</title>
<g id="a_Node000002"><a xlink:title=" ">
<polygon fill="#e0e0e0" stroke="#999999" points="92.5,-20.75 0,-20.75 0,0 92.5,0 92.5,-20.75"/>
<text text-anchor="middle" x="46.25" y="-7.25" font-family="Helvetica,sans-Serif" font-size="10.00">spdlog/spdlog.h</text>
</a>
</g>
</g>
<!-- Node1&#45;&gt;Node2 -->
<g id="edge1_Node000001_Node000002" class="edge">
<title>Node1&#45;&gt;Node2</title>
<g id="a_edge1_Node000001_Node000002"><a xlink:title=" ">
<path fill="none" stroke="#63b8ff" d="M65.47,-113.05C45.18,-106.5 24.37,-95.61 12.25,-77.5 1.88,-62.01 14.02,-42.96 26.58,-29.29"/>
<polygon fill="#63b8ff" stroke="#63b8ff" points="29.02,-31.81 33.59,-22.25 24.06,-26.87 29.02,-31.81"/>
</a>
</g>
</g>
<!-- Node3 -->
<g id="Node000003" class="node">
<title>Node3</title>
<g id="a_Node000003"><a xlink:title=" ">
<polygon fill="#e0e0e0" stroke="#999999" points="111,-77.5 21.5,-77.5 21.5,-56.75 111,-56.75 111,-77.5"/>
<text text-anchor="middle" x="66.25" y="-64" font-family="Helvetica,sans-Serif" font-size="10.00">lib/Helpers.hpp</text>
</a>
</g>
</g>
<!-- Node1&#45;&gt;Node3 -->
<g id="edge2_Node000001_Node000003" class="edge">
<title>Node1&#45;&gt;Node3</title>
<g id="a_edge2_Node000001_Node000003"><a xlink:title=" ">
<path fill="none" stroke="#63b8ff" d="M112.24,-113.09C104.51,-105.53 93.62,-94.89 84.38,-85.85"/>
<polygon fill="#63b8ff" stroke="#63b8ff" points="86.85,-83.37 77.26,-78.89 81.96,-88.38 86.85,-83.37"/>
</a>
</g>
</g>
<!-- Node4 -->
<g id="Node000004" class="node">
<title>Node4</title>
<g id="a_Node000004"><a xlink:title=" ">
<polygon fill="#e0e0e0" stroke="#999999" points="229.62,-77.5 128.88,-77.5 128.88,-56.75 229.62,-56.75 229.62,-77.5"/>
<text text-anchor="middle" x="179.25" y="-64" font-family="Helvetica,sans-Serif" font-size="10.00">lib/Validation.hpp</text>
</a>
</g>
</g>
<!-- Node1&#45;&gt;Node4 -->
<g id="edge3_Node000001_Node000004" class="edge">
<title>Node1&#45;&gt;Node4</title>
<g id="a_edge3_Node000001_Node000004"><a xlink:title=" ">
<path fill="none" stroke="#63b8ff" d="M132.44,-113.09C140.38,-105.46 151.62,-94.67 161.09,-85.57"/>
<polygon fill="#63b8ff" stroke="#63b8ff" points="163.27,-88.33 168.06,-78.88 158.42,-83.28 163.27,-88.33"/>
</a>
</g>
</g>
<!-- Node5 -->
<g id="Node000005" class="node">
<title>Node5</title>
<g id="a_Node000005"><a xlink:href="ConfigService_8hpp.html" target="_top" xlink:title=" ">
<polygon fill="white" stroke="#666666" points="422.38,-77.5 248.12,-77.5 248.12,-56.75 422.38,-56.75 422.38,-77.5"/>
<text text-anchor="middle" x="335.25" y="-64" font-family="Helvetica,sans-Serif" font-size="10.00">validation&#45;api/ConfigService.hpp</text>
</a>
</g>
</g>
<!-- Node1&#45;&gt;Node5 -->
<g id="edge4_Node000001_Node000005" class="edge">
<title>Node1&#45;&gt;Node5</title>
<g id="a_edge4_Node000001_Node000005"><a xlink:title=" ">
<path fill="none" stroke="#63b8ff" d="M160.33,-113.09C195.51,-104.04 247.96,-90.56 286.25,-80.72"/>
<polygon fill="#63b8ff" stroke="#63b8ff" points="286.86,-84.18 295.68,-78.3 285.12,-77.4 286.86,-84.18"/>
</a>
</g>
</g>
<!-- Node5&#45;&gt;Node2 -->
<g id="edge5_Node000005_Node000002" class="edge">
<title>Node5&#45;&gt;Node2</title>
<g id="a_edge5_Node000005_Node000002"><a xlink:title=" ">
<path fill="none" stroke="#63b8ff" d="M283.25,-56.27C232.68,-46.69 156.04,-32.17 103.7,-22.26"/>
<polygon fill="#63b8ff" stroke="#63b8ff" points="104.55,-18.86 94.07,-20.43 103.25,-25.74 104.55,-18.86"/>
</a>
</g>
</g>
<!-- Node6 -->
<g id="Node000006" class="node">
<title>Node6</title>
<g id="a_Node000006"><a xlink:title=" ">
<polygon fill="#e0e0e0" stroke="#999999" points="262.5,-20.75 164,-20.75 164,0 262.5,0 262.5,-20.75"/>
<text text-anchor="middle" x="213.25" y="-7.25" font-family="Helvetica,sans-Serif" font-size="10.00">boost/thread.hpp</text>
</a>
</g>
</g>
<!-- Node5&#45;&gt;Node6 -->
<g id="edge6_Node000005_Node000006" class="edge">
<title>Node5&#45;&gt;Node6</title>
<g id="a_edge6_Node000005_Node000006"><a xlink:title=" ">
<path fill="none" stroke="#63b8ff" d="M313.44,-56.34C294.44,-47.81 266.65,-35.34 245.16,-25.69"/>
<polygon fill="#63b8ff" stroke="#63b8ff" points="246.81,-22.6 236.25,-21.7 243.94,-28.99 246.81,-22.6"/>
</a>
</g>
</g>
<!-- Node7 -->
<g id="Node000007" class="node">
<title>Node7</title>
<g id="a_Node000007"><a xlink:title=" ">
<polygon fill="#e0e0e0" stroke="#999999" points="389.75,-20.75 280.75,-20.75 280.75,0 389.75,0 389.75,-20.75"/>
<text text-anchor="middle" x="335.25" y="-7.25" font-family="Helvetica,sans-Serif" font-size="10.00">nlohmann/json.hpp</text>
</a>
</g>
</g>
<!-- Node5&#45;&gt;Node7 -->
<g id="edge7_Node000005_Node000007" class="edge">
<title>Node5&#45;&gt;Node7</title>
<g id="a_edge7_Node000005_Node000007"><a xlink:title=" ">
<path fill="none" stroke="#63b8ff" d="M335.25,-56.34C335.25,-49.72 335.25,-40.72 335.25,-32.52"/>
<polygon fill="#63b8ff" stroke="#63b8ff" points="338.75,-32.59 335.25,-22.59 331.75,-32.59 338.75,-32.59"/>
</a>
</g>
</g>
<!-- Node8 -->
<g id="Node000008" class="node">
<title>Node8</title>
<g id="a_Node000008"><a xlink:title=" ">
<polygon fill="#e0e0e0" stroke="#999999" points="484.62,-20.75 407.88,-20.75 407.88,0 484.62,0 484.62,-20.75"/>
<text text-anchor="middle" x="446.25" y="-7.25" font-family="Helvetica,sans-Serif" font-size="10.00">pugixml.hpp</text>
</a>
</g>
</g>
<!-- Node5&#45;&gt;Node8 -->
<g id="edge8_Node000005_Node000008" class="edge">
<title>Node5&#45;&gt;Node8</title>
<g id="a_edge8_Node000005_Node000008"><a xlink:title=" ">
<path fill="none" stroke="#63b8ff" d="M355.09,-56.34C372.14,-47.93 396.97,-35.68 416.41,-26.09"/>
<polygon fill="#63b8ff" stroke="#63b8ff" points="417.8,-29.31 425.22,-21.75 414.7,-23.03 417.8,-29.31"/>
</a>
</g>
</g>
</g>
</svg>
