<?xml version="1.0" encoding="UTF-8" standalone="no"?>
<!DOCTYPE svg PUBLIC "-//W3C//DTD SVG 1.1//EN"
 "http://www.w3.org/Graphics/SVG/1.1/DTD/svg11.dtd">
<!-- Generated by graphviz version 10.0.1 (0)
 -->
<!-- Title: src/ConfigService.cpp Pages: 1 -->
<svg width="1131pt" height="269pt"
 viewBox="0.00 0.00 1130.75 268.50" xmlns="http://www.w3.org/2000/svg" xmlns:xlink="http://www.w3.org/1999/xlink">
<g id="graph0" class="graph" transform="scale(1 1) rotate(0) translate(4 264.5)">
<title>src/ConfigService.cpp</title>
<!-- Node1 -->
<g id="Node000001" class="node">
<title>Node1</title>
<g id="a_Node000001"><a xlink:title=" ">
<polygon fill="#999999" stroke="#666666" points="614.38,-260.5 494.12,-260.5 494.12,-239.75 614.38,-239.75 614.38,-260.5"/>
<text text-anchor="middle" x="554.25" y="-247" font-family="Helvetica,sans-Serif" font-size="10.00">src/ConfigService.cpp</text>
</a>
</g>
</g>
<!-- Node2 -->
<g id="Node000002" class="node">
<title>Node2</title>
<g id="a_Node000002"><a xlink:title=" ">
<polygon fill="#e0e0e0" stroke="#999999" points="1122.75,-83.88 1073.75,-83.88 1073.75,-63.12 1122.75,-63.12 1122.75,-83.88"/>
<text text-anchor="middle" x="1098.25" y="-70.38" font-family="Helvetica,sans-Serif" font-size="10.00">format</text>
</a>
</g>
</g>
<!-- Node1&#45;&gt;Node2 -->
<g id="edge1_Node000001_Node000002" class="edge">
<title>Node1&#45;&gt;Node2</title>
<g id="a_edge1_Node000001_Node000002"><a xlink:title=" ">
<path fill="none" stroke="#63b8ff" d="M614.78,-246.74C742.28,-240.34 1031.92,-218.13 1094.25,-147 1106.43,-133.1 1105.97,-111.34 1103.35,-95.28"/>
<polygon fill="#63b8ff" stroke="#63b8ff" points="1106.85,-94.91 1101.41,-85.82 1099.99,-96.32 1106.85,-94.91"/>
</a>
</g>
</g>
<!-- Node3 -->
<g id="Node000003" class="node">
<title>Node3</title>
<g id="a_Node000003"><a xlink:title=" ">
<polygon fill="#e0e0e0" stroke="#999999" points="92.5,-20.75 0,-20.75 0,0 92.5,0 92.5,-20.75"/>
<text text-anchor="middle" x="46.25" y="-7.25" font-family="Helvetica,sans-Serif" font-size="10.00">spdlog/spdlog.h</text>
</a>
</g>
</g>
<!-- Node1&#45;&gt;Node3 -->
<g id="edge2_Node000001_Node000003" class="edge">
<title>Node1&#45;&gt;Node3</title>
<g id="a_edge2_Node000001_Node000003"><a xlink:title=" ">
<path fill="none" stroke="#63b8ff" d="M493.63,-247.86C389.63,-242.25 177.48,-215.14 64.25,-90.25 50.05,-74.59 46.33,-50.09 45.67,-32.55"/>
<polygon fill="#63b8ff" stroke="#63b8ff" points="49.17,-32.74 45.63,-22.75 42.17,-32.76 49.17,-32.74"/>
</a>
</g>
</g>
<!-- Node4 -->
<g id="Node000004" class="node">
<title>Node4</title>
<g id="a_Node000004"><a xlink:href="Helpers_8hpp.html" target="_top" xlink:title=" ">
<polygon fill="white" stroke="#666666" points="599,-147 509.5,-147 509.5,-126.25 599,-126.25 599,-147"/>
<text text-anchor="middle" x="554.25" y="-133.5" font-family="Helvetica,sans-Serif" font-size="10.00">lib/Helpers.hpp</text>
</a>
</g>
</g>
<!-- Node1&#45;&gt;Node4 -->
<g id="edge3_Node000001_Node000004" class="edge">
<title>Node1&#45;&gt;Node4</title>
<g id="a_edge3_Node000001_Node000004"><a xlink:title=" ">
<path fill="none" stroke="#63b8ff" d="M554.25,-239.62C554.25,-221.85 554.25,-183.22 554.25,-158.93"/>
<polygon fill="#63b8ff" stroke="#63b8ff" points="557.75,-158.94 554.25,-148.94 550.75,-158.94 557.75,-158.94"/>
</a>
</g>
</g>
<!-- Node10 -->
<g id="Node000010" class="node">
<title>Node10</title>
<g id="a_Node000010"><a xlink:href="ConfigService_8hpp.html" target="_top" xlink:title=" ">
<polygon fill="white" stroke="#666666" points="247.38,-83.88 73.12,-83.88 73.12,-63.12 247.38,-63.12 247.38,-83.88"/>
<text text-anchor="middle" x="160.25" y="-70.38" font-family="Helvetica,sans-Serif" font-size="10.00">validation&#45;api/ConfigService.hpp</text>
</a>
</g>
</g>
<!-- Node1&#45;&gt;Node10 -->
<g id="edge26_Node000001_Node000010" class="edge">
<title>Node1&#45;&gt;Node10</title>
<g id="a_edge26_Node000001_Node000010"><a xlink:title=" ">
<path fill="none" stroke="#63b8ff" d="M532.22,-239.36C466.29,-210.14 270.25,-123.25 192.52,-88.8"/>
<polygon fill="#63b8ff" stroke="#63b8ff" points="194.31,-85.77 183.75,-84.91 191.47,-92.17 194.31,-85.77"/>
</a>
</g>
</g>
<!-- Node12 -->
<g id="Node000012" class="node">
<title>Node12</title>
<g id="a_Node000012"><a xlink:href="Validation_8hpp.html" target="_top" xlink:title=" ">
<polygon fill="white" stroke="#666666" points="759.62,-203.75 658.88,-203.75 658.88,-183 759.62,-183 759.62,-203.75"/>
<text text-anchor="middle" x="709.25" y="-190.25" font-family="Helvetica,sans-Serif" font-size="10.00">lib/Validation.hpp</text>
</a>
</g>
</g>
<!-- Node1&#45;&gt;Node12 -->
<g id="edge14_Node000001_Node000012" class="edge">
<title>Node1&#45;&gt;Node12</title>
<g id="a_edge14_Node000001_Node000012"><a xlink:title=" ">
<path fill="none" stroke="#63b8ff" d="M581.96,-239.34C606.68,-230.61 643.12,-217.73 670.68,-208"/>
<polygon fill="#63b8ff" stroke="#63b8ff" points="671.83,-211.31 680.09,-204.67 669.5,-204.71 671.83,-211.31"/>
</a>
</g>
</g>
<!-- Node5 -->
<g id="Node000005" class="node">
<title>Node5</title>
<g id="a_Node000005"><a xlink:title=" ">
<polygon fill="#e0e0e0" stroke="#999999" points="451.25,-90.25 327.25,-90.25 327.25,-56.75 451.25,-56.75 451.25,-90.25"/>
<text text-anchor="start" x="335.25" y="-76.75" font-family="Helvetica,sans-Serif" font-size="10.00">boost/algorithm/string</text>
<text text-anchor="middle" x="389.25" y="-64" font-family="Helvetica,sans-Serif" font-size="10.00">/trim.hpp</text>
</a>
</g>
</g>
<!-- Node4&#45;&gt;Node5 -->
<g id="edge4_Node000004_Node000005" class="edge">
<title>Node4&#45;&gt;Node5</title>
<g id="a_edge4_Node000004_Node000005"><a xlink:title=" ">
<path fill="none" stroke="#63b8ff" d="M527.74,-125.8C505.12,-117.43 471.87,-105.11 443.62,-94.64"/>
<polygon fill="#63b8ff" stroke="#63b8ff" points="445.09,-91.45 434.49,-91.26 442.65,-98.02 445.09,-91.45"/>
</a>
</g>
</g>
<!-- Node6 -->
<g id="Node000006" class="node">
<title>Node6</title>
<g id="a_Node000006"><a xlink:title=" ">
<polygon fill="#e0e0e0" stroke="#999999" points="639.12,-83.88 469.38,-83.88 469.38,-63.12 639.12,-63.12 639.12,-83.88"/>
<text text-anchor="middle" x="554.25" y="-70.38" font-family="Helvetica,sans-Serif" font-size="10.00">boost/uuid/uuid_generators.hpp</text>
</a>
</g>
</g>
<!-- Node4&#45;&gt;Node6 -->
<g id="edge5_Node000004_Node000006" class="edge">
<title>Node4&#45;&gt;Node6</title>
<g id="a_edge5_Node000004_Node000006"><a xlink:title=" ">
<path fill="none" stroke="#63b8ff" d="M554.25,-125.8C554.25,-117.65 554.25,-105.76 554.25,-95.48"/>
<polygon fill="#63b8ff" stroke="#63b8ff" points="557.75,-95.61 554.25,-85.61 550.75,-95.61 557.75,-95.61"/>
</a>
</g>
</g>
<!-- Node7 -->
<g id="Node000007" class="node">
<title>Node7</title>
<g id="a_Node000007"><a xlink:title=" ">
<polygon fill="#e0e0e0" stroke="#999999" points="833.75,-20.75 724.75,-20.75 724.75,0 833.75,0 833.75,-20.75"/>
<text text-anchor="middle" x="779.25" y="-7.25" font-family="Helvetica,sans-Serif" font-size="10.00">nlohmann/json.hpp</text>
</a>
</g>
</g>
<!-- Node4&#45;&gt;Node7 -->
<g id="edge6_Node000004_Node000007" class="edge">
<title>Node4&#45;&gt;Node7</title>
<g id="a_edge6_Node000004_Node000007"><a xlink:title=" ">
<path fill="none" stroke="#63b8ff" d="M585.24,-125.9C609.17,-117.83 642.73,-105.27 670.25,-90.25 703.32,-72.2 737.99,-45.58 759.11,-28.36"/>
<polygon fill="#63b8ff" stroke="#63b8ff" points="761.17,-31.2 766.64,-22.14 756.71,-25.81 761.17,-31.2"/>
</a>
</g>
</g>
<!-- Node8 -->
<g id="Node000008" class="node">
<title>Node8</title>
<g id="a_Node000008"><a xlink:title=" ">
<polygon fill="#e0e0e0" stroke="#999999" points="705.62,-20.75 628.88,-20.75 628.88,0 705.62,0 705.62,-20.75"/>
<text text-anchor="middle" x="667.25" y="-7.25" font-family="Helvetica,sans-Serif" font-size="10.00">pugixml.hpp</text>
</a>
</g>
</g>
<!-- Node4&#45;&gt;Node8 -->
<g id="edge7_Node000004_Node000008" class="edge">
<title>Node4&#45;&gt;Node8</title>
<g id="a_edge7_Node000004_Node000008"><a xlink:title=" ">
<path fill="none" stroke="#63b8ff" d="M592.2,-125.82C611.65,-118.93 634.14,-107.74 648.25,-90.25 661.49,-73.83 665.74,-49.63 666.99,-32.37"/>
<polygon fill="#63b8ff" stroke="#63b8ff" points="670.48,-32.66 667.4,-22.52 663.49,-32.37 670.48,-32.66"/>
</a>
</g>
</g>
<!-- Node9 -->
<g id="Node000009" class="node">
<title>Node9</title>
<g id="a_Node000009"><a xlink:title=" ">
<polygon fill="#e0e0e0" stroke="#999999" points="309.12,-83.88 265.38,-83.88 265.38,-63.12 309.12,-63.12 309.12,-83.88"/>
<text text-anchor="middle" x="287.25" y="-70.38" font-family="Helvetica,sans-Serif" font-size="10.00">regex</text>
</a>
</g>
</g>
<!-- Node4&#45;&gt;Node9 -->
<g id="edge8_Node000004_Node000009" class="edge">
<title>Node4&#45;&gt;Node9</title>
<g id="a_edge8_Node000004_Node000009"><a xlink:title=" ">
<path fill="none" stroke="#63b8ff" d="M509.36,-130.79C461.15,-124.73 382.79,-112.36 318.25,-90.25 317.08,-89.85 315.9,-89.41 314.71,-88.95"/>
<polygon fill="#63b8ff" stroke="#63b8ff" points="316.19,-85.77 305.63,-84.84 313.3,-92.15 316.19,-85.77"/>
</a>
</g>
</g>
<!-- Node4&#45;&gt;Node10 -->
<g id="edge9_Node000004_Node000010" class="edge">
<title>Node4&#45;&gt;Node10</title>
<g id="a_edge9_Node000004_Node000010"><a xlink:title=" ">
<path fill="none" stroke="#63b8ff" d="M509.04,-128.91C450.63,-120.19 345.8,-104.41 256.25,-90.25 248.01,-88.95 239.39,-87.56 230.82,-86.17"/>
<polygon fill="#63b8ff" stroke="#63b8ff" points="231.56,-82.75 221.13,-84.6 230.44,-89.66 231.56,-82.75"/>
</a>
</g>
</g>
<!-- Node10&#45;&gt;Node3 -->
<g id="edge10_Node000010_Node000003" class="edge">
<title>Node10&#45;&gt;Node3</title>
<g id="a_edge10_Node000010_Node000003"><a xlink:title=" ">
<path fill="none" stroke="#63b8ff" d="M141.93,-62.68C123.73,-52.92 95.57,-37.82 74.51,-26.53"/>
<polygon fill="#63b8ff" stroke="#63b8ff" points="76.32,-23.53 65.85,-21.89 73.01,-29.7 76.32,-23.53"/>
</a>
</g>
</g>
<!-- Node10&#45;&gt;Node7 -->
<g id="edge12_Node000010_Node000007" class="edge">
<title>Node10&#45;&gt;Node7</title>
<g id="a_edge12_Node000010_Node000007"><a xlink:title=" ">
<path fill="none" stroke="#63b8ff" d="M215.22,-62.67C228.61,-60.5 242.92,-58.36 256.25,-56.75 455.29,-32.64 509.38,-42.95 712.93,-20.81"/>
<polygon fill="#63b8ff" stroke="#63b8ff" points="713.25,-24.29 722.81,-19.72 712.49,-17.34 713.25,-24.29"/>
</a>
</g>
</g>
<!-- Node10&#45;&gt;Node8 -->
<g id="edge13_Node000010_Node000008" class="edge">
<title>Node10&#45;&gt;Node8</title>
<g id="a_edge13_Node000010_Node000008"><a xlink:title=" ">
<path fill="none" stroke="#63b8ff" d="M217.28,-62.64C230.09,-60.56 243.62,-58.48 256.25,-56.75 386.14,-38.94 539.87,-23.45 617.32,-16.03"/>
<polygon fill="#63b8ff" stroke="#63b8ff" points="617.51,-19.53 627.13,-15.1 616.84,-12.56 617.51,-19.53"/>
</a>
</g>
</g>
<!-- Node11 -->
<g id="Node000011" class="node">
<title>Node11</title>
<g id="a_Node000011"><a xlink:title=" ">
<polygon fill="#e0e0e0" stroke="#999999" points="209.5,-20.75 111,-20.75 111,0 209.5,0 209.5,-20.75"/>
<text text-anchor="middle" x="160.25" y="-7.25" font-family="Helvetica,sans-Serif" font-size="10.00">boost/thread.hpp</text>
</a>
</g>
</g>
<!-- Node10&#45;&gt;Node11 -->
<g id="edge11_Node000010_Node000011" class="edge">
<title>Node10&#45;&gt;Node11</title>
<g id="a_edge11_Node000010_Node000011"><a xlink:title=" ">
<path fill="none" stroke="#63b8ff" d="M160.25,-62.68C160.25,-54.52 160.25,-42.63 160.25,-32.35"/>
<polygon fill="#63b8ff" stroke="#63b8ff" points="163.75,-32.48 160.25,-22.48 156.75,-32.48 163.75,-32.48"/>
</a>
</g>
</g>
<!-- Node12&#45;&gt;Node4 -->
<g id="edge16_Node000012_Node000004" class="edge">
<title>Node12&#45;&gt;Node4</title>
<g id="a_edge16_Node000012_Node000004"><a xlink:title=" ">
<path fill="none" stroke="#63b8ff" d="M681.54,-182.59C656.82,-173.86 620.38,-160.98 592.82,-151.25"/>
<polygon fill="#63b8ff" stroke="#63b8ff" points="594,-147.96 583.41,-147.92 591.67,-154.56 594,-147.96"/>
</a>
</g>
</g>
<!-- Node12&#45;&gt;Node7 -->
<g id="edge17_Node000012_Node000007" class="edge">
<title>Node12&#45;&gt;Node7</title>
<g id="a_edge17_Node000012_Node000007"><a xlink:title=" ">
<path fill="none" stroke="#63b8ff" d="M726.31,-182.57C738.47,-174.62 754.04,-162.25 762.25,-147 781.96,-110.38 782.65,-60.34 781.13,-32.42"/>
<polygon fill="#63b8ff" stroke="#63b8ff" points="784.62,-32.19 780.41,-22.46 777.64,-32.69 784.62,-32.19"/>
</a>
</g>
</g>
<!-- Node12&#45;&gt;Node8 -->
<g id="edge18_Node000012_Node000008" class="edge">
<title>Node12&#45;&gt;Node8</title>
<g id="a_edge18_Node000012_Node000008"><a xlink:title=" ">
<path fill="none" stroke="#63b8ff" d="M691.1,-182.52C678.74,-174.7 663.39,-162.51 656.25,-147 645.39,-123.4 665.46,-115.78 670.25,-90.25 673,-75.62 670.74,-71.63 670.25,-56.75 669.99,-48.77 669.46,-40.01 668.93,-32.33"/>
<polygon fill="#63b8ff" stroke="#63b8ff" points="672.43,-32.32 668.19,-22.61 665.45,-32.85 672.43,-32.32"/>
</a>
</g>
</g>
<!-- Node12&#45;&gt;Node10 -->
<g id="edge25_Node000012_Node000010" class="edge">
<title>Node12&#45;&gt;Node10</title>
<g id="a_edge25_Node000012_Node000010"><a xlink:title=" ">
<path fill="none" stroke="#63b8ff" d="M663.39,-182.53C563.45,-161.07 326.29,-110.15 217.08,-86.7"/>
<polygon fill="#63b8ff" stroke="#63b8ff" points="217.97,-83.31 207.46,-84.64 216.5,-90.16 217.97,-83.31"/>
</a>
</g>
</g>
<!-- Node13 -->
<g id="Node000013" class="node">
<title>Node13</title>
<g id="a_Node000013"><a xlink:title=" ">
<polygon fill="#e0e0e0" stroke="#999999" points="753.25,-147 665.25,-147 665.25,-126.25 753.25,-126.25 753.25,-147"/>
<text text-anchor="middle" x="709.25" y="-133.5" font-family="Helvetica,sans-Serif" font-size="10.00">boost/uuid.hpp</text>
</a>
</g>
</g>
<!-- Node12&#45;&gt;Node13 -->
<g id="edge15_Node000012_Node000013" class="edge">
<title>Node12&#45;&gt;Node13</title>
<g id="a_edge15_Node000012_Node000013"><a xlink:title=" ">
<path fill="none" stroke="#63b8ff" d="M709.25,-182.59C709.25,-175.97 709.25,-166.97 709.25,-158.77"/>
<polygon fill="#63b8ff" stroke="#63b8ff" points="712.75,-158.84 709.25,-148.84 705.75,-158.84 712.75,-158.84"/>
</a>
</g>
</g>
<!-- Node14 -->
<g id="Node000014" class="node">
<title>Node14</title>
<g id="a_Node000014"><a xlink:title=" ">
<polygon fill="#e0e0e0" stroke="#999999" points="895.12,-147 809.38,-147 809.38,-126.25 895.12,-126.25 895.12,-147"/>
<text text-anchor="middle" x="852.25" y="-133.5" font-family="Helvetica,sans-Serif" font-size="10.00">unordered_set</text>
</a>
</g>
</g>
<!-- Node12&#45;&gt;Node14 -->
<g id="edge19_Node000012_Node000014" class="edge">
<title>Node12&#45;&gt;Node14</title>
<g id="a_edge19_Node000012_Node000014"><a xlink:title=" ">
<path fill="none" stroke="#63b8ff" d="M734.82,-182.59C757.49,-173.91 790.85,-161.13 816.23,-151.42"/>
<polygon fill="#63b8ff" stroke="#63b8ff" points="817.4,-154.71 825.49,-147.87 814.9,-148.18 817.4,-154.71"/>
</a>
</g>
</g>
<!-- Node15 -->
<g id="Node000015" class="node">
<title>Node15</title>
<g id="a_Node000015"><a xlink:title=" ">
<polygon fill="#e0e0e0" stroke="#999999" points="957.5,-147 913,-147 913,-126.25 957.5,-126.25 957.5,-147"/>
<text text-anchor="middle" x="935.25" y="-133.5" font-family="Helvetica,sans-Serif" font-size="10.00">utility</text>
</a>
</g>
</g>
<!-- Node12&#45;&gt;Node15 -->
<g id="edge20_Node000012_Node000015" class="edge">
<title>Node12&#45;&gt;Node15</title>
<g id="a_edge20_Node000012_Node000015"><a xlink:title=" ">
<path fill="none" stroke="#63b8ff" d="M755.16,-182.58C792.33,-174.45 846.28,-162.2 901.55,-147.61"/>
<polygon fill="#63b8ff" stroke="#63b8ff" points="902.39,-151 911.15,-145.05 900.59,-144.24 902.39,-151"/>
</a>
</g>
</g>
<!-- Node16 -->
<g id="Node000016" class="node">
<title>Node16</title>
<g id="a_Node000016"><a xlink:href="ErrorBuilder_8hpp.html" target="_top" xlink:title=" ">
<polygon fill="white" stroke="#666666" points="1084.75,-147 975.75,-147 975.75,-126.25 1084.75,-126.25 1084.75,-147"/>
<text text-anchor="middle" x="1030.25" y="-133.5" font-family="Helvetica,sans-Serif" font-size="10.00">lib/ErrorBuilder.hpp</text>
</a>
</g>
</g>
<!-- Node12&#45;&gt;Node16 -->
<g id="edge21_Node000012_Node000016" class="edge">
<title>Node12&#45;&gt;Node16</title>
<g id="a_edge21_Node000012_Node000016"><a xlink:title=" ">
<path fill="none" stroke="#63b8ff" d="M760.11,-183.7C815.25,-174.3 903.46,-159.25 963.98,-148.93"/>
<polygon fill="#63b8ff" stroke="#63b8ff" points="964.56,-152.38 973.83,-147.25 963.39,-145.48 964.56,-152.38"/>
</a>
</g>
</g>
<!-- Node16&#45;&gt;Node2 -->
<g id="edge22_Node000016_Node000002" class="edge">
<title>Node16&#45;&gt;Node2</title>
<g id="a_edge22_Node000016_Node000002"><a xlink:title=" ">
<path fill="none" stroke="#63b8ff" d="M1041.18,-125.8C1051.45,-116.57 1067.04,-102.56 1079.33,-91.51"/>
<polygon fill="#63b8ff" stroke="#63b8ff" points="1081.35,-94.39 1086.45,-85.11 1076.67,-89.19 1081.35,-94.39"/>
</a>
</g>
</g>
<!-- Node16&#45;&gt;Node7 -->
<g id="edge23_Node000016_Node000007" class="edge">
<title>Node16&#45;&gt;Node7</title>
<g id="a_edge23_Node000016_Node000007"><a xlink:title=" ">
<path fill="none" stroke="#63b8ff" d="M1030.99,-125.76C1031.66,-109.02 1030.37,-75.07 1011.25,-56.75 987.89,-34.38 905.37,-22.36 845.38,-16.42"/>
<polygon fill="#63b8ff" stroke="#63b8ff" points="845.88,-12.95 835.6,-15.49 845.22,-19.92 845.88,-12.95"/>
</a>
</g>
</g>
<!-- Node17 -->
<g id="Node000017" class="node">
<title>Node17</title>
<g id="a_Node000017"><a xlink:title=" ">
<polygon fill="#e0e0e0" stroke="#999999" points="1002.12,-83.88 958.38,-83.88 958.38,-63.12 1002.12,-63.12 1002.12,-83.88"/>
<text text-anchor="middle" x="980.25" y="-70.38" font-family="Helvetica,sans-Serif" font-size="10.00">string</text>
</a>
</g>
</g>
<!-- Node16&#45;&gt;Node17 -->
<g id="edge24_Node000016_Node000017" class="edge">
<title>Node16&#45;&gt;Node17</title>
<g id="a_edge24_Node000016_Node000017"><a xlink:title=" ">
<path fill="none" stroke="#63b8ff" d="M1022.22,-125.8C1014.96,-116.93 1004.08,-103.64 995.22,-92.81"/>
<polygon fill="#63b8ff" stroke="#63b8ff" points="998.1,-90.79 989.06,-85.27 992.68,-95.22 998.1,-90.79"/>
</a>
</g>
</g>
</g>
</svg>
