<?xml version="1.0" encoding="UTF-8" standalone="no"?>
<!DOCTYPE svg PUBLIC "-//W3C//DTD SVG 1.1//EN"
 "http://www.w3.org/Graphics/SVG/1.1/DTD/svg11.dtd">
<!-- Generated by graphviz version 10.0.1 (0)
 -->
<!-- Title: include/validation&#45;api/ConfigService.hpp Pages: 1 -->
<svg width="440pt" height="98pt"
 viewBox="0.00 0.00 439.62 98.25" xmlns="http://www.w3.org/2000/svg" xmlns:xlink="http://www.w3.org/1999/xlink">
<g id="graph0" class="graph" transform="scale(1 1) rotate(0) translate(4 94.25)">
<title>include/validation&#45;api/ConfigService.hpp</title>
<!-- Node1 -->
<g id="Node000001" class="node">
<title>Node1</title>
<g id="a_Node000001"><a xlink:title=" ">
<polygon fill="#999999" stroke="#666666" points="284,-90.25 158.5,-90.25 158.5,-56.75 284,-56.75 284,-90.25"/>
<text text-anchor="start" x="166.5" y="-76.75" font-family="Helvetica,sans-Serif" font-size="10.00">include/validation</text>
<text text-anchor="middle" x="221.25" y="-64" font-family="Helvetica,sans-Serif" font-size="10.00">&#45;api/ConfigService.hpp</text>
</a>
</g>
</g>
<!-- Node2 -->
<g id="Node000002" class="node">
<title>Node2</title>
<g id="a_Node000002"><a xlink:title=" ">
<polygon fill="#e0e0e0" stroke="#999999" points="92.5,-20.75 0,-20.75 0,0 92.5,0 92.5,-20.75"/>
<text text-anchor="middle" x="46.25" y="-7.25" font-family="Helvetica,sans-Serif" font-size="10.00">spdlog/spdlog.h</text>
</a>
</g>
</g>
<!-- Node1&#45;&gt;Node2 -->
<g id="edge1_Node000001_Node000002" class="edge">
<title>Node1&#45;&gt;Node2</title>
<g id="a_edge1_Node000001_Node000002"><a xlink:title=" ">
<path fill="none" stroke="#63b8ff" d="M174.81,-56.28C146.81,-46.5 111.56,-34.19 85.06,-24.93"/>
<polygon fill="#63b8ff" stroke="#63b8ff" points="86.3,-21.66 75.71,-21.66 83.99,-28.27 86.3,-21.66"/>
</a>
</g>
</g>
<!-- Node3 -->
<g id="Node000003" class="node">
<title>Node3</title>
<g id="a_Node000003"><a xlink:title=" ">
<polygon fill="#e0e0e0" stroke="#999999" points="209.5,-20.75 111,-20.75 111,0 209.5,0 209.5,-20.75"/>
<text text-anchor="middle" x="160.25" y="-7.25" font-family="Helvetica,sans-Serif" font-size="10.00">boost/thread.hpp</text>
</a>
</g>
</g>
<!-- Node1&#45;&gt;Node3 -->
<g id="edge2_Node000001_Node000003" class="edge">
<title>Node1&#45;&gt;Node3</title>
<g id="a_edge2_Node000001_Node000003"><a xlink:title=" ">
<path fill="none" stroke="#63b8ff" d="M205.22,-56.44C196.86,-48.06 186.6,-37.78 177.99,-29.16"/>
<polygon fill="#63b8ff" stroke="#63b8ff" points="180.68,-26.89 171.14,-22.29 175.73,-31.84 180.68,-26.89"/>
</a>
</g>
</g>
<!-- Node4 -->
<g id="Node000004" class="node">
<title>Node4</title>
<g id="a_Node000004"><a xlink:title=" ">
<polygon fill="#e0e0e0" stroke="#999999" points="336.75,-20.75 227.75,-20.75 227.75,0 336.75,0 336.75,-20.75"/>
<text text-anchor="middle" x="282.25" y="-7.25" font-family="Helvetica,sans-Serif" font-size="10.00">nlohmann/json.hpp</text>
</a>
</g>
</g>
<!-- Node1&#45;&gt;Node4 -->
<g id="edge3_Node000001_Node000004" class="edge">
<title>Node1&#45;&gt;Node4</title>
<g id="a_edge3_Node000001_Node000004"><a xlink:title=" ">
<path fill="none" stroke="#63b8ff" d="M237.28,-56.44C245.64,-48.06 255.9,-37.78 264.51,-29.16"/>
<polygon fill="#63b8ff" stroke="#63b8ff" points="266.77,-31.84 271.36,-22.29 261.82,-26.89 266.77,-31.84"/>
</a>
</g>
</g>
<!-- Node5 -->
<g id="Node000005" class="node">
<title>Node5</title>
<g id="a_Node000005"><a xlink:title=" ">
<polygon fill="#e0e0e0" stroke="#999999" points="431.62,-20.75 354.88,-20.75 354.88,0 431.62,0 431.62,-20.75"/>
<text text-anchor="middle" x="393.25" y="-7.25" font-family="Helvetica,sans-Serif" font-size="10.00">pugixml.hpp</text>
</a>
</g>
</g>
<!-- Node1&#45;&gt;Node5 -->
<g id="edge4_Node000001_Node000005" class="edge">
<title>Node1&#45;&gt;Node5</title>
<g id="a_edge4_Node000001_Node000005"><a xlink:title=" ">
<path fill="none" stroke="#63b8ff" d="M266.89,-56.28C294.41,-46.5 329.06,-34.19 355.11,-24.93"/>
<polygon fill="#63b8ff" stroke="#63b8ff" points="356.02,-28.32 364.28,-21.67 353.68,-21.72 356.02,-28.32"/>
</a>
</g>
</g>
</g>
</svg>
