<?xml version="1.0" encoding="UTF-8" standalone="no"?>
<!DOCTYPE svg PUBLIC "-//W3C//DTD SVG 1.1//EN"
 "http://www.w3.org/Graphics/SVG/1.1/DTD/svg11.dtd">
<!-- Generated by graphviz version 10.0.1 (0)
 -->
<!-- Title: include/validation&#45;api/ConfigService.hpp Pages: 1 -->
<svg width="493pt" height="168pt"
 viewBox="0.00 0.00 492.75 167.75" xmlns="http://www.w3.org/2000/svg" xmlns:xlink="http://www.w3.org/1999/xlink">
<g id="graph0" class="graph" transform="scale(1 1) rotate(0) translate(4 163.75)">
<title>include/validation&#45;api/ConfigService.hpp</title>
<!-- Node1 -->
<g id="Node000001" class="node">
<title>Node1</title>
<g id="a_Node000001"><a xlink:title=" ">
<polygon fill="#999999" stroke="#666666" points="291.38,-159.75 165.88,-159.75 165.88,-126.25 291.38,-126.25 291.38,-159.75"/>
<text text-anchor="start" x="173.88" y="-146.25" font-family="Helvetica,sans-Serif" font-size="10.00">include/validation</text>
<text text-anchor="middle" x="228.62" y="-133.5" font-family="Helvetica,sans-Serif" font-size="10.00">&#45;api/ConfigService.hpp</text>
</a>
</g>
</g>
<!-- Node2 -->
<g id="Node000002" class="node">
<title>Node2</title>
<g id="a_Node000002"><a xlink:href="ConfigWatcher_8hpp.html" target="_top" xlink:title=" ">
<polygon fill="white" stroke="#666666" points="152.88,-90.25 24.38,-90.25 24.38,-56.75 152.88,-56.75 152.88,-90.25"/>
<text text-anchor="start" x="32.38" y="-76.75" font-family="Helvetica,sans-Serif" font-size="10.00">include/validation</text>
<text text-anchor="middle" x="88.62" y="-64" font-family="Helvetica,sans-Serif" font-size="10.00">&#45;api/ConfigWatcher.hpp</text>
</a>
</g>
</g>
<!-- Node1&#45;&gt;Node2 -->
<g id="edge1_Node000001_Node000002" class="edge">
<title>Node1&#45;&gt;Node2</title>
<g id="a_edge1_Node000001_Node000002"><a xlink:title=" ">
<path fill="none" stroke="#63b8ff" d="M184.82,-120.88C164.49,-111.08 140.71,-99.61 121.88,-90.54"/>
<polygon fill="#63b8ff" stroke="#63b8ff" points="183.2,-123.98 193.73,-125.17 186.24,-117.68 183.2,-123.98"/>
</a>
</g>
</g>
<!-- Node4 -->
<g id="Node000004" class="node">
<title>Node4</title>
<g id="a_Node000004"><a xlink:href="main_8cpp.html" target="_top" xlink:title=" ">
<polygon fill="white" stroke="#666666" points="219.75,-20.75 141.5,-20.75 141.5,0 219.75,0 219.75,-20.75"/>
<text text-anchor="middle" x="180.62" y="-7.25" font-family="Helvetica,sans-Serif" font-size="10.00">src/main.cpp</text>
</a>
</g>
</g>
<!-- Node1&#45;&gt;Node4 -->
<g id="edge8_Node000001_Node000004" class="edge">
<title>Node1&#45;&gt;Node4</title>
<g id="a_edge8_Node000001_Node000004"><a xlink:title=" ">
<path fill="none" stroke="#63b8ff" d="M212.18,-115.93C207.64,-107.92 203.02,-98.92 199.62,-90.25 190.22,-66.25 184.55,-36.26 182.08,-21.1"/>
<polygon fill="#63b8ff" stroke="#63b8ff" points="209.14,-117.66 217.25,-124.49 215.17,-114.1 209.14,-117.66"/>
</a>
</g>
</g>
<!-- Node5 -->
<g id="Node000005" class="node">
<title>Node5</title>
<g id="a_Node000005"><a xlink:href="ValidationServer_8hpp.html" target="_top" xlink:title=" ">
<polygon fill="white" stroke="#666666" points="346.75,-90.25 208.5,-90.25 208.5,-56.75 346.75,-56.75 346.75,-90.25"/>
<text text-anchor="start" x="216.5" y="-76.75" font-family="Helvetica,sans-Serif" font-size="10.00">include/validation</text>
<text text-anchor="middle" x="277.62" y="-64" font-family="Helvetica,sans-Serif" font-size="10.00">&#45;api/ValidationServer.hpp</text>
</a>
</g>
</g>
<!-- Node1&#45;&gt;Node5 -->
<g id="edge4_Node000001_Node000005" class="edge">
<title>Node1&#45;&gt;Node5</title>
<g id="a_edge4_Node000001_Node000005"><a xlink:title=" ">
<path fill="none" stroke="#63b8ff" d="M246.89,-116.84C253.32,-107.98 260.37,-98.27 266.1,-90.38"/>
<polygon fill="#63b8ff" stroke="#63b8ff" points="244.17,-114.63 241.13,-124.78 249.83,-118.74 244.17,-114.63"/>
</a>
</g>
</g>
<!-- Node7 -->
<g id="Node000007" class="node">
<title>Node7</title>
<g id="a_Node000007"><a xlink:href="ConfigService_8cpp.html" target="_top" xlink:title=" ">
<polygon fill="white" stroke="#666666" points="484.75,-83.88 364.5,-83.88 364.5,-63.12 484.75,-63.12 484.75,-83.88"/>
<text text-anchor="middle" x="424.62" y="-70.38" font-family="Helvetica,sans-Serif" font-size="10.00">src/ConfigService.cpp</text>
</a>
</g>
</g>
<!-- Node1&#45;&gt;Node7 -->
<g id="edge7_Node000001_Node000007" class="edge">
<title>Node1&#45;&gt;Node7</title>
<g id="a_edge7_Node000001_Node000007"><a xlink:title=" ">
<path fill="none" stroke="#63b8ff" d="M286.45,-122.09C322.51,-109.67 367.33,-94.23 395.97,-84.37"/>
<polygon fill="#63b8ff" stroke="#63b8ff" points="285.32,-118.77 277,-125.34 287.6,-125.39 285.32,-118.77"/>
</a>
</g>
</g>
<!-- Node3 -->
<g id="Node000003" class="node">
<title>Node3</title>
<g id="a_Node000003"><a xlink:href="ConfigWatcher_8cpp.html" target="_top" xlink:title=" ">
<polygon fill="white" stroke="#666666" points="123.25,-20.75 0,-20.75 0,0 123.25,0 123.25,-20.75"/>
<text text-anchor="middle" x="61.62" y="-7.25" font-family="Helvetica,sans-Serif" font-size="10.00">src/ConfigWatcher.cpp</text>
</a>
</g>
</g>
<!-- Node2&#45;&gt;Node3 -->
<g id="edge2_Node000002_Node000003" class="edge">
<title>Node2&#45;&gt;Node3</title>
<g id="a_edge2_Node000002_Node000003"><a xlink:title=" ">
<path fill="none" stroke="#63b8ff" d="M76.97,-46.11C73.07,-37.27 68.96,-27.97 65.97,-21.22"/>
<polygon fill="#63b8ff" stroke="#63b8ff" points="73.68,-47.32 80.92,-55.06 80.08,-44.49 73.68,-47.32"/>
</a>
</g>
</g>
<!-- Node2&#45;&gt;Node4 -->
<g id="edge3_Node000002_Node000004" class="edge">
<title>Node2&#45;&gt;Node4</title>
<g id="a_edge3_Node000002_Node000004"><a xlink:title=" ">
<path fill="none" stroke="#63b8ff" d="M122.28,-50.14C137.24,-40.2 154.08,-29.01 165.81,-21.22"/>
<polygon fill="#63b8ff" stroke="#63b8ff" points="120.45,-47.15 114.06,-55.6 124.32,-52.98 120.45,-47.15"/>
</a>
</g>
</g>
<!-- Node5&#45;&gt;Node4 -->
<g id="edge6_Node000005_Node000004" class="edge">
<title>Node5&#45;&gt;Node4</title>
<g id="a_edge6_Node000005_Node000004"><a xlink:title=" ">
<path fill="none" stroke="#63b8ff" d="M242.34,-50.27C226.48,-40.27 208.58,-28.99 196.16,-21.17"/>
<polygon fill="#63b8ff" stroke="#63b8ff" points="240.28,-53.1 250.6,-55.47 244.01,-47.18 240.28,-53.1"/>
</a>
</g>
</g>
<!-- Node6 -->
<g id="Node000006" class="node">
<title>Node6</title>
<g id="a_Node000006"><a xlink:href="ValidationServer_8cpp.html" target="_top" xlink:title=" ">
<polygon fill="white" stroke="#666666" points="371.12,-20.75 238.12,-20.75 238.12,0 371.12,0 371.12,-20.75"/>
<text text-anchor="middle" x="304.62" y="-7.25" font-family="Helvetica,sans-Serif" font-size="10.00">src/ValidationServer.cpp</text>
</a>
</g>
</g>
<!-- Node5&#45;&gt;Node6 -->
<g id="edge5_Node000005_Node000006" class="edge">
<title>Node5&#45;&gt;Node6</title>
<g id="a_edge5_Node000005_Node000006"><a xlink:title=" ">
<path fill="none" stroke="#63b8ff" d="M289.28,-46.11C293.18,-37.27 297.29,-27.97 300.28,-21.22"/>
<polygon fill="#63b8ff" stroke="#63b8ff" points="286.17,-44.49 285.33,-55.06 292.57,-47.32 286.17,-44.49"/>
</a>
</g>
</g>
</g>
</svg>
