<?xml version="1.0" encoding="UTF-8" standalone="no"?>
<!DOCTYPE svg PUBLIC "-//W3C//DTD SVG 1.1//EN"
 "http://www.w3.org/Graphics/SVG/1.1/DTD/svg11.dtd">
<!-- Generated by graphviz version 10.0.1 (0)
 -->
<!-- Title: include/validation&#45;api/ConfigService.hpp Pages: 1 -->
<svg width="780pt" height="225pt"
 viewBox="0.00 0.00 780.39 224.50" xmlns="http://www.w3.org/2000/svg" xmlns:xlink="http://www.w3.org/1999/xlink">
<g id="graph0" class="graph" transform="scale(1 1) rotate(0) translate(4 220.5)">
<title>include/validation&#45;api/ConfigService.hpp</title>
<!-- Node1 -->
<g id="Node000001" class="node">
<title>Node1</title>
<g id="a_Node000001"><a xlink:title=" ">
<polygon fill="#999999" stroke="#666666" points="443.39,-216.5 317.89,-216.5 317.89,-183 443.39,-183 443.39,-216.5"/>
<text text-anchor="start" x="325.89" y="-203" font-family="Helvetica,sans-Serif" font-size="10.00">include/validation</text>
<text text-anchor="middle" x="380.64" y="-190.25" font-family="Helvetica,sans-Serif" font-size="10.00">&#45;api/ConfigService.hpp</text>
</a>
</g>
</g>
<!-- Node2 -->
<g id="Node000002" class="node">
<title>Node2</title>
<g id="a_Node000002"><a xlink:href="Helpers_8hpp.html" target="_top" xlink:title=" ">
<polygon fill="white" stroke="#666666" points="371.52,-140.62 243.77,-140.62 243.77,-119.88 371.52,-119.88 371.52,-140.62"/>
<text text-anchor="middle" x="307.64" y="-127.12" font-family="Helvetica,sans-Serif" font-size="10.00">include/lib/Helpers.hpp</text>
</a>
</g>
</g>
<!-- Node1&#45;&gt;Node2 -->
<g id="edge1_Node000001_Node000002" class="edge">
<title>Node1&#45;&gt;Node2</title>
<g id="a_edge1_Node000001_Node000002"><a xlink:title=" ">
<path fill="none" stroke="#63b8ff" d="M355,-175.04C342.38,-163.37 327.87,-149.95 318.27,-141.07"/>
<polygon fill="#63b8ff" stroke="#63b8ff" points="352.52,-177.51 362.23,-181.73 357.27,-172.37 352.52,-177.51"/>
</a>
</g>
</g>
<!-- Node3 -->
<g id="Node000003" class="node">
<title>Node3</title>
<g id="a_Node000003"><a xlink:href="Validation_8hpp.html" target="_top" xlink:title=" ">
<polygon fill="white" stroke="#666666" points="279.14,-77.5 140.14,-77.5 140.14,-56.75 279.14,-56.75 279.14,-77.5"/>
<text text-anchor="middle" x="209.64" y="-64" font-family="Helvetica,sans-Serif" font-size="10.00">include/lib/Validation.hpp</text>
</a>
</g>
</g>
<!-- Node1&#45;&gt;Node3 -->
<g id="edge10_Node000001_Node000003" class="edge">
<title>Node1&#45;&gt;Node3</title>
<g id="a_edge10_Node000001_Node000003"><a xlink:title=" ">
<path fill="none" stroke="#63b8ff" d="M306.69,-186.59C280.96,-179.03 253.78,-166.79 234.64,-147 215.87,-127.58 211.19,-94.15 210.03,-77.75"/>
<polygon fill="#63b8ff" stroke="#63b8ff" points="305.57,-189.91 316.14,-189.16 307.41,-183.16 305.57,-189.91"/>
</a>
</g>
</g>
<!-- Node4 -->
<g id="Node000004" class="node">
<title>Node4</title>
<g id="a_Node000004"><a xlink:href="ConfigService_8cpp.html" target="_top" xlink:title=" ">
<polygon fill="white" stroke="#666666" points="405.77,-20.75 285.52,-20.75 285.52,0 405.77,0 405.77,-20.75"/>
<text text-anchor="middle" x="345.64" y="-7.25" font-family="Helvetica,sans-Serif" font-size="10.00">src/ConfigService.cpp</text>
</a>
</g>
</g>
<!-- Node1&#45;&gt;Node4 -->
<g id="edge17_Node000001_Node000004" class="edge">
<title>Node1&#45;&gt;Node4</title>
<g id="a_edge17_Node000001_Node000004"><a xlink:title=" ">
<path fill="none" stroke="#63b8ff" d="M454.75,-195.21C587.15,-186.32 842.55,-156.09 753.64,-56.75 730.89,-31.32 513.87,-18.55 405.96,-13.72"/>
<polygon fill="#63b8ff" stroke="#63b8ff" points="454.76,-191.7 445.01,-195.83 455.21,-198.68 454.76,-191.7"/>
</a>
</g>
</g>
<!-- Node5 -->
<g id="Node000005" class="node">
<title>Node5</title>
<g id="a_Node000005"><a xlink:href="Validation_8cpp.html" target="_top" xlink:title=" ">
<polygon fill="white" stroke="#666666" points="267.27,-20.75 150.02,-20.75 150.02,0 267.27,0 267.27,-20.75"/>
<text text-anchor="middle" x="208.64" y="-7.25" font-family="Helvetica,sans-Serif" font-size="10.00">src/lib/Validation.cpp</text>
</a>
</g>
</g>
<!-- Node1&#45;&gt;Node5 -->
<g id="edge19_Node000001_Node000005" class="edge">
<title>Node1&#45;&gt;Node5</title>
<g id="a_edge19_Node000001_Node000005"><a xlink:title=" ">
<path fill="none" stroke="#63b8ff" d="M306.34,-186.21C206.67,-167.59 38.49,-129.19 6.64,-77.5 -27.08,-22.75 78.69,-11.9 149.69,-10.55"/>
<polygon fill="#63b8ff" stroke="#63b8ff" points="305.59,-189.63 316.06,-188 306.86,-182.75 305.59,-189.63"/>
</a>
</g>
</g>
<!-- Node8 -->
<g id="Node000008" class="node">
<title>Node8</title>
<g id="a_Node000008"><a xlink:href="Helpers_8cpp.html" target="_top" xlink:title=" ">
<polygon fill="white" stroke="#666666" points="121.64,-77.5 15.64,-77.5 15.64,-56.75 121.64,-56.75 121.64,-77.5"/>
<text text-anchor="middle" x="68.64" y="-64" font-family="Helvetica,sans-Serif" font-size="10.00">src/lib/Helpers.cpp</text>
</a>
</g>
</g>
<!-- Node1&#45;&gt;Node8 -->
<g id="edge18_Node000001_Node000008" class="edge">
<title>Node1&#45;&gt;Node8</title>
<g id="a_edge18_Node000001_Node000008"><a xlink:title=" ">
<path fill="none" stroke="#63b8ff" d="M306.99,-179.56C277.21,-170.91 242.81,-159.75 212.64,-147 163.81,-126.36 109.92,-94.07 84.1,-77.96"/>
<polygon fill="#63b8ff" stroke="#63b8ff" points="305.71,-182.84 316.28,-182.22 307.63,-176.11 305.71,-182.84"/>
</a>
</g>
</g>
<!-- Node9 -->
<g id="Node000009" class="node">
<title>Node9</title>
<g id="a_Node000009"><a xlink:href="ConfigWatcher_8hpp.html" target="_top" xlink:title=" ">
<polygon fill="white" stroke="#666666" points="517.89,-147 389.39,-147 389.39,-113.5 517.89,-113.5 517.89,-147"/>
<text text-anchor="start" x="397.39" y="-133.5" font-family="Helvetica,sans-Serif" font-size="10.00">include/validation</text>
<text text-anchor="middle" x="453.64" y="-120.75" font-family="Helvetica,sans-Serif" font-size="10.00">&#45;api/ConfigWatcher.hpp</text>
</a>
</g>
</g>
<!-- Node1&#45;&gt;Node9 -->
<g id="edge11_Node000001_Node000009" class="edge">
<title>Node1&#45;&gt;Node9</title>
<g id="a_edge11_Node000001_Node000009"><a xlink:title=" ">
<path fill="none" stroke="#63b8ff" d="M406.27,-175.06C416.17,-165.9 427.26,-155.65 436.22,-147.37"/>
<polygon fill="#63b8ff" stroke="#63b8ff" points="404.02,-172.37 399.06,-181.73 408.77,-177.51 404.02,-172.37"/>
</a>
</g>
</g>
<!-- Node10 -->
<g id="Node000010" class="node">
<title>Node10</title>
<g id="a_Node000010"><a xlink:href="main_8cpp.html" target="_top" xlink:title=" ">
<polygon fill="white" stroke="#666666" points="744.77,-77.5 666.52,-77.5 666.52,-56.75 744.77,-56.75 744.77,-77.5"/>
<text text-anchor="middle" x="705.64" y="-64" font-family="Helvetica,sans-Serif" font-size="10.00">src/main.cpp</text>
</a>
</g>
</g>
<!-- Node1&#45;&gt;Node10 -->
<g id="edge20_Node000001_Node000010" class="edge">
<title>Node1&#45;&gt;Node10</title>
<g id="a_edge20_Node000001_Node000010"><a xlink:title=" ">
<path fill="none" stroke="#63b8ff" d="M455.06,-194.89C533.39,-189.32 649.82,-176.28 682.64,-147 702.76,-129.05 705.71,-94.62 705.88,-77.82"/>
<polygon fill="#63b8ff" stroke="#63b8ff" points="455.04,-191.39 445.3,-195.56 455.52,-198.37 455.04,-191.39"/>
</a>
</g>
</g>
<!-- Node11 -->
<g id="Node000011" class="node">
<title>Node11</title>
<g id="a_Node000011"><a xlink:href="ValidationServer_8hpp.html" target="_top" xlink:title=" ">
<polygon fill="white" stroke="#666666" points="673.77,-147 535.52,-147 535.52,-113.5 673.77,-113.5 673.77,-147"/>
<text text-anchor="start" x="543.52" y="-133.5" font-family="Helvetica,sans-Serif" font-size="10.00">include/validation</text>
<text text-anchor="middle" x="604.64" y="-120.75" font-family="Helvetica,sans-Serif" font-size="10.00">&#45;api/ValidationServer.hpp</text>
</a>
</g>
</g>
<!-- Node1&#45;&gt;Node11 -->
<g id="edge14_Node000001_Node000011" class="edge">
<title>Node1&#45;&gt;Node11</title>
<g id="a_edge14_Node000001_Node000011"><a xlink:title=" ">
<path fill="none" stroke="#63b8ff" d="M444.94,-179.38C478.53,-169.25 519.17,-157.01 551.04,-147.4"/>
<polygon fill="#63b8ff" stroke="#63b8ff" points="444.31,-175.91 435.75,-182.15 446.33,-182.61 444.31,-175.91"/>
</a>
</g>
</g>
<!-- Node2&#45;&gt;Node3 -->
<g id="edge2_Node000002_Node000003" class="edge">
<title>Node2&#45;&gt;Node3</title>
<g id="a_edge2_Node000002_Node000003"><a xlink:title=" ">
<path fill="none" stroke="#63b8ff" d="M282.31,-113.45C264.31,-102.22 240.7,-87.49 225.35,-77.92"/>
<polygon fill="#63b8ff" stroke="#63b8ff" points="280.28,-116.31 290.62,-118.63 283.98,-110.37 280.28,-116.31"/>
</a>
</g>
</g>
<!-- Node2&#45;&gt;Node4 -->
<g id="edge5_Node000002_Node000004" class="edge">
<title>Node2&#45;&gt;Node4</title>
<g id="a_edge5_Node000002_Node000004"><a xlink:title=" ">
<path fill="none" stroke="#63b8ff" d="M314.2,-108.91C322.46,-83.3 336.31,-40.35 342.49,-21.15"/>
<polygon fill="#63b8ff" stroke="#63b8ff" points="310.96,-107.57 311.22,-118.16 317.62,-109.72 310.96,-107.57"/>
</a>
</g>
</g>
<!-- Node2&#45;&gt;Node5 -->
<g id="edge9_Node000002_Node000005" class="edge">
<title>Node2&#45;&gt;Node5</title>
<g id="a_edge9_Node000002_Node000005"><a xlink:title=" ">
<path fill="none" stroke="#63b8ff" d="M306.14,-108.42C304.08,-92.81 299.19,-71.65 287.64,-56.75 274.76,-40.12 253.94,-28.52 236.91,-21.22"/>
<polygon fill="#63b8ff" stroke="#63b8ff" points="302.62,-108.43 307.11,-118.03 309.59,-107.73 302.62,-108.43"/>
</a>
</g>
</g>
<!-- Node6 -->
<g id="Node000006" class="node">
<title>Node6</title>
<g id="a_Node000006"><a xlink:href="ConfigWatcher_8cpp.html" target="_top" xlink:title=" ">
<polygon fill="white" stroke="#666666" points="497.27,-77.5 374.02,-77.5 374.02,-56.75 497.27,-56.75 497.27,-77.5"/>
<text text-anchor="middle" x="435.64" y="-64" font-family="Helvetica,sans-Serif" font-size="10.00">src/ConfigWatcher.cpp</text>
</a>
</g>
</g>
<!-- Node2&#45;&gt;Node6 -->
<g id="edge6_Node000002_Node000006" class="edge">
<title>Node2&#45;&gt;Node6</title>
<g id="a_edge6_Node000002_Node000006"><a xlink:title=" ">
<path fill="none" stroke="#63b8ff" d="M338.46,-114.53C362.23,-103.18 394.44,-87.8 415.13,-77.92"/>
<polygon fill="#63b8ff" stroke="#63b8ff" points="337.09,-111.31 329.58,-118.78 340.11,-117.63 337.09,-111.31"/>
</a>
</g>
</g>
<!-- Node7 -->
<g id="Node000007" class="node">
<title>Node7</title>
<g id="a_Node000007"><a xlink:href="ValidationServer_8cpp.html" target="_top" xlink:title=" ">
<polygon fill="white" stroke="#666666" points="648.14,-77.5 515.14,-77.5 515.14,-56.75 648.14,-56.75 648.14,-77.5"/>
<text text-anchor="middle" x="581.64" y="-64" font-family="Helvetica,sans-Serif" font-size="10.00">src/ValidationServer.cpp</text>
</a>
</g>
</g>
<!-- Node2&#45;&gt;Node7 -->
<g id="edge7_Node000002_Node000007" class="edge">
<title>Node2&#45;&gt;Node7</title>
<g id="a_edge7_Node000002_Node000007"><a xlink:title=" ">
<path fill="none" stroke="#63b8ff" d="M362.59,-116.99C414.11,-105.5 490.14,-88.54 537.73,-77.92"/>
<polygon fill="#63b8ff" stroke="#63b8ff" points="362.14,-113.51 353.15,-119.1 363.67,-120.34 362.14,-113.51"/>
</a>
</g>
</g>
<!-- Node2&#45;&gt;Node8 -->
<g id="edge8_Node000002_Node000008" class="edge">
<title>Node2&#45;&gt;Node8</title>
<g id="a_edge8_Node000002_Node000008"><a xlink:title=" ">
<path fill="none" stroke="#63b8ff" d="M258.3,-116.63C213.39,-105.14 148.03,-88.43 106.95,-77.92"/>
<polygon fill="#63b8ff" stroke="#63b8ff" points="257.22,-119.97 267.78,-119.05 258.96,-113.19 257.22,-119.97"/>
</a>
</g>
</g>
<!-- Node3&#45;&gt;Node4 -->
<g id="edge3_Node000003_Node000004" class="edge">
<title>Node3&#45;&gt;Node4</title>
<g id="a_edge3_Node000003_Node000004"><a xlink:title=" ">
<path fill="none" stroke="#63b8ff" d="M244.47,-52.11C268.61,-42.39 300.14,-29.69 321.54,-21.08"/>
<polygon fill="#63b8ff" stroke="#63b8ff" points="243.33,-48.79 235.36,-55.77 245.95,-55.28 243.33,-48.79"/>
</a>
</g>
</g>
<!-- Node3&#45;&gt;Node5 -->
<g id="edge4_Node000003_Node000005" class="edge">
<title>Node3&#45;&gt;Node5</title>
<g id="a_edge4_Node000003_Node000005"><a xlink:title=" ">
<path fill="none" stroke="#63b8ff" d="M209.26,-44.88C209.11,-36.66 208.94,-27.68 208.82,-21.08"/>
<polygon fill="#63b8ff" stroke="#63b8ff" points="205.76,-44.89 209.44,-54.82 212.76,-44.76 205.76,-44.89"/>
</a>
</g>
</g>
<!-- Node9&#45;&gt;Node6 -->
<g id="edge12_Node000009_Node000006" class="edge">
<title>Node9&#45;&gt;Node6</title>
<g id="a_edge12_Node000009_Node000006"><a xlink:title=" ">
<path fill="none" stroke="#63b8ff" d="M445.7,-102.27C443.15,-93.62 440.49,-84.57 438.54,-77.97"/>
<polygon fill="#63b8ff" stroke="#63b8ff" points="442.31,-103.13 448.49,-111.74 449.02,-101.16 442.31,-103.13"/>
</a>
</g>
</g>
<!-- Node9&#45;&gt;Node10 -->
<g id="edge13_Node000009_Node000010" class="edge">
<title>Node9&#45;&gt;Node10</title>
<g id="a_edge13_Node000009_Node000010"><a xlink:title=" ">
<path fill="none" stroke="#63b8ff" d="M529.12,-110.94C574.13,-100.03 629.44,-86.61 666.03,-77.73"/>
<polygon fill="#63b8ff" stroke="#63b8ff" points="528.58,-107.47 519.68,-113.23 530.23,-114.28 528.58,-107.47"/>
</a>
</g>
</g>
<!-- Node11&#45;&gt;Node7 -->
<g id="edge15_Node000011_Node000007" class="edge">
<title>Node11&#45;&gt;Node7</title>
<g id="a_edge15_Node000011_Node000007"><a xlink:title=" ">
<path fill="none" stroke="#63b8ff" d="M594.6,-102.56C591.31,-93.82 587.86,-84.65 585.35,-77.97"/>
<polygon fill="#63b8ff" stroke="#63b8ff" points="591.27,-103.65 598.07,-111.77 597.82,-101.18 591.27,-103.65"/>
</a>
</g>
</g>
<!-- Node11&#45;&gt;Node10 -->
<g id="edge16_Node000011_Node000010" class="edge">
<title>Node11&#45;&gt;Node10</title>
<g id="a_edge16_Node000011_Node000010"><a xlink:title=" ">
<path fill="none" stroke="#63b8ff" d="M640.92,-107.3C657.54,-97.24 676.41,-85.82 689.47,-77.92"/>
<polygon fill="#63b8ff" stroke="#63b8ff" points="639.48,-104.07 632.74,-112.25 643.11,-110.06 639.48,-104.07"/>
</a>
</g>
</g>
</g>
</svg>
