<?xml version="1.0" encoding="UTF-8" standalone="no"?>
<!DOCTYPE svg PUBLIC "-//W3C//DTD SVG 1.1//EN"
 "http://www.w3.org/Graphics/SVG/1.1/DTD/svg11.dtd">
<!-- Generated by graphviz version 10.0.1 (0)
 -->
<!-- Title: src/ConfigService.cpp Pages: 1 -->
<svg width="969pt" height="269pt"
 viewBox="0.00 0.00 968.75 268.50" xmlns="http://www.w3.org/2000/svg" xmlns:xlink="http://www.w3.org/1999/xlink">
<g id="graph0" class="graph" transform="scale(1 1) rotate(0) translate(4 264.5)">
<title>src/ConfigService.cpp</title>
<!-- Node1 -->
<g id="Node000001" class="node">
<title>Node1</title>
<g id="a_Node000001"><a xlink:title=" ">
<polygon fill="#999999" stroke="#666666" points="555.62,-260.5 435.38,-260.5 435.38,-239.75 555.62,-239.75 555.62,-260.5"/>
<text text-anchor="middle" x="495.5" y="-247" font-family="Helvetica,sans-Serif" font-size="10.00">src/ConfigService.cpp</text>
</a>
</g>
</g>
<!-- Node2 -->
<g id="Node000002" class="node">
<title>Node2</title>
<g id="a_Node000002"><a xlink:href="ErrorBuilder_8hpp.html" target="_top" xlink:title=" ">
<polygon fill="white" stroke="#666666" points="155,-147 46,-147 46,-126.25 155,-126.25 155,-147"/>
<text text-anchor="middle" x="100.5" y="-133.5" font-family="Helvetica,sans-Serif" font-size="10.00">lib/ErrorBuilder.hpp</text>
</a>
</g>
</g>
<!-- Node1&#45;&gt;Node2 -->
<g id="edge1_Node000001_Node000002" class="edge">
<title>Node1&#45;&gt;Node2</title>
<g id="a_edge1_Node000001_Node000002"><a xlink:title=" ">
<path fill="none" stroke="#63b8ff" d="M460.79,-239.33C389.32,-219.15 225.75,-172.98 145.95,-150.46"/>
<polygon fill="#63b8ff" stroke="#63b8ff" points="147.3,-147.2 136.73,-147.85 145.4,-153.94 147.3,-147.2"/>
</a>
</g>
</g>
<!-- Node3 -->
<g id="Node000003" class="node">
<title>Node3</title>
<g id="a_Node000003"><a xlink:title=" ">
<polygon fill="#e0e0e0" stroke="#999999" points="49,-83.88 0,-83.88 0,-63.12 49,-63.12 49,-83.88"/>
<text text-anchor="middle" x="24.5" y="-70.38" font-family="Helvetica,sans-Serif" font-size="10.00">format</text>
</a>
</g>
</g>
<!-- Node1&#45;&gt;Node3 -->
<g id="edge5_Node000001_Node000003" class="edge">
<title>Node1&#45;&gt;Node3</title>
<g id="a_edge5_Node000001_Node000003"><a xlink:title=" ">
<path fill="none" stroke="#63b8ff" d="M435.03,-244.12C323,-233.53 89.71,-204.95 36.5,-147 23.84,-133.21 21.75,-111.4 22.27,-95.3"/>
<polygon fill="#63b8ff" stroke="#63b8ff" points="25.76,-95.61 22.99,-85.39 18.78,-95.11 25.76,-95.61"/>
</a>
</g>
</g>
<!-- Node6 -->
<g id="Node000006" class="node">
<title>Node6</title>
<g id="a_Node000006"><a xlink:title=" ">
<polygon fill="#e0e0e0" stroke="#999999" points="960.75,-20.75 868.25,-20.75 868.25,0 960.75,0 960.75,-20.75"/>
<text text-anchor="middle" x="914.5" y="-7.25" font-family="Helvetica,sans-Serif" font-size="10.00">spdlog/spdlog.h</text>
</a>
</g>
</g>
<!-- Node1&#45;&gt;Node6 -->
<g id="edge6_Node000001_Node000006" class="edge">
<title>Node1&#45;&gt;Node6</title>
<g id="a_edge6_Node000001_Node000006"><a xlink:title=" ">
<path fill="none" stroke="#63b8ff" d="M556.08,-245.82C611.83,-241.19 695.99,-230.12 764.5,-203.75 836.71,-175.96 863.8,-160.37 896.5,-90.25 905.2,-71.59 909.84,-48.43 912.22,-32.04"/>
<polygon fill="#63b8ff" stroke="#63b8ff" points="915.64,-32.89 913.43,-22.53 908.69,-32 915.64,-32.89"/>
</a>
</g>
</g>
<!-- Node7 -->
<g id="Node000007" class="node">
<title>Node7</title>
<g id="a_Node000007"><a xlink:href="Helpers_8hpp.html" target="_top" xlink:title=" ">
<polygon fill="white" stroke="#666666" points="501.25,-147 411.75,-147 411.75,-126.25 501.25,-126.25 501.25,-147"/>
<text text-anchor="middle" x="456.5" y="-133.5" font-family="Helvetica,sans-Serif" font-size="10.00">lib/Helpers.hpp</text>
</a>
</g>
</g>
<!-- Node1&#45;&gt;Node7 -->
<g id="edge7_Node000001_Node000007" class="edge">
<title>Node1&#45;&gt;Node7</title>
<g id="a_edge7_Node000001_Node000007"><a xlink:title=" ">
<path fill="none" stroke="#63b8ff" d="M490.82,-239.54C486.5,-230.46 480.07,-216.38 475.5,-203.75 470.08,-188.77 465.15,-171.45 461.67,-158.3"/>
<polygon fill="#63b8ff" stroke="#63b8ff" points="465.06,-157.45 459.19,-148.64 458.28,-159.19 465.06,-157.45"/>
</a>
</g>
</g>
<!-- Node12 -->
<g id="Node000012" class="node">
<title>Node12</title>
<g id="a_Node000012"><a xlink:href="ConfigService_8hpp.html" target="_top" xlink:title=" ">
<polygon fill="white" stroke="#666666" points="887.62,-83.88 713.38,-83.88 713.38,-63.12 887.62,-63.12 887.62,-83.88"/>
<text text-anchor="middle" x="800.5" y="-70.38" font-family="Helvetica,sans-Serif" font-size="10.00">validation&#45;api/ConfigService.hpp</text>
</a>
</g>
</g>
<!-- Node1&#45;&gt;Node12 -->
<g id="edge27_Node000001_Node000012" class="edge">
<title>Node1&#45;&gt;Node12</title>
<g id="a_edge27_Node000001_Node000012"><a xlink:title=" ">
<path fill="none" stroke="#63b8ff" d="M555.9,-239.86C644.73,-224.85 803.76,-192.28 837.5,-147 850.39,-129.69 834.74,-107.23 820,-91.93"/>
<polygon fill="#63b8ff" stroke="#63b8ff" points="822.79,-89.76 813.19,-85.3 817.91,-94.78 822.79,-89.76"/>
</a>
</g>
</g>
<!-- Node14 -->
<g id="Node000014" class="node">
<title>Node14</title>
<g id="a_Node000014"><a xlink:href="Validation_8hpp.html" target="_top" xlink:title=" ">
<polygon fill="white" stroke="#666666" points="584.88,-203.75 484.12,-203.75 484.12,-183 584.88,-183 584.88,-203.75"/>
<text text-anchor="middle" x="534.5" y="-190.25" font-family="Helvetica,sans-Serif" font-size="10.00">lib/Validation.hpp</text>
</a>
</g>
</g>
<!-- Node1&#45;&gt;Node14 -->
<g id="edge18_Node000001_Node000014" class="edge">
<title>Node1&#45;&gt;Node14</title>
<g id="a_edge18_Node000001_Node000014"><a xlink:title=" ">
<path fill="none" stroke="#63b8ff" d="M502.47,-239.34C507.63,-232.1 514.82,-222.01 521.07,-213.22"/>
<polygon fill="#63b8ff" stroke="#63b8ff" points="523.76,-215.49 526.71,-205.31 518.06,-211.43 523.76,-215.49"/>
</a>
</g>
</g>
<!-- Node2&#45;&gt;Node3 -->
<g id="edge2_Node000002_Node000003" class="edge">
<title>Node2&#45;&gt;Node3</title>
<g id="a_edge2_Node000002_Node000003"><a xlink:title=" ">
<path fill="none" stroke="#63b8ff" d="M88.29,-125.8C76.7,-116.48 59.04,-102.28 45.25,-91.19"/>
<polygon fill="#63b8ff" stroke="#63b8ff" points="47.6,-88.58 37.61,-85.04 43.21,-94.04 47.6,-88.58"/>
</a>
</g>
</g>
<!-- Node4 -->
<g id="Node000004" class="node">
<title>Node4</title>
<g id="a_Node000004"><a xlink:title=" ">
<polygon fill="#e0e0e0" stroke="#999999" points="418,-20.75 309,-20.75 309,0 418,0 418,-20.75"/>
<text text-anchor="middle" x="363.5" y="-7.25" font-family="Helvetica,sans-Serif" font-size="10.00">nlohmann/json.hpp</text>
</a>
</g>
</g>
<!-- Node2&#45;&gt;Node4 -->
<g id="edge3_Node000002_Node000004" class="edge">
<title>Node2&#45;&gt;Node4</title>
<g id="a_edge3_Node000002_Node000004"><a xlink:title=" ">
<path fill="none" stroke="#63b8ff" d="M105.66,-125.87C115.14,-108.97 136.97,-74.38 165.5,-56.75 205.18,-32.24 256.71,-20.94 297.25,-15.75"/>
<polygon fill="#63b8ff" stroke="#63b8ff" points="297.62,-19.23 307.14,-14.59 296.8,-12.28 297.62,-19.23"/>
</a>
</g>
</g>
<!-- Node5 -->
<g id="Node000005" class="node">
<title>Node5</title>
<g id="a_Node000005"><a xlink:title=" ">
<polygon fill="#e0e0e0" stroke="#999999" points="113.38,-83.88 69.62,-83.88 69.62,-63.12 113.38,-63.12 113.38,-83.88"/>
<text text-anchor="middle" x="91.5" y="-70.38" font-family="Helvetica,sans-Serif" font-size="10.00">string</text>
</a>
</g>
</g>
<!-- Node2&#45;&gt;Node5 -->
<g id="edge4_Node000002_Node000005" class="edge">
<title>Node2&#45;&gt;Node5</title>
<g id="a_edge4_Node000002_Node000005"><a xlink:title=" ">
<path fill="none" stroke="#63b8ff" d="M99.05,-125.8C97.85,-117.65 96.1,-105.76 94.59,-95.48"/>
<polygon fill="#63b8ff" stroke="#63b8ff" points="98.05,-94.98 93.13,-85.59 91.13,-96 98.05,-94.98"/>
</a>
</g>
</g>
<!-- Node7&#45;&gt;Node4 -->
<g id="edge10_Node000007_Node000004" class="edge">
<title>Node7&#45;&gt;Node4</title>
<g id="a_edge10_Node000007_Node000004"><a xlink:title=" ">
<path fill="none" stroke="#63b8ff" d="M484.55,-125.86C500.51,-118.68 519.15,-107.2 528.5,-90.25 535.69,-77.21 537.52,-68.59 528.5,-56.75 516.2,-40.61 470.01,-28.77 429.62,-21.24"/>
<polygon fill="#63b8ff" stroke="#63b8ff" points="430.37,-17.82 419.91,-19.5 429.14,-24.71 430.37,-17.82"/>
</a>
</g>
</g>
<!-- Node8 -->
<g id="Node000008" class="node">
<title>Node8</title>
<g id="a_Node000008"><a xlink:title=" ">
<polygon fill="#e0e0e0" stroke="#999999" points="331.5,-90.25 207.5,-90.25 207.5,-56.75 331.5,-56.75 331.5,-90.25"/>
<text text-anchor="start" x="215.5" y="-76.75" font-family="Helvetica,sans-Serif" font-size="10.00">boost/algorithm/string</text>
<text text-anchor="middle" x="269.5" y="-64" font-family="Helvetica,sans-Serif" font-size="10.00">/trim.hpp</text>
</a>
</g>
</g>
<!-- Node7&#45;&gt;Node8 -->
<g id="edge8_Node000007_Node000008" class="edge">
<title>Node7&#45;&gt;Node8</title>
<g id="a_edge8_Node000007_Node000008"><a xlink:title=" ">
<path fill="none" stroke="#63b8ff" d="M426.46,-125.8C400.48,-117.31 362.14,-104.78 329.86,-94.23"/>
<polygon fill="#63b8ff" stroke="#63b8ff" points="331.2,-90.99 320.61,-91.21 329.02,-97.64 331.2,-90.99"/>
</a>
</g>
</g>
<!-- Node9 -->
<g id="Node000009" class="node">
<title>Node9</title>
<g id="a_Node000009"><a xlink:title=" ">
<polygon fill="#e0e0e0" stroke="#999999" points="519.38,-83.88 349.62,-83.88 349.62,-63.12 519.38,-63.12 519.38,-83.88"/>
<text text-anchor="middle" x="434.5" y="-70.38" font-family="Helvetica,sans-Serif" font-size="10.00">boost/uuid/uuid_generators.hpp</text>
</a>
</g>
</g>
<!-- Node7&#45;&gt;Node9 -->
<g id="edge9_Node000007_Node000009" class="edge">
<title>Node7&#45;&gt;Node9</title>
<g id="a_edge9_Node000007_Node000009"><a xlink:title=" ">
<path fill="none" stroke="#63b8ff" d="M452.97,-125.8C449.96,-117.47 445.56,-105.23 441.81,-94.8"/>
<polygon fill="#63b8ff" stroke="#63b8ff" points="445.15,-93.74 438.47,-85.52 438.56,-96.11 445.15,-93.74"/>
</a>
</g>
</g>
<!-- Node10 -->
<g id="Node000010" class="node">
<title>Node10</title>
<g id="a_Node000010"><a xlink:title=" ">
<polygon fill="#e0e0e0" stroke="#999999" points="723.88,-20.75 647.12,-20.75 647.12,0 723.88,0 723.88,-20.75"/>
<text text-anchor="middle" x="685.5" y="-7.25" font-family="Helvetica,sans-Serif" font-size="10.00">pugixml.hpp</text>
</a>
</g>
</g>
<!-- Node7&#45;&gt;Node10 -->
<g id="edge11_Node000007_Node000010" class="edge">
<title>Node7&#45;&gt;Node10</title>
<g id="a_edge11_Node000007_Node000010"><a xlink:title=" ">
<path fill="none" stroke="#63b8ff" d="M501.51,-127.33C545.26,-118.64 608,-104.32 628.5,-90.25 650.2,-75.36 666.6,-49.38 676.11,-31.33"/>
<polygon fill="#63b8ff" stroke="#63b8ff" points="679.23,-32.91 680.57,-22.4 672.97,-29.78 679.23,-32.91"/>
</a>
</g>
</g>
<!-- Node11 -->
<g id="Node000011" class="node">
<title>Node11</title>
<g id="a_Node000011"><a xlink:title=" ">
<polygon fill="#e0e0e0" stroke="#999999" points="619.38,-83.88 575.62,-83.88 575.62,-63.12 619.38,-63.12 619.38,-83.88"/>
<text text-anchor="middle" x="597.5" y="-70.38" font-family="Helvetica,sans-Serif" font-size="10.00">regex</text>
</a>
</g>
</g>
<!-- Node7&#45;&gt;Node11 -->
<g id="edge12_Node000007_Node000011" class="edge">
<title>Node7&#45;&gt;Node11</title>
<g id="a_edge12_Node000007_Node000011"><a xlink:title=" ">
<path fill="none" stroke="#63b8ff" d="M479.04,-125.92C500.31,-116.75 533.09,-102.6 561.5,-90.25 562.63,-89.76 563.77,-89.26 564.93,-88.76"/>
<polygon fill="#63b8ff" stroke="#63b8ff" points="566.27,-91.99 574.03,-84.78 563.47,-85.58 566.27,-91.99"/>
</a>
</g>
</g>
<!-- Node7&#45;&gt;Node12 -->
<g id="edge13_Node000007_Node000012" class="edge">
<title>Node7&#45;&gt;Node12</title>
<g id="a_edge13_Node000007_Node000012"><a xlink:title=" ">
<path fill="none" stroke="#63b8ff" d="M501.47,-127.63C560.73,-117.1 665.44,-98.5 733.9,-86.33"/>
<polygon fill="#63b8ff" stroke="#63b8ff" points="734.26,-89.83 743.49,-84.63 733.03,-82.93 734.26,-89.83"/>
</a>
</g>
</g>
<!-- Node12&#45;&gt;Node4 -->
<g id="edge16_Node000012_Node000004" class="edge">
<title>Node12&#45;&gt;Node4</title>
<g id="a_edge16_Node000012_Node000004"><a xlink:title=" ">
<path fill="none" stroke="#63b8ff" d="M730.29,-62.68C647.33,-51.08 510.38,-31.92 429.37,-20.59"/>
<polygon fill="#63b8ff" stroke="#63b8ff" points="430.21,-17.17 419.82,-19.25 429.24,-24.1 430.21,-17.17"/>
</a>
</g>
</g>
<!-- Node12&#45;&gt;Node6 -->
<g id="edge14_Node000012_Node000006" class="edge">
<title>Node12&#45;&gt;Node6</title>
<g id="a_edge14_Node000012_Node000006"><a xlink:title=" ">
<path fill="none" stroke="#63b8ff" d="M818.82,-62.68C837.02,-52.92 865.18,-37.82 886.24,-26.53"/>
<polygon fill="#63b8ff" stroke="#63b8ff" points="887.74,-29.7 894.9,-21.89 884.43,-23.53 887.74,-29.7"/>
</a>
</g>
</g>
<!-- Node12&#45;&gt;Node10 -->
<g id="edge17_Node000012_Node000010" class="edge">
<title>Node12&#45;&gt;Node10</title>
<g id="a_edge17_Node000012_Node000010"><a xlink:title=" ">
<path fill="none" stroke="#63b8ff" d="M782.02,-62.68C763.66,-52.92 735.26,-37.82 714.01,-26.53"/>
<polygon fill="#63b8ff" stroke="#63b8ff" points="715.74,-23.48 705.27,-21.88 712.45,-29.67 715.74,-23.48"/>
</a>
</g>
</g>
<!-- Node13 -->
<g id="Node000013" class="node">
<title>Node13</title>
<g id="a_Node000013"><a xlink:title=" ">
<polygon fill="#e0e0e0" stroke="#999999" points="849.75,-20.75 751.25,-20.75 751.25,0 849.75,0 849.75,-20.75"/>
<text text-anchor="middle" x="800.5" y="-7.25" font-family="Helvetica,sans-Serif" font-size="10.00">boost/thread.hpp</text>
</a>
</g>
</g>
<!-- Node12&#45;&gt;Node13 -->
<g id="edge15_Node000012_Node000013" class="edge">
<title>Node12&#45;&gt;Node13</title>
<g id="a_edge15_Node000012_Node000013"><a xlink:title=" ">
<path fill="none" stroke="#63b8ff" d="M800.5,-62.68C800.5,-54.52 800.5,-42.63 800.5,-32.35"/>
<polygon fill="#63b8ff" stroke="#63b8ff" points="804,-32.48 800.5,-22.48 797,-32.48 804,-32.48"/>
</a>
</g>
</g>
<!-- Node14&#45;&gt;Node2 -->
<g id="edge25_Node000014_Node000002" class="edge">
<title>Node14&#45;&gt;Node2</title>
<g id="a_edge25_Node000014_Node000002"><a xlink:title=" ">
<path fill="none" stroke="#63b8ff" d="M483.7,-186.24C413.16,-177.69 281.58,-161.58 169.5,-147 168.5,-146.87 167.5,-146.74 166.49,-146.61"/>
<polygon fill="#63b8ff" stroke="#63b8ff" points="167.35,-143.19 156.98,-145.35 166.44,-150.13 167.35,-143.19"/>
</a>
</g>
</g>
<!-- Node14&#45;&gt;Node4 -->
<g id="edge21_Node000014_Node000004" class="edge">
<title>Node14&#45;&gt;Node4</title>
<g id="a_edge21_Node000014_Node000004"><a xlink:title=" ">
<path fill="none" stroke="#63b8ff" d="M483.88,-184.45C398.72,-169.96 232.72,-136.41 198.5,-90.25 168.39,-49.63 239.58,-29.03 297.7,-19.25"/>
<polygon fill="#63b8ff" stroke="#63b8ff" points="297.92,-22.76 307.25,-17.73 296.82,-15.85 297.92,-22.76"/>
</a>
</g>
</g>
<!-- Node14&#45;&gt;Node7 -->
<g id="edge20_Node000014_Node000007" class="edge">
<title>Node14&#45;&gt;Node7</title>
<g id="a_edge20_Node000014_Node000007"><a xlink:title=" ">
<path fill="none" stroke="#63b8ff" d="M520.56,-182.59C509.13,-174.57 492.73,-163.06 479.39,-153.69"/>
<polygon fill="#63b8ff" stroke="#63b8ff" points="481.76,-151.08 471.56,-148.2 477.74,-156.81 481.76,-151.08"/>
</a>
</g>
</g>
<!-- Node14&#45;&gt;Node10 -->
<g id="edge22_Node000014_Node000010" class="edge">
<title>Node14&#45;&gt;Node10</title>
<g id="a_edge22_Node000014_Node000010"><a xlink:title=" ">
<path fill="none" stroke="#63b8ff" d="M533.74,-182.51C533.21,-168.28 534.41,-141.99 548.5,-126.25 582.53,-88.24 621.03,-125.92 657.5,-90.25 673.21,-74.88 680.13,-50.13 683.17,-32.46"/>
<polygon fill="#63b8ff" stroke="#63b8ff" points="686.63,-32.96 684.55,-22.57 679.7,-31.99 686.63,-32.96"/>
</a>
</g>
</g>
<!-- Node14&#45;&gt;Node12 -->
<g id="edge26_Node000014_Node000012" class="edge">
<title>Node14&#45;&gt;Node12</title>
<g id="a_edge26_Node000014_Node000012"><a xlink:title=" ">
<path fill="none" stroke="#63b8ff" d="M585.23,-191.91C659.13,-190.03 790.83,-181.74 820.5,-147 833.3,-132.01 824.05,-109.5 814.31,-93.54"/>
<polygon fill="#63b8ff" stroke="#63b8ff" points="817.35,-91.79 808.9,-85.4 811.52,-95.67 817.35,-91.79"/>
</a>
</g>
</g>
<!-- Node15 -->
<g id="Node000015" class="node">
<title>Node15</title>
<g id="a_Node000015"><a xlink:title=" ">
<polygon fill="#e0e0e0" stroke="#999999" points="811.5,-147 723.5,-147 723.5,-126.25 811.5,-126.25 811.5,-147"/>
<text text-anchor="middle" x="767.5" y="-133.5" font-family="Helvetica,sans-Serif" font-size="10.00">boost/uuid.hpp</text>
</a>
</g>
</g>
<!-- Node14&#45;&gt;Node15 -->
<g id="edge19_Node000014_Node000015" class="edge">
<title>Node14&#45;&gt;Node15</title>
<g id="a_edge19_Node000014_Node000015"><a xlink:title=" ">
<path fill="none" stroke="#63b8ff" d="M576.42,-182.52C615.07,-173.44 672.6,-159.92 714.44,-150.09"/>
<polygon fill="#63b8ff" stroke="#63b8ff" points="715.11,-153.53 724.05,-147.84 713.51,-146.72 715.11,-153.53"/>
</a>
</g>
</g>
<!-- Node16 -->
<g id="Node000016" class="node">
<title>Node16</title>
<g id="a_Node000016"><a xlink:title=" ">
<polygon fill="#e0e0e0" stroke="#999999" points="643.38,-147 557.62,-147 557.62,-126.25 643.38,-126.25 643.38,-147"/>
<text text-anchor="middle" x="600.5" y="-133.5" font-family="Helvetica,sans-Serif" font-size="10.00">unordered_set</text>
</a>
</g>
</g>
<!-- Node14&#45;&gt;Node16 -->
<g id="edge23_Node000014_Node000016" class="edge">
<title>Node14&#45;&gt;Node16</title>
<g id="a_edge23_Node000014_Node000016"><a xlink:title=" ">
<path fill="none" stroke="#63b8ff" d="M546.3,-182.59C555.68,-174.8 569.04,-163.72 580.14,-154.51"/>
<polygon fill="#63b8ff" stroke="#63b8ff" points="582.18,-157.37 587.64,-148.29 577.71,-151.99 582.18,-157.37"/>
</a>
</g>
</g>
<!-- Node17 -->
<g id="Node000017" class="node">
<title>Node17</title>
<g id="a_Node000017"><a xlink:title=" ">
<polygon fill="#e0e0e0" stroke="#999999" points="705.75,-147 661.25,-147 661.25,-126.25 705.75,-126.25 705.75,-147"/>
<text text-anchor="middle" x="683.5" y="-133.5" font-family="Helvetica,sans-Serif" font-size="10.00">utility</text>
</a>
</g>
</g>
<!-- Node14&#45;&gt;Node17 -->
<g id="edge24_Node000014_Node000017" class="edge">
<title>Node14&#45;&gt;Node17</title>
<g id="a_edge24_Node000014_Node000017"><a xlink:title=" ">
<path fill="none" stroke="#63b8ff" d="M561.14,-182.59C586.15,-173.4 623.65,-159.62 650.54,-149.74"/>
<polygon fill="#63b8ff" stroke="#63b8ff" points="651.39,-153.15 659.57,-146.42 648.97,-146.58 651.39,-153.15"/>
</a>
</g>
</g>
</g>
</svg>
