<?xml version="1.0" encoding="UTF-8" standalone="no"?>
<!DOCTYPE svg PUBLIC "-//W3C//DTD SVG 1.1//EN"
 "http://www.w3.org/Graphics/SVG/1.1/DTD/svg11.dtd">
<!-- Generated by graphviz version 10.0.1 (0)
 -->
<!-- Title: src/ConfigWatcher.cpp Pages: 1 -->
<svg width="1242pt" height="212pt"
 viewBox="0.00 0.00 1242.00 211.75" xmlns="http://www.w3.org/2000/svg" xmlns:xlink="http://www.w3.org/1999/xlink">
<g id="graph0" class="graph" transform="scale(1 1) rotate(0) translate(4 207.75)">
<title>src/ConfigWatcher.cpp</title>
<!-- Node1 -->
<g id="Node000001" class="node">
<title>Node1</title>
<g id="a_Node000001"><a xlink:title=" ">
<polygon fill="#999999" stroke="#666666" points="1018.25,-203.75 895,-203.75 895,-183 1018.25,-183 1018.25,-203.75"/>
<text text-anchor="middle" x="956.62" y="-190.25" font-family="Helvetica,sans-Serif" font-size="10.00">src/ConfigWatcher.cpp</text>
</a>
</g>
</g>
<!-- Node2 -->
<g id="Node000002" class="node">
<title>Node2</title>
<g id="a_Node000002"><a xlink:href="ConfigWatcher_8hpp.html" target="_top" xlink:title=" ">
<polygon fill="white" stroke="#666666" points="378.25,-147 201,-147 201,-126.25 378.25,-126.25 378.25,-147"/>
<text text-anchor="middle" x="289.62" y="-133.5" font-family="Helvetica,sans-Serif" font-size="10.00">validation&#45;api/ConfigWatcher.hpp</text>
</a>
</g>
</g>
<!-- Node1&#45;&gt;Node2 -->
<g id="edge1_Node000001_Node000002" class="edge">
<title>Node1&#45;&gt;Node2</title>
<g id="a_edge1_Node000001_Node000002"><a xlink:title=" ">
<path fill="none" stroke="#63b8ff" d="M894.77,-187.3C779.22,-177.81 529.63,-157.33 389.78,-145.85"/>
<polygon fill="#63b8ff" stroke="#63b8ff" points="390.42,-142.39 380.17,-145.06 389.85,-149.36 390.42,-142.39"/>
</a>
</g>
</g>
<!-- Node11 -->
<g id="Node000011" class="node">
<title>Node11</title>
<g id="a_Node000011"><a xlink:title=" ">
<polygon fill="#e0e0e0" stroke="#999999" points="936.5,-147 862.75,-147 862.75,-126.25 936.5,-126.25 936.5,-147"/>
<text text-anchor="middle" x="899.62" y="-133.5" font-family="Helvetica,sans-Serif" font-size="10.00">sys/inotify.h</text>
</a>
</g>
</g>
<!-- Node1&#45;&gt;Node11 -->
<g id="edge10_Node000001_Node000011" class="edge">
<title>Node1&#45;&gt;Node11</title>
<g id="a_edge10_Node000001_Node000011"><a xlink:title=" ">
<path fill="none" stroke="#63b8ff" d="M946.43,-182.59C938.49,-174.96 927.26,-164.17 917.79,-155.07"/>
<polygon fill="#63b8ff" stroke="#63b8ff" points="920.46,-152.78 910.82,-148.38 915.61,-157.83 920.46,-152.78"/>
</a>
</g>
</g>
<!-- Node12 -->
<g id="Node000012" class="node">
<title>Node12</title>
<g id="a_Node000012"><a xlink:title=" ">
<polygon fill="#e0e0e0" stroke="#999999" points="1072.62,-147 954.62,-147 954.62,-126.25 1072.62,-126.25 1072.62,-147"/>
<text text-anchor="middle" x="1013.62" y="-133.5" font-family="Helvetica,sans-Serif" font-size="10.00">boost/filesystem.hpp</text>
</a>
</g>
</g>
<!-- Node1&#45;&gt;Node12 -->
<g id="edge11_Node000001_Node000012" class="edge">
<title>Node1&#45;&gt;Node12</title>
<g id="a_edge11_Node000001_Node000012"><a xlink:title=" ">
<path fill="none" stroke="#63b8ff" d="M966.82,-182.59C974.76,-174.96 985.99,-164.17 995.46,-155.07"/>
<polygon fill="#63b8ff" stroke="#63b8ff" points="997.64,-157.83 1002.43,-148.38 992.79,-152.78 997.64,-157.83"/>
</a>
</g>
</g>
<!-- Node13 -->
<g id="Node000013" class="node">
<title>Node13</title>
<g id="a_Node000013"><a xlink:title=" ">
<polygon fill="#e0e0e0" stroke="#999999" points="1144.75,-147 1090.5,-147 1090.5,-126.25 1144.75,-126.25 1144.75,-147"/>
<text text-anchor="middle" x="1117.62" y="-133.5" font-family="Helvetica,sans-Serif" font-size="10.00">fstream</text>
</a>
</g>
</g>
<!-- Node1&#45;&gt;Node13 -->
<g id="edge12_Node000001_Node000013" class="edge">
<title>Node1&#45;&gt;Node13</title>
<g id="a_edge12_Node000001_Node000013"><a xlink:title=" ">
<path fill="none" stroke="#63b8ff" d="M985.41,-182.59C1011.6,-173.68 1050.45,-160.47 1079.27,-150.67"/>
<polygon fill="#63b8ff" stroke="#63b8ff" points="1080.39,-153.98 1088.73,-147.45 1078.14,-147.36 1080.39,-153.98"/>
</a>
</g>
</g>
<!-- Node14 -->
<g id="Node000014" class="node">
<title>Node14</title>
<g id="a_Node000014"><a xlink:title=" ">
<polygon fill="#e0e0e0" stroke="#999999" points="1234,-147 1163.25,-147 1163.25,-126.25 1234,-126.25 1234,-147"/>
<text text-anchor="middle" x="1198.62" y="-133.5" font-family="Helvetica,sans-Serif" font-size="10.00">semaphore</text>
</a>
</g>
</g>
<!-- Node1&#45;&gt;Node14 -->
<g id="edge13_Node000001_Node000014" class="edge">
<title>Node1&#45;&gt;Node14</title>
<g id="a_edge13_Node000001_Node000014"><a xlink:title=" ">
<path fill="none" stroke="#63b8ff" d="M1000.17,-182.52C1042.89,-172.86 1107.84,-158.16 1151.69,-148.24"/>
<polygon fill="#63b8ff" stroke="#63b8ff" points="1152.45,-151.66 1161.43,-146.04 1150.91,-144.83 1152.45,-151.66"/>
</a>
</g>
</g>
<!-- Node15 -->
<g id="Node000015" class="node">
<title>Node15</title>
<g id="a_Node000015"><a xlink:href="Helpers_8hpp.html" target="_top" xlink:title=" ">
<polygon fill="white" stroke="#666666" points="844.38,-147 754.88,-147 754.88,-126.25 844.38,-126.25 844.38,-147"/>
<text text-anchor="middle" x="799.62" y="-133.5" font-family="Helvetica,sans-Serif" font-size="10.00">lib/Helpers.hpp</text>
</a>
</g>
</g>
<!-- Node1&#45;&gt;Node15 -->
<g id="edge14_Node000001_Node000015" class="edge">
<title>Node1&#45;&gt;Node15</title>
<g id="a_edge14_Node000001_Node000015"><a xlink:title=" ">
<path fill="none" stroke="#63b8ff" d="M928.56,-182.59C903.41,-173.82 866.28,-160.87 838.32,-151.12"/>
<polygon fill="#63b8ff" stroke="#63b8ff" points="839.74,-147.91 829.14,-147.92 837.43,-154.52 839.74,-147.91"/>
</a>
</g>
</g>
<!-- Node3 -->
<g id="Node000003" class="node">
<title>Node3</title>
<g id="a_Node000003"><a xlink:title=" ">
<polygon fill="#e0e0e0" stroke="#999999" points="87.25,-83.88 0,-83.88 0,-63.12 87.25,-63.12 87.25,-83.88"/>
<text text-anchor="middle" x="43.62" y="-70.38" font-family="Helvetica,sans-Serif" font-size="10.00">boost/asio.hpp</text>
</a>
</g>
</g>
<!-- Node2&#45;&gt;Node3 -->
<g id="edge2_Node000002_Node000003" class="edge">
<title>Node2&#45;&gt;Node3</title>
<g id="a_edge2_Node000002_Node000003"><a xlink:title=" ">
<path fill="none" stroke="#63b8ff" d="M244.59,-125.81C205.36,-117.08 147.02,-103.65 96.62,-90.25 93.3,-89.37 89.87,-88.42 86.42,-87.45"/>
<polygon fill="#63b8ff" stroke="#63b8ff" points="87.52,-84.12 76.94,-84.71 85.58,-90.85 87.52,-84.12"/>
</a>
</g>
</g>
<!-- Node4 -->
<g id="Node000004" class="node">
<title>Node4</title>
<g id="a_Node000004"><a xlink:title=" ">
<polygon fill="#e0e0e0" stroke="#999999" points="197.88,-83.88 105.38,-83.88 105.38,-63.12 197.88,-63.12 197.88,-83.88"/>
<text text-anchor="middle" x="151.62" y="-70.38" font-family="Helvetica,sans-Serif" font-size="10.00">unordered_map</text>
</a>
</g>
</g>
<!-- Node2&#45;&gt;Node4 -->
<g id="edge3_Node000002_Node000004" class="edge">
<title>Node2&#45;&gt;Node4</title>
<g id="a_edge3_Node000002_Node000004"><a xlink:title=" ">
<path fill="none" stroke="#63b8ff" d="M267.45,-125.8C244.92,-115.82 209.77,-100.25 184.1,-88.88"/>
<polygon fill="#63b8ff" stroke="#63b8ff" points="185.69,-85.76 175.13,-84.91 182.85,-92.16 185.69,-85.76"/>
</a>
</g>
</g>
<!-- Node5 -->
<g id="Node000005" class="node">
<title>Node5</title>
<g id="a_Node000005"><a xlink:href="ConfigService_8hpp.html" target="_top" xlink:title=" ">
<polygon fill="white" stroke="#666666" points="554.75,-83.88 380.5,-83.88 380.5,-63.12 554.75,-63.12 554.75,-83.88"/>
<text text-anchor="middle" x="467.62" y="-70.38" font-family="Helvetica,sans-Serif" font-size="10.00">validation&#45;api/ConfigService.hpp</text>
</a>
</g>
</g>
<!-- Node2&#45;&gt;Node5 -->
<g id="edge4_Node000002_Node000005" class="edge">
<title>Node2&#45;&gt;Node5</title>
<g id="a_edge4_Node000002_Node000005"><a xlink:title=" ">
<path fill="none" stroke="#63b8ff" d="M318.22,-125.8C348.07,-115.56 395.07,-99.42 428.37,-87.98"/>
<polygon fill="#63b8ff" stroke="#63b8ff" points="429.34,-91.35 437.67,-84.79 427.07,-84.73 429.34,-91.35"/>
</a>
</g>
</g>
<!-- Node10 -->
<g id="Node000010" class="node">
<title>Node10</title>
<g id="a_Node000010"><a xlink:href="IService_8hpp.html" target="_top" xlink:title=" ">
<polygon fill="white" stroke="#666666" points="362.88,-83.88 216.38,-83.88 216.38,-63.12 362.88,-63.12 362.88,-83.88"/>
<text text-anchor="middle" x="289.62" y="-70.38" font-family="Helvetica,sans-Serif" font-size="10.00">validation&#45;api/IService.hpp</text>
</a>
</g>
</g>
<!-- Node2&#45;&gt;Node10 -->
<g id="edge9_Node000002_Node000010" class="edge">
<title>Node2&#45;&gt;Node10</title>
<g id="a_edge9_Node000002_Node000010"><a xlink:title=" ">
<path fill="none" stroke="#63b8ff" d="M289.62,-125.8C289.62,-117.65 289.62,-105.76 289.62,-95.48"/>
<polygon fill="#63b8ff" stroke="#63b8ff" points="293.13,-95.61 289.63,-85.61 286.13,-95.61 293.13,-95.61"/>
</a>
</g>
</g>
<!-- Node6 -->
<g id="Node000006" class="node">
<title>Node6</title>
<g id="a_Node000006"><a xlink:title=" ">
<polygon fill="#e0e0e0" stroke="#999999" points="438.88,-20.75 346.38,-20.75 346.38,0 438.88,0 438.88,-20.75"/>
<text text-anchor="middle" x="392.62" y="-7.25" font-family="Helvetica,sans-Serif" font-size="10.00">spdlog/spdlog.h</text>
</a>
</g>
</g>
<!-- Node5&#45;&gt;Node6 -->
<g id="edge5_Node000005_Node000006" class="edge">
<title>Node5&#45;&gt;Node6</title>
<g id="a_edge5_Node000005_Node000006"><a xlink:title=" ">
<path fill="none" stroke="#63b8ff" d="M455.57,-62.68C444.14,-53.36 426.72,-39.16 413.1,-28.06"/>
<polygon fill="#63b8ff" stroke="#63b8ff" points="415.53,-25.53 405.57,-21.93 411.11,-30.96 415.53,-25.53"/>
</a>
</g>
</g>
<!-- Node7 -->
<g id="Node000007" class="node">
<title>Node7</title>
<g id="a_Node000007"><a xlink:title=" ">
<polygon fill="#e0e0e0" stroke="#999999" points="555.88,-20.75 457.38,-20.75 457.38,0 555.88,0 555.88,-20.75"/>
<text text-anchor="middle" x="506.62" y="-7.25" font-family="Helvetica,sans-Serif" font-size="10.00">boost/thread.hpp</text>
</a>
</g>
</g>
<!-- Node5&#45;&gt;Node7 -->
<g id="edge6_Node000005_Node000007" class="edge">
<title>Node5&#45;&gt;Node7</title>
<g id="a_edge6_Node000005_Node000007"><a xlink:title=" ">
<path fill="none" stroke="#63b8ff" d="M473.89,-62.68C479.38,-54.07 487.52,-41.31 494.31,-30.67"/>
<polygon fill="#63b8ff" stroke="#63b8ff" points="497.26,-32.56 499.69,-22.25 491.36,-28.79 497.26,-32.56"/>
</a>
</g>
</g>
<!-- Node8 -->
<g id="Node000008" class="node">
<title>Node8</title>
<g id="a_Node000008"><a xlink:title=" ">
<polygon fill="#e0e0e0" stroke="#999999" points="839.12,-20.75 730.12,-20.75 730.12,0 839.12,0 839.12,-20.75"/>
<text text-anchor="middle" x="784.62" y="-7.25" font-family="Helvetica,sans-Serif" font-size="10.00">nlohmann/json.hpp</text>
</a>
</g>
</g>
<!-- Node5&#45;&gt;Node8 -->
<g id="edge7_Node000005_Node000008" class="edge">
<title>Node5&#45;&gt;Node8</title>
<g id="a_edge7_Node000005_Node000008"><a xlink:title=" ">
<path fill="none" stroke="#63b8ff" d="M518.56,-62.68C574.05,-51.98 662.85,-34.86 722.42,-23.37"/>
<polygon fill="#63b8ff" stroke="#63b8ff" points="722.91,-26.84 732.07,-21.51 721.59,-19.97 722.91,-26.84"/>
</a>
</g>
</g>
<!-- Node9 -->
<g id="Node000009" class="node">
<title>Node9</title>
<g id="a_Node000009"><a xlink:title=" ">
<polygon fill="#e0e0e0" stroke="#999999" points="1012,-20.75 935.25,-20.75 935.25,0 1012,0 1012,-20.75"/>
<text text-anchor="middle" x="973.62" y="-7.25" font-family="Helvetica,sans-Serif" font-size="10.00">pugixml.hpp</text>
</a>
</g>
</g>
<!-- Node5&#45;&gt;Node9 -->
<g id="edge8_Node000005_Node000009" class="edge">
<title>Node5&#45;&gt;Node9</title>
<g id="a_edge8_Node000005_Node000009"><a xlink:title=" ">
<path fill="none" stroke="#63b8ff" d="M524.66,-62.64C537.46,-60.57 550.99,-58.48 563.62,-56.75 693.03,-38.99 846.15,-23.5 923.52,-16.07"/>
<polygon fill="#63b8ff" stroke="#63b8ff" points="923.69,-19.57 933.31,-15.13 923.03,-12.6 923.69,-19.57"/>
</a>
</g>
</g>
<!-- Node15&#45;&gt;Node5 -->
<g id="edge20_Node000015_Node000005" class="edge">
<title>Node15&#45;&gt;Node5</title>
<g id="a_edge20_Node000015_Node000005"><a xlink:title=" ">
<path fill="none" stroke="#63b8ff" d="M754.5,-127.32C697.1,-116.75 597.58,-98.43 532.16,-86.38"/>
<polygon fill="#63b8ff" stroke="#63b8ff" points="533.12,-83 522.65,-84.63 531.86,-89.88 533.12,-83"/>
</a>
</g>
</g>
<!-- Node15&#45;&gt;Node8 -->
<g id="edge17_Node000015_Node000008" class="edge">
<title>Node15&#45;&gt;Node8</title>
<g id="a_edge17_Node000015_Node000008"><a xlink:title=" ">
<path fill="none" stroke="#63b8ff" d="M842.9,-125.84C886.61,-115.52 948.68,-99.5 955.62,-90.25 964.56,-78.34 964.7,-68.55 955.62,-56.75 942.56,-39.77 892.94,-27.82 850.49,-20.46"/>
<polygon fill="#63b8ff" stroke="#63b8ff" points="851.25,-17.04 840.81,-18.84 850.09,-23.94 851.25,-17.04"/>
</a>
</g>
</g>
<!-- Node15&#45;&gt;Node9 -->
<g id="edge18_Node000015_Node000009" class="edge">
<title>Node15&#45;&gt;Node9</title>
<g id="a_edge18_Node000015_Node000009"><a xlink:title=" ">
<path fill="none" stroke="#63b8ff" d="M844.48,-126.78C893.03,-116.76 964.62,-100.49 972.62,-90.25 985.38,-73.94 983.41,-49.38 979.67,-32"/>
<polygon fill="#63b8ff" stroke="#63b8ff" points="983.12,-31.37 977.26,-22.55 976.34,-33.1 983.12,-31.37"/>
</a>
</g>
</g>
<!-- Node16 -->
<g id="Node000016" class="node">
<title>Node16</title>
<g id="a_Node000016"><a xlink:title=" ">
<polygon fill="#e0e0e0" stroke="#999999" points="696.62,-90.25 572.62,-90.25 572.62,-56.75 696.62,-56.75 696.62,-90.25"/>
<text text-anchor="start" x="580.62" y="-76.75" font-family="Helvetica,sans-Serif" font-size="10.00">boost/algorithm/string</text>
<text text-anchor="middle" x="634.62" y="-64" font-family="Helvetica,sans-Serif" font-size="10.00">/trim.hpp</text>
</a>
</g>
</g>
<!-- Node15&#45;&gt;Node16 -->
<g id="edge15_Node000015_Node000016" class="edge">
<title>Node15&#45;&gt;Node16</title>
<g id="a_edge15_Node000015_Node000016"><a xlink:title=" ">
<path fill="none" stroke="#63b8ff" d="M773.11,-125.8C750.5,-117.43 717.25,-105.11 689,-94.64"/>
<polygon fill="#63b8ff" stroke="#63b8ff" points="690.46,-91.45 679.87,-91.26 688.03,-98.02 690.46,-91.45"/>
</a>
</g>
</g>
<!-- Node17 -->
<g id="Node000017" class="node">
<title>Node17</title>
<g id="a_Node000017"><a xlink:title=" ">
<polygon fill="#e0e0e0" stroke="#999999" points="884.5,-83.88 714.75,-83.88 714.75,-63.12 884.5,-63.12 884.5,-83.88"/>
<text text-anchor="middle" x="799.62" y="-70.38" font-family="Helvetica,sans-Serif" font-size="10.00">boost/uuid/uuid_generators.hpp</text>
</a>
</g>
</g>
<!-- Node15&#45;&gt;Node17 -->
<g id="edge16_Node000015_Node000017" class="edge">
<title>Node15&#45;&gt;Node17</title>
<g id="a_edge16_Node000015_Node000017"><a xlink:title=" ">
<path fill="none" stroke="#63b8ff" d="M799.62,-125.8C799.62,-117.65 799.62,-105.76 799.62,-95.48"/>
<polygon fill="#63b8ff" stroke="#63b8ff" points="803.13,-95.61 799.63,-85.61 796.13,-95.61 803.13,-95.61"/>
</a>
</g>
</g>
<!-- Node18 -->
<g id="Node000018" class="node">
<title>Node18</title>
<g id="a_Node000018"><a xlink:title=" ">
<polygon fill="#e0e0e0" stroke="#999999" points="946.5,-83.88 902.75,-83.88 902.75,-63.12 946.5,-63.12 946.5,-83.88"/>
<text text-anchor="middle" x="924.62" y="-70.38" font-family="Helvetica,sans-Serif" font-size="10.00">regex</text>
</a>
</g>
</g>
<!-- Node15&#45;&gt;Node18 -->
<g id="edge19_Node000015_Node000018" class="edge">
<title>Node15&#45;&gt;Node18</title>
<g id="a_edge19_Node000015_Node000018"><a xlink:title=" ">
<path fill="none" stroke="#63b8ff" d="M820.22,-125.83C839.3,-116.72 868.46,-102.72 893.62,-90.25 894.23,-89.95 894.85,-89.64 895.47,-89.33"/>
<polygon fill="#63b8ff" stroke="#63b8ff" points="896.92,-92.52 904.29,-84.9 893.78,-86.27 896.92,-92.52"/>
</a>
</g>
</g>
</g>
</svg>
