<?xml version="1.0" encoding="UTF-8" standalone="no"?>
<!DOCTYPE svg PUBLIC "-//W3C//DTD SVG 1.1//EN"
 "http://www.w3.org/Graphics/SVG/1.1/DTD/svg11.dtd">
<!-- Generated by graphviz version 12.2.1 (0)
 -->
<!-- Title: src/ConfigWatcher.cpp Pages: 1 -->
<svg width="1136pt" height="208pt"
 viewBox="0.00 0.00 1135.88 208.00" xmlns="http://www.w3.org/2000/svg" xmlns:xlink="http://www.w3.org/1999/xlink">
<g id="graph0" class="graph" transform="scale(1 1) rotate(0) translate(4 204)">
<title>src/ConfigWatcher.cpp</title>
<!-- Node1 -->
<g id="Node000001" class="node">
<title>Node1</title>
<g id="a_Node000001"><a xlink:title=" ">
<polygon fill="#999999" stroke="#666666" points="929.75,-200 814,-200 814,-180 929.75,-180 929.75,-200"/>
<text text-anchor="middle" x="871.88" y="-186.5" font-family="Helvetica,sans-Serif" font-size="10.00">src/ConfigWatcher.cpp</text>
</a>
</g>
</g>
<!-- Node2 -->
<g id="Node000002" class="node">
<title>Node2</title>
<g id="a_Node000002"><a xlink:href="ConfigWatcher_8hpp.html" target="_top" xlink:title=" ">
<polygon fill="white" stroke="#666666" points="343.5,-144 184.25,-144 184.25,-124 343.5,-124 343.5,-144"/>
<text text-anchor="middle" x="263.88" y="-130.5" font-family="Helvetica,sans-Serif" font-size="10.00">validation&#45;api/ConfigWatcher.hpp</text>
</a>
</g>
</g>
<!-- Node1&#45;&gt;Node2 -->
<g id="edge1_Node000001_Node000002" class="edge">
<title>Node1&#45;&gt;Node2</title>
<g id="a_edge1_Node000001_Node000002"><a xlink:title=" ">
<path fill="none" stroke="#63b8ff" d="M813.58,-183.82C707.4,-174.39 481.8,-154.36 355.1,-143.1"/>
<polygon fill="#63b8ff" stroke="#63b8ff" points="355.69,-139.64 345.41,-142.24 355.07,-146.61 355.69,-139.64"/>
</a>
</g>
</g>
<!-- Node11 -->
<g id="Node000011" class="node">
<title>Node11</title>
<g id="a_Node000011"><a xlink:title=" ">
<polygon fill="#e0e0e0" stroke="#999999" points="853.12,-144 784.62,-144 784.62,-124 853.12,-124 853.12,-144"/>
<text text-anchor="middle" x="818.88" y="-130.5" font-family="Helvetica,sans-Serif" font-size="10.00">sys/inotify.h</text>
</a>
</g>
</g>
<!-- Node1&#45;&gt;Node11 -->
<g id="edge10_Node000001_Node000011" class="edge">
<title>Node1&#45;&gt;Node11</title>
<g id="a_edge10_Node000001_Node000011"><a xlink:title=" ">
<path fill="none" stroke="#63b8ff" d="M862.64,-179.59C855.27,-172.08 844.74,-161.35 835.86,-152.3"/>
<polygon fill="#63b8ff" stroke="#63b8ff" points="838.56,-150.06 829.06,-145.38 833.57,-154.97 838.56,-150.06"/>
</a>
</g>
</g>
<!-- Node12 -->
<g id="Node000012" class="node">
<title>Node12</title>
<g id="a_Node000012"><a xlink:title=" ">
<polygon fill="#e0e0e0" stroke="#999999" points="978.25,-144 871.5,-144 871.5,-124 978.25,-124 978.25,-144"/>
<text text-anchor="middle" x="924.88" y="-130.5" font-family="Helvetica,sans-Serif" font-size="10.00">boost/filesystem.hpp</text>
</a>
</g>
</g>
<!-- Node1&#45;&gt;Node12 -->
<g id="edge11_Node000001_Node000012" class="edge">
<title>Node1&#45;&gt;Node12</title>
<g id="a_edge11_Node000001_Node000012"><a xlink:title=" ">
<path fill="none" stroke="#63b8ff" d="M881.11,-179.59C888.48,-172.08 899.01,-161.35 907.89,-152.3"/>
<polygon fill="#63b8ff" stroke="#63b8ff" points="910.18,-154.97 914.69,-145.38 905.19,-150.06 910.18,-154.97"/>
</a>
</g>
</g>
<!-- Node13 -->
<g id="Node000013" class="node">
<title>Node13</title>
<g id="a_Node000013"><a xlink:title=" ">
<polygon fill="#e0e0e0" stroke="#999999" points="1045.38,-144 996.38,-144 996.38,-124 1045.38,-124 1045.38,-144"/>
<text text-anchor="middle" x="1020.88" y="-130.5" font-family="Helvetica,sans-Serif" font-size="10.00">fstream</text>
</a>
</g>
</g>
<!-- Node1&#45;&gt;Node13 -->
<g id="edge12_Node000001_Node000013" class="edge">
<title>Node1&#45;&gt;Node13</title>
<g id="a_edge12_Node000001_Node000013"><a xlink:title=" ">
<path fill="none" stroke="#63b8ff" d="M897.83,-179.59C922.16,-170.78 958.72,-157.53 985.67,-147.76"/>
<polygon fill="#63b8ff" stroke="#63b8ff" points="986.58,-151.15 994.79,-144.46 984.19,-144.57 986.58,-151.15"/>
</a>
</g>
</g>
<!-- Node14 -->
<g id="Node000014" class="node">
<title>Node14</title>
<g id="a_Node000014"><a xlink:title=" ">
<polygon fill="#e0e0e0" stroke="#999999" points="1127.88,-144 1063.88,-144 1063.88,-124 1127.88,-124 1127.88,-144"/>
<text text-anchor="middle" x="1095.88" y="-130.5" font-family="Helvetica,sans-Serif" font-size="10.00">semaphore</text>
</a>
</g>
</g>
<!-- Node1&#45;&gt;Node14 -->
<g id="edge13_Node000001_Node000014" class="edge">
<title>Node1&#45;&gt;Node14</title>
<g id="a_edge13_Node000001_Node000014"><a xlink:title=" ">
<path fill="none" stroke="#63b8ff" d="M911.15,-179.53C950.72,-169.99 1011.62,-155.31 1052.57,-145.44"/>
<polygon fill="#63b8ff" stroke="#63b8ff" points="1053.18,-148.89 1062.08,-143.15 1051.54,-142.09 1053.18,-148.89"/>
</a>
</g>
</g>
<!-- Node15 -->
<g id="Node000015" class="node">
<title>Node15</title>
<g id="a_Node000015"><a xlink:href="Helpers_8hpp.html" target="_top" xlink:title=" ">
<polygon fill="white" stroke="#666666" points="766.5,-144 685.25,-144 685.25,-124 766.5,-124 766.5,-144"/>
<text text-anchor="middle" x="725.88" y="-130.5" font-family="Helvetica,sans-Serif" font-size="10.00">lib/Helpers.hpp</text>
</a>
</g>
</g>
<!-- Node1&#45;&gt;Node15 -->
<g id="edge14_Node000001_Node000015" class="edge">
<title>Node1&#45;&gt;Node15</title>
<g id="a_edge14_Node000001_Node000015"><a xlink:title=" ">
<path fill="none" stroke="#63b8ff" d="M846.44,-179.59C823.14,-170.97 788.38,-158.12 762.16,-148.42"/>
<polygon fill="#63b8ff" stroke="#63b8ff" points="763.52,-145.19 752.92,-145 761.09,-151.76 763.52,-145.19"/>
</a>
</g>
</g>
<!-- Node3 -->
<g id="Node000003" class="node">
<title>Node3</title>
<g id="a_Node000003"><a xlink:title=" ">
<polygon fill="#e0e0e0" stroke="#999999" points="79.75,-82 0,-82 0,-62 79.75,-62 79.75,-82"/>
<text text-anchor="middle" x="39.88" y="-68.5" font-family="Helvetica,sans-Serif" font-size="10.00">boost/asio.hpp</text>
</a>
</g>
</g>
<!-- Node2&#45;&gt;Node3 -->
<g id="edge2_Node000002_Node000003" class="edge">
<title>Node2&#45;&gt;Node3</title>
<g id="a_edge2_Node000002_Node000003"><a xlink:title=" ">
<path fill="none" stroke="#63b8ff" d="M225.16,-123.58C189.61,-114.8 135.53,-101.13 88.88,-88 86.31,-87.28 83.67,-86.52 81.02,-85.74"/>
<polygon fill="#63b8ff" stroke="#63b8ff" points="82.17,-82.43 71.58,-82.93 80.17,-89.14 82.17,-82.43"/>
</a>
</g>
</g>
<!-- Node4 -->
<g id="Node000004" class="node">
<title>Node4</title>
<g id="a_Node000004"><a xlink:title=" ">
<polygon fill="#e0e0e0" stroke="#999999" points="180.25,-82 97.5,-82 97.5,-62 180.25,-62 180.25,-82"/>
<text text-anchor="middle" x="138.88" y="-68.5" font-family="Helvetica,sans-Serif" font-size="10.00">unordered_map</text>
</a>
</g>
</g>
<!-- Node2&#45;&gt;Node4 -->
<g id="edge3_Node000002_Node000004" class="edge">
<title>Node2&#45;&gt;Node4</title>
<g id="a_edge3_Node000002_Node000004"><a xlink:title=" ">
<path fill="none" stroke="#63b8ff" d="M244.34,-123.62C223.98,-113.85 191.82,-98.41 168.36,-87.15"/>
<polygon fill="#63b8ff" stroke="#63b8ff" points="170.16,-84.14 159.63,-82.96 167.13,-90.45 170.16,-84.14"/>
</a>
</g>
</g>
<!-- Node5 -->
<g id="Node000005" class="node">
<title>Node5</title>
<g id="a_Node000005"><a xlink:href="ConfigService_8hpp.html" target="_top" xlink:title=" ">
<polygon fill="white" stroke="#666666" points="504,-82 347.75,-82 347.75,-62 504,-62 504,-82"/>
<text text-anchor="middle" x="425.88" y="-68.5" font-family="Helvetica,sans-Serif" font-size="10.00">validation&#45;api/ConfigService.hpp</text>
</a>
</g>
</g>
<!-- Node2&#45;&gt;Node5 -->
<g id="edge4_Node000002_Node000005" class="edge">
<title>Node2&#45;&gt;Node5</title>
<g id="a_edge4_Node000002_Node000005"><a xlink:title=" ">
<path fill="none" stroke="#63b8ff" d="M289.19,-123.62C316.21,-113.62 359.27,-97.67 389.83,-86.35"/>
<polygon fill="#63b8ff" stroke="#63b8ff" points="390.89,-89.69 399.05,-82.93 388.46,-83.12 390.89,-89.69"/>
</a>
</g>
</g>
<!-- Node10 -->
<g id="Node000010" class="node">
<title>Node10</title>
<g id="a_Node000010"><a xlink:href="IService_8hpp.html" target="_top" xlink:title=" ">
<polygon fill="white" stroke="#666666" points="329.25,-82 198.5,-82 198.5,-62 329.25,-62 329.25,-82"/>
<text text-anchor="middle" x="263.88" y="-68.5" font-family="Helvetica,sans-Serif" font-size="10.00">validation&#45;api/IService.hpp</text>
</a>
</g>
</g>
<!-- Node2&#45;&gt;Node10 -->
<g id="edge9_Node000002_Node000010" class="edge">
<title>Node2&#45;&gt;Node10</title>
<g id="a_edge9_Node000002_Node000010"><a xlink:title=" ">
<path fill="none" stroke="#63b8ff" d="M263.88,-123.62C263.88,-115.56 263.88,-103.65 263.88,-93.41"/>
<polygon fill="#63b8ff" stroke="#63b8ff" points="267.38,-93.63 263.88,-83.63 260.38,-93.63 267.38,-93.63"/>
</a>
</g>
</g>
<!-- Node6 -->
<g id="Node000006" class="node">
<title>Node6</title>
<g id="a_Node000006"><a xlink:title=" ">
<polygon fill="#e0e0e0" stroke="#999999" points="399,-20 314.75,-20 314.75,0 399,0 399,-20"/>
<text text-anchor="middle" x="356.88" y="-6.5" font-family="Helvetica,sans-Serif" font-size="10.00">spdlog/spdlog.h</text>
</a>
</g>
</g>
<!-- Node5&#45;&gt;Node6 -->
<g id="edge5_Node000005_Node000006" class="edge">
<title>Node5&#45;&gt;Node6</title>
<g id="a_edge5_Node000005_Node000006"><a xlink:title=" ">
<path fill="none" stroke="#63b8ff" d="M415.09,-61.62C404.6,-52.5 388.44,-38.45 375.8,-27.46"/>
<polygon fill="#63b8ff" stroke="#63b8ff" points="378.34,-25.03 368.5,-21.11 373.75,-30.31 378.34,-25.03"/>
</a>
</g>
</g>
<!-- Node7 -->
<g id="Node000007" class="node">
<title>Node7</title>
<g id="a_Node000007"><a xlink:title=" ">
<polygon fill="#e0e0e0" stroke="#999999" points="506.25,-20 417.5,-20 417.5,0 506.25,0 506.25,-20"/>
<text text-anchor="middle" x="461.88" y="-6.5" font-family="Helvetica,sans-Serif" font-size="10.00">boost/thread.hpp</text>
</a>
</g>
</g>
<!-- Node5&#45;&gt;Node7 -->
<g id="edge6_Node000005_Node000007" class="edge">
<title>Node5&#45;&gt;Node7</title>
<g id="a_edge6_Node000005_Node000007"><a xlink:title=" ">
<path fill="none" stroke="#63b8ff" d="M431.5,-61.62C436.6,-53.12 444.28,-40.33 450.63,-29.74"/>
<polygon fill="#63b8ff" stroke="#63b8ff" points="453.48,-31.79 455.63,-21.41 447.48,-28.18 453.48,-31.79"/>
</a>
</g>
</g>
<!-- Node8 -->
<g id="Node000008" class="node">
<title>Node8</title>
<g id="a_Node000008"><a xlink:title=" ">
<polygon fill="#e0e0e0" stroke="#999999" points="765.75,-20 668,-20 668,0 765.75,0 765.75,-20"/>
<text text-anchor="middle" x="716.88" y="-6.5" font-family="Helvetica,sans-Serif" font-size="10.00">nlohmann/json.hpp</text>
</a>
</g>
</g>
<!-- Node5&#45;&gt;Node8 -->
<g id="edge7_Node000005_Node000008" class="edge">
<title>Node5&#45;&gt;Node8</title>
<g id="a_edge7_Node000005_Node000008"><a xlink:title=" ">
<path fill="none" stroke="#63b8ff" d="M471.66,-61.56C522.58,-51.06 604.87,-34.09 659.91,-22.75"/>
<polygon fill="#63b8ff" stroke="#63b8ff" points="660.3,-26.24 669.39,-20.79 658.89,-19.38 660.3,-26.24"/>
</a>
</g>
</g>
<!-- Node9 -->
<g id="Node000009" class="node">
<title>Node9</title>
<g id="a_Node000009"><a xlink:title=" ">
<polygon fill="#e0e0e0" stroke="#999999" points="924.12,-20 855.62,-20 855.62,0 924.12,0 924.12,-20"/>
<text text-anchor="middle" x="889.88" y="-6.5" font-family="Helvetica,sans-Serif" font-size="10.00">pugixml.hpp</text>
</a>
</g>
</g>
<!-- Node5&#45;&gt;Node9 -->
<g id="edge8_Node000005_Node000009" class="edge">
<title>Node5&#45;&gt;Node9</title>
<g id="a_edge8_Node000005_Node000009"><a xlink:title=" ">
<path fill="none" stroke="#63b8ff" d="M478.25,-61.52C489.65,-59.58 501.65,-57.64 512.88,-56 631.97,-38.64 772.96,-23.15 844.03,-15.7"/>
<polygon fill="#63b8ff" stroke="#63b8ff" points="844.14,-19.2 853.73,-14.68 843.42,-12.24 844.14,-19.2"/>
</a>
</g>
</g>
<!-- Node15&#45;&gt;Node5 -->
<g id="edge20_Node000015_Node000005" class="edge">
<title>Node15&#45;&gt;Node5</title>
<g id="a_edge20_Node000015_Node000005"><a xlink:title=" ">
<path fill="none" stroke="#63b8ff" d="M684.79,-124.78C632.85,-114.4 543.12,-96.45 484.13,-84.65"/>
<polygon fill="#63b8ff" stroke="#63b8ff" points="485.1,-81.28 474.61,-82.75 483.73,-88.14 485.1,-81.28"/>
</a>
</g>
</g>
<!-- Node15&#45;&gt;Node8 -->
<g id="edge17_Node000015_Node000008" class="edge">
<title>Node15&#45;&gt;Node8</title>
<g id="a_edge17_Node000015_Node000008"><a xlink:title=" ">
<path fill="none" stroke="#63b8ff" d="M766.99,-125.63C804.76,-117.92 856.67,-104.63 868.88,-88 877.29,-76.53 877.39,-67.39 868.88,-56 847.88,-27.89 810.11,-16.62 777.47,-12.38"/>
<polygon fill="#63b8ff" stroke="#63b8ff" points="778,-8.92 767.68,-11.33 777.25,-15.88 778,-8.92"/>
</a>
</g>
</g>
<!-- Node15&#45;&gt;Node9 -->
<g id="edge18_Node000015_Node000009" class="edge">
<title>Node15&#45;&gt;Node9</title>
<g id="a_edge18_Node000015_Node000009"><a xlink:title=" ">
<path fill="none" stroke="#63b8ff" d="M766.91,-124.06C811.77,-113.89 878.31,-97.47 885.88,-88 898.52,-72.18 897.62,-48.17 894.76,-31.17"/>
<polygon fill="#63b8ff" stroke="#63b8ff" points="898.26,-30.82 892.81,-21.73 891.41,-32.23 898.26,-30.82"/>
</a>
</g>
</g>
<!-- Node16 -->
<g id="Node000016" class="node">
<title>Node16</title>
<g id="a_Node000016"><a xlink:title=" ">
<polygon fill="#e0e0e0" stroke="#999999" points="631.75,-88 522,-88 522,-56 631.75,-56 631.75,-88"/>
<text text-anchor="start" x="530" y="-74.5" font-family="Helvetica,sans-Serif" font-size="10.00">boost/algorithm/string</text>
<text text-anchor="middle" x="576.88" y="-62.5" font-family="Helvetica,sans-Serif" font-size="10.00">/trim.hpp</text>
</a>
</g>
</g>
<!-- Node15&#45;&gt;Node16 -->
<g id="edge15_Node000015_Node000016" class="edge">
<title>Node15&#45;&gt;Node16</title>
<g id="a_edge15_Node000015_Node000016"><a xlink:title=" ">
<path fill="none" stroke="#63b8ff" d="M702.59,-123.62C682.09,-115.37 651.56,-103.07 625.72,-92.67"/>
<polygon fill="#63b8ff" stroke="#63b8ff" points="627.33,-89.54 616.75,-89.06 624.72,-96.04 627.33,-89.54"/>
</a>
</g>
</g>
<!-- Node17 -->
<g id="Node000017" class="node">
<title>Node17</title>
<g id="a_Node000017"><a xlink:title=" ">
<polygon fill="#e0e0e0" stroke="#999999" points="801.75,-82 650,-82 650,-62 801.75,-62 801.75,-82"/>
<text text-anchor="middle" x="725.88" y="-68.5" font-family="Helvetica,sans-Serif" font-size="10.00">boost/uuid/uuid_generators.hpp</text>
</a>
</g>
</g>
<!-- Node15&#45;&gt;Node17 -->
<g id="edge16_Node000015_Node000017" class="edge">
<title>Node15&#45;&gt;Node17</title>
<g id="a_edge16_Node000015_Node000017"><a xlink:title=" ">
<path fill="none" stroke="#63b8ff" d="M725.88,-123.62C725.88,-115.56 725.88,-103.65 725.88,-93.41"/>
<polygon fill="#63b8ff" stroke="#63b8ff" points="729.38,-93.63 725.88,-83.63 722.38,-93.63 729.38,-93.63"/>
</a>
</g>
</g>
<!-- Node18 -->
<g id="Node000018" class="node">
<title>Node18</title>
<g id="a_Node000018"><a xlink:title=" ">
<polygon fill="#e0e0e0" stroke="#999999" points="859.88,-82 819.88,-82 819.88,-62 859.88,-62 859.88,-82"/>
<text text-anchor="middle" x="839.88" y="-68.5" font-family="Helvetica,sans-Serif" font-size="10.00">regex</text>
</a>
</g>
</g>
<!-- Node15&#45;&gt;Node18 -->
<g id="edge19_Node000015_Node000018" class="edge">
<title>Node15&#45;&gt;Node18</title>
<g id="a_edge19_Node000015_Node000018"><a xlink:title=" ">
<path fill="none" stroke="#63b8ff" d="M743.69,-123.62C762.01,-113.98 790.8,-98.83 812.11,-87.61"/>
<polygon fill="#63b8ff" stroke="#63b8ff" points="813.63,-90.77 820.85,-83.01 810.37,-84.57 813.63,-90.77"/>
</a>
</g>
</g>
</g>
</svg>
