<?xml version="1.0" encoding="UTF-8" standalone="no"?>
<!DOCTYPE svg PUBLIC "-//W3C//DTD SVG 1.1//EN"
 "http://www.w3.org/Graphics/SVG/1.1/DTD/svg11.dtd">
<!-- Generated by graphviz version 10.0.1 (0)
 -->
<!-- Title: include/validation&#45;api/ConfigService.hpp Pages: 1 -->
<svg width="331pt" height="168pt"
 viewBox="0.00 0.00 330.75 167.75" xmlns="http://www.w3.org/2000/svg" xmlns:xlink="http://www.w3.org/1999/xlink">
<g id="graph0" class="graph" transform="scale(1 1) rotate(0) translate(4 163.75)">
<title>include/validation&#45;api/ConfigService.hpp</title>
<!-- Node1 -->
<g id="Node000001" class="node">
<title>Node1</title>
<g id="a_Node000001"><a xlink:title=" ">
<polygon fill="#999999" stroke="#666666" points="254.38,-159.75 128.88,-159.75 128.88,-126.25 254.38,-126.25 254.38,-159.75"/>
<text text-anchor="start" x="136.88" y="-146.25" font-family="Helvetica,sans-Serif" font-size="10.00">include/validation</text>
<text text-anchor="middle" x="191.62" y="-133.5" font-family="Helvetica,sans-Serif" font-size="10.00">&#45;api/ConfigService.hpp</text>
</a>
</g>
</g>
<!-- Node2 -->
<g id="Node000002" class="node">
<title>Node2</title>
<g id="a_Node000002"><a xlink:href="ConfigWatcher_8hpp.html" target="_top" xlink:title=" ">
<polygon fill="white" stroke="#666666" points="184.88,-90.25 56.38,-90.25 56.38,-56.75 184.88,-56.75 184.88,-90.25"/>
<text text-anchor="start" x="64.38" y="-76.75" font-family="Helvetica,sans-Serif" font-size="10.00">include/validation</text>
<text text-anchor="middle" x="120.62" y="-64" font-family="Helvetica,sans-Serif" font-size="10.00">&#45;api/ConfigWatcher.hpp</text>
</a>
</g>
</g>
<!-- Node1&#45;&gt;Node2 -->
<g id="edge1_Node000001_Node000002" class="edge">
<title>Node1&#45;&gt;Node2</title>
<g id="a_edge1_Node000001_Node000002"><a xlink:title=" ">
<path fill="none" stroke="#63b8ff" d="M166.64,-118.25C156.93,-109.02 146.06,-98.69 137.33,-90.38"/>
<polygon fill="#63b8ff" stroke="#63b8ff" points="164.04,-120.61 173.7,-124.96 168.87,-115.53 164.04,-120.61"/>
</a>
</g>
</g>
<!-- Node5 -->
<g id="Node000005" class="node">
<title>Node5</title>
<g id="a_Node000005"><a xlink:href="ConfigService_8cpp.html" target="_top" xlink:title=" ">
<polygon fill="white" stroke="#666666" points="322.75,-83.88 202.5,-83.88 202.5,-63.12 322.75,-63.12 322.75,-83.88"/>
<text text-anchor="middle" x="262.62" y="-70.38" font-family="Helvetica,sans-Serif" font-size="10.00">src/ConfigService.cpp</text>
</a>
</g>
</g>
<!-- Node1&#45;&gt;Node5 -->
<g id="edge4_Node000001_Node000005" class="edge">
<title>Node1&#45;&gt;Node5</title>
<g id="a_edge4_Node000001_Node000005"><a xlink:title=" ">
<path fill="none" stroke="#63b8ff" d="M216.57,-118.29C228.84,-106.62 242.96,-93.2 252.29,-84.32"/>
<polygon fill="#63b8ff" stroke="#63b8ff" points="214.38,-115.53 209.55,-124.96 219.21,-120.61 214.38,-115.53"/>
</a>
</g>
</g>
<!-- Node3 -->
<g id="Node000003" class="node">
<title>Node3</title>
<g id="a_Node000003"><a xlink:href="ConfigWatcher_8cpp.html" target="_top" xlink:title=" ">
<polygon fill="white" stroke="#666666" points="123.25,-20.75 0,-20.75 0,0 123.25,0 123.25,-20.75"/>
<text text-anchor="middle" x="61.62" y="-7.25" font-family="Helvetica,sans-Serif" font-size="10.00">src/ConfigWatcher.cpp</text>
</a>
</g>
</g>
<!-- Node2&#45;&gt;Node3 -->
<g id="edge2_Node000002_Node000003" class="edge">
<title>Node2&#45;&gt;Node3</title>
<g id="a_edge2_Node000002_Node000003"><a xlink:title=" ">
<path fill="none" stroke="#63b8ff" d="M97.38,-48.42C88.22,-38.93 78.22,-28.56 71.12,-21.22"/>
<polygon fill="#63b8ff" stroke="#63b8ff" points="94.61,-50.59 104.07,-55.35 99.65,-45.73 94.61,-50.59"/>
</a>
</g>
</g>
<!-- Node4 -->
<g id="Node000004" class="node">
<title>Node4</title>
<g id="a_Node000004"><a xlink:href="main_8cpp.html" target="_top" xlink:title=" ">
<polygon fill="white" stroke="#666666" points="219.75,-20.75 141.5,-20.75 141.5,0 219.75,0 219.75,-20.75"/>
<text text-anchor="middle" x="180.62" y="-7.25" font-family="Helvetica,sans-Serif" font-size="10.00">src/main.cpp</text>
</a>
</g>
</g>
<!-- Node2&#45;&gt;Node4 -->
<g id="edge3_Node000002_Node000004" class="edge">
<title>Node2&#45;&gt;Node4</title>
<g id="a_edge3_Node000002_Node000004"><a xlink:title=" ">
<path fill="none" stroke="#63b8ff" d="M144.26,-48.42C153.58,-38.93 163.75,-28.56 170.96,-21.22"/>
<polygon fill="#63b8ff" stroke="#63b8ff" points="141.96,-45.77 137.45,-55.36 146.95,-50.68 141.96,-45.77"/>
</a>
</g>
</g>
</g>
</svg>
