<?xml version="1.0" encoding="UTF-8" standalone="no"?>
<!DOCTYPE svg PUBLIC "-//W3C//DTD SVG 1.1//EN"
 "http://www.w3.org/Graphics/SVG/1.1/DTD/svg11.dtd">
<!-- Generated by graphviz version 10.0.1 (0)
 -->
<!-- Title: src/ConfigWatcher.cpp Pages: 1 -->
<svg width="1177pt" height="199pt"
 viewBox="0.00 0.00 1177.00 199.00" xmlns="http://www.w3.org/2000/svg" xmlns:xlink="http://www.w3.org/1999/xlink">
<g id="graph0" class="graph" transform="scale(1 1) rotate(0) translate(4 195)">
<title>src/ConfigWatcher.cpp</title>
<!-- Node1 -->
<g id="Node000001" class="node">
<title>Node1</title>
<g id="a_Node000001"><a xlink:title=" ">
<polygon fill="#999999" stroke="#666666" points="928.25,-191 805,-191 805,-170.25 928.25,-170.25 928.25,-191"/>
<text text-anchor="middle" x="866.62" y="-177.5" font-family="Helvetica,sans-Serif" font-size="10.00">src/ConfigWatcher.cpp</text>
</a>
</g>
</g>
<!-- Node2 -->
<g id="Node000002" class="node">
<title>Node2</title>
<g id="a_Node000002"><a xlink:href="ConfigWatcher_8hpp.html" target="_top" xlink:title=" ">
<polygon fill="white" stroke="#666666" points="378.25,-134.25 201,-134.25 201,-113.5 378.25,-113.5 378.25,-134.25"/>
<text text-anchor="middle" x="289.62" y="-120.75" font-family="Helvetica,sans-Serif" font-size="10.00">validation&#45;api/ConfigWatcher.hpp</text>
</a>
</g>
</g>
<!-- Node1&#45;&gt;Node2 -->
<g id="edge1_Node000001_Node000002" class="edge">
<title>Node1&#45;&gt;Node2</title>
<g id="a_edge1_Node000001_Node000002"><a xlink:title=" ">
<path fill="none" stroke="#63b8ff" d="M804.6,-173.74C705.21,-164.31 509.32,-145.72 389.86,-134.39"/>
<polygon fill="#63b8ff" stroke="#63b8ff" points="390.34,-130.92 380.05,-133.46 389.68,-137.88 390.34,-130.92"/>
</a>
</g>
</g>
<!-- Node11 -->
<g id="Node000011" class="node">
<title>Node11</title>
<g id="a_Node000011"><a xlink:title=" ">
<polygon fill="#e0e0e0" stroke="#999999" points="738.5,-134.25 664.75,-134.25 664.75,-113.5 738.5,-113.5 738.5,-134.25"/>
<text text-anchor="middle" x="701.62" y="-120.75" font-family="Helvetica,sans-Serif" font-size="10.00">sys/inotify.h</text>
</a>
</g>
</g>
<!-- Node1&#45;&gt;Node11 -->
<g id="edge10_Node000001_Node000011" class="edge">
<title>Node1&#45;&gt;Node11</title>
<g id="a_edge10_Node000001_Node000011"><a xlink:title=" ">
<path fill="none" stroke="#63b8ff" d="M837.13,-169.84C810.58,-161.03 771.33,-148 741.9,-138.24"/>
<polygon fill="#63b8ff" stroke="#63b8ff" points="743.18,-134.97 732.58,-135.15 740.97,-141.62 743.18,-134.97"/>
</a>
</g>
</g>
<!-- Node12 -->
<g id="Node000012" class="node">
<title>Node12</title>
<g id="a_Node000012"><a xlink:title=" ">
<polygon fill="#e0e0e0" stroke="#999999" points="874.62,-134.25 756.62,-134.25 756.62,-113.5 874.62,-113.5 874.62,-134.25"/>
<text text-anchor="middle" x="815.62" y="-120.75" font-family="Helvetica,sans-Serif" font-size="10.00">boost/filesystem.hpp</text>
</a>
</g>
</g>
<!-- Node1&#45;&gt;Node12 -->
<g id="edge11_Node000001_Node000012" class="edge">
<title>Node1&#45;&gt;Node12</title>
<g id="a_edge11_Node000001_Node000012"><a xlink:title=" ">
<path fill="none" stroke="#63b8ff" d="M857.51,-169.84C850.54,-162.36 840.76,-151.86 832.39,-142.88"/>
<polygon fill="#63b8ff" stroke="#63b8ff" points="835.07,-140.62 825.7,-135.69 829.95,-145.39 835.07,-140.62"/>
</a>
</g>
</g>
<!-- Node13 -->
<g id="Node000013" class="node">
<title>Node13</title>
<g id="a_Node000013"><a xlink:title=" ">
<polygon fill="#e0e0e0" stroke="#999999" points="942.12,-134.25 893.12,-134.25 893.12,-113.5 942.12,-113.5 942.12,-134.25"/>
<text text-anchor="middle" x="917.62" y="-120.75" font-family="Helvetica,sans-Serif" font-size="10.00">format</text>
</a>
</g>
</g>
<!-- Node1&#45;&gt;Node13 -->
<g id="edge12_Node000001_Node000013" class="edge">
<title>Node1&#45;&gt;Node13</title>
<g id="a_edge12_Node000001_Node000013"><a xlink:title=" ">
<path fill="none" stroke="#63b8ff" d="M875.74,-169.84C882.71,-162.36 892.49,-151.86 900.86,-142.88"/>
<polygon fill="#63b8ff" stroke="#63b8ff" points="903.3,-145.39 907.55,-135.69 898.18,-140.62 903.3,-145.39"/>
</a>
</g>
</g>
<!-- Node14 -->
<g id="Node000014" class="node">
<title>Node14</title>
<g id="a_Node000014"><a xlink:title=" ">
<polygon fill="#e0e0e0" stroke="#999999" points="1014.75,-134.25 960.5,-134.25 960.5,-113.5 1014.75,-113.5 1014.75,-134.25"/>
<text text-anchor="middle" x="987.62" y="-120.75" font-family="Helvetica,sans-Serif" font-size="10.00">fstream</text>
</a>
</g>
</g>
<!-- Node1&#45;&gt;Node14 -->
<g id="edge13_Node000001_Node000014" class="edge">
<title>Node1&#45;&gt;Node14</title>
<g id="a_edge13_Node000001_Node000014"><a xlink:title=" ">
<path fill="none" stroke="#63b8ff" d="M888.26,-169.84C907.1,-161.31 934.66,-148.84 955.98,-139.19"/>
<polygon fill="#63b8ff" stroke="#63b8ff" points="957.13,-142.51 964.8,-135.2 954.25,-136.14 957.13,-142.51"/>
</a>
</g>
</g>
<!-- Node15 -->
<g id="Node000015" class="node">
<title>Node15</title>
<g id="a_Node000015"><a xlink:title=" ">
<polygon fill="#e0e0e0" stroke="#999999" points="1104,-134.25 1033.25,-134.25 1033.25,-113.5 1104,-113.5 1104,-134.25"/>
<text text-anchor="middle" x="1068.62" y="-120.75" font-family="Helvetica,sans-Serif" font-size="10.00">semaphore</text>
</a>
</g>
</g>
<!-- Node1&#45;&gt;Node15 -->
<g id="edge14_Node000001_Node000015" class="edge">
<title>Node1&#45;&gt;Node15</title>
<g id="a_edge14_Node000001_Node000015"><a xlink:title=" ">
<path fill="none" stroke="#63b8ff" d="M902.74,-169.84C936.06,-160.81 985.72,-147.35 1022.02,-137.51"/>
<polygon fill="#63b8ff" stroke="#63b8ff" points="1022.63,-140.97 1031.36,-134.97 1020.8,-134.21 1022.63,-140.97"/>
</a>
</g>
</g>
<!-- Node16 -->
<g id="Node000016" class="node">
<title>Node16</title>
<g id="a_Node000016"><a xlink:title=" ">
<polygon fill="#e0e0e0" stroke="#999999" points="1169,-134.25 1122.25,-134.25 1122.25,-113.5 1169,-113.5 1169,-134.25"/>
<text text-anchor="middle" x="1145.62" y="-120.75" font-family="Helvetica,sans-Serif" font-size="10.00">vector</text>
</a>
</g>
</g>
<!-- Node1&#45;&gt;Node16 -->
<g id="edge15_Node000001_Node000016" class="edge">
<title>Node1&#45;&gt;Node16</title>
<g id="a_edge15_Node000001_Node000016"><a xlink:title=" ">
<path fill="none" stroke="#63b8ff" d="M928.63,-169.85C976.04,-162 1043.22,-150.07 1111.02,-134.44"/>
<polygon fill="#63b8ff" stroke="#63b8ff" points="1111.48,-137.93 1120.43,-132.25 1109.89,-131.11 1111.48,-137.93"/>
</a>
</g>
</g>
<!-- Node17 -->
<g id="Node000017" class="node">
<title>Node17</title>
<g id="a_Node000017"><a xlink:href="Helpers_8hpp.html" target="_top" xlink:title=" ">
<polygon fill="white" stroke="#666666" points="646.38,-134.25 556.88,-134.25 556.88,-113.5 646.38,-113.5 646.38,-134.25"/>
<text text-anchor="middle" x="601.62" y="-120.75" font-family="Helvetica,sans-Serif" font-size="10.00">lib/Helpers.hpp</text>
</a>
</g>
</g>
<!-- Node1&#45;&gt;Node17 -->
<g id="edge16_Node000001_Node000017" class="edge">
<title>Node1&#45;&gt;Node17</title>
<g id="a_edge16_Node000001_Node000017"><a xlink:title=" ">
<path fill="none" stroke="#63b8ff" d="M818.94,-169.77C773.69,-160.42 705.68,-146.37 657.82,-136.48"/>
<polygon fill="#63b8ff" stroke="#63b8ff" points="658.7,-133.09 648.2,-134.5 657.28,-139.95 658.7,-133.09"/>
</a>
</g>
</g>
<!-- Node3 -->
<g id="Node000003" class="node">
<title>Node3</title>
<g id="a_Node000003"><a xlink:title=" ">
<polygon fill="#e0e0e0" stroke="#999999" points="87.25,-77.5 0,-77.5 0,-56.75 87.25,-56.75 87.25,-77.5"/>
<text text-anchor="middle" x="43.62" y="-64" font-family="Helvetica,sans-Serif" font-size="10.00">boost/asio.hpp</text>
</a>
</g>
</g>
<!-- Node2&#45;&gt;Node3 -->
<g id="edge2_Node000002_Node000003" class="edge">
<title>Node2&#45;&gt;Node3</title>
<g id="a_edge2_Node000002_Node000003"><a xlink:title=" ">
<path fill="none" stroke="#63b8ff" d="M245.36,-113.02C204.26,-103.88 142.92,-90.22 98.67,-80.38"/>
<polygon fill="#63b8ff" stroke="#63b8ff" points="99.53,-76.98 89.01,-78.23 98.01,-83.82 99.53,-76.98"/>
</a>
</g>
</g>
<!-- Node4 -->
<g id="Node000004" class="node">
<title>Node4</title>
<g id="a_Node000004"><a xlink:title=" ">
<polygon fill="#e0e0e0" stroke="#999999" points="197.88,-77.5 105.38,-77.5 105.38,-56.75 197.88,-56.75 197.88,-77.5"/>
<text text-anchor="middle" x="151.62" y="-64" font-family="Helvetica,sans-Serif" font-size="10.00">unordered_map</text>
</a>
</g>
</g>
<!-- Node2&#45;&gt;Node4 -->
<g id="edge3_Node000002_Node000004" class="edge">
<title>Node2&#45;&gt;Node4</title>
<g id="a_edge3_Node000002_Node000004"><a xlink:title=" ">
<path fill="none" stroke="#63b8ff" d="M264.95,-113.09C243.17,-104.44 211.17,-91.75 186.72,-82.05"/>
<polygon fill="#63b8ff" stroke="#63b8ff" points="188.08,-78.82 177.49,-78.39 185.49,-85.33 188.08,-78.82"/>
</a>
</g>
</g>
<!-- Node5 -->
<g id="Node000005" class="node">
<title>Node5</title>
<g id="a_Node000005"><a xlink:href="ConfigService_8hpp.html" target="_top" xlink:title=" ">
<polygon fill="white" stroke="#666666" points="554.75,-77.5 380.5,-77.5 380.5,-56.75 554.75,-56.75 554.75,-77.5"/>
<text text-anchor="middle" x="467.62" y="-64" font-family="Helvetica,sans-Serif" font-size="10.00">validation&#45;api/ConfigService.hpp</text>
</a>
</g>
</g>
<!-- Node2&#45;&gt;Node5 -->
<g id="edge4_Node000002_Node000005" class="edge">
<title>Node2&#45;&gt;Node5</title>
<g id="a_edge4_Node000002_Node000005"><a xlink:title=" ">
<path fill="none" stroke="#63b8ff" d="M321.45,-113.09C350.34,-104.2 393.18,-91.02 425.02,-81.23"/>
<polygon fill="#63b8ff" stroke="#63b8ff" points="425.8,-84.65 434.33,-78.37 423.74,-77.96 425.8,-84.65"/>
</a>
</g>
</g>
<!-- Node10 -->
<g id="Node000010" class="node">
<title>Node10</title>
<g id="a_Node000010"><a xlink:href="IService_8hpp.html" target="_top" xlink:title=" ">
<polygon fill="white" stroke="#666666" points="362.88,-77.5 216.38,-77.5 216.38,-56.75 362.88,-56.75 362.88,-77.5"/>
<text text-anchor="middle" x="289.62" y="-64" font-family="Helvetica,sans-Serif" font-size="10.00">validation&#45;api/IService.hpp</text>
</a>
</g>
</g>
<!-- Node2&#45;&gt;Node10 -->
<g id="edge9_Node000002_Node000010" class="edge">
<title>Node2&#45;&gt;Node10</title>
<g id="a_edge9_Node000002_Node000010"><a xlink:title=" ">
<path fill="none" stroke="#63b8ff" d="M289.62,-113.09C289.62,-106.47 289.62,-97.47 289.62,-89.27"/>
<polygon fill="#63b8ff" stroke="#63b8ff" points="293.13,-89.34 289.63,-79.34 286.13,-89.34 293.13,-89.34"/>
</a>
</g>
</g>
<!-- Node6 -->
<g id="Node000006" class="node">
<title>Node6</title>
<g id="a_Node000006"><a xlink:title=" ">
<polygon fill="#e0e0e0" stroke="#999999" points="355.88,-20.75 263.38,-20.75 263.38,0 355.88,0 355.88,-20.75"/>
<text text-anchor="middle" x="309.62" y="-7.25" font-family="Helvetica,sans-Serif" font-size="10.00">spdlog/spdlog.h</text>
</a>
</g>
</g>
<!-- Node5&#45;&gt;Node6 -->
<g id="edge5_Node000005_Node000006" class="edge">
<title>Node5&#45;&gt;Node6</title>
<g id="a_edge5_Node000005_Node000006"><a xlink:title=" ">
<path fill="none" stroke="#63b8ff" d="M439.38,-56.34C414.07,-47.57 376.7,-34.62 348.56,-24.87"/>
<polygon fill="#63b8ff" stroke="#63b8ff" points="349.92,-21.63 339.32,-21.67 347.63,-28.25 349.92,-21.63"/>
</a>
</g>
</g>
<!-- Node7 -->
<g id="Node000007" class="node">
<title>Node7</title>
<g id="a_Node000007"><a xlink:title=" ">
<polygon fill="#e0e0e0" stroke="#999999" points="472.88,-20.75 374.38,-20.75 374.38,0 472.88,0 472.88,-20.75"/>
<text text-anchor="middle" x="423.62" y="-7.25" font-family="Helvetica,sans-Serif" font-size="10.00">boost/thread.hpp</text>
</a>
</g>
</g>
<!-- Node5&#45;&gt;Node7 -->
<g id="edge6_Node000005_Node000007" class="edge">
<title>Node5&#45;&gt;Node7</title>
<g id="a_edge6_Node000005_Node000007"><a xlink:title=" ">
<path fill="none" stroke="#63b8ff" d="M459.76,-56.34C453.88,-49.02 445.66,-38.79 438.55,-29.94"/>
<polygon fill="#63b8ff" stroke="#63b8ff" points="441.36,-27.86 432.37,-22.26 435.91,-32.25 441.36,-27.86"/>
</a>
</g>
</g>
<!-- Node8 -->
<g id="Node000008" class="node">
<title>Node8</title>
<g id="a_Node000008"><a xlink:title=" ">
<polygon fill="#e0e0e0" stroke="#999999" points="600.12,-20.75 491.12,-20.75 491.12,0 600.12,0 600.12,-20.75"/>
<text text-anchor="middle" x="545.62" y="-7.25" font-family="Helvetica,sans-Serif" font-size="10.00">nlohmann/json.hpp</text>
</a>
</g>
</g>
<!-- Node5&#45;&gt;Node8 -->
<g id="edge7_Node000005_Node000008" class="edge">
<title>Node5&#45;&gt;Node8</title>
<g id="a_edge7_Node000005_Node000008"><a xlink:title=" ">
<path fill="none" stroke="#63b8ff" d="M481.57,-56.34C492.99,-48.32 509.39,-36.81 522.74,-27.44"/>
<polygon fill="#63b8ff" stroke="#63b8ff" points="524.39,-30.56 530.56,-21.95 520.37,-24.83 524.39,-30.56"/>
</a>
</g>
</g>
<!-- Node9 -->
<g id="Node000009" class="node">
<title>Node9</title>
<g id="a_Node000009"><a xlink:title=" ">
<polygon fill="#e0e0e0" stroke="#999999" points="695,-20.75 618.25,-20.75 618.25,0 695,0 695,-20.75"/>
<text text-anchor="middle" x="656.62" y="-7.25" font-family="Helvetica,sans-Serif" font-size="10.00">pugixml.hpp</text>
</a>
</g>
</g>
<!-- Node5&#45;&gt;Node9 -->
<g id="edge8_Node000005_Node000009" class="edge">
<title>Node5&#45;&gt;Node9</title>
<g id="a_edge8_Node000005_Node000009"><a xlink:title=" ">
<path fill="none" stroke="#63b8ff" d="M501.41,-56.34C532.23,-47.41 577.97,-34.16 611.82,-24.35"/>
<polygon fill="#63b8ff" stroke="#63b8ff" points="612.73,-27.74 621.36,-21.59 610.78,-21.01 612.73,-27.74"/>
</a>
</g>
</g>
<!-- Node17&#45;&gt;Node5 -->
<g id="edge21_Node000017_Node000005" class="edge">
<title>Node17&#45;&gt;Node5</title>
<g id="a_edge21_Node000017_Node000005"><a xlink:title=" ">
<path fill="none" stroke="#63b8ff" d="M577.67,-113.09C556.61,-104.48 525.72,-91.86 502.02,-82.18"/>
<polygon fill="#63b8ff" stroke="#63b8ff" points="503.36,-78.94 492.78,-78.4 500.71,-85.42 503.36,-78.94"/>
</a>
</g>
</g>
<!-- Node17&#45;&gt;Node8 -->
<g id="edge18_Node000017_Node000008" class="edge">
<title>Node17&#45;&gt;Node8</title>
<g id="a_edge18_Node000017_Node000008"><a xlink:title=" ">
<path fill="none" stroke="#63b8ff" d="M596.85,-113.37C587.76,-95.27 567.8,-55.53 555.66,-31.35"/>
<polygon fill="#63b8ff" stroke="#63b8ff" points="558.84,-29.89 551.23,-22.53 552.59,-33.03 558.84,-29.89"/>
</a>
</g>
</g>
<!-- Node17&#45;&gt;Node9 -->
<g id="edge19_Node000017_Node000009" class="edge">
<title>Node17&#45;&gt;Node9</title>
<g id="a_edge19_Node000017_Node000009"><a xlink:title=" ">
<path fill="none" stroke="#63b8ff" d="M606.31,-113.37C615.24,-95.27 634.84,-55.53 646.77,-31.35"/>
<polygon fill="#63b8ff" stroke="#63b8ff" points="649.84,-33.05 651.12,-22.53 643.56,-29.95 649.84,-33.05"/>
</a>
</g>
</g>
<!-- Node18 -->
<g id="Node000018" class="node">
<title>Node18</title>
<g id="a_Node000018"><a xlink:title=" ">
<polygon fill="#e0e0e0" stroke="#999999" points="818.5,-77.5 648.75,-77.5 648.75,-56.75 818.5,-56.75 818.5,-77.5"/>
<text text-anchor="middle" x="733.62" y="-64" font-family="Helvetica,sans-Serif" font-size="10.00">boost/uuid/uuid_generators.hpp</text>
</a>
</g>
</g>
<!-- Node17&#45;&gt;Node18 -->
<g id="edge17_Node000017_Node000018" class="edge">
<title>Node17&#45;&gt;Node18</title>
<g id="a_edge17_Node000017_Node000018"><a xlink:title=" ">
<path fill="none" stroke="#63b8ff" d="M625.22,-113.09C645.97,-104.48 676.4,-91.86 699.74,-82.18"/>
<polygon fill="#63b8ff" stroke="#63b8ff" points="700.94,-85.47 708.83,-78.41 698.25,-79.01 700.94,-85.47"/>
</a>
</g>
</g>
<!-- Node19 -->
<g id="Node000019" class="node">
<title>Node19</title>
<g id="a_Node000019"><a xlink:title=" ">
<polygon fill="#e0e0e0" stroke="#999999" points="880.5,-77.5 836.75,-77.5 836.75,-56.75 880.5,-56.75 880.5,-77.5"/>
<text text-anchor="middle" x="858.62" y="-64" font-family="Helvetica,sans-Serif" font-size="10.00">regex</text>
</a>
</g>
</g>
<!-- Node17&#45;&gt;Node19 -->
<g id="edge20_Node000017_Node000019" class="edge">
<title>Node17&#45;&gt;Node19</title>
<g id="a_edge20_Node000017_Node000019"><a xlink:title=" ">
<path fill="none" stroke="#63b8ff" d="M646.42,-114.41C697.66,-104.64 779.48,-88.76 825.25,-77.87"/>
<polygon fill="#63b8ff" stroke="#63b8ff" points="826,-81.29 834.88,-75.5 824.33,-74.49 826,-81.29"/>
</a>
</g>
</g>
</g>
</svg>
