<?xml version="1.0" encoding="UTF-8" standalone="no"?>
<!DOCTYPE svg PUBLIC "-//W3C//DTD SVG 1.1//EN"
 "http://www.w3.org/Graphics/SVG/1.1/DTD/svg11.dtd">
<!-- Generated by graphviz version 10.0.1 (0)
 -->
<!-- Title: src/ConfigService.cpp Pages: 1 -->
<svg width="470pt" height="199pt"
 viewBox="0.00 0.00 469.50 199.00" xmlns="http://www.w3.org/2000/svg" xmlns:xlink="http://www.w3.org/1999/xlink">
<g id="graph0" class="graph" transform="scale(1 1) rotate(0) translate(4 195)">
<title>src/ConfigService.cpp</title>
<!-- Node1 -->
<g id="Node000001" class="node">
<title>Node1</title>
<g id="a_Node000001"><a xlink:title=" ">
<polygon fill="#999999" stroke="#666666" points="260.38,-191 140.12,-191 140.12,-170.25 260.38,-170.25 260.38,-191"/>
<text text-anchor="middle" x="200.25" y="-177.5" font-family="Helvetica,sans-Serif" font-size="10.00">src/ConfigService.cpp</text>
</a>
</g>
</g>
<!-- Node2 -->
<g id="Node000002" class="node">
<title>Node2</title>
<g id="a_Node000002"><a xlink:title=" ">
<polygon fill="#e0e0e0" stroke="#999999" points="92.5,-20.75 0,-20.75 0,0 92.5,0 92.5,-20.75"/>
<text text-anchor="middle" x="46.25" y="-7.25" font-family="Helvetica,sans-Serif" font-size="10.00">spdlog/spdlog.h</text>
</a>
</g>
</g>
<!-- Node1&#45;&gt;Node2 -->
<g id="edge1_Node000001_Node000002" class="edge">
<title>Node1&#45;&gt;Node2</title>
<g id="a_edge1_Node000001_Node000002"><a xlink:title=" ">
<path fill="none" stroke="#63b8ff" d="M179.8,-169.85C149.82,-154.46 94.26,-121.72 64.25,-77.5 55.15,-64.08 50.63,-46.21 48.4,-32.43"/>
<polygon fill="#63b8ff" stroke="#63b8ff" points="51.9,-32.13 47.13,-22.67 44.95,-33.04 51.9,-32.13"/>
</a>
</g>
</g>
<!-- Node3 -->
<g id="Node000003" class="node">
<title>Node3</title>
<g id="a_Node000003"><a xlink:href="Helpers_8hpp.html" target="_top" xlink:title=" ">
<polygon fill="white" stroke="#666666" points="281,-134.25 191.5,-134.25 191.5,-113.5 281,-113.5 281,-134.25"/>
<text text-anchor="middle" x="236.25" y="-120.75" font-family="Helvetica,sans-Serif" font-size="10.00">lib/Helpers.hpp</text>
</a>
</g>
</g>
<!-- Node1&#45;&gt;Node3 -->
<g id="edge2_Node000001_Node000003" class="edge">
<title>Node1&#45;&gt;Node3</title>
<g id="a_edge2_Node000001_Node000003"><a xlink:title=" ">
<path fill="none" stroke="#63b8ff" d="M206.69,-169.84C211.4,-162.67 217.94,-152.73 223.67,-144.01"/>
<polygon fill="#63b8ff" stroke="#63b8ff" points="226.47,-146.12 229.04,-135.84 220.62,-142.28 226.47,-146.12"/>
</a>
</g>
</g>
<!-- Node6 -->
<g id="Node000006" class="node">
<title>Node6</title>
<g id="a_Node000006"><a xlink:href="ConfigService_8hpp.html" target="_top" xlink:title=" ">
<polygon fill="white" stroke="#666666" points="247.38,-77.5 73.12,-77.5 73.12,-56.75 247.38,-56.75 247.38,-77.5"/>
<text text-anchor="middle" x="160.25" y="-64" font-family="Helvetica,sans-Serif" font-size="10.00">validation&#45;api/ConfigService.hpp</text>
</a>
</g>
</g>
<!-- Node1&#45;&gt;Node6 -->
<g id="edge15_Node000001_Node000006" class="edge">
<title>Node1&#45;&gt;Node6</title>
<g id="a_edge15_Node000001_Node000006"><a xlink:title=" ">
<path fill="none" stroke="#63b8ff" d="M196.23,-169.95C192.47,-160.8 186.78,-146.67 182.25,-134.25 176.67,-118.93 170.87,-101.42 166.62,-88.27"/>
<polygon fill="#63b8ff" stroke="#63b8ff" points="170.05,-87.5 163.68,-79.04 163.39,-89.63 170.05,-87.5"/>
</a>
</g>
</g>
<!-- Node8 -->
<g id="Node000008" class="node">
<title>Node8</title>
<g id="a_Node000008"><a xlink:href="Validation_8hpp.html" target="_top" xlink:title=" ">
<polygon fill="white" stroke="#666666" points="401.62,-134.25 300.88,-134.25 300.88,-113.5 401.62,-113.5 401.62,-134.25"/>
<text text-anchor="middle" x="351.25" y="-120.75" font-family="Helvetica,sans-Serif" font-size="10.00">lib/Validation.hpp</text>
</a>
</g>
</g>
<!-- Node1&#45;&gt;Node8 -->
<g id="edge10_Node000001_Node000008" class="edge">
<title>Node1&#45;&gt;Node8</title>
<g id="a_edge10_Node000001_Node000008"><a xlink:title=" ">
<path fill="none" stroke="#63b8ff" d="M227.25,-169.84C251.33,-161.11 286.83,-148.23 313.68,-138.5"/>
<polygon fill="#63b8ff" stroke="#63b8ff" points="314.6,-141.89 322.81,-135.19 312.22,-135.3 314.6,-141.89"/>
</a>
</g>
</g>
<!-- Node4 -->
<g id="Node000004" class="node">
<title>Node4</title>
<g id="a_Node000004"><a xlink:title=" ">
<polygon fill="#e0e0e0" stroke="#999999" points="435.75,-20.75 326.75,-20.75 326.75,0 435.75,0 435.75,-20.75"/>
<text text-anchor="middle" x="381.25" y="-7.25" font-family="Helvetica,sans-Serif" font-size="10.00">nlohmann/json.hpp</text>
</a>
</g>
</g>
<!-- Node3&#45;&gt;Node4 -->
<g id="edge3_Node000003_Node000004" class="edge">
<title>Node3&#45;&gt;Node4</title>
<g id="a_edge3_Node000003_Node000004"><a xlink:title=" ">
<path fill="none" stroke="#63b8ff" d="M248.86,-113.18C273.61,-94.15 328.77,-51.73 359.51,-28.09"/>
<polygon fill="#63b8ff" stroke="#63b8ff" points="361.57,-30.92 367.36,-22.05 357.3,-25.38 361.57,-30.92"/>
</a>
</g>
</g>
<!-- Node5 -->
<g id="Node000005" class="node">
<title>Node5</title>
<g id="a_Node000005"><a xlink:title=" ">
<polygon fill="#e0e0e0" stroke="#999999" points="308.62,-20.75 231.88,-20.75 231.88,0 308.62,0 308.62,-20.75"/>
<text text-anchor="middle" x="270.25" y="-7.25" font-family="Helvetica,sans-Serif" font-size="10.00">pugixml.hpp</text>
</a>
</g>
</g>
<!-- Node3&#45;&gt;Node5 -->
<g id="edge4_Node000003_Node000005" class="edge">
<title>Node3&#45;&gt;Node5</title>
<g id="a_edge4_Node000003_Node000005"><a xlink:title=" ">
<path fill="none" stroke="#63b8ff" d="M241.31,-113.01C245.77,-103.98 252.18,-90.12 256.25,-77.5 261.05,-62.6 264.65,-45.28 267,-32.1"/>
<polygon fill="#63b8ff" stroke="#63b8ff" points="270.41,-32.89 268.61,-22.45 263.51,-31.73 270.41,-32.89"/>
</a>
</g>
</g>
<!-- Node3&#45;&gt;Node6 -->
<g id="edge5_Node000003_Node000006" class="edge">
<title>Node3&#45;&gt;Node6</title>
<g id="a_edge5_Node000003_Node000006"><a xlink:title=" ">
<path fill="none" stroke="#63b8ff" d="M222.66,-113.09C211.64,-105.15 195.86,-93.78 182.93,-84.46"/>
<polygon fill="#63b8ff" stroke="#63b8ff" points="185.11,-81.72 174.95,-78.71 181.02,-87.4 185.11,-81.72"/>
</a>
</g>
</g>
<!-- Node6&#45;&gt;Node2 -->
<g id="edge6_Node000006_Node000002" class="edge">
<title>Node6&#45;&gt;Node2</title>
<g id="a_edge6_Node000006_Node000002"><a xlink:title=" ">
<path fill="none" stroke="#63b8ff" d="M139.87,-56.34C122.28,-47.89 96.62,-35.57 76.62,-25.96"/>
<polygon fill="#63b8ff" stroke="#63b8ff" points="78.35,-22.91 67.82,-21.73 75.32,-29.22 78.35,-22.91"/>
</a>
</g>
</g>
<!-- Node6&#45;&gt;Node4 -->
<g id="edge8_Node000006_Node000004" class="edge">
<title>Node6&#45;&gt;Node4</title>
<g id="a_edge8_Node000006_Node000004"><a xlink:title=" ">
<path fill="none" stroke="#63b8ff" d="M200.02,-56.27C236.51,-47.23 290.78,-33.79 330.41,-23.97"/>
<polygon fill="#63b8ff" stroke="#63b8ff" points="331.1,-27.41 339.96,-21.6 329.41,-20.61 331.1,-27.41"/>
</a>
</g>
</g>
<!-- Node6&#45;&gt;Node5 -->
<g id="edge9_Node000006_Node000005" class="edge">
<title>Node6&#45;&gt;Node5</title>
<g id="a_edge9_Node000006_Node000005"><a xlink:title=" ">
<path fill="none" stroke="#63b8ff" d="M179.92,-56.34C196.81,-47.93 221.42,-35.68 240.68,-26.09"/>
<polygon fill="#63b8ff" stroke="#63b8ff" points="242.01,-29.34 249.4,-21.75 238.89,-23.08 242.01,-29.34"/>
</a>
</g>
</g>
<!-- Node7 -->
<g id="Node000007" class="node">
<title>Node7</title>
<g id="a_Node000007"><a xlink:title=" ">
<polygon fill="#e0e0e0" stroke="#999999" points="209.5,-20.75 111,-20.75 111,0 209.5,0 209.5,-20.75"/>
<text text-anchor="middle" x="160.25" y="-7.25" font-family="Helvetica,sans-Serif" font-size="10.00">boost/thread.hpp</text>
</a>
</g>
</g>
<!-- Node6&#45;&gt;Node7 -->
<g id="edge7_Node000006_Node000007" class="edge">
<title>Node6&#45;&gt;Node7</title>
<g id="a_edge7_Node000006_Node000007"><a xlink:title=" ">
<path fill="none" stroke="#63b8ff" d="M160.25,-56.34C160.25,-49.72 160.25,-40.72 160.25,-32.52"/>
<polygon fill="#63b8ff" stroke="#63b8ff" points="163.75,-32.59 160.25,-22.59 156.75,-32.59 163.75,-32.59"/>
</a>
</g>
</g>
<!-- Node8&#45;&gt;Node4 -->
<g id="edge11_Node000008_Node000004" class="edge">
<title>Node8&#45;&gt;Node4</title>
<g id="a_edge11_Node000008_Node000004"><a xlink:title=" ">
<path fill="none" stroke="#63b8ff" d="M354.43,-113.19C357.39,-104.04 361.84,-89.9 365.25,-77.5 369.43,-62.31 373.59,-45 376.63,-31.9"/>
<polygon fill="#63b8ff" stroke="#63b8ff" points="380,-32.84 378.82,-22.31 373.18,-31.29 380,-32.84"/>
</a>
</g>
</g>
<!-- Node8&#45;&gt;Node5 -->
<g id="edge12_Node000008_Node000005" class="edge">
<title>Node8&#45;&gt;Node5</title>
<g id="a_edge12_Node000008_Node000005"><a xlink:title=" ">
<path fill="none" stroke="#63b8ff" d="M344.34,-113.37C331.02,-95.03 301.54,-54.45 284.05,-30.37"/>
<polygon fill="#63b8ff" stroke="#63b8ff" points="286.97,-28.43 278.26,-22.4 281.3,-32.55 286.97,-28.43"/>
</a>
</g>
</g>
<!-- Node8&#45;&gt;Node6 -->
<g id="edge14_Node000008_Node000006" class="edge">
<title>Node8&#45;&gt;Node6</title>
<g id="a_edge14_Node000008_Node000006"><a xlink:title=" ">
<path fill="none" stroke="#63b8ff" d="M317.1,-113.09C285.83,-104.12 239.33,-90.79 205.08,-80.98"/>
<polygon fill="#63b8ff" stroke="#63b8ff" points="206.46,-77.73 195.88,-78.34 204.53,-84.46 206.46,-77.73"/>
</a>
</g>
</g>
<!-- Node9 -->
<g id="Node000009" class="node">
<title>Node9</title>
<g id="a_Node000009"><a xlink:title=" ">
<polygon fill="#e0e0e0" stroke="#999999" points="461.5,-77.5 417,-77.5 417,-56.75 461.5,-56.75 461.5,-77.5"/>
<text text-anchor="middle" x="439.25" y="-64" font-family="Helvetica,sans-Serif" font-size="10.00">utility</text>
</a>
</g>
</g>
<!-- Node8&#45;&gt;Node9 -->
<g id="edge13_Node000008_Node000009" class="edge">
<title>Node8&#45;&gt;Node9</title>
<g id="a_edge13_Node000008_Node000009"><a xlink:title=" ">
<path fill="none" stroke="#63b8ff" d="M366.98,-113.09C380.12,-104.91 399.09,-93.11 414.3,-83.65"/>
<polygon fill="#63b8ff" stroke="#63b8ff" points="415.73,-86.88 422.37,-78.63 412.03,-80.94 415.73,-86.88"/>
</a>
</g>
</g>
</g>
</svg>
