<?xml version="1.0" encoding="UTF-8" standalone="no"?>
<!DOCTYPE svg PUBLIC "-//W3C//DTD SVG 1.1//EN"
 "http://www.w3.org/Graphics/SVG/1.1/DTD/svg11.dtd">
<!-- Generated by graphviz version 10.0.1 (0)
 -->
<!-- Title: src/ConfigWatcher.cpp Pages: 1 -->
<svg width="1035pt" height="199pt"
 viewBox="0.00 0.00 1035.00 199.00" xmlns="http://www.w3.org/2000/svg" xmlns:xlink="http://www.w3.org/1999/xlink">
<g id="graph0" class="graph" transform="scale(1 1) rotate(0) translate(4 195)">
<title>src/ConfigWatcher.cpp</title>
<!-- Node1 -->
<g id="Node000001" class="node">
<title>Node1</title>
<g id="a_Node000001"><a xlink:title=" ">
<polygon fill="#999999" stroke="#666666" points="800.25,-191 677,-191 677,-170.25 800.25,-170.25 800.25,-191"/>
<text text-anchor="middle" x="738.62" y="-177.5" font-family="Helvetica,sans-Serif" font-size="10.00">src/ConfigWatcher.cpp</text>
</a>
</g>
</g>
<!-- Node2 -->
<g id="Node000002" class="node">
<title>Node2</title>
<g id="a_Node000002"><a xlink:href="ConfigWatcher_8hpp.html" target="_top" xlink:title=" ">
<polygon fill="white" stroke="#666666" points="378.25,-134.25 201,-134.25 201,-113.5 378.25,-113.5 378.25,-134.25"/>
<text text-anchor="middle" x="289.62" y="-120.75" font-family="Helvetica,sans-Serif" font-size="10.00">validation&#45;api/ConfigWatcher.hpp</text>
</a>
</g>
</g>
<!-- Node1&#45;&gt;Node2 -->
<g id="edge1_Node000001_Node000002" class="edge">
<title>Node1&#45;&gt;Node2</title>
<g id="a_edge1_Node000001_Node000002"><a xlink:title=" ">
<path fill="none" stroke="#63b8ff" d="M676.66,-172.07C600.26,-162.75 469.73,-146.84 381.62,-136.09"/>
<polygon fill="#63b8ff" stroke="#63b8ff" points="382.14,-132.63 371.78,-134.89 381.29,-139.58 382.14,-132.63"/>
</a>
</g>
</g>
<!-- Node11 -->
<g id="Node000011" class="node">
<title>Node11</title>
<g id="a_Node000011"><a xlink:title=" ">
<polygon fill="#e0e0e0" stroke="#999999" points="661.5,-134.25 587.75,-134.25 587.75,-113.5 661.5,-113.5 661.5,-134.25"/>
<text text-anchor="middle" x="624.62" y="-120.75" font-family="Helvetica,sans-Serif" font-size="10.00">sys/inotify.h</text>
</a>
</g>
</g>
<!-- Node1&#45;&gt;Node11 -->
<g id="edge10_Node000001_Node000011" class="edge">
<title>Node1&#45;&gt;Node11</title>
<g id="a_edge10_Node000001_Node000011"><a xlink:title=" ">
<path fill="none" stroke="#63b8ff" d="M718.24,-169.84C700.66,-161.39 675,-149.07 654.99,-139.46"/>
<polygon fill="#63b8ff" stroke="#63b8ff" points="656.72,-136.41 646.19,-135.23 653.69,-142.72 656.72,-136.41"/>
</a>
</g>
</g>
<!-- Node12 -->
<g id="Node000012" class="node">
<title>Node12</title>
<g id="a_Node000012"><a xlink:title=" ">
<polygon fill="#e0e0e0" stroke="#999999" points="797.62,-134.25 679.62,-134.25 679.62,-113.5 797.62,-113.5 797.62,-134.25"/>
<text text-anchor="middle" x="738.62" y="-120.75" font-family="Helvetica,sans-Serif" font-size="10.00">boost/filesystem.hpp</text>
</a>
</g>
</g>
<!-- Node1&#45;&gt;Node12 -->
<g id="edge11_Node000001_Node000012" class="edge">
<title>Node1&#45;&gt;Node12</title>
<g id="a_edge11_Node000001_Node000012"><a xlink:title=" ">
<path fill="none" stroke="#63b8ff" d="M738.62,-169.84C738.62,-163.22 738.62,-154.22 738.62,-146.02"/>
<polygon fill="#63b8ff" stroke="#63b8ff" points="742.13,-146.09 738.63,-136.09 735.13,-146.09 742.13,-146.09"/>
</a>
</g>
</g>
<!-- Node13 -->
<g id="Node000013" class="node">
<title>Node13</title>
<g id="a_Node000013"><a xlink:title=" ">
<polygon fill="#e0e0e0" stroke="#999999" points="865.12,-134.25 816.12,-134.25 816.12,-113.5 865.12,-113.5 865.12,-134.25"/>
<text text-anchor="middle" x="840.62" y="-120.75" font-family="Helvetica,sans-Serif" font-size="10.00">format</text>
</a>
</g>
</g>
<!-- Node1&#45;&gt;Node13 -->
<g id="edge12_Node000001_Node000013" class="edge">
<title>Node1&#45;&gt;Node13</title>
<g id="a_edge12_Node000001_Node000013"><a xlink:title=" ">
<path fill="none" stroke="#63b8ff" d="M756.86,-169.84C772.31,-161.55 794.71,-149.52 812.46,-139.99"/>
<polygon fill="#63b8ff" stroke="#63b8ff" points="814.06,-143.11 821.21,-135.29 810.75,-136.94 814.06,-143.11"/>
</a>
</g>
</g>
<!-- Node14 -->
<g id="Node000014" class="node">
<title>Node14</title>
<g id="a_Node000014"><a xlink:title=" ">
<polygon fill="#e0e0e0" stroke="#999999" points="937.75,-134.25 883.5,-134.25 883.5,-113.5 937.75,-113.5 937.75,-134.25"/>
<text text-anchor="middle" x="910.62" y="-120.75" font-family="Helvetica,sans-Serif" font-size="10.00">fstream</text>
</a>
</g>
</g>
<!-- Node1&#45;&gt;Node14 -->
<g id="edge13_Node000001_Node000014" class="edge">
<title>Node1&#45;&gt;Node14</title>
<g id="a_edge13_Node000001_Node000014"><a xlink:title=" ">
<path fill="none" stroke="#63b8ff" d="M769.38,-169.84C798.2,-160.66 841.4,-146.91 872.43,-137.03"/>
<polygon fill="#63b8ff" stroke="#63b8ff" points="873.35,-140.41 881.82,-134.04 871.23,-133.74 873.35,-140.41"/>
</a>
</g>
</g>
<!-- Node15 -->
<g id="Node000015" class="node">
<title>Node15</title>
<g id="a_Node000015"><a xlink:title=" ">
<polygon fill="#e0e0e0" stroke="#999999" points="1027,-134.25 956.25,-134.25 956.25,-113.5 1027,-113.5 1027,-134.25"/>
<text text-anchor="middle" x="991.62" y="-120.75" font-family="Helvetica,sans-Serif" font-size="10.00">semaphore</text>
</a>
</g>
</g>
<!-- Node1&#45;&gt;Node15 -->
<g id="edge14_Node000001_Node000015" class="edge">
<title>Node1&#45;&gt;Node15</title>
<g id="a_edge14_Node000001_Node000015"><a xlink:title=" ">
<path fill="none" stroke="#63b8ff" d="M784.15,-169.77C829.53,-159.95 898.89,-144.94 944.74,-135.02"/>
<polygon fill="#63b8ff" stroke="#63b8ff" points="945.35,-138.47 954.38,-132.93 943.87,-131.63 945.35,-138.47"/>
</a>
</g>
</g>
<!-- Node16 -->
<g id="Node000016" class="node">
<title>Node16</title>
<g id="a_Node000016"><a xlink:href="Helpers_8hpp.html" target="_top" xlink:title=" ">
<polygon fill="white" stroke="#666666" points="569.38,-134.25 479.88,-134.25 479.88,-113.5 569.38,-113.5 569.38,-134.25"/>
<text text-anchor="middle" x="524.62" y="-120.75" font-family="Helvetica,sans-Serif" font-size="10.00">lib/Helpers.hpp</text>
</a>
</g>
</g>
<!-- Node1&#45;&gt;Node16 -->
<g id="edge15_Node000001_Node000016" class="edge">
<title>Node1&#45;&gt;Node16</title>
<g id="a_edge15_Node000001_Node000016"><a xlink:title=" ">
<path fill="none" stroke="#63b8ff" d="M700.37,-169.84C665.02,-160.79 612.33,-147.31 573.86,-137.47"/>
<polygon fill="#63b8ff" stroke="#63b8ff" points="574.93,-134.13 564.38,-135.05 573.2,-140.92 574.93,-134.13"/>
</a>
</g>
</g>
<!-- Node3 -->
<g id="Node000003" class="node">
<title>Node3</title>
<g id="a_Node000003"><a xlink:title=" ">
<polygon fill="#e0e0e0" stroke="#999999" points="87.25,-77.5 0,-77.5 0,-56.75 87.25,-56.75 87.25,-77.5"/>
<text text-anchor="middle" x="43.62" y="-64" font-family="Helvetica,sans-Serif" font-size="10.00">boost/asio.hpp</text>
</a>
</g>
</g>
<!-- Node2&#45;&gt;Node3 -->
<g id="edge2_Node000002_Node000003" class="edge">
<title>Node2&#45;&gt;Node3</title>
<g id="a_edge2_Node000002_Node000003"><a xlink:title=" ">
<path fill="none" stroke="#63b8ff" d="M245.36,-113.02C204.26,-103.88 142.92,-90.22 98.67,-80.38"/>
<polygon fill="#63b8ff" stroke="#63b8ff" points="99.53,-76.98 89.01,-78.23 98.01,-83.82 99.53,-76.98"/>
</a>
</g>
</g>
<!-- Node4 -->
<g id="Node000004" class="node">
<title>Node4</title>
<g id="a_Node000004"><a xlink:title=" ">
<polygon fill="#e0e0e0" stroke="#999999" points="197.88,-77.5 105.38,-77.5 105.38,-56.75 197.88,-56.75 197.88,-77.5"/>
<text text-anchor="middle" x="151.62" y="-64" font-family="Helvetica,sans-Serif" font-size="10.00">unordered_map</text>
</a>
</g>
</g>
<!-- Node2&#45;&gt;Node4 -->
<g id="edge3_Node000002_Node000004" class="edge">
<title>Node2&#45;&gt;Node4</title>
<g id="a_edge3_Node000002_Node000004"><a xlink:title=" ">
<path fill="none" stroke="#63b8ff" d="M264.95,-113.09C243.17,-104.44 211.17,-91.75 186.72,-82.05"/>
<polygon fill="#63b8ff" stroke="#63b8ff" points="188.08,-78.82 177.49,-78.39 185.49,-85.33 188.08,-78.82"/>
</a>
</g>
</g>
<!-- Node5 -->
<g id="Node000005" class="node">
<title>Node5</title>
<g id="a_Node000005"><a xlink:href="ConfigService_8hpp.html" target="_top" xlink:title=" ">
<polygon fill="white" stroke="#666666" points="554.75,-77.5 380.5,-77.5 380.5,-56.75 554.75,-56.75 554.75,-77.5"/>
<text text-anchor="middle" x="467.62" y="-64" font-family="Helvetica,sans-Serif" font-size="10.00">validation&#45;api/ConfigService.hpp</text>
</a>
</g>
</g>
<!-- Node2&#45;&gt;Node5 -->
<g id="edge4_Node000002_Node000005" class="edge">
<title>Node2&#45;&gt;Node5</title>
<g id="a_edge4_Node000002_Node000005"><a xlink:title=" ">
<path fill="none" stroke="#63b8ff" d="M321.45,-113.09C350.34,-104.2 393.18,-91.02 425.02,-81.23"/>
<polygon fill="#63b8ff" stroke="#63b8ff" points="425.8,-84.65 434.33,-78.37 423.74,-77.96 425.8,-84.65"/>
</a>
</g>
</g>
<!-- Node10 -->
<g id="Node000010" class="node">
<title>Node10</title>
<g id="a_Node000010"><a xlink:href="IService_8hpp.html" target="_top" xlink:title=" ">
<polygon fill="white" stroke="#666666" points="362.88,-77.5 216.38,-77.5 216.38,-56.75 362.88,-56.75 362.88,-77.5"/>
<text text-anchor="middle" x="289.62" y="-64" font-family="Helvetica,sans-Serif" font-size="10.00">validation&#45;api/IService.hpp</text>
</a>
</g>
</g>
<!-- Node2&#45;&gt;Node10 -->
<g id="edge9_Node000002_Node000010" class="edge">
<title>Node2&#45;&gt;Node10</title>
<g id="a_edge9_Node000002_Node000010"><a xlink:title=" ">
<path fill="none" stroke="#63b8ff" d="M289.62,-113.09C289.62,-106.47 289.62,-97.47 289.62,-89.27"/>
<polygon fill="#63b8ff" stroke="#63b8ff" points="293.13,-89.34 289.63,-79.34 286.13,-89.34 293.13,-89.34"/>
</a>
</g>
</g>
<!-- Node6 -->
<g id="Node000006" class="node">
<title>Node6</title>
<g id="a_Node000006"><a xlink:title=" ">
<polygon fill="#e0e0e0" stroke="#999999" points="373.88,-20.75 281.38,-20.75 281.38,0 373.88,0 373.88,-20.75"/>
<text text-anchor="middle" x="327.62" y="-7.25" font-family="Helvetica,sans-Serif" font-size="10.00">spdlog/spdlog.h</text>
</a>
</g>
</g>
<!-- Node5&#45;&gt;Node6 -->
<g id="edge5_Node000005_Node000006" class="edge">
<title>Node5&#45;&gt;Node6</title>
<g id="a_edge5_Node000005_Node000006"><a xlink:title=" ">
<path fill="none" stroke="#63b8ff" d="M442.6,-56.34C420.4,-47.66 387.74,-34.88 362.89,-25.17"/>
<polygon fill="#63b8ff" stroke="#63b8ff" points="364.44,-22.01 353.85,-21.63 361.89,-28.53 364.44,-22.01"/>
</a>
</g>
</g>
<!-- Node7 -->
<g id="Node000007" class="node">
<title>Node7</title>
<g id="a_Node000007"><a xlink:title=" ">
<polygon fill="#e0e0e0" stroke="#999999" points="490.88,-20.75 392.38,-20.75 392.38,0 490.88,0 490.88,-20.75"/>
<text text-anchor="middle" x="441.62" y="-7.25" font-family="Helvetica,sans-Serif" font-size="10.00">boost/thread.hpp</text>
</a>
</g>
</g>
<!-- Node5&#45;&gt;Node7 -->
<g id="edge6_Node000005_Node000007" class="edge">
<title>Node5&#45;&gt;Node7</title>
<g id="a_edge6_Node000005_Node000007"><a xlink:title=" ">
<path fill="none" stroke="#63b8ff" d="M462.98,-56.34C459.69,-49.41 455.16,-39.87 451.12,-31.36"/>
<polygon fill="#63b8ff" stroke="#63b8ff" points="454.33,-29.98 446.88,-22.45 448.01,-32.98 454.33,-29.98"/>
</a>
</g>
</g>
<!-- Node8 -->
<g id="Node000008" class="node">
<title>Node8</title>
<g id="a_Node000008"><a xlink:title=" ">
<polygon fill="#e0e0e0" stroke="#999999" points="618.12,-20.75 509.12,-20.75 509.12,0 618.12,0 618.12,-20.75"/>
<text text-anchor="middle" x="563.62" y="-7.25" font-family="Helvetica,sans-Serif" font-size="10.00">nlohmann/json.hpp</text>
</a>
</g>
</g>
<!-- Node5&#45;&gt;Node8 -->
<g id="edge7_Node000005_Node000008" class="edge">
<title>Node5&#45;&gt;Node8</title>
<g id="a_edge7_Node000005_Node000008"><a xlink:title=" ">
<path fill="none" stroke="#63b8ff" d="M484.79,-56.34C499.26,-48.08 520.21,-36.13 536.88,-26.63"/>
<polygon fill="#63b8ff" stroke="#63b8ff" points="538.34,-29.82 545.3,-21.83 534.88,-23.74 538.34,-29.82"/>
</a>
</g>
</g>
<!-- Node9 -->
<g id="Node000009" class="node">
<title>Node9</title>
<g id="a_Node000009"><a xlink:title=" ">
<polygon fill="#e0e0e0" stroke="#999999" points="713,-20.75 636.25,-20.75 636.25,0 713,0 713,-20.75"/>
<text text-anchor="middle" x="674.62" y="-7.25" font-family="Helvetica,sans-Serif" font-size="10.00">pugixml.hpp</text>
</a>
</g>
</g>
<!-- Node5&#45;&gt;Node9 -->
<g id="edge8_Node000005_Node000009" class="edge">
<title>Node5&#45;&gt;Node9</title>
<g id="a_edge8_Node000005_Node000009"><a xlink:title=" ">
<path fill="none" stroke="#63b8ff" d="M504.63,-56.34C538.67,-47.33 589.35,-33.93 626.52,-24.1"/>
<polygon fill="#63b8ff" stroke="#63b8ff" points="627.35,-27.5 636.13,-21.56 625.56,-20.73 627.35,-27.5"/>
</a>
</g>
</g>
<!-- Node16&#45;&gt;Node5 -->
<g id="edge18_Node000016_Node000005" class="edge">
<title>Node16&#45;&gt;Node5</title>
<g id="a_edge18_Node000016_Node000005"><a xlink:title=" ">
<path fill="none" stroke="#63b8ff" d="M514.43,-113.09C506.49,-105.46 495.26,-94.67 485.79,-85.57"/>
<polygon fill="#63b8ff" stroke="#63b8ff" points="488.46,-83.28 478.82,-78.88 483.61,-88.33 488.46,-83.28"/>
</a>
</g>
</g>
<!-- Node16&#45;&gt;Node8 -->
<g id="edge16_Node000016_Node000008" class="edge">
<title>Node16&#45;&gt;Node8</title>
<g id="a_edge16_Node000016_Node000008"><a xlink:title=" ">
<path fill="none" stroke="#63b8ff" d="M536.74,-113.16C546.08,-104.83 558.28,-91.91 563.62,-77.5 568.95,-63.14 568.72,-45.8 567.29,-32.47"/>
<polygon fill="#63b8ff" stroke="#63b8ff" points="570.77,-32.07 565.9,-22.66 563.84,-33.05 570.77,-32.07"/>
</a>
</g>
</g>
<!-- Node16&#45;&gt;Node9 -->
<g id="edge17_Node000016_Node000009" class="edge">
<title>Node16&#45;&gt;Node9</title>
<g id="a_edge17_Node000016_Node000009"><a xlink:title=" ">
<path fill="none" stroke="#63b8ff" d="M537.67,-113.18C563.38,-94.06 620.84,-51.36 652.55,-27.79"/>
<polygon fill="#63b8ff" stroke="#63b8ff" points="654.35,-30.81 660.28,-22.03 650.17,-25.19 654.35,-30.81"/>
</a>
</g>
</g>
</g>
</svg>
