<?xml version="1.0" encoding="UTF-8" standalone="no"?>
<!DOCTYPE svg PUBLIC "-//W3C//DTD SVG 1.1//EN"
 "http://www.w3.org/Graphics/SVG/1.1/DTD/svg11.dtd">
<!-- Generated by graphviz version 12.2.1 (0)
 -->
<!-- Title: include/validation&#45;api/ConfigWatcher.hpp Pages: 1 -->
<svg width="214pt" height="96pt"
 viewBox="0.00 0.00 214.00 96.00" xmlns="http://www.w3.org/2000/svg" xmlns:xlink="http://www.w3.org/1999/xlink">
<g id="graph0" class="graph" transform="scale(1 1) rotate(0) translate(4 92)">
<title>include/validation&#45;api/ConfigWatcher.hpp</title>
<!-- Node1 -->
<g id="Node000001" class="node">
<title>Node1</title>
<g id="a_Node000001"><a xlink:title=" ">
<polygon fill="#999999" stroke="#666666" points="172.88,-88 54.88,-88 54.88,-56 172.88,-56 172.88,-88"/>
<text text-anchor="start" x="62.88" y="-74.5" font-family="Helvetica,sans-Serif" font-size="10.00">include/validation</text>
<text text-anchor="middle" x="113.88" y="-62.5" font-family="Helvetica,sans-Serif" font-size="10.00">&#45;api/ConfigWatcher.hpp</text>
</a>
</g>
</g>
<!-- Node2 -->
<g id="Node000002" class="node">
<title>Node2</title>
<g id="a_Node000002"><a xlink:href="ConfigWatcher_8cpp.html" target="_top" xlink:title=" ">
<polygon fill="white" stroke="#666666" points="115.75,-20 0,-20 0,0 115.75,0 115.75,-20"/>
<text text-anchor="middle" x="57.88" y="-6.5" font-family="Helvetica,sans-Serif" font-size="10.00">src/ConfigWatcher.cpp</text>
</a>
</g>
</g>
<!-- Node1&#45;&gt;Node2 -->
<g id="edge1_Node000001_Node000002" class="edge">
<title>Node1&#45;&gt;Node2</title>
<g id="a_edge1_Node000001_Node000002"><a xlink:title=" ">
<path fill="none" stroke="#63b8ff" d="M91.73,-47.27C82.95,-37.87 73.38,-27.61 66.66,-20.41"/>
<polygon fill="#63b8ff" stroke="#63b8ff" points="89.04,-49.52 98.42,-54.44 94.16,-44.74 89.04,-49.52"/>
</a>
</g>
</g>
<!-- Node3 -->
<g id="Node000003" class="node">
<title>Node3</title>
<g id="a_Node000003"><a xlink:href="main_8cpp.html" target="_top" xlink:title=" ">
<polygon fill="white" stroke="#666666" points="206,-20 133.75,-20 133.75,0 206,0 206,-20"/>
<text text-anchor="middle" x="169.88" y="-6.5" font-family="Helvetica,sans-Serif" font-size="10.00">src/main.cpp</text>
</a>
</g>
</g>
<!-- Node1&#45;&gt;Node3 -->
<g id="edge2_Node000001_Node000003" class="edge">
<title>Node1&#45;&gt;Node3</title>
<g id="a_edge2_Node000001_Node000003"><a xlink:title=" ">
<path fill="none" stroke="#63b8ff" d="M136.02,-47.27C144.8,-37.87 154.37,-27.61 161.09,-20.41"/>
<polygon fill="#63b8ff" stroke="#63b8ff" points="133.59,-44.74 129.33,-54.44 138.71,-49.52 133.59,-44.74"/>
</a>
</g>
</g>
</g>
</svg>
