<?xml version="1.0" encoding="UTF-8" standalone="no"?>
<!DOCTYPE svg PUBLIC "-//W3C//DTD SVG 1.1//EN"
 "http://www.w3.org/Graphics/SVG/1.1/DTD/svg11.dtd">
<!-- Generated by graphviz version 12.2.1 (0)
 -->
<!-- Title: src/ConfigService.cpp Pages: 1 -->
<svg width="901pt" height="264pt"
 viewBox="0.00 0.00 901.00 264.00" xmlns="http://www.w3.org/2000/svg" xmlns:xlink="http://www.w3.org/1999/xlink">
<g id="graph0" class="graph" transform="scale(1 1) rotate(0) translate(4 260)">
<title>src/ConfigService.cpp</title>
<!-- Node1 -->
<g id="Node000001" class="node">
<title>Node1</title>
<g id="a_Node000001"><a xlink:title=" ">
<polygon fill="#999999" stroke="#666666" points="510.25,-256 397.5,-256 397.5,-236 510.25,-236 510.25,-256"/>
<text text-anchor="middle" x="453.88" y="-242.5" font-family="Helvetica,sans-Serif" font-size="10.00">src/ConfigService.cpp</text>
</a>
</g>
</g>
<!-- Node2 -->
<g id="Node000002" class="node">
<title>Node2</title>
<g id="a_Node000002"><a xlink:href="ErrorBuilder_8hpp.html" target="_top" xlink:title=" ">
<polygon fill="white" stroke="#666666" points="144.12,-144 45.62,-144 45.62,-124 144.12,-124 144.12,-144"/>
<text text-anchor="middle" x="94.88" y="-130.5" font-family="Helvetica,sans-Serif" font-size="10.00">lib/ErrorBuilder.hpp</text>
</a>
</g>
</g>
<!-- Node1&#45;&gt;Node2 -->
<g id="edge1_Node000001_Node000002" class="edge">
<title>Node1&#45;&gt;Node2</title>
<g id="a_edge1_Node000001_Node000002"><a xlink:title=" ">
<path fill="none" stroke="#63b8ff" d="M422.96,-235.53C358.41,-215.75 209.29,-170.06 136.44,-147.74"/>
<polygon fill="#63b8ff" stroke="#63b8ff" points="137.88,-144.52 127.29,-144.93 135.83,-151.21 137.88,-144.52"/>
</a>
</g>
</g>
<!-- Node3 -->
<g id="Node000003" class="node">
<title>Node3</title>
<g id="a_Node000003"><a xlink:title=" ">
<polygon fill="#e0e0e0" stroke="#999999" points="43.75,-82 0,-82 0,-62 43.75,-62 43.75,-82"/>
<text text-anchor="middle" x="21.88" y="-68.5" font-family="Helvetica,sans-Serif" font-size="10.00">format</text>
</a>
</g>
</g>
<!-- Node1&#45;&gt;Node3 -->
<g id="edge5_Node000001_Node000003" class="edge">
<title>Node1&#45;&gt;Node3</title>
<g id="a_edge5_Node000001_Node000003"><a xlink:title=" ">
<path fill="none" stroke="#63b8ff" d="M397.09,-238.9C294.81,-226.72 85.68,-196.01 36.88,-144 24.22,-130.52 21.15,-109.16 20.83,-93.38"/>
<polygon fill="#63b8ff" stroke="#63b8ff" points="24.32,-93.76 21,-83.7 17.32,-93.64 24.32,-93.76"/>
</a>
</g>
</g>
<!-- Node6 -->
<g id="Node000006" class="node">
<title>Node6</title>
<g id="a_Node000006"><a xlink:title=" ">
<polygon fill="#e0e0e0" stroke="#999999" points="893,-20 808.75,-20 808.75,0 893,0 893,-20"/>
<text text-anchor="middle" x="850.88" y="-6.5" font-family="Helvetica,sans-Serif" font-size="10.00">spdlog/spdlog.h</text>
</a>
</g>
</g>
<!-- Node1&#45;&gt;Node6 -->
<g id="edge6_Node000001_Node000006" class="edge">
<title>Node1&#45;&gt;Node6</title>
<g id="a_edge6_Node000001_Node000006"><a xlink:title=" ">
<path fill="none" stroke="#63b8ff" d="M510.74,-241.24C562.6,-236.31 640.54,-225.12 703.88,-200 774.45,-172 800.38,-156.62 832.88,-88 841.41,-69.99 846.05,-47.64 848.47,-31.67"/>
<polygon fill="#63b8ff" stroke="#63b8ff" points="851.92,-32.3 849.77,-21.93 844.98,-31.38 851.92,-32.3"/>
</a>
</g>
</g>
<!-- Node7 -->
<g id="Node000007" class="node">
<title>Node7</title>
<g id="a_Node000007"><a xlink:href="Helpers_8hpp.html" target="_top" xlink:title=" ">
<polygon fill="white" stroke="#666666" points="458.5,-144 377.25,-144 377.25,-124 458.5,-124 458.5,-144"/>
<text text-anchor="middle" x="417.88" y="-130.5" font-family="Helvetica,sans-Serif" font-size="10.00">lib/Helpers.hpp</text>
</a>
</g>
</g>
<!-- Node1&#45;&gt;Node7 -->
<g id="edge7_Node000001_Node000007" class="edge">
<title>Node1&#45;&gt;Node7</title>
<g id="a_edge7_Node000001_Node000007"><a xlink:title=" ">
<path fill="none" stroke="#63b8ff" d="M450.15,-235.77C446.56,-226.72 441.06,-212.51 436.88,-200 431.9,-185.13 426.95,-168.11 423.35,-155.22"/>
<polygon fill="#63b8ff" stroke="#63b8ff" points="426.79,-154.5 420.76,-145.79 420.04,-156.36 426.79,-154.5"/>
</a>
</g>
</g>
<!-- Node12 -->
<g id="Node000012" class="node">
<title>Node12</title>
<g id="a_Node000012"><a xlink:href="ConfigService_8hpp.html" target="_top" xlink:title=" ">
<polygon fill="white" stroke="#666666" points="824,-82 667.75,-82 667.75,-62 824,-62 824,-82"/>
<text text-anchor="middle" x="745.88" y="-68.5" font-family="Helvetica,sans-Serif" font-size="10.00">validation&#45;api/ConfigService.hpp</text>
</a>
</g>
</g>
<!-- Node1&#45;&gt;Node12 -->
<g id="edge27_Node000001_Node000012" class="edge">
<title>Node1&#45;&gt;Node12</title>
<g id="a_edge27_Node000001_Node000012"><a xlink:title=" ">
<path fill="none" stroke="#63b8ff" d="M509.41,-235.53C592.38,-220.13 742.36,-186.99 773.88,-144 785.68,-127.89 773.88,-106.14 762.18,-90.98"/>
<polygon fill="#63b8ff" stroke="#63b8ff" points="765.17,-89.1 756.08,-83.66 759.79,-93.58 765.17,-89.1"/>
</a>
</g>
</g>
<!-- Node14 -->
<g id="Node000014" class="node">
<title>Node14</title>
<g id="a_Node000014"><a xlink:href="Validation_8hpp.html" target="_top" xlink:title=" ">
<polygon fill="white" stroke="#666666" points="535.62,-200 446.12,-200 446.12,-180 535.62,-180 535.62,-200"/>
<text text-anchor="middle" x="490.88" y="-186.5" font-family="Helvetica,sans-Serif" font-size="10.00">lib/Validation.hpp</text>
</a>
</g>
</g>
<!-- Node1&#45;&gt;Node14 -->
<g id="edge18_Node000001_Node000014" class="edge">
<title>Node1&#45;&gt;Node14</title>
<g id="a_edge18_Node000001_Node000014"><a xlink:title=" ">
<path fill="none" stroke="#63b8ff" d="M460.32,-235.59C465.2,-228.47 472.07,-218.45 478.05,-209.72"/>
<polygon fill="#63b8ff" stroke="#63b8ff" points="480.88,-211.77 483.65,-201.55 475.11,-207.82 480.88,-211.77"/>
</a>
</g>
</g>
<!-- Node2&#45;&gt;Node3 -->
<g id="edge2_Node000002_Node000003" class="edge">
<title>Node2&#45;&gt;Node3</title>
<g id="a_edge2_Node000002_Node000003"><a xlink:title=" ">
<path fill="none" stroke="#63b8ff" d="M83.47,-123.62C72.26,-114.41 54.93,-100.17 41.51,-89.14"/>
<polygon fill="#63b8ff" stroke="#63b8ff" points="44.08,-86.72 34.13,-83.07 39.63,-92.13 44.08,-86.72"/>
</a>
</g>
</g>
<!-- Node4 -->
<g id="Node000004" class="node">
<title>Node4</title>
<g id="a_Node000004"><a xlink:title=" ">
<polygon fill="#e0e0e0" stroke="#999999" points="386.75,-20 289,-20 289,0 386.75,0 386.75,-20"/>
<text text-anchor="middle" x="337.88" y="-6.5" font-family="Helvetica,sans-Serif" font-size="10.00">nlohmann/json.hpp</text>
</a>
</g>
</g>
<!-- Node2&#45;&gt;Node4 -->
<g id="edge3_Node000002_Node000004" class="edge">
<title>Node2&#45;&gt;Node4</title>
<g id="a_edge3_Node000002_Node000004"><a xlink:title=" ">
<path fill="none" stroke="#63b8ff" d="M99.65,-123.52C108.44,-107.1 128.77,-73.44 155.88,-56 192.34,-32.54 240.14,-21.31 277.6,-15.94"/>
<polygon fill="#63b8ff" stroke="#63b8ff" points="277.92,-19.43 287.37,-14.65 277,-12.49 277.92,-19.43"/>
</a>
</g>
</g>
<!-- Node5 -->
<g id="Node000005" class="node">
<title>Node5</title>
<g id="a_Node000005"><a xlink:title=" ">
<polygon fill="#e0e0e0" stroke="#999999" points="103.88,-82 63.88,-82 63.88,-62 103.88,-62 103.88,-82"/>
<text text-anchor="middle" x="83.88" y="-68.5" font-family="Helvetica,sans-Serif" font-size="10.00">string</text>
</a>
</g>
</g>
<!-- Node2&#45;&gt;Node5 -->
<g id="edge4_Node000002_Node000005" class="edge">
<title>Node2&#45;&gt;Node5</title>
<g id="a_edge4_Node000002_Node000005"><a xlink:title=" ">
<path fill="none" stroke="#63b8ff" d="M93.16,-123.62C91.68,-115.56 89.49,-103.65 87.62,-93.41"/>
<polygon fill="#63b8ff" stroke="#63b8ff" points="91.06,-92.81 85.82,-83.6 84.18,-94.07 91.06,-92.81"/>
</a>
</g>
</g>
<!-- Node7&#45;&gt;Node4 -->
<g id="edge10_Node000007_Node000004" class="edge">
<title>Node7&#45;&gt;Node4</title>
<g id="a_edge10_Node000007_Node000004"><a xlink:title=" ">
<path fill="none" stroke="#63b8ff" d="M443.73,-123.56C459.27,-116.39 477.75,-104.85 486.88,-88 493.65,-75.49 495.35,-67.42 486.88,-56 466.48,-28.54 429.83,-17.23 397.98,-12.82"/>
<polygon fill="#63b8ff" stroke="#63b8ff" points="398.79,-9.39 388.46,-11.71 397.98,-16.34 398.79,-9.39"/>
</a>
</g>
</g>
<!-- Node8 -->
<g id="Node000008" class="node">
<title>Node8</title>
<g id="a_Node000008"><a xlink:title=" ">
<polygon fill="#e0e0e0" stroke="#999999" points="307.75,-88 198,-88 198,-56 307.75,-56 307.75,-88"/>
<text text-anchor="start" x="206" y="-74.5" font-family="Helvetica,sans-Serif" font-size="10.00">boost/algorithm/string</text>
<text text-anchor="middle" x="252.88" y="-62.5" font-family="Helvetica,sans-Serif" font-size="10.00">/trim.hpp</text>
</a>
</g>
</g>
<!-- Node7&#45;&gt;Node8 -->
<g id="edge8_Node000007_Node000008" class="edge">
<title>Node7&#45;&gt;Node8</title>
<g id="a_edge8_Node000007_Node000008"><a xlink:title=" ">
<path fill="none" stroke="#63b8ff" d="M392.09,-123.62C369.19,-115.3 334.98,-102.86 306.2,-92.39"/>
<polygon fill="#63b8ff" stroke="#63b8ff" points="307.49,-89.14 296.9,-89.01 305.1,-95.71 307.49,-89.14"/>
</a>
</g>
</g>
<!-- Node9 -->
<g id="Node000009" class="node">
<title>Node9</title>
<g id="a_Node000009"><a xlink:title=" ">
<polygon fill="#e0e0e0" stroke="#999999" points="477.75,-82 326,-82 326,-62 477.75,-62 477.75,-82"/>
<text text-anchor="middle" x="401.88" y="-68.5" font-family="Helvetica,sans-Serif" font-size="10.00">boost/uuid/uuid_generators.hpp</text>
</a>
</g>
</g>
<!-- Node7&#45;&gt;Node9 -->
<g id="edge9_Node000007_Node000009" class="edge">
<title>Node7&#45;&gt;Node9</title>
<g id="a_edge9_Node000007_Node000009"><a xlink:title=" ">
<path fill="none" stroke="#63b8ff" d="M415.38,-123.62C413.2,-115.48 409.98,-103.39 407.23,-93.07"/>
<polygon fill="#63b8ff" stroke="#63b8ff" points="410.65,-92.34 404.7,-83.58 403.89,-94.14 410.65,-92.34"/>
</a>
</g>
</g>
<!-- Node10 -->
<g id="Node000010" class="node">
<title>Node10</title>
<g id="a_Node000010"><a xlink:title=" ">
<polygon fill="#e0e0e0" stroke="#999999" points="674.12,-20 605.62,-20 605.62,0 674.12,0 674.12,-20"/>
<text text-anchor="middle" x="639.88" y="-6.5" font-family="Helvetica,sans-Serif" font-size="10.00">pugixml.hpp</text>
</a>
</g>
</g>
<!-- Node7&#45;&gt;Node10 -->
<g id="edge11_Node000007_Node000010" class="edge">
<title>Node7&#45;&gt;Node10</title>
<g id="a_edge11_Node000007_Node000010"><a xlink:title=" ">
<path fill="none" stroke="#63b8ff" d="M458.7,-125.07C500.71,-116.35 562.78,-101.75 582.88,-88 604.26,-73.37 620.73,-48.04 630.34,-30.44"/>
<polygon fill="#63b8ff" stroke="#63b8ff" points="633.34,-32.25 634.84,-21.76 627.13,-29.02 633.34,-32.25"/>
</a>
</g>
</g>
<!-- Node11 -->
<g id="Node000011" class="node">
<title>Node11</title>
<g id="a_Node000011"><a xlink:title=" ">
<polygon fill="#e0e0e0" stroke="#999999" points="573.88,-82 533.88,-82 533.88,-62 573.88,-62 573.88,-82"/>
<text text-anchor="middle" x="553.88" y="-68.5" font-family="Helvetica,sans-Serif" font-size="10.00">regex</text>
</a>
</g>
</g>
<!-- Node7&#45;&gt;Node11 -->
<g id="edge12_Node000007_Node000011" class="edge">
<title>Node7&#45;&gt;Node11</title>
<g id="a_edge12_Node000007_Node000011"><a xlink:title=" ">
<path fill="none" stroke="#63b8ff" d="M439.12,-123.62C461.74,-113.65 497.73,-97.77 523.38,-86.46"/>
<polygon fill="#63b8ff" stroke="#63b8ff" points="524.54,-89.77 532.28,-82.53 521.71,-83.36 524.54,-89.77"/>
</a>
</g>
</g>
<!-- Node7&#45;&gt;Node12 -->
<g id="edge13_Node000007_Node000012" class="edge">
<title>Node7&#45;&gt;Node12</title>
<g id="a_edge13_Node000007_Node000012"><a xlink:title=" ">
<path fill="none" stroke="#63b8ff" d="M458.75,-125.52C515.08,-115.22 617.09,-96.56 683.12,-84.48"/>
<polygon fill="#63b8ff" stroke="#63b8ff" points="683.51,-87.97 692.71,-82.72 682.25,-81.08 683.51,-87.97"/>
</a>
</g>
</g>
<!-- Node12&#45;&gt;Node4 -->
<g id="edge16_Node000012_Node000004" class="edge">
<title>Node12&#45;&gt;Node4</title>
<g id="a_edge16_Node000012_Node000004"><a xlink:title=" ">
<path fill="none" stroke="#63b8ff" d="M681.68,-61.56C603.98,-50.13 474.15,-31.04 398.22,-19.87"/>
<polygon fill="#63b8ff" stroke="#63b8ff" points="398.87,-16.43 388.47,-18.44 397.85,-23.36 398.87,-16.43"/>
</a>
</g>
</g>
<!-- Node12&#45;&gt;Node6 -->
<g id="edge14_Node000012_Node000006" class="edge">
<title>Node12&#45;&gt;Node6</title>
<g id="a_edge14_Node000012_Node000006"><a xlink:title=" ">
<path fill="none" stroke="#63b8ff" d="M762.28,-61.62C779,-52.07 805.19,-37.11 824.76,-25.92"/>
<polygon fill="#63b8ff" stroke="#63b8ff" points="826.32,-29.06 833.27,-21.06 822.85,-22.98 826.32,-29.06"/>
</a>
</g>
</g>
<!-- Node12&#45;&gt;Node10 -->
<g id="edge17_Node000012_Node000010" class="edge">
<title>Node12&#45;&gt;Node10</title>
<g id="a_edge17_Node000012_Node000010"><a xlink:title=" ">
<path fill="none" stroke="#63b8ff" d="M729.31,-61.62C712.43,-52.07 685.99,-37.11 666.23,-25.92"/>
<polygon fill="#63b8ff" stroke="#63b8ff" points="668.07,-22.93 657.64,-21.05 664.62,-29.03 668.07,-22.93"/>
</a>
</g>
</g>
<!-- Node13 -->
<g id="Node000013" class="node">
<title>Node13</title>
<g id="a_Node000013"><a xlink:title=" ">
<polygon fill="#e0e0e0" stroke="#999999" points="790.25,-20 701.5,-20 701.5,0 790.25,0 790.25,-20"/>
<text text-anchor="middle" x="745.88" y="-6.5" font-family="Helvetica,sans-Serif" font-size="10.00">boost/thread.hpp</text>
</a>
</g>
</g>
<!-- Node12&#45;&gt;Node13 -->
<g id="edge15_Node000012_Node000013" class="edge">
<title>Node12&#45;&gt;Node13</title>
<g id="a_edge15_Node000012_Node000013"><a xlink:title=" ">
<path fill="none" stroke="#63b8ff" d="M745.88,-61.62C745.88,-53.56 745.88,-41.65 745.88,-31.41"/>
<polygon fill="#63b8ff" stroke="#63b8ff" points="749.38,-31.63 745.88,-21.63 742.38,-31.63 749.38,-31.63"/>
</a>
</g>
</g>
<!-- Node14&#45;&gt;Node2 -->
<g id="edge25_Node000014_Node000002" class="edge">
<title>Node14&#45;&gt;Node2</title>
<g id="a_edge25_Node000014_Node000002"><a xlink:title=" ">
<path fill="none" stroke="#63b8ff" d="M445.89,-183.03C381.88,-174.51 260.87,-158.32 157.88,-144 157.05,-143.89 156.23,-143.77 155.4,-143.65"/>
<polygon fill="#63b8ff" stroke="#63b8ff" points="156.28,-140.24 145.89,-142.32 155.31,-147.18 156.28,-140.24"/>
</a>
</g>
</g>
<!-- Node14&#45;&gt;Node4 -->
<g id="edge21_Node000014_Node000004" class="edge">
<title>Node14&#45;&gt;Node4</title>
<g id="a_edge21_Node000014_Node000004"><a xlink:title=" ">
<path fill="none" stroke="#63b8ff" d="M445.63,-189.07C376.91,-186.44 247.99,-170.1 188.88,-88 161.93,-50.57 225.35,-29.99 277.64,-19.72"/>
<polygon fill="#63b8ff" stroke="#63b8ff" points="278.25,-23.17 287.45,-17.91 276.98,-16.29 278.25,-23.17"/>
</a>
</g>
</g>
<!-- Node14&#45;&gt;Node7 -->
<g id="edge20_Node000014_Node000007" class="edge">
<title>Node14&#45;&gt;Node7</title>
<g id="a_edge20_Node000014_Node000007"><a xlink:title=" ">
<path fill="none" stroke="#63b8ff" d="M478.16,-179.59C467.48,-171.7 452,-160.24 439.39,-150.92"/>
<polygon fill="#63b8ff" stroke="#63b8ff" points="441.78,-148.33 431.66,-145.2 437.62,-153.96 441.78,-148.33"/>
</a>
</g>
</g>
<!-- Node14&#45;&gt;Node10 -->
<g id="edge22_Node000014_Node000010" class="edge">
<title>Node14&#45;&gt;Node10</title>
<g id="a_edge22_Node000014_Node000010"><a xlink:title=" ">
<path fill="none" stroke="#63b8ff" d="M490.37,-179.77C490.12,-165.89 491.74,-139.63 505.88,-124 539.24,-87.09 576.32,-122.8 611.88,-88 627.18,-73.02 634.17,-49.03 637.33,-31.81"/>
<polygon fill="#63b8ff" stroke="#63b8ff" points="640.78,-32.36 638.82,-21.95 633.86,-31.31 640.78,-32.36"/>
</a>
</g>
</g>
<!-- Node14&#45;&gt;Node12 -->
<g id="edge26_Node000014_Node000012" class="edge">
<title>Node14&#45;&gt;Node12</title>
<g id="a_edge26_Node000014_Node000012"><a xlink:title=" ">
<path fill="none" stroke="#63b8ff" d="M536.12,-188.11C604.49,-185.71 729.14,-176.82 756.88,-144 768.92,-129.74 763.12,-107.89 756.23,-92.19"/>
<polygon fill="#63b8ff" stroke="#63b8ff" points="759.47,-90.84 751.92,-83.41 753.18,-93.93 759.47,-90.84"/>
</a>
</g>
</g>
<!-- Node15 -->
<g id="Node000015" class="node">
<title>Node15</title>
<g id="a_Node000015"><a xlink:title=" ">
<polygon fill="#e0e0e0" stroke="#999999" points="747.75,-144 668,-144 668,-124 747.75,-124 747.75,-144"/>
<text text-anchor="middle" x="707.88" y="-130.5" font-family="Helvetica,sans-Serif" font-size="10.00">boost/uuid.hpp</text>
</a>
</g>
</g>
<!-- Node14&#45;&gt;Node15 -->
<g id="edge19_Node000014_Node000015" class="edge">
<title>Node14&#45;&gt;Node15</title>
<g id="a_edge19_Node000014_Node000015"><a xlink:title=" ">
<path fill="none" stroke="#63b8ff" d="M528.67,-179.59C564.78,-170.61 619.39,-157.02 658.83,-147.2"/>
<polygon fill="#63b8ff" stroke="#63b8ff" points="659.45,-150.66 668.31,-144.84 657.76,-143.86 659.45,-150.66"/>
</a>
</g>
</g>
<!-- Node16 -->
<g id="Node000016" class="node">
<title>Node16</title>
<g id="a_Node000016"><a xlink:title=" ">
<polygon fill="#e0e0e0" stroke="#999999" points="592.62,-144 515.12,-144 515.12,-124 592.62,-124 592.62,-144"/>
<text text-anchor="middle" x="553.88" y="-130.5" font-family="Helvetica,sans-Serif" font-size="10.00">unordered_set</text>
</a>
</g>
</g>
<!-- Node14&#45;&gt;Node16 -->
<g id="edge23_Node000014_Node000016" class="edge">
<title>Node14&#45;&gt;Node16</title>
<g id="a_edge23_Node000014_Node000016"><a xlink:title=" ">
<path fill="none" stroke="#63b8ff" d="M501.85,-179.59C510.79,-171.93 523.65,-160.91 534.34,-151.75"/>
<polygon fill="#63b8ff" stroke="#63b8ff" points="536.56,-154.45 541.88,-145.28 532.01,-149.13 536.56,-154.45"/>
</a>
</g>
</g>
<!-- Node17 -->
<g id="Node000017" class="node">
<title>Node17</title>
<g id="a_Node000017"><a xlink:title=" ">
<polygon fill="#e0e0e0" stroke="#999999" points="649.5,-144 610.25,-144 610.25,-124 649.5,-124 649.5,-144"/>
<text text-anchor="middle" x="629.88" y="-130.5" font-family="Helvetica,sans-Serif" font-size="10.00">utility</text>
</a>
</g>
</g>
<!-- Node14&#45;&gt;Node17 -->
<g id="edge24_Node000014_Node000017" class="edge">
<title>Node14&#45;&gt;Node17</title>
<g id="a_edge24_Node000014_Node000017"><a xlink:title=" ">
<path fill="none" stroke="#63b8ff" d="M515.09,-179.59C538.53,-170.49 574.15,-156.65 599.49,-146.81"/>
<polygon fill="#63b8ff" stroke="#63b8ff" points="600.52,-150.16 608.58,-143.27 597.99,-143.63 600.52,-150.16"/>
</a>
</g>
</g>
</g>
</svg>
