<?xml version="1.0" encoding="UTF-8" standalone="no"?>
<!DOCTYPE svg PUBLIC "-//W3C//DTD SVG 1.1//EN"
 "http://www.w3.org/Graphics/SVG/1.1/DTD/svg11.dtd">
<!-- Generated by graphviz version 10.0.1 (0)
 -->
<!-- Title: src/ConfigService.cpp Pages: 1 -->
<svg width="866pt" height="256pt"
 viewBox="0.00 0.00 865.62 255.75" xmlns="http://www.w3.org/2000/svg" xmlns:xlink="http://www.w3.org/1999/xlink">
<g id="graph0" class="graph" transform="scale(1 1) rotate(0) translate(4 251.75)">
<title>src/ConfigService.cpp</title>
<!-- Node1 -->
<g id="Node000001" class="node">
<title>Node1</title>
<g id="a_Node000001"><a xlink:title=" ">
<polygon fill="#999999" stroke="#666666" points="175.62,-247.75 55.38,-247.75 55.38,-227 175.62,-227 175.62,-247.75"/>
<text text-anchor="middle" x="115.5" y="-234.25" font-family="Helvetica,sans-Serif" font-size="10.00">src/ConfigService.cpp</text>
</a>
</g>
</g>
<!-- Node2 -->
<g id="Node000002" class="node">
<title>Node2</title>
<g id="a_Node000002"><a xlink:title=" ">
<polygon fill="#e0e0e0" stroke="#999999" points="49,-191 0,-191 0,-170.25 49,-170.25 49,-191"/>
<text text-anchor="middle" x="24.5" y="-177.5" font-family="Helvetica,sans-Serif" font-size="10.00">format</text>
</a>
</g>
</g>
<!-- Node1&#45;&gt;Node2 -->
<g id="edge1_Node000001_Node000002" class="edge">
<title>Node1&#45;&gt;Node2</title>
<g id="a_edge1_Node000001_Node000002"><a xlink:title=" ">
<path fill="none" stroke="#63b8ff" d="M99.23,-226.59C85.64,-218.41 66.03,-206.61 50.3,-197.15"/>
<polygon fill="#63b8ff" stroke="#63b8ff" points="52.3,-194.27 41.93,-192.11 48.69,-200.26 52.3,-194.27"/>
</a>
</g>
</g>
<!-- Node3 -->
<g id="Node000003" class="node">
<title>Node3</title>
<g id="a_Node000003"><a xlink:title=" ">
<polygon fill="#e0e0e0" stroke="#999999" points="136.75,-20.75 44.25,-20.75 44.25,0 136.75,0 136.75,-20.75"/>
<text text-anchor="middle" x="90.5" y="-7.25" font-family="Helvetica,sans-Serif" font-size="10.00">spdlog/spdlog.h</text>
</a>
</g>
</g>
<!-- Node1&#45;&gt;Node3 -->
<g id="edge2_Node000001_Node000003" class="edge">
<title>Node1&#45;&gt;Node3</title>
<g id="a_edge2_Node000001_Node000003"><a xlink:title=" ">
<path fill="none" stroke="#63b8ff" d="M114.43,-226.71C110.67,-192.88 98.05,-79.36 92.81,-32.19"/>
<polygon fill="#63b8ff" stroke="#63b8ff" points="96.32,-32.06 91.74,-22.51 89.36,-32.84 96.32,-32.06"/>
</a>
</g>
</g>
<!-- Node4 -->
<g id="Node000004" class="node">
<title>Node4</title>
<g id="a_Node000004"><a xlink:href="Helpers_8hpp.html" target="_top" xlink:title=" ">
<polygon fill="white" stroke="#666666" points="697.25,-134.25 607.75,-134.25 607.75,-113.5 697.25,-113.5 697.25,-134.25"/>
<text text-anchor="middle" x="652.5" y="-120.75" font-family="Helvetica,sans-Serif" font-size="10.00">lib/Helpers.hpp</text>
</a>
</g>
</g>
<!-- Node1&#45;&gt;Node4 -->
<g id="edge3_Node000001_Node000004" class="edge">
<title>Node1&#45;&gt;Node4</title>
<g id="a_edge3_Node000001_Node000004"><a xlink:title=" ">
<path fill="none" stroke="#63b8ff" d="M175.86,-229.5C236.92,-222.03 333.83,-208.74 416.5,-191 485.68,-176.15 564.56,-152.69 611.35,-138.08"/>
<polygon fill="#63b8ff" stroke="#63b8ff" points="612.32,-141.44 620.81,-135.1 610.22,-134.76 612.32,-141.44"/>
</a>
</g>
</g>
<!-- Node9 -->
<g id="Node000009" class="node">
<title>Node9</title>
<g id="a_Node000009"><a xlink:href="ConfigService_8hpp.html" target="_top" xlink:title=" ">
<polygon fill="white" stroke="#666666" points="304.62,-77.5 130.38,-77.5 130.38,-56.75 304.62,-56.75 304.62,-77.5"/>
<text text-anchor="middle" x="217.5" y="-64" font-family="Helvetica,sans-Serif" font-size="10.00">validation&#45;api/ConfigService.hpp</text>
</a>
</g>
</g>
<!-- Node1&#45;&gt;Node9 -->
<g id="edge22_Node000001_Node000009" class="edge">
<title>Node1&#45;&gt;Node9</title>
<g id="a_edge22_Node000001_Node000009"><a xlink:title=" ">
<path fill="none" stroke="#63b8ff" d="M117.55,-226.65C122.52,-204.78 136.8,-150.72 163.5,-113.5 171.59,-102.22 183.09,-92.04 193.41,-84.19"/>
<polygon fill="#63b8ff" stroke="#63b8ff" points="195.14,-87.26 201.19,-78.56 191.04,-81.59 195.14,-87.26"/>
</a>
</g>
</g>
<!-- Node11 -->
<g id="Node000011" class="node">
<title>Node11</title>
<g id="a_Node000011"><a xlink:href="Validation_8hpp.html" target="_top" xlink:title=" ">
<polygon fill="white" stroke="#666666" points="407.88,-191 307.12,-191 307.12,-170.25 407.88,-170.25 407.88,-191"/>
<text text-anchor="middle" x="357.5" y="-177.5" font-family="Helvetica,sans-Serif" font-size="10.00">lib/Validation.hpp</text>
</a>
</g>
</g>
<!-- Node1&#45;&gt;Node11 -->
<g id="edge13_Node000001_Node000011" class="edge">
<title>Node1&#45;&gt;Node11</title>
<g id="a_edge13_Node000001_Node000011"><a xlink:title=" ">
<path fill="none" stroke="#63b8ff" d="M159.04,-226.52C199.35,-217.4 259.45,-203.81 302.94,-193.97"/>
<polygon fill="#63b8ff" stroke="#63b8ff" points="303.44,-197.44 312.42,-191.82 301.9,-190.62 303.44,-197.44"/>
</a>
</g>
</g>
<!-- Node5 -->
<g id="Node000005" class="node">
<title>Node5</title>
<g id="a_Node000005"><a xlink:title=" ">
<polygon fill="#e0e0e0" stroke="#999999" points="839.38,-77.5 669.62,-77.5 669.62,-56.75 839.38,-56.75 839.38,-77.5"/>
<text text-anchor="middle" x="754.5" y="-64" font-family="Helvetica,sans-Serif" font-size="10.00">boost/uuid/uuid_generators.hpp</text>
</a>
</g>
</g>
<!-- Node4&#45;&gt;Node5 -->
<g id="edge4_Node000004_Node000005" class="edge">
<title>Node4&#45;&gt;Node5</title>
<g id="a_edge4_Node000004_Node000005"><a xlink:title=" ">
<path fill="none" stroke="#63b8ff" d="M670.74,-113.09C686.18,-104.8 708.59,-92.77 726.34,-83.24"/>
<polygon fill="#63b8ff" stroke="#63b8ff" points="727.93,-86.36 735.09,-78.54 724.62,-80.19 727.93,-86.36"/>
</a>
</g>
</g>
<!-- Node6 -->
<g id="Node000006" class="node">
<title>Node6</title>
<g id="a_Node000006"><a xlink:title=" ">
<polygon fill="#e0e0e0" stroke="#999999" points="634,-20.75 525,-20.75 525,0 634,0 634,-20.75"/>
<text text-anchor="middle" x="579.5" y="-7.25" font-family="Helvetica,sans-Serif" font-size="10.00">nlohmann/json.hpp</text>
</a>
</g>
</g>
<!-- Node4&#45;&gt;Node6 -->
<g id="edge5_Node000004_Node000006" class="edge">
<title>Node4&#45;&gt;Node6</title>
<g id="a_edge5_Node000004_Node000006"><a xlink:title=" ">
<path fill="none" stroke="#63b8ff" d="M697.56,-122.21C767.95,-119.62 891.74,-107.9 848.5,-56.75 822.99,-26.58 716.5,-16.46 645.4,-13.07"/>
<polygon fill="#63b8ff" stroke="#63b8ff" points="645.96,-9.6 635.82,-12.65 645.66,-16.59 645.96,-9.6"/>
</a>
</g>
</g>
<!-- Node7 -->
<g id="Node000007" class="node">
<title>Node7</title>
<g id="a_Node000007"><a xlink:title=" ">
<polygon fill="#e0e0e0" stroke="#999999" points="395.88,-20.75 319.12,-20.75 319.12,0 395.88,0 395.88,-20.75"/>
<text text-anchor="middle" x="357.5" y="-7.25" font-family="Helvetica,sans-Serif" font-size="10.00">pugixml.hpp</text>
</a>
</g>
</g>
<!-- Node4&#45;&gt;Node7 -->
<g id="edge6_Node000004_Node000007" class="edge">
<title>Node4&#45;&gt;Node7</title>
<g id="a_edge6_Node000004_Node000007"><a xlink:title=" ">
<path fill="none" stroke="#63b8ff" d="M626.58,-113.08C573.9,-93.17 454.22,-47.93 393.82,-25.1"/>
<polygon fill="#63b8ff" stroke="#63b8ff" points="395.26,-21.91 384.67,-21.65 392.79,-28.45 395.26,-21.91"/>
</a>
</g>
</g>
<!-- Node8 -->
<g id="Node000008" class="node">
<title>Node8</title>
<g id="a_Node000008"><a xlink:title=" ">
<polygon fill="#e0e0e0" stroke="#999999" points="651.38,-77.5 607.62,-77.5 607.62,-56.75 651.38,-56.75 651.38,-77.5"/>
<text text-anchor="middle" x="629.5" y="-64" font-family="Helvetica,sans-Serif" font-size="10.00">regex</text>
</a>
</g>
</g>
<!-- Node4&#45;&gt;Node8 -->
<g id="edge7_Node000004_Node000008" class="edge">
<title>Node4&#45;&gt;Node8</title>
<g id="a_edge7_Node000004_Node000008"><a xlink:title=" ">
<path fill="none" stroke="#63b8ff" d="M648.39,-113.09C645.51,-106.24 641.56,-96.84 638.02,-88.4"/>
<polygon fill="#63b8ff" stroke="#63b8ff" points="641.26,-87.09 634.16,-79.22 634.81,-89.8 641.26,-87.09"/>
</a>
</g>
</g>
<!-- Node4&#45;&gt;Node9 -->
<g id="edge8_Node000004_Node000009" class="edge">
<title>Node4&#45;&gt;Node9</title>
<g id="a_edge8_Node000004_Node000009"><a xlink:title=" ">
<path fill="none" stroke="#63b8ff" d="M607.59,-117.22C536.94,-108.33 398.51,-90.91 307,-79.39"/>
<polygon fill="#63b8ff" stroke="#63b8ff" points="307.67,-75.95 297.31,-78.17 306.79,-82.89 307.67,-75.95"/>
</a>
</g>
</g>
<!-- Node9&#45;&gt;Node3 -->
<g id="edge9_Node000009_Node000003" class="edge">
<title>Node9&#45;&gt;Node3</title>
<g id="a_edge9_Node000009_Node000003"><a xlink:title=" ">
<path fill="none" stroke="#63b8ff" d="M194.79,-56.34C174.93,-47.77 145.83,-35.23 123.41,-25.56"/>
<polygon fill="#63b8ff" stroke="#63b8ff" points="124.97,-22.42 114.4,-21.68 122.2,-28.85 124.97,-22.42"/>
</a>
</g>
</g>
<!-- Node9&#45;&gt;Node6 -->
<g id="edge11_Node000009_Node000006" class="edge">
<title>Node9&#45;&gt;Node6</title>
<g id="a_edge11_Node000009_Node000006"><a xlink:title=" ">
<path fill="none" stroke="#63b8ff" d="M282.64,-56.27C347.97,-46.39 448.03,-31.26 513.62,-21.34"/>
<polygon fill="#63b8ff" stroke="#63b8ff" points="513.79,-24.85 523.15,-19.9 512.74,-17.93 513.79,-24.85"/>
</a>
</g>
</g>
<!-- Node9&#45;&gt;Node7 -->
<g id="edge12_Node000009_Node000007" class="edge">
<title>Node9&#45;&gt;Node7</title>
<g id="a_edge12_Node000009_Node000007"><a xlink:title=" ">
<path fill="none" stroke="#63b8ff" d="M242.53,-56.34C264.73,-47.66 297.39,-34.88 322.23,-25.17"/>
<polygon fill="#63b8ff" stroke="#63b8ff" points="323.24,-28.53 331.28,-21.63 320.69,-22.01 323.24,-28.53"/>
</a>
</g>
</g>
<!-- Node10 -->
<g id="Node000010" class="node">
<title>Node10</title>
<g id="a_Node000010"><a xlink:title=" ">
<polygon fill="#e0e0e0" stroke="#999999" points="266.75,-20.75 168.25,-20.75 168.25,0 266.75,0 266.75,-20.75"/>
<text text-anchor="middle" x="217.5" y="-7.25" font-family="Helvetica,sans-Serif" font-size="10.00">boost/thread.hpp</text>
</a>
</g>
</g>
<!-- Node9&#45;&gt;Node10 -->
<g id="edge10_Node000009_Node000010" class="edge">
<title>Node9&#45;&gt;Node10</title>
<g id="a_edge10_Node000009_Node000010"><a xlink:title=" ">
<path fill="none" stroke="#63b8ff" d="M217.5,-56.34C217.5,-49.72 217.5,-40.72 217.5,-32.52"/>
<polygon fill="#63b8ff" stroke="#63b8ff" points="221,-32.59 217.5,-22.59 214,-32.59 221,-32.59"/>
</a>
</g>
</g>
<!-- Node11&#45;&gt;Node4 -->
<g id="edge16_Node000011_Node000004" class="edge">
<title>Node11&#45;&gt;Node4</title>
<g id="a_edge16_Node000011_Node000004"><a xlink:title=" ">
<path fill="none" stroke="#63b8ff" d="M408.21,-170.21C460.5,-160.51 541.85,-145.41 596.13,-135.34"/>
<polygon fill="#63b8ff" stroke="#63b8ff" points="596.6,-138.81 605.79,-133.54 595.32,-131.93 596.6,-138.81"/>
</a>
</g>
</g>
<!-- Node11&#45;&gt;Node6 -->
<g id="edge17_Node000011_Node000006" class="edge">
<title>Node11&#45;&gt;Node6</title>
<g id="a_edge17_Node000011_Node000006"><a xlink:title=" ">
<path fill="none" stroke="#63b8ff" d="M408.29,-169.75C466.68,-158.18 555.23,-139.88 560.5,-134.25 586.22,-106.76 585.71,-59.71 582.78,-32.5"/>
<polygon fill="#63b8ff" stroke="#63b8ff" points="586.27,-32.18 581.49,-22.72 579.33,-33.09 586.27,-32.18"/>
</a>
</g>
</g>
<!-- Node11&#45;&gt;Node7 -->
<g id="edge18_Node000011_Node000007" class="edge">
<title>Node11&#45;&gt;Node7</title>
<g id="a_edge18_Node000011_Node000007"><a xlink:title=" ">
<path fill="none" stroke="#63b8ff" d="M357.5,-170.1C357.5,-143.73 357.5,-69.33 357.5,-32.53"/>
<polygon fill="#63b8ff" stroke="#63b8ff" points="361,-32.73 357.5,-22.73 354,-32.73 361,-32.73"/>
</a>
</g>
</g>
<!-- Node11&#45;&gt;Node9 -->
<g id="edge21_Node000011_Node000009" class="edge">
<title>Node11&#45;&gt;Node9</title>
<g id="a_edge21_Node000011_Node000009"><a xlink:title=" ">
<path fill="none" stroke="#63b8ff" d="M306.77,-174.17C257.87,-167.74 188.93,-155.2 172.5,-134.25 159.77,-118.02 176.95,-98.37 193.63,-84.73"/>
<polygon fill="#63b8ff" stroke="#63b8ff" points="195.63,-87.6 201.44,-78.75 191.37,-82.05 195.63,-87.6"/>
</a>
</g>
</g>
<!-- Node12 -->
<g id="Node000012" class="node">
<title>Node12</title>
<g id="a_Node000012"><a xlink:title=" ">
<polygon fill="#e0e0e0" stroke="#999999" points="473.5,-134.25 385.5,-134.25 385.5,-113.5 473.5,-113.5 473.5,-134.25"/>
<text text-anchor="middle" x="429.5" y="-120.75" font-family="Helvetica,sans-Serif" font-size="10.00">boost/uuid.hpp</text>
</a>
</g>
</g>
<!-- Node11&#45;&gt;Node12 -->
<g id="edge14_Node000011_Node000012" class="edge">
<title>Node11&#45;&gt;Node12</title>
<g id="a_edge14_Node000011_Node000012"><a xlink:title=" ">
<path fill="none" stroke="#63b8ff" d="M370.37,-169.84C380.71,-161.97 395.47,-150.75 407.65,-141.49"/>
<polygon fill="#63b8ff" stroke="#63b8ff" points="409.69,-144.33 415.53,-135.49 405.46,-138.76 409.69,-144.33"/>
</a>
</g>
</g>
<!-- Node13 -->
<g id="Node000013" class="node">
<title>Node13</title>
<g id="a_Node000013"><a xlink:title=" ">
<polygon fill="#e0e0e0" stroke="#999999" points="551.25,-134.25 491.75,-134.25 491.75,-113.5 551.25,-113.5 551.25,-134.25"/>
<text text-anchor="middle" x="521.5" y="-120.75" font-family="Helvetica,sans-Serif" font-size="10.00">iostream</text>
</a>
</g>
</g>
<!-- Node11&#45;&gt;Node13 -->
<g id="edge15_Node000011_Node000013" class="edge">
<title>Node11&#45;&gt;Node13</title>
<g id="a_edge15_Node000011_Node000013"><a xlink:title=" ">
<path fill="none" stroke="#63b8ff" d="M386.82,-169.84C413.21,-161.03 452.22,-148 481.47,-138.24"/>
<polygon fill="#63b8ff" stroke="#63b8ff" points="482.35,-141.64 490.72,-135.15 480.13,-135 482.35,-141.64"/>
</a>
</g>
</g>
<!-- Node14 -->
<g id="Node000014" class="node">
<title>Node14</title>
<g id="a_Node000014"><a xlink:title=" ">
<polygon fill="#e0e0e0" stroke="#999999" points="267.38,-134.25 181.62,-134.25 181.62,-113.5 267.38,-113.5 267.38,-134.25"/>
<text text-anchor="middle" x="224.5" y="-120.75" font-family="Helvetica,sans-Serif" font-size="10.00">unordered_set</text>
</a>
</g>
</g>
<!-- Node11&#45;&gt;Node14 -->
<g id="edge19_Node000011_Node000014" class="edge">
<title>Node11&#45;&gt;Node14</title>
<g id="a_edge19_Node000011_Node000014"><a xlink:title=" ">
<path fill="none" stroke="#63b8ff" d="M333.72,-169.84C312.82,-161.23 282.16,-148.61 258.64,-138.93"/>
<polygon fill="#63b8ff" stroke="#63b8ff" points="260.05,-135.72 249.47,-135.15 257.39,-142.2 260.05,-135.72"/>
</a>
</g>
</g>
<!-- Node15 -->
<g id="Node000015" class="node">
<title>Node15</title>
<g id="a_Node000015"><a xlink:title=" ">
<polygon fill="#e0e0e0" stroke="#999999" points="329.75,-134.25 285.25,-134.25 285.25,-113.5 329.75,-113.5 329.75,-134.25"/>
<text text-anchor="middle" x="307.5" y="-120.75" font-family="Helvetica,sans-Serif" font-size="10.00">utility</text>
</a>
</g>
</g>
<!-- Node11&#45;&gt;Node15 -->
<g id="edge20_Node000011_Node000015" class="edge">
<title>Node11&#45;&gt;Node15</title>
<g id="a_edge20_Node000011_Node000015"><a xlink:title=" ">
<path fill="none" stroke="#63b8ff" d="M348.56,-169.84C341.74,-162.36 332.14,-151.86 323.94,-142.88"/>
<polygon fill="#63b8ff" stroke="#63b8ff" points="326.71,-140.72 317.38,-135.7 321.54,-145.44 326.71,-140.72"/>
</a>
</g>
</g>
</g>
</svg>
