<?xml version="1.0" encoding="UTF-8" standalone="no"?>
<!DOCTYPE svg PUBLIC "-//W3C//DTD SVG 1.1//EN"
 "http://www.w3.org/Graphics/SVG/1.1/DTD/svg11.dtd">
<!-- Generated by graphviz version 12.2.1 (0)
 -->
<!-- Title: include/validation&#45;api/ConfigWatcher.hpp Pages: 1 -->
<svg width="512pt" height="152pt"
 viewBox="0.00 0.00 512.25 152.00" xmlns="http://www.w3.org/2000/svg" xmlns:xlink="http://www.w3.org/1999/xlink">
<g id="graph0" class="graph" transform="scale(1 1) rotate(0) translate(4 148)">
<title>include/validation&#45;api/ConfigWatcher.hpp</title>
<!-- Node1 -->
<g id="Node000001" class="node">
<title>Node1</title>
<g id="a_Node000001"><a xlink:title=" ">
<polygon fill="#999999" stroke="#666666" points="266.88,-144 148.88,-144 148.88,-112 266.88,-112 266.88,-144"/>
<text text-anchor="start" x="156.88" y="-130.5" font-family="Helvetica,sans-Serif" font-size="10.00">include/validation</text>
<text text-anchor="middle" x="207.88" y="-118.5" font-family="Helvetica,sans-Serif" font-size="10.00">&#45;api/ConfigWatcher.hpp</text>
</a>
</g>
</g>
<!-- Node2 -->
<g id="Node000002" class="node">
<title>Node2</title>
<g id="a_Node000002"><a xlink:title=" ">
<polygon fill="#e0e0e0" stroke="#999999" points="79.75,-76 0,-76 0,-56 79.75,-56 79.75,-76"/>
<text text-anchor="middle" x="39.88" y="-62.5" font-family="Helvetica,sans-Serif" font-size="10.00">boost/asio.hpp</text>
</a>
</g>
</g>
<!-- Node1&#45;&gt;Node2 -->
<g id="edge1_Node000001_Node000002" class="edge">
<title>Node1&#45;&gt;Node2</title>
<g id="a_edge1_Node000001_Node000002"><a xlink:title=" ">
<path fill="none" stroke="#63b8ff" d="M164.61,-111.55C137.39,-101.83 102.64,-89.41 76.73,-80.16"/>
<polygon fill="#63b8ff" stroke="#63b8ff" points="78.24,-76.98 67.64,-76.92 75.88,-83.58 78.24,-76.98"/>
</a>
</g>
</g>
<!-- Node3 -->
<g id="Node000003" class="node">
<title>Node3</title>
<g id="a_Node000003"><a xlink:title=" ">
<polygon fill="#e0e0e0" stroke="#999999" points="180.25,-76 97.5,-76 97.5,-56 180.25,-56 180.25,-76"/>
<text text-anchor="middle" x="138.88" y="-62.5" font-family="Helvetica,sans-Serif" font-size="10.00">unordered_map</text>
</a>
</g>
</g>
<!-- Node1&#45;&gt;Node3 -->
<g id="edge2_Node000001_Node000003" class="edge">
<title>Node1&#45;&gt;Node3</title>
<g id="a_edge2_Node000001_Node000003"><a xlink:title=" ">
<path fill="none" stroke="#63b8ff" d="M190.11,-111.55C180.32,-103.04 168.17,-92.48 158.16,-83.77"/>
<polygon fill="#63b8ff" stroke="#63b8ff" points="160.68,-81.32 150.84,-77.4 156.09,-86.6 160.68,-81.32"/>
</a>
</g>
</g>
<!-- Node4 -->
<g id="Node000004" class="node">
<title>Node4</title>
<g id="a_Node000004"><a xlink:href="ConfigService_8hpp.html" target="_top" xlink:title=" ">
<polygon fill="white" stroke="#666666" points="355,-76 198.75,-76 198.75,-56 355,-56 355,-76"/>
<text text-anchor="middle" x="276.88" y="-62.5" font-family="Helvetica,sans-Serif" font-size="10.00">validation&#45;api/ConfigService.hpp</text>
</a>
</g>
</g>
<!-- Node1&#45;&gt;Node4 -->
<g id="edge3_Node000001_Node000004" class="edge">
<title>Node1&#45;&gt;Node4</title>
<g id="a_edge3_Node000001_Node000004"><a xlink:title=" ">
<path fill="none" stroke="#63b8ff" d="M225.64,-111.55C235.43,-103.04 247.58,-92.48 257.59,-83.77"/>
<polygon fill="#63b8ff" stroke="#63b8ff" points="259.66,-86.6 264.91,-77.4 255.07,-81.32 259.66,-86.6"/>
</a>
</g>
</g>
<!-- Node9 -->
<g id="Node000009" class="node">
<title>Node9</title>
<g id="a_Node000009"><a xlink:href="IService_8hpp.html" target="_top" xlink:title=" ">
<polygon fill="white" stroke="#666666" points="504.25,-76 373.5,-76 373.5,-56 504.25,-56 504.25,-76"/>
<text text-anchor="middle" x="438.88" y="-62.5" font-family="Helvetica,sans-Serif" font-size="10.00">validation&#45;api/IService.hpp</text>
</a>
</g>
</g>
<!-- Node1&#45;&gt;Node9 -->
<g id="edge8_Node000001_Node000009" class="edge">
<title>Node1&#45;&gt;Node9</title>
<g id="a_edge8_Node000001_Node000009"><a xlink:title=" ">
<path fill="none" stroke="#63b8ff" d="M267.36,-111.55C306.01,-101.51 355.69,-88.61 391.63,-79.27"/>
<polygon fill="#63b8ff" stroke="#63b8ff" points="392.05,-82.78 400.85,-76.88 390.29,-76 392.05,-82.78"/>
</a>
</g>
</g>
<!-- Node5 -->
<g id="Node000005" class="node">
<title>Node5</title>
<g id="a_Node000005"><a xlink:title=" ">
<polygon fill="#e0e0e0" stroke="#999999" points="158,-20 73.75,-20 73.75,0 158,0 158,-20"/>
<text text-anchor="middle" x="115.88" y="-6.5" font-family="Helvetica,sans-Serif" font-size="10.00">spdlog/spdlog.h</text>
</a>
</g>
</g>
<!-- Node4&#45;&gt;Node5 -->
<g id="edge4_Node000004_Node000005" class="edge">
<title>Node4&#45;&gt;Node5</title>
<g id="a_edge4_Node000004_Node000005"><a xlink:title=" ">
<path fill="none" stroke="#63b8ff" d="M248.83,-55.59C222.79,-46.86 183.77,-33.77 154.73,-24.03"/>
<polygon fill="#63b8ff" stroke="#63b8ff" points="156.17,-20.82 145.57,-20.96 153.94,-27.46 156.17,-20.82"/>
</a>
</g>
</g>
<!-- Node6 -->
<g id="Node000006" class="node">
<title>Node6</title>
<g id="a_Node000006"><a xlink:title=" ">
<polygon fill="#e0e0e0" stroke="#999999" points="265.25,-20 176.5,-20 176.5,0 265.25,0 265.25,-20"/>
<text text-anchor="middle" x="220.88" y="-6.5" font-family="Helvetica,sans-Serif" font-size="10.00">boost/thread.hpp</text>
</a>
</g>
</g>
<!-- Node4&#45;&gt;Node6 -->
<g id="edge5_Node000004_Node000006" class="edge">
<title>Node4&#45;&gt;Node6</title>
<g id="a_edge5_Node000004_Node000006"><a xlink:title=" ">
<path fill="none" stroke="#63b8ff" d="M267.12,-55.59C259.25,-48.01 247.98,-37.13 238.53,-28.02"/>
<polygon fill="#63b8ff" stroke="#63b8ff" points="241.24,-25.77 231.61,-21.35 236.38,-30.81 241.24,-25.77"/>
</a>
</g>
</g>
<!-- Node7 -->
<g id="Node000007" class="node">
<title>Node7</title>
<g id="a_Node000007"><a xlink:title=" ">
<polygon fill="#e0e0e0" stroke="#999999" points="380.75,-20 283,-20 283,0 380.75,0 380.75,-20"/>
<text text-anchor="middle" x="331.88" y="-6.5" font-family="Helvetica,sans-Serif" font-size="10.00">nlohmann/json.hpp</text>
</a>
</g>
</g>
<!-- Node4&#45;&gt;Node7 -->
<g id="edge6_Node000004_Node000007" class="edge">
<title>Node4&#45;&gt;Node7</title>
<g id="a_edge6_Node000004_Node000007"><a xlink:title=" ">
<path fill="none" stroke="#63b8ff" d="M286.46,-55.59C294.11,-48.08 305.03,-37.35 314.25,-28.3"/>
<polygon fill="#63b8ff" stroke="#63b8ff" points="316.64,-30.86 321.32,-21.36 311.74,-25.87 316.64,-30.86"/>
</a>
</g>
</g>
<!-- Node8 -->
<g id="Node000008" class="node">
<title>Node8</title>
<g id="a_Node000008"><a xlink:title=" ">
<polygon fill="#e0e0e0" stroke="#999999" points="467.12,-20 398.62,-20 398.62,0 467.12,0 467.12,-20"/>
<text text-anchor="middle" x="432.88" y="-6.5" font-family="Helvetica,sans-Serif" font-size="10.00">pugixml.hpp</text>
</a>
</g>
</g>
<!-- Node4&#45;&gt;Node8 -->
<g id="edge7_Node000004_Node000008" class="edge">
<title>Node4&#45;&gt;Node8</title>
<g id="a_edge7_Node000004_Node000008"><a xlink:title=" ">
<path fill="none" stroke="#63b8ff" d="M304.05,-55.59C329.17,-46.9 366.76,-33.89 394.85,-24.16"/>
<polygon fill="#63b8ff" stroke="#63b8ff" points="395.75,-27.55 404.06,-20.97 393.46,-20.94 395.75,-27.55"/>
</a>
</g>
</g>
</g>
</svg>
