<?xml version="1.0" encoding="UTF-8" standalone="no"?>
<!DOCTYPE svg PUBLIC "-//W3C//DTD SVG 1.1//EN"
 "http://www.w3.org/Graphics/SVG/1.1/DTD/svg11.dtd">
<!-- Generated by graphviz version 12.2.1 (0)
 -->
<!-- Title: src/ConfigService.cpp Pages: 1 -->
<svg width="1039pt" height="264pt"
 viewBox="0.00 0.00 1039.43 264.00" xmlns="http://www.w3.org/2000/svg" xmlns:xlink="http://www.w3.org/1999/xlink">
<g id="graph0" class="graph" transform="scale(1 1) rotate(0) translate(4 260)">
<title>src/ConfigService.cpp</title>
<!-- Node1 -->
<g id="Node000001" class="node">
<title>Node1</title>
<g id="a_Node000001"><a xlink:title=" ">
<polygon fill="#999999" stroke="#666666" points="374.28,-256 261.53,-256 261.53,-236 374.28,-236 374.28,-256"/>
<text text-anchor="middle" x="317.9" y="-242.5" font-family="Helvetica,sans-Serif" font-size="10.00">src/ConfigService.cpp</text>
</a>
</g>
</g>
<!-- Node2 -->
<g id="Node000002" class="node">
<title>Node2</title>
<g id="a_Node000002"><a xlink:href="ErrorBuilder_8hpp.html" target="_top" xlink:title=" ">
<polygon fill="white" stroke="#666666" points="210.15,-144 111.65,-144 111.65,-124 210.15,-124 210.15,-144"/>
<text text-anchor="middle" x="160.9" y="-130.5" font-family="Helvetica,sans-Serif" font-size="10.00">lib/ErrorBuilder.hpp</text>
</a>
</g>
</g>
<!-- Node1&#45;&gt;Node2 -->
<g id="edge1_Node000001_Node000002" class="edge">
<title>Node1&#45;&gt;Node2</title>
<g id="a_edge1_Node000001_Node000002"><a xlink:title=" ">
<path fill="none" stroke="#63b8ff" d="M304.52,-235.62C277.63,-216.79 216.83,-174.18 183.61,-150.91"/>
<polygon fill="#63b8ff" stroke="#63b8ff" points="185.69,-148.09 175.49,-145.22 181.67,-153.83 185.69,-148.09"/>
</a>
</g>
</g>
<!-- Node3 -->
<g id="Node000003" class="node">
<title>Node3</title>
<g id="a_Node000003"><a xlink:title=" ">
<polygon fill="#e0e0e0" stroke="#999999" points="75.03,-82 14.78,-82 14.78,-62 75.03,-62 75.03,-82"/>
<text text-anchor="middle" x="44.9" y="-68.5" font-family="Helvetica,sans-Serif" font-size="10.00">fmt/core.h</text>
</a>
</g>
</g>
<!-- Node1&#45;&gt;Node3 -->
<g id="edge5_Node000001_Node000003" class="edge">
<title>Node1&#45;&gt;Node3</title>
<g id="a_edge5_Node000001_Node000003"><a xlink:title=" ">
<path fill="none" stroke="#63b8ff" d="M287.39,-235.56C243.43,-220.94 161.18,-189.65 102.9,-144 84.17,-129.33 67.54,-107.58 56.94,-92.02"/>
<polygon fill="#63b8ff" stroke="#63b8ff" points="59.86,-90.1 51.44,-83.67 54.01,-93.95 59.86,-90.1"/>
</a>
</g>
</g>
<!-- Node6 -->
<g id="Node000006" class="node">
<title>Node6</title>
<g id="a_Node000006"><a xlink:title=" ">
<polygon fill="#e0e0e0" stroke="#999999" points="275.03,-20 190.78,-20 190.78,0 275.03,0 275.03,-20"/>
<text text-anchor="middle" x="232.9" y="-6.5" font-family="Helvetica,sans-Serif" font-size="10.00">spdlog/spdlog.h</text>
</a>
</g>
</g>
<!-- Node1&#45;&gt;Node6 -->
<g id="edge6_Node000001_Node000006" class="edge">
<title>Node1&#45;&gt;Node6</title>
<g id="a_edge6_Node000001_Node000006"><a xlink:title=" ">
<path fill="none" stroke="#63b8ff" d="M261.22,-237.04C184.9,-222.77 53.19,-184.69 5.9,-88 -0.35,-75.22 -3.12,-66.99 5.9,-56 27.4,-29.82 119.07,-18.61 179.14,-14"/>
<polygon fill="#63b8ff" stroke="#63b8ff" points="179.1,-17.51 188.83,-13.3 178.6,-10.53 179.1,-17.51"/>
</a>
</g>
</g>
<!-- Node7 -->
<g id="Node000007" class="node">
<title>Node7</title>
<g id="a_Node000007"><a xlink:href="Helpers_8hpp.html" target="_top" xlink:title=" ">
<polygon fill="white" stroke="#666666" points="411.53,-144 330.28,-144 330.28,-124 411.53,-124 411.53,-144"/>
<text text-anchor="middle" x="370.9" y="-130.5" font-family="Helvetica,sans-Serif" font-size="10.00">lib/Helpers.hpp</text>
</a>
</g>
</g>
<!-- Node1&#45;&gt;Node7 -->
<g id="edge7_Node000001_Node000007" class="edge">
<title>Node1&#45;&gt;Node7</title>
<g id="a_edge7_Node000001_Node000007"><a xlink:title=" ">
<path fill="none" stroke="#63b8ff" d="M322.42,-235.62C331.03,-217.76 349.93,-178.53 361.42,-154.67"/>
<polygon fill="#63b8ff" stroke="#63b8ff" points="364.55,-156.25 365.74,-145.72 358.24,-153.21 364.55,-156.25"/>
</a>
</g>
</g>
<!-- Node12 -->
<g id="Node000012" class="node">
<title>Node12</title>
<g id="a_Node000012"><a xlink:href="ConfigService_8hpp.html" target="_top" xlink:title=" ">
<polygon fill="white" stroke="#666666" points="777.03,-82 620.78,-82 620.78,-62 777.03,-62 777.03,-82"/>
<text text-anchor="middle" x="698.9" y="-68.5" font-family="Helvetica,sans-Serif" font-size="10.00">validation&#45;api/ConfigService.hpp</text>
</a>
</g>
</g>
<!-- Node1&#45;&gt;Node12 -->
<g id="edge30_Node000001_Node000012" class="edge">
<title>Node1&#45;&gt;Node12</title>
<g id="a_edge30_Node000001_Node000012"><a xlink:title=" ">
<path fill="none" stroke="#63b8ff" d="M374.75,-241.06C534.25,-229.44 977.09,-192.98 1018.9,-144 1024.67,-137.24 1024.67,-130.76 1018.9,-124 989.79,-89.89 872.84,-78.48 788.74,-74.73"/>
<polygon fill="#63b8ff" stroke="#63b8ff" points="789.01,-71.24 778.88,-74.33 788.72,-78.24 789.01,-71.24"/>
</a>
</g>
</g>
<!-- Node14 -->
<g id="Node000014" class="node">
<title>Node14</title>
<g id="a_Node000014"><a xlink:href="Validation_8hpp.html" target="_top" xlink:title=" ">
<polygon fill="white" stroke="#666666" points="657.65,-200 568.15,-200 568.15,-180 657.65,-180 657.65,-200"/>
<text text-anchor="middle" x="612.9" y="-186.5" font-family="Helvetica,sans-Serif" font-size="10.00">lib/Validation.hpp</text>
</a>
</g>
</g>
<!-- Node1&#45;&gt;Node14 -->
<g id="edge18_Node000001_Node000014" class="edge">
<title>Node1&#45;&gt;Node14</title>
<g id="a_edge18_Node000001_Node000014"><a xlink:title=" ">
<path fill="none" stroke="#63b8ff" d="M369.62,-235.53C422.08,-225.93 503,-211.12 556.93,-201.25"/>
<polygon fill="#63b8ff" stroke="#63b8ff" points="557.31,-204.73 566.52,-199.49 556.05,-197.85 557.31,-204.73"/>
</a>
</g>
</g>
<!-- Node2&#45;&gt;Node3 -->
<g id="edge2_Node000002_Node000003" class="edge">
<title>Node2&#45;&gt;Node3</title>
<g id="a_edge2_Node000002_Node000003"><a xlink:title=" ">
<path fill="none" stroke="#63b8ff" d="M142.78,-123.62C124.05,-113.94 94.57,-98.69 72.85,-87.46"/>
<polygon fill="#63b8ff" stroke="#63b8ff" points="74.73,-84.49 64.24,-83 71.52,-90.71 74.73,-84.49"/>
</a>
</g>
</g>
<!-- Node4 -->
<g id="Node000004" class="node">
<title>Node4</title>
<g id="a_Node000004"><a xlink:title=" ">
<polygon fill="#e0e0e0" stroke="#999999" points="441.78,-20 344.03,-20 344.03,0 441.78,0 441.78,-20"/>
<text text-anchor="middle" x="392.9" y="-6.5" font-family="Helvetica,sans-Serif" font-size="10.00">nlohmann/json.hpp</text>
</a>
</g>
</g>
<!-- Node2&#45;&gt;Node4 -->
<g id="edge3_Node000002_Node000004" class="edge">
<title>Node2&#45;&gt;Node4</title>
<g id="a_edge3_Node000002_Node000004"><a xlink:title=" ">
<path fill="none" stroke="#63b8ff" d="M163.84,-123.52C169.43,-107.11 183.2,-73.45 206.9,-56 243.3,-29.19 293.55,-18.17 332.65,-13.72"/>
<polygon fill="#63b8ff" stroke="#63b8ff" points="332.77,-17.23 342.37,-12.74 332.07,-10.26 332.77,-17.23"/>
</a>
</g>
</g>
<!-- Node5 -->
<g id="Node000005" class="node">
<title>Node5</title>
<g id="a_Node000005"><a xlink:title=" ">
<polygon fill="#e0e0e0" stroke="#999999" points="132.9,-82 92.9,-82 92.9,-62 132.9,-62 132.9,-82"/>
<text text-anchor="middle" x="112.9" y="-68.5" font-family="Helvetica,sans-Serif" font-size="10.00">string</text>
</a>
</g>
</g>
<!-- Node2&#45;&gt;Node5 -->
<g id="edge4_Node000002_Node000005" class="edge">
<title>Node2&#45;&gt;Node5</title>
<g id="a_edge4_Node000002_Node000005"><a xlink:title=" ">
<path fill="none" stroke="#63b8ff" d="M153.4,-123.62C146.46,-114.94 135.94,-101.8 127.36,-91.08"/>
<polygon fill="#63b8ff" stroke="#63b8ff" points="130.12,-88.92 121.14,-83.29 124.65,-93.29 130.12,-88.92"/>
</a>
</g>
</g>
<!-- Node7&#45;&gt;Node4 -->
<g id="edge10_Node000007_Node000004" class="edge">
<title>Node7&#45;&gt;Node4</title>
<g id="a_edge10_Node000007_Node000004"><a xlink:title=" ">
<path fill="none" stroke="#63b8ff" d="M329.78,-127.85C274.07,-119.18 185.1,-98.3 217.9,-56 232.03,-37.77 287.66,-25.64 332.46,-18.61"/>
<polygon fill="#63b8ff" stroke="#63b8ff" points="332.72,-22.11 342.09,-17.16 331.68,-15.19 332.72,-22.11"/>
</a>
</g>
</g>
<!-- Node8 -->
<g id="Node000008" class="node">
<title>Node8</title>
<g id="a_Node000008"><a xlink:title=" ">
<polygon fill="#e0e0e0" stroke="#999999" points="564.78,-88 455.03,-88 455.03,-56 564.78,-56 564.78,-88"/>
<text text-anchor="start" x="463.03" y="-74.5" font-family="Helvetica,sans-Serif" font-size="10.00">boost/algorithm/string</text>
<text text-anchor="middle" x="509.9" y="-62.5" font-family="Helvetica,sans-Serif" font-size="10.00">/trim.hpp</text>
</a>
</g>
</g>
<!-- Node7&#45;&gt;Node8 -->
<g id="edge8_Node000007_Node000008" class="edge">
<title>Node7&#45;&gt;Node8</title>
<g id="a_edge8_Node000007_Node000008"><a xlink:title=" ">
<path fill="none" stroke="#63b8ff" d="M392.62,-123.62C411.58,-115.44 439.72,-103.29 463.69,-92.95"/>
<polygon fill="#63b8ff" stroke="#63b8ff" points="464.83,-96.27 472.63,-89.09 462.06,-89.84 464.83,-96.27"/>
</a>
</g>
</g>
<!-- Node9 -->
<g id="Node000009" class="node">
<title>Node9</title>
<g id="a_Node000009"><a xlink:title=" ">
<polygon fill="#e0e0e0" stroke="#999999" points="378.78,-82 227.03,-82 227.03,-62 378.78,-62 378.78,-82"/>
<text text-anchor="middle" x="302.9" y="-68.5" font-family="Helvetica,sans-Serif" font-size="10.00">boost/uuid/uuid_generators.hpp</text>
</a>
</g>
</g>
<!-- Node7&#45;&gt;Node9 -->
<g id="edge9_Node000007_Node000009" class="edge">
<title>Node7&#45;&gt;Node9</title>
<g id="a_edge9_Node000007_Node000009"><a xlink:title=" ">
<path fill="none" stroke="#63b8ff" d="M360.28,-123.62C349.94,-114.5 334.01,-100.45 321.55,-89.46"/>
<polygon fill="#63b8ff" stroke="#63b8ff" points="324.18,-87.11 314.36,-83.11 319.55,-92.35 324.18,-87.11"/>
</a>
</g>
</g>
<!-- Node10 -->
<g id="Node000010" class="node">
<title>Node10</title>
<g id="a_Node000010"><a xlink:title=" ">
<polygon fill="#e0e0e0" stroke="#999999" points="839.15,-20 770.65,-20 770.65,0 839.15,0 839.15,-20"/>
<text text-anchor="middle" x="804.9" y="-6.5" font-family="Helvetica,sans-Serif" font-size="10.00">pugixml.hpp</text>
</a>
</g>
</g>
<!-- Node7&#45;&gt;Node10 -->
<g id="edge11_Node000007_Node000010" class="edge">
<title>Node7&#45;&gt;Node10</title>
<g id="a_edge11_Node000007_Node000010"><a xlink:title=" ">
<path fill="none" stroke="#63b8ff" d="M412.01,-128.7C516.49,-117.74 784.15,-89.54 785.9,-88 801.75,-74.14 805.44,-49.37 805.85,-31.67"/>
<polygon fill="#63b8ff" stroke="#63b8ff" points="809.35,-31.74 805.71,-21.79 802.35,-31.84 809.35,-31.74"/>
</a>
</g>
</g>
<!-- Node11 -->
<g id="Node000011" class="node">
<title>Node11</title>
<g id="a_Node000011"><a xlink:title=" ">
<polygon fill="#e0e0e0" stroke="#999999" points="436.9,-82 396.9,-82 396.9,-62 436.9,-62 436.9,-82"/>
<text text-anchor="middle" x="416.9" y="-68.5" font-family="Helvetica,sans-Serif" font-size="10.00">regex</text>
</a>
</g>
</g>
<!-- Node7&#45;&gt;Node11 -->
<g id="edge12_Node000007_Node000011" class="edge">
<title>Node7&#45;&gt;Node11</title>
<g id="a_edge12_Node000007_Node000011"><a xlink:title=" ">
<path fill="none" stroke="#63b8ff" d="M378.09,-123.62C384.74,-114.94 394.82,-101.8 403.04,-91.08"/>
<polygon fill="#63b8ff" stroke="#63b8ff" points="405.69,-93.38 408.99,-83.31 400.13,-89.12 405.69,-93.38"/>
</a>
</g>
</g>
<!-- Node7&#45;&gt;Node12 -->
<g id="edge13_Node000007_Node000012" class="edge">
<title>Node7&#45;&gt;Node12</title>
<g id="a_edge13_Node000007_Node000012"><a xlink:title=" ">
<path fill="none" stroke="#63b8ff" d="M411.78,-125.52C468.11,-115.22 570.11,-96.56 636.15,-84.48"/>
<polygon fill="#63b8ff" stroke="#63b8ff" points="636.53,-87.97 645.74,-82.72 635.27,-81.08 636.53,-87.97"/>
</a>
</g>
</g>
<!-- Node12&#45;&gt;Node4 -->
<g id="edge16_Node000012_Node000004" class="edge">
<title>Node12&#45;&gt;Node4</title>
<g id="a_edge16_Node000012_Node000004"><a xlink:title=" ">
<path fill="none" stroke="#63b8ff" d="M650.75,-61.56C597.1,-51.04 510.32,-34.02 452.45,-22.68"/>
<polygon fill="#63b8ff" stroke="#63b8ff" points="453.25,-19.27 442.76,-20.78 451.9,-26.13 453.25,-19.27"/>
</a>
</g>
</g>
<!-- Node12&#45;&gt;Node6 -->
<g id="edge14_Node000012_Node000006" class="edge">
<title>Node12&#45;&gt;Node6</title>
<g id="a_edge14_Node000012_Node000006"><a xlink:title=" ">
<path fill="none" stroke="#63b8ff" d="M625.32,-61.53C531.13,-49.4 370.18,-28.68 286.69,-17.93"/>
<polygon fill="#63b8ff" stroke="#63b8ff" points="287.31,-14.48 276.94,-16.67 286.41,-21.42 287.31,-14.48"/>
</a>
</g>
</g>
<!-- Node12&#45;&gt;Node10 -->
<g id="edge17_Node000012_Node000010" class="edge">
<title>Node12&#45;&gt;Node10</title>
<g id="a_edge17_Node000012_Node000010"><a xlink:title=" ">
<path fill="none" stroke="#63b8ff" d="M715.46,-61.62C732.34,-52.07 758.78,-37.11 778.54,-25.92"/>
<polygon fill="#63b8ff" stroke="#63b8ff" points="780.16,-29.03 787.14,-21.05 776.71,-22.93 780.16,-29.03"/>
</a>
</g>
</g>
<!-- Node13 -->
<g id="Node000013" class="node">
<title>Node13</title>
<g id="a_Node000013"><a xlink:title=" ">
<polygon fill="#e0e0e0" stroke="#999999" points="743.28,-20 654.53,-20 654.53,0 743.28,0 743.28,-20"/>
<text text-anchor="middle" x="698.9" y="-6.5" font-family="Helvetica,sans-Serif" font-size="10.00">boost/thread.hpp</text>
</a>
</g>
</g>
<!-- Node12&#45;&gt;Node13 -->
<g id="edge15_Node000012_Node000013" class="edge">
<title>Node12&#45;&gt;Node13</title>
<g id="a_edge15_Node000012_Node000013"><a xlink:title=" ">
<path fill="none" stroke="#63b8ff" d="M698.9,-61.62C698.9,-53.56 698.9,-41.65 698.9,-31.41"/>
<polygon fill="#63b8ff" stroke="#63b8ff" points="702.4,-31.63 698.9,-21.63 695.4,-31.63 702.4,-31.63"/>
</a>
</g>
</g>
<!-- Node14&#45;&gt;Node2 -->
<g id="edge28_Node000014_Node000002" class="edge">
<title>Node14&#45;&gt;Node2</title>
<g id="a_edge28_Node000014_Node000002"><a xlink:title=" ">
<path fill="none" stroke="#63b8ff" d="M567.91,-183.62C486.32,-173.88 313.91,-153.28 221.85,-142.28"/>
<polygon fill="#63b8ff" stroke="#63b8ff" points="222.34,-138.82 211.99,-141.1 221.51,-145.77 222.34,-138.82"/>
</a>
</g>
</g>
<!-- Node14&#45;&gt;Node4 -->
<g id="edge22_Node000014_Node000004" class="edge">
<title>Node14&#45;&gt;Node4</title>
<g id="a_edge22_Node000014_Node000004"><a xlink:title=" ">
<path fill="none" stroke="#63b8ff" d="M567.89,-181.94C527.32,-174.54 472.06,-161.55 458.9,-144 453.57,-136.89 453.64,-131.16 458.9,-124 490.61,-80.84 542.19,-131.16 573.9,-88 582.32,-76.54 582.66,-67.2 573.9,-56 559.02,-36.97 500.01,-24.84 453.36,-18.03"/>
<polygon fill="#63b8ff" stroke="#63b8ff" points="453.99,-14.58 443.6,-16.66 453.02,-21.51 453.99,-14.58"/>
</a>
</g>
</g>
<!-- Node14&#45;&gt;Node7 -->
<g id="edge21_Node000014_Node000007" class="edge">
<title>Node14&#45;&gt;Node7</title>
<g id="a_edge21_Node000014_Node000007"><a xlink:title=" ">
<path fill="none" stroke="#63b8ff" d="M570.47,-179.53C529.32,-170.35 466.81,-156.4 422.73,-146.57"/>
<polygon fill="#63b8ff" stroke="#63b8ff" points="423.67,-143.19 413.15,-144.43 422.14,-150.02 423.67,-143.19"/>
</a>
</g>
</g>
<!-- Node14&#45;&gt;Node10 -->
<g id="edge25_Node000014_Node000010" class="edge">
<title>Node14&#45;&gt;Node10</title>
<g id="a_edge25_Node000014_Node000010"><a xlink:title=" ">
<path fill="none" stroke="#63b8ff" d="M657.78,-187.34C758.4,-183.15 995.13,-170.55 1018.9,-144 1074.52,-81.87 928.65,-38.52 850.52,-20.44"/>
<polygon fill="#63b8ff" stroke="#63b8ff" points="851.52,-17.07 841,-18.28 849.98,-23.9 851.52,-17.07"/>
</a>
</g>
</g>
<!-- Node14&#45;&gt;Node12 -->
<g id="edge29_Node000014_Node000012" class="edge">
<title>Node14&#45;&gt;Node12</title>
<g id="a_edge29_Node000014_Node000012"><a xlink:title=" ">
<path fill="none" stroke="#63b8ff" d="M634.36,-179.65C649.26,-172.09 668.42,-160.07 679.9,-144 690.57,-129.08 695.24,-108.53 697.3,-93.37"/>
<polygon fill="#63b8ff" stroke="#63b8ff" points="700.75,-93.97 698.32,-83.66 693.79,-93.24 700.75,-93.97"/>
</a>
</g>
</g>
<!-- Node15 -->
<g id="Node000015" class="node">
<title>Node15</title>
<g id="a_Node000015"><a xlink:title=" ">
<polygon fill="#e0e0e0" stroke="#999999" points="806.78,-144 727.03,-144 727.03,-124 806.78,-124 806.78,-144"/>
<text text-anchor="middle" x="766.9" y="-130.5" font-family="Helvetica,sans-Serif" font-size="10.00">boost/uuid.hpp</text>
</a>
</g>
</g>
<!-- Node14&#45;&gt;Node15 -->
<g id="edge19_Node000014_Node000015" class="edge">
<title>Node14&#45;&gt;Node15</title>
<g id="a_edge19_Node000014_Node000015"><a xlink:title=" ">
<path fill="none" stroke="#63b8ff" d="M639.73,-179.59C664.53,-170.9 701.63,-157.89 729.37,-148.16"/>
<polygon fill="#63b8ff" stroke="#63b8ff" points="730.16,-151.59 738.44,-144.98 727.84,-144.99 730.16,-151.59"/>
</a>
</g>
</g>
<!-- Node16 -->
<g id="Node000016" class="node">
<title>Node16</title>
<g id="a_Node000016"><a xlink:title=" ">
<polygon fill="#e0e0e0" stroke="#999999" points="873.03,-144 824.78,-144 824.78,-124 873.03,-124 873.03,-144"/>
<text text-anchor="middle" x="848.9" y="-130.5" font-family="Helvetica,sans-Serif" font-size="10.00">cstddef</text>
</a>
</g>
</g>
<!-- Node14&#45;&gt;Node16 -->
<g id="edge20_Node000014_Node000016" class="edge">
<title>Node14&#45;&gt;Node16</title>
<g id="a_edge20_Node000014_Node000016"><a xlink:title=" ">
<path fill="none" stroke="#63b8ff" d="M657.8,-179.7C696.61,-171.51 754.48,-158.96 813.41,-144.53"/>
<polygon fill="#63b8ff" stroke="#63b8ff" points="814.09,-147.97 822.96,-142.18 812.41,-141.17 814.09,-147.97"/>
</a>
</g>
</g>
<!-- Node17 -->
<g id="Node000017" class="node">
<title>Node17</title>
<g id="a_Node000017"><a xlink:title=" ">
<polygon fill="#e0e0e0" stroke="#999999" points="1010.28,-144 891.53,-144 891.53,-124 1010.28,-124 1010.28,-144"/>
<text text-anchor="middle" x="950.9" y="-130.5" font-family="Helvetica,sans-Serif" font-size="10.00">nlohmann/json_fwd.hpp</text>
</a>
</g>
</g>
<!-- Node14&#45;&gt;Node17 -->
<g id="edge23_Node000014_Node000017" class="edge">
<title>Node14&#45;&gt;Node17</title>
<g id="a_edge23_Node000014_Node000017"><a xlink:title=" ">
<path fill="none" stroke="#63b8ff" d="M658.14,-181.77C715.1,-172.67 813.6,-156.94 880.46,-146.25"/>
<polygon fill="#63b8ff" stroke="#63b8ff" points="880.92,-149.73 890.24,-144.69 879.81,-142.81 880.92,-149.73"/>
</a>
</g>
</g>
<!-- Node18 -->
<g id="Node000018" class="node">
<title>Node18</title>
<g id="a_Node000018"><a xlink:title=" ">
<polygon fill="#e0e0e0" stroke="#999999" points="517.78,-144 468.03,-144 468.03,-124 517.78,-124 517.78,-144"/>
<text text-anchor="middle" x="492.9" y="-130.5" font-family="Helvetica,sans-Serif" font-size="10.00">optional</text>
</a>
</g>
</g>
<!-- Node14&#45;&gt;Node18 -->
<g id="edge24_Node000014_Node000018" class="edge">
<title>Node14&#45;&gt;Node18</title>
<g id="a_edge24_Node000014_Node000018"><a xlink:title=" ">
<path fill="none" stroke="#63b8ff" d="M592,-179.59C573.27,-171.17 545.54,-158.69 524.18,-149.07"/>
<polygon fill="#63b8ff" stroke="#63b8ff" points="525.9,-146.01 515.35,-145.1 523.03,-152.4 525.9,-146.01"/>
</a>
</g>
</g>
<!-- Node19 -->
<g id="Node000019" class="node">
<title>Node19</title>
<g id="a_Node000019"><a xlink:title=" ">
<polygon fill="#e0e0e0" stroke="#999999" points="613.65,-144 536.15,-144 536.15,-124 613.65,-124 613.65,-144"/>
<text text-anchor="middle" x="574.9" y="-130.5" font-family="Helvetica,sans-Serif" font-size="10.00">unordered_set</text>
</a>
</g>
</g>
<!-- Node14&#45;&gt;Node19 -->
<g id="edge26_Node000014_Node000019" class="edge">
<title>Node14&#45;&gt;Node19</title>
<g id="a_edge26_Node000014_Node000019"><a xlink:title=" ">
<path fill="none" stroke="#63b8ff" d="M606.28,-179.59C601.21,-172.39 594.07,-162.23 587.87,-153.43"/>
<polygon fill="#63b8ff" stroke="#63b8ff" points="590.93,-151.7 582.32,-145.54 585.21,-155.73 590.93,-151.7"/>
</a>
</g>
</g>
<!-- Node20 -->
<g id="Node000020" class="node">
<title>Node20</title>
<g id="a_Node000020"><a xlink:title=" ">
<polygon fill="#e0e0e0" stroke="#999999" points="670.53,-144 631.28,-144 631.28,-124 670.53,-124 670.53,-144"/>
<text text-anchor="middle" x="650.9" y="-130.5" font-family="Helvetica,sans-Serif" font-size="10.00">utility</text>
</a>
</g>
</g>
<!-- Node14&#45;&gt;Node20 -->
<g id="edge27_Node000014_Node000020" class="edge">
<title>Node14&#45;&gt;Node20</title>
<g id="a_edge27_Node000014_Node000020"><a xlink:title=" ">
<path fill="none" stroke="#63b8ff" d="M619.52,-179.59C624.59,-172.39 631.74,-162.23 637.93,-153.43"/>
<polygon fill="#63b8ff" stroke="#63b8ff" points="640.59,-155.73 643.49,-145.54 634.87,-151.7 640.59,-155.73"/>
</a>
</g>
</g>
</g>
</svg>
