<?xml version="1.0" encoding="UTF-8" standalone="no"?>
<!DOCTYPE svg PUBLIC "-//W3C//DTD SVG 1.1//EN"
 "http://www.w3.org/Graphics/SVG/1.1/DTD/svg11.dtd">
<!-- Generated by graphviz version 10.0.1 (0)
 -->
<!-- Title: include/lib/ErrorBuilder.hpp Pages: 1 -->
<svg width="279pt" height="142pt"
 viewBox="0.00 0.00 278.75 142.25" xmlns="http://www.w3.org/2000/svg" xmlns:xlink="http://www.w3.org/1999/xlink">
<g id="graph0" class="graph" transform="scale(1 1) rotate(0) translate(4 138.25)">
<title>include/lib/ErrorBuilder.hpp</title>
<!-- Node1 -->
<g id="Node000001" class="node">
<title>Node1</title>
<g id="a_Node000001"><a xlink:title=" ">
<polygon fill="#999999" stroke="#666666" points="202.75,-134.25 55.5,-134.25 55.5,-113.5 202.75,-113.5 202.75,-134.25"/>
<text text-anchor="middle" x="129.12" y="-120.75" font-family="Helvetica,sans-Serif" font-size="10.00">include/lib/ErrorBuilder.hpp</text>
</a>
</g>
</g>
<!-- Node2 -->
<g id="Node000002" class="node">
<title>Node2</title>
<g id="a_Node000002"><a xlink:href="Validation_8hpp.html" target="_top" xlink:title=" ">
<polygon fill="white" stroke="#666666" points="198.62,-77.5 59.62,-77.5 59.62,-56.75 198.62,-56.75 198.62,-77.5"/>
<text text-anchor="middle" x="129.12" y="-64" font-family="Helvetica,sans-Serif" font-size="10.00">include/lib/Validation.hpp</text>
</a>
</g>
</g>
<!-- Node1&#45;&gt;Node2 -->
<g id="edge1_Node000001_Node000002" class="edge">
<title>Node1&#45;&gt;Node2</title>
<g id="a_edge1_Node000001_Node000002"><a xlink:title=" ">
<path fill="none" stroke="#63b8ff" d="M129.12,-101.63C129.12,-93.41 129.12,-84.43 129.12,-77.83"/>
<polygon fill="#63b8ff" stroke="#63b8ff" points="125.63,-101.57 129.13,-111.57 132.63,-101.57 125.63,-101.57"/>
</a>
</g>
</g>
<!-- Node3 -->
<g id="Node000003" class="node">
<title>Node3</title>
<g id="a_Node000003"><a xlink:href="ConfigService_8cpp.html" target="_top" xlink:title=" ">
<polygon fill="white" stroke="#666666" points="120.25,-20.75 0,-20.75 0,0 120.25,0 120.25,-20.75"/>
<text text-anchor="middle" x="60.12" y="-7.25" font-family="Helvetica,sans-Serif" font-size="10.00">src/ConfigService.cpp</text>
</a>
</g>
</g>
<!-- Node1&#45;&gt;Node3 -->
<g id="edge4_Node000001_Node000003" class="edge">
<title>Node1&#45;&gt;Node3</title>
<g id="a_edge4_Node000001_Node000003"><a xlink:title=" ">
<path fill="none" stroke="#63b8ff" d="M86.61,-108.57C72.44,-101.54 58.22,-91.49 50.12,-77.5 39.77,-59.61 48.65,-34.63 55.02,-21.07"/>
<polygon fill="#63b8ff" stroke="#63b8ff" points="84.89,-111.63 95.45,-112.54 87.76,-105.25 84.89,-111.63"/>
</a>
</g>
</g>
<!-- Node4 -->
<g id="Node000004" class="node">
<title>Node4</title>
<g id="a_Node000004"><a xlink:href="Validation_8cpp.html" target="_top" xlink:title=" ">
<polygon fill="white" stroke="#666666" points="270.75,-20.75 153.5,-20.75 153.5,0 270.75,0 270.75,-20.75"/>
<text text-anchor="middle" x="212.12" y="-7.25" font-family="Helvetica,sans-Serif" font-size="10.00">src/lib/Validation.cpp</text>
</a>
</g>
</g>
<!-- Node1&#45;&gt;Node4 -->
<g id="edge5_Node000001_Node000004" class="edge">
<title>Node1&#45;&gt;Node4</title>
<g id="a_edge5_Node000001_Node000004"><a xlink:title=" ">
<path fill="none" stroke="#63b8ff" d="M170.85,-108.46C185.08,-101.4 199.54,-91.35 208.12,-77.5 218.91,-60.1 216.63,-34.93 214.24,-21.2"/>
<polygon fill="#63b8ff" stroke="#63b8ff" points="169.67,-105.16 162,-112.47 172.56,-111.53 169.67,-105.16"/>
</a>
</g>
</g>
<!-- Node2&#45;&gt;Node3 -->
<g id="edge2_Node000002_Node000003" class="edge">
<title>Node2&#45;&gt;Node3</title>
<g id="a_edge2_Node000002_Node000003"><a xlink:title=" ">
<path fill="none" stroke="#63b8ff" d="M108.06,-49.41C96.37,-40.13 82.23,-28.92 72.35,-21.08"/>
<polygon fill="#63b8ff" stroke="#63b8ff" points="105.59,-51.92 115.6,-55.4 109.95,-46.44 105.59,-51.92"/>
</a>
</g>
</g>
<!-- Node2&#45;&gt;Node4 -->
<g id="edge3_Node000002_Node000004" class="edge">
<title>Node2&#45;&gt;Node4</title>
<g id="a_edge3_Node000002_Node000004"><a xlink:title=" ">
<path fill="none" stroke="#63b8ff" d="M153.22,-50.23C167.51,-40.8 185.18,-29.15 197.41,-21.08"/>
<polygon fill="#63b8ff" stroke="#63b8ff" points="151.65,-47.08 145.23,-55.5 155.5,-52.92 151.65,-47.08"/>
</a>
</g>
</g>
</g>
</svg>
