<?xml version="1.0" encoding="UTF-8" standalone="no"?>
<!DOCTYPE svg PUBLIC "-//W3C//DTD SVG 1.1//EN"
 "http://www.w3.org/Graphics/SVG/1.1/DTD/svg11.dtd">
<!-- Generated by graphviz version 10.0.1 (0)
 -->
<!-- Title: include/lib/ErrorBuilder.hpp Pages: 1 -->
<svg width="155pt" height="86pt"
 viewBox="0.00 0.00 155.25 85.50" xmlns="http://www.w3.org/2000/svg" xmlns:xlink="http://www.w3.org/1999/xlink">
<g id="graph0" class="graph" transform="scale(1 1) rotate(0) translate(4 81.5)">
<title>include/lib/ErrorBuilder.hpp</title>
<!-- Node1 -->
<g id="Node000001" class="node">
<title>Node1</title>
<g id="a_Node000001"><a xlink:title=" ">
<polygon fill="#999999" stroke="#666666" points="147.25,-77.5 0,-77.5 0,-56.75 147.25,-56.75 147.25,-77.5"/>
<text text-anchor="middle" x="73.62" y="-64" font-family="Helvetica,sans-Serif" font-size="10.00">include/lib/ErrorBuilder.hpp</text>
</a>
</g>
</g>
<!-- Node2 -->
<g id="Node000002" class="node">
<title>Node2</title>
<g id="a_Node000002"><a xlink:title=" ">
<polygon fill="#e0e0e0" stroke="#999999" points="62.12,-20.75 13.12,-20.75 13.12,0 62.12,0 62.12,-20.75"/>
<text text-anchor="middle" x="37.62" y="-7.25" font-family="Helvetica,sans-Serif" font-size="10.00">format</text>
</a>
</g>
</g>
<!-- Node1&#45;&gt;Node2 -->
<g id="edge1_Node000001_Node000002" class="edge">
<title>Node1&#45;&gt;Node2</title>
<g id="a_edge1_Node000001_Node000002"><a xlink:title=" ">
<path fill="none" stroke="#63b8ff" d="M67.19,-56.34C62.48,-49.17 55.94,-39.23 50.21,-30.51"/>
<polygon fill="#63b8ff" stroke="#63b8ff" points="53.26,-28.78 44.84,-22.34 47.41,-32.62 53.26,-28.78"/>
</a>
</g>
</g>
<!-- Node3 -->
<g id="Node000003" class="node">
<title>Node3</title>
<g id="a_Node000003"><a xlink:title=" ">
<polygon fill="#e0e0e0" stroke="#999999" points="139.38,-20.75 79.88,-20.75 79.88,0 139.38,0 139.38,-20.75"/>
<text text-anchor="middle" x="109.62" y="-7.25" font-family="Helvetica,sans-Serif" font-size="10.00">iostream</text>
</a>
</g>
</g>
<!-- Node1&#45;&gt;Node3 -->
<g id="edge2_Node000001_Node000003" class="edge">
<title>Node1&#45;&gt;Node3</title>
<g id="a_edge2_Node000001_Node000003"><a xlink:title=" ">
<path fill="none" stroke="#63b8ff" d="M80.06,-56.34C84.77,-49.17 91.31,-39.23 97.04,-30.51"/>
<polygon fill="#63b8ff" stroke="#63b8ff" points="99.84,-32.62 102.41,-22.34 93.99,-28.78 99.84,-32.62"/>
</a>
</g>
</g>
</g>
</svg>
