<?xml version="1.0" encoding="UTF-8" standalone="no"?>
<!DOCTYPE svg PUBLIC "-//W3C//DTD SVG 1.1//EN"
 "http://www.w3.org/Graphics/SVG/1.1/DTD/svg11.dtd">
<!-- Generated by graphviz version 10.0.1 (0)
 -->
<!-- Title: src/lib/ErrorBuilder.cpp Pages: 1 -->
<svg width="137pt" height="142pt"
 viewBox="0.00 0.00 136.50 142.25" xmlns="http://www.w3.org/2000/svg" xmlns:xlink="http://www.w3.org/1999/xlink">
<g id="graph0" class="graph" transform="scale(1 1) rotate(0) translate(4 138.25)">
<title>src/lib/ErrorBuilder.cpp</title>
<!-- Node1 -->
<g id="Node000001" class="node">
<title>Node1</title>
<g id="a_Node000001"><a xlink:title=" ">
<polygon fill="#999999" stroke="#666666" points="125.5,-134.25 0,-134.25 0,-113.5 125.5,-113.5 125.5,-134.25"/>
<text text-anchor="middle" x="62.75" y="-120.75" font-family="Helvetica,sans-Serif" font-size="10.00">src/lib/ErrorBuilder.cpp</text>
</a>
</g>
</g>
<!-- Node2 -->
<g id="Node000002" class="node">
<title>Node2</title>
<g id="a_Node000002"><a xlink:href="ErrorBuilder_8hpp.html" target="_top" xlink:title=" ">
<polygon fill="white" stroke="#666666" points="117.25,-77.5 8.25,-77.5 8.25,-56.75 117.25,-56.75 117.25,-77.5"/>
<text text-anchor="middle" x="62.75" y="-64" font-family="Helvetica,sans-Serif" font-size="10.00">lib/ErrorBuilder.hpp</text>
</a>
</g>
</g>
<!-- Node1&#45;&gt;Node2 -->
<g id="edge1_Node000001_Node000002" class="edge">
<title>Node1&#45;&gt;Node2</title>
<g id="a_edge1_Node000001_Node000002"><a xlink:title=" ">
<path fill="none" stroke="#63b8ff" d="M62.75,-113.09C62.75,-106.47 62.75,-97.47 62.75,-89.27"/>
<polygon fill="#63b8ff" stroke="#63b8ff" points="66.25,-89.34 62.75,-79.34 59.25,-89.34 66.25,-89.34"/>
</a>
</g>
</g>
<!-- Node3 -->
<g id="Node000003" class="node">
<title>Node3</title>
<g id="a_Node000003"><a xlink:title=" ">
<polygon fill="#e0e0e0" stroke="#999999" points="51.25,-20.75 2.25,-20.75 2.25,0 51.25,0 51.25,-20.75"/>
<text text-anchor="middle" x="26.75" y="-7.25" font-family="Helvetica,sans-Serif" font-size="10.00">format</text>
</a>
</g>
</g>
<!-- Node2&#45;&gt;Node3 -->
<g id="edge2_Node000002_Node000003" class="edge">
<title>Node2&#45;&gt;Node3</title>
<g id="a_edge2_Node000002_Node000003"><a xlink:title=" ">
<path fill="none" stroke="#63b8ff" d="M56.31,-56.34C51.6,-49.17 45.06,-39.23 39.33,-30.51"/>
<polygon fill="#63b8ff" stroke="#63b8ff" points="42.38,-28.78 33.96,-22.34 36.53,-32.62 42.38,-28.78"/>
</a>
</g>
</g>
<!-- Node4 -->
<g id="Node000004" class="node">
<title>Node4</title>
<g id="a_Node000004"><a xlink:title=" ">
<polygon fill="#e0e0e0" stroke="#999999" points="128.5,-20.75 69,-20.75 69,0 128.5,0 128.5,-20.75"/>
<text text-anchor="middle" x="98.75" y="-7.25" font-family="Helvetica,sans-Serif" font-size="10.00">iostream</text>
</a>
</g>
</g>
<!-- Node2&#45;&gt;Node4 -->
<g id="edge3_Node000002_Node000004" class="edge">
<title>Node2&#45;&gt;Node4</title>
<g id="a_edge3_Node000002_Node000004"><a xlink:title=" ">
<path fill="none" stroke="#63b8ff" d="M69.19,-56.34C73.9,-49.17 80.44,-39.23 86.17,-30.51"/>
<polygon fill="#63b8ff" stroke="#63b8ff" points="88.97,-32.62 91.54,-22.34 83.12,-28.78 88.97,-32.62"/>
</a>
</g>
</g>
</g>
</svg>
