<?xml version="1.0" encoding="UTF-8" standalone="no"?>
<!DOCTYPE svg PUBLIC "-//W3C//DTD SVG 1.1//EN"
 "http://www.w3.org/Graphics/SVG/1.1/DTD/svg11.dtd">
<!-- Generated by graphviz version 10.0.1 (0)
 -->
<!-- Title: include/lib/ErrorBuilder.hpp Pages: 1 -->
<svg width="264pt" height="142pt"
 viewBox="0.00 0.00 263.75 142.25" xmlns="http://www.w3.org/2000/svg" xmlns:xlink="http://www.w3.org/1999/xlink">
<g id="graph0" class="graph" transform="scale(1 1) rotate(0) translate(4 138.25)">
<title>include/lib/ErrorBuilder.hpp</title>
<!-- Node1 -->
<g id="Node000001" class="node">
<title>Node1</title>
<g id="a_Node000001"><a xlink:title=" ">
<polygon fill="#999999" stroke="#666666" points="221.75,-134.25 74.5,-134.25 74.5,-113.5 221.75,-113.5 221.75,-134.25"/>
<text text-anchor="middle" x="148.12" y="-120.75" font-family="Helvetica,sans-Serif" font-size="10.00">include/lib/ErrorBuilder.hpp</text>
</a>
</g>
</g>
<!-- Node2 -->
<g id="Node000002" class="node">
<title>Node2</title>
<g id="a_Node000002"><a xlink:href="Validation_8hpp.html" target="_top" xlink:title=" ">
<polygon fill="white" stroke="#666666" points="168.62,-77.5 29.62,-77.5 29.62,-56.75 168.62,-56.75 168.62,-77.5"/>
<text text-anchor="middle" x="99.12" y="-64" font-family="Helvetica,sans-Serif" font-size="10.00">include/lib/Validation.hpp</text>
</a>
</g>
</g>
<!-- Node1&#45;&gt;Node2 -->
<g id="edge1_Node000001_Node000002" class="edge">
<title>Node1&#45;&gt;Node2</title>
<g id="a_edge1_Node000001_Node000002"><a xlink:title=" ">
<path fill="none" stroke="#63b8ff" d="M131.92,-104.77C123.88,-95.78 114.48,-85.28 107.81,-77.83"/>
<polygon fill="#63b8ff" stroke="#63b8ff" points="129.08,-106.84 138.36,-111.96 134.29,-102.17 129.08,-106.84"/>
</a>
</g>
</g>
<!-- Node4 -->
<g id="Node000004" class="node">
<title>Node4</title>
<g id="a_Node000004"><a xlink:href="Validation_8cpp.html" target="_top" xlink:title=" ">
<polygon fill="white" stroke="#666666" points="255.75,-20.75 138.5,-20.75 138.5,0 255.75,0 255.75,-20.75"/>
<text text-anchor="middle" x="197.12" y="-7.25" font-family="Helvetica,sans-Serif" font-size="10.00">src/lib/Validation.cpp</text>
</a>
</g>
</g>
<!-- Node1&#45;&gt;Node4 -->
<g id="edge4_Node000001_Node000004" class="edge">
<title>Node1&#45;&gt;Node4</title>
<g id="a_edge4_Node000001_Node000004"><a xlink:title=" ">
<path fill="none" stroke="#63b8ff" d="M162.47,-104C167.95,-96.12 173.89,-86.68 178.12,-77.5 186.93,-58.41 192.61,-34.31 195.3,-21.12"/>
<polygon fill="#63b8ff" stroke="#63b8ff" points="159.65,-101.92 156.61,-112.07 165.32,-106.04 159.65,-101.92"/>
</a>
</g>
</g>
<!-- Node3 -->
<g id="Node000003" class="node">
<title>Node3</title>
<g id="a_Node000003"><a xlink:href="ConfigService_8cpp.html" target="_top" xlink:title=" ">
<polygon fill="white" stroke="#666666" points="120.25,-20.75 0,-20.75 0,0 120.25,0 120.25,-20.75"/>
<text text-anchor="middle" x="60.12" y="-7.25" font-family="Helvetica,sans-Serif" font-size="10.00">src/ConfigService.cpp</text>
</a>
</g>
</g>
<!-- Node2&#45;&gt;Node3 -->
<g id="edge2_Node000002_Node000003" class="edge">
<title>Node2&#45;&gt;Node3</title>
<g id="a_edge2_Node000002_Node000003"><a xlink:title=" ">
<path fill="none" stroke="#63b8ff" d="M85.63,-47.17C79.36,-38.38 72.18,-28.3 67.04,-21.08"/>
<polygon fill="#63b8ff" stroke="#63b8ff" points="82.62,-48.99 91.27,-55.1 88.32,-44.93 82.62,-48.99"/>
</a>
</g>
</g>
<!-- Node2&#45;&gt;Node4 -->
<g id="edge3_Node000002_Node000004" class="edge">
<title>Node2&#45;&gt;Node4</title>
<g id="a_edge3_Node000002_Node000004"><a xlink:title=" ">
<path fill="none" stroke="#63b8ff" d="M126.6,-50.78C143.65,-41.25 165.03,-29.31 179.76,-21.08"/>
<polygon fill="#63b8ff" stroke="#63b8ff" points="124.99,-47.67 117.97,-55.6 128.4,-53.78 124.99,-47.67"/>
</a>
</g>
</g>
</g>
</svg>
