<?xml version="1.0" encoding="UTF-8" standalone="no"?>
<!DOCTYPE svg PUBLIC "-//W3C//DTD SVG 1.1//EN"
 "http://www.w3.org/Graphics/SVG/1.1/DTD/svg11.dtd">
<!-- Generated by graphviz version 10.0.1 (0)
 -->
<!-- Title: include/lib/ErrorBuilder.hpp Pages: 1 -->
<svg width="393pt" height="86pt"
 viewBox="0.00 0.00 393.38 85.50" xmlns="http://www.w3.org/2000/svg" xmlns:xlink="http://www.w3.org/1999/xlink">
<g id="graph0" class="graph" transform="scale(1 1) rotate(0) translate(4 81.5)">
<title>include/lib/ErrorBuilder.hpp</title>
<!-- Node1 -->
<g id="Node000001" class="node">
<title>Node1</title>
<g id="a_Node000001"><a xlink:title=" ">
<polygon fill="#999999" stroke="#666666" points="270.38,-77.5 123.12,-77.5 123.12,-56.75 270.38,-56.75 270.38,-77.5"/>
<text text-anchor="middle" x="196.75" y="-64" font-family="Helvetica,sans-Serif" font-size="10.00">include/lib/ErrorBuilder.hpp</text>
</a>
</g>
</g>
<!-- Node2 -->
<g id="Node000002" class="node">
<title>Node2</title>
<g id="a_Node000002"><a xlink:href="ErrorBuilder_8cpp.html" target="_top" xlink:title=" ">
<polygon fill="white" stroke="#666666" points="125.5,-20.75 0,-20.75 0,0 125.5,0 125.5,-20.75"/>
<text text-anchor="middle" x="62.75" y="-7.25" font-family="Helvetica,sans-Serif" font-size="10.00">src/lib/ErrorBuilder.cpp</text>
</a>
</g>
</g>
<!-- Node1&#45;&gt;Node2 -->
<g id="edge1_Node000001_Node000002" class="edge">
<title>Node1&#45;&gt;Node2</title>
<g id="a_edge1_Node000001_Node000002"><a xlink:title=" ">
<path fill="none" stroke="#63b8ff" d="M162.44,-52.11C138.65,-42.39 107.59,-29.69 86.5,-21.08"/>
<polygon fill="#63b8ff" stroke="#63b8ff" points="160.81,-55.22 171.39,-55.76 163.46,-48.74 160.81,-55.22"/>
</a>
</g>
</g>
<!-- Node3 -->
<g id="Node000003" class="node">
<title>Node3</title>
<g id="a_Node000003"><a xlink:href="Helpers_8cpp.html" target="_top" xlink:title=" ">
<polygon fill="white" stroke="#666666" points="249.75,-20.75 143.75,-20.75 143.75,0 249.75,0 249.75,-20.75"/>
<text text-anchor="middle" x="196.75" y="-7.25" font-family="Helvetica,sans-Serif" font-size="10.00">src/lib/Helpers.cpp</text>
</a>
</g>
</g>
<!-- Node1&#45;&gt;Node3 -->
<g id="edge2_Node000001_Node000003" class="edge">
<title>Node1&#45;&gt;Node3</title>
<g id="a_edge2_Node000001_Node000003"><a xlink:title=" ">
<path fill="none" stroke="#63b8ff" d="M196.75,-44.88C196.75,-36.66 196.75,-27.68 196.75,-21.08"/>
<polygon fill="#63b8ff" stroke="#63b8ff" points="193.25,-44.82 196.75,-54.82 200.25,-44.82 193.25,-44.82"/>
</a>
</g>
</g>
<!-- Node4 -->
<g id="Node000004" class="node">
<title>Node4</title>
<g id="a_Node000004"><a xlink:href="Validation_8cpp.html" target="_top" xlink:title=" ">
<polygon fill="white" stroke="#666666" points="385.38,-20.75 268.12,-20.75 268.12,0 385.38,0 385.38,-20.75"/>
<text text-anchor="middle" x="326.75" y="-7.25" font-family="Helvetica,sans-Serif" font-size="10.00">src/lib/Validation.cpp</text>
</a>
</g>
</g>
<!-- Node1&#45;&gt;Node4 -->
<g id="edge3_Node000001_Node000004" class="edge">
<title>Node1&#45;&gt;Node4</title>
<g id="a_edge3_Node000001_Node000004"><a xlink:title=" ">
<path fill="none" stroke="#63b8ff" d="M230.35,-51.97C253.38,-42.27 283.35,-29.66 303.71,-21.08"/>
<polygon fill="#63b8ff" stroke="#63b8ff" points="229.24,-48.64 221.39,-55.75 231.96,-55.09 229.24,-48.64"/>
</a>
</g>
</g>
</g>
</svg>
