<?xml version="1.0" encoding="UTF-8" standalone="no"?>
<!DOCTYPE svg PUBLIC "-//W3C//DTD SVG 1.1//EN"
 "http://www.w3.org/Graphics/SVG/1.1/DTD/svg11.dtd">
<!-- Generated by graphviz version 12.2.1 (0)
 -->
<!-- Title: include/lib/ErrorBuilder.hpp Pages: 1 -->
<svg width="257pt" height="140pt"
 viewBox="0.00 0.00 257.38 140.00" xmlns="http://www.w3.org/2000/svg" xmlns:xlink="http://www.w3.org/1999/xlink">
<g id="graph0" class="graph" transform="scale(1 1) rotate(0) translate(4 136)">
<title>include/lib/ErrorBuilder.hpp</title>
<!-- Node1 -->
<g id="Node000001" class="node">
<title>Node1</title>
<g id="a_Node000001"><a xlink:title=" ">
<polygon fill="#999999" stroke="#666666" points="186.5,-132 54.25,-132 54.25,-112 186.5,-112 186.5,-132"/>
<text text-anchor="middle" x="120.38" y="-118.5" font-family="Helvetica,sans-Serif" font-size="10.00">include/lib/ErrorBuilder.hpp</text>
</a>
</g>
</g>
<!-- Node2 -->
<g id="Node000002" class="node">
<title>Node2</title>
<g id="a_Node000002"><a xlink:href="Validation_8hpp.html" target="_top" xlink:title=" ">
<polygon fill="white" stroke="#666666" points="182,-76 58.75,-76 58.75,-56 182,-56 182,-76"/>
<text text-anchor="middle" x="120.38" y="-62.5" font-family="Helvetica,sans-Serif" font-size="10.00">include/lib/Validation.hpp</text>
</a>
</g>
</g>
<!-- Node1&#45;&gt;Node2 -->
<g id="edge1_Node000001_Node000002" class="edge">
<title>Node1&#45;&gt;Node2</title>
<g id="a_edge1_Node000001_Node000002"><a xlink:title=" ">
<path fill="none" stroke="#63b8ff" d="M120.38,-100.13C120.38,-91.9 120.38,-82.85 120.38,-76.3"/>
<polygon fill="#63b8ff" stroke="#63b8ff" points="116.88,-100.08 120.38,-110.08 123.88,-100.08 116.88,-100.08"/>
</a>
</g>
</g>
<!-- Node3 -->
<g id="Node000003" class="node">
<title>Node3</title>
<g id="a_Node000003"><a xlink:href="ConfigService_8cpp.html" target="_top" xlink:title=" ">
<polygon fill="white" stroke="#666666" points="112.75,-20 0,-20 0,0 112.75,0 112.75,-20"/>
<text text-anchor="middle" x="56.38" y="-6.5" font-family="Helvetica,sans-Serif" font-size="10.00">src/ConfigService.cpp</text>
</a>
</g>
</g>
<!-- Node1&#45;&gt;Node3 -->
<g id="edge4_Node000001_Node000003" class="edge">
<title>Node1&#45;&gt;Node3</title>
<g id="a_edge4_Node000001_Node000003"><a xlink:title=" ">
<path fill="none" stroke="#63b8ff" d="M83.49,-106.71C70.28,-99.6 56.83,-89.55 49.38,-76 39.64,-58.3 46.83,-33.79 52.11,-20.5"/>
<polygon fill="#63b8ff" stroke="#63b8ff" points="81.56,-109.66 92.07,-110.93 84.64,-103.38 81.56,-109.66"/>
</a>
</g>
</g>
<!-- Node4 -->
<g id="Node000004" class="node">
<title>Node4</title>
<g id="a_Node000004"><a xlink:href="Validation_8cpp.html" target="_top" xlink:title=" ">
<polygon fill="white" stroke="#666666" points="249.38,-20 143.38,-20 143.38,0 249.38,0 249.38,-20"/>
<text text-anchor="middle" x="196.38" y="-6.5" font-family="Helvetica,sans-Serif" font-size="10.00">src/lib/Validation.cpp</text>
</a>
</g>
</g>
<!-- Node1&#45;&gt;Node4 -->
<g id="edge5_Node000001_Node000004" class="edge">
<title>Node1&#45;&gt;Node4</title>
<g id="a_edge5_Node000001_Node000004"><a xlink:title=" ">
<path fill="none" stroke="#63b8ff" d="M156.14,-106.73C169.46,-99.55 183.29,-89.45 191.38,-76 201.87,-58.54 200.08,-33.5 198.09,-20.17"/>
<polygon fill="#63b8ff" stroke="#63b8ff" points="154.93,-103.42 147.52,-110.99 158.03,-109.7 154.93,-103.42"/>
</a>
</g>
</g>
<!-- Node2&#45;&gt;Node3 -->
<g id="edge2_Node000002_Node000003" class="edge">
<title>Node2&#45;&gt;Node3</title>
<g id="a_edge2_Node000002_Node000003"><a xlink:title=" ">
<path fill="none" stroke="#63b8ff" d="M100.7,-48.4C89.76,-39.17 76.53,-28.01 67.4,-20.3"/>
<polygon fill="#63b8ff" stroke="#63b8ff" points="98.17,-50.84 108.07,-54.62 102.68,-45.49 98.17,-50.84"/>
</a>
</g>
</g>
<!-- Node2&#45;&gt;Node4 -->
<g id="edge3_Node000002_Node000004" class="edge">
<title>Node2&#45;&gt;Node4</title>
<g id="a_edge3_Node000002_Node000004"><a xlink:title=" ">
<path fill="none" stroke="#63b8ff" d="M142.9,-49C155.95,-39.72 171.95,-28.35 183.03,-20.48"/>
<polygon fill="#63b8ff" stroke="#63b8ff" points="140.97,-46.07 134.85,-54.72 145.03,-51.78 140.97,-46.07"/>
</a>
</g>
</g>
</g>
</svg>
