<?xml version="1.0" encoding="UTF-8" standalone="no"?>
<!DOCTYPE svg PUBLIC "-//W3C//DTD SVG 1.1//EN"
 "http://www.w3.org/Graphics/SVG/1.1/DTD/svg11.dtd">
<!-- Generated by graphviz version 10.0.1 (0)
 -->
<!-- Title: include/lib/ErrorBuilder.hpp Pages: 1 -->
<svg width="245pt" height="86pt"
 viewBox="0.00 0.00 245.38 85.50" xmlns="http://www.w3.org/2000/svg" xmlns:xlink="http://www.w3.org/1999/xlink">
<g id="graph0" class="graph" transform="scale(1 1) rotate(0) translate(4 81.5)">
<title>include/lib/ErrorBuilder.hpp</title>
<!-- Node1 -->
<g id="Node000001" class="node">
<title>Node1</title>
<g id="a_Node000001"><a xlink:title=" ">
<polygon fill="#999999" stroke="#666666" points="195.12,-77.5 47.88,-77.5 47.88,-56.75 195.12,-56.75 195.12,-77.5"/>
<text text-anchor="middle" x="121.5" y="-64" font-family="Helvetica,sans-Serif" font-size="10.00">include/lib/ErrorBuilder.hpp</text>
</a>
</g>
</g>
<!-- Node2 -->
<g id="Node000002" class="node">
<title>Node2</title>
<g id="a_Node000002"><a xlink:title=" ">
<polygon fill="#e0e0e0" stroke="#999999" points="49,-20.75 0,-20.75 0,0 49,0 49,-20.75"/>
<text text-anchor="middle" x="24.5" y="-7.25" font-family="Helvetica,sans-Serif" font-size="10.00">format</text>
</a>
</g>
</g>
<!-- Node1&#45;&gt;Node2 -->
<g id="edge1_Node000001_Node000002" class="edge">
<title>Node1&#45;&gt;Node2</title>
<g id="a_edge1_Node000001_Node000002"><a xlink:title=" ">
<path fill="none" stroke="#63b8ff" d="M104.16,-56.34C89.54,-48.08 68.36,-36.13 51.52,-26.63"/>
<polygon fill="#63b8ff" stroke="#63b8ff" points="53.44,-23.69 43.01,-21.82 50,-29.79 53.44,-23.69"/>
</a>
</g>
</g>
<!-- Node3 -->
<g id="Node000003" class="node">
<title>Node3</title>
<g id="a_Node000003"><a xlink:title=" ">
<polygon fill="#e0e0e0" stroke="#999999" points="176,-20.75 67,-20.75 67,0 176,0 176,-20.75"/>
<text text-anchor="middle" x="121.5" y="-7.25" font-family="Helvetica,sans-Serif" font-size="10.00">nlohmann/json.hpp</text>
</a>
</g>
</g>
<!-- Node1&#45;&gt;Node3 -->
<g id="edge2_Node000001_Node000003" class="edge">
<title>Node1&#45;&gt;Node3</title>
<g id="a_edge2_Node000001_Node000003"><a xlink:title=" ">
<path fill="none" stroke="#63b8ff" d="M121.5,-56.34C121.5,-49.72 121.5,-40.72 121.5,-32.52"/>
<polygon fill="#63b8ff" stroke="#63b8ff" points="125,-32.59 121.5,-22.59 118,-32.59 125,-32.59"/>
</a>
</g>
</g>
<!-- Node4 -->
<g id="Node000004" class="node">
<title>Node4</title>
<g id="a_Node000004"><a xlink:title=" ">
<polygon fill="#e0e0e0" stroke="#999999" points="237.38,-20.75 193.62,-20.75 193.62,0 237.38,0 237.38,-20.75"/>
<text text-anchor="middle" x="215.5" y="-7.25" font-family="Helvetica,sans-Serif" font-size="10.00">string</text>
</a>
</g>
</g>
<!-- Node1&#45;&gt;Node4 -->
<g id="edge3_Node000001_Node000004" class="edge">
<title>Node1&#45;&gt;Node4</title>
<g id="a_edge3_Node000001_Node000004"><a xlink:title=" ">
<path fill="none" stroke="#63b8ff" d="M138.31,-56.34C152.47,-48.08 172.99,-36.13 189.31,-26.63"/>
<polygon fill="#63b8ff" stroke="#63b8ff" points="190.65,-29.9 197.53,-21.84 187.13,-23.85 190.65,-29.9"/>
</a>
</g>
</g>
</g>
</svg>
