<?xml version="1.0" encoding="UTF-8" standalone="no"?>
<!DOCTYPE svg PUBLIC "-//W3C//DTD SVG 1.1//EN"
 "http://www.w3.org/Graphics/SVG/1.1/DTD/svg11.dtd">
<!-- Generated by graphviz version 10.0.1 (0)
 -->
<!-- Title: include/lib/Helpers.hpp Pages: 1 -->
<svg width="552pt" height="142pt"
 viewBox="0.00 0.00 552.12 142.25" xmlns="http://www.w3.org/2000/svg" xmlns:xlink="http://www.w3.org/1999/xlink">
<g id="graph0" class="graph" transform="scale(1 1) rotate(0) translate(4 138.25)">
<title>include/lib/Helpers.hpp</title>
<!-- Node1 -->
<g id="Node000001" class="node">
<title>Node1</title>
<g id="a_Node000001"><a xlink:title=" ">
<polygon fill="#999999" stroke="#666666" points="299.75,-134.25 172,-134.25 172,-113.5 299.75,-113.5 299.75,-134.25"/>
<text text-anchor="middle" x="235.88" y="-120.75" font-family="Helvetica,sans-Serif" font-size="10.00">include/lib/Helpers.hpp</text>
</a>
</g>
</g>
<!-- Node2 -->
<g id="Node000002" class="node">
<title>Node2</title>
<g id="a_Node000002"><a xlink:title=" ">
<polygon fill="#e0e0e0" stroke="#999999" points="169.75,-77.5 0,-77.5 0,-56.75 169.75,-56.75 169.75,-77.5"/>
<text text-anchor="middle" x="84.88" y="-64" font-family="Helvetica,sans-Serif" font-size="10.00">boost/uuid/uuid_generators.hpp</text>
</a>
</g>
</g>
<!-- Node1&#45;&gt;Node2 -->
<g id="edge1_Node000001_Node000002" class="edge">
<title>Node1&#45;&gt;Node2</title>
<g id="a_edge1_Node000001_Node000002"><a xlink:title=" ">
<path fill="none" stroke="#63b8ff" d="M208.88,-113.09C184.8,-104.36 149.3,-91.48 122.45,-81.75"/>
<polygon fill="#63b8ff" stroke="#63b8ff" points="123.91,-78.55 113.31,-78.44 121.52,-85.14 123.91,-78.55"/>
</a>
</g>
</g>
<!-- Node3 -->
<g id="Node000003" class="node">
<title>Node3</title>
<g id="a_Node000003"><a xlink:title=" ">
<polygon fill="#e0e0e0" stroke="#999999" points="221.38,-20.75 112.38,-20.75 112.38,0 221.38,0 221.38,-20.75"/>
<text text-anchor="middle" x="166.88" y="-7.25" font-family="Helvetica,sans-Serif" font-size="10.00">nlohmann/json.hpp</text>
</a>
</g>
</g>
<!-- Node1&#45;&gt;Node3 -->
<g id="edge2_Node000001_Node000003" class="edge">
<title>Node1&#45;&gt;Node3</title>
<g id="a_edge2_Node000001_Node000003"><a xlink:title=" ">
<path fill="none" stroke="#63b8ff" d="M229.99,-113.37C218.69,-95.11 193.76,-54.81 178.83,-30.7"/>
<polygon fill="#63b8ff" stroke="#63b8ff" points="181.97,-29.12 173.74,-22.46 176.02,-32.81 181.97,-29.12"/>
</a>
</g>
</g>
<!-- Node4 -->
<g id="Node000004" class="node">
<title>Node4</title>
<g id="a_Node000004"><a xlink:title=" ">
<polygon fill="#e0e0e0" stroke="#999999" points="316.25,-20.75 239.5,-20.75 239.5,0 316.25,0 316.25,-20.75"/>
<text text-anchor="middle" x="277.88" y="-7.25" font-family="Helvetica,sans-Serif" font-size="10.00">pugixml.hpp</text>
</a>
</g>
</g>
<!-- Node1&#45;&gt;Node4 -->
<g id="edge3_Node000001_Node000004" class="edge">
<title>Node1&#45;&gt;Node4</title>
<g id="a_edge3_Node000001_Node000004"><a xlink:title=" ">
<path fill="none" stroke="#63b8ff" d="M238.03,-113.27C241.09,-100.23 247.19,-76.32 254.88,-56.75 258.26,-48.15 262.72,-38.99 266.81,-31.18"/>
<polygon fill="#63b8ff" stroke="#63b8ff" points="269.8,-33.01 271.48,-22.55 263.64,-29.68 269.8,-33.01"/>
</a>
</g>
</g>
<!-- Node5 -->
<g id="Node000005" class="node">
<title>Node5</title>
<g id="a_Node000005"><a xlink:title=" ">
<polygon fill="#e0e0e0" stroke="#999999" points="499.75,-77.5 456,-77.5 456,-56.75 499.75,-56.75 499.75,-77.5"/>
<text text-anchor="middle" x="477.88" y="-64" font-family="Helvetica,sans-Serif" font-size="10.00">regex</text>
</a>
</g>
</g>
<!-- Node1&#45;&gt;Node5 -->
<g id="edge4_Node000001_Node000005" class="edge">
<title>Node1&#45;&gt;Node5</title>
<g id="a_edge4_Node000001_Node000005"><a xlink:title=" ">
<path fill="none" stroke="#63b8ff" d="M287.31,-113.04C327.7,-105.04 385.55,-92.98 444.56,-77.95"/>
<polygon fill="#63b8ff" stroke="#63b8ff" points="445.31,-81.37 454.12,-75.48 443.56,-74.59 445.31,-81.37"/>
</a>
</g>
</g>
<!-- Node6 -->
<g id="Node000006" class="node">
<title>Node6</title>
<g id="a_Node000006"><a xlink:href="ConfigService_8hpp.html" target="_top" xlink:title=" ">
<polygon fill="white" stroke="#666666" points="438,-77.5 263.75,-77.5 263.75,-56.75 438,-56.75 438,-77.5"/>
<text text-anchor="middle" x="350.88" y="-64" font-family="Helvetica,sans-Serif" font-size="10.00">validation&#45;api/ConfigService.hpp</text>
</a>
</g>
</g>
<!-- Node1&#45;&gt;Node6 -->
<g id="edge5_Node000001_Node000006" class="edge">
<title>Node1&#45;&gt;Node6</title>
<g id="a_edge5_Node000001_Node000006"><a xlink:title=" ">
<path fill="none" stroke="#63b8ff" d="M256.43,-113.09C274.18,-104.64 300.06,-92.32 320.24,-82.71"/>
<polygon fill="#63b8ff" stroke="#63b8ff" points="321.6,-85.94 329.13,-78.48 318.59,-79.62 321.6,-85.94"/>
</a>
</g>
</g>
<!-- Node6&#45;&gt;Node3 -->
<g id="edge8_Node000006_Node000003" class="edge">
<title>Node6&#45;&gt;Node3</title>
<g id="a_edge8_Node000006_Node000003"><a xlink:title=" ">
<path fill="none" stroke="#63b8ff" d="M317.98,-56.34C287.98,-47.41 243.45,-34.16 210.49,-24.35"/>
<polygon fill="#63b8ff" stroke="#63b8ff" points="211.83,-21.1 201.25,-21.6 209.83,-27.81 211.83,-21.1"/>
</a>
</g>
</g>
<!-- Node6&#45;&gt;Node4 -->
<g id="edge9_Node000006_Node000004" class="edge">
<title>Node6&#45;&gt;Node4</title>
<g id="a_edge9_Node000006_Node000004"><a xlink:title=" ">
<path fill="none" stroke="#63b8ff" d="M337.82,-56.34C327.24,-48.4 312.08,-37.03 299.66,-27.71"/>
<polygon fill="#63b8ff" stroke="#63b8ff" points="302.12,-25.19 292.02,-21.99 297.92,-30.79 302.12,-25.19"/>
</a>
</g>
</g>
<!-- Node7 -->
<g id="Node000007" class="node">
<title>Node7</title>
<g id="a_Node000007"><a xlink:title=" ">
<polygon fill="#e0e0e0" stroke="#999999" points="427.12,-20.75 334.62,-20.75 334.62,0 427.12,0 427.12,-20.75"/>
<text text-anchor="middle" x="380.88" y="-7.25" font-family="Helvetica,sans-Serif" font-size="10.00">spdlog/spdlog.h</text>
</a>
</g>
</g>
<!-- Node6&#45;&gt;Node7 -->
<g id="edge6_Node000006_Node000007" class="edge">
<title>Node6&#45;&gt;Node7</title>
<g id="a_edge6_Node000006_Node000007"><a xlink:title=" ">
<path fill="none" stroke="#63b8ff" d="M356.24,-56.34C360.08,-49.33 365.38,-39.66 370.08,-31.08"/>
<polygon fill="#63b8ff" stroke="#63b8ff" points="373.09,-32.86 374.83,-22.41 366.96,-29.49 373.09,-32.86"/>
</a>
</g>
</g>
<!-- Node8 -->
<g id="Node000008" class="node">
<title>Node8</title>
<g id="a_Node000008"><a xlink:title=" ">
<polygon fill="#e0e0e0" stroke="#999999" points="544.12,-20.75 445.62,-20.75 445.62,0 544.12,0 544.12,-20.75"/>
<text text-anchor="middle" x="494.88" y="-7.25" font-family="Helvetica,sans-Serif" font-size="10.00">boost/thread.hpp</text>
</a>
</g>
</g>
<!-- Node6&#45;&gt;Node8 -->
<g id="edge7_Node000006_Node000008" class="edge">
<title>Node6&#45;&gt;Node8</title>
<g id="a_edge7_Node000006_Node000008"><a xlink:title=" ">
<path fill="none" stroke="#63b8ff" d="M376.62,-56.34C399.45,-47.66 433.05,-34.88 458.6,-25.17"/>
<polygon fill="#63b8ff" stroke="#63b8ff" points="459.84,-28.44 467.94,-21.62 457.35,-21.9 459.84,-28.44"/>
</a>
</g>
</g>
</g>
</svg>
