<?xml version="1.0" encoding="UTF-8" standalone="no"?>
<!DOCTYPE svg PUBLIC "-//W3C//DTD SVG 1.1//EN"
 "http://www.w3.org/Graphics/SVG/1.1/DTD/svg11.dtd">
<!-- Generated by graphviz version 10.0.1 (0)
 -->
<!-- Title: src/lib/Helpers.cpp Pages: 1 -->
<svg width="873pt" height="199pt"
 viewBox="0.00 0.00 872.50 199.00" xmlns="http://www.w3.org/2000/svg" xmlns:xlink="http://www.w3.org/1999/xlink">
<g id="graph0" class="graph" transform="scale(1 1) rotate(0) translate(4 195)">
<title>src/lib/Helpers.cpp</title>
<!-- Node1 -->
<g id="Node000001" class="node">
<title>Node1</title>
<g id="a_Node000001"><a xlink:title=" ">
<polygon fill="#999999" stroke="#666666" points="533.62,-191 427.62,-191 427.62,-170.25 533.62,-170.25 533.62,-191"/>
<text text-anchor="middle" x="480.62" y="-177.5" font-family="Helvetica,sans-Serif" font-size="10.00">src/lib/Helpers.cpp</text>
</a>
</g>
</g>
<!-- Node2 -->
<g id="Node000002" class="node">
<title>Node2</title>
<g id="a_Node000002"><a xlink:title=" ">
<polygon fill="#e0e0e0" stroke="#999999" points="87.25,-134.25 0,-134.25 0,-113.5 87.25,-113.5 87.25,-134.25"/>
<text text-anchor="middle" x="43.62" y="-120.75" font-family="Helvetica,sans-Serif" font-size="10.00">boost/asio.hpp</text>
</a>
</g>
</g>
<!-- Node1&#45;&gt;Node2 -->
<g id="edge1_Node000001_Node000002" class="edge">
<title>Node1&#45;&gt;Node2</title>
<g id="a_edge1_Node000001_Node000002"><a xlink:title=" ">
<path fill="none" stroke="#63b8ff" d="M427.39,-174.31C355.31,-166.9 222.42,-152.48 98.73,-134.48"/>
<polygon fill="#63b8ff" stroke="#63b8ff" points="99.45,-131.05 89.05,-133.07 98.44,-137.98 99.45,-131.05"/>
</a>
</g>
</g>
<!-- Node3 -->
<g id="Node000003" class="node">
<title>Node3</title>
<g id="a_Node000003"><a xlink:title=" ">
<polygon fill="#e0e0e0" stroke="#999999" points="193.62,-134.25 105.62,-134.25 105.62,-113.5 193.62,-113.5 193.62,-134.25"/>
<text text-anchor="middle" x="149.62" y="-120.75" font-family="Helvetica,sans-Serif" font-size="10.00">boost/uuid.hpp</text>
</a>
</g>
</g>
<!-- Node1&#45;&gt;Node3 -->
<g id="edge2_Node000001_Node000003" class="edge">
<title>Node1&#45;&gt;Node3</title>
<g id="a_edge2_Node000001_Node000003"><a xlink:title=" ">
<path fill="none" stroke="#63b8ff" d="M427.3,-171.14C373.71,-162.56 288.45,-148.78 205.08,-134.65"/>
<polygon fill="#63b8ff" stroke="#63b8ff" points="205.8,-131.22 195.36,-133 204.63,-138.12 205.8,-131.22"/>
</a>
</g>
</g>
<!-- Node4 -->
<g id="Node000004" class="node">
<title>Node4</title>
<g id="a_Node000004"><a xlink:title=" ">
<polygon fill="#e0e0e0" stroke="#999999" points="259.75,-134.25 211.5,-134.25 211.5,-113.5 259.75,-113.5 259.75,-134.25"/>
<text text-anchor="middle" x="235.62" y="-120.75" font-family="Helvetica,sans-Serif" font-size="10.00">cctype</text>
</a>
</g>
</g>
<!-- Node1&#45;&gt;Node4 -->
<g id="edge3_Node000001_Node000004" class="edge">
<title>Node1&#45;&gt;Node4</title>
<g id="a_edge3_Node000001_Node000004"><a xlink:title=" ">
<path fill="none" stroke="#63b8ff" d="M430.99,-169.79C390.54,-161.58 331.71,-149.22 271.04,-134.48"/>
<polygon fill="#63b8ff" stroke="#63b8ff" points="272.11,-131.14 261.57,-132.16 270.45,-137.94 272.11,-131.14"/>
</a>
</g>
</g>
<!-- Node5 -->
<g id="Node000005" class="node">
<title>Node5</title>
<g id="a_Node000005"><a xlink:title=" ">
<polygon fill="#e0e0e0" stroke="#999999" points="325,-134.25 278.25,-134.25 278.25,-113.5 325,-113.5 325,-134.25"/>
<text text-anchor="middle" x="301.62" y="-120.75" font-family="Helvetica,sans-Serif" font-size="10.00">cmath</text>
</a>
</g>
</g>
<!-- Node1&#45;&gt;Node5 -->
<g id="edge4_Node000001_Node000005" class="edge">
<title>Node1&#45;&gt;Node5</title>
<g id="a_edge4_Node000001_Node000005"><a xlink:title=" ">
<path fill="none" stroke="#63b8ff" d="M448.62,-169.84C416.96,-160.15 368.64,-145.37 336.14,-135.43"/>
<polygon fill="#63b8ff" stroke="#63b8ff" points="337.38,-132.15 326.8,-132.57 335.33,-138.85 337.38,-132.15"/>
</a>
</g>
</g>
<!-- Node6 -->
<g id="Node000006" class="node">
<title>Node6</title>
<g id="a_Node000006"><a xlink:title=" ">
<polygon fill="#e0e0e0" stroke="#999999" points="449.12,-77.5 400.12,-77.5 400.12,-56.75 449.12,-56.75 449.12,-77.5"/>
<text text-anchor="middle" x="424.62" y="-64" font-family="Helvetica,sans-Serif" font-size="10.00">format</text>
</a>
</g>
</g>
<!-- Node1&#45;&gt;Node6 -->
<g id="edge5_Node000001_Node000006" class="edge">
<title>Node1&#45;&gt;Node6</title>
<g id="a_edge5_Node000001_Node000006"><a xlink:title=" ">
<path fill="none" stroke="#63b8ff" d="M478.85,-169.77C476.2,-156.44 470.41,-132.2 460.62,-113.5 455.53,-103.77 448.23,-94.08 441.53,-86.17"/>
<polygon fill="#63b8ff" stroke="#63b8ff" points="444.37,-84.09 435.12,-78.93 439.13,-88.74 444.37,-84.09"/>
</a>
</g>
</g>
<!-- Node7 -->
<g id="Node000007" class="node">
<title>Node7</title>
<g id="a_Node000007"><a xlink:href="Helpers_8hpp.html" target="_top" xlink:title=" ">
<polygon fill="white" stroke="#666666" points="598.38,-134.25 508.88,-134.25 508.88,-113.5 598.38,-113.5 598.38,-134.25"/>
<text text-anchor="middle" x="553.62" y="-120.75" font-family="Helvetica,sans-Serif" font-size="10.00">lib/Helpers.hpp</text>
</a>
</g>
</g>
<!-- Node1&#45;&gt;Node7 -->
<g id="edge6_Node000001_Node000007" class="edge">
<title>Node1&#45;&gt;Node7</title>
<g id="a_edge6_Node000001_Node000007"><a xlink:title=" ">
<path fill="none" stroke="#63b8ff" d="M493.68,-169.84C504.26,-161.9 519.42,-150.53 531.84,-141.21"/>
<polygon fill="#63b8ff" stroke="#63b8ff" points="533.58,-144.29 539.48,-135.49 529.38,-138.69 533.58,-144.29"/>
</a>
</g>
</g>
<!-- Node10 -->
<g id="Node000010" class="node">
<title>Node10</title>
<g id="a_Node000010"><a xlink:href="ConfigService_8hpp.html" target="_top" xlink:title=" ">
<polygon fill="white" stroke="#666666" points="734.75,-77.5 560.5,-77.5 560.5,-56.75 734.75,-56.75 734.75,-77.5"/>
<text text-anchor="middle" x="647.62" y="-64" font-family="Helvetica,sans-Serif" font-size="10.00">validation&#45;api/ConfigService.hpp</text>
</a>
</g>
</g>
<!-- Node1&#45;&gt;Node10 -->
<g id="edge19_Node000001_Node000010" class="edge">
<title>Node1&#45;&gt;Node10</title>
<g id="a_edge19_Node000001_Node000010"><a xlink:title=" ">
<path fill="none" stroke="#63b8ff" d="M531.96,-169.78C556.84,-163.01 585.96,-151.95 607.62,-134.25 622.55,-122.06 633.32,-102.74 639.89,-88.12"/>
<polygon fill="#63b8ff" stroke="#63b8ff" points="643.07,-89.61 643.69,-79.03 636.61,-86.91 643.07,-89.61"/>
</a>
</g>
</g>
<!-- Node13 -->
<g id="Node000013" class="node">
<title>Node13</title>
<g id="a_Node000013"><a xlink:title=" ">
<polygon fill="#e0e0e0" stroke="#999999" points="698.5,-134.25 654.75,-134.25 654.75,-113.5 698.5,-113.5 698.5,-134.25"/>
<text text-anchor="middle" x="676.62" y="-120.75" font-family="Helvetica,sans-Serif" font-size="10.00">regex</text>
</a>
</g>
</g>
<!-- Node1&#45;&gt;Node13 -->
<g id="edge14_Node000001_Node000013" class="edge">
<title>Node1&#45;&gt;Node13</title>
<g id="a_edge14_Node000001_Node000013"><a xlink:title=" ">
<path fill="none" stroke="#63b8ff" d="M515.67,-169.84C551.93,-159.71 608.14,-144 643.64,-134.09"/>
<polygon fill="#63b8ff" stroke="#63b8ff" points="644.23,-137.56 652.92,-131.5 642.35,-130.82 644.23,-137.56"/>
</a>
</g>
</g>
<!-- Node14 -->
<g id="Node000014" class="node">
<title>Node14</title>
<g id="a_Node000014"><a xlink:title=" ">
<polygon fill="#e0e0e0" stroke="#999999" points="760.5,-134.25 716.75,-134.25 716.75,-113.5 760.5,-113.5 760.5,-134.25"/>
<text text-anchor="middle" x="738.62" y="-120.75" font-family="Helvetica,sans-Serif" font-size="10.00">string</text>
</a>
</g>
</g>
<!-- Node1&#45;&gt;Node14 -->
<g id="edge15_Node000001_Node000014" class="edge">
<title>Node1&#45;&gt;Node14</title>
<g id="a_edge15_Node000001_Node000014"><a xlink:title=" ">
<path fill="none" stroke="#63b8ff" d="M533.7,-170.51C577.38,-162.68 641.12,-150.47 705.22,-134.67"/>
<polygon fill="#63b8ff" stroke="#63b8ff" points="706.02,-138.08 714.88,-132.26 704.33,-131.29 706.02,-138.08"/>
</a>
</g>
</g>
<!-- Node15 -->
<g id="Node000015" class="node">
<title>Node15</title>
<g id="a_Node000015"><a xlink:title=" ">
<polygon fill="#e0e0e0" stroke="#999999" points="864.5,-134.25 778.75,-134.25 778.75,-113.5 864.5,-113.5 864.5,-134.25"/>
<text text-anchor="middle" x="821.62" y="-120.75" font-family="Helvetica,sans-Serif" font-size="10.00">unordered_set</text>
</a>
</g>
</g>
<!-- Node1&#45;&gt;Node15 -->
<g id="edge16_Node000001_Node000015" class="edge">
<title>Node1&#45;&gt;Node15</title>
<g id="a_edge16_Node000001_Node000015"><a xlink:title=" ">
<path fill="none" stroke="#63b8ff" d="M533.95,-171.62C589.61,-163.19 679.72,-149.3 767.29,-134.61"/>
<polygon fill="#63b8ff" stroke="#63b8ff" points="767.73,-138.09 777.02,-132.98 766.57,-131.19 767.73,-138.09"/>
</a>
</g>
</g>
<!-- Node16 -->
<g id="Node000016" class="node">
<title>Node16</title>
<g id="a_Node000016"><a xlink:href="ErrorBuilder_8hpp.html" target="_top" xlink:title=" ">
<polygon fill="white" stroke="#666666" points="452.12,-134.25 343.12,-134.25 343.12,-113.5 452.12,-113.5 452.12,-134.25"/>
<text text-anchor="middle" x="397.62" y="-120.75" font-family="Helvetica,sans-Serif" font-size="10.00">lib/ErrorBuilder.hpp</text>
</a>
</g>
</g>
<!-- Node1&#45;&gt;Node16 -->
<g id="edge17_Node000001_Node000016" class="edge">
<title>Node1&#45;&gt;Node16</title>
<g id="a_edge17_Node000001_Node000016"><a xlink:title=" ">
<path fill="none" stroke="#63b8ff" d="M465.79,-169.84C453.51,-161.74 435.84,-150.08 421.57,-140.67"/>
<polygon fill="#63b8ff" stroke="#63b8ff" points="423.87,-138 413.6,-135.41 420.02,-143.84 423.87,-138"/>
</a>
</g>
</g>
<!-- Node8 -->
<g id="Node000008" class="node">
<title>Node8</title>
<g id="a_Node000008"><a xlink:title=" ">
<polygon fill="#e0e0e0" stroke="#999999" points="516.12,-20.75 407.12,-20.75 407.12,0 516.12,0 516.12,-20.75"/>
<text text-anchor="middle" x="461.62" y="-7.25" font-family="Helvetica,sans-Serif" font-size="10.00">nlohmann/json.hpp</text>
</a>
</g>
</g>
<!-- Node7&#45;&gt;Node8 -->
<g id="edge7_Node000007_Node000008" class="edge">
<title>Node7&#45;&gt;Node8</title>
<g id="a_edge7_Node000007_Node000008"><a xlink:title=" ">
<path fill="none" stroke="#63b8ff" d="M545.78,-113.37C530.58,-94.95 496.87,-54.09 477.03,-30.05"/>
<polygon fill="#63b8ff" stroke="#63b8ff" points="479.74,-27.83 470.67,-22.34 474.34,-32.28 479.74,-27.83"/>
</a>
</g>
</g>
<!-- Node9 -->
<g id="Node000009" class="node">
<title>Node9</title>
<g id="a_Node000009"><a xlink:title=" ">
<polygon fill="#e0e0e0" stroke="#999999" points="611,-20.75 534.25,-20.75 534.25,0 611,0 611,-20.75"/>
<text text-anchor="middle" x="572.62" y="-7.25" font-family="Helvetica,sans-Serif" font-size="10.00">pugixml.hpp</text>
</a>
</g>
</g>
<!-- Node7&#45;&gt;Node9 -->
<g id="edge8_Node000007_Node000009" class="edge">
<title>Node7&#45;&gt;Node9</title>
<g id="a_edge8_Node000007_Node000009"><a xlink:title=" ">
<path fill="none" stroke="#63b8ff" d="M551.89,-113.32C549.85,-100.34 547.28,-76.49 551.62,-56.75 553.56,-47.98 557.36,-38.89 561.2,-31.16"/>
<polygon fill="#63b8ff" stroke="#63b8ff" points="564.28,-32.83 565.93,-22.36 558.11,-29.51 564.28,-32.83"/>
</a>
</g>
</g>
<!-- Node7&#45;&gt;Node10 -->
<g id="edge9_Node000007_Node000010" class="edge">
<title>Node7&#45;&gt;Node10</title>
<g id="a_edge9_Node000007_Node000010"><a xlink:title=" ">
<path fill="none" stroke="#63b8ff" d="M570.43,-113.09C584.6,-104.83 605.12,-92.88 621.44,-83.38"/>
<polygon fill="#63b8ff" stroke="#63b8ff" points="622.78,-86.65 629.66,-78.59 619.25,-80.6 622.78,-86.65"/>
</a>
</g>
</g>
<!-- Node10&#45;&gt;Node8 -->
<g id="edge12_Node000010_Node000008" class="edge">
<title>Node10&#45;&gt;Node8</title>
<g id="a_edge12_Node000010_Node000008"><a xlink:title=" ">
<path fill="none" stroke="#63b8ff" d="M614.37,-56.34C584.05,-47.41 539.03,-34.16 505.71,-24.35"/>
<polygon fill="#63b8ff" stroke="#63b8ff" points="506.94,-21.06 496.36,-21.6 504.96,-27.78 506.94,-21.06"/>
</a>
</g>
</g>
<!-- Node10&#45;&gt;Node9 -->
<g id="edge13_Node000010_Node000009" class="edge">
<title>Node10&#45;&gt;Node9</title>
<g id="a_edge13_Node000010_Node000009"><a xlink:title=" ">
<path fill="none" stroke="#63b8ff" d="M634.22,-56.34C623.34,-48.4 607.77,-37.03 595.01,-27.71"/>
<polygon fill="#63b8ff" stroke="#63b8ff" points="597.28,-25.04 587.14,-21.97 593.15,-30.69 597.28,-25.04"/>
</a>
</g>
</g>
<!-- Node11 -->
<g id="Node000011" class="node">
<title>Node11</title>
<g id="a_Node000011"><a xlink:title=" ">
<polygon fill="#e0e0e0" stroke="#999999" points="721.88,-20.75 629.38,-20.75 629.38,0 721.88,0 721.88,-20.75"/>
<text text-anchor="middle" x="675.62" y="-7.25" font-family="Helvetica,sans-Serif" font-size="10.00">spdlog/spdlog.h</text>
</a>
</g>
</g>
<!-- Node10&#45;&gt;Node11 -->
<g id="edge10_Node000010_Node000011" class="edge">
<title>Node10&#45;&gt;Node11</title>
<g id="a_edge10_Node000010_Node000011"><a xlink:title=" ">
<path fill="none" stroke="#63b8ff" d="M652.63,-56.34C656.21,-49.33 661.16,-39.66 665.55,-31.08"/>
<polygon fill="#63b8ff" stroke="#63b8ff" points="668.54,-32.92 669.97,-22.43 662.3,-29.74 668.54,-32.92"/>
</a>
</g>
</g>
<!-- Node12 -->
<g id="Node000012" class="node">
<title>Node12</title>
<g id="a_Node000012"><a xlink:title=" ">
<polygon fill="#e0e0e0" stroke="#999999" points="838.88,-20.75 740.38,-20.75 740.38,0 838.88,0 838.88,-20.75"/>
<text text-anchor="middle" x="789.62" y="-7.25" font-family="Helvetica,sans-Serif" font-size="10.00">boost/thread.hpp</text>
</a>
</g>
</g>
<!-- Node10&#45;&gt;Node12 -->
<g id="edge11_Node000010_Node000012" class="edge">
<title>Node10&#45;&gt;Node12</title>
<g id="a_edge11_Node000010_Node000012"><a xlink:title=" ">
<path fill="none" stroke="#63b8ff" d="M673.01,-56.34C695.53,-47.66 728.65,-34.88 753.85,-25.17"/>
<polygon fill="#63b8ff" stroke="#63b8ff" points="754.97,-28.49 763.05,-21.62 752.46,-21.95 754.97,-28.49"/>
</a>
</g>
</g>
<!-- Node16&#45;&gt;Node6 -->
<g id="edge18_Node000016_Node000006" class="edge">
<title>Node16&#45;&gt;Node6</title>
<g id="a_edge18_Node000016_Node000006"><a xlink:title=" ">
<path fill="none" stroke="#63b8ff" d="M402.45,-113.09C405.87,-106.16 410.57,-96.62 414.77,-88.11"/>
<polygon fill="#63b8ff" stroke="#63b8ff" points="417.89,-89.7 419.17,-79.19 411.61,-86.61 417.89,-89.7"/>
</a>
</g>
</g>
</g>
</svg>
