<?xml version="1.0" encoding="UTF-8" standalone="no"?>
<!DOCTYPE svg PUBLIC "-//W3C//DTD SVG 1.1//EN"
 "http://www.w3.org/Graphics/SVG/1.1/DTD/svg11.dtd">
<!-- Generated by graphviz version 10.0.1 (0)
 -->
<!-- Title: include/lib/Helpers.hpp Pages: 1 -->
<svg width="694pt" height="155pt"
 viewBox="0.00 0.00 694.25 155.00" xmlns="http://www.w3.org/2000/svg" xmlns:xlink="http://www.w3.org/1999/xlink">
<g id="graph0" class="graph" transform="scale(1 1) rotate(0) translate(4 151)">
<title>include/lib/Helpers.hpp</title>
<!-- Node1 -->
<g id="Node000001" class="node">
<title>Node1</title>
<g id="a_Node000001"><a xlink:title=" ">
<polygon fill="#999999" stroke="#666666" points="422.88,-147 295.12,-147 295.12,-126.25 422.88,-126.25 422.88,-147"/>
<text text-anchor="middle" x="359" y="-133.5" font-family="Helvetica,sans-Serif" font-size="10.00">include/lib/Helpers.hpp</text>
</a>
</g>
</g>
<!-- Node2 -->
<g id="Node000002" class="node">
<title>Node2</title>
<g id="a_Node000002"><a xlink:title=" ">
<polygon fill="#e0e0e0" stroke="#999999" points="124,-90.25 0,-90.25 0,-56.75 124,-56.75 124,-90.25"/>
<text text-anchor="start" x="8" y="-76.75" font-family="Helvetica,sans-Serif" font-size="10.00">boost/algorithm/string</text>
<text text-anchor="middle" x="62" y="-64" font-family="Helvetica,sans-Serif" font-size="10.00">/trim.hpp</text>
</a>
</g>
</g>
<!-- Node1&#45;&gt;Node2 -->
<g id="edge1_Node000001_Node000002" class="edge">
<title>Node1&#45;&gt;Node2</title>
<g id="a_edge1_Node000001_Node000002"><a xlink:title=" ">
<path fill="none" stroke="#63b8ff" d="M308.67,-125.82C265.25,-117.3 200.57,-104.44 135.24,-90.7"/>
<polygon fill="#63b8ff" stroke="#63b8ff" points="136.31,-87.35 125.8,-88.71 134.87,-94.2 136.31,-87.35"/>
</a>
</g>
</g>
<!-- Node3 -->
<g id="Node000003" class="node">
<title>Node3</title>
<g id="a_Node000003"><a xlink:title=" ">
<polygon fill="#e0e0e0" stroke="#999999" points="311.88,-83.88 142.12,-83.88 142.12,-63.12 311.88,-63.12 311.88,-83.88"/>
<text text-anchor="middle" x="227" y="-70.38" font-family="Helvetica,sans-Serif" font-size="10.00">boost/uuid/uuid_generators.hpp</text>
</a>
</g>
</g>
<!-- Node1&#45;&gt;Node3 -->
<g id="edge2_Node000001_Node000003" class="edge">
<title>Node1&#45;&gt;Node3</title>
<g id="a_edge2_Node000001_Node000003"><a xlink:title=" ">
<path fill="none" stroke="#63b8ff" d="M337.79,-125.8C316.33,-115.87 282.92,-100.39 258.39,-89.04"/>
<polygon fill="#63b8ff" stroke="#63b8ff" points="260.07,-85.96 249.53,-84.93 257.13,-92.31 260.07,-85.96"/>
</a>
</g>
</g>
<!-- Node4 -->
<g id="Node000004" class="node">
<title>Node4</title>
<g id="a_Node000004"><a xlink:title=" ">
<polygon fill="#e0e0e0" stroke="#999999" points="363.5,-20.75 254.5,-20.75 254.5,0 363.5,0 363.5,-20.75"/>
<text text-anchor="middle" x="309" y="-7.25" font-family="Helvetica,sans-Serif" font-size="10.00">nlohmann/json.hpp</text>
</a>
</g>
</g>
<!-- Node1&#45;&gt;Node4 -->
<g id="edge3_Node000001_Node000004" class="edge">
<title>Node1&#45;&gt;Node4</title>
<g id="a_edge3_Node000001_Node000004"><a xlink:title=" ">
<path fill="none" stroke="#63b8ff" d="M355.08,-125.88C346.93,-105.64 328.06,-58.73 317.16,-31.65"/>
<polygon fill="#63b8ff" stroke="#63b8ff" points="320.45,-30.45 313.47,-22.48 313.96,-33.07 320.45,-30.45"/>
</a>
</g>
</g>
<!-- Node5 -->
<g id="Node000005" class="node">
<title>Node5</title>
<g id="a_Node000005"><a xlink:title=" ">
<polygon fill="#e0e0e0" stroke="#999999" points="458.38,-20.75 381.62,-20.75 381.62,0 458.38,0 458.38,-20.75"/>
<text text-anchor="middle" x="420" y="-7.25" font-family="Helvetica,sans-Serif" font-size="10.00">pugixml.hpp</text>
</a>
</g>
</g>
<!-- Node1&#45;&gt;Node5 -->
<g id="edge4_Node000001_Node000005" class="edge">
<title>Node1&#45;&gt;Node5</title>
<g id="a_edge4_Node000001_Node000005"><a xlink:title=" ">
<path fill="none" stroke="#63b8ff" d="M363.62,-125.88C370.71,-110.95 384.74,-81.55 397,-56.75 401.15,-48.35 405.81,-39.13 409.84,-31.2"/>
<polygon fill="#63b8ff" stroke="#63b8ff" points="412.89,-32.93 414.32,-22.43 406.65,-29.75 412.89,-32.93"/>
</a>
</g>
</g>
<!-- Node6 -->
<g id="Node000006" class="node">
<title>Node6</title>
<g id="a_Node000006"><a xlink:title=" ">
<polygon fill="#e0e0e0" stroke="#999999" points="641.88,-83.88 598.12,-83.88 598.12,-63.12 641.88,-63.12 641.88,-83.88"/>
<text text-anchor="middle" x="620" y="-70.38" font-family="Helvetica,sans-Serif" font-size="10.00">regex</text>
</a>
</g>
</g>
<!-- Node1&#45;&gt;Node6 -->
<g id="edge5_Node000001_Node000006" class="edge">
<title>Node1&#45;&gt;Node6</title>
<g id="a_edge5_Node000001_Node000006"><a xlink:title=" ">
<path fill="none" stroke="#63b8ff" d="M423.2,-127.79C470.04,-120.92 534.56,-109.04 589,-90.25 590.14,-89.86 591.29,-89.43 592.45,-88.97"/>
<polygon fill="#63b8ff" stroke="#63b8ff" points="593.61,-92.29 601.28,-84.98 590.73,-85.91 593.61,-92.29"/>
</a>
</g>
</g>
<!-- Node7 -->
<g id="Node000007" class="node">
<title>Node7</title>
<g id="a_Node000007"><a xlink:href="ConfigService_8hpp.html" target="_top" xlink:title=" ">
<polygon fill="white" stroke="#666666" points="580.12,-83.88 405.88,-83.88 405.88,-63.12 580.12,-63.12 580.12,-83.88"/>
<text text-anchor="middle" x="493" y="-70.38" font-family="Helvetica,sans-Serif" font-size="10.00">validation&#45;api/ConfigService.hpp</text>
</a>
</g>
</g>
<!-- Node1&#45;&gt;Node7 -->
<g id="edge6_Node000001_Node000007" class="edge">
<title>Node1&#45;&gt;Node7</title>
<g id="a_edge6_Node000001_Node000007"><a xlink:title=" ">
<path fill="none" stroke="#63b8ff" d="M380.53,-125.8C402.31,-115.87 436.24,-100.39 461.13,-89.04"/>
<polygon fill="#63b8ff" stroke="#63b8ff" points="462.5,-92.26 470.15,-84.92 459.6,-85.89 462.5,-92.26"/>
</a>
</g>
</g>
<!-- Node7&#45;&gt;Node4 -->
<g id="edge9_Node000007_Node000004" class="edge">
<title>Node7&#45;&gt;Node4</title>
<g id="a_edge9_Node000007_Node000004"><a xlink:title=" ">
<path fill="none" stroke="#63b8ff" d="M463.44,-62.68C432.45,-52.39 383.58,-36.15 349.13,-24.71"/>
<polygon fill="#63b8ff" stroke="#63b8ff" points="350.52,-21.48 339.93,-21.65 348.31,-28.12 350.52,-21.48"/>
</a>
</g>
</g>
<!-- Node7&#45;&gt;Node5 -->
<g id="edge10_Node000007_Node000005" class="edge">
<title>Node7&#45;&gt;Node5</title>
<g id="a_edge10_Node000007_Node000005"><a xlink:title=" ">
<path fill="none" stroke="#63b8ff" d="M481.27,-62.68C470.14,-53.36 453.18,-39.16 439.93,-28.06"/>
<polygon fill="#63b8ff" stroke="#63b8ff" points="442.53,-25.68 432.62,-21.94 438.04,-31.05 442.53,-25.68"/>
</a>
</g>
</g>
<!-- Node8 -->
<g id="Node000008" class="node">
<title>Node8</title>
<g id="a_Node000008"><a xlink:title=" ">
<polygon fill="#e0e0e0" stroke="#999999" points="569.25,-20.75 476.75,-20.75 476.75,0 569.25,0 569.25,-20.75"/>
<text text-anchor="middle" x="523" y="-7.25" font-family="Helvetica,sans-Serif" font-size="10.00">spdlog/spdlog.h</text>
</a>
</g>
</g>
<!-- Node7&#45;&gt;Node8 -->
<g id="edge7_Node000007_Node000008" class="edge">
<title>Node7&#45;&gt;Node8</title>
<g id="a_edge7_Node000007_Node000008"><a xlink:title=" ">
<path fill="none" stroke="#63b8ff" d="M497.82,-62.68C502,-54.16 508.18,-41.58 513.37,-31.01"/>
<polygon fill="#63b8ff" stroke="#63b8ff" points="516.36,-32.85 517.62,-22.33 510.08,-29.76 516.36,-32.85"/>
</a>
</g>
</g>
<!-- Node9 -->
<g id="Node000009" class="node">
<title>Node9</title>
<g id="a_Node000009"><a xlink:title=" ">
<polygon fill="#e0e0e0" stroke="#999999" points="686.25,-20.75 587.75,-20.75 587.75,0 686.25,0 686.25,-20.75"/>
<text text-anchor="middle" x="637" y="-7.25" font-family="Helvetica,sans-Serif" font-size="10.00">boost/thread.hpp</text>
</a>
</g>
</g>
<!-- Node7&#45;&gt;Node9 -->
<g id="edge8_Node000007_Node000009" class="edge">
<title>Node7&#45;&gt;Node9</title>
<g id="a_edge8_Node000007_Node000009"><a xlink:title=" ">
<path fill="none" stroke="#63b8ff" d="M516.14,-62.68C539.75,-52.65 576.65,-36.99 603.47,-25.61"/>
<polygon fill="#63b8ff" stroke="#63b8ff" points="604.69,-28.89 612.53,-21.76 601.96,-22.45 604.69,-28.89"/>
</a>
</g>
</g>
</g>
</svg>
