<?xml version="1.0" encoding="UTF-8" standalone="no"?>
<!DOCTYPE svg PUBLIC "-//W3C//DTD SVG 1.1//EN"
 "http://www.w3.org/Graphics/SVG/1.1/DTD/svg11.dtd">
<!-- Generated by graphviz version 12.2.1 (0)
 -->
<!-- Title: src/lib/Helpers.cpp Pages: 1 -->
<svg width="646pt" height="208pt"
 viewBox="0.00 0.00 645.97 208.00" xmlns="http://www.w3.org/2000/svg" xmlns:xlink="http://www.w3.org/1999/xlink">
<g id="graph0" class="graph" transform="scale(1 1) rotate(0) translate(4 204)">
<title>src/lib/Helpers.cpp</title>
<!-- Node1 -->
<g id="Node000001" class="node">
<title>Node1</title>
<g id="a_Node000001"><a xlink:title=" ">
<polygon fill="#999999" stroke="#666666" points="395.47,-200 297.72,-200 297.72,-180 395.47,-180 395.47,-200"/>
<text text-anchor="middle" x="346.6" y="-186.5" font-family="Helvetica,sans-Serif" font-size="10.00">src/lib/Helpers.cpp</text>
</a>
</g>
</g>
<!-- Node2 -->
<g id="Node000002" class="node">
<title>Node2</title>
<g id="a_Node000002"><a xlink:title=" ">
<polygon fill="#e0e0e0" stroke="#999999" points="218.72,-144 158.47,-144 158.47,-124 218.72,-124 218.72,-144"/>
<text text-anchor="middle" x="188.6" y="-130.5" font-family="Helvetica,sans-Serif" font-size="10.00">fmt/core.h</text>
</a>
</g>
</g>
<!-- Node1&#45;&gt;Node2 -->
<g id="edge1_Node000001_Node000002" class="edge">
<title>Node1&#45;&gt;Node2</title>
<g id="a_edge1_Node000001_Node000002"><a xlink:title=" ">
<path fill="none" stroke="#63b8ff" d="M319.07,-179.59C293.63,-170.9 255.56,-157.89 227.1,-148.16"/>
<polygon fill="#63b8ff" stroke="#63b8ff" points="228.36,-144.89 217.76,-144.97 226.09,-151.52 228.36,-144.89"/>
</a>
</g>
</g>
<!-- Node3 -->
<g id="Node000003" class="node">
<title>Node3</title>
<g id="a_Node000003"><a xlink:href="Helpers_8hpp.html" target="_top" xlink:title=" ">
<polygon fill="white" stroke="#666666" points="318.22,-144 236.97,-144 236.97,-124 318.22,-124 318.22,-144"/>
<text text-anchor="middle" x="277.6" y="-130.5" font-family="Helvetica,sans-Serif" font-size="10.00">lib/Helpers.hpp</text>
</a>
</g>
</g>
<!-- Node1&#45;&gt;Node3 -->
<g id="edge2_Node000001_Node000003" class="edge">
<title>Node1&#45;&gt;Node3</title>
<g id="a_edge2_Node000001_Node000003"><a xlink:title=" ">
<path fill="none" stroke="#63b8ff" d="M334.58,-179.59C324.58,-171.77 310.13,-160.46 298.29,-151.19"/>
<polygon fill="#63b8ff" stroke="#63b8ff" points="300.7,-148.64 290.67,-145.23 296.39,-154.15 300.7,-148.64"/>
</a>
</g>
</g>
<!-- Node9 -->
<g id="Node000009" class="node">
<title>Node9</title>
<g id="a_Node000009"><a xlink:href="ConfigService_8hpp.html" target="_top" xlink:title=" ">
<polygon fill="white" stroke="#666666" points="565.72,-82 409.47,-82 409.47,-62 565.72,-62 565.72,-82"/>
<text text-anchor="middle" x="487.6" y="-68.5" font-family="Helvetica,sans-Serif" font-size="10.00">validation&#45;api/ConfigService.hpp</text>
</a>
</g>
</g>
<!-- Node1&#45;&gt;Node9 -->
<g id="edge15_Node000001_Node000009" class="edge">
<title>Node1&#45;&gt;Node9</title>
<g id="a_edge15_Node000001_Node000009"><a xlink:title=" ">
<path fill="none" stroke="#63b8ff" d="M346.86,-179.84C347.75,-166.07 351.33,-139.95 365.6,-124 382.17,-105.47 406.54,-93.49 429.16,-85.84"/>
<polygon fill="#63b8ff" stroke="#63b8ff" points="430.14,-89.2 438.64,-82.87 428.05,-82.52 430.14,-89.2"/>
</a>
</g>
</g>
<!-- Node12 -->
<g id="Node000012" class="node">
<title>Node12</title>
<g id="a_Node000012"><a xlink:title=" ">
<polygon fill="#e0e0e0" stroke="#999999" points="414.6,-144 374.6,-144 374.6,-124 414.6,-124 414.6,-144"/>
<text text-anchor="middle" x="394.6" y="-130.5" font-family="Helvetica,sans-Serif" font-size="10.00">string</text>
</a>
</g>
</g>
<!-- Node1&#45;&gt;Node12 -->
<g id="edge13_Node000001_Node000012" class="edge">
<title>Node1&#45;&gt;Node12</title>
<g id="a_edge13_Node000001_Node000012"><a xlink:title=" ">
<path fill="none" stroke="#63b8ff" d="M354.96,-179.59C361.5,-172.24 370.78,-161.8 378.72,-152.87"/>
<polygon fill="#63b8ff" stroke="#63b8ff" points="381.3,-155.23 385.32,-145.43 376.07,-150.58 381.3,-155.23"/>
</a>
</g>
</g>
<!-- Node13 -->
<g id="Node000013" class="node">
<title>Node13</title>
<g id="a_Node000013"><a xlink:title=" ">
<polygon fill="#e0e0e0" stroke="#999999" points="510.35,-144 432.85,-144 432.85,-124 510.35,-124 510.35,-144"/>
<text text-anchor="middle" x="471.6" y="-130.5" font-family="Helvetica,sans-Serif" font-size="10.00">unordered_set</text>
</a>
</g>
</g>
<!-- Node1&#45;&gt;Node13 -->
<g id="edge14_Node000001_Node000013" class="edge">
<title>Node1&#45;&gt;Node13</title>
<g id="a_edge14_Node000001_Node000013"><a xlink:title=" ">
<path fill="none" stroke="#63b8ff" d="M368.37,-179.59C387.97,-171.13 417.02,-158.58 439.32,-148.94"/>
<polygon fill="#63b8ff" stroke="#63b8ff" points="440.47,-152.26 448.26,-145.08 437.69,-145.83 440.47,-152.26"/>
</a>
</g>
</g>
<!-- Node4 -->
<g id="Node000004" class="node">
<title>Node4</title>
<g id="a_Node000004"><a xlink:title=" ">
<polygon fill="#e0e0e0" stroke="#999999" points="183.47,-88 73.72,-88 73.72,-56 183.47,-56 183.47,-88"/>
<text text-anchor="start" x="81.72" y="-74.5" font-family="Helvetica,sans-Serif" font-size="10.00">boost/algorithm/string</text>
<text text-anchor="middle" x="128.6" y="-62.5" font-family="Helvetica,sans-Serif" font-size="10.00">/trim.hpp</text>
</a>
</g>
</g>
<!-- Node3&#45;&gt;Node4 -->
<g id="edge3_Node000003_Node000004" class="edge">
<title>Node3&#45;&gt;Node4</title>
<g id="a_edge3_Node000003_Node000004"><a xlink:title=" ">
<path fill="none" stroke="#63b8ff" d="M254.31,-123.62C233.81,-115.37 203.28,-103.07 177.44,-92.67"/>
<polygon fill="#63b8ff" stroke="#63b8ff" points="179.05,-89.54 168.47,-89.06 176.44,-96.04 179.05,-89.54"/>
</a>
</g>
</g>
<!-- Node5 -->
<g id="Node000005" class="node">
<title>Node5</title>
<g id="a_Node000005"><a xlink:title=" ">
<polygon fill="#e0e0e0" stroke="#999999" points="353.47,-82 201.72,-82 201.72,-62 353.47,-62 353.47,-82"/>
<text text-anchor="middle" x="277.6" y="-68.5" font-family="Helvetica,sans-Serif" font-size="10.00">boost/uuid/uuid_generators.hpp</text>
</a>
</g>
</g>
<!-- Node3&#45;&gt;Node5 -->
<g id="edge4_Node000003_Node000005" class="edge">
<title>Node3&#45;&gt;Node5</title>
<g id="a_edge4_Node000003_Node000005"><a xlink:title=" ">
<path fill="none" stroke="#63b8ff" d="M277.6,-123.62C277.6,-115.56 277.6,-103.65 277.6,-93.41"/>
<polygon fill="#63b8ff" stroke="#63b8ff" points="281.1,-93.63 277.6,-83.63 274.1,-93.63 281.1,-93.63"/>
</a>
</g>
</g>
<!-- Node6 -->
<g id="Node000006" class="node">
<title>Node6</title>
<g id="a_Node000006"><a xlink:title=" ">
<polygon fill="#e0e0e0" stroke="#999999" points="428.47,-20 330.72,-20 330.72,0 428.47,0 428.47,-20"/>
<text text-anchor="middle" x="379.6" y="-6.5" font-family="Helvetica,sans-Serif" font-size="10.00">nlohmann/json.hpp</text>
</a>
</g>
</g>
<!-- Node3&#45;&gt;Node6 -->
<g id="edge5_Node000003_Node000006" class="edge">
<title>Node3&#45;&gt;Node6</title>
<g id="a_edge5_Node000003_Node000006"><a xlink:title=" ">
<path fill="none" stroke="#63b8ff" d="M309.54,-123.58C327.73,-116.61 349.45,-105.27 362.6,-88 374.95,-71.77 378.68,-48.34 379.64,-31.6"/>
<polygon fill="#63b8ff" stroke="#63b8ff" points="383.14,-31.93 379.9,-21.84 376.14,-31.75 383.14,-31.93"/>
</a>
</g>
</g>
<!-- Node7 -->
<g id="Node000007" class="node">
<title>Node7</title>
<g id="a_Node000007"><a xlink:title=" ">
<polygon fill="#e0e0e0" stroke="#999999" points="167.85,-20 99.35,-20 99.35,0 167.85,0 167.85,-20"/>
<text text-anchor="middle" x="133.6" y="-6.5" font-family="Helvetica,sans-Serif" font-size="10.00">pugixml.hpp</text>
</a>
</g>
</g>
<!-- Node3&#45;&gt;Node7 -->
<g id="edge6_Node000003_Node000007" class="edge">
<title>Node3&#45;&gt;Node7</title>
<g id="a_edge6_Node000003_Node000007"><a xlink:title=" ">
<path fill="none" stroke="#63b8ff" d="M236.68,-125.58C233.6,-125.04 230.55,-124.51 227.6,-124 178.55,-115.59 38.83,-125.91 6.6,-88 -2.62,-77.17 -1.61,-67.62 6.6,-56 24.87,-30.14 59.32,-19.05 87.73,-14.33"/>
<polygon fill="#63b8ff" stroke="#63b8ff" points="88.17,-17.81 97.58,-12.94 87.19,-10.88 88.17,-17.81"/>
</a>
</g>
</g>
<!-- Node8 -->
<g id="Node000008" class="node">
<title>Node8</title>
<g id="a_Node000008"><a xlink:title=" ">
<polygon fill="#e0e0e0" stroke="#999999" points="55.6,-82 15.6,-82 15.6,-62 55.6,-62 55.6,-82"/>
<text text-anchor="middle" x="35.6" y="-68.5" font-family="Helvetica,sans-Serif" font-size="10.00">regex</text>
</a>
</g>
</g>
<!-- Node3&#45;&gt;Node8 -->
<g id="edge7_Node000003_Node000008" class="edge">
<title>Node3&#45;&gt;Node8</title>
<g id="a_edge7_Node000003_Node000008"><a xlink:title=" ">
<path fill="none" stroke="#63b8ff" d="M236.66,-124.97C179.41,-113.64 80.61,-93.72 64.6,-88 63.79,-87.71 62.99,-87.41 62.18,-87.09"/>
<polygon fill="#63b8ff" stroke="#63b8ff" points="63.74,-83.96 53.19,-82.99 60.83,-90.33 63.74,-83.96"/>
</a>
</g>
</g>
<!-- Node3&#45;&gt;Node9 -->
<g id="edge8_Node000003_Node000009" class="edge">
<title>Node3&#45;&gt;Node9</title>
<g id="a_edge8_Node000003_Node000009"><a xlink:title=" ">
<path fill="none" stroke="#63b8ff" d="M310.41,-123.62C346.29,-113.37 403.96,-96.9 443.71,-85.54"/>
<polygon fill="#63b8ff" stroke="#63b8ff" points="444.56,-88.94 453.21,-82.82 442.64,-82.21 444.56,-88.94"/>
</a>
</g>
</g>
<!-- Node9&#45;&gt;Node6 -->
<g id="edge11_Node000009_Node000006" class="edge">
<title>Node9&#45;&gt;Node6</title>
<g id="a_edge11_Node000009_Node000006"><a xlink:title=" ">
<path fill="none" stroke="#63b8ff" d="M470.72,-61.62C453.44,-52.03 426.34,-36.97 406.17,-25.77"/>
<polygon fill="#63b8ff" stroke="#63b8ff" points="408.12,-22.84 397.67,-21.04 404.72,-28.96 408.12,-22.84"/>
</a>
</g>
</g>
<!-- Node9&#45;&gt;Node7 -->
<g id="edge12_Node000009_Node000007" class="edge">
<title>Node9&#45;&gt;Node7</title>
<g id="a_edge12_Node000009_Node000007"><a xlink:title=" ">
<path fill="none" stroke="#63b8ff" d="M431.89,-61.56C362.09,-49.73 243.81,-29.68 179.14,-18.72"/>
<polygon fill="#63b8ff" stroke="#63b8ff" points="180.04,-15.32 169.59,-17.1 178.87,-22.22 180.04,-15.32"/>
</a>
</g>
</g>
<!-- Node10 -->
<g id="Node000010" class="node">
<title>Node10</title>
<g id="a_Node000010"><a xlink:title=" ">
<polygon fill="#e0e0e0" stroke="#999999" points="530.72,-20 446.47,-20 446.47,0 530.72,0 530.72,-20"/>
<text text-anchor="middle" x="488.6" y="-6.5" font-family="Helvetica,sans-Serif" font-size="10.00">spdlog/spdlog.h</text>
</a>
</g>
</g>
<!-- Node9&#45;&gt;Node10 -->
<g id="edge9_Node000009_Node000010" class="edge">
<title>Node9&#45;&gt;Node10</title>
<g id="a_edge9_Node000009_Node000010"><a xlink:title=" ">
<path fill="none" stroke="#63b8ff" d="M487.75,-61.62C487.89,-53.56 488.08,-41.65 488.26,-31.41"/>
<polygon fill="#63b8ff" stroke="#63b8ff" points="491.75,-31.68 488.42,-21.63 484.75,-31.57 491.75,-31.68"/>
</a>
</g>
</g>
<!-- Node11 -->
<g id="Node000011" class="node">
<title>Node11</title>
<g id="a_Node000011"><a xlink:title=" ">
<polygon fill="#e0e0e0" stroke="#999999" points="637.97,-20 549.22,-20 549.22,0 637.97,0 637.97,-20"/>
<text text-anchor="middle" x="593.6" y="-6.5" font-family="Helvetica,sans-Serif" font-size="10.00">boost/thread.hpp</text>
</a>
</g>
</g>
<!-- Node9&#45;&gt;Node11 -->
<g id="edge10_Node000009_Node000011" class="edge">
<title>Node9&#45;&gt;Node11</title>
<g id="a_edge10_Node000009_Node000011"><a xlink:title=" ">
<path fill="none" stroke="#63b8ff" d="M504.16,-61.62C521.04,-52.07 547.48,-37.11 567.24,-25.92"/>
<polygon fill="#63b8ff" stroke="#63b8ff" points="568.85,-29.03 575.83,-21.05 565.41,-22.93 568.85,-29.03"/>
</a>
</g>
</g>
</g>
</svg>
