<?xml version="1.0" encoding="UTF-8" standalone="no"?>
<!DOCTYPE svg PUBLIC "-//W3C//DTD SVG 1.1//EN"
 "http://www.w3.org/Graphics/SVG/1.1/DTD/svg11.dtd">
<!-- Generated by graphviz version 10.0.1 (0)
 -->
<!-- Title: include/lib/Helpers.hpp Pages: 1 -->
<svg width="511pt" height="142pt"
 viewBox="0.00 0.00 511.12 142.25" xmlns="http://www.w3.org/2000/svg" xmlns:xlink="http://www.w3.org/1999/xlink">
<g id="graph0" class="graph" transform="scale(1 1) rotate(0) translate(4 138.25)">
<title>include/lib/Helpers.hpp</title>
<!-- Node1 -->
<g id="Node000001" class="node">
<title>Node1</title>
<g id="a_Node000001"><a xlink:title=" ">
<polygon fill="#999999" stroke="#666666" points="291,-134.25 163.25,-134.25 163.25,-113.5 291,-113.5 291,-134.25"/>
<text text-anchor="middle" x="227.12" y="-120.75" font-family="Helvetica,sans-Serif" font-size="10.00">include/lib/Helpers.hpp</text>
</a>
</g>
</g>
<!-- Node2 -->
<g id="Node000002" class="node">
<title>Node2</title>
<g id="a_Node000002"><a xlink:href="Validation_8hpp.html" target="_top" xlink:title=" ">
<polygon fill="white" stroke="#666666" points="198.62,-77.5 59.62,-77.5 59.62,-56.75 198.62,-56.75 198.62,-77.5"/>
<text text-anchor="middle" x="129.12" y="-64" font-family="Helvetica,sans-Serif" font-size="10.00">include/lib/Validation.hpp</text>
</a>
</g>
</g>
<!-- Node1&#45;&gt;Node2 -->
<g id="edge1_Node000001_Node000002" class="edge">
<title>Node1&#45;&gt;Node2</title>
<g id="a_edge1_Node000001_Node000002"><a xlink:title=" ">
<path fill="none" stroke="#63b8ff" d="M199.65,-107.53C182.6,-98 161.22,-86.06 146.49,-77.83"/>
<polygon fill="#63b8ff" stroke="#63b8ff" points="197.85,-110.53 208.28,-112.35 201.26,-104.42 197.85,-110.53"/>
</a>
</g>
</g>
<!-- Node3 -->
<g id="Node000003" class="node">
<title>Node3</title>
<g id="a_Node000003"><a xlink:href="ConfigService_8cpp.html" target="_top" xlink:title=" ">
<polygon fill="white" stroke="#666666" points="120.25,-20.75 0,-20.75 0,0 120.25,0 120.25,-20.75"/>
<text text-anchor="middle" x="60.12" y="-7.25" font-family="Helvetica,sans-Serif" font-size="10.00">src/ConfigService.cpp</text>
</a>
</g>
</g>
<!-- Node1&#45;&gt;Node3 -->
<g id="edge4_Node000001_Node000003" class="edge">
<title>Node1&#45;&gt;Node3</title>
<g id="a_edge4_Node000001_Node000003"><a xlink:title=" ">
<path fill="none" stroke="#63b8ff" d="M151.99,-112.92C109.75,-105.62 62.98,-94.06 50.12,-77.5 37.31,-60.99 47.46,-35.01 54.62,-21.03"/>
<polygon fill="#63b8ff" stroke="#63b8ff" points="151.24,-116.35 161.68,-114.53 152.39,-109.44 151.24,-116.35"/>
</a>
</g>
</g>
<!-- Node4 -->
<g id="Node000004" class="node">
<title>Node4</title>
<g id="a_Node000004"><a xlink:href="Validation_8cpp.html" target="_top" xlink:title=" ">
<polygon fill="white" stroke="#666666" points="270.75,-20.75 153.5,-20.75 153.5,0 270.75,0 270.75,-20.75"/>
<text text-anchor="middle" x="212.12" y="-7.25" font-family="Helvetica,sans-Serif" font-size="10.00">src/lib/Validation.cpp</text>
</a>
</g>
</g>
<!-- Node1&#45;&gt;Node4 -->
<g id="edge7_Node000001_Node000004" class="edge">
<title>Node1&#45;&gt;Node4</title>
<g id="a_edge7_Node000001_Node000004"><a xlink:title=" ">
<path fill="none" stroke="#63b8ff" d="M224.31,-101.97C221.07,-77.84 215.86,-39.17 213.44,-21.18"/>
<polygon fill="#63b8ff" stroke="#63b8ff" points="220.84,-102.42 225.64,-111.87 227.78,-101.49 220.84,-102.42"/>
</a>
</g>
</g>
<!-- Node5 -->
<g id="Node000005" class="node">
<title>Node5</title>
<g id="a_Node000005"><a xlink:href="ConfigWatcher_8cpp.html" target="_top" xlink:title=" ">
<polygon fill="white" stroke="#666666" points="378.75,-77.5 255.5,-77.5 255.5,-56.75 378.75,-56.75 378.75,-77.5"/>
<text text-anchor="middle" x="317.12" y="-64" font-family="Helvetica,sans-Serif" font-size="10.00">src/ConfigWatcher.cpp</text>
</a>
</g>
</g>
<!-- Node1&#45;&gt;Node5 -->
<g id="edge5_Node000001_Node000005" class="edge">
<title>Node1&#45;&gt;Node5</title>
<g id="a_edge5_Node000001_Node000005"><a xlink:title=" ">
<path fill="none" stroke="#63b8ff" d="M252.8,-107.26C268.38,-97.78 287.78,-85.98 301.17,-77.83"/>
<polygon fill="#63b8ff" stroke="#63b8ff" points="251.23,-104.11 244.51,-112.3 254.87,-110.09 251.23,-104.11"/>
</a>
</g>
</g>
<!-- Node6 -->
<g id="Node000006" class="node">
<title>Node6</title>
<g id="a_Node000006"><a xlink:href="Helpers_8cpp.html" target="_top" xlink:title=" ">
<polygon fill="white" stroke="#666666" points="503.12,-77.5 397.12,-77.5 397.12,-56.75 503.12,-56.75 503.12,-77.5"/>
<text text-anchor="middle" x="450.12" y="-64" font-family="Helvetica,sans-Serif" font-size="10.00">src/lib/Helpers.cpp</text>
</a>
</g>
</g>
<!-- Node1&#45;&gt;Node6 -->
<g id="edge6_Node000001_Node000006" class="edge">
<title>Node1&#45;&gt;Node6</title>
<g id="a_edge6_Node000001_Node000006"><a xlink:title=" ">
<path fill="none" stroke="#63b8ff" d="M278.37,-110.29C318.35,-100.48 373.1,-87.04 409.95,-77.99"/>
<polygon fill="#63b8ff" stroke="#63b8ff" points="277.6,-106.88 268.72,-112.66 279.27,-113.68 277.6,-106.88"/>
</a>
</g>
</g>
<!-- Node2&#45;&gt;Node3 -->
<g id="edge2_Node000002_Node000003" class="edge">
<title>Node2&#45;&gt;Node3</title>
<g id="a_edge2_Node000002_Node000003"><a xlink:title=" ">
<path fill="none" stroke="#63b8ff" d="M108.06,-49.41C96.37,-40.13 82.23,-28.92 72.35,-21.08"/>
<polygon fill="#63b8ff" stroke="#63b8ff" points="105.59,-51.92 115.6,-55.4 109.95,-46.44 105.59,-51.92"/>
</a>
</g>
</g>
<!-- Node2&#45;&gt;Node4 -->
<g id="edge3_Node000002_Node000004" class="edge">
<title>Node2&#45;&gt;Node4</title>
<g id="a_edge3_Node000002_Node000004"><a xlink:title=" ">
<path fill="none" stroke="#63b8ff" d="M153.22,-50.23C167.51,-40.8 185.18,-29.15 197.41,-21.08"/>
<polygon fill="#63b8ff" stroke="#63b8ff" points="151.65,-47.08 145.23,-55.5 155.5,-52.92 151.65,-47.08"/>
</a>
</g>
</g>
</g>
</svg>
