<?xml version="1.0" encoding="UTF-8" standalone="no"?>
<!DOCTYPE svg PUBLIC "-//W3C//DTD SVG 1.1//EN"
 "http://www.w3.org/Graphics/SVG/1.1/DTD/svg11.dtd">
<!-- Generated by graphviz version 10.0.1 (0)
 -->
<!-- Title: include/lib/Helpers.hpp Pages: 1 -->
<svg width="681pt" height="86pt"
 viewBox="0.00 0.00 680.75 85.50" xmlns="http://www.w3.org/2000/svg" xmlns:xlink="http://www.w3.org/1999/xlink">
<g id="graph0" class="graph" transform="scale(1 1) rotate(0) translate(4 81.5)">
<title>include/lib/Helpers.hpp</title>
<!-- Node1 -->
<g id="Node000001" class="node">
<title>Node1</title>
<g id="a_Node000001"><a xlink:title=" ">
<polygon fill="#999999" stroke="#666666" points="410,-77.5 282.25,-77.5 282.25,-56.75 410,-56.75 410,-77.5"/>
<text text-anchor="middle" x="346.12" y="-64" font-family="Helvetica,sans-Serif" font-size="10.00">include/lib/Helpers.hpp</text>
</a>
</g>
</g>
<!-- Node2 -->
<g id="Node000002" class="node">
<title>Node2</title>
<g id="a_Node000002"><a xlink:href="ConfigService_8cpp.html" target="_top" xlink:title=" ">
<polygon fill="white" stroke="#666666" points="120.25,-20.75 0,-20.75 0,0 120.25,0 120.25,-20.75"/>
<text text-anchor="middle" x="60.12" y="-7.25" font-family="Helvetica,sans-Serif" font-size="10.00">src/ConfigService.cpp</text>
</a>
</g>
</g>
<!-- Node1&#45;&gt;Node2 -->
<g id="edge1_Node000001_Node000002" class="edge">
<title>Node1&#45;&gt;Node2</title>
<g id="a_edge1_Node000001_Node000002"><a xlink:title=" ">
<path fill="none" stroke="#63b8ff" d="M283.67,-54.17C232.15,-44.31 159.92,-30.48 111.65,-21.24"/>
<polygon fill="#63b8ff" stroke="#63b8ff" points="282.7,-57.55 293.18,-55.99 284.01,-50.67 282.7,-57.55"/>
</a>
</g>
</g>
<!-- Node3 -->
<g id="Node000003" class="node">
<title>Node3</title>
<g id="a_Node000003"><a xlink:href="ConfigWatcher_8cpp.html" target="_top" xlink:title=" ">
<polygon fill="white" stroke="#666666" points="261.75,-20.75 138.5,-20.75 138.5,0 261.75,0 261.75,-20.75"/>
<text text-anchor="middle" x="200.12" y="-7.25" font-family="Helvetica,sans-Serif" font-size="10.00">src/ConfigWatcher.cpp</text>
</a>
</g>
</g>
<!-- Node1&#45;&gt;Node3 -->
<g id="edge2_Node000001_Node000003" class="edge">
<title>Node1&#45;&gt;Node3</title>
<g id="a_edge2_Node000001_Node000003"><a xlink:title=" ">
<path fill="none" stroke="#63b8ff" d="M309.44,-52.37C283.44,-42.62 249.18,-29.77 226,-21.08"/>
<polygon fill="#63b8ff" stroke="#63b8ff" points="308.01,-55.57 318.61,-55.81 310.47,-49.02 308.01,-55.57"/>
</a>
</g>
</g>
<!-- Node4 -->
<g id="Node000004" class="node">
<title>Node4</title>
<g id="a_Node000004"><a xlink:href="ValidationServer_8cpp.html" target="_top" xlink:title=" ">
<polygon fill="white" stroke="#666666" points="412.62,-20.75 279.62,-20.75 279.62,0 412.62,0 412.62,-20.75"/>
<text text-anchor="middle" x="346.12" y="-7.25" font-family="Helvetica,sans-Serif" font-size="10.00">src/ValidationServer.cpp</text>
</a>
</g>
</g>
<!-- Node1&#45;&gt;Node4 -->
<g id="edge3_Node000001_Node000004" class="edge">
<title>Node1&#45;&gt;Node4</title>
<g id="a_edge3_Node000001_Node000004"><a xlink:title=" ">
<path fill="none" stroke="#63b8ff" d="M346.12,-44.88C346.12,-36.66 346.12,-27.68 346.12,-21.08"/>
<polygon fill="#63b8ff" stroke="#63b8ff" points="342.63,-44.82 346.13,-54.82 349.63,-44.82 342.63,-44.82"/>
</a>
</g>
</g>
<!-- Node5 -->
<g id="Node000005" class="node">
<title>Node5</title>
<g id="a_Node000005"><a xlink:href="Helpers_8cpp.html" target="_top" xlink:title=" ">
<polygon fill="white" stroke="#666666" points="537.12,-20.75 431.12,-20.75 431.12,0 537.12,0 537.12,-20.75"/>
<text text-anchor="middle" x="484.12" y="-7.25" font-family="Helvetica,sans-Serif" font-size="10.00">src/lib/Helpers.cpp</text>
</a>
</g>
</g>
<!-- Node1&#45;&gt;Node5 -->
<g id="edge4_Node000001_Node000005" class="edge">
<title>Node1&#45;&gt;Node5</title>
<g id="a_edge4_Node000001_Node000005"><a xlink:title=" ">
<path fill="none" stroke="#63b8ff" d="M381.46,-52.11C405.96,-42.39 437.95,-29.69 459.67,-21.08"/>
<polygon fill="#63b8ff" stroke="#63b8ff" points="380.21,-48.84 372.2,-55.78 382.79,-55.34 380.21,-48.84"/>
</a>
</g>
</g>
<!-- Node6 -->
<g id="Node000006" class="node">
<title>Node6</title>
<g id="a_Node000006"><a xlink:href="Validation_8cpp.html" target="_top" xlink:title=" ">
<polygon fill="white" stroke="#666666" points="672.75,-20.75 555.5,-20.75 555.5,0 672.75,0 672.75,-20.75"/>
<text text-anchor="middle" x="614.12" y="-7.25" font-family="Helvetica,sans-Serif" font-size="10.00">src/lib/Validation.cpp</text>
</a>
</g>
</g>
<!-- Node1&#45;&gt;Node6 -->
<g id="edge5_Node000001_Node000006" class="edge">
<title>Node1&#45;&gt;Node6</title>
<g id="a_edge5_Node000001_Node000006"><a xlink:title=" ">
<path fill="none" stroke="#63b8ff" d="M405.56,-53.98C453.78,-44.13 520.89,-30.42 565.84,-21.24"/>
<polygon fill="#63b8ff" stroke="#63b8ff" points="404.93,-50.54 395.83,-55.97 406.33,-57.4 404.93,-50.54"/>
</a>
</g>
</g>
</g>
</svg>
