<?xml version="1.0" encoding="UTF-8" standalone="no"?>
<!DOCTYPE svg PUBLIC "-//W3C//DTD SVG 1.1//EN"
 "http://www.w3.org/Graphics/SVG/1.1/DTD/svg11.dtd">
<!-- Generated by graphviz version 10.0.1 (0)
 -->
<!-- Title: src/lib/Helpers.cpp Pages: 1 -->
<svg width="872pt" height="199pt"
 viewBox="0.00 0.00 871.50 199.00" xmlns="http://www.w3.org/2000/svg" xmlns:xlink="http://www.w3.org/1999/xlink">
<g id="graph0" class="graph" transform="scale(1 1) rotate(0) translate(4 195)">
<title>src/lib/Helpers.cpp</title>
<!-- Node1 -->
<g id="Node000001" class="node">
<title>Node1</title>
<g id="a_Node000001"><a xlink:title=" ">
<polygon fill="#999999" stroke="#666666" points="488.62,-191 382.62,-191 382.62,-170.25 488.62,-170.25 488.62,-191"/>
<text text-anchor="middle" x="435.62" y="-177.5" font-family="Helvetica,sans-Serif" font-size="10.00">src/lib/Helpers.cpp</text>
</a>
</g>
</g>
<!-- Node2 -->
<g id="Node000002" class="node">
<title>Node2</title>
<g id="a_Node000002"><a xlink:title=" ">
<polygon fill="#e0e0e0" stroke="#999999" points="87.25,-134.25 0,-134.25 0,-113.5 87.25,-113.5 87.25,-134.25"/>
<text text-anchor="middle" x="43.62" y="-120.75" font-family="Helvetica,sans-Serif" font-size="10.00">boost/asio.hpp</text>
</a>
</g>
</g>
<!-- Node1&#45;&gt;Node2 -->
<g id="edge1_Node000001_Node000002" class="edge">
<title>Node1&#45;&gt;Node2</title>
<g id="a_edge1_Node000001_Node000002"><a xlink:title=" ">
<path fill="none" stroke="#63b8ff" d="M382.39,-173.2C317.83,-165.26 205.42,-150.92 98.85,-134.54"/>
<polygon fill="#63b8ff" stroke="#63b8ff" points="99.47,-131.09 89.06,-133.02 98.4,-138.01 99.47,-131.09"/>
</a>
</g>
</g>
<!-- Node3 -->
<g id="Node000003" class="node">
<title>Node3</title>
<g id="a_Node000003"><a xlink:title=" ">
<polygon fill="#e0e0e0" stroke="#999999" points="193.62,-134.25 105.62,-134.25 105.62,-113.5 193.62,-113.5 193.62,-134.25"/>
<text text-anchor="middle" x="149.62" y="-120.75" font-family="Helvetica,sans-Serif" font-size="10.00">boost/uuid.hpp</text>
</a>
</g>
</g>
<!-- Node1&#45;&gt;Node3 -->
<g id="edge2_Node000001_Node000003" class="edge">
<title>Node1&#45;&gt;Node3</title>
<g id="a_edge2_Node000001_Node000003"><a xlink:title=" ">
<path fill="none" stroke="#63b8ff" d="M384.16,-169.77C333.67,-160.11 256.91,-145.41 205.09,-135.49"/>
<polygon fill="#63b8ff" stroke="#63b8ff" points="206.07,-132.12 195.59,-133.67 204.75,-138.99 206.07,-132.12"/>
</a>
</g>
</g>
<!-- Node4 -->
<g id="Node000004" class="node">
<title>Node4</title>
<g id="a_Node000004"><a xlink:title=" ">
<polygon fill="#e0e0e0" stroke="#999999" points="259.75,-134.25 211.5,-134.25 211.5,-113.5 259.75,-113.5 259.75,-134.25"/>
<text text-anchor="middle" x="235.62" y="-120.75" font-family="Helvetica,sans-Serif" font-size="10.00">cctype</text>
</a>
</g>
</g>
<!-- Node1&#45;&gt;Node4 -->
<g id="edge3_Node000001_Node000004" class="edge">
<title>Node1&#45;&gt;Node4</title>
<g id="a_edge3_Node000001_Node000004"><a xlink:title=" ">
<path fill="none" stroke="#63b8ff" d="M399.68,-169.82C368.35,-161.28 321.4,-148.45 271.23,-134.69"/>
<polygon fill="#63b8ff" stroke="#63b8ff" points="272.17,-131.31 261.6,-132.04 270.31,-138.06 272.17,-131.31"/>
</a>
</g>
</g>
<!-- Node5 -->
<g id="Node000005" class="node">
<title>Node5</title>
<g id="a_Node000005"><a xlink:title=" ">
<polygon fill="#e0e0e0" stroke="#999999" points="325,-134.25 278.25,-134.25 278.25,-113.5 325,-113.5 325,-134.25"/>
<text text-anchor="middle" x="301.62" y="-120.75" font-family="Helvetica,sans-Serif" font-size="10.00">cmath</text>
</a>
</g>
</g>
<!-- Node1&#45;&gt;Node5 -->
<g id="edge4_Node000001_Node000005" class="edge">
<title>Node1&#45;&gt;Node5</title>
<g id="a_edge4_Node000001_Node000005"><a xlink:title=" ">
<path fill="none" stroke="#63b8ff" d="M411.67,-169.84C390.61,-161.23 359.72,-148.61 336.02,-138.93"/>
<polygon fill="#63b8ff" stroke="#63b8ff" points="337.36,-135.69 326.78,-135.15 334.71,-142.17 337.36,-135.69"/>
</a>
</g>
</g>
<!-- Node6 -->
<g id="Node000006" class="node">
<title>Node6</title>
<g id="a_Node000006"><a xlink:title=" ">
<polygon fill="#e0e0e0" stroke="#999999" points="383.12,-77.5 334.12,-77.5 334.12,-56.75 383.12,-56.75 383.12,-77.5"/>
<text text-anchor="middle" x="358.62" y="-64" font-family="Helvetica,sans-Serif" font-size="10.00">format</text>
</a>
</g>
</g>
<!-- Node1&#45;&gt;Node6 -->
<g id="edge5_Node000001_Node000006" class="edge">
<title>Node1&#45;&gt;Node6</title>
<g id="a_edge5_Node000001_Node000006"><a xlink:title=" ">
<path fill="none" stroke="#63b8ff" d="M414.89,-169.86C400.8,-162.15 382.93,-150.06 372.62,-134.25 363.89,-120.85 360.49,-102.98 359.22,-89.19"/>
<polygon fill="#63b8ff" stroke="#63b8ff" points="362.72,-89.22 358.64,-79.44 355.74,-89.63 362.72,-89.22"/>
</a>
</g>
</g>
<!-- Node7 -->
<g id="Node000007" class="node">
<title>Node7</title>
<g id="a_Node000007"><a xlink:href="Helpers_8hpp.html" target="_top" xlink:title=" ">
<polygon fill="white" stroke="#666666" points="597.38,-134.25 507.88,-134.25 507.88,-113.5 597.38,-113.5 597.38,-134.25"/>
<text text-anchor="middle" x="552.62" y="-120.75" font-family="Helvetica,sans-Serif" font-size="10.00">lib/Helpers.hpp</text>
</a>
</g>
</g>
<!-- Node1&#45;&gt;Node7 -->
<g id="edge6_Node000001_Node000007" class="edge">
<title>Node1&#45;&gt;Node7</title>
<g id="a_edge6_Node000001_Node000007"><a xlink:title=" ">
<path fill="none" stroke="#63b8ff" d="M456.54,-169.84C474.59,-161.39 500.93,-149.07 521.46,-139.46"/>
<polygon fill="#63b8ff" stroke="#63b8ff" points="522.94,-142.63 530.52,-135.22 519.98,-136.29 522.94,-142.63"/>
</a>
</g>
</g>
<!-- Node10 -->
<g id="Node000010" class="node">
<title>Node10</title>
<g id="a_Node000010"><a xlink:href="ConfigService_8hpp.html" target="_top" xlink:title=" ">
<polygon fill="white" stroke="#666666" points="748.75,-77.5 574.5,-77.5 574.5,-56.75 748.75,-56.75 748.75,-77.5"/>
<text text-anchor="middle" x="661.62" y="-64" font-family="Helvetica,sans-Serif" font-size="10.00">validation&#45;api/ConfigService.hpp</text>
</a>
</g>
</g>
<!-- Node1&#45;&gt;Node10 -->
<g id="edge20_Node000001_Node000010" class="edge">
<title>Node1&#45;&gt;Node10</title>
<g id="a_edge20_Node000001_Node000010"><a xlink:title=" ">
<path fill="none" stroke="#63b8ff" d="M488.74,-174.07C524.34,-168.38 571.03,-156.98 606.62,-134.25 625.24,-122.37 640.7,-102.15 650.44,-87.19"/>
<polygon fill="#63b8ff" stroke="#63b8ff" points="653.14,-89.47 655.44,-79.13 647.19,-85.78 653.14,-89.47"/>
</a>
</g>
</g>
<!-- Node13 -->
<g id="Node000013" class="node">
<title>Node13</title>
<g id="a_Node000013"><a xlink:title=" ">
<polygon fill="#e0e0e0" stroke="#999999" points="697.5,-134.25 653.75,-134.25 653.75,-113.5 697.5,-113.5 697.5,-134.25"/>
<text text-anchor="middle" x="675.62" y="-120.75" font-family="Helvetica,sans-Serif" font-size="10.00">regex</text>
</a>
</g>
</g>
<!-- Node1&#45;&gt;Node13 -->
<g id="edge14_Node000001_Node000013" class="edge">
<title>Node1&#45;&gt;Node13</title>
<g id="a_edge14_Node000001_Node000013"><a xlink:title=" ">
<path fill="none" stroke="#63b8ff" d="M481.92,-169.82C523.33,-160.94 585.66,-147.27 639.62,-134.25 640.61,-134.01 641.62,-133.77 642.63,-133.52"/>
<polygon fill="#63b8ff" stroke="#63b8ff" points="643.27,-136.97 652.1,-131.12 641.55,-130.18 643.27,-136.97"/>
</a>
</g>
</g>
<!-- Node14 -->
<g id="Node000014" class="node">
<title>Node14</title>
<g id="a_Node000014"><a xlink:title=" ">
<polygon fill="#e0e0e0" stroke="#999999" points="759.5,-134.25 715.75,-134.25 715.75,-113.5 759.5,-113.5 759.5,-134.25"/>
<text text-anchor="middle" x="737.62" y="-120.75" font-family="Helvetica,sans-Serif" font-size="10.00">string</text>
</a>
</g>
</g>
<!-- Node1&#45;&gt;Node14 -->
<g id="edge15_Node000001_Node000014" class="edge">
<title>Node1&#45;&gt;Node14</title>
<g id="a_edge15_Node000001_Node000014"><a xlink:title=" ">
<path fill="none" stroke="#63b8ff" d="M488.99,-172.74C541.57,-165.51 624.35,-152.89 704.58,-134.49"/>
<polygon fill="#63b8ff" stroke="#63b8ff" points="704.95,-138 713.89,-132.32 703.36,-131.18 704.95,-138"/>
</a>
</g>
</g>
<!-- Node15 -->
<g id="Node000015" class="node">
<title>Node15</title>
<g id="a_Node000015"><a xlink:title=" ">
<polygon fill="#e0e0e0" stroke="#999999" points="863.5,-134.25 777.75,-134.25 777.75,-113.5 863.5,-113.5 863.5,-134.25"/>
<text text-anchor="middle" x="820.62" y="-120.75" font-family="Helvetica,sans-Serif" font-size="10.00">unordered_set</text>
</a>
</g>
</g>
<!-- Node1&#45;&gt;Node15 -->
<g id="edge16_Node000001_Node000015" class="edge">
<title>Node1&#45;&gt;Node15</title>
<g id="a_edge16_Node000001_Node000015"><a xlink:title=" ">
<path fill="none" stroke="#63b8ff" d="M489.08,-173.06C552.63,-165.09 662.18,-150.86 766.18,-134.58"/>
<polygon fill="#63b8ff" stroke="#63b8ff" points="766.69,-138.04 776.02,-133.03 765.6,-131.13 766.69,-138.04"/>
</a>
</g>
</g>
<!-- Node16 -->
<g id="Node000016" class="node">
<title>Node16</title>
<g id="a_Node000016"><a xlink:href="ErrorBuilder_8hpp.html" target="_top" xlink:title=" ">
<polygon fill="white" stroke="#666666" points="490.12,-134.25 381.12,-134.25 381.12,-113.5 490.12,-113.5 490.12,-134.25"/>
<text text-anchor="middle" x="435.62" y="-120.75" font-family="Helvetica,sans-Serif" font-size="10.00">lib/ErrorBuilder.hpp</text>
</a>
</g>
</g>
<!-- Node1&#45;&gt;Node16 -->
<g id="edge17_Node000001_Node000016" class="edge">
<title>Node1&#45;&gt;Node16</title>
<g id="a_edge17_Node000001_Node000016"><a xlink:title=" ">
<path fill="none" stroke="#63b8ff" d="M435.62,-169.84C435.62,-163.22 435.62,-154.22 435.62,-146.02"/>
<polygon fill="#63b8ff" stroke="#63b8ff" points="439.13,-146.09 435.63,-136.09 432.13,-146.09 439.13,-146.09"/>
</a>
</g>
</g>
<!-- Node8 -->
<g id="Node000008" class="node">
<title>Node8</title>
<g id="a_Node000008"><a xlink:title=" ">
<polygon fill="#e0e0e0" stroke="#999999" points="635.12,-20.75 526.12,-20.75 526.12,0 635.12,0 635.12,-20.75"/>
<text text-anchor="middle" x="580.62" y="-7.25" font-family="Helvetica,sans-Serif" font-size="10.00">nlohmann/json.hpp</text>
</a>
</g>
</g>
<!-- Node7&#45;&gt;Node8 -->
<g id="edge7_Node000007_Node000008" class="edge">
<title>Node7&#45;&gt;Node8</title>
<g id="a_edge7_Node000007_Node000008"><a xlink:title=" ">
<path fill="none" stroke="#63b8ff" d="M554.11,-113.37C556.21,-100.45 560.4,-76.67 565.62,-56.75 567.81,-48.44 570.68,-39.42 573.33,-31.63"/>
<polygon fill="#63b8ff" stroke="#63b8ff" points="576.55,-33.03 576.55,-22.43 569.94,-30.71 576.55,-33.03"/>
</a>
</g>
</g>
<!-- Node9 -->
<g id="Node000009" class="node">
<title>Node9</title>
<g id="a_Node000009"><a xlink:title=" ">
<polygon fill="#e0e0e0" stroke="#999999" points="508,-20.75 431.25,-20.75 431.25,0 508,0 508,-20.75"/>
<text text-anchor="middle" x="469.62" y="-7.25" font-family="Helvetica,sans-Serif" font-size="10.00">pugixml.hpp</text>
</a>
</g>
</g>
<!-- Node7&#45;&gt;Node9 -->
<g id="edge8_Node000007_Node000009" class="edge">
<title>Node7&#45;&gt;Node9</title>
<g id="a_edge8_Node000007_Node000009"><a xlink:title=" ">
<path fill="none" stroke="#63b8ff" d="M545.55,-113.37C531.9,-95.03 501.69,-54.45 483.77,-30.37"/>
<polygon fill="#63b8ff" stroke="#63b8ff" points="486.6,-28.32 477.82,-22.39 480.99,-32.5 486.6,-28.32"/>
</a>
</g>
</g>
<!-- Node7&#45;&gt;Node10 -->
<g id="edge9_Node000007_Node000010" class="edge">
<title>Node7&#45;&gt;Node10</title>
<g id="a_edge9_Node000007_Node000010"><a xlink:title=" ">
<path fill="none" stroke="#63b8ff" d="M572.11,-113.09C588.77,-104.72 613.01,-92.54 632.06,-82.97"/>
<polygon fill="#63b8ff" stroke="#63b8ff" points="633.59,-86.12 640.95,-78.51 630.45,-79.87 633.59,-86.12"/>
</a>
</g>
</g>
<!-- Node10&#45;&gt;Node8 -->
<g id="edge12_Node000010_Node000008" class="edge">
<title>Node10&#45;&gt;Node8</title>
<g id="a_edge12_Node000010_Node000008"><a xlink:title=" ">
<path fill="none" stroke="#63b8ff" d="M647.14,-56.34C635.28,-48.32 618.25,-36.81 604.39,-27.44"/>
<polygon fill="#63b8ff" stroke="#63b8ff" points="606.48,-24.63 596.23,-21.93 602.56,-30.43 606.48,-24.63"/>
</a>
</g>
</g>
<!-- Node10&#45;&gt;Node9 -->
<g id="edge13_Node000010_Node000009" class="edge">
<title>Node10&#45;&gt;Node9</title>
<g id="a_edge13_Node000010_Node000009"><a xlink:title=" ">
<path fill="none" stroke="#63b8ff" d="M627.3,-56.34C595.86,-47.37 549.12,-34.04 514.69,-24.23"/>
<polygon fill="#63b8ff" stroke="#63b8ff" points="516.01,-20.96 505.43,-21.59 514.09,-27.69 516.01,-20.96"/>
</a>
</g>
</g>
<!-- Node11 -->
<g id="Node000011" class="node">
<title>Node11</title>
<g id="a_Node000011"><a xlink:title=" ">
<polygon fill="#e0e0e0" stroke="#999999" points="745.88,-20.75 653.38,-20.75 653.38,0 745.88,0 745.88,-20.75"/>
<text text-anchor="middle" x="699.62" y="-7.25" font-family="Helvetica,sans-Serif" font-size="10.00">spdlog/spdlog.h</text>
</a>
</g>
</g>
<!-- Node10&#45;&gt;Node11 -->
<g id="edge10_Node000010_Node000011" class="edge">
<title>Node10&#45;&gt;Node11</title>
<g id="a_edge10_Node000010_Node000011"><a xlink:title=" ">
<path fill="none" stroke="#63b8ff" d="M668.42,-56.34C673.39,-49.17 680.29,-39.23 686.35,-30.51"/>
<polygon fill="#63b8ff" stroke="#63b8ff" points="689.2,-32.53 692.03,-22.32 683.45,-28.54 689.2,-32.53"/>
</a>
</g>
</g>
<!-- Node12 -->
<g id="Node000012" class="node">
<title>Node12</title>
<g id="a_Node000012"><a xlink:title=" ">
<polygon fill="#e0e0e0" stroke="#999999" points="862.88,-20.75 764.38,-20.75 764.38,0 862.88,0 862.88,-20.75"/>
<text text-anchor="middle" x="813.62" y="-7.25" font-family="Helvetica,sans-Serif" font-size="10.00">boost/thread.hpp</text>
</a>
</g>
</g>
<!-- Node10&#45;&gt;Node12 -->
<g id="edge11_Node000010_Node000012" class="edge">
<title>Node10&#45;&gt;Node12</title>
<g id="a_edge11_Node000010_Node000012"><a xlink:title=" ">
<path fill="none" stroke="#63b8ff" d="M688.8,-56.34C713.04,-47.61 748.78,-34.73 775.81,-25"/>
<polygon fill="#63b8ff" stroke="#63b8ff" points="776.78,-28.37 785.01,-21.68 774.41,-21.78 776.78,-28.37"/>
</a>
</g>
</g>
<!-- Node16&#45;&gt;Node6 -->
<g id="edge18_Node000016_Node000006" class="edge">
<title>Node16&#45;&gt;Node6</title>
<g id="a_edge18_Node000016_Node000006"><a xlink:title=" ">
<path fill="none" stroke="#63b8ff" d="M421.86,-113.09C410.69,-105.15 394.71,-93.78 381.6,-84.46"/>
<polygon fill="#63b8ff" stroke="#63b8ff" points="383.68,-81.65 373.51,-78.71 379.63,-87.35 383.68,-81.65"/>
</a>
</g>
</g>
<!-- Node17 -->
<g id="Node000017" class="node">
<title>Node17</title>
<g id="a_Node000017"><a xlink:title=" ">
<polygon fill="#e0e0e0" stroke="#999999" points="465.38,-77.5 405.88,-77.5 405.88,-56.75 465.38,-56.75 465.38,-77.5"/>
<text text-anchor="middle" x="435.62" y="-64" font-family="Helvetica,sans-Serif" font-size="10.00">iostream</text>
</a>
</g>
</g>
<!-- Node16&#45;&gt;Node17 -->
<g id="edge19_Node000016_Node000017" class="edge">
<title>Node16&#45;&gt;Node17</title>
<g id="a_edge19_Node000016_Node000017"><a xlink:title=" ">
<path fill="none" stroke="#63b8ff" d="M435.62,-113.09C435.62,-106.47 435.62,-97.47 435.62,-89.27"/>
<polygon fill="#63b8ff" stroke="#63b8ff" points="439.13,-89.34 435.63,-79.34 432.13,-89.34 439.13,-89.34"/>
</a>
</g>
</g>
</g>
</svg>
