<?xml version="1.0" encoding="UTF-8" standalone="no"?>
<!DOCTYPE svg PUBLIC "-//W3C//DTD SVG 1.1//EN"
 "http://www.w3.org/Graphics/SVG/1.1/DTD/svg11.dtd">
<!-- Generated by graphviz version 10.0.1 (0)
 -->
<!-- Title: src/lib/Helpers.cpp Pages: 1 -->
<svg width="968pt" height="199pt"
 viewBox="0.00 0.00 967.88 199.00" xmlns="http://www.w3.org/2000/svg" xmlns:xlink="http://www.w3.org/1999/xlink">
<g id="graph0" class="graph" transform="scale(1 1) rotate(0) translate(4 195)">
<title>src/lib/Helpers.cpp</title>
<!-- Node1 -->
<g id="Node000001" class="node">
<title>Node1</title>
<g id="a_Node000001"><a xlink:title=" ">
<polygon fill="#999999" stroke="#666666" points="446.62,-191 340.62,-191 340.62,-170.25 446.62,-170.25 446.62,-191"/>
<text text-anchor="middle" x="393.62" y="-177.5" font-family="Helvetica,sans-Serif" font-size="10.00">src/lib/Helpers.cpp</text>
</a>
</g>
</g>
<!-- Node2 -->
<g id="Node000002" class="node">
<title>Node2</title>
<g id="a_Node000002"><a xlink:title=" ">
<polygon fill="#e0e0e0" stroke="#999999" points="87.25,-134.25 0,-134.25 0,-113.5 87.25,-113.5 87.25,-134.25"/>
<text text-anchor="middle" x="43.62" y="-120.75" font-family="Helvetica,sans-Serif" font-size="10.00">boost/asio.hpp</text>
</a>
</g>
</g>
<!-- Node1&#45;&gt;Node2 -->
<g id="edge1_Node000001_Node000002" class="edge">
<title>Node1&#45;&gt;Node2</title>
<g id="a_edge1_Node000001_Node000002"><a xlink:title=" ">
<path fill="none" stroke="#63b8ff" d="M340.18,-171.85C283.06,-163.44 189.54,-149.44 98.9,-134.59"/>
<polygon fill="#63b8ff" stroke="#63b8ff" points="99.5,-131.15 89.06,-132.98 98.36,-138.05 99.5,-131.15"/>
</a>
</g>
</g>
<!-- Node3 -->
<g id="Node000003" class="node">
<title>Node3</title>
<g id="a_Node000003"><a xlink:title=" ">
<polygon fill="#e0e0e0" stroke="#999999" points="193.62,-134.25 105.62,-134.25 105.62,-113.5 193.62,-113.5 193.62,-134.25"/>
<text text-anchor="middle" x="149.62" y="-120.75" font-family="Helvetica,sans-Serif" font-size="10.00">boost/uuid.hpp</text>
</a>
</g>
</g>
<!-- Node1&#45;&gt;Node3 -->
<g id="edge2_Node000001_Node000003" class="edge">
<title>Node1&#45;&gt;Node3</title>
<g id="a_edge2_Node000001_Node000003"><a xlink:title=" ">
<path fill="none" stroke="#63b8ff" d="M349.72,-169.77C309.08,-160.65 248.49,-147.06 204.63,-137.22"/>
<polygon fill="#63b8ff" stroke="#63b8ff" points="205.59,-133.85 195.06,-135.07 204.06,-140.68 205.59,-133.85"/>
</a>
</g>
</g>
<!-- Node4 -->
<g id="Node000004" class="node">
<title>Node4</title>
<g id="a_Node000004"><a xlink:title=" ">
<polygon fill="#e0e0e0" stroke="#999999" points="259.75,-134.25 211.5,-134.25 211.5,-113.5 259.75,-113.5 259.75,-134.25"/>
<text text-anchor="middle" x="235.62" y="-120.75" font-family="Helvetica,sans-Serif" font-size="10.00">cctype</text>
</a>
</g>
</g>
<!-- Node1&#45;&gt;Node4 -->
<g id="edge3_Node000001_Node000004" class="edge">
<title>Node1&#45;&gt;Node4</title>
<g id="a_edge3_Node000001_Node000004"><a xlink:title=" ">
<path fill="none" stroke="#63b8ff" d="M365.38,-169.84C338.89,-160.66 299.21,-146.91 270.7,-137.03"/>
<polygon fill="#63b8ff" stroke="#63b8ff" points="272.03,-133.78 261.43,-133.82 269.73,-140.4 272.03,-133.78"/>
</a>
</g>
</g>
<!-- Node5 -->
<g id="Node000005" class="node">
<title>Node5</title>
<g id="a_Node000005"><a xlink:title=" ">
<polygon fill="#e0e0e0" stroke="#999999" points="325,-134.25 278.25,-134.25 278.25,-113.5 325,-113.5 325,-134.25"/>
<text text-anchor="middle" x="301.62" y="-120.75" font-family="Helvetica,sans-Serif" font-size="10.00">cmath</text>
</a>
</g>
</g>
<!-- Node1&#45;&gt;Node5 -->
<g id="edge4_Node000001_Node000005" class="edge">
<title>Node1&#45;&gt;Node5</title>
<g id="a_edge4_Node000001_Node000005"><a xlink:title=" ">
<path fill="none" stroke="#63b8ff" d="M377.18,-169.84C363.44,-161.66 343.61,-149.86 327.71,-140.4"/>
<polygon fill="#63b8ff" stroke="#63b8ff" points="329.61,-137.46 319.23,-135.35 326.03,-143.47 329.61,-137.46"/>
</a>
</g>
</g>
<!-- Node6 -->
<g id="Node000006" class="node">
<title>Node6</title>
<g id="a_Node000006"><a xlink:title=" ">
<polygon fill="#e0e0e0" stroke="#999999" points="363.12,-77.5 314.12,-77.5 314.12,-56.75 363.12,-56.75 363.12,-77.5"/>
<text text-anchor="middle" x="338.62" y="-64" font-family="Helvetica,sans-Serif" font-size="10.00">format</text>
</a>
</g>
</g>
<!-- Node1&#45;&gt;Node6 -->
<g id="edge5_Node000001_Node000006" class="edge">
<title>Node1&#45;&gt;Node6</title>
<g id="a_edge5_Node000001_Node000006"><a xlink:title=" ">
<path fill="none" stroke="#63b8ff" d="M388.94,-170.12C380.01,-152.02 360.41,-112.28 348.48,-88.1"/>
<polygon fill="#63b8ff" stroke="#63b8ff" points="351.69,-86.7 344.13,-79.28 345.41,-89.8 351.69,-86.7"/>
</a>
</g>
</g>
<!-- Node7 -->
<g id="Node000007" class="node">
<title>Node7</title>
<g id="a_Node000007"><a xlink:href="Helpers_8hpp.html" target="_top" xlink:title=" ">
<polygon fill="white" stroke="#666666" points="597.38,-134.25 507.88,-134.25 507.88,-113.5 597.38,-113.5 597.38,-134.25"/>
<text text-anchor="middle" x="552.62" y="-120.75" font-family="Helvetica,sans-Serif" font-size="10.00">lib/Helpers.hpp</text>
</a>
</g>
</g>
<!-- Node1&#45;&gt;Node7 -->
<g id="edge6_Node000001_Node000007" class="edge">
<title>Node1&#45;&gt;Node7</title>
<g id="a_edge6_Node000001_Node000007"><a xlink:title=" ">
<path fill="none" stroke="#63b8ff" d="M422.05,-169.84C447.52,-161.07 485.12,-148.12 513.44,-138.37"/>
<polygon fill="#63b8ff" stroke="#63b8ff" points="514.43,-141.73 522.75,-135.16 512.15,-135.11 514.43,-141.73"/>
</a>
</g>
</g>
<!-- Node12 -->
<g id="Node000012" class="node">
<title>Node12</title>
<g id="a_Node000012"><a xlink:href="ConfigService_8hpp.html" target="_top" xlink:title=" ">
<polygon fill="white" stroke="#666666" points="881.75,-77.5 707.5,-77.5 707.5,-56.75 881.75,-56.75 881.75,-77.5"/>
<text text-anchor="middle" x="794.62" y="-64" font-family="Helvetica,sans-Serif" font-size="10.00">validation&#45;api/ConfigService.hpp</text>
</a>
</g>
</g>
<!-- Node1&#45;&gt;Node12 -->
<g id="edge20_Node000001_Node000012" class="edge">
<title>Node1&#45;&gt;Node12</title>
<g id="a_edge20_Node000001_Node000012"><a xlink:title=" ">
<path fill="none" stroke="#63b8ff" d="M446.91,-172.66C490.74,-165.9 553.98,-153.76 606.62,-134.25 624.67,-127.56 626.88,-120.94 644.62,-113.5 676.55,-100.12 713.8,-88.83 743.19,-80.86"/>
<polygon fill="#63b8ff" stroke="#63b8ff" points="743.82,-84.32 752.58,-78.36 742.02,-77.55 743.82,-84.32"/>
</a>
</g>
</g>
<!-- Node15 -->
<g id="Node000015" class="node">
<title>Node15</title>
<g id="a_Node000015"><a xlink:title=" ">
<polygon fill="#e0e0e0" stroke="#999999" points="697.5,-134.25 653.75,-134.25 653.75,-113.5 697.5,-113.5 697.5,-134.25"/>
<text text-anchor="middle" x="675.62" y="-120.75" font-family="Helvetica,sans-Serif" font-size="10.00">string</text>
</a>
</g>
</g>
<!-- Node1&#45;&gt;Node15 -->
<g id="edge16_Node000001_Node000015" class="edge">
<title>Node1&#45;&gt;Node15</title>
<g id="a_edge16_Node000001_Node000015"><a xlink:title=" ">
<path fill="none" stroke="#63b8ff" d="M447.12,-170.91C497.1,-162.49 573.7,-148.89 639.62,-134.25 640.62,-134.03 641.63,-133.8 642.64,-133.57"/>
<polygon fill="#63b8ff" stroke="#63b8ff" points="643.25,-137.02 652.13,-131.24 641.59,-130.22 643.25,-137.02"/>
</a>
</g>
</g>
<!-- Node16 -->
<g id="Node000016" class="node">
<title>Node16</title>
<g id="a_Node000016"><a xlink:title=" ">
<polygon fill="#e0e0e0" stroke="#999999" points="801.5,-134.25 715.75,-134.25 715.75,-113.5 801.5,-113.5 801.5,-134.25"/>
<text text-anchor="middle" x="758.62" y="-120.75" font-family="Helvetica,sans-Serif" font-size="10.00">unordered_set</text>
</a>
</g>
</g>
<!-- Node1&#45;&gt;Node16 -->
<g id="edge17_Node000001_Node000016" class="edge">
<title>Node1&#45;&gt;Node16</title>
<g id="a_edge17_Node000001_Node000016"><a xlink:title=" ">
<path fill="none" stroke="#63b8ff" d="M446.88,-172.47C506.92,-164.28 607.74,-150.15 704.36,-134.57"/>
<polygon fill="#63b8ff" stroke="#63b8ff" points="704.71,-138.06 714.02,-133.01 703.59,-131.15 704.71,-138.06"/>
</a>
</g>
</g>
<!-- Node17 -->
<g id="Node000017" class="node">
<title>Node17</title>
<g id="a_Node000017"><a xlink:href="ErrorBuilder_8hpp.html" target="_top" xlink:title=" ">
<polygon fill="white" stroke="#666666" points="490.12,-134.25 381.12,-134.25 381.12,-113.5 490.12,-113.5 490.12,-134.25"/>
<text text-anchor="middle" x="435.62" y="-120.75" font-family="Helvetica,sans-Serif" font-size="10.00">lib/ErrorBuilder.hpp</text>
</a>
</g>
</g>
<!-- Node1&#45;&gt;Node17 -->
<g id="edge18_Node000001_Node000017" class="edge">
<title>Node1&#45;&gt;Node17</title>
<g id="a_edge18_Node000001_Node000017"><a xlink:title=" ">
<path fill="none" stroke="#63b8ff" d="M401.13,-169.84C406.75,-162.52 414.59,-152.29 421.38,-143.44"/>
<polygon fill="#63b8ff" stroke="#63b8ff" points="423.95,-145.84 427.26,-135.78 418.4,-141.58 423.95,-145.84"/>
</a>
</g>
</g>
<!-- Node8 -->
<g id="Node000008" class="node">
<title>Node8</title>
<g id="a_Node000008"><a xlink:title=" ">
<polygon fill="#e0e0e0" stroke="#999999" points="651.5,-77.5 481.75,-77.5 481.75,-56.75 651.5,-56.75 651.5,-77.5"/>
<text text-anchor="middle" x="566.62" y="-64" font-family="Helvetica,sans-Serif" font-size="10.00">boost/uuid/uuid_generators.hpp</text>
</a>
</g>
</g>
<!-- Node7&#45;&gt;Node8 -->
<g id="edge7_Node000007_Node000008" class="edge">
<title>Node7&#45;&gt;Node8</title>
<g id="a_edge7_Node000007_Node000008"><a xlink:title=" ">
<path fill="none" stroke="#63b8ff" d="M555.13,-113.09C556.84,-106.39 559.17,-97.26 561.29,-88.98"/>
<polygon fill="#63b8ff" stroke="#63b8ff" points="564.68,-89.85 563.77,-79.29 557.9,-88.12 564.68,-89.85"/>
</a>
</g>
</g>
<!-- Node9 -->
<g id="Node000009" class="node">
<title>Node9</title>
<g id="a_Node000009"><a xlink:title=" ">
<polygon fill="#e0e0e0" stroke="#999999" points="732.12,-20.75 623.12,-20.75 623.12,0 732.12,0 732.12,-20.75"/>
<text text-anchor="middle" x="677.62" y="-7.25" font-family="Helvetica,sans-Serif" font-size="10.00">nlohmann/json.hpp</text>
</a>
</g>
</g>
<!-- Node7&#45;&gt;Node9 -->
<g id="edge8_Node000007_Node000009" class="edge">
<title>Node7&#45;&gt;Node9</title>
<g id="a_edge8_Node000007_Node000009"><a xlink:title=" ">
<path fill="none" stroke="#63b8ff" d="M597.63,-113.87C619.53,-107.28 644.54,-96.12 660.62,-77.5 671.41,-65.01 675.49,-46.55 676.97,-32.3"/>
<polygon fill="#63b8ff" stroke="#63b8ff" points="680.45,-32.85 677.61,-22.64 673.46,-32.39 680.45,-32.85"/>
</a>
</g>
</g>
<!-- Node10 -->
<g id="Node000010" class="node">
<title>Node10</title>
<g id="a_Node000010"><a xlink:title=" ">
<polygon fill="#e0e0e0" stroke="#999999" points="519,-20.75 442.25,-20.75 442.25,0 519,0 519,-20.75"/>
<text text-anchor="middle" x="480.62" y="-7.25" font-family="Helvetica,sans-Serif" font-size="10.00">pugixml.hpp</text>
</a>
</g>
</g>
<!-- Node7&#45;&gt;Node10 -->
<g id="edge9_Node000007_Node000010" class="edge">
<title>Node7&#45;&gt;Node10</title>
<g id="a_edge9_Node000007_Node000010"><a xlink:title=" ">
<path fill="none" stroke="#63b8ff" d="M507.47,-114.44C470.43,-106.49 422.26,-93.44 410.62,-77.5 396.05,-57.54 421.67,-38.57 445.91,-26.11"/>
<polygon fill="#63b8ff" stroke="#63b8ff" points="447.25,-29.35 454.73,-21.85 444.2,-23.05 447.25,-29.35"/>
</a>
</g>
</g>
<!-- Node11 -->
<g id="Node000011" class="node">
<title>Node11</title>
<g id="a_Node000011"><a xlink:title=" ">
<polygon fill="#e0e0e0" stroke="#999999" points="463.5,-77.5 419.75,-77.5 419.75,-56.75 463.5,-56.75 463.5,-77.5"/>
<text text-anchor="middle" x="441.62" y="-64" font-family="Helvetica,sans-Serif" font-size="10.00">regex</text>
</a>
</g>
</g>
<!-- Node7&#45;&gt;Node11 -->
<g id="edge10_Node000007_Node000011" class="edge">
<title>Node7&#45;&gt;Node11</title>
<g id="a_edge10_Node000007_Node000011"><a xlink:title=" ">
<path fill="none" stroke="#63b8ff" d="M532.78,-113.09C515.73,-104.68 490.9,-92.43 471.46,-82.84"/>
<polygon fill="#63b8ff" stroke="#63b8ff" points="473.17,-79.78 462.66,-78.5 470.08,-86.06 473.17,-79.78"/>
</a>
</g>
</g>
<!-- Node7&#45;&gt;Node12 -->
<g id="edge11_Node000007_Node000012" class="edge">
<title>Node7&#45;&gt;Node12</title>
<g id="a_edge11_Node000007_Node000012"><a xlink:title=" ">
<path fill="none" stroke="#63b8ff" d="M596.17,-113.02C636.48,-103.9 696.57,-90.31 740.07,-80.47"/>
<polygon fill="#63b8ff" stroke="#63b8ff" points="740.57,-83.94 749.55,-78.32 739.02,-77.12 740.57,-83.94"/>
</a>
</g>
</g>
<!-- Node12&#45;&gt;Node9 -->
<g id="edge14_Node000012_Node000009" class="edge">
<title>Node12&#45;&gt;Node9</title>
<g id="a_edge14_Node000012_Node000009"><a xlink:title=" ">
<path fill="none" stroke="#63b8ff" d="M773.71,-56.34C755.66,-47.89 729.32,-35.57 708.79,-25.96"/>
<polygon fill="#63b8ff" stroke="#63b8ff" points="710.27,-22.79 699.73,-21.72 707.31,-29.13 710.27,-22.79"/>
</a>
</g>
</g>
<!-- Node12&#45;&gt;Node10 -->
<g id="edge15_Node000012_Node000010" class="edge">
<title>Node12&#45;&gt;Node10</title>
<g id="a_edge15_Node000012_Node000010"><a xlink:title=" ">
<path fill="none" stroke="#63b8ff" d="M738.13,-56.27C678.99,-45.96 587.03,-29.93 530.5,-20.07"/>
<polygon fill="#63b8ff" stroke="#63b8ff" points="531.29,-16.66 520.83,-18.39 530.08,-23.55 531.29,-16.66"/>
</a>
</g>
</g>
<!-- Node13 -->
<g id="Node000013" class="node">
<title>Node13</title>
<g id="a_Node000013"><a xlink:title=" ">
<polygon fill="#e0e0e0" stroke="#999999" points="842.88,-20.75 750.38,-20.75 750.38,0 842.88,0 842.88,-20.75"/>
<text text-anchor="middle" x="796.62" y="-7.25" font-family="Helvetica,sans-Serif" font-size="10.00">spdlog/spdlog.h</text>
</a>
</g>
</g>
<!-- Node12&#45;&gt;Node13 -->
<g id="edge12_Node000012_Node000013" class="edge">
<title>Node12&#45;&gt;Node13</title>
<g id="a_edge12_Node000012_Node000013"><a xlink:title=" ">
<path fill="none" stroke="#63b8ff" d="M794.98,-56.34C795.22,-49.72 795.55,-40.72 795.85,-32.52"/>
<polygon fill="#63b8ff" stroke="#63b8ff" points="799.35,-32.71 796.22,-22.59 792.35,-32.46 799.35,-32.71"/>
</a>
</g>
</g>
<!-- Node14 -->
<g id="Node000014" class="node">
<title>Node14</title>
<g id="a_Node000014"><a xlink:title=" ">
<polygon fill="#e0e0e0" stroke="#999999" points="959.88,-20.75 861.38,-20.75 861.38,0 959.88,0 959.88,-20.75"/>
<text text-anchor="middle" x="910.62" y="-7.25" font-family="Helvetica,sans-Serif" font-size="10.00">boost/thread.hpp</text>
</a>
</g>
</g>
<!-- Node12&#45;&gt;Node14 -->
<g id="edge13_Node000012_Node000014" class="edge">
<title>Node12&#45;&gt;Node14</title>
<g id="a_edge13_Node000012_Node000014"><a xlink:title=" ">
<path fill="none" stroke="#63b8ff" d="M815.36,-56.34C833.26,-47.89 859.37,-35.57 879.73,-25.96"/>
<polygon fill="#63b8ff" stroke="#63b8ff" points="881.15,-29.16 888.7,-21.72 878.16,-22.83 881.15,-29.16"/>
</a>
</g>
</g>
<!-- Node17&#45;&gt;Node6 -->
<g id="edge19_Node000017_Node000006" class="edge">
<title>Node17&#45;&gt;Node6</title>
<g id="a_edge19_Node000017_Node000006"><a xlink:title=" ">
<path fill="none" stroke="#63b8ff" d="M418.28,-113.09C403.66,-104.83 382.49,-92.88 365.65,-83.38"/>
<polygon fill="#63b8ff" stroke="#63b8ff" points="367.56,-80.44 357.13,-78.57 364.12,-86.54 367.56,-80.44"/>
</a>
</g>
</g>
</g>
</svg>
