<?xml version="1.0" encoding="UTF-8" standalone="no"?>
<!DOCTYPE svg PUBLIC "-//W3C//DTD SVG 1.1//EN"
 "http://www.w3.org/Graphics/SVG/1.1/DTD/svg11.dtd">
<!-- Generated by graphviz version 10.0.1 (0)
 -->
<!-- Title: include/lib/Helpers.hpp Pages: 1 -->
<svg width="662pt" height="142pt"
 viewBox="0.00 0.00 662.12 142.25" xmlns="http://www.w3.org/2000/svg" xmlns:xlink="http://www.w3.org/1999/xlink">
<g id="graph0" class="graph" transform="scale(1 1) rotate(0) translate(4 138.25)">
<title>include/lib/Helpers.hpp</title>
<!-- Node1 -->
<g id="Node000001" class="node">
<title>Node1</title>
<g id="a_Node000001"><a xlink:title=" ">
<polygon fill="#999999" stroke="#666666" points="336,-134.25 208.25,-134.25 208.25,-113.5 336,-113.5 336,-134.25"/>
<text text-anchor="middle" x="272.12" y="-120.75" font-family="Helvetica,sans-Serif" font-size="10.00">include/lib/Helpers.hpp</text>
</a>
</g>
</g>
<!-- Node2 -->
<g id="Node000002" class="node">
<title>Node2</title>
<g id="a_Node000002"><a xlink:href="Validation_8hpp.html" target="_top" xlink:title=" ">
<polygon fill="white" stroke="#666666" points="198.62,-77.5 59.62,-77.5 59.62,-56.75 198.62,-56.75 198.62,-77.5"/>
<text text-anchor="middle" x="129.12" y="-64" font-family="Helvetica,sans-Serif" font-size="10.00">include/lib/Validation.hpp</text>
</a>
</g>
</g>
<!-- Node1&#45;&gt;Node2 -->
<g id="edge1_Node000001_Node000002" class="edge">
<title>Node1&#45;&gt;Node2</title>
<g id="a_edge1_Node000001_Node000002"><a xlink:title=" ">
<path fill="none" stroke="#63b8ff" d="M235.85,-108.99C210.42,-99.25 177.07,-86.48 154.47,-77.83"/>
<polygon fill="#63b8ff" stroke="#63b8ff" points="234.56,-112.24 245.15,-112.55 237.06,-105.7 234.56,-112.24"/>
</a>
</g>
</g>
<!-- Node3 -->
<g id="Node000003" class="node">
<title>Node3</title>
<g id="a_Node000003"><a xlink:href="ConfigService_8cpp.html" target="_top" xlink:title=" ">
<polygon fill="white" stroke="#666666" points="120.25,-20.75 0,-20.75 0,0 120.25,0 120.25,-20.75"/>
<text text-anchor="middle" x="60.12" y="-7.25" font-family="Helvetica,sans-Serif" font-size="10.00">src/ConfigService.cpp</text>
</a>
</g>
</g>
<!-- Node1&#45;&gt;Node3 -->
<g id="edge4_Node000001_Node000003" class="edge">
<title>Node1&#45;&gt;Node3</title>
<g id="a_edge4_Node000001_Node000003"><a xlink:title=" ">
<path fill="none" stroke="#63b8ff" d="M196.63,-117.49C139.75,-111.68 68.52,-100.03 50.12,-77.5 36.91,-61.31 47.22,-35.2 54.51,-21.12"/>
<polygon fill="#63b8ff" stroke="#63b8ff" points="196,-120.94 206.29,-118.43 196.68,-113.98 196,-120.94"/>
</a>
</g>
</g>
<!-- Node4 -->
<g id="Node000004" class="node">
<title>Node4</title>
<g id="a_Node000004"><a xlink:href="Validation_8cpp.html" target="_top" xlink:title=" ">
<polygon fill="white" stroke="#666666" points="270.75,-20.75 153.5,-20.75 153.5,0 270.75,0 270.75,-20.75"/>
<text text-anchor="middle" x="212.12" y="-7.25" font-family="Helvetica,sans-Serif" font-size="10.00">src/lib/Validation.cpp</text>
</a>
</g>
</g>
<!-- Node1&#45;&gt;Node4 -->
<g id="edge8_Node000001_Node000004" class="edge">
<title>Node1&#45;&gt;Node4</title>
<g id="a_edge8_Node000001_Node000004"><a xlink:title=" ">
<path fill="none" stroke="#63b8ff" d="M260.7,-103.39C256.09,-95.41 250.77,-86.06 246.12,-77.5 235.28,-57.54 223.28,-33.77 216.83,-20.86"/>
<polygon fill="#63b8ff" stroke="#63b8ff" points="257.6,-105.02 265.66,-111.9 263.65,-101.5 257.6,-105.02"/>
</a>
</g>
</g>
<!-- Node5 -->
<g id="Node000005" class="node">
<title>Node5</title>
<g id="a_Node000005"><a xlink:href="ConfigWatcher_8cpp.html" target="_top" xlink:title=" ">
<polygon fill="white" stroke="#666666" points="378.75,-77.5 255.5,-77.5 255.5,-56.75 378.75,-56.75 378.75,-77.5"/>
<text text-anchor="middle" x="317.12" y="-64" font-family="Helvetica,sans-Serif" font-size="10.00">src/ConfigWatcher.cpp</text>
</a>
</g>
</g>
<!-- Node1&#45;&gt;Node5 -->
<g id="edge5_Node000001_Node000005" class="edge">
<title>Node1&#45;&gt;Node5</title>
<g id="a_edge5_Node000001_Node000005"><a xlink:title=" ">
<path fill="none" stroke="#63b8ff" d="M287.47,-104.21C294.75,-95.34 303.15,-85.12 309.15,-77.83"/>
<polygon fill="#63b8ff" stroke="#63b8ff" points="284.78,-101.97 281.13,-111.92 290.18,-106.41 284.78,-101.97"/>
</a>
</g>
</g>
<!-- Node6 -->
<g id="Node000006" class="node">
<title>Node6</title>
<g id="a_Node000006"><a xlink:href="ValidationServer_8cpp.html" target="_top" xlink:title=" ">
<polygon fill="white" stroke="#666666" points="529.62,-77.5 396.62,-77.5 396.62,-56.75 529.62,-56.75 529.62,-77.5"/>
<text text-anchor="middle" x="463.12" y="-64" font-family="Helvetica,sans-Serif" font-size="10.00">src/ValidationServer.cpp</text>
</a>
</g>
</g>
<!-- Node1&#45;&gt;Node6 -->
<g id="edge6_Node000001_Node000006" class="edge">
<title>Node1&#45;&gt;Node6</title>
<g id="a_edge6_Node000001_Node000006"><a xlink:title=" ">
<path fill="none" stroke="#63b8ff" d="M316.93,-110.03C351.17,-100.22 397.67,-86.89 428.95,-77.92"/>
<polygon fill="#63b8ff" stroke="#63b8ff" points="316.38,-106.55 307.73,-112.67 318.3,-113.28 316.38,-106.55"/>
</a>
</g>
</g>
<!-- Node7 -->
<g id="Node000007" class="node">
<title>Node7</title>
<g id="a_Node000007"><a xlink:href="Helpers_8cpp.html" target="_top" xlink:title=" ">
<polygon fill="white" stroke="#666666" points="654.12,-77.5 548.12,-77.5 548.12,-56.75 654.12,-56.75 654.12,-77.5"/>
<text text-anchor="middle" x="601.12" y="-64" font-family="Helvetica,sans-Serif" font-size="10.00">src/lib/Helpers.cpp</text>
</a>
</g>
</g>
<!-- Node1&#45;&gt;Node7 -->
<g id="edge7_Node000001_Node000007" class="edge">
<title>Node1&#45;&gt;Node7</title>
<g id="a_edge7_Node000001_Node000007"><a xlink:title=" ">
<path fill="none" stroke="#63b8ff" d="M342.49,-111.17C404.01,-100.93 492,-86.28 547.84,-76.99"/>
<polygon fill="#63b8ff" stroke="#63b8ff" points="342.11,-107.68 332.82,-112.78 343.26,-114.59 342.11,-107.68"/>
</a>
</g>
</g>
<!-- Node2&#45;&gt;Node3 -->
<g id="edge2_Node000002_Node000003" class="edge">
<title>Node2&#45;&gt;Node3</title>
<g id="a_edge2_Node000002_Node000003"><a xlink:title=" ">
<path fill="none" stroke="#63b8ff" d="M108.06,-49.41C96.37,-40.13 82.23,-28.92 72.35,-21.08"/>
<polygon fill="#63b8ff" stroke="#63b8ff" points="105.59,-51.92 115.6,-55.4 109.95,-46.44 105.59,-51.92"/>
</a>
</g>
</g>
<!-- Node2&#45;&gt;Node4 -->
<g id="edge3_Node000002_Node000004" class="edge">
<title>Node2&#45;&gt;Node4</title>
<g id="a_edge3_Node000002_Node000004"><a xlink:title=" ">
<path fill="none" stroke="#63b8ff" d="M153.22,-50.23C167.51,-40.8 185.18,-29.15 197.41,-21.08"/>
<polygon fill="#63b8ff" stroke="#63b8ff" points="151.65,-47.08 145.23,-55.5 155.5,-52.92 151.65,-47.08"/>
</a>
</g>
</g>
</g>
</svg>
