<?xml version="1.0" encoding="UTF-8" standalone="no"?>
<!DOCTYPE svg PUBLIC "-//W3C//DTD SVG 1.1//EN"
 "http://www.w3.org/Graphics/SVG/1.1/DTD/svg11.dtd">
<!-- Generated by graphviz version 10.0.1 (0)
 -->
<!-- Title: include/lib/Helpers.hpp Pages: 1 -->
<svg width="440pt" height="142pt"
 viewBox="0.00 0.00 439.75 142.25" xmlns="http://www.w3.org/2000/svg" xmlns:xlink="http://www.w3.org/1999/xlink">
<g id="graph0" class="graph" transform="scale(1 1) rotate(0) translate(4 138.25)">
<title>include/lib/Helpers.hpp</title>
<!-- Node1 -->
<g id="Node000001" class="node">
<title>Node1</title>
<g id="a_Node000001"><a xlink:title=" ">
<polygon fill="#999999" stroke="#666666" points="201.38,-134.25 73.62,-134.25 73.62,-113.5 201.38,-113.5 201.38,-134.25"/>
<text text-anchor="middle" x="137.5" y="-120.75" font-family="Helvetica,sans-Serif" font-size="10.00">include/lib/Helpers.hpp</text>
</a>
</g>
</g>
<!-- Node2 -->
<g id="Node000002" class="node">
<title>Node2</title>
<g id="a_Node000002"><a xlink:title=" ">
<polygon fill="#e0e0e0" stroke="#999999" points="109,-20.75 0,-20.75 0,0 109,0 109,-20.75"/>
<text text-anchor="middle" x="54.5" y="-7.25" font-family="Helvetica,sans-Serif" font-size="10.00">nlohmann/json.hpp</text>
</a>
</g>
</g>
<!-- Node1&#45;&gt;Node2 -->
<g id="edge1_Node000001_Node000002" class="edge">
<title>Node1&#45;&gt;Node2</title>
<g id="a_edge1_Node000001_Node000002"><a xlink:title=" ">
<path fill="none" stroke="#63b8ff" d="M130.42,-113.37C116.77,-95.03 86.57,-54.45 68.64,-30.37"/>
<polygon fill="#63b8ff" stroke="#63b8ff" points="71.48,-28.32 62.7,-22.39 65.86,-32.5 71.48,-28.32"/>
</a>
</g>
</g>
<!-- Node3 -->
<g id="Node000003" class="node">
<title>Node3</title>
<g id="a_Node000003"><a xlink:title=" ">
<polygon fill="#e0e0e0" stroke="#999999" points="203.88,-20.75 127.12,-20.75 127.12,0 203.88,0 203.88,-20.75"/>
<text text-anchor="middle" x="165.5" y="-7.25" font-family="Helvetica,sans-Serif" font-size="10.00">pugixml.hpp</text>
</a>
</g>
</g>
<!-- Node1&#45;&gt;Node3 -->
<g id="edge2_Node000001_Node000003" class="edge">
<title>Node1&#45;&gt;Node3</title>
<g id="a_edge2_Node000001_Node000003"><a xlink:title=" ">
<path fill="none" stroke="#63b8ff" d="M139.89,-113.37C144.37,-95.52 154.14,-56.61 160.23,-32.34"/>
<polygon fill="#63b8ff" stroke="#63b8ff" points="163.63,-33.19 162.67,-22.64 156.84,-31.49 163.63,-33.19"/>
</a>
</g>
</g>
<!-- Node4 -->
<g id="Node000004" class="node">
<title>Node4</title>
<g id="a_Node000004"><a xlink:href="ConfigService_8hpp.html" target="_top" xlink:title=" ">
<polygon fill="white" stroke="#666666" points="339.62,-77.5 165.38,-77.5 165.38,-56.75 339.62,-56.75 339.62,-77.5"/>
<text text-anchor="middle" x="252.5" y="-64" font-family="Helvetica,sans-Serif" font-size="10.00">validation&#45;api/ConfigService.hpp</text>
</a>
</g>
</g>
<!-- Node1&#45;&gt;Node4 -->
<g id="edge3_Node000001_Node000004" class="edge">
<title>Node1&#45;&gt;Node4</title>
<g id="a_edge3_Node000001_Node000004"><a xlink:title=" ">
<path fill="none" stroke="#63b8ff" d="M158.06,-113.09C175.8,-104.64 201.68,-92.32 221.87,-82.71"/>
<polygon fill="#63b8ff" stroke="#63b8ff" points="223.23,-85.94 230.75,-78.48 220.22,-79.62 223.23,-85.94"/>
</a>
</g>
</g>
<!-- Node4&#45;&gt;Node2 -->
<g id="edge6_Node000004_Node000002" class="edge">
<title>Node4&#45;&gt;Node2</title>
<g id="a_edge6_Node000004_Node000002"><a xlink:title=" ">
<path fill="none" stroke="#63b8ff" d="M217.1,-56.34C184.68,-47.37 136.48,-34.04 100.97,-24.23"/>
<polygon fill="#63b8ff" stroke="#63b8ff" points="101.96,-20.87 91.38,-21.57 100.09,-27.61 101.96,-20.87"/>
</a>
</g>
</g>
<!-- Node4&#45;&gt;Node3 -->
<g id="edge7_Node000004_Node000003" class="edge">
<title>Node4&#45;&gt;Node3</title>
<g id="a_edge7_Node000004_Node000003"><a xlink:title=" ">
<path fill="none" stroke="#63b8ff" d="M236.95,-56.34C224.08,-48.24 205.56,-36.58 190.59,-27.17"/>
<polygon fill="#63b8ff" stroke="#63b8ff" points="192.53,-24.25 182.2,-21.88 188.8,-30.17 192.53,-24.25"/>
</a>
</g>
</g>
<!-- Node5 -->
<g id="Node000005" class="node">
<title>Node5</title>
<g id="a_Node000005"><a xlink:title=" ">
<polygon fill="#e0e0e0" stroke="#999999" points="314.75,-20.75 222.25,-20.75 222.25,0 314.75,0 314.75,-20.75"/>
<text text-anchor="middle" x="268.5" y="-7.25" font-family="Helvetica,sans-Serif" font-size="10.00">spdlog/spdlog.h</text>
</a>
</g>
</g>
<!-- Node4&#45;&gt;Node5 -->
<g id="edge4_Node000004_Node000005" class="edge">
<title>Node4&#45;&gt;Node5</title>
<g id="a_edge4_Node000004_Node000005"><a xlink:title=" ">
<path fill="none" stroke="#63b8ff" d="M255.36,-56.34C257.34,-49.56 260.05,-40.3 262.49,-31.94"/>
<polygon fill="#63b8ff" stroke="#63b8ff" points="265.79,-33.11 265.24,-22.53 259.08,-31.15 265.79,-33.11"/>
</a>
</g>
</g>
<!-- Node6 -->
<g id="Node000006" class="node">
<title>Node6</title>
<g id="a_Node000006"><a xlink:title=" ">
<polygon fill="#e0e0e0" stroke="#999999" points="431.75,-20.75 333.25,-20.75 333.25,0 431.75,0 431.75,-20.75"/>
<text text-anchor="middle" x="382.5" y="-7.25" font-family="Helvetica,sans-Serif" font-size="10.00">boost/thread.hpp</text>
</a>
</g>
</g>
<!-- Node4&#45;&gt;Node6 -->
<g id="edge5_Node000004_Node000006" class="edge">
<title>Node4&#45;&gt;Node6</title>
<g id="a_edge5_Node000004_Node000006"><a xlink:title=" ">
<path fill="none" stroke="#63b8ff" d="M275.74,-56.34C296.17,-47.73 326.14,-35.11 349.13,-25.43"/>
<polygon fill="#63b8ff" stroke="#63b8ff" points="350.21,-28.77 358.06,-21.67 347.49,-22.32 350.21,-28.77"/>
</a>
</g>
</g>
</g>
</svg>
