<?xml version="1.0" encoding="UTF-8" standalone="no"?>
<!DOCTYPE svg PUBLIC "-//W3C//DTD SVG 1.1//EN"
 "http://www.w3.org/Graphics/SVG/1.1/DTD/svg11.dtd">
<!-- Generated by graphviz version 12.2.1 (0)
 -->
<!-- Title: include/lib/Helpers.hpp Pages: 1 -->
<svg width="478pt" height="140pt"
 viewBox="0.00 0.00 478.25 140.00" xmlns="http://www.w3.org/2000/svg" xmlns:xlink="http://www.w3.org/1999/xlink">
<g id="graph0" class="graph" transform="scale(1 1) rotate(0) translate(4 136)">
<title>include/lib/Helpers.hpp</title>
<!-- Node1 -->
<g id="Node000001" class="node">
<title>Node1</title>
<g id="a_Node000001"><a xlink:title=" ">
<polygon fill="#999999" stroke="#666666" points="267.88,-132 152.88,-132 152.88,-112 267.88,-112 267.88,-132"/>
<text text-anchor="middle" x="210.38" y="-118.5" font-family="Helvetica,sans-Serif" font-size="10.00">include/lib/Helpers.hpp</text>
</a>
</g>
</g>
<!-- Node2 -->
<g id="Node000002" class="node">
<title>Node2</title>
<g id="a_Node000002"><a xlink:href="Validation_8hpp.html" target="_top" xlink:title=" ">
<polygon fill="white" stroke="#666666" points="182,-76 58.75,-76 58.75,-56 182,-56 182,-76"/>
<text text-anchor="middle" x="120.38" y="-62.5" font-family="Helvetica,sans-Serif" font-size="10.00">include/lib/Validation.hpp</text>
</a>
</g>
</g>
<!-- Node1&#45;&gt;Node2 -->
<g id="edge1_Node000001_Node000002" class="edge">
<title>Node1&#45;&gt;Node2</title>
<g id="a_edge1_Node000001_Node000002"><a xlink:title=" ">
<path fill="none" stroke="#63b8ff" d="M185.06,-105.81C169.36,-96.39 149.68,-84.58 136.17,-76.48"/>
<polygon fill="#63b8ff" stroke="#63b8ff" points="183.02,-108.67 193.4,-110.82 186.63,-102.67 183.02,-108.67"/>
</a>
</g>
</g>
<!-- Node3 -->
<g id="Node000003" class="node">
<title>Node3</title>
<g id="a_Node000003"><a xlink:href="ConfigService_8cpp.html" target="_top" xlink:title=" ">
<polygon fill="white" stroke="#666666" points="112.75,-20 0,-20 0,0 112.75,0 112.75,-20"/>
<text text-anchor="middle" x="56.38" y="-6.5" font-family="Helvetica,sans-Serif" font-size="10.00">src/ConfigService.cpp</text>
</a>
</g>
</g>
<!-- Node1&#45;&gt;Node3 -->
<g id="edge4_Node000001_Node000003" class="edge">
<title>Node1&#45;&gt;Node3</title>
<g id="a_edge4_Node000001_Node000003"><a xlink:title=" ">
<path fill="none" stroke="#63b8ff" d="M141.38,-110.21C103.09,-102.66 60.91,-91.2 49.38,-76 37.03,-59.73 45.5,-34.2 51.63,-20.48"/>
<polygon fill="#63b8ff" stroke="#63b8ff" points="140.6,-113.63 151.08,-112.05 141.91,-106.75 140.6,-113.63"/>
</a>
</g>
</g>
<!-- Node4 -->
<g id="Node000004" class="node">
<title>Node4</title>
<g id="a_Node000004"><a xlink:href="Validation_8cpp.html" target="_top" xlink:title=" ">
<polygon fill="white" stroke="#666666" points="249.38,-20 143.38,-20 143.38,0 249.38,0 249.38,-20"/>
<text text-anchor="middle" x="196.38" y="-6.5" font-family="Helvetica,sans-Serif" font-size="10.00">src/lib/Validation.cpp</text>
</a>
</g>
</g>
<!-- Node1&#45;&gt;Node4 -->
<g id="edge7_Node000001_Node000004" class="edge">
<title>Node1&#45;&gt;Node4</title>
<g id="a_edge7_Node000001_Node000004"><a xlink:title=" ">
<path fill="none" stroke="#63b8ff" d="M207.74,-100.31C204.69,-76.36 199.81,-37.95 197.57,-20.35"/>
<polygon fill="#63b8ff" stroke="#63b8ff" points="204.26,-100.64 208.99,-110.12 211.2,-99.76 204.26,-100.64"/>
</a>
</g>
</g>
<!-- Node5 -->
<g id="Node000005" class="node">
<title>Node5</title>
<g id="a_Node000005"><a xlink:href="ConfigWatcher_8cpp.html" target="_top" xlink:title=" ">
<polygon fill="white" stroke="#666666" points="354.25,-76 238.5,-76 238.5,-56 354.25,-56 354.25,-76"/>
<text text-anchor="middle" x="296.38" y="-62.5" font-family="Helvetica,sans-Serif" font-size="10.00">src/ConfigWatcher.cpp</text>
</a>
</g>
</g>
<!-- Node1&#45;&gt;Node5 -->
<g id="edge5_Node000001_Node000005" class="edge">
<title>Node1&#45;&gt;Node5</title>
<g id="a_edge5_Node000001_Node000005"><a xlink:title=" ">
<path fill="none" stroke="#63b8ff" d="M234.99,-105.54C249.92,-96.17 268.5,-84.51 281.28,-76.48"/>
<polygon fill="#63b8ff" stroke="#63b8ff" points="233.24,-102.51 226.64,-110.79 236.97,-108.44 233.24,-102.51"/>
</a>
</g>
</g>
<!-- Node6 -->
<g id="Node000006" class="node">
<title>Node6</title>
<g id="a_Node000006"><a xlink:href="Helpers_8cpp.html" target="_top" xlink:title=" ">
<polygon fill="white" stroke="#666666" points="470.25,-76 372.5,-76 372.5,-56 470.25,-56 470.25,-76"/>
<text text-anchor="middle" x="421.38" y="-62.5" font-family="Helvetica,sans-Serif" font-size="10.00">src/lib/Helpers.cpp</text>
</a>
</g>
</g>
<!-- Node1&#45;&gt;Node6 -->
<g id="edge6_Node000001_Node000006" class="edge">
<title>Node1&#45;&gt;Node6</title>
<g id="a_edge6_Node000001_Node000006"><a xlink:title=" ">
<path fill="none" stroke="#63b8ff" d="M258,-108.81C296.25,-99.02 349.2,-85.47 384.33,-76.48"/>
<polygon fill="#63b8ff" stroke="#63b8ff" points="257.41,-105.35 248.59,-111.22 259.15,-112.13 257.41,-105.35"/>
</a>
</g>
</g>
<!-- Node2&#45;&gt;Node3 -->
<g id="edge2_Node000002_Node000003" class="edge">
<title>Node2&#45;&gt;Node3</title>
<g id="a_edge2_Node000002_Node000003"><a xlink:title=" ">
<path fill="none" stroke="#63b8ff" d="M100.7,-48.4C89.76,-39.17 76.53,-28.01 67.4,-20.3"/>
<polygon fill="#63b8ff" stroke="#63b8ff" points="98.17,-50.84 108.07,-54.62 102.68,-45.49 98.17,-50.84"/>
</a>
</g>
</g>
<!-- Node2&#45;&gt;Node4 -->
<g id="edge3_Node000002_Node000004" class="edge">
<title>Node2&#45;&gt;Node4</title>
<g id="a_edge3_Node000002_Node000004"><a xlink:title=" ">
<path fill="none" stroke="#63b8ff" d="M142.9,-49C155.95,-39.72 171.95,-28.35 183.03,-20.48"/>
<polygon fill="#63b8ff" stroke="#63b8ff" points="140.97,-46.07 134.85,-54.72 145.03,-51.78 140.97,-46.07"/>
</a>
</g>
</g>
</g>
</svg>
