<?xml version="1.0" encoding="UTF-8" standalone="no"?>
<!DOCTYPE svg PUBLIC "-//W3C//DTD SVG 1.1//EN"
 "http://www.w3.org/Graphics/SVG/1.1/DTD/svg11.dtd">
<!-- Generated by graphviz version 12.2.1 (0)
 -->
<!-- Title: include/lib/Helpers.hpp Pages: 1 -->
<svg width="634pt" height="152pt"
 viewBox="0.00 0.00 634.25 152.00" xmlns="http://www.w3.org/2000/svg" xmlns:xlink="http://www.w3.org/1999/xlink">
<g id="graph0" class="graph" transform="scale(1 1) rotate(0) translate(4 148)">
<title>include/lib/Helpers.hpp</title>
<!-- Node1 -->
<g id="Node000001" class="node">
<title>Node1</title>
<g id="a_Node000001"><a xlink:title=" ">
<polygon fill="#999999" stroke="#666666" points="384.38,-144 269.38,-144 269.38,-124 384.38,-124 384.38,-144"/>
<text text-anchor="middle" x="326.88" y="-130.5" font-family="Helvetica,sans-Serif" font-size="10.00">include/lib/Helpers.hpp</text>
</a>
</g>
</g>
<!-- Node2 -->
<g id="Node000002" class="node">
<title>Node2</title>
<g id="a_Node000002"><a xlink:title=" ">
<polygon fill="#e0e0e0" stroke="#999999" points="109.75,-88 0,-88 0,-56 109.75,-56 109.75,-88"/>
<text text-anchor="start" x="8" y="-74.5" font-family="Helvetica,sans-Serif" font-size="10.00">boost/algorithm/string</text>
<text text-anchor="middle" x="54.88" y="-62.5" font-family="Helvetica,sans-Serif" font-size="10.00">/trim.hpp</text>
</a>
</g>
</g>
<!-- Node1&#45;&gt;Node2 -->
<g id="edge1_Node000001_Node000002" class="edge">
<title>Node1&#45;&gt;Node2</title>
<g id="a_edge1_Node000001_Node000002"><a xlink:title=" ">
<path fill="none" stroke="#63b8ff" d="M282.19,-123.57C242.43,-115.12 182.38,-102.23 121.07,-88.47"/>
<polygon fill="#63b8ff" stroke="#63b8ff" points="122.02,-85.1 111.5,-86.32 120.48,-91.93 122.02,-85.1"/>
</a>
</g>
</g>
<!-- Node3 -->
<g id="Node000003" class="node">
<title>Node3</title>
<g id="a_Node000003"><a xlink:title=" ">
<polygon fill="#e0e0e0" stroke="#999999" points="279.75,-82 128,-82 128,-62 279.75,-62 279.75,-82"/>
<text text-anchor="middle" x="203.88" y="-68.5" font-family="Helvetica,sans-Serif" font-size="10.00">boost/uuid/uuid_generators.hpp</text>
</a>
</g>
</g>
<!-- Node1&#45;&gt;Node3 -->
<g id="edge2_Node000001_Node000003" class="edge">
<title>Node1&#45;&gt;Node3</title>
<g id="a_edge2_Node000001_Node000003"><a xlink:title=" ">
<path fill="none" stroke="#63b8ff" d="M307.66,-123.62C287.71,-113.89 256.26,-98.55 233.2,-87.31"/>
<polygon fill="#63b8ff" stroke="#63b8ff" points="234.84,-84.21 224.32,-82.97 231.77,-90.5 234.84,-84.21"/>
</a>
</g>
</g>
<!-- Node4 -->
<g id="Node000004" class="node">
<title>Node4</title>
<g id="a_Node000004"><a xlink:title=" ">
<polygon fill="#e0e0e0" stroke="#999999" points="330.75,-20 233,-20 233,0 330.75,0 330.75,-20"/>
<text text-anchor="middle" x="281.88" y="-6.5" font-family="Helvetica,sans-Serif" font-size="10.00">nlohmann/json.hpp</text>
</a>
</g>
</g>
<!-- Node1&#45;&gt;Node4 -->
<g id="edge3_Node000001_Node000004" class="edge">
<title>Node1&#45;&gt;Node4</title>
<g id="a_edge3_Node000001_Node000004"><a xlink:title=" ">
<path fill="none" stroke="#63b8ff" d="M323.49,-123.83C316.26,-104.22 299.15,-57.83 289.27,-31.04"/>
<polygon fill="#63b8ff" stroke="#63b8ff" points="292.56,-29.87 285.82,-21.7 286,-32.29 292.56,-29.87"/>
</a>
</g>
</g>
<!-- Node5 -->
<g id="Node000005" class="node">
<title>Node5</title>
<g id="a_Node000005"><a xlink:title=" ">
<polygon fill="#e0e0e0" stroke="#999999" points="417.12,-20 348.62,-20 348.62,0 417.12,0 417.12,-20"/>
<text text-anchor="middle" x="382.88" y="-6.5" font-family="Helvetica,sans-Serif" font-size="10.00">pugixml.hpp</text>
</a>
</g>
</g>
<!-- Node1&#45;&gt;Node5 -->
<g id="edge4_Node000001_Node000005" class="edge">
<title>Node1&#45;&gt;Node5</title>
<g id="a_edge4_Node000001_Node000005"><a xlink:title=" ">
<path fill="none" stroke="#63b8ff" d="M331.08,-123.83C340.12,-104.14 361.57,-57.42 373.84,-30.68"/>
<polygon fill="#63b8ff" stroke="#63b8ff" points="376.99,-32.2 377.99,-21.65 370.63,-29.28 376.99,-32.2"/>
</a>
</g>
</g>
<!-- Node6 -->
<g id="Node000006" class="node">
<title>Node6</title>
<g id="a_Node000006"><a xlink:title=" ">
<polygon fill="#e0e0e0" stroke="#999999" points="587.88,-82 547.88,-82 547.88,-62 587.88,-62 587.88,-82"/>
<text text-anchor="middle" x="567.88" y="-68.5" font-family="Helvetica,sans-Serif" font-size="10.00">regex</text>
</a>
</g>
</g>
<!-- Node1&#45;&gt;Node6 -->
<g id="edge5_Node000001_Node000006" class="edge">
<title>Node1&#45;&gt;Node6</title>
<g id="a_edge5_Node000001_Node000006"><a xlink:title=" ">
<path fill="none" stroke="#63b8ff" d="M384.71,-125.02C428,-118.03 488.21,-106.11 538.88,-88 539.68,-87.71 540.48,-87.41 541.29,-87.09"/>
<polygon fill="#63b8ff" stroke="#63b8ff" points="542.64,-90.32 550.28,-82.99 539.73,-83.96 542.64,-90.32"/>
</a>
</g>
</g>
<!-- Node7 -->
<g id="Node000007" class="node">
<title>Node7</title>
<g id="a_Node000007"><a xlink:href="ConfigService_8hpp.html" target="_top" xlink:title=" ">
<polygon fill="white" stroke="#666666" points="530,-82 373.75,-82 373.75,-62 530,-62 530,-82"/>
<text text-anchor="middle" x="451.88" y="-68.5" font-family="Helvetica,sans-Serif" font-size="10.00">validation&#45;api/ConfigService.hpp</text>
</a>
</g>
</g>
<!-- Node1&#45;&gt;Node7 -->
<g id="edge6_Node000001_Node000007" class="edge">
<title>Node1&#45;&gt;Node7</title>
<g id="a_edge6_Node000001_Node000007"><a xlink:title=" ">
<path fill="none" stroke="#63b8ff" d="M346.41,-123.62C366.77,-113.85 398.93,-98.41 422.39,-87.15"/>
<polygon fill="#63b8ff" stroke="#63b8ff" points="423.62,-90.45 431.12,-82.96 420.59,-84.14 423.62,-90.45"/>
</a>
</g>
</g>
<!-- Node7&#45;&gt;Node4 -->
<g id="edge9_Node000007_Node000004" class="edge">
<title>Node7&#45;&gt;Node4</title>
<g id="a_edge9_Node000007_Node000004"><a xlink:title=" ">
<path fill="none" stroke="#63b8ff" d="M425.31,-61.62C396.83,-51.57 351.37,-35.53 319.28,-24.2"/>
<polygon fill="#63b8ff" stroke="#63b8ff" points="320.55,-20.94 309.96,-20.91 318.22,-27.54 320.55,-20.94"/>
</a>
</g>
</g>
<!-- Node7&#45;&gt;Node5 -->
<g id="edge10_Node000007_Node000005" class="edge">
<title>Node7&#45;&gt;Node5</title>
<g id="a_edge10_Node000007_Node000005"><a xlink:title=" ">
<path fill="none" stroke="#63b8ff" d="M441.09,-61.62C430.6,-52.5 414.44,-38.45 401.8,-27.46"/>
<polygon fill="#63b8ff" stroke="#63b8ff" points="404.34,-25.03 394.5,-21.11 399.75,-30.31 404.34,-25.03"/>
</a>
</g>
</g>
<!-- Node8 -->
<g id="Node000008" class="node">
<title>Node8</title>
<g id="a_Node000008"><a xlink:title=" ">
<polygon fill="#e0e0e0" stroke="#999999" points="519,-20 434.75,-20 434.75,0 519,0 519,-20"/>
<text text-anchor="middle" x="476.88" y="-6.5" font-family="Helvetica,sans-Serif" font-size="10.00">spdlog/spdlog.h</text>
</a>
</g>
</g>
<!-- Node7&#45;&gt;Node8 -->
<g id="edge7_Node000007_Node000008" class="edge">
<title>Node7&#45;&gt;Node8</title>
<g id="a_edge7_Node000007_Node000008"><a xlink:title=" ">
<path fill="none" stroke="#63b8ff" d="M455.78,-61.62C459.21,-53.39 464.32,-41.13 468.65,-30.74"/>
<polygon fill="#63b8ff" stroke="#63b8ff" points="471.88,-32.09 472.5,-21.51 465.42,-29.39 471.88,-32.09"/>
</a>
</g>
</g>
<!-- Node9 -->
<g id="Node000009" class="node">
<title>Node9</title>
<g id="a_Node000009"><a xlink:title=" ">
<polygon fill="#e0e0e0" stroke="#999999" points="626.25,-20 537.5,-20 537.5,0 626.25,0 626.25,-20"/>
<text text-anchor="middle" x="581.88" y="-6.5" font-family="Helvetica,sans-Serif" font-size="10.00">boost/thread.hpp</text>
</a>
</g>
</g>
<!-- Node7&#45;&gt;Node9 -->
<g id="edge8_Node000007_Node000009" class="edge">
<title>Node7&#45;&gt;Node9</title>
<g id="a_edge8_Node000007_Node000009"><a xlink:title=" ">
<path fill="none" stroke="#63b8ff" d="M472.19,-61.62C493.46,-51.81 527.12,-36.27 551.54,-25"/>
<polygon fill="#63b8ff" stroke="#63b8ff" points="552.72,-28.31 560.33,-20.94 549.78,-21.96 552.72,-28.31"/>
</a>
</g>
</g>
</g>
</svg>
