<?xml version="1.0" encoding="UTF-8" standalone="no"?>
<!DOCTYPE svg PUBLIC "-//W3C//DTD SVG 1.1//EN"
 "http://www.w3.org/Graphics/SVG/1.1/DTD/svg11.dtd">
<!-- Generated by graphviz version 10.0.1 (0)
 -->
<!-- Title: src/lib/Helpers.cpp Pages: 1 -->
<svg width="706pt" height="212pt"
 viewBox="0.00 0.00 706.25 211.75" xmlns="http://www.w3.org/2000/svg" xmlns:xlink="http://www.w3.org/1999/xlink">
<g id="graph0" class="graph" transform="scale(1 1) rotate(0) translate(4 207.75)">
<title>src/lib/Helpers.cpp</title>
<!-- Node1 -->
<g id="Node000001" class="node">
<title>Node1</title>
<g id="a_Node000001"><a xlink:title=" ">
<polygon fill="#999999" stroke="#666666" points="431,-203.75 325,-203.75 325,-183 431,-183 431,-203.75"/>
<text text-anchor="middle" x="378" y="-190.25" font-family="Helvetica,sans-Serif" font-size="10.00">src/lib/Helpers.cpp</text>
</a>
</g>
</g>
<!-- Node2 -->
<g id="Node000002" class="node">
<title>Node2</title>
<g id="a_Node000002"><a xlink:title=" ">
<polygon fill="#e0e0e0" stroke="#999999" points="242.5,-147 193.5,-147 193.5,-126.25 242.5,-126.25 242.5,-147"/>
<text text-anchor="middle" x="218" y="-133.5" font-family="Helvetica,sans-Serif" font-size="10.00">format</text>
</a>
</g>
</g>
<!-- Node1&#45;&gt;Node2 -->
<g id="edge1_Node000001_Node000002" class="edge">
<title>Node1&#45;&gt;Node2</title>
<g id="a_edge1_Node000001_Node000002"><a xlink:title=" ">
<path fill="none" stroke="#63b8ff" d="M349.39,-182.59C322.65,-173.44 282.62,-159.74 253.78,-149.87"/>
<polygon fill="#63b8ff" stroke="#63b8ff" points="254.96,-146.58 244.37,-146.65 252.7,-153.2 254.96,-146.58"/>
</a>
</g>
</g>
<!-- Node3 -->
<g id="Node000003" class="node">
<title>Node3</title>
<g id="a_Node000003"><a xlink:href="Helpers_8hpp.html" target="_top" xlink:title=" ">
<polygon fill="white" stroke="#666666" points="349.75,-147 260.25,-147 260.25,-126.25 349.75,-126.25 349.75,-147"/>
<text text-anchor="middle" x="305" y="-133.5" font-family="Helvetica,sans-Serif" font-size="10.00">lib/Helpers.hpp</text>
</a>
</g>
</g>
<!-- Node1&#45;&gt;Node3 -->
<g id="edge2_Node000001_Node000003" class="edge">
<title>Node1&#45;&gt;Node3</title>
<g id="a_edge2_Node000001_Node000003"><a xlink:title=" ">
<path fill="none" stroke="#63b8ff" d="M364.95,-182.59C354.36,-174.65 339.2,-163.28 326.78,-153.96"/>
<polygon fill="#63b8ff" stroke="#63b8ff" points="329.25,-151.44 319.15,-148.24 325.05,-157.04 329.25,-151.44"/>
</a>
</g>
</g>
<!-- Node9 -->
<g id="Node000009" class="node">
<title>Node9</title>
<g id="a_Node000009"><a xlink:href="ConfigService_8hpp.html" target="_top" xlink:title=" ">
<polygon fill="white" stroke="#666666" points="620.12,-83.88 445.87,-83.88 445.87,-63.12 620.12,-63.12 620.12,-83.88"/>
<text text-anchor="middle" x="533" y="-70.38" font-family="Helvetica,sans-Serif" font-size="10.00">validation&#45;api/ConfigService.hpp</text>
</a>
</g>
</g>
<!-- Node1&#45;&gt;Node9 -->
<g id="edge15_Node000001_Node000009" class="edge">
<title>Node1&#45;&gt;Node9</title>
<g id="a_edge15_Node000001_Node000009"><a xlink:title=" ">
<path fill="none" stroke="#63b8ff" d="M378.18,-182.54C378.96,-168.34 382.44,-142.08 397,-126.25 414.42,-107.3 439.52,-95.24 463.42,-87.58"/>
<polygon fill="#63b8ff" stroke="#63b8ff" points="464.24,-90.99 472.84,-84.79 462.26,-84.28 464.24,-90.99"/>
</a>
</g>
</g>
<!-- Node12 -->
<g id="Node000012" class="node">
<title>Node12</title>
<g id="a_Node000012"><a xlink:title=" ">
<polygon fill="#e0e0e0" stroke="#999999" points="449.87,-147 406.12,-147 406.12,-126.25 449.87,-126.25 449.87,-147"/>
<text text-anchor="middle" x="428" y="-133.5" font-family="Helvetica,sans-Serif" font-size="10.00">string</text>
</a>
</g>
</g>
<!-- Node1&#45;&gt;Node12 -->
<g id="edge13_Node000001_Node000012" class="edge">
<title>Node1&#45;&gt;Node12</title>
<g id="a_edge13_Node000001_Node000012"><a xlink:title=" ">
<path fill="none" stroke="#63b8ff" d="M386.94,-182.59C393.76,-175.11 403.36,-164.61 411.56,-155.63"/>
<polygon fill="#63b8ff" stroke="#63b8ff" points="413.96,-158.19 418.11,-148.45 408.79,-153.47 413.96,-158.19"/>
</a>
</g>
</g>
<!-- Node13 -->
<g id="Node000013" class="node">
<title>Node13</title>
<g id="a_Node000013"><a xlink:title=" ">
<polygon fill="#e0e0e0" stroke="#999999" points="553.87,-147 468.12,-147 468.12,-126.25 553.87,-126.25 553.87,-147"/>
<text text-anchor="middle" x="511" y="-133.5" font-family="Helvetica,sans-Serif" font-size="10.00">unordered_set</text>
</a>
</g>
</g>
<!-- Node1&#45;&gt;Node13 -->
<g id="edge14_Node000001_Node000013" class="edge">
<title>Node1&#45;&gt;Node13</title>
<g id="a_edge14_Node000001_Node000013"><a xlink:title=" ">
<path fill="none" stroke="#63b8ff" d="M401.77,-182.59C422.67,-173.98 453.33,-161.36 476.85,-151.68"/>
<polygon fill="#63b8ff" stroke="#63b8ff" points="478.11,-154.95 486.03,-147.9 475.45,-148.47 478.11,-154.95"/>
</a>
</g>
</g>
<!-- Node4 -->
<g id="Node000004" class="node">
<title>Node4</title>
<g id="a_Node000004"><a xlink:title=" ">
<polygon fill="#e0e0e0" stroke="#999999" points="202,-90.25 78,-90.25 78,-56.75 202,-56.75 202,-90.25"/>
<text text-anchor="start" x="86" y="-76.75" font-family="Helvetica,sans-Serif" font-size="10.00">boost/algorithm/string</text>
<text text-anchor="middle" x="140" y="-64" font-family="Helvetica,sans-Serif" font-size="10.00">/trim.hpp</text>
</a>
</g>
</g>
<!-- Node3&#45;&gt;Node4 -->
<g id="edge3_Node000003_Node000004" class="edge">
<title>Node3&#45;&gt;Node4</title>
<g id="a_edge3_Node000003_Node000004"><a xlink:title=" ">
<path fill="none" stroke="#63b8ff" d="M278.49,-125.8C255.87,-117.43 222.62,-105.11 194.37,-94.64"/>
<polygon fill="#63b8ff" stroke="#63b8ff" points="195.83,-91.45 185.24,-91.26 193.4,-98.02 195.83,-91.45"/>
</a>
</g>
</g>
<!-- Node5 -->
<g id="Node000005" class="node">
<title>Node5</title>
<g id="a_Node000005"><a xlink:title=" ">
<polygon fill="#e0e0e0" stroke="#999999" points="389.87,-83.88 220.12,-83.88 220.12,-63.12 389.87,-63.12 389.87,-83.88"/>
<text text-anchor="middle" x="305" y="-70.38" font-family="Helvetica,sans-Serif" font-size="10.00">boost/uuid/uuid_generators.hpp</text>
</a>
</g>
</g>
<!-- Node3&#45;&gt;Node5 -->
<g id="edge4_Node000003_Node000005" class="edge">
<title>Node3&#45;&gt;Node5</title>
<g id="a_edge4_Node000003_Node000005"><a xlink:title=" ">
<path fill="none" stroke="#63b8ff" d="M305,-125.8C305,-117.65 305,-105.76 305,-95.48"/>
<polygon fill="#63b8ff" stroke="#63b8ff" points="308.5,-95.61 305,-85.61 301.5,-95.61 308.5,-95.61"/>
</a>
</g>
</g>
<!-- Node6 -->
<g id="Node000006" class="node">
<title>Node6</title>
<g id="a_Node000006"><a xlink:title=" ">
<polygon fill="#e0e0e0" stroke="#999999" points="470.5,-20.75 361.5,-20.75 361.5,0 470.5,0 470.5,-20.75"/>
<text text-anchor="middle" x="416" y="-7.25" font-family="Helvetica,sans-Serif" font-size="10.00">nlohmann/json.hpp</text>
</a>
</g>
</g>
<!-- Node3&#45;&gt;Node6 -->
<g id="edge5_Node000003_Node000006" class="edge">
<title>Node3&#45;&gt;Node6</title>
<g id="a_edge5_Node000003_Node000006"><a xlink:title=" ">
<path fill="none" stroke="#63b8ff" d="M343.59,-125.79C362.98,-118.93 385.21,-107.77 399,-90.25 411.9,-73.85 415.54,-49.84 416.33,-32.62"/>
<polygon fill="#63b8ff" stroke="#63b8ff" points="419.83,-32.81 416.47,-22.76 412.83,-32.71 419.83,-32.81"/>
</a>
</g>
</g>
<!-- Node7 -->
<g id="Node000007" class="node">
<title>Node7</title>
<g id="a_Node000007"><a xlink:title=" ">
<polygon fill="#e0e0e0" stroke="#999999" points="186.37,-20.75 109.62,-20.75 109.62,0 186.37,0 186.37,-20.75"/>
<text text-anchor="middle" x="148" y="-7.25" font-family="Helvetica,sans-Serif" font-size="10.00">pugixml.hpp</text>
</a>
</g>
</g>
<!-- Node3&#45;&gt;Node7 -->
<g id="edge6_Node000003_Node000007" class="edge">
<title>Node3&#45;&gt;Node7</title>
<g id="a_edge6_Node000003_Node000007"><a xlink:title=" ">
<path fill="none" stroke="#63b8ff" d="M259.93,-127.71C256.91,-127.21 253.91,-126.72 251,-126.25 196.88,-117.56 42.81,-131.74 7,-90.25 -2.73,-78.98 -1.77,-68.78 7,-56.75 27.63,-28.43 66.25,-17.4 97.86,-13.28"/>
<polygon fill="#63b8ff" stroke="#63b8ff" points="98.07,-16.78 107.64,-12.22 97.32,-9.82 98.07,-16.78"/>
</a>
</g>
</g>
<!-- Node8 -->
<g id="Node000008" class="node">
<title>Node8</title>
<g id="a_Node000008"><a xlink:title=" ">
<polygon fill="#e0e0e0" stroke="#999999" points="59.87,-83.88 16.12,-83.88 16.12,-63.12 59.87,-63.12 59.87,-83.88"/>
<text text-anchor="middle" x="38" y="-70.38" font-family="Helvetica,sans-Serif" font-size="10.00">regex</text>
</a>
</g>
</g>
<!-- Node3&#45;&gt;Node8 -->
<g id="edge7_Node000003_Node000008" class="edge">
<title>Node3&#45;&gt;Node8</title>
<g id="a_edge7_Node000003_Node000008"><a xlink:title=" ">
<path fill="none" stroke="#63b8ff" d="M259.91,-127.66C196.52,-116.35 86.78,-96.34 69,-90.25 67.83,-89.85 66.64,-89.41 65.46,-88.95"/>
<polygon fill="#63b8ff" stroke="#63b8ff" points="66.93,-85.77 56.38,-84.84 64.05,-92.15 66.93,-85.77"/>
</a>
</g>
</g>
<!-- Node3&#45;&gt;Node9 -->
<g id="edge8_Node000003_Node000009" class="edge">
<title>Node3&#45;&gt;Node9</title>
<g id="a_edge8_Node000003_Node000009"><a xlink:title=" ">
<path fill="none" stroke="#63b8ff" d="M341.63,-125.8C380.69,-115.33 442.68,-98.71 485.47,-87.24"/>
<polygon fill="#63b8ff" stroke="#63b8ff" points="486.24,-90.66 494.99,-84.69 484.43,-83.9 486.24,-90.66"/>
</a>
</g>
</g>
<!-- Node9&#45;&gt;Node6 -->
<g id="edge11_Node000009_Node000006" class="edge">
<title>Node9&#45;&gt;Node6</title>
<g id="a_edge11_Node000009_Node000006"><a xlink:title=" ">
<path fill="none" stroke="#63b8ff" d="M514.2,-62.68C495.44,-52.88 466.36,-37.68 444.7,-26.37"/>
<polygon fill="#63b8ff" stroke="#63b8ff" points="446.57,-23.4 436.09,-21.87 443.33,-29.6 446.57,-23.4"/>
</a>
</g>
</g>
<!-- Node9&#45;&gt;Node7 -->
<g id="edge12_Node000009_Node000007" class="edge">
<title>Node9&#45;&gt;Node7</title>
<g id="a_edge12_Node000009_Node000007"><a xlink:title=" ">
<path fill="none" stroke="#63b8ff" d="M471.14,-62.68C395.23,-50.63 268,-30.43 197.98,-19.31"/>
<polygon fill="#63b8ff" stroke="#63b8ff" points="198.75,-15.89 188.33,-17.78 197.66,-22.8 198.75,-15.89"/>
</a>
</g>
</g>
<!-- Node10 -->
<g id="Node000010" class="node">
<title>Node10</title>
<g id="a_Node000010"><a xlink:title=" ">
<polygon fill="#e0e0e0" stroke="#999999" points="581.25,-20.75 488.75,-20.75 488.75,0 581.25,0 581.25,-20.75"/>
<text text-anchor="middle" x="535" y="-7.25" font-family="Helvetica,sans-Serif" font-size="10.00">spdlog/spdlog.h</text>
</a>
</g>
</g>
<!-- Node9&#45;&gt;Node10 -->
<g id="edge9_Node000009_Node000010" class="edge">
<title>Node9&#45;&gt;Node10</title>
<g id="a_edge9_Node000009_Node000010"><a xlink:title=" ">
<path fill="none" stroke="#63b8ff" d="M533.32,-62.68C533.58,-54.52 533.97,-42.63 534.31,-32.35"/>
<polygon fill="#63b8ff" stroke="#63b8ff" points="537.8,-32.59 534.63,-22.48 530.81,-32.36 537.8,-32.59"/>
</a>
</g>
</g>
<!-- Node11 -->
<g id="Node000011" class="node">
<title>Node11</title>
<g id="a_Node000011"><a xlink:title=" ">
<polygon fill="#e0e0e0" stroke="#999999" points="698.25,-20.75 599.75,-20.75 599.75,0 698.25,0 698.25,-20.75"/>
<text text-anchor="middle" x="649" y="-7.25" font-family="Helvetica,sans-Serif" font-size="10.00">boost/thread.hpp</text>
</a>
</g>
</g>
<!-- Node9&#45;&gt;Node11 -->
<g id="edge10_Node000009_Node000011" class="edge">
<title>Node9&#45;&gt;Node11</title>
<g id="a_edge10_Node000009_Node000011"><a xlink:title=" ">
<path fill="none" stroke="#63b8ff" d="M551.63,-62.68C570.15,-52.92 598.81,-37.82 620.24,-26.53"/>
<polygon fill="#63b8ff" stroke="#63b8ff" points="621.85,-29.64 629.07,-21.88 618.59,-23.44 621.85,-29.64"/>
</a>
</g>
</g>
</g>
</svg>
