<?xml version="1.0" encoding="UTF-8" standalone="no"?>
<!DOCTYPE svg PUBLIC "-//W3C//DTD SVG 1.1//EN"
 "http://www.w3.org/Graphics/SVG/1.1/DTD/svg11.dtd">
<!-- Generated by graphviz version 10.0.1 (0)
 -->
<!-- Title: Graphical Class Hierarchy Pages: 1 -->
<svg width="336pt" height="80pt"
 viewBox="0.00 0.00 335.50 80.12" xmlns="http://www.w3.org/2000/svg" xmlns:xlink="http://www.w3.org/1999/xlink">
<g id="graph0" class="graph" transform="scale(1 1) rotate(0) translate(4 76.12)">
<title>Graphical Class Hierarchy</title>
<!-- Node0 -->
<g id="Node000000" class="node">
<title>Node0</title>
<g id="a_Node000000"><a xlink:href="classvalidation__api_1_1IService.html" target="_top" xlink:title="Interface for all services.">
<polygon fill="white" stroke="#666666" points="130,-49.12 0,-49.12 0,-28.38 130,-28.38 130,-49.12"/>
<text text-anchor="middle" x="65" y="-35.62" font-family="Helvetica,sans-Serif" font-size="10.00">validation_api::IService</text>
</a>
</g>
</g>
<!-- Node1 -->
<g id="Node000001" class="node">
<title>Node1</title>
<g id="a_Node000001"><a xlink:href="classvalidation__api_1_1ConfigWatcher.html" target="_top" xlink:title="Class to watch for changes in a directory.">
<polygon fill="white" stroke="#666666" points="327.5,-72.12 166,-72.12 166,-51.38 327.5,-51.38 327.5,-72.12"/>
<text text-anchor="middle" x="246.75" y="-58.62" font-family="Helvetica,sans-Serif" font-size="10.00">validation_api::ConfigWatcher</text>
</a>
</g>
</g>
<!-- Node0&#45;&gt;Node1 -->
<g id="edge1_Node000000_Node000001" class="edge">
<title>Node0&#45;&gt;Node1</title>
<g id="a_edge1_Node000000_Node000001"><a xlink:title=" ">
<path fill="none" stroke="#63b8ff" d="M141.75,-48.44C149.61,-49.45 157.6,-50.47 165.5,-51.48"/>
<polygon fill="#63b8ff" stroke="#63b8ff" points="142.25,-44.98 131.89,-47.18 141.36,-51.92 142.25,-44.98"/>
</a>
</g>
</g>
<!-- Node2 -->
<g id="Node000002" class="node">
<title>Node2</title>
<g id="a_Node000002"><a xlink:href="classvalidation__api_1_1ValidationServer.html" target="_top" xlink:title="Class for exposing the application to the network.">
<polygon fill="white" stroke="#666666" points="316.62,-33.5 176.88,-33.5 176.88,0 316.62,0 316.62,-33.5"/>
<text text-anchor="start" x="184.88" y="-20" font-family="Helvetica,sans-Serif" font-size="10.00">validation_api::Validation</text>
<text text-anchor="middle" x="246.75" y="-7.25" font-family="Helvetica,sans-Serif" font-size="10.00">Server</text>
</a>
</g>
</g>
<!-- Node0&#45;&gt;Node2 -->
<g id="edge2_Node000000_Node000002" class="edge">
<title>Node0&#45;&gt;Node2</title>
<g id="a_edge2_Node000000_Node000002"><a xlink:title=" ">
<path fill="none" stroke="#63b8ff" d="M141.81,-29.47C153.37,-28.06 165.24,-26.6 176.64,-25.21"/>
<polygon fill="#63b8ff" stroke="#63b8ff" points="141.39,-26 131.89,-30.69 142.24,-32.94 141.39,-26"/>
</a>
</g>
</g>
</g>
</svg>
