<?xml version="1.0" encoding="UTF-8" standalone="no"?>
<!DOCTYPE svg PUBLIC "-//W3C//DTD SVG 1.1//EN"
 "http://www.w3.org/Graphics/SVG/1.1/DTD/svg11.dtd">
<!-- Generated by graphviz version 12.2.1 (0)
 -->
<!-- Title: Graphical Class Hierarchy Pages: 1 -->
<svg width="307pt" height="78pt"
 viewBox="0.00 0.00 307.00 78.00" xmlns="http://www.w3.org/2000/svg" xmlns:xlink="http://www.w3.org/1999/xlink">
<g id="graph0" class="graph" transform="scale(1 1) rotate(0) translate(4 74)">
<title>Graphical Class Hierarchy</title>
<!-- Node0 -->
<g id="Node000000" class="node">
<title>Node0</title>
<g id="a_Node000000"><a xlink:href="classvalidation__api_1_1IService.html" target="_top" xlink:title="Interface for all services.">
<polygon fill="white" stroke="#666666" points="117.25,-48 0,-48 0,-28 117.25,-28 117.25,-48"/>
<text text-anchor="middle" x="58.62" y="-34.5" font-family="Helvetica,sans-Serif" font-size="10.00">validation_api::IService</text>
</a>
</g>
</g>
<!-- Node1 -->
<g id="Node000001" class="node">
<title>Node1</title>
<g id="a_Node000001"><a xlink:href="classvalidation__api_1_1ConfigWatcher.html" target="_top" xlink:title="Class to watch for changes in a directory.">
<polygon fill="white" stroke="#666666" points="299,-70 153.25,-70 153.25,-50 299,-50 299,-70"/>
<text text-anchor="middle" x="226.12" y="-56.5" font-family="Helvetica,sans-Serif" font-size="10.00">validation_api::ConfigWatcher</text>
</a>
</g>
</g>
<!-- Node0&#45;&gt;Node1 -->
<g id="edge1_Node000000_Node000001" class="edge">
<title>Node0&#45;&gt;Node1</title>
<g id="a_edge1_Node000000_Node000001"><a xlink:title=" ">
<path fill="none" stroke="#63b8ff" d="M128.71,-47.18C136.74,-48.25 144.94,-49.34 153.01,-50.41"/>
<polygon fill="#63b8ff" stroke="#63b8ff" points="129.38,-43.74 119.01,-45.89 128.46,-50.68 129.38,-43.74"/>
</a>
</g>
</g>
<!-- Node2 -->
<g id="Node000002" class="node">
<title>Node2</title>
<g id="a_Node000002"><a xlink:href="classvalidation__api_1_1ValidationServer.html" target="_top" xlink:title="Class for exposing the application to the network.">
<polygon fill="white" stroke="#666666" points="287.75,-32 164.5,-32 164.5,0 287.75,0 287.75,-32"/>
<text text-anchor="start" x="172.5" y="-18.5" font-family="Helvetica,sans-Serif" font-size="10.00">validation_api::Validation</text>
<text text-anchor="middle" x="226.12" y="-6.5" font-family="Helvetica,sans-Serif" font-size="10.00">Server</text>
</a>
</g>
</g>
<!-- Node0&#45;&gt;Node2 -->
<g id="edge2_Node000000_Node000002" class="edge">
<title>Node0&#45;&gt;Node2</title>
<g id="a_edge2_Node000000_Node000002"><a xlink:title=" ">
<path fill="none" stroke="#63b8ff" d="M128.66,-28.82C140.45,-27.26 152.62,-25.64 164.18,-24.1"/>
<polygon fill="#63b8ff" stroke="#63b8ff" points="128.46,-25.32 119.01,-30.11 129.38,-32.26 128.46,-25.32"/>
</a>
</g>
</g>
</g>
</svg>
