<?xml version="1.0" encoding="UTF-8" standalone="no"?>
<!DOCTYPE svg PUBLIC "-//W3C//DTD SVG 1.1//EN"
 "http://www.w3.org/Graphics/SVG/1.1/DTD/svg11.dtd">
<!-- Generated by graphviz version 10.0.1 (0)
 -->
<!-- Title: include/validation&#45;api/IService.hpp Pages: 1 -->
<svg width="379pt" height="168pt"
 viewBox="0.00 0.00 379.12 167.75" xmlns="http://www.w3.org/2000/svg" xmlns:xlink="http://www.w3.org/1999/xlink">
<g id="graph0" class="graph" transform="scale(1 1) rotate(0) translate(4 163.75)">
<title>include/validation&#45;api/IService.hpp</title>
<!-- Node1 -->
<g id="Node000001" class="node">
<title>Node1</title>
<g id="a_Node000001"><a xlink:title=" ">
<polygon fill="#999999" stroke="#666666" points="234.12,-159.75 131.12,-159.75 131.12,-126.25 234.12,-126.25 234.12,-159.75"/>
<text text-anchor="start" x="139.12" y="-146.25" font-family="Helvetica,sans-Serif" font-size="10.00">include/validation</text>
<text text-anchor="middle" x="182.62" y="-133.5" font-family="Helvetica,sans-Serif" font-size="10.00">&#45;api/IService.hpp</text>
</a>
</g>
</g>
<!-- Node2 -->
<g id="Node000002" class="node">
<title>Node2</title>
<g id="a_Node000002"><a xlink:href="ConfigWatcher_8hpp.html" target="_top" xlink:title=" ">
<polygon fill="white" stroke="#666666" points="171.88,-90.25 43.38,-90.25 43.38,-56.75 171.88,-56.75 171.88,-90.25"/>
<text text-anchor="start" x="51.38" y="-76.75" font-family="Helvetica,sans-Serif" font-size="10.00">include/validation</text>
<text text-anchor="middle" x="107.62" y="-64" font-family="Helvetica,sans-Serif" font-size="10.00">&#45;api/ConfigWatcher.hpp</text>
</a>
</g>
</g>
<!-- Node1&#45;&gt;Node2 -->
<g id="edge1_Node000001_Node000002" class="edge">
<title>Node1&#45;&gt;Node2</title>
<g id="a_edge1_Node000001_Node000002"><a xlink:title=" ">
<path fill="none" stroke="#63b8ff" d="M156.3,-118.31C146.12,-109.15 134.73,-98.9 125.53,-90.62"/>
<polygon fill="#63b8ff" stroke="#63b8ff" points="153.95,-120.9 163.73,-124.99 158.63,-115.7 153.95,-120.9"/>
</a>
</g>
</g>
<!-- Node5 -->
<g id="Node000005" class="node">
<title>Node5</title>
<g id="a_Node000005"><a xlink:href="ValidationServer_8hpp.html" target="_top" xlink:title=" ">
<polygon fill="white" stroke="#666666" points="327.75,-90.25 189.5,-90.25 189.5,-56.75 327.75,-56.75 327.75,-90.25"/>
<text text-anchor="start" x="197.5" y="-76.75" font-family="Helvetica,sans-Serif" font-size="10.00">include/validation</text>
<text text-anchor="middle" x="258.62" y="-64" font-family="Helvetica,sans-Serif" font-size="10.00">&#45;api/ValidationServer.hpp</text>
</a>
</g>
</g>
<!-- Node1&#45;&gt;Node5 -->
<g id="edge4_Node000001_Node000005" class="edge">
<title>Node1&#45;&gt;Node5</title>
<g id="a_edge4_Node000001_Node000005"><a xlink:title=" ">
<path fill="none" stroke="#63b8ff" d="M208.99,-118.59C219.38,-109.35 231.06,-98.98 240.48,-90.62"/>
<polygon fill="#63b8ff" stroke="#63b8ff" points="206.92,-115.74 201.77,-125 211.57,-120.97 206.92,-115.74"/>
</a>
</g>
</g>
<!-- Node3 -->
<g id="Node000003" class="node">
<title>Node3</title>
<g id="a_Node000003"><a xlink:href="ConfigWatcher_8cpp.html" target="_top" xlink:title=" ">
<polygon fill="white" stroke="#666666" points="123.25,-20.75 0,-20.75 0,0 123.25,0 123.25,-20.75"/>
<text text-anchor="middle" x="61.62" y="-7.25" font-family="Helvetica,sans-Serif" font-size="10.00">src/ConfigWatcher.cpp</text>
</a>
</g>
</g>
<!-- Node2&#45;&gt;Node3 -->
<g id="edge2_Node000002_Node000003" class="edge">
<title>Node2&#45;&gt;Node3</title>
<g id="a_edge2_Node000002_Node000003"><a xlink:title=" ">
<path fill="none" stroke="#63b8ff" d="M88.64,-47.27C81.74,-38.1 74.34,-28.27 69.03,-21.22"/>
<polygon fill="#63b8ff" stroke="#63b8ff" points="85.82,-49.35 94.63,-55.23 91.41,-45.14 85.82,-49.35"/>
</a>
</g>
</g>
<!-- Node4 -->
<g id="Node000004" class="node">
<title>Node4</title>
<g id="a_Node000004"><a xlink:href="main_8cpp.html" target="_top" xlink:title=" ">
<polygon fill="white" stroke="#666666" points="219.75,-20.75 141.5,-20.75 141.5,0 219.75,0 219.75,-20.75"/>
<text text-anchor="middle" x="180.62" y="-7.25" font-family="Helvetica,sans-Serif" font-size="10.00">src/main.cpp</text>
</a>
</g>
</g>
<!-- Node2&#45;&gt;Node4 -->
<g id="edge3_Node000002_Node000004" class="edge">
<title>Node2&#45;&gt;Node4</title>
<g id="a_edge3_Node000002_Node000004"><a xlink:title=" ">
<path fill="none" stroke="#63b8ff" d="M135.35,-49.28C146.96,-39.56 159.83,-28.79 168.87,-21.22"/>
<polygon fill="#63b8ff" stroke="#63b8ff" points="133.39,-46.37 127.97,-55.47 137.88,-51.73 133.39,-46.37"/>
</a>
</g>
</g>
<!-- Node5&#45;&gt;Node4 -->
<g id="edge6_Node000005_Node000004" class="edge">
<title>Node5&#45;&gt;Node4</title>
<g id="a_edge6_Node000005_Node000004"><a xlink:title=" ">
<path fill="none" stroke="#63b8ff" d="M229.36,-49.57C216.86,-39.77 202.94,-28.86 193.18,-21.22"/>
<polygon fill="#63b8ff" stroke="#63b8ff" points="226.91,-52.09 236.94,-55.51 231.23,-46.58 226.91,-52.09"/>
</a>
</g>
</g>
<!-- Node6 -->
<g id="Node000006" class="node">
<title>Node6</title>
<g id="a_Node000006"><a xlink:href="ValidationServer_8cpp.html" target="_top" xlink:title=" ">
<polygon fill="white" stroke="#666666" points="371.12,-20.75 238.12,-20.75 238.12,0 371.12,0 371.12,-20.75"/>
<text text-anchor="middle" x="304.62" y="-7.25" font-family="Helvetica,sans-Serif" font-size="10.00">src/ValidationServer.cpp</text>
</a>
</g>
</g>
<!-- Node5&#45;&gt;Node6 -->
<g id="edge5_Node000005_Node000006" class="edge">
<title>Node5&#45;&gt;Node6</title>
<g id="a_edge5_Node000005_Node000006"><a xlink:title=" ">
<path fill="none" stroke="#63b8ff" d="M277.61,-47.27C284.51,-38.1 291.91,-28.27 297.22,-21.22"/>
<polygon fill="#63b8ff" stroke="#63b8ff" points="274.84,-45.14 271.62,-55.23 280.43,-49.35 274.84,-45.14"/>
</a>
</g>
</g>
</g>
</svg>
