<?xml version="1.0" encoding="UTF-8" standalone="no"?>
<!DOCTYPE svg PUBLIC "-//W3C//DTD SVG 1.1//EN"
 "http://www.w3.org/Graphics/SVG/1.1/DTD/svg11.dtd">
<!-- Generated by graphviz version 12.2.1 (0)
 -->
<!-- Title: include/validation&#45;api/IService.hpp Pages: 1 -->
<svg width="354pt" height="164pt"
 viewBox="0.00 0.00 353.75 164.00" xmlns="http://www.w3.org/2000/svg" xmlns:xlink="http://www.w3.org/1999/xlink">
<g id="graph0" class="graph" transform="scale(1 1) rotate(0) translate(4 160)">
<title>include/validation&#45;api/IService.hpp</title>
<!-- Node1 -->
<g id="Node000001" class="node">
<title>Node1</title>
<g id="a_Node000001"><a xlink:title=" ">
<polygon fill="#999999" stroke="#666666" points="216.38,-156 125.38,-156 125.38,-124 216.38,-124 216.38,-156"/>
<text text-anchor="start" x="133.38" y="-142.5" font-family="Helvetica,sans-Serif" font-size="10.00">include/validation</text>
<text text-anchor="middle" x="170.88" y="-130.5" font-family="Helvetica,sans-Serif" font-size="10.00">&#45;api/IService.hpp</text>
</a>
</g>
</g>
<!-- Node2 -->
<g id="Node000002" class="node">
<title>Node2</title>
<g id="a_Node000002"><a xlink:href="ConfigWatcher_8hpp.html" target="_top" xlink:title=" ">
<polygon fill="white" stroke="#666666" points="160.88,-88 42.88,-88 42.88,-56 160.88,-56 160.88,-88"/>
<text text-anchor="start" x="50.88" y="-74.5" font-family="Helvetica,sans-Serif" font-size="10.00">include/validation</text>
<text text-anchor="middle" x="101.88" y="-62.5" font-family="Helvetica,sans-Serif" font-size="10.00">&#45;api/ConfigWatcher.hpp</text>
</a>
</g>
</g>
<!-- Node1&#45;&gt;Node2 -->
<g id="edge1_Node000001_Node000002" class="edge">
<title>Node1&#45;&gt;Node2</title>
<g id="a_edge1_Node000001_Node000002"><a xlink:title=" ">
<path fill="none" stroke="#63b8ff" d="M146.82,-115.99C137.2,-106.79 126.4,-96.46 117.79,-88.22"/>
<polygon fill="#63b8ff" stroke="#63b8ff" points="144.13,-118.26 153.78,-122.65 148.97,-113.2 144.13,-118.26"/>
</a>
</g>
</g>
<!-- Node5 -->
<g id="Node000005" class="node">
<title>Node5</title>
<g id="a_Node000005"><a xlink:href="ValidationServer_8hpp.html" target="_top" xlink:title=" ">
<polygon fill="white" stroke="#666666" points="302.88,-88 178.88,-88 178.88,-56 302.88,-56 302.88,-88"/>
<text text-anchor="start" x="186.88" y="-74.5" font-family="Helvetica,sans-Serif" font-size="10.00">include/validation</text>
<text text-anchor="middle" x="240.88" y="-62.5" font-family="Helvetica,sans-Serif" font-size="10.00">&#45;api/ValidationServer.hpp</text>
</a>
</g>
</g>
<!-- Node1&#45;&gt;Node5 -->
<g id="edge4_Node000001_Node000005" class="edge">
<title>Node1&#45;&gt;Node5</title>
<g id="a_edge4_Node000001_Node000005"><a xlink:title=" ">
<path fill="none" stroke="#63b8ff" d="M195.28,-115.99C205.03,-106.79 216,-96.46 224.73,-88.22"/>
<polygon fill="#63b8ff" stroke="#63b8ff" points="193.09,-113.25 188.21,-122.65 197.89,-118.34 193.09,-113.25"/>
</a>
</g>
</g>
<!-- Node3 -->
<g id="Node000003" class="node">
<title>Node3</title>
<g id="a_Node000003"><a xlink:href="ConfigWatcher_8cpp.html" target="_top" xlink:title=" ">
<polygon fill="white" stroke="#666666" points="115.75,-20 0,-20 0,0 115.75,0 115.75,-20"/>
<text text-anchor="middle" x="57.88" y="-6.5" font-family="Helvetica,sans-Serif" font-size="10.00">src/ConfigWatcher.cpp</text>
</a>
</g>
</g>
<!-- Node2&#45;&gt;Node3 -->
<g id="edge2_Node000002_Node000003" class="edge">
<title>Node2&#45;&gt;Node3</title>
<g id="a_edge2_Node000002_Node000003"><a xlink:title=" ">
<path fill="none" stroke="#63b8ff" d="M83.84,-46.4C77.12,-37.24 69.89,-27.39 64.77,-20.41"/>
<polygon fill="#63b8ff" stroke="#63b8ff" points="80.91,-48.33 89.65,-54.33 86.56,-44.19 80.91,-48.33"/>
</a>
</g>
</g>
<!-- Node4 -->
<g id="Node000004" class="node">
<title>Node4</title>
<g id="a_Node000004"><a xlink:href="main_8cpp.html" target="_top" xlink:title=" ">
<polygon fill="white" stroke="#666666" points="206,-20 133.75,-20 133.75,0 206,0 206,-20"/>
<text text-anchor="middle" x="169.88" y="-6.5" font-family="Helvetica,sans-Serif" font-size="10.00">src/main.cpp</text>
</a>
</g>
</g>
<!-- Node2&#45;&gt;Node4 -->
<g id="edge3_Node000002_Node000004" class="edge">
<title>Node2&#45;&gt;Node4</title>
<g id="a_edge3_Node000002_Node000004"><a xlink:title=" ">
<path fill="none" stroke="#63b8ff" d="M127.79,-48.13C138.71,-38.5 150.8,-27.83 159.21,-20.41"/>
<polygon fill="#63b8ff" stroke="#63b8ff" points="125.7,-45.31 120.52,-54.55 130.34,-50.56 125.7,-45.31"/>
</a>
</g>
</g>
<!-- Node5&#45;&gt;Node4 -->
<g id="edge6_Node000005_Node000004" class="edge">
<title>Node5&#45;&gt;Node4</title>
<g id="a_edge6_Node000005_Node000004"><a xlink:title=" ">
<path fill="none" stroke="#63b8ff" d="M213.81,-48.13C202.42,-38.5 189.79,-27.83 181.01,-20.41"/>
<polygon fill="#63b8ff" stroke="#63b8ff" points="211.54,-50.79 221.43,-54.57 216.06,-45.44 211.54,-50.79"/>
</a>
</g>
</g>
<!-- Node6 -->
<g id="Node000006" class="node">
<title>Node6</title>
<g id="a_Node000006"><a xlink:href="ValidationServer_8cpp.html" target="_top" xlink:title=" ">
<polygon fill="white" stroke="#666666" points="345.75,-20 224,-20 224,0 345.75,0 345.75,-20"/>
<text text-anchor="middle" x="284.88" y="-6.5" font-family="Helvetica,sans-Serif" font-size="10.00">src/ValidationServer.cpp</text>
</a>
</g>
</g>
<!-- Node5&#45;&gt;Node6 -->
<g id="edge5_Node000005_Node000006" class="edge">
<title>Node5&#45;&gt;Node6</title>
<g id="a_edge5_Node000005_Node000006"><a xlink:title=" ">
<path fill="none" stroke="#63b8ff" d="M258.91,-46.4C265.63,-37.24 272.86,-27.39 277.98,-20.41"/>
<polygon fill="#63b8ff" stroke="#63b8ff" points="256.19,-44.19 253.1,-54.33 261.84,-48.33 256.19,-44.19"/>
</a>
</g>
</g>
</g>
</svg>
