<?xml version="1.0" encoding="UTF-8" standalone="no"?>
<!DOCTYPE svg PUBLIC "-//W3C//DTD SVG 1.1//EN"
 "http://www.w3.org/Graphics/SVG/1.1/DTD/svg11.dtd">
<!-- Generated by graphviz version 12.2.1 (0)
 -->
<!-- Title: src/Logger.cpp Pages: 1 -->
<svg width="646pt" height="152pt"
 viewBox="0.00 0.00 645.75 152.00" xmlns="http://www.w3.org/2000/svg" xmlns:xlink="http://www.w3.org/1999/xlink">
<g id="graph0" class="graph" transform="scale(1 1) rotate(0) translate(4 148)">
<title>src/Logger.cpp</title>
<!-- Node1 -->
<g id="Node000001" class="node">
<title>Node1</title>
<g id="a_Node000001"><a xlink:title=" ">
<polygon fill="#999999" stroke="#666666" points="379.25,-144 298.75,-144 298.75,-124 379.25,-124 379.25,-144"/>
<text text-anchor="middle" x="339" y="-130.5" font-family="Helvetica,sans-Serif" font-size="10.00">src/Logger.cpp</text>
</a>
</g>
</g>
<!-- Node2 -->
<g id="Node000002" class="node">
<title>Node2</title>
<g id="a_Node000002"><a xlink:href="Logger_8hpp.html" target="_top" xlink:title=" ">
<polygon fill="white" stroke="#666666" points="124,-82 0,-82 0,-62 124,-62 124,-82"/>
<text text-anchor="middle" x="62" y="-68.5" font-family="Helvetica,sans-Serif" font-size="10.00">validation&#45;api/Logger.hpp</text>
</a>
</g>
</g>
<!-- Node1&#45;&gt;Node2 -->
<g id="edge1_Node000001_Node000002" class="edge">
<title>Node1&#45;&gt;Node2</title>
<g id="a_edge1_Node000001_Node000002"><a xlink:title=" ">
<path fill="none" stroke="#63b8ff" d="M298.43,-124.21C250.3,-113.79 169.89,-96.37 116.41,-84.79"/>
<polygon fill="#63b8ff" stroke="#63b8ff" points="117.42,-81.42 106.9,-82.73 115.94,-88.26 117.42,-81.42"/>
</a>
</g>
</g>
<!-- Node4 -->
<g id="Node000004" class="node">
<title>Node4</title>
<g id="a_Node000004"><a xlink:title=" ">
<polygon fill="#e0e0e0" stroke="#999999" points="224,-82 142,-82 142,-62 224,-62 224,-82"/>
<text text-anchor="middle" x="183" y="-68.5" font-family="Helvetica,sans-Serif" font-size="10.00">spdlog/async.h</text>
</a>
</g>
</g>
<!-- Node1&#45;&gt;Node4 -->
<g id="edge3_Node000001_Node000004" class="edge">
<title>Node1&#45;&gt;Node4</title>
<g id="a_edge3_Node000001_Node000004"><a xlink:title=" ">
<path fill="none" stroke="#63b8ff" d="M314.62,-123.62C288.71,-113.66 247.5,-97.81 218.1,-86.5"/>
<polygon fill="#63b8ff" stroke="#63b8ff" points="219.46,-83.27 208.87,-82.95 216.95,-89.81 219.46,-83.27"/>
</a>
</g>
</g>
<!-- Node5 -->
<g id="Node000005" class="node">
<title>Node5</title>
<g id="a_Node000005"><a xlink:title=" ">
<polygon fill="#e0e0e0" stroke="#999999" points="324,-82 242,-82 242,-62 324,-62 324,-82"/>
<text text-anchor="middle" x="283" y="-68.5" font-family="Helvetica,sans-Serif" font-size="10.00">spdlog/logger.h</text>
</a>
</g>
</g>
<!-- Node1&#45;&gt;Node5 -->
<g id="edge4_Node000001_Node000005" class="edge">
<title>Node1&#45;&gt;Node5</title>
<g id="a_edge4_Node000001_Node000005"><a xlink:title=" ">
<path fill="none" stroke="#63b8ff" d="M330.25,-123.62C321.98,-114.77 309.38,-101.26 299.26,-90.43"/>
<polygon fill="#63b8ff" stroke="#63b8ff" points="301.92,-88.14 292.54,-83.22 296.8,-92.92 301.92,-88.14"/>
</a>
</g>
</g>
<!-- Node6 -->
<g id="Node000006" class="node">
<title>Node6</title>
<g id="a_Node000006"><a xlink:title=" ">
<polygon fill="#e0e0e0" stroke="#999999" points="448,-88 342,-88 342,-56 448,-56 448,-88"/>
<text text-anchor="start" x="350" y="-74.5" font-family="Helvetica,sans-Serif" font-size="10.00">spdlog/sinks/rotating</text>
<text text-anchor="middle" x="395" y="-62.5" font-family="Helvetica,sans-Serif" font-size="10.00">_file_sink.h</text>
</a>
</g>
</g>
<!-- Node1&#45;&gt;Node6 -->
<g id="edge5_Node000001_Node000006" class="edge">
<title>Node1&#45;&gt;Node6</title>
<g id="a_edge5_Node000001_Node000006"><a xlink:title=" ">
<path fill="none" stroke="#63b8ff" d="M347.75,-123.62C354.53,-116.36 364.24,-105.96 373.09,-96.48"/>
<polygon fill="#63b8ff" stroke="#63b8ff" points="375.57,-98.95 379.84,-89.25 370.45,-94.17 375.57,-98.95"/>
</a>
</g>
</g>
<!-- Node7 -->
<g id="Node000007" class="node">
<title>Node7</title>
<g id="a_Node000007"><a xlink:title=" ">
<polygon fill="#e0e0e0" stroke="#999999" points="566.38,-88 465.62,-88 465.62,-56 566.38,-56 566.38,-88"/>
<text text-anchor="start" x="473.62" y="-74.5" font-family="Helvetica,sans-Serif" font-size="10.00">spdlog/sinks/stdout</text>
<text text-anchor="middle" x="516" y="-62.5" font-family="Helvetica,sans-Serif" font-size="10.00">_color_sinks.h</text>
</a>
</g>
</g>
<!-- Node1&#45;&gt;Node7 -->
<g id="edge6_Node000001_Node000007" class="edge">
<title>Node1&#45;&gt;Node7</title>
<g id="a_edge6_Node000001_Node000007"><a xlink:title=" ">
<path fill="none" stroke="#63b8ff" d="M366.66,-123.62C391.44,-115.22 428.57,-102.64 459.61,-92.12"/>
<polygon fill="#63b8ff" stroke="#63b8ff" points="460.52,-95.5 468.87,-88.98 458.28,-88.87 460.52,-95.5"/>
</a>
</g>
</g>
<!-- Node8 -->
<g id="Node000008" class="node">
<title>Node8</title>
<g id="a_Node000008"><a xlink:title=" ">
<polygon fill="#e0e0e0" stroke="#999999" points="637.75,-82 584.25,-82 584.25,-62 637.75,-62 637.75,-82"/>
<text text-anchor="middle" x="611" y="-68.5" font-family="Helvetica,sans-Serif" font-size="10.00">iostream</text>
</a>
</g>
</g>
<!-- Node1&#45;&gt;Node8 -->
<g id="edge7_Node000001_Node000008" class="edge">
<title>Node1&#45;&gt;Node8</title>
<g id="a_edge7_Node000001_Node000008"><a xlink:title=" ">
<path fill="none" stroke="#63b8ff" d="M379.7,-127.84C427.22,-121.23 507.88,-108.15 575,-88 576.58,-87.53 578.19,-87.01 579.8,-86.45"/>
<polygon fill="#63b8ff" stroke="#63b8ff" points="580.8,-89.82 588.91,-83 578.32,-83.27 580.8,-89.82"/>
</a>
</g>
</g>
<!-- Node3 -->
<g id="Node000003" class="node">
<title>Node3</title>
<g id="a_Node000003"><a xlink:title=" ">
<polygon fill="#e0e0e0" stroke="#999999" points="104.12,-20 19.88,-20 19.88,0 104.12,0 104.12,-20"/>
<text text-anchor="middle" x="62" y="-6.5" font-family="Helvetica,sans-Serif" font-size="10.00">spdlog/spdlog.h</text>
</a>
</g>
</g>
<!-- Node2&#45;&gt;Node3 -->
<g id="edge2_Node000002_Node000003" class="edge">
<title>Node2&#45;&gt;Node3</title>
<g id="a_edge2_Node000002_Node000003"><a xlink:title=" ">
<path fill="none" stroke="#63b8ff" d="M62,-61.62C62,-53.56 62,-41.65 62,-31.41"/>
<polygon fill="#63b8ff" stroke="#63b8ff" points="65.5,-31.63 62,-21.63 58.5,-31.63 65.5,-31.63"/>
</a>
</g>
</g>
</g>
</svg>
