<?xml version="1.0" encoding="UTF-8" standalone="no"?>
<!DOCTYPE svg PUBLIC "-//W3C//DTD SVG 1.1//EN"
 "http://www.w3.org/Graphics/SVG/1.1/DTD/svg11.dtd">
<!-- Generated by graphviz version 10.0.1 (0)
 -->
<!-- Title: include/validation&#45;api/Logger.hpp Pages: 1 -->
<svg width="190pt" height="98pt"
 viewBox="0.00 0.00 190.00 98.25" xmlns="http://www.w3.org/2000/svg" xmlns:xlink="http://www.w3.org/1999/xlink">
<g id="graph0" class="graph" transform="scale(1 1) rotate(0) translate(4 94.25)">
<title>include/validation&#45;api/Logger.hpp</title>
<!-- Node1 -->
<g id="Node000001" class="node">
<title>Node1</title>
<g id="a_Node000001"><a xlink:title=" ">
<polygon fill="#999999" stroke="#666666" points="144.38,-90.25 41.38,-90.25 41.38,-56.75 144.38,-56.75 144.38,-90.25"/>
<text text-anchor="start" x="49.38" y="-76.75" font-family="Helvetica,sans-Serif" font-size="10.00">include/validation</text>
<text text-anchor="middle" x="92.88" y="-64" font-family="Helvetica,sans-Serif" font-size="10.00">&#45;api/Logger.hpp</text>
</a>
</g>
</g>
<!-- Node2 -->
<g id="Node000002" class="node">
<title>Node2</title>
<g id="a_Node000002"><a xlink:href="Logger_8cpp.html" target="_top" xlink:title=" ">
<polygon fill="white" stroke="#666666" points="85.75,-20.75 0,-20.75 0,0 85.75,0 85.75,-20.75"/>
<text text-anchor="middle" x="42.88" y="-7.25" font-family="Helvetica,sans-Serif" font-size="10.00">src/Logger.cpp</text>
</a>
</g>
</g>
<!-- Node1&#45;&gt;Node2 -->
<g id="edge1_Node000001_Node000002" class="edge">
<title>Node1&#45;&gt;Node2</title>
<g id="a_edge1_Node000001_Node000002"><a xlink:title=" ">
<path fill="none" stroke="#63b8ff" d="M72.47,-47.56C64.9,-38.3 56.75,-28.34 50.93,-21.22"/>
<polygon fill="#63b8ff" stroke="#63b8ff" points="69.74,-49.74 78.78,-55.27 75.16,-45.31 69.74,-49.74"/>
</a>
</g>
</g>
<!-- Node3 -->
<g id="Node000003" class="node">
<title>Node3</title>
<g id="a_Node000003"><a xlink:href="main_8cpp.html" target="_top" xlink:title=" ">
<polygon fill="white" stroke="#666666" points="182,-20.75 103.75,-20.75 103.75,0 182,0 182,-20.75"/>
<text text-anchor="middle" x="142.88" y="-7.25" font-family="Helvetica,sans-Serif" font-size="10.00">src/main.cpp</text>
</a>
</g>
</g>
<!-- Node1&#45;&gt;Node3 -->
<g id="edge2_Node000001_Node000003" class="edge">
<title>Node1&#45;&gt;Node3</title>
<g id="a_edge2_Node000001_Node000003"><a xlink:title=" ">
<path fill="none" stroke="#63b8ff" d="M113.28,-47.56C120.85,-38.3 129,-28.34 134.82,-21.22"/>
<polygon fill="#63b8ff" stroke="#63b8ff" points="110.59,-45.31 106.97,-55.27 116.01,-49.74 110.59,-45.31"/>
</a>
</g>
</g>
</g>
</svg>
