<?xml version="1.0" encoding="UTF-8" standalone="no"?>
<!DOCTYPE svg PUBLIC "-//W3C//DTD SVG 1.1//EN"
 "http://www.w3.org/Graphics/SVG/1.1/DTD/svg11.dtd">
<!-- Generated by graphviz version 10.0.1 (0)
 -->
<!-- Title: src/main.cpp Pages: 1 -->
<svg width="932pt" height="212pt"
 viewBox="0.00 0.00 932.12 211.75" xmlns="http://www.w3.org/2000/svg" xmlns:xlink="http://www.w3.org/1999/xlink">
<g id="graph0" class="graph" transform="scale(1 1) rotate(0) translate(4 207.75)">
<title>src/main.cpp</title>
<!-- Node1 -->
<g id="Node000001" class="node">
<title>Node1</title>
<g id="a_Node000001"><a xlink:title=" ">
<polygon fill="#999999" stroke="#666666" points="515.38,-203.75 437.12,-203.75 437.12,-183 515.38,-183 515.38,-203.75"/>
<text text-anchor="middle" x="476.25" y="-190.25" font-family="Helvetica,sans-Serif" font-size="10.00">src/main.cpp</text>
</a>
</g>
</g>
<!-- Node2 -->
<g id="Node000002" class="node">
<title>Node2</title>
<g id="a_Node000002"><a xlink:title=" ">
<polygon fill="#e0e0e0" stroke="#999999" points="802.5,-20.75 710,-20.75 710,0 802.5,0 802.5,-20.75"/>
<text text-anchor="middle" x="756.25" y="-7.25" font-family="Helvetica,sans-Serif" font-size="10.00">spdlog/spdlog.h</text>
</a>
</g>
</g>
<!-- Node1&#45;&gt;Node2 -->
<g id="edge1_Node000001_Node000002" class="edge">
<title>Node1&#45;&gt;Node2</title>
<g id="a_edge1_Node000001_Node000002"><a xlink:title=" ">
<path fill="none" stroke="#63b8ff" d="M515.72,-192.47C561.19,-190.77 636.4,-182.24 689.25,-147 729,-120.49 746.09,-63.16 752.65,-32.21"/>
<polygon fill="#63b8ff" stroke="#63b8ff" points="756.06,-33.03 754.51,-22.55 749.18,-31.71 756.06,-33.03"/>
</a>
</g>
</g>
<!-- Node3 -->
<g id="Node000003" class="node">
<title>Node3</title>
<g id="a_Node000003"><a xlink:title=" ">
<polygon fill="#e0e0e0" stroke="#999999" points="727.88,-77.5 640.62,-77.5 640.62,-56.75 727.88,-56.75 727.88,-77.5"/>
<text text-anchor="middle" x="684.25" y="-64" font-family="Helvetica,sans-Serif" font-size="10.00">boost/asio.hpp</text>
</a>
</g>
</g>
<!-- Node1&#45;&gt;Node3 -->
<g id="edge2_Node000001_Node000003" class="edge">
<title>Node1&#45;&gt;Node3</title>
<g id="a_edge2_Node000001_Node000003"><a xlink:title=" ">
<path fill="none" stroke="#63b8ff" d="M515.49,-188.09C565.33,-181.83 647.4,-168.53 668.25,-147 682.96,-131.82 685.87,-107.03 685.79,-89.3"/>
<polygon fill="#63b8ff" stroke="#63b8ff" points="689.29,-89.23 685.39,-79.38 682.3,-89.51 689.29,-89.23"/>
</a>
</g>
</g>
<!-- Node4 -->
<g id="Node000004" class="node">
<title>Node4</title>
<g id="a_Node000004"><a xlink:title=" ">
<polygon fill="#e0e0e0" stroke="#999999" points="233.25,-140.62 115.25,-140.62 115.25,-119.88 233.25,-119.88 233.25,-140.62"/>
<text text-anchor="middle" x="174.25" y="-127.12" font-family="Helvetica,sans-Serif" font-size="10.00">boost/filesystem.hpp</text>
</a>
</g>
</g>
<!-- Node1&#45;&gt;Node4 -->
<g id="edge3_Node000001_Node000004" class="edge">
<title>Node1&#45;&gt;Node4</title>
<g id="a_edge3_Node000001_Node000004"><a xlink:title=" ">
<path fill="none" stroke="#63b8ff" d="M436.83,-185.18C390.25,-176.57 310.45,-161.51 242.25,-147 237.11,-145.91 231.77,-144.73 226.43,-143.54"/>
<polygon fill="#63b8ff" stroke="#63b8ff" points="227.55,-140.2 217.03,-141.4 226,-147.03 227.55,-140.2"/>
</a>
</g>
</g>
<!-- Node5 -->
<g id="Node000005" class="node">
<title>Node5</title>
<g id="a_Node000005"><a xlink:title=" ">
<polygon fill="#e0e0e0" stroke="#999999" points="98.5,-20.75 0,-20.75 0,0 98.5,0 98.5,-20.75"/>
<text text-anchor="middle" x="49.25" y="-7.25" font-family="Helvetica,sans-Serif" font-size="10.00">boost/thread.hpp</text>
</a>
</g>
</g>
<!-- Node1&#45;&gt;Node5 -->
<g id="edge4_Node000001_Node000005" class="edge">
<title>Node1&#45;&gt;Node5</title>
<g id="a_edge4_Node000001_Node000005"><a xlink:title=" ">
<path fill="none" stroke="#63b8ff" d="M436.76,-192.79C350.32,-192.92 147.93,-188.62 96.25,-147 61.27,-118.82 52.25,-63.09 49.97,-32.57"/>
<polygon fill="#63b8ff" stroke="#63b8ff" points="53.47,-32.5 49.44,-22.7 46.48,-32.88 53.47,-32.5"/>
</a>
</g>
</g>
<!-- Node6 -->
<g id="Node000006" class="node">
<title>Node6</title>
<g id="a_Node000006"><a xlink:title=" ">
<polygon fill="#e0e0e0" stroke="#999999" points="506,-140.62 446.5,-140.62 446.5,-119.88 506,-119.88 506,-140.62"/>
<text text-anchor="middle" x="476.25" y="-127.12" font-family="Helvetica,sans-Serif" font-size="10.00">iostream</text>
</a>
</g>
</g>
<!-- Node1&#45;&gt;Node6 -->
<g id="edge5_Node000001_Node000006" class="edge">
<title>Node1&#45;&gt;Node6</title>
<g id="a_edge5_Node000001_Node000006"><a xlink:title=" ">
<path fill="none" stroke="#63b8ff" d="M476.25,-182.55C476.25,-174.4 476.25,-162.51 476.25,-152.23"/>
<polygon fill="#63b8ff" stroke="#63b8ff" points="479.75,-152.36 476.25,-142.36 472.75,-152.36 479.75,-152.36"/>
</a>
</g>
</g>
<!-- Node7 -->
<g id="Node000007" class="node">
<title>Node7</title>
<g id="a_Node000007"><a xlink:href="ConfigService_8hpp.html" target="_top" xlink:title=" ">
<polygon fill="white" stroke="#666666" points="258.38,-77.5 84.12,-77.5 84.12,-56.75 258.38,-56.75 258.38,-77.5"/>
<text text-anchor="middle" x="171.25" y="-64" font-family="Helvetica,sans-Serif" font-size="10.00">validation&#45;api/ConfigService.hpp</text>
</a>
</g>
</g>
<!-- Node1&#45;&gt;Node7 -->
<g id="edge6_Node000001_Node000007" class="edge">
<title>Node1&#45;&gt;Node7</title>
<g id="a_edge6_Node000001_Node000007"><a xlink:title=" ">
<path fill="none" stroke="#63b8ff" d="M436.7,-190.44C345.76,-185.58 127.91,-171.48 106.25,-147 96.38,-135.85 99.37,-126.7 106.25,-113.5 112.96,-100.63 125.18,-90.66 137.22,-83.39"/>
<polygon fill="#63b8ff" stroke="#63b8ff" points="138.77,-86.53 145.85,-78.64 135.4,-80.4 138.77,-86.53"/>
</a>
</g>
</g>
<!-- Node10 -->
<g id="Node000010" class="node">
<title>Node10</title>
<g id="a_Node000010"><a xlink:href="ConfigWatcher_8hpp.html" target="_top" xlink:title=" ">
<polygon fill="white" stroke="#666666" points="428.88,-140.62 251.62,-140.62 251.62,-119.88 428.88,-119.88 428.88,-140.62"/>
<text text-anchor="middle" x="340.25" y="-127.12" font-family="Helvetica,sans-Serif" font-size="10.00">validation&#45;api/ConfigWatcher.hpp</text>
</a>
</g>
</g>
<!-- Node1&#45;&gt;Node10 -->
<g id="edge11_Node000001_Node000010" class="edge">
<title>Node1&#45;&gt;Node10</title>
<g id="a_edge11_Node000001_Node000010"><a xlink:title=" ">
<path fill="none" stroke="#63b8ff" d="M454.4,-182.55C432.19,-172.57 397.55,-157 372.25,-145.63"/>
<polygon fill="#63b8ff" stroke="#63b8ff" points="373.98,-142.57 363.43,-141.67 371.11,-148.96 373.98,-142.57"/>
</a>
</g>
</g>
<!-- Node13 -->
<g id="Node000013" class="node">
<title>Node13</title>
<g id="a_Node000013"><a xlink:href="Logger_8hpp.html" target="_top" xlink:title=" ">
<polygon fill="white" stroke="#666666" points="924.12,-140.62 784.38,-140.62 784.38,-119.88 924.12,-119.88 924.12,-140.62"/>
<text text-anchor="middle" x="854.25" y="-127.12" font-family="Helvetica,sans-Serif" font-size="10.00">validation&#45;api/Logger.hpp</text>
</a>
</g>
</g>
<!-- Node1&#45;&gt;Node13 -->
<g id="edge16_Node000001_Node000013" class="edge">
<title>Node1&#45;&gt;Node13</title>
<g id="a_edge16_Node000001_Node000013"><a xlink:title=" ">
<path fill="none" stroke="#63b8ff" d="M515.79,-186.69C572.29,-178.46 679.38,-162.53 770.25,-147 777.34,-145.79 784.76,-144.47 792.12,-143.13"/>
<polygon fill="#63b8ff" stroke="#63b8ff" points="792.52,-146.62 801.72,-141.37 791.26,-139.73 792.52,-146.62"/>
</a>
</g>
</g>
<!-- Node14 -->
<g id="Node000014" class="node">
<title>Node14</title>
<g id="a_Node000014"><a xlink:href="ValidationServer_8hpp.html" target="_top" xlink:title=" ">
<polygon fill="white" stroke="#666666" points="658.88,-147 523.62,-147 523.62,-113.5 658.88,-113.5 658.88,-147"/>
<text text-anchor="start" x="531.62" y="-133.5" font-family="Helvetica,sans-Serif" font-size="10.00">validation&#45;api/Validation</text>
<text text-anchor="middle" x="591.25" y="-120.75" font-family="Helvetica,sans-Serif" font-size="10.00">Server.hpp</text>
</a>
</g>
</g>
<!-- Node1&#45;&gt;Node14 -->
<g id="edge18_Node000001_Node000014" class="edge">
<title>Node1&#45;&gt;Node14</title>
<g id="a_edge18_Node000001_Node000014"><a xlink:title=" ">
<path fill="none" stroke="#63b8ff" d="M494.73,-182.55C509.8,-174.54 531.64,-162.94 550.73,-152.79"/>
<polygon fill="#63b8ff" stroke="#63b8ff" points="552.18,-155.98 559.37,-148.2 548.9,-149.8 552.18,-155.98"/>
</a>
</g>
</g>
<!-- Node7&#45;&gt;Node2 -->
<g id="edge7_Node000007_Node000002" class="edge">
<title>Node7&#45;&gt;Node2</title>
<g id="a_edge7_Node000007_Node000002"><a xlink:title=" ">
<path fill="none" stroke="#63b8ff" d="M258.63,-57.57C261.54,-57.3 264.42,-57.02 267.25,-56.75 423.12,-41.91 607.01,-25.01 698.5,-16.64"/>
<polygon fill="#63b8ff" stroke="#63b8ff" points="698.57,-20.15 708.21,-15.76 697.94,-13.18 698.57,-20.15"/>
</a>
</g>
</g>
<!-- Node7&#45;&gt;Node5 -->
<g id="edge8_Node000007_Node000005" class="edge">
<title>Node7&#45;&gt;Node5</title>
<g id="a_edge8_Node000007_Node000005"><a xlink:title=" ">
<path fill="none" stroke="#63b8ff" d="M149.44,-56.34C130.44,-47.81 102.65,-35.34 81.16,-25.69"/>
<polygon fill="#63b8ff" stroke="#63b8ff" points="82.81,-22.6 72.25,-21.7 79.94,-28.99 82.81,-22.6"/>
</a>
</g>
</g>
<!-- Node8 -->
<g id="Node000008" class="node">
<title>Node8</title>
<g id="a_Node000008"><a xlink:title=" ">
<polygon fill="#e0e0e0" stroke="#999999" points="225.75,-20.75 116.75,-20.75 116.75,0 225.75,0 225.75,-20.75"/>
<text text-anchor="middle" x="171.25" y="-7.25" font-family="Helvetica,sans-Serif" font-size="10.00">nlohmann/json.hpp</text>
</a>
</g>
</g>
<!-- Node7&#45;&gt;Node8 -->
<g id="edge9_Node000007_Node000008" class="edge">
<title>Node7&#45;&gt;Node8</title>
<g id="a_edge9_Node000007_Node000008"><a xlink:title=" ">
<path fill="none" stroke="#63b8ff" d="M171.25,-56.34C171.25,-49.72 171.25,-40.72 171.25,-32.52"/>
<polygon fill="#63b8ff" stroke="#63b8ff" points="174.75,-32.59 171.25,-22.59 167.75,-32.59 174.75,-32.59"/>
</a>
</g>
</g>
<!-- Node9 -->
<g id="Node000009" class="node">
<title>Node9</title>
<g id="a_Node000009"><a xlink:title=" ">
<polygon fill="#e0e0e0" stroke="#999999" points="320.62,-20.75 243.88,-20.75 243.88,0 320.62,0 320.62,-20.75"/>
<text text-anchor="middle" x="282.25" y="-7.25" font-family="Helvetica,sans-Serif" font-size="10.00">pugixml.hpp</text>
</a>
</g>
</g>
<!-- Node7&#45;&gt;Node9 -->
<g id="edge10_Node000007_Node000009" class="edge">
<title>Node7&#45;&gt;Node9</title>
<g id="a_edge10_Node000007_Node000009"><a xlink:title=" ">
<path fill="none" stroke="#63b8ff" d="M191.09,-56.34C208.14,-47.93 232.97,-35.68 252.41,-26.09"/>
<polygon fill="#63b8ff" stroke="#63b8ff" points="253.8,-29.31 261.22,-21.75 250.7,-23.03 253.8,-29.31"/>
</a>
</g>
</g>
<!-- Node10&#45;&gt;Node3 -->
<g id="edge12_Node000010_Node000003" class="edge">
<title>Node10&#45;&gt;Node3</title>
<g id="a_edge12_Node000010_Node000003"><a xlink:title=" ">
<path fill="none" stroke="#63b8ff" d="M395.52,-119.43C459.75,-108.02 565.1,-89.3 629.23,-77.9"/>
<polygon fill="#63b8ff" stroke="#63b8ff" points="629.59,-81.39 638.82,-76.2 628.37,-74.5 629.59,-81.39"/>
</a>
</g>
</g>
<!-- Node10&#45;&gt;Node7 -->
<g id="edge14_Node000010_Node000007" class="edge">
<title>Node10&#45;&gt;Node7</title>
<g id="a_edge14_Node000010_Node000007"><a xlink:title=" ">
<path fill="none" stroke="#63b8ff" d="M313.1,-119.43C284.89,-109.23 240.53,-93.18 208.93,-81.75"/>
<polygon fill="#63b8ff" stroke="#63b8ff" points="210.35,-78.55 199.76,-78.44 207.97,-85.13 210.35,-78.55"/>
</a>
</g>
</g>
<!-- Node11 -->
<g id="Node000011" class="node">
<title>Node11</title>
<g id="a_Node000011"><a xlink:title=" ">
<polygon fill="#e0e0e0" stroke="#999999" points="368.5,-77.5 276,-77.5 276,-56.75 368.5,-56.75 368.5,-77.5"/>
<text text-anchor="middle" x="322.25" y="-64" font-family="Helvetica,sans-Serif" font-size="10.00">unordered_map</text>
</a>
</g>
</g>
<!-- Node10&#45;&gt;Node11 -->
<g id="edge13_Node000010_Node000011" class="edge">
<title>Node10&#45;&gt;Node11</title>
<g id="a_edge13_Node000010_Node000011"><a xlink:title=" ">
<path fill="none" stroke="#63b8ff" d="M337.36,-119.43C334.93,-111.18 331.38,-99.12 328.33,-88.76"/>
<polygon fill="#63b8ff" stroke="#63b8ff" points="331.69,-87.78 325.5,-79.17 324.97,-89.75 331.69,-87.78"/>
</a>
</g>
</g>
<!-- Node12 -->
<g id="Node000012" class="node">
<title>Node12</title>
<g id="a_Node000012"><a xlink:href="IService_8hpp.html" target="_top" xlink:title=" ">
<polygon fill="white" stroke="#666666" points="533.5,-77.5 387,-77.5 387,-56.75 533.5,-56.75 533.5,-77.5"/>
<text text-anchor="middle" x="460.25" y="-64" font-family="Helvetica,sans-Serif" font-size="10.00">validation&#45;api/IService.hpp</text>
</a>
</g>
</g>
<!-- Node10&#45;&gt;Node12 -->
<g id="edge15_Node000010_Node000012" class="edge">
<title>Node10&#45;&gt;Node12</title>
<g id="a_edge15_Node000010_Node000012"><a xlink:title=" ">
<path fill="none" stroke="#63b8ff" d="M359.53,-119.43C378.77,-109.63 408.6,-94.43 430.81,-83.12"/>
<polygon fill="#63b8ff" stroke="#63b8ff" points="432.35,-86.27 439.67,-78.61 429.17,-80.03 432.35,-86.27"/>
</a>
</g>
</g>
<!-- Node13&#45;&gt;Node2 -->
<g id="edge17_Node000013_Node000002" class="edge">
<title>Node13&#45;&gt;Node2</title>
<g id="a_edge17_Node000013_Node000002"><a xlink:title=" ">
<path fill="none" stroke="#63b8ff" d="M846.23,-119.6C829.94,-100 792.72,-55.24 771.61,-29.84"/>
<polygon fill="#63b8ff" stroke="#63b8ff" points="774.43,-27.77 765.35,-22.32 769.05,-32.25 774.43,-27.77"/>
</a>
</g>
</g>
<!-- Node14&#45;&gt;Node3 -->
<g id="edge19_Node000014_Node000003" class="edge">
<title>Node14&#45;&gt;Node3</title>
<g id="a_edge19_Node000014_Node000003"><a xlink:title=" ">
<path fill="none" stroke="#63b8ff" d="M615.68,-113.19C629.37,-104.2 646.37,-93.02 660.02,-84.05"/>
<polygon fill="#63b8ff" stroke="#63b8ff" points="661.58,-87.22 668.01,-78.8 657.73,-81.37 661.58,-87.22"/>
</a>
</g>
</g>
<!-- Node14&#45;&gt;Node7 -->
<g id="edge21_Node000014_Node000007" class="edge">
<title>Node14&#45;&gt;Node7</title>
<g id="a_edge21_Node000014_Node000007"><a xlink:title=" ">
<path fill="none" stroke="#63b8ff" d="M523.34,-114.92C520.61,-114.43 517.91,-113.95 515.25,-113.5 432.97,-99.57 339,-87.43 270.09,-79.22"/>
<polygon fill="#63b8ff" stroke="#63b8ff" points="270.66,-75.76 260.32,-78.06 269.84,-82.71 270.66,-75.76"/>
</a>
</g>
</g>
<!-- Node14&#45;&gt;Node12 -->
<g id="edge22_Node000014_Node000012" class="edge">
<title>Node14&#45;&gt;Node12</title>
<g id="a_edge22_Node000014_Node000012"><a xlink:title=" ">
<path fill="none" stroke="#63b8ff" d="M556.49,-113.03C536.28,-103.6 511.02,-91.81 491.45,-82.68"/>
<polygon fill="#63b8ff" stroke="#63b8ff" points="493.15,-79.61 482.6,-78.56 490.19,-85.96 493.15,-79.61"/>
</a>
</g>
</g>
<!-- Node15 -->
<g id="Node000015" class="node">
<title>Node15</title>
<g id="a_Node000015"><a xlink:title=" ">
<polygon fill="#e0e0e0" stroke="#999999" points="622.62,-77.5 551.88,-77.5 551.88,-56.75 622.62,-56.75 622.62,-77.5"/>
<text text-anchor="middle" x="587.25" y="-64" font-family="Helvetica,sans-Serif" font-size="10.00">semaphore</text>
</a>
</g>
</g>
<!-- Node14&#45;&gt;Node15 -->
<g id="edge20_Node000014_Node000015" class="edge">
<title>Node14&#45;&gt;Node15</title>
<g id="a_edge20_Node000014_Node000015"><a xlink:title=" ">
<path fill="none" stroke="#63b8ff" d="M590.2,-113.19C589.72,-105.85 589.14,-97.07 588.63,-89.21"/>
<polygon fill="#63b8ff" stroke="#63b8ff" points="592.14,-89.23 587.99,-79.48 585.15,-89.68 592.14,-89.23"/>
</a>
</g>
</g>
</g>
</svg>
