<?xml version="1.0" encoding="UTF-8" standalone="no"?>
<!DOCTYPE svg PUBLIC "-//W3C//DTD SVG 1.1//EN"
 "http://www.w3.org/Graphics/SVG/1.1/DTD/svg11.dtd">
<!-- Generated by graphviz version 10.0.1 (0)
 -->
<!-- Title: main Pages: 1 -->
<svg width="225pt" height="94pt"
 viewBox="0.00 0.00 224.50 93.50" xmlns="http://www.w3.org/2000/svg" xmlns:xlink="http://www.w3.org/1999/xlink">
<g id="graph0" class="graph" transform="scale(1 1) rotate(0) translate(4 89.5)">
<title>main</title>
<!-- Node1 -->
<g id="Node000001" class="node">
<title>Node1</title>
<g id="a_Node000001"><a xlink:title=" ">
<polygon fill="#999999" stroke="#666666" points="40.75,-53.12 0,-53.12 0,-32.38 40.75,-32.38 40.75,-53.12"/>
<text text-anchor="middle" x="20.38" y="-39.62" font-family="Helvetica,sans-Serif" font-size="10.00">main</text>
</a>
</g>
</g>
<!-- Node2 -->
<g id="Node000002" class="node">
<title>Node2</title>
<g id="a_Node000002"><a xlink:href="namespacevalidation__api.html#add9de92f1283937ab6d7688462f67c3c" target="_top" xlink:title="Sets up and configures the logger using spdlog.">
<polygon fill="white" stroke="#666666" points="205.62,-85.5 87.62,-85.5 87.62,-52 205.62,-52 205.62,-85.5"/>
<text text-anchor="start" x="95.62" y="-72" font-family="Helvetica,sans-Serif" font-size="10.00">validation_api::setup</text>
<text text-anchor="middle" x="146.62" y="-59.25" font-family="Helvetica,sans-Serif" font-size="10.00">_logger</text>
</a>
</g>
</g>
<!-- Node1&#45;&gt;Node2 -->
<g id="edge1_Node000001_Node000002" class="edge">
<title>Node1&#45;&gt;Node2</title>
<g id="a_edge1_Node000001_Node000002"><a xlink:title=" ">
<path fill="none" stroke="#63b8ff" d="M41.06,-46.87C50.9,-48.93 63.45,-51.56 76.43,-54.27"/>
<polygon fill="#63b8ff" stroke="#63b8ff" points="75.38,-57.63 85.89,-56.25 76.82,-50.78 75.38,-57.63"/>
</a>
</g>
</g>
<!-- Node3 -->
<g id="Node000003" class="node">
<title>Node3</title>
<g id="a_Node000003"><a xlink:href="classvalidation__api_1_1ValidationServer.html#a666522eafc9b935cae058688df4f7f9d" target="_top" xlink:title="Stop the server.">
<polygon fill="white" stroke="#666666" points="216.5,-33.5 76.75,-33.5 76.75,0 216.5,0 216.5,-33.5"/>
<text text-anchor="start" x="84.75" y="-20" font-family="Helvetica,sans-Serif" font-size="10.00">validation_api::Validation</text>
<text text-anchor="middle" x="146.62" y="-7.25" font-family="Helvetica,sans-Serif" font-size="10.00">Server::stop</text>
</a>
</g>
</g>
<!-- Node1&#45;&gt;Node3 -->
<g id="edge2_Node000001_Node000003" class="edge">
<title>Node1&#45;&gt;Node3</title>
<g id="a_edge2_Node000001_Node000003"><a xlink:title=" ">
<path fill="none" stroke="#63b8ff" d="M41.06,-38.63C48.07,-37.16 56.45,-35.41 65.38,-33.54"/>
<polygon fill="#63b8ff" stroke="#63b8ff" points="65.94,-37 75.01,-31.53 64.51,-30.15 65.94,-37"/>
</a>
</g>
</g>
</g>
</svg>
