<?xml version="1.0" encoding="UTF-8" standalone="no"?>
<!DOCTYPE svg PUBLIC "-//W3C//DTD SVG 1.1//EN"
 "http://www.w3.org/Graphics/SVG/1.1/DTD/svg11.dtd">
<!-- Generated by graphviz version 10.0.1 (0)
 -->
<!-- Title: main Pages: 1 -->
<svg width="659pt" height="139pt"
 viewBox="0.00 0.00 659.25 138.50" xmlns="http://www.w3.org/2000/svg" xmlns:xlink="http://www.w3.org/1999/xlink">
<g id="graph0" class="graph" transform="scale(1 1) rotate(0) translate(4 134.5)">
<title>main</title>
<!-- Node1 -->
<g id="Node000001" class="node">
<title>Node1</title>
<g id="a_Node000001"><a xlink:title=" ">
<polygon fill="#999999" stroke="#666666" points="40.75,-49.12 0,-49.12 0,-28.38 40.75,-28.38 40.75,-49.12"/>
<text text-anchor="middle" x="20.38" y="-35.62" font-family="Helvetica,sans-Serif" font-size="10.00">main</text>
</a>
</g>
</g>
<!-- Node2 -->
<g id="Node000002" class="node">
<title>Node2</title>
<g id="a_Node000002"><a xlink:href="classvalidation__api_1_1ConfigWatcher.html#a13e118f62a6b13b780f44e12d5afed78" target="_top" xlink:title="Start ConfigWatcher.">
<polygon fill="white" stroke="#666666" points="260,-72.12 76.75,-72.12 76.75,-51.38 260,-51.38 260,-72.12"/>
<text text-anchor="middle" x="168.38" y="-58.62" font-family="Helvetica,sans-Serif" font-size="10.00">validation_api::ConfigWatcher::run</text>
</a>
</g>
</g>
<!-- Node1&#45;&gt;Node2 -->
<g id="edge1_Node000001_Node000002" class="edge">
<title>Node1&#45;&gt;Node2</title>
<g id="a_edge1_Node000001_Node000002"><a xlink:title=" ">
<path fill="none" stroke="#63b8ff" d="M41.07,-41.85C53.32,-43.78 69.99,-46.41 87.2,-49.12"/>
<polygon fill="#63b8ff" stroke="#63b8ff" points="86.63,-52.57 97.05,-50.67 87.71,-45.66 86.63,-52.57"/>
</a>
</g>
</g>
<!-- Node7 -->
<g id="Node000007" class="node">
<title>Node7</title>
<g id="a_Node000007"><a xlink:href="namespacevalidation__api.html#add9de92f1283937ab6d7688462f67c3c" target="_top" xlink:title="Sets up and configures the logger using spdlog.">
<polygon fill="white" stroke="#666666" points="227.38,-33.5 109.38,-33.5 109.38,0 227.38,0 227.38,-33.5"/>
<text text-anchor="start" x="117.38" y="-20" font-family="Helvetica,sans-Serif" font-size="10.00">validation_api::setup</text>
<text text-anchor="middle" x="168.38" y="-7.25" font-family="Helvetica,sans-Serif" font-size="10.00">_logger</text>
</a>
</g>
</g>
<!-- Node1&#45;&gt;Node7 -->
<g id="edge6_Node000001_Node000007" class="edge">
<title>Node1&#45;&gt;Node7</title>
<g id="a_edge6_Node000001_Node000007"><a xlink:title=" ">
<path fill="none" stroke="#63b8ff" d="M41.07,-35.78C55.84,-33.56 77.03,-30.36 97.84,-27.23"/>
<polygon fill="#63b8ff" stroke="#63b8ff" points="98.13,-30.72 107.49,-25.77 97.08,-23.8 98.13,-30.72"/>
</a>
</g>
</g>
<!-- Node3 -->
<g id="Node000003" class="node">
<title>Node3</title>
<g id="a_Node000003"><a xlink:href="classvalidation__api_1_1ConfigService.html#a72b9695e86a85502ea559e009a878e4c" target="_top" xlink:title="getConfigs method">
<polygon fill="white" stroke="#666666" points="455.62,-130.5 297.88,-130.5 297.88,-97 455.62,-97 455.62,-130.5"/>
<text text-anchor="start" x="305.88" y="-117" font-family="Helvetica,sans-Serif" font-size="10.00">validation_api::ConfigService</text>
<text text-anchor="middle" x="376.75" y="-104.25" font-family="Helvetica,sans-Serif" font-size="10.00">::deleteConfig</text>
</a>
</g>
</g>
<!-- Node2&#45;&gt;Node3 -->
<g id="edge2_Node000002_Node000003" class="edge">
<title>Node2&#45;&gt;Node3</title>
<g id="a_edge2_Node000002_Node000003"><a xlink:title=" ">
<path fill="none" stroke="#63b8ff" d="M212.39,-72.59C236.79,-78.74 268.1,-86.63 296.77,-93.85"/>
<polygon fill="#63b8ff" stroke="#63b8ff" points="295.59,-97.16 306.14,-96.21 297.3,-90.37 295.59,-97.16"/>
</a>
</g>
</g>
<!-- Node4 -->
<g id="Node000004" class="node">
<title>Node4</title>
<g id="a_Node000004"><a xlink:href="classvalidation__api_1_1ConfigWatcher.html#a78820bcf2ebf9135785e207aae042e72" target="_top" xlink:title=" ">
<polygon fill="white" stroke="#666666" points="457.5,-78.5 296,-78.5 296,-45 457.5,-45 457.5,-78.5"/>
<text text-anchor="start" x="304" y="-65" font-family="Helvetica,sans-Serif" font-size="10.00">validation_api::ConfigWatcher</text>
<text text-anchor="middle" x="376.75" y="-52.25" font-family="Helvetica,sans-Serif" font-size="10.00">::read_file</text>
</a>
</g>
</g>
<!-- Node2&#45;&gt;Node4 -->
<g id="edge3_Node000002_Node000004" class="edge">
<title>Node2&#45;&gt;Node4</title>
<g id="a_edge3_Node000002_Node000004"><a xlink:title=" ">
<path fill="none" stroke="#63b8ff" d="M260.49,-61.75C268.4,-61.75 276.41,-61.75 284.32,-61.75"/>
<polygon fill="#63b8ff" stroke="#63b8ff" points="284.3,-65.25 294.3,-61.75 284.3,-58.25 284.3,-65.25"/>
</a>
</g>
</g>
<!-- Node6 -->
<g id="Node000006" class="node">
<title>Node6</title>
<g id="a_Node000006"><a xlink:href="ConfigWatcher_8cpp.html#af492780bc7786abac56fa242d4fc3045" target="_top" xlink:title=" ">
<polygon fill="white" stroke="#666666" points="412.12,-27.12 341.38,-27.12 341.38,-6.38 412.12,-6.38 412.12,-27.12"/>
<text text-anchor="middle" x="376.75" y="-13.62" font-family="Helvetica,sans-Serif" font-size="10.00">semaphore</text>
</a>
</g>
</g>
<!-- Node2&#45;&gt;Node6 -->
<g id="edge5_Node000002_Node000006" class="edge">
<title>Node2&#45;&gt;Node6</title>
<g id="a_edge5_Node000002_Node000006"><a xlink:title=" ">
<path fill="none" stroke="#63b8ff" d="M221.64,-50.93C234.21,-48.29 247.59,-45.44 260,-42.75 283.12,-37.73 308.79,-31.98 330.07,-27.17"/>
<polygon fill="#63b8ff" stroke="#63b8ff" points="330.63,-30.63 339.61,-25.01 329.08,-23.8 330.63,-30.63"/>
</a>
</g>
</g>
<!-- Node5 -->
<g id="Node000005" class="node">
<title>Node5</title>
<g id="a_Node000005"><a xlink:href="classvalidation__api_1_1ConfigService.html#a8fee54d1f3f5eb92a17c3ecd72780f00" target="_top" xlink:title="getConfigs method">
<polygon fill="white" stroke="#666666" points="651.25,-78.5 493.5,-78.5 493.5,-45 651.25,-45 651.25,-78.5"/>
<text text-anchor="start" x="501.5" y="-65" font-family="Helvetica,sans-Serif" font-size="10.00">validation_api::ConfigService</text>
<text text-anchor="middle" x="572.38" y="-52.25" font-family="Helvetica,sans-Serif" font-size="10.00">::createConfig</text>
</a>
</g>
</g>
<!-- Node4&#45;&gt;Node5 -->
<g id="edge4_Node000004_Node000005" class="edge">
<title>Node4&#45;&gt;Node5</title>
<g id="a_edge4_Node000004_Node000005"><a xlink:title=" ">
<path fill="none" stroke="#63b8ff" d="M457.9,-61.75C465.82,-61.75 473.9,-61.75 481.9,-61.75"/>
<polygon fill="#63b8ff" stroke="#63b8ff" points="481.64,-65.25 491.64,-61.75 481.64,-58.25 481.64,-65.25"/>
</a>
</g>
</g>
</g>
</svg>
