<?xml version="1.0" encoding="UTF-8" standalone="no"?>
<!DOCTYPE svg PUBLIC "-//W3C//DTD SVG 1.1//EN"
 "http://www.w3.org/Graphics/SVG/1.1/DTD/svg11.dtd">
<!-- Generated by graphviz version 12.2.1 (0)
 -->
<!-- Title: src/main.cpp Pages: 1 -->
<svg width="1275pt" height="208pt"
 viewBox="0.00 0.00 1275.25 208.00" xmlns="http://www.w3.org/2000/svg" xmlns:xlink="http://www.w3.org/1999/xlink">
<g id="graph0" class="graph" transform="scale(1 1) rotate(0) translate(4 204)">
<title>src/main.cpp</title>
<!-- Node1 -->
<g id="Node000001" class="node">
<title>Node1</title>
<g id="a_Node000001"><a xlink:title=" ">
<polygon fill="#999999" stroke="#666666" points="589.38,-200 517.12,-200 517.12,-180 589.38,-180 589.38,-200"/>
<text text-anchor="middle" x="553.25" y="-186.5" font-family="Helvetica,sans-Serif" font-size="10.00">src/main.cpp</text>
</a>
</g>
</g>
<!-- Node2 -->
<g id="Node000002" class="node">
<title>Node2</title>
<g id="a_Node000002"><a xlink:title=" ">
<polygon fill="#e0e0e0" stroke="#999999" points="44.5,-138 0,-138 0,-118 44.5,-118 44.5,-138"/>
<text text-anchor="middle" x="22.25" y="-124.5" font-family="Helvetica,sans-Serif" font-size="10.00">cstdlib</text>
</a>
</g>
</g>
<!-- Node1&#45;&gt;Node2 -->
<g id="edge1_Node000001_Node000002" class="edge">
<title>Node1&#45;&gt;Node2</title>
<g id="a_edge1_Node000001_Node000002"><a xlink:title=" ">
<path fill="none" stroke="#63b8ff" d="M516.68,-187.42C416.75,-182.82 140.71,-168.22 53.25,-144 51.89,-143.62 50.51,-143.19 49.14,-142.71"/>
<polygon fill="#63b8ff" stroke="#63b8ff" points="50.84,-139.63 40.27,-138.98 48.14,-146.08 50.84,-139.63"/>
</a>
</g>
</g>
<!-- Node3 -->
<g id="Node000003" class="node">
<title>Node3</title>
<g id="a_Node000003"><a xlink:title=" ">
<polygon fill="#e0e0e0" stroke="#999999" points="123.75,-138 62.75,-138 62.75,-118 123.75,-118 123.75,-138"/>
<text text-anchor="middle" x="93.25" y="-124.5" font-family="Helvetica,sans-Serif" font-size="10.00">filesystem</text>
</a>
</g>
</g>
<!-- Node1&#45;&gt;Node3 -->
<g id="edge2_Node000001_Node000003" class="edge">
<title>Node1&#45;&gt;Node3</title>
<g id="a_edge2_Node000001_Node000003"><a xlink:title=" ">
<path fill="none" stroke="#63b8ff" d="M516.78,-188.17C443.25,-185.83 272.4,-176.98 133.25,-144 130.94,-143.45 128.58,-142.81 126.22,-142.1"/>
<polygon fill="#63b8ff" stroke="#63b8ff" points="127.39,-138.8 116.8,-138.91 125.15,-145.43 127.39,-138.8"/>
</a>
</g>
</g>
<!-- Node4 -->
<g id="Node000004" class="node">
<title>Node4</title>
<g id="a_Node000004"><a xlink:title=" ">
<polygon fill="#e0e0e0" stroke="#999999" points="202.38,-138 142.12,-138 142.12,-118 202.38,-118 202.38,-138"/>
<text text-anchor="middle" x="172.25" y="-124.5" font-family="Helvetica,sans-Serif" font-size="10.00">fmt/core.h</text>
</a>
</g>
</g>
<!-- Node1&#45;&gt;Node4 -->
<g id="edge3_Node000001_Node000004" class="edge">
<title>Node1&#45;&gt;Node4</title>
<g id="a_edge3_Node000001_Node000004"><a xlink:title=" ">
<path fill="none" stroke="#63b8ff" d="M516.77,-187.03C453.66,-183.01 320.36,-171.75 211.25,-144 209.23,-143.49 207.17,-142.9 205.11,-142.26"/>
<polygon fill="#63b8ff" stroke="#63b8ff" points="206.25,-138.95 195.66,-138.99 203.96,-145.57 206.25,-138.95"/>
</a>
</g>
</g>
<!-- Node5 -->
<g id="Node000005" class="node">
<title>Node5</title>
<g id="a_Node000005"><a xlink:title=" ">
<polygon fill="#e0e0e0" stroke="#999999" points="269.75,-138 220.75,-138 220.75,-118 269.75,-118 269.75,-138"/>
<text text-anchor="middle" x="245.25" y="-124.5" font-family="Helvetica,sans-Serif" font-size="10.00">fstream</text>
</a>
</g>
</g>
<!-- Node1&#45;&gt;Node5 -->
<g id="edge4_Node000001_Node000005" class="edge">
<title>Node1&#45;&gt;Node5</title>
<g id="a_edge4_Node000001_Node000005"><a xlink:title=" ">
<path fill="none" stroke="#63b8ff" d="M516.69,-185.96C463.53,-180.87 362.19,-168.67 279.25,-144 277.86,-143.59 276.45,-143.13 275.04,-142.64"/>
<polygon fill="#63b8ff" stroke="#63b8ff" points="276.34,-139.39 265.76,-138.99 273.78,-145.91 276.34,-139.39"/>
</a>
</g>
</g>
<!-- Node6 -->
<g id="Node000006" class="node">
<title>Node6</title>
<g id="a_Node000006"><a xlink:title=" ">
<polygon fill="#e0e0e0" stroke="#999999" points="406.62,-138 287.88,-138 287.88,-118 406.62,-118 406.62,-138"/>
<text text-anchor="middle" x="347.25" y="-124.5" font-family="Helvetica,sans-Serif" font-size="10.00">nlohmann/json_fwd.hpp</text>
</a>
</g>
</g>
<!-- Node1&#45;&gt;Node6 -->
<g id="edge5_Node000001_Node000006" class="edge">
<title>Node1&#45;&gt;Node6</title>
<g id="a_edge5_Node000001_Node000006"><a xlink:title=" ">
<path fill="none" stroke="#63b8ff" d="M521.06,-179.62C485.94,-169.4 429.53,-152.97 390.55,-141.61"/>
<polygon fill="#63b8ff" stroke="#63b8ff" points="391.58,-138.27 381,-138.83 389.63,-144.99 391.58,-138.27"/>
</a>
</g>
</g>
<!-- Node7 -->
<g id="Node000007" class="node">
<title>Node7</title>
<g id="a_Node000007"><a xlink:title=" ">
<polygon fill="#e0e0e0" stroke="#999999" points="1157.38,-20 1073.12,-20 1073.12,0 1157.38,0 1157.38,-20"/>
<text text-anchor="middle" x="1115.25" y="-6.5" font-family="Helvetica,sans-Serif" font-size="10.00">spdlog/spdlog.h</text>
</a>
</g>
</g>
<!-- Node1&#45;&gt;Node7 -->
<g id="edge6_Node000001_Node000007" class="edge">
<title>Node1&#45;&gt;Node7</title>
<g id="a_edge6_Node000001_Node000007"><a xlink:title=" ">
<path fill="none" stroke="#63b8ff" d="M589.78,-188.21C702.36,-185.45 1038.72,-174.68 1076.25,-144 1109.84,-116.54 1115.46,-61.78 1115.85,-31.8"/>
<polygon fill="#63b8ff" stroke="#63b8ff" points="1119.35,-31.77 1115.76,-21.8 1112.35,-31.83 1119.35,-31.77"/>
</a>
</g>
</g>
<!-- Node8 -->
<g id="Node000008" class="node">
<title>Node8</title>
<g id="a_Node000008"><a xlink:title=" ">
<polygon fill="#e0e0e0" stroke="#999999" points="1087.12,-76 1007.38,-76 1007.38,-56 1087.12,-56 1087.12,-76"/>
<text text-anchor="middle" x="1047.25" y="-62.5" font-family="Helvetica,sans-Serif" font-size="10.00">boost/asio.hpp</text>
</a>
</g>
</g>
<!-- Node1&#45;&gt;Node8 -->
<g id="edge7_Node000001_Node000008" class="edge">
<title>Node1&#45;&gt;Node8</title>
<g id="a_edge7_Node000001_Node000008"><a xlink:title=" ">
<path fill="none" stroke="#63b8ff" d="M589.69,-188.53C700.33,-186.71 1026.72,-178.46 1058.25,-144 1072.31,-128.63 1065.44,-103.84 1057.75,-86.55"/>
<polygon fill="#63b8ff" stroke="#63b8ff" points="1061.01,-85.24 1053.46,-77.81 1054.72,-88.33 1061.01,-85.24"/>
</a>
</g>
</g>
<!-- Node9 -->
<g id="Node000009" class="node">
<title>Node9</title>
<g id="a_Node000009"><a xlink:title=" ">
<polygon fill="#e0e0e0" stroke="#999999" points="606.62,-138 499.88,-138 499.88,-118 606.62,-118 606.62,-138"/>
<text text-anchor="middle" x="553.25" y="-124.5" font-family="Helvetica,sans-Serif" font-size="10.00">boost/filesystem.hpp</text>
</a>
</g>
</g>
<!-- Node1&#45;&gt;Node9 -->
<g id="edge8_Node000001_Node000009" class="edge">
<title>Node1&#45;&gt;Node9</title>
<g id="a_edge8_Node000001_Node000009"><a xlink:title=" ">
<path fill="none" stroke="#63b8ff" d="M553.25,-179.62C553.25,-171.56 553.25,-159.65 553.25,-149.41"/>
<polygon fill="#63b8ff" stroke="#63b8ff" points="556.75,-149.63 553.25,-139.63 549.75,-149.63 556.75,-149.63"/>
</a>
</g>
</g>
<!-- Node10 -->
<g id="Node000010" class="node">
<title>Node10</title>
<g id="a_Node000010"><a xlink:title=" ">
<polygon fill="#e0e0e0" stroke="#999999" points="545.62,-20 456.88,-20 456.88,0 545.62,0 545.62,-20"/>
<text text-anchor="middle" x="501.25" y="-6.5" font-family="Helvetica,sans-Serif" font-size="10.00">boost/thread.hpp</text>
</a>
</g>
</g>
<!-- Node1&#45;&gt;Node10 -->
<g id="edge9_Node000001_Node000010" class="edge">
<title>Node1&#45;&gt;Node10</title>
<g id="a_edge9_Node000001_Node000010"><a xlink:title=" ">
<path fill="none" stroke="#63b8ff" d="M525.58,-179.53C509.53,-172.45 490.68,-161.02 481.25,-144 461.14,-107.72 478.57,-57.76 491.12,-30.56"/>
<polygon fill="#63b8ff" stroke="#63b8ff" points="494.17,-32.29 495.41,-21.77 487.88,-29.22 494.17,-32.29"/>
</a>
</g>
</g>
<!-- Node11 -->
<g id="Node000011" class="node">
<title>Node11</title>
<g id="a_Node000011"><a xlink:title=" ">
<polygon fill="#e0e0e0" stroke="#999999" points="855,-138 801.5,-138 801.5,-118 855,-118 855,-138"/>
<text text-anchor="middle" x="828.25" y="-124.5" font-family="Helvetica,sans-Serif" font-size="10.00">iostream</text>
</a>
</g>
</g>
<!-- Node1&#45;&gt;Node11 -->
<g id="edge10_Node000001_Node000011" class="edge">
<title>Node1&#45;&gt;Node11</title>
<g id="a_edge10_Node000001_Node000011"><a xlink:title=" ">
<path fill="none" stroke="#63b8ff" d="M589.62,-184.71C637.16,-178.53 722.68,-165.45 793.25,-144 794.64,-143.58 796.04,-143.12 797.46,-142.63"/>
<polygon fill="#63b8ff" stroke="#63b8ff" points="798.69,-145.91 806.76,-139.04 796.17,-139.38 798.69,-145.91"/>
</a>
</g>
</g>
<!-- Node12 -->
<g id="Node000012" class="node">
<title>Node12</title>
<g id="a_Node000012"><a xlink:title=" ">
<polygon fill="#e0e0e0" stroke="#999999" points="913.25,-138 873.25,-138 873.25,-118 913.25,-118 913.25,-138"/>
<text text-anchor="middle" x="893.25" y="-124.5" font-family="Helvetica,sans-Serif" font-size="10.00">string</text>
</a>
</g>
</g>
<!-- Node1&#45;&gt;Node12 -->
<g id="edge11_Node000001_Node000012" class="edge">
<title>Node1&#45;&gt;Node12</title>
<g id="a_edge11_Node000001_Node000012"><a xlink:title=" ">
<path fill="none" stroke="#63b8ff" d="M589.57,-187.65C648.53,-184.61 768.15,-174.84 864.25,-144 865.22,-143.69 866.19,-143.35 867.17,-142.98"/>
<polygon fill="#63b8ff" stroke="#63b8ff" points="868.33,-146.3 876.02,-139.02 865.47,-139.91 868.33,-146.3"/>
</a>
</g>
</g>
<!-- Node13 -->
<g id="Node000013" class="node">
<title>Node13</title>
<g id="a_Node000013"><a xlink:href="ConfigService_8hpp.html" target="_top" xlink:title=" ">
<polygon fill="white" stroke="#666666" points="758.38,-76 602.12,-76 602.12,-56 758.38,-56 758.38,-76"/>
<text text-anchor="middle" x="680.25" y="-62.5" font-family="Helvetica,sans-Serif" font-size="10.00">validation&#45;api/ConfigService.hpp</text>
</a>
</g>
</g>
<!-- Node1&#45;&gt;Node13 -->
<g id="edge12_Node000001_Node000013" class="edge">
<title>Node1&#45;&gt;Node13</title>
<g id="a_edge12_Node000001_Node000013"><a xlink:title=" ">
<path fill="none" stroke="#63b8ff" d="M531.19,-179.55C516.95,-172.15 499.59,-160.35 491.25,-144 484.79,-131.33 482.43,-123.16 491.25,-112 504.08,-95.75 548.08,-84.74 590.4,-77.67"/>
<polygon fill="#63b8ff" stroke="#63b8ff" points="590.86,-81.15 600.18,-76.11 589.76,-74.23 590.86,-81.15"/>
</a>
</g>
</g>
<!-- Node16 -->
<g id="Node000016" class="node">
<title>Node16</title>
<g id="a_Node000016"><a xlink:href="ConfigWatcher_8hpp.html" target="_top" xlink:title=" ">
<polygon fill="white" stroke="#666666" points="783.88,-138 624.62,-138 624.62,-118 783.88,-118 783.88,-138"/>
<text text-anchor="middle" x="704.25" y="-124.5" font-family="Helvetica,sans-Serif" font-size="10.00">validation&#45;api/ConfigWatcher.hpp</text>
</a>
</g>
</g>
<!-- Node1&#45;&gt;Node16 -->
<g id="edge17_Node000001_Node000016" class="edge">
<title>Node1&#45;&gt;Node16</title>
<g id="a_edge17_Node000001_Node000016"><a xlink:title=" ">
<path fill="none" stroke="#63b8ff" d="M576.84,-179.62C601.89,-169.67 641.7,-153.85 670.15,-142.55"/>
<polygon fill="#63b8ff" stroke="#63b8ff" points="671.41,-145.81 679.42,-138.87 668.83,-139.31 671.41,-145.81"/>
</a>
</g>
</g>
<!-- Node19 -->
<g id="Node000019" class="node">
<title>Node19</title>
<g id="a_Node000019"><a xlink:href="Logger_8hpp.html" target="_top" xlink:title=" ">
<polygon fill="white" stroke="#666666" points="1267.25,-76 1143.25,-76 1143.25,-56 1267.25,-56 1267.25,-76"/>
<text text-anchor="middle" x="1205.25" y="-62.5" font-family="Helvetica,sans-Serif" font-size="10.00">validation&#45;api/Logger.hpp</text>
</a>
</g>
</g>
<!-- Node1&#45;&gt;Node19 -->
<g id="edge22_Node000001_Node000019" class="edge">
<title>Node1&#45;&gt;Node19</title>
<g id="a_edge22_Node000001_Node000019"><a xlink:title=" ">
<path fill="none" stroke="#63b8ff" d="M589.51,-189.44C700.31,-190.26 1032.71,-188.85 1129.25,-144 1156.57,-131.3 1179.5,-104.29 1192.8,-85.88"/>
<polygon fill="#63b8ff" stroke="#63b8ff" points="1195.66,-87.91 1198.47,-77.69 1189.9,-83.92 1195.66,-87.91"/>
</a>
</g>
</g>
<!-- Node20 -->
<g id="Node000020" class="node">
<title>Node20</title>
<g id="a_Node000020"><a xlink:href="ValidationServer_8hpp.html" target="_top" xlink:title=" ">
<polygon fill="white" stroke="#666666" points="1049.25,-144 931.25,-144 931.25,-112 1049.25,-112 1049.25,-144"/>
<text text-anchor="start" x="939.25" y="-130.5" font-family="Helvetica,sans-Serif" font-size="10.00">validation&#45;api/Validation</text>
<text text-anchor="middle" x="990.25" y="-118.5" font-family="Helvetica,sans-Serif" font-size="10.00">Server.hpp</text>
</a>
</g>
</g>
<!-- Node1&#45;&gt;Node20 -->
<g id="edge24_Node000001_Node000020" class="edge">
<title>Node1&#45;&gt;Node20</title>
<g id="a_edge24_Node000001_Node000020"><a xlink:title=" ">
<path fill="none" stroke="#63b8ff" d="M589.82,-185.71C654.4,-179.65 793.08,-165.51 919.92,-144.3"/>
<polygon fill="#63b8ff" stroke="#63b8ff" points="920.21,-147.8 929.49,-142.68 919.04,-140.9 920.21,-147.8"/>
</a>
</g>
</g>
<!-- Node13&#45;&gt;Node7 -->
<g id="edge13_Node000013_Node000007" class="edge">
<title>Node13&#45;&gt;Node7</title>
<g id="a_edge13_Node000013_Node000007"><a xlink:title=" ">
<path fill="none" stroke="#63b8ff" d="M756.52,-55.53C843.9,-44.69 984.85,-27.19 1061.47,-17.68"/>
<polygon fill="#63b8ff" stroke="#63b8ff" points="1061.75,-21.17 1071.24,-16.46 1060.88,-14.22 1061.75,-21.17"/>
</a>
</g>
</g>
<!-- Node13&#45;&gt;Node10 -->
<g id="edge14_Node000013_Node000010" class="edge">
<title>Node13&#45;&gt;Node10</title>
<g id="a_edge14_Node000013_Node000010"><a xlink:title=" ">
<path fill="none" stroke="#63b8ff" d="M649.07,-55.59C619.86,-46.78 575.97,-33.54 543.6,-23.78"/>
<polygon fill="#63b8ff" stroke="#63b8ff" points="544.71,-20.45 534.12,-20.92 542.68,-27.16 544.71,-20.45"/>
</a>
</g>
</g>
<!-- Node14 -->
<g id="Node000014" class="node">
<title>Node14</title>
<g id="a_Node000014"><a xlink:title=" ">
<polygon fill="#e0e0e0" stroke="#999999" points="678.12,-20 580.38,-20 580.38,0 678.12,0 678.12,-20"/>
<text text-anchor="middle" x="629.25" y="-6.5" font-family="Helvetica,sans-Serif" font-size="10.00">nlohmann/json.hpp</text>
</a>
</g>
</g>
<!-- Node13&#45;&gt;Node14 -->
<g id="edge15_Node000013_Node000014" class="edge">
<title>Node13&#45;&gt;Node14</title>
<g id="a_edge15_Node000013_Node000014"><a xlink:title=" ">
<path fill="none" stroke="#63b8ff" d="M671.37,-55.59C664.35,-48.16 654.35,-37.58 645.86,-28.58"/>
<polygon fill="#63b8ff" stroke="#63b8ff" points="648.48,-26.27 639.07,-21.4 643.39,-31.07 648.48,-26.27"/>
</a>
</g>
</g>
<!-- Node15 -->
<g id="Node000015" class="node">
<title>Node15</title>
<g id="a_Node000015"><a xlink:title=" ">
<polygon fill="#e0e0e0" stroke="#999999" points="764.5,-20 696,-20 696,0 764.5,0 764.5,-20"/>
<text text-anchor="middle" x="730.25" y="-6.5" font-family="Helvetica,sans-Serif" font-size="10.00">pugixml.hpp</text>
</a>
</g>
</g>
<!-- Node13&#45;&gt;Node15 -->
<g id="edge16_Node000013_Node000015" class="edge">
<title>Node13&#45;&gt;Node15</title>
<g id="a_edge16_Node000013_Node000015"><a xlink:title=" ">
<path fill="none" stroke="#63b8ff" d="M688.96,-55.59C695.84,-48.16 705.64,-37.58 713.97,-28.58"/>
<polygon fill="#63b8ff" stroke="#63b8ff" points="716.39,-31.12 720.61,-21.41 711.25,-26.37 716.39,-31.12"/>
</a>
</g>
</g>
<!-- Node16&#45;&gt;Node8 -->
<g id="edge18_Node000016_Node000008" class="edge">
<title>Node16&#45;&gt;Node8</title>
<g id="a_edge18_Node000016_Node000008"><a xlink:title=" ">
<path fill="none" stroke="#63b8ff" d="M759.82,-117.53C816.53,-107.82 907.42,-92.17 995.58,-76.46"/>
<polygon fill="#63b8ff" stroke="#63b8ff" points="996.16,-79.92 1005.39,-74.71 994.93,-73.02 996.16,-79.92"/>
</a>
</g>
</g>
<!-- Node16&#45;&gt;Node13 -->
<g id="edge20_Node000016_Node000013" class="edge">
<title>Node16&#45;&gt;Node13</title>
<g id="a_edge20_Node000016_Node000013"><a xlink:title=" ">
<path fill="none" stroke="#63b8ff" d="M700.5,-117.62C697.2,-109.39 692.3,-97.13 688.14,-86.74"/>
<polygon fill="#63b8ff" stroke="#63b8ff" points="691.42,-85.5 684.46,-77.52 684.92,-88.1 691.42,-85.5"/>
</a>
</g>
</g>
<!-- Node17 -->
<g id="Node000017" class="node">
<title>Node17</title>
<g id="a_Node000017"><a xlink:title=" ">
<polygon fill="#e0e0e0" stroke="#999999" points="583.62,-76 500.88,-76 500.88,-56 583.62,-56 583.62,-76"/>
<text text-anchor="middle" x="542.25" y="-62.5" font-family="Helvetica,sans-Serif" font-size="10.00">unordered_map</text>
</a>
</g>
</g>
<!-- Node16&#45;&gt;Node17 -->
<g id="edge19_Node000016_Node000017" class="edge">
<title>Node16&#45;&gt;Node17</title>
<g id="a_edge19_Node000016_Node000017"><a xlink:title=" ">
<path fill="none" stroke="#63b8ff" d="M678.94,-117.62C651.91,-107.62 608.85,-91.67 578.29,-80.35"/>
<polygon fill="#63b8ff" stroke="#63b8ff" points="579.66,-77.12 569.07,-76.93 577.23,-83.69 579.66,-77.12"/>
</a>
</g>
</g>
<!-- Node18 -->
<g id="Node000018" class="node">
<title>Node18</title>
<g id="a_Node000018"><a xlink:href="IService_8hpp.html" target="_top" xlink:title=" ">
<polygon fill="white" stroke="#666666" points="907.62,-76 776.88,-76 776.88,-56 907.62,-56 907.62,-76"/>
<text text-anchor="middle" x="842.25" y="-62.5" font-family="Helvetica,sans-Serif" font-size="10.00">validation&#45;api/IService.hpp</text>
</a>
</g>
</g>
<!-- Node16&#45;&gt;Node18 -->
<g id="edge21_Node000016_Node000018" class="edge">
<title>Node16&#45;&gt;Node18</title>
<g id="a_edge21_Node000016_Node000018"><a xlink:title=" ">
<path fill="none" stroke="#63b8ff" d="M725.81,-117.62C748.5,-107.76 784.44,-92.13 810.4,-80.85"/>
<polygon fill="#63b8ff" stroke="#63b8ff" points="811.68,-84.11 819.45,-76.91 808.88,-77.69 811.68,-84.11"/>
</a>
</g>
</g>
<!-- Node19&#45;&gt;Node7 -->
<g id="edge23_Node000019_Node000007" class="edge">
<title>Node19&#45;&gt;Node7</title>
<g id="a_edge23_Node000019_Node000007"><a xlink:title=" ">
<path fill="none" stroke="#63b8ff" d="M1189.57,-55.59C1176.11,-47.51 1156.43,-35.71 1140.71,-26.27"/>
<polygon fill="#63b8ff" stroke="#63b8ff" points="1142.72,-23.4 1132.35,-21.26 1139.12,-29.4 1142.72,-23.4"/>
</a>
</g>
</g>
<!-- Node20&#45;&gt;Node8 -->
<g id="edge25_Node000020_Node000008" class="edge">
<title>Node20&#45;&gt;Node8</title>
<g id="a_edge25_Node000020_Node000008"><a xlink:title=" ">
<path fill="none" stroke="#63b8ff" d="M1004.93,-111.55C1012.76,-103.3 1022.44,-93.12 1030.56,-84.57"/>
<polygon fill="#63b8ff" stroke="#63b8ff" points="1032.92,-87.17 1037.27,-77.51 1027.84,-82.34 1032.92,-87.17"/>
</a>
</g>
</g>
<!-- Node20&#45;&gt;Node13 -->
<g id="edge27_Node000020_Node000013" class="edge">
<title>Node20&#45;&gt;Node13</title>
<g id="a_edge27_Node000020_Node000013"><a xlink:title=" ">
<path fill="none" stroke="#63b8ff" d="M930.94,-113.79C928,-113.18 925.09,-112.58 922.25,-112 862.42,-99.84 794,-87.24 745.21,-78.47"/>
<polygon fill="#63b8ff" stroke="#63b8ff" points="746.13,-75.08 735.66,-76.76 744.89,-81.97 746.13,-75.08"/>
</a>
</g>
</g>
<!-- Node20&#45;&gt;Node18 -->
<g id="edge28_Node000020_Node000018" class="edge">
<title>Node20&#45;&gt;Node18</title>
<g id="a_edge28_Node000020_Node000018"><a xlink:title=" ">
<path fill="none" stroke="#63b8ff" d="M952.14,-111.55C928.58,-102 898.63,-89.86 875.95,-80.66"/>
<polygon fill="#63b8ff" stroke="#63b8ff" points="877.44,-77.49 866.86,-76.98 874.81,-83.98 877.44,-77.49"/>
</a>
</g>
</g>
<!-- Node21 -->
<g id="Node000021" class="node">
<title>Node21</title>
<g id="a_Node000021"><a xlink:title=" ">
<polygon fill="#e0e0e0" stroke="#999999" points="989.25,-76 925.25,-76 925.25,-56 989.25,-56 989.25,-76"/>
<text text-anchor="middle" x="957.25" y="-62.5" font-family="Helvetica,sans-Serif" font-size="10.00">semaphore</text>
</a>
</g>
</g>
<!-- Node20&#45;&gt;Node21 -->
<g id="edge26_Node000020_Node000021" class="edge">
<title>Node20&#45;&gt;Node21</title>
<g id="a_edge26_Node000020_Node000021"><a xlink:title=" ">
<path fill="none" stroke="#63b8ff" d="M981.75,-111.55C977.55,-103.91 972.44,-94.61 967.97,-86.49"/>
<polygon fill="#63b8ff" stroke="#63b8ff" points="971.04,-84.81 963.15,-77.73 964.91,-88.18 971.04,-84.81"/>
</a>
</g>
</g>
</g>
</svg>
