<?xml version="1.0" encoding="UTF-8" standalone="no"?>
<!DOCTYPE svg PUBLIC "-//W3C//DTD SVG 1.1//EN"
 "http://www.w3.org/Graphics/SVG/1.1/DTD/svg11.dtd">
<!-- Generated by graphviz version 12.2.1 (0)
 -->
<!-- Title: main Pages: 1 -->
<svg width="204pt" height="90pt"
 viewBox="0.00 0.00 204.25 90.00" xmlns="http://www.w3.org/2000/svg" xmlns:xlink="http://www.w3.org/1999/xlink">
<g id="graph0" class="graph" transform="scale(1 1) rotate(0) translate(4 86)">
<title>main</title>
<!-- Node1 -->
<g id="Node000001" class="node">
<title>Node1</title>
<g id="a_Node000001"><a xlink:title=" ">
<polygon fill="#999999" stroke="#666666" points="37,-51 0,-51 0,-31 37,-31 37,-51"/>
<text text-anchor="middle" x="18.5" y="-37.5" font-family="Helvetica,sans-Serif" font-size="10.00">main</text>
</a>
</g>
</g>
<!-- Node2 -->
<g id="Node000002" class="node">
<title>Node2</title>
<g id="a_Node000002"><a xlink:href="namespacevalidation__api.html#a882e4d58fdd01ef56f455be40bd89866" target="_top" xlink:title="Sets up and configures the logger using spdlog.">
<polygon fill="white" stroke="#666666" points="187.25,-82 82,-82 82,-50 187.25,-50 187.25,-82"/>
<text text-anchor="start" x="90" y="-68.5" font-family="Helvetica,sans-Serif" font-size="10.00">validation_api::setup</text>
<text text-anchor="middle" x="134.62" y="-56.5" font-family="Helvetica,sans-Serif" font-size="10.00">_logger</text>
</a>
</g>
</g>
<!-- Node1&#45;&gt;Node2 -->
<g id="edge1_Node000001_Node000002" class="edge">
<title>Node1&#45;&gt;Node2</title>
<g id="a_edge1_Node000001_Node000002"><a xlink:title=" ">
<path fill="none" stroke="#63b8ff" d="M37.33,-44.91C46.5,-46.91 58.29,-49.5 70.45,-52.16"/>
<polygon fill="#63b8ff" stroke="#63b8ff" points="69.66,-55.57 80.18,-54.29 71.16,-48.73 69.66,-55.57"/>
</a>
</g>
</g>
<!-- Node3 -->
<g id="Node000003" class="node">
<title>Node3</title>
<g id="a_Node000003"><a xlink:href="classvalidation__api_1_1ValidationServer.html#a666522eafc9b935cae058688df4f7f9d" target="_top" xlink:title="Stop the server.">
<polygon fill="white" stroke="#666666" points="196.25,-32 73,-32 73,0 196.25,0 196.25,-32"/>
<text text-anchor="start" x="81" y="-18.5" font-family="Helvetica,sans-Serif" font-size="10.00">validation_api::Validation</text>
<text text-anchor="middle" x="134.62" y="-6.5" font-family="Helvetica,sans-Serif" font-size="10.00">Server::stop</text>
</a>
</g>
</g>
<!-- Node1&#45;&gt;Node3 -->
<g id="edge2_Node000001_Node000003" class="edge">
<title>Node1&#45;&gt;Node3</title>
<g id="a_edge2_Node000001_Node000003"><a xlink:title=" ">
<path fill="none" stroke="#63b8ff" d="M37.33,-37.09C44.24,-35.58 52.64,-33.74 61.56,-31.79"/>
<polygon fill="#63b8ff" stroke="#63b8ff" points="62.14,-35.24 71.16,-29.68 60.64,-28.4 62.14,-35.24"/>
</a>
</g>
</g>
</g>
</svg>
