<?xml version="1.0" encoding="UTF-8" standalone="no"?>
<!DOCTYPE svg PUBLIC "-//W3C//DTD SVG 1.1//EN"
 "http://www.w3.org/Graphics/SVG/1.1/DTD/svg11.dtd">
<!-- Generated by graphviz version 12.2.1 (0)
 -->
<!-- Title: src/main.cpp Pages: 1 -->
<svg width="1448pt" height="208pt"
 viewBox="0.00 0.00 1448.38 208.00" xmlns="http://www.w3.org/2000/svg" xmlns:xlink="http://www.w3.org/1999/xlink">
<g id="graph0" class="graph" transform="scale(1 1) rotate(0) translate(4 204)">
<title>src/main.cpp</title>
<!-- Node1 -->
<g id="Node000001" class="node">
<title>Node1</title>
<g id="a_Node000001"><a xlink:title=" ">
<polygon fill="#999999" stroke="#666666" points="721.5,-200 649.25,-200 649.25,-180 721.5,-180 721.5,-200"/>
<text text-anchor="middle" x="685.38" y="-186.5" font-family="Helvetica,sans-Serif" font-size="10.00">src/main.cpp</text>
</a>
</g>
</g>
<!-- Node2 -->
<g id="Node000002" class="node">
<title>Node2</title>
<g id="a_Node000002"><a xlink:title=" ">
<polygon fill="#e0e0e0" stroke="#999999" points="154.75,-138 0,-138 0,-118 154.75,-118 154.75,-138"/>
<text text-anchor="middle" x="77.38" y="-124.5" font-family="Helvetica,sans-Serif" font-size="10.00">boost/filesystem/operations.hpp</text>
</a>
</g>
</g>
<!-- Node1&#45;&gt;Node2 -->
<g id="edge1_Node000001_Node000002" class="edge">
<title>Node1&#45;&gt;Node2</title>
<g id="a_edge1_Node000001_Node000002"><a xlink:title=" ">
<path fill="none" stroke="#63b8ff" d="M648.94,-186.92C563.86,-181.82 345.58,-167.4 164.38,-144 156.13,-142.94 147.48,-141.65 138.95,-140.28"/>
<polygon fill="#63b8ff" stroke="#63b8ff" points="139.8,-136.87 129.36,-138.7 138.66,-143.78 139.8,-136.87"/>
</a>
</g>
</g>
<!-- Node3 -->
<g id="Node000003" class="node">
<title>Node3</title>
<g id="a_Node000003"><a xlink:title=" ">
<polygon fill="#e0e0e0" stroke="#999999" points="217.62,-138 173.12,-138 173.12,-118 217.62,-118 217.62,-138"/>
<text text-anchor="middle" x="195.38" y="-124.5" font-family="Helvetica,sans-Serif" font-size="10.00">cstdlib</text>
</a>
</g>
</g>
<!-- Node1&#45;&gt;Node3 -->
<g id="edge2_Node000001_Node000003" class="edge">
<title>Node1&#45;&gt;Node3</title>
<g id="a_edge2_Node000001_Node000003"><a xlink:title=" ">
<path fill="none" stroke="#63b8ff" d="M648.87,-189.73C570.11,-190.37 378.99,-186.93 226.38,-144 225.02,-143.62 223.64,-143.18 222.27,-142.69"/>
<polygon fill="#63b8ff" stroke="#63b8ff" points="223.97,-139.61 213.4,-138.96 221.26,-146.07 223.97,-139.61"/>
</a>
</g>
</g>
<!-- Node4 -->
<g id="Node000004" class="node">
<title>Node4</title>
<g id="a_Node000004"><a xlink:title=" ">
<polygon fill="#e0e0e0" stroke="#999999" points="296.88,-138 235.88,-138 235.88,-118 296.88,-118 296.88,-138"/>
<text text-anchor="middle" x="266.38" y="-124.5" font-family="Helvetica,sans-Serif" font-size="10.00">filesystem</text>
</a>
</g>
</g>
<!-- Node1&#45;&gt;Node4 -->
<g id="edge3_Node000001_Node000004" class="edge">
<title>Node1&#45;&gt;Node4</title>
<g id="a_edge3_Node000001_Node000004"><a xlink:title=" ">
<path fill="none" stroke="#63b8ff" d="M648.8,-187.58C580.58,-184.28 429.67,-173.97 306.38,-144 304.07,-143.44 301.71,-142.78 299.35,-142.07"/>
<polygon fill="#63b8ff" stroke="#63b8ff" points="300.53,-138.77 289.93,-138.86 298.28,-145.4 300.53,-138.77"/>
</a>
</g>
</g>
<!-- Node5 -->
<g id="Node000005" class="node">
<title>Node5</title>
<g id="a_Node000005"><a xlink:title=" ">
<polygon fill="#e0e0e0" stroke="#999999" points="375.5,-138 315.25,-138 315.25,-118 375.5,-118 375.5,-138"/>
<text text-anchor="middle" x="345.38" y="-124.5" font-family="Helvetica,sans-Serif" font-size="10.00">fmt/core.h</text>
</a>
</g>
</g>
<!-- Node1&#45;&gt;Node5 -->
<g id="edge4_Node000001_Node000005" class="edge">
<title>Node1&#45;&gt;Node5</title>
<g id="a_edge4_Node000001_Node000005"><a xlink:title=" ">
<path fill="none" stroke="#63b8ff" d="M649.18,-186.16C592.13,-181.12 478.13,-168.72 384.38,-144 382.36,-143.47 380.3,-142.87 378.24,-142.22"/>
<polygon fill="#63b8ff" stroke="#63b8ff" points="379.4,-138.91 368.8,-138.92 377.09,-145.52 379.4,-138.91"/>
</a>
</g>
</g>
<!-- Node6 -->
<g id="Node000006" class="node">
<title>Node6</title>
<g id="a_Node000006"><a xlink:title=" ">
<polygon fill="#e0e0e0" stroke="#999999" points="442.88,-138 393.88,-138 393.88,-118 442.88,-118 442.88,-138"/>
<text text-anchor="middle" x="418.38" y="-124.5" font-family="Helvetica,sans-Serif" font-size="10.00">fstream</text>
</a>
</g>
</g>
<!-- Node1&#45;&gt;Node6 -->
<g id="edge5_Node000001_Node000006" class="edge">
<title>Node1&#45;&gt;Node6</title>
<g id="a_edge5_Node000001_Node000006"><a xlink:title=" ">
<path fill="none" stroke="#63b8ff" d="M648.83,-184.53C602.41,-178.27 520.2,-165.22 452.38,-144 451.02,-143.58 449.66,-143.12 448.28,-142.63"/>
<polygon fill="#63b8ff" stroke="#63b8ff" points="449.86,-139.49 439.27,-139.05 447.27,-145.99 449.86,-139.49"/>
</a>
</g>
</g>
<!-- Node7 -->
<g id="Node000007" class="node">
<title>Node7</title>
<g id="a_Node000007"><a xlink:title=" ">
<polygon fill="#e0e0e0" stroke="#999999" points="579.75,-138 461,-138 461,-118 579.75,-118 579.75,-138"/>
<text text-anchor="middle" x="520.38" y="-124.5" font-family="Helvetica,sans-Serif" font-size="10.00">nlohmann/json_fwd.hpp</text>
</a>
</g>
</g>
<!-- Node1&#45;&gt;Node7 -->
<g id="edge6_Node000001_Node000007" class="edge">
<title>Node1&#45;&gt;Node7</title>
<g id="a_edge6_Node000001_Node000007"><a xlink:title=" ">
<path fill="none" stroke="#63b8ff" d="M659.59,-179.62C631.95,-169.57 587.83,-153.53 556.68,-142.2"/>
<polygon fill="#63b8ff" stroke="#63b8ff" points="558.26,-139.05 547.67,-138.93 555.87,-145.63 558.26,-139.05"/>
</a>
</g>
</g>
<!-- Node8 -->
<g id="Node000008" class="node">
<title>Node8</title>
<g id="a_Node000008"><a xlink:title=" ">
<polygon fill="#e0e0e0" stroke="#999999" points="1330.5,-20 1246.25,-20 1246.25,0 1330.5,0 1330.5,-20"/>
<text text-anchor="middle" x="1288.38" y="-6.5" font-family="Helvetica,sans-Serif" font-size="10.00">spdlog/spdlog.h</text>
</a>
</g>
</g>
<!-- Node1&#45;&gt;Node8 -->
<g id="edge7_Node000001_Node000008" class="edge">
<title>Node1&#45;&gt;Node8</title>
<g id="a_edge7_Node000001_Node000008"><a xlink:title=" ">
<path fill="none" stroke="#63b8ff" d="M721.81,-188.45C840.16,-186.36 1208.49,-177.21 1249.38,-144 1283.2,-116.52 1288.69,-61.35 1289,-31.43"/>
<polygon fill="#63b8ff" stroke="#63b8ff" points="1292.5,-31.78 1288.9,-21.81 1285.5,-31.85 1292.5,-31.78"/>
</a>
</g>
</g>
<!-- Node9 -->
<g id="Node000009" class="node">
<title>Node9</title>
<g id="a_Node000009"><a xlink:title=" ">
<polygon fill="#e0e0e0" stroke="#999999" points="1260.25,-76 1180.5,-76 1180.5,-56 1260.25,-56 1260.25,-76"/>
<text text-anchor="middle" x="1220.38" y="-62.5" font-family="Helvetica,sans-Serif" font-size="10.00">boost/asio.hpp</text>
</a>
</g>
</g>
<!-- Node1&#45;&gt;Node9 -->
<g id="edge8_Node000001_Node000009" class="edge">
<title>Node1&#45;&gt;Node9</title>
<g id="a_edge8_Node000001_Node000009"><a xlink:title=" ">
<path fill="none" stroke="#63b8ff" d="M721.86,-188.79C838.52,-187.73 1196.9,-181.43 1231.38,-144 1245.48,-128.68 1238.6,-103.88 1230.9,-86.57"/>
<polygon fill="#63b8ff" stroke="#63b8ff" points="1234.15,-85.25 1226.6,-77.82 1227.87,-88.34 1234.15,-85.25"/>
</a>
</g>
</g>
<!-- Node10 -->
<g id="Node000010" class="node">
<title>Node10</title>
<g id="a_Node000010"><a xlink:title=" ">
<polygon fill="#e0e0e0" stroke="#999999" points="779.75,-138 673,-138 673,-118 779.75,-118 779.75,-138"/>
<text text-anchor="middle" x="726.38" y="-124.5" font-family="Helvetica,sans-Serif" font-size="10.00">boost/filesystem.hpp</text>
</a>
</g>
</g>
<!-- Node1&#45;&gt;Node10 -->
<g id="edge9_Node000001_Node000010" class="edge">
<title>Node1&#45;&gt;Node10</title>
<g id="a_edge9_Node000001_Node000010"><a xlink:title=" ">
<path fill="none" stroke="#63b8ff" d="M691.78,-179.62C697.65,-171.03 706.51,-158.07 713.8,-147.41"/>
<polygon fill="#63b8ff" stroke="#63b8ff" points="716.54,-149.59 719.29,-139.36 710.76,-145.64 716.54,-149.59"/>
</a>
</g>
</g>
<!-- Node11 -->
<g id="Node000011" class="node">
<title>Node11</title>
<g id="a_Node000011"><a xlink:title=" ">
<polygon fill="#e0e0e0" stroke="#999999" points="718.75,-20 630,-20 630,0 718.75,0 718.75,-20"/>
<text text-anchor="middle" x="674.38" y="-6.5" font-family="Helvetica,sans-Serif" font-size="10.00">boost/thread.hpp</text>
</a>
</g>
</g>
<!-- Node1&#45;&gt;Node11 -->
<g id="edge10_Node000001_Node000011" class="edge">
<title>Node1&#45;&gt;Node11</title>
<g id="a_edge10_Node000001_Node000011"><a xlink:title=" ">
<path fill="none" stroke="#63b8ff" d="M676.3,-179.57C668.78,-171.05 658.66,-157.77 654.38,-144 642.22,-104.94 656.07,-57.06 666.02,-30.72"/>
<polygon fill="#63b8ff" stroke="#63b8ff" points="669.18,-32.23 669.65,-21.65 662.68,-29.63 669.18,-32.23"/>
</a>
</g>
</g>
<!-- Node12 -->
<g id="Node000012" class="node">
<title>Node12</title>
<g id="a_Node000012"><a xlink:title=" ">
<polygon fill="#e0e0e0" stroke="#999999" points="1028.12,-138 974.62,-138 974.62,-118 1028.12,-118 1028.12,-138"/>
<text text-anchor="middle" x="1001.38" y="-124.5" font-family="Helvetica,sans-Serif" font-size="10.00">iostream</text>
</a>
</g>
</g>
<!-- Node1&#45;&gt;Node12 -->
<g id="edge11_Node000001_Node000012" class="edge">
<title>Node1&#45;&gt;Node12</title>
<g id="a_edge11_Node000001_Node000012"><a xlink:title=" ">
<path fill="none" stroke="#63b8ff" d="M721.93,-186.04C776.15,-181 880.72,-168.8 966.38,-144 967.96,-143.54 969.57,-143.03 971.19,-142.48"/>
<polygon fill="#63b8ff" stroke="#63b8ff" points="972.21,-145.83 980.28,-138.98 969.69,-139.3 972.21,-145.83"/>
</a>
</g>
</g>
<!-- Node13 -->
<g id="Node000013" class="node">
<title>Node13</title>
<g id="a_Node000013"><a xlink:title=" ">
<polygon fill="#e0e0e0" stroke="#999999" points="1086.38,-138 1046.38,-138 1046.38,-118 1086.38,-118 1086.38,-138"/>
<text text-anchor="middle" x="1066.38" y="-124.5" font-family="Helvetica,sans-Serif" font-size="10.00">string</text>
</a>
</g>
</g>
<!-- Node1&#45;&gt;Node13 -->
<g id="edge12_Node000001_Node000013" class="edge">
<title>Node1&#45;&gt;Node13</title>
<g id="a_edge12_Node000001_Node000013"><a xlink:title=" ">
<path fill="none" stroke="#63b8ff" d="M721.99,-188.5C786.96,-186.69 926.07,-178.71 1037.38,-144 1038.35,-143.7 1039.32,-143.36 1040.3,-143"/>
<polygon fill="#63b8ff" stroke="#63b8ff" points="1041.45,-146.33 1049.16,-139.07 1038.6,-139.93 1041.45,-146.33"/>
</a>
</g>
</g>
<!-- Node14 -->
<g id="Node000014" class="node">
<title>Node14</title>
<g id="a_Node000014"><a xlink:href="ConfigService_8hpp.html" target="_top" xlink:title=" ">
<polygon fill="white" stroke="#666666" points="931.5,-76 775.25,-76 775.25,-56 931.5,-56 931.5,-76"/>
<text text-anchor="middle" x="853.38" y="-62.5" font-family="Helvetica,sans-Serif" font-size="10.00">validation&#45;api/ConfigService.hpp</text>
</a>
</g>
</g>
<!-- Node1&#45;&gt;Node14 -->
<g id="edge13_Node000001_Node000014" class="edge">
<title>Node1&#45;&gt;Node14</title>
<g id="a_edge13_Node000001_Node000014"><a xlink:title=" ">
<path fill="none" stroke="#63b8ff" d="M678.12,-179.67C666.92,-164.05 648.31,-132.33 664.38,-112 677.21,-95.75 721.21,-84.74 763.52,-77.67"/>
<polygon fill="#63b8ff" stroke="#63b8ff" points="763.99,-81.15 773.31,-76.11 762.88,-74.23 763.99,-81.15"/>
</a>
</g>
</g>
<!-- Node17 -->
<g id="Node000017" class="node">
<title>Node17</title>
<g id="a_Node000017"><a xlink:href="ConfigWatcher_8hpp.html" target="_top" xlink:title=" ">
<polygon fill="white" stroke="#666666" points="957,-138 797.75,-138 797.75,-118 957,-118 957,-138"/>
<text text-anchor="middle" x="877.38" y="-124.5" font-family="Helvetica,sans-Serif" font-size="10.00">validation&#45;api/ConfigWatcher.hpp</text>
</a>
</g>
</g>
<!-- Node1&#45;&gt;Node17 -->
<g id="edge18_Node000001_Node000017" class="edge">
<title>Node1&#45;&gt;Node17</title>
<g id="a_edge18_Node000001_Node000017"><a xlink:title=" ">
<path fill="none" stroke="#63b8ff" d="M715.38,-179.62C747.97,-169.44 800.23,-153.11 836.55,-141.76"/>
<polygon fill="#63b8ff" stroke="#63b8ff" points="837.32,-145.18 845.82,-138.86 835.24,-138.5 837.32,-145.18"/>
</a>
</g>
</g>
<!-- Node20 -->
<g id="Node000020" class="node">
<title>Node20</title>
<g id="a_Node000020"><a xlink:href="Logger_8hpp.html" target="_top" xlink:title=" ">
<polygon fill="white" stroke="#666666" points="1440.38,-76 1316.38,-76 1316.38,-56 1440.38,-56 1440.38,-76"/>
<text text-anchor="middle" x="1378.38" y="-62.5" font-family="Helvetica,sans-Serif" font-size="10.00">validation&#45;api/Logger.hpp</text>
</a>
</g>
</g>
<!-- Node1&#45;&gt;Node20 -->
<g id="edge23_Node000001_Node000020" class="edge">
<title>Node1&#45;&gt;Node20</title>
<g id="a_edge23_Node000001_Node000020"><a xlink:title=" ">
<path fill="none" stroke="#63b8ff" d="M721.57,-187.84C845.73,-183.67 1249.65,-168.33 1302.38,-144 1329.73,-131.37 1352.65,-104.34 1365.94,-85.91"/>
<polygon fill="#63b8ff" stroke="#63b8ff" points="1368.8,-87.93 1371.6,-77.71 1363.04,-83.95 1368.8,-87.93"/>
</a>
</g>
</g>
<!-- Node21 -->
<g id="Node000021" class="node">
<title>Node21</title>
<g id="a_Node000021"><a xlink:href="ValidationServer_8hpp.html" target="_top" xlink:title=" ">
<polygon fill="white" stroke="#666666" points="1222.38,-144 1104.38,-144 1104.38,-112 1222.38,-112 1222.38,-144"/>
<text text-anchor="start" x="1112.38" y="-130.5" font-family="Helvetica,sans-Serif" font-size="10.00">validation&#45;api/Validation</text>
<text text-anchor="middle" x="1163.38" y="-118.5" font-family="Helvetica,sans-Serif" font-size="10.00">Server.hpp</text>
</a>
</g>
</g>
<!-- Node1&#45;&gt;Node21 -->
<g id="edge25_Node000001_Node000021" class="edge">
<title>Node1&#45;&gt;Node21</title>
<g id="a_edge25_Node000001_Node000021"><a xlink:title=" ">
<path fill="none" stroke="#63b8ff" d="M721.75,-186.33C791.7,-180.92 949.99,-167.29 1092.97,-144.28"/>
<polygon fill="#63b8ff" stroke="#63b8ff" points="1093.31,-147.78 1102.62,-142.71 1092.18,-140.87 1093.31,-147.78"/>
</a>
</g>
</g>
<!-- Node14&#45;&gt;Node8 -->
<g id="edge14_Node000014_Node000008" class="edge">
<title>Node14&#45;&gt;Node8</title>
<g id="a_edge14_Node000014_Node000008"><a xlink:title=" ">
<path fill="none" stroke="#63b8ff" d="M929.64,-55.53C1017.02,-44.69 1157.97,-27.19 1234.59,-17.68"/>
<polygon fill="#63b8ff" stroke="#63b8ff" points="1234.87,-21.17 1244.36,-16.46 1234.01,-14.22 1234.87,-21.17"/>
</a>
</g>
</g>
<!-- Node14&#45;&gt;Node11 -->
<g id="edge15_Node000014_Node000011" class="edge">
<title>Node14&#45;&gt;Node11</title>
<g id="a_edge15_Node000014_Node000011"><a xlink:title=" ">
<path fill="none" stroke="#63b8ff" d="M822.2,-55.59C792.99,-46.78 749.1,-33.54 716.72,-23.78"/>
<polygon fill="#63b8ff" stroke="#63b8ff" points="717.83,-20.45 707.25,-20.92 715.81,-27.16 717.83,-20.45"/>
</a>
</g>
</g>
<!-- Node15 -->
<g id="Node000015" class="node">
<title>Node15</title>
<g id="a_Node000015"><a xlink:title=" ">
<polygon fill="#e0e0e0" stroke="#999999" points="851.25,-20 753.5,-20 753.5,0 851.25,0 851.25,-20"/>
<text text-anchor="middle" x="802.38" y="-6.5" font-family="Helvetica,sans-Serif" font-size="10.00">nlohmann/json.hpp</text>
</a>
</g>
</g>
<!-- Node14&#45;&gt;Node15 -->
<g id="edge16_Node000014_Node000015" class="edge">
<title>Node14&#45;&gt;Node15</title>
<g id="a_edge16_Node000014_Node000015"><a xlink:title=" ">
<path fill="none" stroke="#63b8ff" d="M844.49,-55.59C837.47,-48.16 827.47,-37.58 818.98,-28.58"/>
<polygon fill="#63b8ff" stroke="#63b8ff" points="821.61,-26.27 812.2,-21.4 816.52,-31.07 821.61,-26.27"/>
</a>
</g>
</g>
<!-- Node16 -->
<g id="Node000016" class="node">
<title>Node16</title>
<g id="a_Node000016"><a xlink:title=" ">
<polygon fill="#e0e0e0" stroke="#999999" points="937.62,-20 869.12,-20 869.12,0 937.62,0 937.62,-20"/>
<text text-anchor="middle" x="903.38" y="-6.5" font-family="Helvetica,sans-Serif" font-size="10.00">pugixml.hpp</text>
</a>
</g>
</g>
<!-- Node14&#45;&gt;Node16 -->
<g id="edge17_Node000014_Node000016" class="edge">
<title>Node14&#45;&gt;Node16</title>
<g id="a_edge17_Node000014_Node000016"><a xlink:title=" ">
<path fill="none" stroke="#63b8ff" d="M862.08,-55.59C868.97,-48.16 878.77,-37.58 887.09,-28.58"/>
<polygon fill="#63b8ff" stroke="#63b8ff" points="889.51,-31.12 893.74,-21.41 884.37,-26.37 889.51,-31.12"/>
</a>
</g>
</g>
<!-- Node17&#45;&gt;Node9 -->
<g id="edge19_Node000017_Node000009" class="edge">
<title>Node17&#45;&gt;Node9</title>
<g id="a_edge19_Node000017_Node000009"><a xlink:title=" ">
<path fill="none" stroke="#63b8ff" d="M932.95,-117.53C989.66,-107.82 1080.54,-92.17 1168.71,-76.46"/>
<polygon fill="#63b8ff" stroke="#63b8ff" points="1169.28,-79.92 1178.51,-74.71 1168.05,-73.02 1169.28,-79.92"/>
</a>
</g>
</g>
<!-- Node17&#45;&gt;Node14 -->
<g id="edge21_Node000017_Node000014" class="edge">
<title>Node17&#45;&gt;Node14</title>
<g id="a_edge21_Node000017_Node000014"><a xlink:title=" ">
<path fill="none" stroke="#63b8ff" d="M873.62,-117.62C870.33,-109.39 865.43,-97.13 861.27,-86.74"/>
<polygon fill="#63b8ff" stroke="#63b8ff" points="864.55,-85.5 857.58,-77.52 858.05,-88.1 864.55,-85.5"/>
</a>
</g>
</g>
<!-- Node18 -->
<g id="Node000018" class="node">
<title>Node18</title>
<g id="a_Node000018"><a xlink:title=" ">
<polygon fill="#e0e0e0" stroke="#999999" points="756.75,-76 674,-76 674,-56 756.75,-56 756.75,-76"/>
<text text-anchor="middle" x="715.38" y="-62.5" font-family="Helvetica,sans-Serif" font-size="10.00">unordered_map</text>
</a>
</g>
</g>
<!-- Node17&#45;&gt;Node18 -->
<g id="edge20_Node000017_Node000018" class="edge">
<title>Node17&#45;&gt;Node18</title>
<g id="a_edge20_Node000017_Node000018"><a xlink:title=" ">
<path fill="none" stroke="#63b8ff" d="M852.06,-117.62C825.04,-107.62 781.98,-91.67 751.42,-80.35"/>
<polygon fill="#63b8ff" stroke="#63b8ff" points="752.79,-77.12 742.2,-76.93 750.36,-83.69 752.79,-77.12"/>
</a>
</g>
</g>
<!-- Node19 -->
<g id="Node000019" class="node">
<title>Node19</title>
<g id="a_Node000019"><a xlink:href="IService_8hpp.html" target="_top" xlink:title=" ">
<polygon fill="white" stroke="#666666" points="1080.75,-76 950,-76 950,-56 1080.75,-56 1080.75,-76"/>
<text text-anchor="middle" x="1015.38" y="-62.5" font-family="Helvetica,sans-Serif" font-size="10.00">validation&#45;api/IService.hpp</text>
</a>
</g>
</g>
<!-- Node17&#45;&gt;Node19 -->
<g id="edge22_Node000017_Node000019" class="edge">
<title>Node17&#45;&gt;Node19</title>
<g id="a_edge22_Node000017_Node000019"><a xlink:title=" ">
<path fill="none" stroke="#63b8ff" d="M898.94,-117.62C921.62,-107.76 957.57,-92.13 983.52,-80.85"/>
<polygon fill="#63b8ff" stroke="#63b8ff" points="984.8,-84.11 992.58,-76.91 982.01,-77.69 984.8,-84.11"/>
</a>
</g>
</g>
<!-- Node20&#45;&gt;Node8 -->
<g id="edge24_Node000020_Node000008" class="edge">
<title>Node20&#45;&gt;Node8</title>
<g id="a_edge24_Node000020_Node000008"><a xlink:title=" ">
<path fill="none" stroke="#63b8ff" d="M1362.7,-55.59C1349.23,-47.51 1329.56,-35.71 1313.83,-26.27"/>
<polygon fill="#63b8ff" stroke="#63b8ff" points="1315.85,-23.4 1305.47,-21.26 1312.25,-29.4 1315.85,-23.4"/>
</a>
</g>
</g>
<!-- Node21&#45;&gt;Node9 -->
<g id="edge26_Node000021_Node000009" class="edge">
<title>Node21&#45;&gt;Node9</title>
<g id="a_edge26_Node000021_Node000009"><a xlink:title=" ">
<path fill="none" stroke="#63b8ff" d="M1178.05,-111.55C1185.89,-103.3 1195.56,-93.12 1203.68,-84.57"/>
<polygon fill="#63b8ff" stroke="#63b8ff" points="1206.04,-87.17 1210.39,-77.51 1200.97,-82.34 1206.04,-87.17"/>
</a>
</g>
</g>
<!-- Node21&#45;&gt;Node14 -->
<g id="edge28_Node000021_Node000014" class="edge">
<title>Node21&#45;&gt;Node14</title>
<g id="a_edge28_Node000021_Node000014"><a xlink:title=" ">
<path fill="none" stroke="#63b8ff" d="M1104.06,-113.79C1101.13,-113.18 1098.22,-112.58 1095.38,-112 1035.54,-99.84 967.12,-87.24 918.33,-78.47"/>
<polygon fill="#63b8ff" stroke="#63b8ff" points="919.25,-75.08 908.79,-76.76 918.02,-81.97 919.25,-75.08"/>
</a>
</g>
</g>
<!-- Node21&#45;&gt;Node19 -->
<g id="edge29_Node000021_Node000019" class="edge">
<title>Node21&#45;&gt;Node19</title>
<g id="a_edge29_Node000021_Node000019"><a xlink:title=" ">
<path fill="none" stroke="#63b8ff" d="M1125.26,-111.55C1101.71,-102 1071.76,-89.86 1049.07,-80.66"/>
<polygon fill="#63b8ff" stroke="#63b8ff" points="1050.57,-77.49 1039.98,-76.98 1047.94,-83.98 1050.57,-77.49"/>
</a>
</g>
</g>
<!-- Node22 -->
<g id="Node000022" class="node">
<title>Node22</title>
<g id="a_Node000022"><a xlink:title=" ">
<polygon fill="#e0e0e0" stroke="#999999" points="1162.38,-76 1098.38,-76 1098.38,-56 1162.38,-56 1162.38,-76"/>
<text text-anchor="middle" x="1130.38" y="-62.5" font-family="Helvetica,sans-Serif" font-size="10.00">semaphore</text>
</a>
</g>
</g>
<!-- Node21&#45;&gt;Node22 -->
<g id="edge27_Node000021_Node000022" class="edge">
<title>Node21&#45;&gt;Node22</title>
<g id="a_edge27_Node000021_Node000022"><a xlink:title=" ">
<path fill="none" stroke="#63b8ff" d="M1154.88,-111.55C1150.68,-103.91 1145.56,-94.61 1141.09,-86.49"/>
<polygon fill="#63b8ff" stroke="#63b8ff" points="1144.16,-84.81 1136.28,-77.73 1138.03,-88.18 1144.16,-84.81"/>
</a>
</g>
</g>
</g>
</svg>
