<?xml version="1.0" encoding="UTF-8" standalone="no"?>
<!DOCTYPE svg PUBLIC "-//W3C//DTD SVG 1.1//EN"
 "http://www.w3.org/Graphics/SVG/1.1/DTD/svg11.dtd">
<!-- Generated by graphviz version 10.0.1 (0)
 -->
<!-- Title: src/main.cpp Pages: 1 -->
<svg width="797pt" height="199pt"
 viewBox="0.00 0.00 797.12 199.00" xmlns="http://www.w3.org/2000/svg" xmlns:xlink="http://www.w3.org/1999/xlink">
<g id="graph0" class="graph" transform="scale(1 1) rotate(0) translate(4 195)">
<title>src/main.cpp</title>
<!-- Node1 -->
<g id="Node000001" class="node">
<title>Node1</title>
<g id="a_Node000001"><a xlink:title=" ">
<polygon fill="#999999" stroke="#666666" points="300,-191 221.75,-191 221.75,-170.25 300,-170.25 300,-191"/>
<text text-anchor="middle" x="260.88" y="-177.5" font-family="Helvetica,sans-Serif" font-size="10.00">src/main.cpp</text>
</a>
</g>
</g>
<!-- Node2 -->
<g id="Node000002" class="node">
<title>Node2</title>
<g id="a_Node000002"><a xlink:title=" ">
<polygon fill="#e0e0e0" stroke="#999999" points="214.12,-20.75 121.62,-20.75 121.62,0 214.12,0 214.12,-20.75"/>
<text text-anchor="middle" x="167.88" y="-7.25" font-family="Helvetica,sans-Serif" font-size="10.00">spdlog/spdlog.h</text>
</a>
</g>
</g>
<!-- Node1&#45;&gt;Node2 -->
<g id="edge1_Node000001_Node000002" class="edge">
<title>Node1&#45;&gt;Node2</title>
<g id="a_edge1_Node000001_Node000002"><a xlink:title=" ">
<path fill="none" stroke="#63b8ff" d="M250.37,-169.98C241.38,-161.3 228.55,-147.86 219.88,-134.25 198.58,-100.85 182.53,-57.24 174.22,-31.96"/>
<polygon fill="#63b8ff" stroke="#63b8ff" points="177.61,-31.06 171.24,-22.6 170.94,-33.19 177.61,-31.06"/>
</a>
</g>
</g>
<!-- Node3 -->
<g id="Node000003" class="node">
<title>Node3</title>
<g id="a_Node000003"><a xlink:title=" ">
<polygon fill="#e0e0e0" stroke="#999999" points="321.5,-77.5 234.25,-77.5 234.25,-56.75 321.5,-56.75 321.5,-77.5"/>
<text text-anchor="middle" x="277.88" y="-64" font-family="Helvetica,sans-Serif" font-size="10.00">boost/asio.hpp</text>
</a>
</g>
</g>
<!-- Node1&#45;&gt;Node3 -->
<g id="edge2_Node000001_Node000003" class="edge">
<title>Node1&#45;&gt;Node3</title>
<g id="a_edge2_Node000001_Node000003"><a xlink:title=" ">
<path fill="none" stroke="#63b8ff" d="M262.32,-170.12C265.05,-152.27 270.98,-113.36 274.68,-89.09"/>
<polygon fill="#63b8ff" stroke="#63b8ff" points="278.11,-89.83 276.15,-79.42 271.19,-88.78 278.11,-89.83"/>
</a>
</g>
</g>
<!-- Node4 -->
<g id="Node000004" class="node">
<title>Node4</title>
<g id="a_Node000004"><a xlink:title=" ">
<polygon fill="#e0e0e0" stroke="#999999" points="602.88,-134.25 484.88,-134.25 484.88,-113.5 602.88,-113.5 602.88,-134.25"/>
<text text-anchor="middle" x="543.88" y="-120.75" font-family="Helvetica,sans-Serif" font-size="10.00">boost/filesystem.hpp</text>
</a>
</g>
</g>
<!-- Node1&#45;&gt;Node4 -->
<g id="edge3_Node000001_Node000004" class="edge">
<title>Node1&#45;&gt;Node4</title>
<g id="a_edge3_Node000001_Node000004"><a xlink:title=" ">
<path fill="none" stroke="#63b8ff" d="M300.22,-172.01C347.26,-162.91 426.52,-147.58 481.83,-136.88"/>
<polygon fill="#63b8ff" stroke="#63b8ff" points="482.26,-140.36 491.42,-135.02 480.93,-133.49 482.26,-140.36"/>
</a>
</g>
</g>
<!-- Node5 -->
<g id="Node000005" class="node">
<title>Node5</title>
<g id="a_Node000005"><a xlink:title=" ">
<polygon fill="#e0e0e0" stroke="#999999" points="342.12,-20.75 243.62,-20.75 243.62,0 342.12,0 342.12,-20.75"/>
<text text-anchor="middle" x="292.88" y="-7.25" font-family="Helvetica,sans-Serif" font-size="10.00">boost/thread.hpp</text>
</a>
</g>
</g>
<!-- Node1&#45;&gt;Node5 -->
<g id="edge4_Node000001_Node000005" class="edge">
<title>Node1&#45;&gt;Node5</title>
<g id="a_edge4_Node000001_Node000005"><a xlink:title=" ">
<path fill="none" stroke="#63b8ff" d="M253.21,-169.86C237.34,-148.37 204.01,-95.76 224.88,-56.75 231.9,-43.62 244.59,-33.63 257.13,-26.41"/>
<polygon fill="#63b8ff" stroke="#63b8ff" points="258.47,-29.66 265.69,-21.91 255.21,-23.46 258.47,-29.66"/>
</a>
</g>
</g>
<!-- Node6 -->
<g id="Node000006" class="node">
<title>Node6</title>
<g id="a_Node000006"><a xlink:title=" ">
<polygon fill="#e0e0e0" stroke="#999999" points="680.62,-134.25 621.12,-134.25 621.12,-113.5 680.62,-113.5 680.62,-134.25"/>
<text text-anchor="middle" x="650.88" y="-120.75" font-family="Helvetica,sans-Serif" font-size="10.00">iostream</text>
</a>
</g>
</g>
<!-- Node1&#45;&gt;Node6 -->
<g id="edge5_Node000001_Node000006" class="edge">
<title>Node1&#45;&gt;Node6</title>
<g id="a_edge5_Node000001_Node000006"><a xlink:title=" ">
<path fill="none" stroke="#63b8ff" d="M300.31,-175.92C363.51,-169.69 491.57,-155.81 609.68,-134.48"/>
<polygon fill="#63b8ff" stroke="#63b8ff" points="610.01,-137.98 619.22,-132.74 608.75,-131.09 610.01,-137.98"/>
</a>
</g>
</g>
<!-- Node7 -->
<g id="Node000007" class="node">
<title>Node7</title>
<g id="a_Node000007"><a xlink:href="Logger_8hpp.html" target="_top" xlink:title=" ">
<polygon fill="white" stroke="#666666" points="139.75,-134.25 0,-134.25 0,-113.5 139.75,-113.5 139.75,-134.25"/>
<text text-anchor="middle" x="69.88" y="-120.75" font-family="Helvetica,sans-Serif" font-size="10.00">validation&#45;api/Logger.hpp</text>
</a>
</g>
</g>
<!-- Node1&#45;&gt;Node7 -->
<g id="edge6_Node000001_Node000007" class="edge">
<title>Node1&#45;&gt;Node7</title>
<g id="a_edge6_Node000001_Node000007"><a xlink:title=" ">
<path fill="none" stroke="#63b8ff" d="M226.73,-169.84C195.45,-160.87 148.96,-147.54 114.7,-137.73"/>
<polygon fill="#63b8ff" stroke="#63b8ff" points="116.08,-134.48 105.5,-135.09 114.15,-141.21 116.08,-134.48"/>
</a>
</g>
</g>
<!-- Node8 -->
<g id="Node000008" class="node">
<title>Node8</title>
<g id="a_Node000008"><a xlink:href="ConfigWatcher_8hpp.html" target="_top" xlink:title=" ">
<polygon fill="white" stroke="#666666" points="466.5,-134.25 289.25,-134.25 289.25,-113.5 466.5,-113.5 466.5,-134.25"/>
<text text-anchor="middle" x="377.88" y="-120.75" font-family="Helvetica,sans-Serif" font-size="10.00">validation&#45;api/ConfigWatcher.hpp</text>
</a>
</g>
</g>
<!-- Node1&#45;&gt;Node8 -->
<g id="edge8_Node000001_Node000008" class="edge">
<title>Node1&#45;&gt;Node8</title>
<g id="a_edge8_Node000001_Node000008"><a xlink:title=" ">
<path fill="none" stroke="#63b8ff" d="M281.79,-169.84C299.84,-161.39 326.18,-149.07 346.71,-139.46"/>
<polygon fill="#63b8ff" stroke="#63b8ff" points="348.19,-142.63 355.77,-135.22 345.23,-136.29 348.19,-142.63"/>
</a>
</g>
</g>
<!-- Node7&#45;&gt;Node2 -->
<g id="edge7_Node000007_Node000002" class="edge">
<title>Node7&#45;&gt;Node2</title>
<g id="a_edge7_Node000007_Node000002"><a xlink:title=" ">
<path fill="none" stroke="#63b8ff" d="M78.23,-113.37C94.49,-94.86 130.65,-53.72 151.74,-29.73"/>
<polygon fill="#63b8ff" stroke="#63b8ff" points="154.29,-32.13 158.26,-22.31 149.03,-27.51 154.29,-32.13"/>
</a>
</g>
</g>
<!-- Node8&#45;&gt;Node3 -->
<g id="edge9_Node000008_Node000003" class="edge">
<title>Node8&#45;&gt;Node3</title>
<g id="a_edge9_Node000008_Node000003"><a xlink:title=" ">
<path fill="none" stroke="#63b8ff" d="M360,-113.09C344.78,-104.76 322.68,-92.66 305.24,-83.11"/>
<polygon fill="#63b8ff" stroke="#63b8ff" points="307.38,-80.29 296.93,-78.56 304.02,-86.43 307.38,-80.29"/>
</a>
</g>
</g>
<!-- Node9 -->
<g id="Node000009" class="node">
<title>Node9</title>
<g id="a_Node000009"><a xlink:title=" ">
<polygon fill="#e0e0e0" stroke="#999999" points="624.12,-77.5 531.62,-77.5 531.62,-56.75 624.12,-56.75 624.12,-77.5"/>
<text text-anchor="middle" x="577.88" y="-64" font-family="Helvetica,sans-Serif" font-size="10.00">unordered_map</text>
</a>
</g>
</g>
<!-- Node8&#45;&gt;Node9 -->
<g id="edge10_Node000008_Node000009" class="edge">
<title>Node8&#45;&gt;Node9</title>
<g id="a_edge10_Node000008_Node000009"><a xlink:title=" ">
<path fill="none" stroke="#63b8ff" d="M413.63,-113.09C446.52,-104.08 495.49,-90.68 531.4,-80.85"/>
<polygon fill="#63b8ff" stroke="#63b8ff" points="531.91,-84.34 540.63,-78.32 530.06,-77.58 531.91,-84.34"/>
</a>
</g>
</g>
<!-- Node10 -->
<g id="Node000010" class="node">
<title>Node10</title>
<g id="a_Node000010"><a xlink:href="ConfigService_8hpp.html" target="_top" xlink:title=" ">
<polygon fill="white" stroke="#666666" points="514,-77.5 339.75,-77.5 339.75,-56.75 514,-56.75 514,-77.5"/>
<text text-anchor="middle" x="426.88" y="-64" font-family="Helvetica,sans-Serif" font-size="10.00">validation&#45;api/ConfigService.hpp</text>
</a>
</g>
</g>
<!-- Node8&#45;&gt;Node10 -->
<g id="edge11_Node000008_Node000010" class="edge">
<title>Node8&#45;&gt;Node10</title>
<g id="a_edge11_Node000008_Node000010"><a xlink:title=" ">
<path fill="none" stroke="#63b8ff" d="M386.64,-113.09C393.32,-105.61 402.73,-95.11 410.76,-86.13"/>
<polygon fill="#63b8ff" stroke="#63b8ff" points="413.12,-88.74 417.18,-78.96 407.9,-84.07 413.12,-88.74"/>
</a>
</g>
</g>
<!-- Node13 -->
<g id="Node000013" class="node">
<title>Node13</title>
<g id="a_Node000013"><a xlink:href="IService_8hpp.html" target="_top" xlink:title=" ">
<polygon fill="white" stroke="#666666" points="789.12,-77.5 642.62,-77.5 642.62,-56.75 789.12,-56.75 789.12,-77.5"/>
<text text-anchor="middle" x="715.88" y="-64" font-family="Helvetica,sans-Serif" font-size="10.00">validation&#45;api/IService.hpp</text>
</a>
</g>
</g>
<!-- Node8&#45;&gt;Node13 -->
<g id="edge16_Node000008_Node000013" class="edge">
<title>Node8&#45;&gt;Node13</title>
<g id="a_edge16_Node000008_Node000013"><a xlink:title=" ">
<path fill="none" stroke="#63b8ff" d="M438.69,-113.02C496.31,-103.69 582.86,-89.67 643.89,-79.79"/>
<polygon fill="#63b8ff" stroke="#63b8ff" points="644.17,-83.29 653.48,-78.23 643.05,-76.38 644.17,-83.29"/>
</a>
</g>
</g>
<!-- Node10&#45;&gt;Node2 -->
<g id="edge12_Node000010_Node000002" class="edge">
<title>Node10&#45;&gt;Node2</title>
<g id="a_edge12_Node000010_Node000002"><a xlink:title=" ">
<path fill="none" stroke="#63b8ff" d="M380.27,-56.27C336.95,-47.12 272.27,-33.44 225.67,-23.59"/>
<polygon fill="#63b8ff" stroke="#63b8ff" points="226.53,-20.2 216.02,-21.55 225.08,-27.05 226.53,-20.2"/>
</a>
</g>
</g>
<!-- Node10&#45;&gt;Node5 -->
<g id="edge13_Node000010_Node000005" class="edge">
<title>Node10&#45;&gt;Node5</title>
<g id="a_edge13_Node000010_Node000005"><a xlink:title=" ">
<path fill="none" stroke="#63b8ff" d="M402.92,-56.34C381.86,-47.73 350.97,-35.11 327.27,-25.43"/>
<polygon fill="#63b8ff" stroke="#63b8ff" points="328.61,-22.19 318.03,-21.65 325.96,-28.67 328.61,-22.19"/>
</a>
</g>
</g>
<!-- Node11 -->
<g id="Node000011" class="node">
<title>Node11</title>
<g id="a_Node000011"><a xlink:title=" ">
<polygon fill="#e0e0e0" stroke="#999999" points="475.38,-20.75 366.38,-20.75 366.38,0 475.38,0 475.38,-20.75"/>
<text text-anchor="middle" x="420.88" y="-7.25" font-family="Helvetica,sans-Serif" font-size="10.00">nlohmann/json.hpp</text>
</a>
</g>
</g>
<!-- Node10&#45;&gt;Node11 -->
<g id="edge14_Node000010_Node000011" class="edge">
<title>Node10&#45;&gt;Node11</title>
<g id="a_edge14_Node000010_Node000011"><a xlink:title=" ">
<path fill="none" stroke="#63b8ff" d="M425.8,-56.34C425.08,-49.72 424.09,-40.72 423.19,-32.52"/>
<polygon fill="#63b8ff" stroke="#63b8ff" points="426.67,-32.14 422.1,-22.58 419.71,-32.9 426.67,-32.14"/>
</a>
</g>
</g>
<!-- Node12 -->
<g id="Node000012" class="node">
<title>Node12</title>
<g id="a_Node000012"><a xlink:title=" ">
<polygon fill="#e0e0e0" stroke="#999999" points="570.25,-20.75 493.5,-20.75 493.5,0 570.25,0 570.25,-20.75"/>
<text text-anchor="middle" x="531.88" y="-7.25" font-family="Helvetica,sans-Serif" font-size="10.00">pugixml.hpp</text>
</a>
</g>
</g>
<!-- Node10&#45;&gt;Node12 -->
<g id="edge15_Node000010_Node000012" class="edge">
<title>Node10&#45;&gt;Node12</title>
<g id="a_edge15_Node000010_Node000012"><a xlink:title=" ">
<path fill="none" stroke="#63b8ff" d="M445.65,-56.34C461.62,-48.01 484.83,-35.91 503.14,-26.36"/>
<polygon fill="#63b8ff" stroke="#63b8ff" points="504.67,-29.51 511.92,-21.78 501.44,-23.3 504.67,-29.51"/>
</a>
</g>
</g>
</g>
</svg>
