<?xml version="1.0" encoding="UTF-8" standalone="no"?>
<!DOCTYPE svg PUBLIC "-//W3C//DTD SVG 1.1//EN"
 "http://www.w3.org/Graphics/SVG/1.1/DTD/svg11.dtd">
<!-- Generated by graphviz version 10.0.1 (0)
 -->
<!-- Title: validation_api::errorBuilder Pages: 1 -->
<svg width="1603pt" height="171pt"
 viewBox="0.00 0.00 1602.50 171.14" xmlns="http://www.w3.org/2000/svg" xmlns:xlink="http://www.w3.org/1999/xlink">
<g id="graph0" class="graph" transform="scale(1 1) rotate(0) translate(4 167.14)">
<title>validation_api::errorBuilder</title>
<!-- Node1 -->
<g id="Node000001" class="node">
<title>Node1</title>
<g id="a_Node000001"><a xlink:title="Error builder.">
<polygon fill="#999999" stroke="#666666" points="1594.5,-86.38 1445.75,-86.38 1445.75,-65.62 1594.5,-65.62 1594.5,-86.38"/>
<text text-anchor="middle" x="1520.12" y="-72.88" font-family="Helvetica,sans-Serif" font-size="10.00">validation_api::errorBuilder</text>
</a>
</g>
</g>
<!-- Node2 -->
<g id="Node000002" class="node">
<title>Node2</title>
<g id="a_Node000002"><a xlink:href="classvalidation__api_1_1Validation.html#ac6c337d3af39943a8e603a5f21f5922a" target="_top" xlink:title=" ">
<polygon fill="white" stroke="#666666" points="882.5,-48.38 721,-48.38 721,-27.62 882.5,-27.62 882.5,-48.38"/>
<text text-anchor="middle" x="801.75" y="-34.88" font-family="Helvetica,sans-Serif" font-size="10.00">validation_api::Validation::run</text>
</a>
</g>
</g>
<!-- Node1&#45;&gt;Node2 -->
<g id="edge1_Node000001_Node000002" class="edge">
<title>Node1&#45;&gt;Node2</title>
<g id="a_edge1_Node000001_Node000002"><a xlink:title=" ">
<path fill="none" stroke="#63b8ff" d="M1434.06,-71.49C1294.58,-64.09 1019.17,-49.48 882.94,-42.25"/>
<polygon fill="#63b8ff" stroke="#63b8ff" points="1433.81,-74.98 1443.98,-72.01 1434.18,-67.99 1433.81,-74.98"/>
</a>
</g>
</g>
<!-- Node3 -->
<g id="Node000003" class="node">
<title>Node3</title>
<g id="a_Node000003"><a xlink:href="classvalidation__api_1_1ConfigService.html#a654e84f4f588f7391f93210c1e08344f" target="_top" xlink:title="getConfigs method">
<polygon fill="white" stroke="#666666" points="685,-35.75 527.25,-35.75 527.25,-2.25 685,-2.25 685,-35.75"/>
<text text-anchor="start" x="535.25" y="-22.25" font-family="Helvetica,sans-Serif" font-size="10.00">validation_api::ConfigService</text>
<text text-anchor="middle" x="606.12" y="-9.5" font-family="Helvetica,sans-Serif" font-size="10.00">::validateConfig</text>
</a>
</g>
</g>
<!-- Node1&#45;&gt;Node3 -->
<g id="edge12_Node000001_Node000003" class="edge">
<title>Node1&#45;&gt;Node3</title>
<g id="a_edge12_Node000001_Node000003"><a xlink:title=" ">
<path fill="none" stroke="#63b8ff" d="M1479.17,-61.64C1414.22,-39.61 1281.29,0 1165.12,0 1165.12,0 1165.12,0 987.38,0 882.77,0 762.19,-7.26 685.36,-12.8"/>
<polygon fill="#63b8ff" stroke="#63b8ff" points="1477.72,-64.84 1488.32,-64.78 1480,-58.22 1477.72,-64.84"/>
</a>
</g>
</g>
<!-- Node7 -->
<g id="Node000007" class="node">
<title>Node7</title>
<g id="a_Node000007"><a xlink:href="classvalidation__api_1_1Validation.html#a3c8146fc89af5b8cef0c1bb6c9d473f2" target="_top" xlink:title="Traverse through the json object and validate the fields.">
<polygon fill="white" stroke="#666666" points="1058.25,-118.75 918.5,-118.75 918.5,-85.25 1058.25,-85.25 1058.25,-118.75"/>
<text text-anchor="start" x="926.5" y="-105.25" font-family="Helvetica,sans-Serif" font-size="10.00">validation_api::Validation</text>
<text text-anchor="middle" x="988.38" y="-92.5" font-family="Helvetica,sans-Serif" font-size="10.00">::traverseAndValidate</text>
</a>
</g>
</g>
<!-- Node1&#45;&gt;Node7 -->
<g id="edge7_Node000001_Node000007" class="edge">
<title>Node1&#45;&gt;Node7</title>
<g id="a_edge7_Node000001_Node000007"><a xlink:title=" ">
<path fill="none" stroke="#63b8ff" d="M1499.34,-93.99C1478.71,-111.42 1444.57,-136.69 1409.75,-147 1279.2,-185.66 1117.12,-144.66 1037.76,-119.15"/>
<polygon fill="#63b8ff" stroke="#63b8ff" points="1501.43,-96.81 1506.68,-87.6 1496.83,-91.52 1501.43,-96.81"/>
</a>
</g>
</g>
<!-- Node8 -->
<g id="Node000008" class="node">
<title>Node8</title>
<g id="a_Node000008"><a xlink:href="classvalidation__api_1_1Validation.html#a1cc0802269d88c233ad3c3d1d6c3dd12" target="_top" xlink:title=" ">
<polygon fill="white" stroke="#666666" points="1234,-118.75 1094.25,-118.75 1094.25,-85.25 1234,-85.25 1234,-118.75"/>
<text text-anchor="start" x="1102.25" y="-105.25" font-family="Helvetica,sans-Serif" font-size="10.00">validation_api::Validation</text>
<text text-anchor="middle" x="1164.12" y="-92.5" font-family="Helvetica,sans-Serif" font-size="10.00">::validate</text>
</a>
</g>
</g>
<!-- Node1&#45;&gt;Node8 -->
<g id="edge10_Node000001_Node000008" class="edge">
<title>Node1&#45;&gt;Node8</title>
<g id="a_edge10_Node000001_Node000008"><a xlink:title=" ">
<path fill="none" stroke="#63b8ff" d="M1434.17,-82.24C1373,-86.73 1291.51,-92.72 1234.3,-96.92"/>
<polygon fill="#63b8ff" stroke="#63b8ff" points="1434.12,-85.75 1443.84,-81.53 1433.61,-78.77 1434.12,-85.75"/>
</a>
</g>
</g>
<!-- Node9 -->
<g id="Node000009" class="node">
<title>Node9</title>
<g id="a_Node000009"><a xlink:href="classvalidation__api_1_1Validation.html#a512e2e0c3be1bea95ebfab280ec919ba" target="_top" xlink:title="Validates len options.">
<polygon fill="white" stroke="#666666" points="1409.75,-137.75 1270,-137.75 1270,-104.25 1409.75,-104.25 1409.75,-137.75"/>
<text text-anchor="start" x="1278" y="-124.25" font-family="Helvetica,sans-Serif" font-size="10.00">validation_api::Validation</text>
<text text-anchor="middle" x="1339.88" y="-111.5" font-family="Helvetica,sans-Serif" font-size="10.00">::validateConstraints</text>
</a>
</g>
</g>
<!-- Node1&#45;&gt;Node9 -->
<g id="edge13_Node000001_Node000009" class="edge">
<title>Node1&#45;&gt;Node9</title>
<g id="a_edge13_Node000001_Node000009"><a xlink:title=" ">
<path fill="none" stroke="#63b8ff" d="M1465.41,-89.56C1447.65,-94.04 1427.66,-99.09 1408.97,-103.81"/>
<polygon fill="#63b8ff" stroke="#63b8ff" points="1466.12,-92.99 1474.96,-87.15 1464.41,-86.2 1466.12,-92.99"/>
</a>
</g>
</g>
<!-- Node2&#45;&gt;Node3 -->
<g id="edge2_Node000002_Node000003" class="edge">
<title>Node2&#45;&gt;Node3</title>
<g id="a_edge2_Node000002_Node000003"><a xlink:title=" ">
<path fill="none" stroke="#63b8ff" d="M709.32,-29.03C701.31,-28.24 693.24,-27.45 685.35,-26.68"/>
<polygon fill="#63b8ff" stroke="#63b8ff" points="708.8,-32.49 719.09,-29.99 709.48,-25.53 708.8,-32.49"/>
</a>
</g>
</g>
<!-- Node4 -->
<g id="Node000004" class="node">
<title>Node4</title>
<g id="a_Node000004"><a xlink:href="classvalidation__api_1_1ValidationServer.html#a7f5c5252fa7a28bef0345e6248139215" target="_top" xlink:title="Accept a connection.">
<polygon fill="white" stroke="#666666" points="491.25,-35.75 351.5,-35.75 351.5,-2.25 491.25,-2.25 491.25,-35.75"/>
<text text-anchor="start" x="359.5" y="-22.25" font-family="Helvetica,sans-Serif" font-size="10.00">validation_api::Validation</text>
<text text-anchor="middle" x="421.38" y="-9.5" font-family="Helvetica,sans-Serif" font-size="10.00">Server::accept</text>
</a>
</g>
</g>
<!-- Node3&#45;&gt;Node4 -->
<g id="edge3_Node000003_Node000004" class="edge">
<title>Node3&#45;&gt;Node4</title>
<g id="a_edge3_Node000003_Node000004"><a xlink:title=" ">
<path fill="none" stroke="#63b8ff" d="M515.5,-19C507.46,-19 499.4,-19 491.57,-19"/>
<polygon fill="#63b8ff" stroke="#63b8ff" points="515.31,-22.5 525.31,-19 515.31,-15.5 515.31,-22.5"/>
</a>
</g>
</g>
<!-- Node5 -->
<g id="Node000005" class="node">
<title>Node5</title>
<g id="a_Node000005"><a xlink:href="classvalidation__api_1_1ValidationServer.html#ad67c7031c85ea1cd6eb84f6b01c424df" target="_top" xlink:title="Start the server.">
<polygon fill="white" stroke="#666666" points="315.5,-35.75 175.75,-35.75 175.75,-2.25 315.5,-2.25 315.5,-35.75"/>
<text text-anchor="start" x="183.75" y="-22.25" font-family="Helvetica,sans-Serif" font-size="10.00">validation_api::Validation</text>
<text text-anchor="middle" x="245.62" y="-9.5" font-family="Helvetica,sans-Serif" font-size="10.00">Server::run</text>
</a>
</g>
</g>
<!-- Node4&#45;&gt;Node5 -->
<g id="edge4_Node000004_Node000005" class="edge">
<title>Node4&#45;&gt;Node5</title>
<g id="a_edge4_Node000004_Node000005"><a xlink:title=" ">
<path fill="none" stroke="#63b8ff" d="M339.91,-19C331.87,-19 323.75,-19 315.84,-19"/>
<polygon fill="#63b8ff" stroke="#63b8ff" points="339.69,-22.5 349.69,-19 339.69,-15.5 339.69,-22.5"/>
</a>
</g>
</g>
<!-- Node5&#45;&gt;Node5 -->
<g id="edge5_Node000005_Node000005" class="edge">
<title>Node5&#45;&gt;Node5</title>
<g id="a_edge5_Node000005_Node000005"><a xlink:title=" ">
<path fill="none" stroke="#63b8ff" d="M275.14,-47.14C270.33,-51.1 260.49,-53.75 245.62,-53.75 219.19,-53.75 208.66,-45.37 214.03,-36.16"/>
<polygon fill="#63b8ff" stroke="#63b8ff" points="278.51,-48.13 276.94,-37.65 271.63,-46.82 278.51,-48.13"/>
</a>
</g>
</g>
<!-- Node6 -->
<g id="Node000006" class="node">
<title>Node6</title>
<g id="a_Node000006"><a xlink:href="classvalidation__api_1_1ValidationServer.html#a36098376f43a053f42d163d77a893e89" target="_top" xlink:title=" ">
<polygon fill="white" stroke="#666666" points="139.75,-35.75 0,-35.75 0,-2.25 139.75,-2.25 139.75,-35.75"/>
<text text-anchor="start" x="8" y="-22.25" font-family="Helvetica,sans-Serif" font-size="10.00">validation_api::Validation</text>
<text text-anchor="middle" x="69.88" y="-9.5" font-family="Helvetica,sans-Serif" font-size="10.00">Server::ValidationServer</text>
</a>
</g>
</g>
<!-- Node5&#45;&gt;Node6 -->
<g id="edge6_Node000005_Node000006" class="edge">
<title>Node5&#45;&gt;Node6</title>
<g id="a_edge6_Node000005_Node000006"><a xlink:title=" ">
<path fill="none" stroke="#63b8ff" d="M164.16,-19C156.12,-19 148,-19 140.09,-19"/>
<polygon fill="#63b8ff" stroke="#63b8ff" points="163.94,-22.5 173.94,-19 163.94,-15.5 163.94,-22.5"/>
</a>
</g>
</g>
<!-- Node7&#45;&gt;Node2 -->
<g id="edge8_Node000007_Node000002" class="edge">
<title>Node7&#45;&gt;Node2</title>
<g id="a_edge8_Node000007_Node000002"><a xlink:title=" ">
<path fill="none" stroke="#63b8ff" d="M927.17,-81.13C896.11,-70.36 859.5,-57.67 834.07,-48.86"/>
<polygon fill="#63b8ff" stroke="#63b8ff" points="925.87,-84.39 936.47,-84.35 928.17,-77.77 925.87,-84.39"/>
</a>
</g>
</g>
<!-- Node7&#45;&gt;Node7 -->
<g id="edge9_Node000007_Node000007" class="edge">
<title>Node7&#45;&gt;Node7</title>
<g id="a_edge9_Node000007_Node000007"><a xlink:title=" ">
<path fill="none" stroke="#63b8ff" d="M1017.89,-130.14C1013.08,-134.1 1003.24,-136.75 988.38,-136.75 961.94,-136.75 951.41,-128.37 956.78,-119.16"/>
<polygon fill="#63b8ff" stroke="#63b8ff" points="1021.26,-131.13 1019.69,-120.65 1014.38,-129.82 1021.26,-131.13"/>
</a>
</g>
</g>
<!-- Node8&#45;&gt;Node7 -->
<g id="edge11_Node000008_Node000007" class="edge">
<title>Node8&#45;&gt;Node7</title>
<g id="a_edge11_Node000008_Node000007"><a xlink:title=" ">
<path fill="none" stroke="#63b8ff" d="M1082.66,-102C1074.62,-102 1066.5,-102 1058.59,-102"/>
<polygon fill="#63b8ff" stroke="#63b8ff" points="1082.44,-105.5 1092.44,-102 1082.44,-98.5 1082.44,-105.5"/>
</a>
</g>
</g>
<!-- Node9&#45;&gt;Node8 -->
<g id="edge14_Node000009_Node000008" class="edge">
<title>Node9&#45;&gt;Node8</title>
<g id="a_edge14_Node000009_Node000008"><a xlink:title=" ">
<path fill="none" stroke="#63b8ff" d="M1258.41,-112.2C1250.37,-111.32 1242.25,-110.43 1234.34,-109.57"/>
<polygon fill="#63b8ff" stroke="#63b8ff" points="1257.88,-115.66 1268.2,-113.27 1258.64,-108.71 1257.88,-115.66"/>
</a>
</g>
</g>
</g>
</svg>
