<?xml version="1.0" encoding="UTF-8" standalone="no"?>
<!DOCTYPE svg PUBLIC "-//W3C//DTD SVG 1.1//EN"
 "http://www.w3.org/Graphics/SVG/1.1/DTD/svg11.dtd">
<!-- Generated by graphviz version 12.2.1 (0)
 -->
<!-- Title: validation_api::errorBuilder Pages: 1 -->
<svg width="1133pt" height="215pt"
 viewBox="0.00 0.00 1133.25 215.29" xmlns="http://www.w3.org/2000/svg" xmlns:xlink="http://www.w3.org/1999/xlink">
<g id="graph0" class="graph" transform="scale(1 1) rotate(0) translate(4 211.29)">
<title>validation_api::errorBuilder</title>
<!-- Node1 -->
<g id="Node000001" class="node">
<title>Node1</title>
<g id="a_Node000001"><a xlink:title="Error builder.">
<polygon fill="#999999" stroke="#666666" points="1125.25,-105 994.5,-105 994.5,-85 1125.25,-85 1125.25,-105"/>
<text text-anchor="middle" x="1059.88" y="-91.5" font-family="Helvetica,sans-Serif" font-size="10.00">validation_api::errorBuilder</text>
</a>
</g>
</g>
<!-- Node2 -->
<g id="Node000002" class="node">
<title>Node2</title>
<g id="a_Node000002"><a xlink:href="classvalidation__api_1_1Validation.html#ac6c337d3af39943a8e603a5f21f5922a" target="_top" xlink:title=" ">
<polygon fill="white" stroke="#666666" points="321.5,-48 178.75,-48 178.75,-28 321.5,-28 321.5,-48"/>
<text text-anchor="middle" x="250.12" y="-34.5" font-family="Helvetica,sans-Serif" font-size="10.00">validation_api::Validation::run</text>
</a>
</g>
</g>
<!-- Node1&#45;&gt;Node2 -->
<g id="edge1_Node000001_Node000002" class="edge">
<title>Node1&#45;&gt;Node2</title>
<g id="a_edge1_Node000001_Node000002"><a xlink:title=" ">
<path fill="none" stroke="#63b8ff" d="M1012.77,-81.52C950.95,-64.67 837.51,-38 738.62,-38 738.62,-38 738.62,-38 577.38,-38 489.3,-38 387.85,-38 321.77,-38"/>
<polygon fill="#63b8ff" stroke="#63b8ff" points="1011.67,-84.85 1022.24,-84.14 1013.53,-78.1 1011.67,-84.85"/>
</a>
</g>
</g>
<!-- Node3 -->
<g id="Node000003" class="node">
<title>Node3</title>
<g id="a_Node000003"><a xlink:href="classvalidation__api_1_1ConfigService.html#a654e84f4f588f7391f93210c1e08344f" target="_top" xlink:title="getConfigs method">
<polygon fill="white" stroke="#666666" points="142.75,-35 0,-35 0,-3 142.75,-3 142.75,-35"/>
<text text-anchor="start" x="8" y="-21.5" font-family="Helvetica,sans-Serif" font-size="10.00">validation_api::ConfigService</text>
<text text-anchor="middle" x="71.38" y="-9.5" font-family="Helvetica,sans-Serif" font-size="10.00">::validateConfig</text>
</a>
</g>
</g>
<!-- Node1&#45;&gt;Node3 -->
<g id="edge8_Node000001_Node000003" class="edge">
<title>Node1&#45;&gt;Node3</title>
<g id="a_edge8_Node000001_Node000003"><a xlink:title=" ">
<path fill="none" stroke="#63b8ff" d="M1033.52,-78.5C1013.81,-66.4 985.39,-50.48 958.5,-41 864.75,-7.95 838.03,0 738.62,0 738.62,0 738.62,0 418.12,0 322.84,0 213.01,-7.28 143.17,-12.83"/>
<polygon fill="#63b8ff" stroke="#63b8ff" points="1031.63,-81.45 1041.96,-83.79 1035.35,-75.52 1031.63,-81.45"/>
</a>
</g>
</g>
<!-- Node4 -->
<g id="Node000004" class="node">
<title>Node4</title>
<g id="a_Node000004"><a xlink:href="classvalidation__api_1_1Validation.html#a3c8146fc89af5b8cef0c1bb6c9d473f2" target="_top" xlink:title="Traverse through the json object and validate the fields.">
<polygon fill="white" stroke="#666666" points="480.75,-117 357.5,-117 357.5,-85 480.75,-85 480.75,-117"/>
<text text-anchor="start" x="365.5" y="-103.5" font-family="Helvetica,sans-Serif" font-size="10.00">validation_api::Validation</text>
<text text-anchor="middle" x="419.12" y="-91.5" font-family="Helvetica,sans-Serif" font-size="10.00">::traverseAndValidate</text>
</a>
</g>
</g>
<!-- Node1&#45;&gt;Node4 -->
<g id="edge3_Node000001_Node000004" class="edge">
<title>Node1&#45;&gt;Node4</title>
<g id="a_edge3_Node000001_Node000004"><a xlink:title=" ">
<path fill="none" stroke="#63b8ff" d="M1044.44,-114.1C1026.87,-135.58 994.99,-169.27 958.5,-183 776.88,-251.34 540.41,-157.39 453.8,-117.45"/>
<polygon fill="#63b8ff" stroke="#63b8ff" points="1047.08,-116.4 1050.53,-106.39 1041.58,-112.06 1047.08,-116.4"/>
</a>
</g>
</g>
<!-- Node5 -->
<g id="Node000005" class="node">
<title>Node5</title>
<g id="a_Node000005"><a xlink:href="classvalidation__api_1_1Validation.html#a1cc0802269d88c233ad3c3d1d6c3dd12" target="_top" xlink:title=" ">
<polygon fill="white" stroke="#666666" points="640,-117 516.75,-117 516.75,-85 640,-85 640,-117"/>
<text text-anchor="start" x="524.75" y="-103.5" font-family="Helvetica,sans-Serif" font-size="10.00">validation_api::Validation</text>
<text text-anchor="middle" x="578.38" y="-91.5" font-family="Helvetica,sans-Serif" font-size="10.00">::validate</text>
</a>
</g>
</g>
<!-- Node1&#45;&gt;Node5 -->
<g id="edge6_Node000001_Node000005" class="edge">
<title>Node1&#45;&gt;Node5</title>
<g id="a_edge6_Node000001_Node000005"><a xlink:title=" ">
<path fill="none" stroke="#63b8ff" d="M983.1,-93.62C905.85,-92.53 782.54,-91.7 676,-95 664.49,-95.36 652.23,-95.95 640.43,-96.63"/>
<polygon fill="#63b8ff" stroke="#63b8ff" points="982.6,-97.11 992.65,-93.76 982.7,-90.11 982.6,-97.11"/>
</a>
</g>
</g>
<!-- Node6 -->
<g id="Node000006" class="node">
<title>Node6</title>
<g id="a_Node000006"><a xlink:href="classvalidation__api_1_1Validation.html#adcaf3ffa9f9242d9fb2577613c6ebf44" target="_top" xlink:title="Validates len options.">
<polygon fill="white" stroke="#666666" points="958.5,-174 835.25,-174 835.25,-142 958.5,-142 958.5,-174"/>
<text text-anchor="start" x="843.25" y="-160.5" font-family="Helvetica,sans-Serif" font-size="10.00">validation_api::Validation</text>
<text text-anchor="middle" x="896.88" y="-148.5" font-family="Helvetica,sans-Serif" font-size="10.00">::validateConstraints</text>
</a>
</g>
</g>
<!-- Node1&#45;&gt;Node6 -->
<g id="edge9_Node000001_Node000006" class="edge">
<title>Node1&#45;&gt;Node6</title>
<g id="a_edge9_Node000001_Node000006"><a xlink:title=" ">
<path fill="none" stroke="#63b8ff" d="M1021.66,-109.56C997.24,-119.12 965.28,-131.63 939.94,-141.54"/>
<polygon fill="#63b8ff" stroke="#63b8ff" points="1022.84,-112.86 1030.88,-105.95 1020.29,-106.34 1022.84,-112.86"/>
</a>
</g>
</g>
<!-- Node7 -->
<g id="Node000007" class="node">
<title>Node7</title>
<g id="a_Node000007"><a xlink:href="classvalidation__api_1_1Validation.html#a4d77d8b938e4241f346b0360f4eec61e" target="_top" xlink:title=" ">
<polygon fill="white" stroke="#666666" points="799.25,-136 676,-136 676,-104 799.25,-104 799.25,-136"/>
<text text-anchor="start" x="684" y="-122.5" font-family="Helvetica,sans-Serif" font-size="10.00">validation_api::Validation</text>
<text text-anchor="middle" x="737.62" y="-110.5" font-family="Helvetica,sans-Serif" font-size="10.00">::validateOne</text>
</a>
</g>
</g>
<!-- Node1&#45;&gt;Node7 -->
<g id="edge13_Node000001_Node000007" class="edge">
<title>Node1&#45;&gt;Node7</title>
<g id="a_edge13_Node000001_Node000007"><a xlink:title=" ">
<path fill="none" stroke="#63b8ff" d="M982.78,-100.94C926.76,-105.31 851.6,-111.18 799.54,-115.24"/>
<polygon fill="#63b8ff" stroke="#63b8ff" points="982.86,-104.44 992.56,-100.18 982.32,-97.47 982.86,-104.44"/>
</a>
</g>
</g>
<!-- Node2&#45;&gt;Node3 -->
<g id="edge2_Node000002_Node000003" class="edge">
<title>Node2&#45;&gt;Node3</title>
<g id="a_edge2_Node000002_Node000003"><a xlink:title=" ">
<path fill="none" stroke="#63b8ff" d="M166.98,-29.17C158.96,-28.31 150.87,-27.44 142.98,-26.59"/>
<polygon fill="#63b8ff" stroke="#63b8ff" points="166.43,-32.63 176.75,-30.22 167.18,-25.67 166.43,-32.63"/>
</a>
</g>
</g>
<!-- Node4&#45;&gt;Node2 -->
<g id="edge4_Node000004_Node000002" class="edge">
<title>Node4&#45;&gt;Node2</title>
<g id="a_edge4_Node000004_Node000002"><a xlink:title=" ">
<path fill="none" stroke="#63b8ff" d="M364.05,-80.6C335.54,-69.85 301.79,-57.11 278.65,-48.38"/>
<polygon fill="#63b8ff" stroke="#63b8ff" points="362.68,-83.82 373.27,-84.08 365.15,-77.27 362.68,-83.82"/>
</a>
</g>
</g>
<!-- Node4&#45;&gt;Node4 -->
<g id="edge5_Node000004_Node000004" class="edge">
<title>Node4&#45;&gt;Node4</title>
<g id="a_edge5_Node000004_Node000004"><a xlink:title=" ">
<path fill="none" stroke="#63b8ff" d="M445.66,-128.71C441.24,-132.48 432.39,-135 419.12,-135 394.86,-135 385.39,-126.58 390.69,-117.44"/>
<polygon fill="#63b8ff" stroke="#63b8ff" points="449.1,-129.38 447.3,-118.94 442.2,-128.22 449.1,-129.38"/>
</a>
</g>
</g>
<!-- Node5&#45;&gt;Node4 -->
<g id="edge7_Node000005_Node000004" class="edge">
<title>Node5&#45;&gt;Node4</title>
<g id="a_edge7_Node000005_Node000004"><a xlink:title=" ">
<path fill="none" stroke="#63b8ff" d="M505.23,-101C497.14,-101 488.95,-101 481.02,-101"/>
<polygon fill="#63b8ff" stroke="#63b8ff" points="505.06,-104.5 515.06,-101 505.06,-97.5 505.06,-104.5"/>
</a>
</g>
</g>
<!-- Node6&#45;&gt;Node7 -->
<g id="edge10_Node000006_Node000007" class="edge">
<title>Node6&#45;&gt;Node7</title>
<g id="a_edge10_Node000006_Node000007"><a xlink:title=" ">
<path fill="none" stroke="#63b8ff" d="M824.01,-140.63C815.83,-138.66 807.54,-136.65 799.52,-134.72"/>
<polygon fill="#63b8ff" stroke="#63b8ff" points="823.06,-144.01 833.61,-142.95 824.71,-137.2 823.06,-144.01"/>
</a>
</g>
</g>
<!-- Node7&#45;&gt;Node5 -->
<g id="edge11_Node000007_Node000005" class="edge">
<title>Node7&#45;&gt;Node5</title>
<g id="a_edge11_Node000007_Node000005"><a xlink:title=" ">
<path fill="none" stroke="#63b8ff" d="M664.48,-111.28C656.39,-110.31 648.2,-109.32 640.27,-108.36"/>
<polygon fill="#63b8ff" stroke="#63b8ff" points="663.98,-114.75 674.33,-112.47 664.82,-107.8 663.98,-114.75"/>
</a>
</g>
</g>
<!-- Node7&#45;&gt;Node7 -->
<g id="edge12_Node000007_Node000007" class="edge">
<title>Node7&#45;&gt;Node7</title>
<g id="a_edge12_Node000007_Node000007"><a xlink:title=" ">
<path fill="none" stroke="#63b8ff" d="M764.16,-147.71C759.74,-151.48 750.89,-154 737.62,-154 713.36,-154 703.89,-145.58 709.19,-136.44"/>
<polygon fill="#63b8ff" stroke="#63b8ff" points="767.6,-148.38 765.8,-137.94 760.7,-147.22 767.6,-148.38"/>
</a>
</g>
</g>
</g>
</svg>
