<?xml version="1.0" encoding="UTF-8" standalone="no"?>
<!DOCTYPE svg PUBLIC "-//W3C//DTD SVG 1.1//EN"
 "http://www.w3.org/Graphics/SVG/1.1/DTD/svg11.dtd">
<!-- Generated by graphviz version 12.2.1 (0)
 -->
<!-- Title: validation_api::errorBuilder Pages: 1 -->
<svg width="974pt" height="168pt"
 viewBox="0.00 0.00 974.00 168.05" xmlns="http://www.w3.org/2000/svg" xmlns:xlink="http://www.w3.org/1999/xlink">
<g id="graph0" class="graph" transform="scale(1 1) rotate(0) translate(4 164.05)">
<title>validation_api::errorBuilder</title>
<!-- Node1 -->
<g id="Node000001" class="node">
<title>Node1</title>
<g id="a_Node000001"><a xlink:title="Error builder.">
<polygon fill="#999999" stroke="#666666" points="966,-86 835.25,-86 835.25,-66 966,-66 966,-86"/>
<text text-anchor="middle" x="900.62" y="-72.5" font-family="Helvetica,sans-Serif" font-size="10.00">validation_api::errorBuilder</text>
</a>
</g>
</g>
<!-- Node2 -->
<g id="Node000002" class="node">
<title>Node2</title>
<g id="a_Node000002"><a xlink:href="classvalidation__api_1_1Validation.html#ac6c337d3af39943a8e603a5f21f5922a" target="_top" xlink:title=" ">
<polygon fill="white" stroke="#666666" points="321.5,-48 178.75,-48 178.75,-28 321.5,-28 321.5,-48"/>
<text text-anchor="middle" x="250.12" y="-34.5" font-family="Helvetica,sans-Serif" font-size="10.00">validation_api::Validation::run</text>
</a>
</g>
</g>
<!-- Node1&#45;&gt;Node2 -->
<g id="edge1_Node000001_Node000002" class="edge">
<title>Node1&#45;&gt;Node2</title>
<g id="a_edge1_Node000001_Node000002"><a xlink:title=" ">
<path fill="none" stroke="#63b8ff" d="M823.66,-71.55C697.04,-64.13 444.64,-49.34 321.7,-42.14"/>
<polygon fill="#63b8ff" stroke="#63b8ff" points="823.08,-75.02 833.26,-72.11 823.49,-68.03 823.08,-75.02"/>
</a>
</g>
</g>
<!-- Node3 -->
<g id="Node000003" class="node">
<title>Node3</title>
<g id="a_Node000003"><a xlink:href="classvalidation__api_1_1ConfigService.html#a654e84f4f588f7391f93210c1e08344f" target="_top" xlink:title="getConfigs method">
<polygon fill="white" stroke="#666666" points="142.75,-35 0,-35 0,-3 142.75,-3 142.75,-35"/>
<text text-anchor="start" x="8" y="-21.5" font-family="Helvetica,sans-Serif" font-size="10.00">validation_api::ConfigService</text>
<text text-anchor="middle" x="71.38" y="-9.5" font-family="Helvetica,sans-Serif" font-size="10.00">::validateConfig</text>
</a>
</g>
</g>
<!-- Node1&#45;&gt;Node3 -->
<g id="edge8_Node000001_Node000003" class="edge">
<title>Node1&#45;&gt;Node3</title>
<g id="a_edge8_Node000001_Node000003"><a xlink:title=" ">
<path fill="none" stroke="#63b8ff" d="M863.4,-61.56C804.74,-39.52 684.86,0 579.38,0 579.38,0 579.38,0 418.12,0 322.84,0 213.01,-7.28 143.17,-12.83"/>
<polygon fill="#63b8ff" stroke="#63b8ff" points="861.96,-64.76 872.55,-65.05 864.45,-58.22 861.96,-64.76"/>
</a>
</g>
</g>
<!-- Node4 -->
<g id="Node000004" class="node">
<title>Node4</title>
<g id="a_Node000004"><a xlink:href="classvalidation__api_1_1Validation.html#a3c8146fc89af5b8cef0c1bb6c9d473f2" target="_top" xlink:title="Traverse through the json object and validate the fields.">
<polygon fill="white" stroke="#666666" points="480.75,-117 357.5,-117 357.5,-85 480.75,-85 480.75,-117"/>
<text text-anchor="start" x="365.5" y="-103.5" font-family="Helvetica,sans-Serif" font-size="10.00">validation_api::Validation</text>
<text text-anchor="middle" x="419.12" y="-91.5" font-family="Helvetica,sans-Serif" font-size="10.00">::traverseAndValidate</text>
</a>
</g>
</g>
<!-- Node1&#45;&gt;Node4 -->
<g id="edge3_Node000001_Node000004" class="edge">
<title>Node1&#45;&gt;Node4</title>
<g id="a_edge3_Node000001_Node000004"><a xlink:title=" ">
<path fill="none" stroke="#63b8ff" d="M881.14,-93.92C862.3,-110.83 831.36,-135.03 799.25,-145 681.86,-181.46 535.53,-141.98 463.84,-117.47"/>
<polygon fill="#63b8ff" stroke="#63b8ff" points="883.3,-96.69 888.26,-87.33 878.54,-91.56 883.3,-96.69"/>
</a>
</g>
</g>
<!-- Node5 -->
<g id="Node000005" class="node">
<title>Node5</title>
<g id="a_Node000005"><a xlink:href="classvalidation__api_1_1Validation.html#a1cc0802269d88c233ad3c3d1d6c3dd12" target="_top" xlink:title=" ">
<polygon fill="white" stroke="#666666" points="640,-117 516.75,-117 516.75,-85 640,-85 640,-117"/>
<text text-anchor="start" x="524.75" y="-103.5" font-family="Helvetica,sans-Serif" font-size="10.00">validation_api::Validation</text>
<text text-anchor="middle" x="578.38" y="-91.5" font-family="Helvetica,sans-Serif" font-size="10.00">::validate</text>
</a>
</g>
</g>
<!-- Node1&#45;&gt;Node5 -->
<g id="edge6_Node000001_Node000005" class="edge">
<title>Node1&#45;&gt;Node5</title>
<g id="a_edge6_Node000001_Node000005"><a xlink:title=" ">
<path fill="none" stroke="#63b8ff" d="M823.53,-81.94C767.51,-86.31 692.35,-92.18 640.29,-96.24"/>
<polygon fill="#63b8ff" stroke="#63b8ff" points="823.61,-85.44 833.31,-81.18 823.07,-78.47 823.61,-85.44"/>
</a>
</g>
</g>
<!-- Node6 -->
<g id="Node000006" class="node">
<title>Node6</title>
<g id="a_Node000006"><a xlink:href="classvalidation__api_1_1Validation.html#a512e2e0c3be1bea95ebfab280ec919ba" target="_top" xlink:title="Validates len options.">
<polygon fill="white" stroke="#666666" points="799.25,-136 676,-136 676,-104 799.25,-104 799.25,-136"/>
<text text-anchor="start" x="684" y="-122.5" font-family="Helvetica,sans-Serif" font-size="10.00">validation_api::Validation</text>
<text text-anchor="middle" x="737.62" y="-110.5" font-family="Helvetica,sans-Serif" font-size="10.00">::validateConstraints</text>
</a>
</g>
</g>
<!-- Node1&#45;&gt;Node6 -->
<g id="edge9_Node000001_Node000006" class="edge">
<title>Node1&#45;&gt;Node6</title>
<g id="a_edge9_Node000001_Node000006"><a xlink:title=" ">
<path fill="none" stroke="#63b8ff" d="M850.55,-89.41C834.24,-93.87 815.9,-98.88 798.85,-103.54"/>
<polygon fill="#63b8ff" stroke="#63b8ff" points="851.29,-92.84 860.01,-86.83 849.44,-86.09 851.29,-92.84"/>
</a>
</g>
</g>
<!-- Node2&#45;&gt;Node3 -->
<g id="edge2_Node000002_Node000003" class="edge">
<title>Node2&#45;&gt;Node3</title>
<g id="a_edge2_Node000002_Node000003"><a xlink:title=" ">
<path fill="none" stroke="#63b8ff" d="M166.98,-29.17C158.96,-28.31 150.87,-27.44 142.98,-26.59"/>
<polygon fill="#63b8ff" stroke="#63b8ff" points="166.43,-32.63 176.75,-30.22 167.18,-25.67 166.43,-32.63"/>
</a>
</g>
</g>
<!-- Node4&#45;&gt;Node2 -->
<g id="edge4_Node000004_Node000002" class="edge">
<title>Node4&#45;&gt;Node2</title>
<g id="a_edge4_Node000004_Node000002"><a xlink:title=" ">
<path fill="none" stroke="#63b8ff" d="M364.05,-80.6C335.54,-69.85 301.79,-57.11 278.65,-48.38"/>
<polygon fill="#63b8ff" stroke="#63b8ff" points="362.68,-83.82 373.27,-84.08 365.15,-77.27 362.68,-83.82"/>
</a>
</g>
</g>
<!-- Node4&#45;&gt;Node4 -->
<g id="edge5_Node000004_Node000004" class="edge">
<title>Node4&#45;&gt;Node4</title>
<g id="a_edge5_Node000004_Node000004"><a xlink:title=" ">
<path fill="none" stroke="#63b8ff" d="M445.66,-128.71C441.24,-132.48 432.39,-135 419.12,-135 394.86,-135 385.39,-126.58 390.69,-117.44"/>
<polygon fill="#63b8ff" stroke="#63b8ff" points="449.1,-129.38 447.3,-118.94 442.2,-128.22 449.1,-129.38"/>
</a>
</g>
</g>
<!-- Node5&#45;&gt;Node4 -->
<g id="edge7_Node000005_Node000004" class="edge">
<title>Node5&#45;&gt;Node4</title>
<g id="a_edge7_Node000005_Node000004"><a xlink:title=" ">
<path fill="none" stroke="#63b8ff" d="M505.23,-101C497.14,-101 488.95,-101 481.02,-101"/>
<polygon fill="#63b8ff" stroke="#63b8ff" points="505.06,-104.5 515.06,-101 505.06,-97.5 505.06,-104.5"/>
</a>
</g>
</g>
<!-- Node6&#45;&gt;Node5 -->
<g id="edge10_Node000006_Node000005" class="edge">
<title>Node6&#45;&gt;Node5</title>
<g id="a_edge10_Node000006_Node000005"><a xlink:title=" ">
<path fill="none" stroke="#63b8ff" d="M664.48,-111.28C656.39,-110.31 648.2,-109.32 640.27,-108.36"/>
<polygon fill="#63b8ff" stroke="#63b8ff" points="663.98,-114.75 674.33,-112.47 664.82,-107.8 663.98,-114.75"/>
</a>
</g>
</g>
</g>
</svg>
