<?xml version="1.0" encoding="UTF-8" standalone="no"?>
<!DOCTYPE svg PUBLIC "-//W3C//DTD SVG 1.1//EN"
 "http://www.w3.org/Graphics/SVG/1.1/DTD/svg11.dtd">
<!-- Generated by graphviz version 10.0.1 (0)
 -->
<!-- Title: validation_api::toLower Pages: 1 -->
<svg width="1455pt" height="150pt"
 viewBox="0.00 0.00 1455.25 149.50" xmlns="http://www.w3.org/2000/svg" xmlns:xlink="http://www.w3.org/1999/xlink">
<g id="graph0" class="graph" transform="scale(1 1) rotate(0) translate(4 145.5)">
<title>validation_api::toLower</title>
<!-- Node1 -->
<g id="Node000001" class="node">
<title>Node1</title>
<g id="a_Node000001"><a xlink:title="Converts string to all lowercase.">
<polygon fill="#999999" stroke="#666666" points="1447.25,-82.12 1317.25,-82.12 1317.25,-61.38 1447.25,-61.38 1447.25,-82.12"/>
<text text-anchor="middle" x="1382.25" y="-68.62" font-family="Helvetica,sans-Serif" font-size="10.00">validation_api::toLower</text>
</a>
</g>
</g>
<!-- Node2 -->
<g id="Node000002" class="node">
<title>Node2</title>
<g id="a_Node000002"><a xlink:href="classvalidation__api_1_1Validation.html#a1cc0802269d88c233ad3c3d1d6c3dd12" target="_top" xlink:title=" ">
<polygon fill="white" stroke="#666666" points="1281.25,-123.5 1141.5,-123.5 1141.5,-90 1281.25,-90 1281.25,-123.5"/>
<text text-anchor="start" x="1149.5" y="-110" font-family="Helvetica,sans-Serif" font-size="10.00">validation_api::Validation</text>
<text text-anchor="middle" x="1211.38" y="-97.25" font-family="Helvetica,sans-Serif" font-size="10.00">::validate</text>
</a>
</g>
</g>
<!-- Node1&#45;&gt;Node2 -->
<g id="edge1_Node000001_Node000002" class="edge">
<title>Node1&#45;&gt;Node2</title>
<g id="a_edge1_Node000001_Node000002"><a xlink:title=" ">
<path fill="none" stroke="#63b8ff" d="M1318.04,-84.85C1306.17,-87.31 1293.7,-89.9 1281.66,-92.39"/>
<polygon fill="#63b8ff" stroke="#63b8ff" points="1318.64,-88.3 1327.72,-82.84 1317.22,-81.45 1318.64,-88.3"/>
</a>
</g>
</g>
<!-- Node9 -->
<g id="Node000009" class="node">
<title>Node9</title>
<g id="a_Node000009"><a xlink:href="namespacevalidation__api.html#aa82c6b3a43b6e6b59b529c22944cadca" target="_top" xlink:title="Ensures valid Xml configuration.">
<polygon fill="white" stroke="#666666" points="1276.75,-53.5 1146,-53.5 1146,-20 1276.75,-20 1276.75,-53.5"/>
<text text-anchor="start" x="1154" y="-40" font-family="Helvetica,sans-Serif" font-size="10.00">validation_api::validate</text>
<text text-anchor="middle" x="1211.38" y="-27.25" font-family="Helvetica,sans-Serif" font-size="10.00">XmlConfig</text>
</a>
</g>
</g>
<!-- Node1&#45;&gt;Node9 -->
<g id="edge10_Node000001_Node000009" class="edge">
<title>Node1&#45;&gt;Node9</title>
<g id="a_edge10_Node000001_Node000009"><a xlink:title=" ">
<path fill="none" stroke="#63b8ff" d="M1318.15,-58.67C1304.73,-55.89 1290.54,-52.95 1277.06,-50.16"/>
<polygon fill="#63b8ff" stroke="#63b8ff" points="1317.22,-62.05 1327.72,-60.66 1318.64,-55.2 1317.22,-62.05"/>
</a>
</g>
</g>
<!-- Node3 -->
<g id="Node000003" class="node">
<title>Node3</title>
<g id="a_Node000003"><a xlink:href="classvalidation__api_1_1Validation.html#a3c8146fc89af5b8cef0c1bb6c9d473f2" target="_top" xlink:title="Traverse through the json object and validate the fields.">
<polygon fill="white" stroke="#666666" points="1094.62,-123.5 954.88,-123.5 954.88,-90 1094.62,-90 1094.62,-123.5"/>
<text text-anchor="start" x="962.88" y="-110" font-family="Helvetica,sans-Serif" font-size="10.00">validation_api::Validation</text>
<text text-anchor="middle" x="1024.75" y="-97.25" font-family="Helvetica,sans-Serif" font-size="10.00">::traverseAndValidate</text>
</a>
</g>
</g>
<!-- Node2&#45;&gt;Node3 -->
<g id="edge2_Node000002_Node000003" class="edge">
<title>Node2&#45;&gt;Node3</title>
<g id="a_edge2_Node000002_Node000003"><a xlink:title=" ">
<path fill="none" stroke="#63b8ff" d="M1129.69,-106.75C1118.16,-106.75 1106.39,-106.75 1095.1,-106.75"/>
<polygon fill="#63b8ff" stroke="#63b8ff" points="1129.59,-110.25 1139.59,-106.75 1129.59,-103.25 1129.59,-110.25"/>
</a>
</g>
</g>
<!-- Node3&#45;&gt;Node3 -->
<g id="edge9_Node000003_Node000003" class="edge">
<title>Node3&#45;&gt;Node3</title>
<g id="a_edge9_Node000003_Node000003"><a xlink:title=" ">
<path fill="none" stroke="#63b8ff" d="M1056.09,-134.89C1050.98,-138.85 1040.54,-141.5 1024.75,-141.5 996.68,-141.5 985.5,-133.12 991.2,-123.91"/>
<polygon fill="#63b8ff" stroke="#63b8ff" points="1059.45,-135.89 1058,-125.4 1052.59,-134.51 1059.45,-135.89"/>
</a>
</g>
</g>
<!-- Node4 -->
<g id="Node000004" class="node">
<title>Node4</title>
<g id="a_Node000004"><a xlink:href="classvalidation__api_1_1Validation.html#ac6c337d3af39943a8e603a5f21f5922a" target="_top" xlink:title=" ">
<polygon fill="white" stroke="#666666" points="897.12,-117.12 735.62,-117.12 735.62,-96.38 897.12,-96.38 897.12,-117.12"/>
<text text-anchor="middle" x="816.38" y="-103.62" font-family="Helvetica,sans-Serif" font-size="10.00">validation_api::Validation::run</text>
</a>
</g>
</g>
<!-- Node3&#45;&gt;Node4 -->
<g id="edge3_Node000003_Node000004" class="edge">
<title>Node3&#45;&gt;Node4</title>
<g id="a_edge3_Node000003_Node000004"><a xlink:title=" ">
<path fill="none" stroke="#63b8ff" d="M943.15,-106.75C928.16,-106.75 912.51,-106.75 897.54,-106.75"/>
<polygon fill="#63b8ff" stroke="#63b8ff" points="942.94,-110.25 952.94,-106.75 942.94,-103.25 942.94,-110.25"/>
</a>
</g>
</g>
<!-- Node5 -->
<g id="Node000005" class="node">
<title>Node5</title>
<g id="a_Node000005"><a xlink:href="classvalidation__api_1_1ConfigService.html#a654e84f4f588f7391f93210c1e08344f" target="_top" xlink:title="getConfigs method">
<polygon fill="white" stroke="#666666" points="686.88,-123.5 529.12,-123.5 529.12,-90 686.88,-90 686.88,-123.5"/>
<text text-anchor="start" x="537.12" y="-110" font-family="Helvetica,sans-Serif" font-size="10.00">validation_api::ConfigService</text>
<text text-anchor="middle" x="608" y="-97.25" font-family="Helvetica,sans-Serif" font-size="10.00">::validateConfig</text>
</a>
</g>
</g>
<!-- Node4&#45;&gt;Node5 -->
<g id="edge4_Node000004_Node000005" class="edge">
<title>Node4&#45;&gt;Node5</title>
<g id="a_edge4_Node000004_Node000005"><a xlink:title=" ">
<path fill="none" stroke="#63b8ff" d="M724.11,-106.75C711.85,-106.75 699.36,-106.75 687.34,-106.75"/>
<polygon fill="#63b8ff" stroke="#63b8ff" points="723.78,-110.25 733.78,-106.75 723.78,-103.25 723.78,-110.25"/>
</a>
</g>
</g>
<!-- Node6 -->
<g id="Node000006" class="node">
<title>Node6</title>
<g id="a_Node000006"><a xlink:href="classvalidation__api_1_1ValidationServer.html#a7f5c5252fa7a28bef0345e6248139215" target="_top" xlink:title="Accept a connection.">
<polygon fill="white" stroke="#666666" points="491.25,-123.5 351.5,-123.5 351.5,-90 491.25,-90 491.25,-123.5"/>
<text text-anchor="start" x="359.5" y="-110" font-family="Helvetica,sans-Serif" font-size="10.00">validation_api::Validation</text>
<text text-anchor="middle" x="421.38" y="-97.25" font-family="Helvetica,sans-Serif" font-size="10.00">Server::accept</text>
</a>
</g>
</g>
<!-- Node5&#45;&gt;Node6 -->
<g id="edge5_Node000005_Node000006" class="edge">
<title>Node5&#45;&gt;Node6</title>
<g id="a_edge5_Node000005_Node000006"><a xlink:title=" ">
<path fill="none" stroke="#63b8ff" d="M517.4,-106.75C508.78,-106.75 500.12,-106.75 491.73,-106.75"/>
<polygon fill="#63b8ff" stroke="#63b8ff" points="517.19,-110.25 527.19,-106.75 517.19,-103.25 517.19,-110.25"/>
</a>
</g>
</g>
<!-- Node7 -->
<g id="Node000007" class="node">
<title>Node7</title>
<g id="a_Node000007"><a xlink:href="classvalidation__api_1_1ValidationServer.html#ad67c7031c85ea1cd6eb84f6b01c424df" target="_top" xlink:title="Start the server.">
<polygon fill="white" stroke="#666666" points="315.5,-123.5 175.75,-123.5 175.75,-90 315.5,-90 315.5,-123.5"/>
<text text-anchor="start" x="183.75" y="-110" font-family="Helvetica,sans-Serif" font-size="10.00">validation_api::Validation</text>
<text text-anchor="middle" x="245.62" y="-97.25" font-family="Helvetica,sans-Serif" font-size="10.00">Server::run</text>
</a>
</g>
</g>
<!-- Node6&#45;&gt;Node7 -->
<g id="edge6_Node000006_Node000007" class="edge">
<title>Node6&#45;&gt;Node7</title>
<g id="a_edge6_Node000006_Node000007"><a xlink:title=" ">
<path fill="none" stroke="#63b8ff" d="M339.91,-106.75C331.87,-106.75 323.75,-106.75 315.84,-106.75"/>
<polygon fill="#63b8ff" stroke="#63b8ff" points="339.69,-110.25 349.69,-106.75 339.69,-103.25 339.69,-110.25"/>
</a>
</g>
</g>
<!-- Node7&#45;&gt;Node7 -->
<g id="edge7_Node000007_Node000007" class="edge">
<title>Node7&#45;&gt;Node7</title>
<g id="a_edge7_Node000007_Node000007"><a xlink:title=" ">
<path fill="none" stroke="#63b8ff" d="M275.14,-134.89C270.33,-138.85 260.49,-141.5 245.62,-141.5 219.19,-141.5 208.66,-133.12 214.03,-123.91"/>
<polygon fill="#63b8ff" stroke="#63b8ff" points="278.51,-135.88 276.94,-125.4 271.63,-134.57 278.51,-135.88"/>
</a>
</g>
</g>
<!-- Node8 -->
<g id="Node000008" class="node">
<title>Node8</title>
<g id="a_Node000008"><a xlink:href="classvalidation__api_1_1ValidationServer.html#a36098376f43a053f42d163d77a893e89" target="_top" xlink:title=" ">
<polygon fill="white" stroke="#666666" points="139.75,-123.5 0,-123.5 0,-90 139.75,-90 139.75,-123.5"/>
<text text-anchor="start" x="8" y="-110" font-family="Helvetica,sans-Serif" font-size="10.00">validation_api::Validation</text>
<text text-anchor="middle" x="69.88" y="-97.25" font-family="Helvetica,sans-Serif" font-size="10.00">Server::ValidationServer</text>
</a>
</g>
</g>
<!-- Node7&#45;&gt;Node8 -->
<g id="edge8_Node000007_Node000008" class="edge">
<title>Node7&#45;&gt;Node8</title>
<g id="a_edge8_Node000007_Node000008"><a xlink:title=" ">
<path fill="none" stroke="#63b8ff" d="M164.16,-106.75C156.12,-106.75 148,-106.75 140.09,-106.75"/>
<polygon fill="#63b8ff" stroke="#63b8ff" points="163.94,-110.25 173.94,-106.75 163.94,-103.25 163.94,-110.25"/>
</a>
</g>
</g>
<!-- Node9&#45;&gt;Node9 -->
<g id="edge16_Node000009_Node000009" class="edge">
<title>Node9&#45;&gt;Node9</title>
<g id="a_edge16_Node000009_Node000009"><a xlink:title=" ">
<path fill="none" stroke="#63b8ff" d="M1240.07,-64.89C1235.39,-68.85 1225.83,-71.5 1211.38,-71.5 1185.68,-71.5 1175.44,-63.12 1180.66,-53.91"/>
<polygon fill="#63b8ff" stroke="#63b8ff" points="1243.44,-65.87 1241.82,-55.4 1236.56,-64.6 1243.44,-65.87"/>
</a>
</g>
</g>
<!-- Node10 -->
<g id="Node000010" class="node">
<title>Node10</title>
<g id="a_Node000010"><a xlink:href="classvalidation__api_1_1ConfigWatcher.html#a78820bcf2ebf9135785e207aae042e72" target="_top" xlink:title=" ">
<polygon fill="white" stroke="#666666" points="1105.5,-53.5 944,-53.5 944,-20 1105.5,-20 1105.5,-53.5"/>
<text text-anchor="start" x="952" y="-40" font-family="Helvetica,sans-Serif" font-size="10.00">validation_api::ConfigWatcher</text>
<text text-anchor="middle" x="1024.75" y="-27.25" font-family="Helvetica,sans-Serif" font-size="10.00">::read_file</text>
</a>
</g>
</g>
<!-- Node9&#45;&gt;Node10 -->
<g id="edge11_Node000009_Node000010" class="edge">
<title>Node9&#45;&gt;Node10</title>
<g id="a_edge11_Node000009_Node000010"><a xlink:title=" ">
<path fill="none" stroke="#63b8ff" d="M1134.29,-36.75C1124.96,-36.75 1115.39,-36.75 1105.99,-36.75"/>
<polygon fill="#63b8ff" stroke="#63b8ff" points="1134.03,-40.25 1144.03,-36.75 1134.03,-33.25 1134.03,-40.25"/>
</a>
</g>
</g>
<!-- Node11 -->
<g id="Node000011" class="node">
<title>Node11</title>
<g id="a_Node000011"><a xlink:href="classvalidation__api_1_1ConfigWatcher.html#a13e118f62a6b13b780f44e12d5afed78" target="_top" xlink:title="Start ConfigWatcher.">
<polygon fill="white" stroke="#666666" points="908,-72.12 724.75,-72.12 724.75,-51.38 908,-51.38 908,-72.12"/>
<text text-anchor="middle" x="816.38" y="-58.62" font-family="Helvetica,sans-Serif" font-size="10.00">validation_api::ConfigWatcher::run</text>
</a>
</g>
</g>
<!-- Node10&#45;&gt;Node11 -->
<g id="edge12_Node000010_Node000011" class="edge">
<title>Node10&#45;&gt;Node11</title>
<g id="a_edge12_Node000010_Node000011"><a xlink:title=" ">
<path fill="none" stroke="#63b8ff" d="M932.3,-47.83C923.9,-48.85 915.39,-49.88 907.01,-50.89"/>
<polygon fill="#63b8ff" stroke="#63b8ff" points="932.66,-51.31 942.16,-46.63 931.81,-44.36 932.66,-51.31"/>
</a>
</g>
</g>
<!-- Node13 -->
<g id="Node000013" class="node">
<title>Node13</title>
<g id="a_Node000013"><a xlink:href="classvalidation__api_1_1ConfigWatcher.html#a6f8a66478001a8a0515344aac1fd0395" target="_top" xlink:title="Setup the ConfigWatcher.">
<polygon fill="white" stroke="#666666" points="897.12,-33.5 735.62,-33.5 735.62,0 897.12,0 897.12,-33.5"/>
<text text-anchor="start" x="743.62" y="-20" font-family="Helvetica,sans-Serif" font-size="10.00">validation_api::ConfigWatcher</text>
<text text-anchor="middle" x="816.38" y="-7.25" font-family="Helvetica,sans-Serif" font-size="10.00">::setup</text>
</a>
</g>
</g>
<!-- Node10&#45;&gt;Node13 -->
<g id="edge14_Node000010_Node000013" class="edge">
<title>Node10&#45;&gt;Node13</title>
<g id="a_edge14_Node000010_Node000013"><a xlink:title=" ">
<path fill="none" stroke="#63b8ff" d="M932.53,-27.91C920.83,-26.78 908.92,-25.62 897.42,-24.51"/>
<polygon fill="#63b8ff" stroke="#63b8ff" points="931.87,-31.36 942.16,-28.84 932.54,-24.39 931.87,-31.36"/>
</a>
</g>
</g>
<!-- Node12 -->
<g id="Node000012" class="node">
<title>Node12</title>
<g id="a_Node000012"><a xlink:href="classvalidation__api_1_1ConfigWatcher.html#ae52bfdab8da3ff71ba788f1929a9a053" target="_top" xlink:title=" ">
<polygon fill="white" stroke="#666666" points="688.75,-52.5 527.25,-52.5 527.25,-19 688.75,-19 688.75,-52.5"/>
<text text-anchor="start" x="535.25" y="-39" font-family="Helvetica,sans-Serif" font-size="10.00">validation_api::ConfigWatcher</text>
<text text-anchor="middle" x="608" y="-26.25" font-family="Helvetica,sans-Serif" font-size="10.00">::ConfigWatcher</text>
</a>
</g>
</g>
<!-- Node11&#45;&gt;Node12 -->
<g id="edge13_Node000011_Node000012" class="edge">
<title>Node11&#45;&gt;Node12</title>
<g id="a_edge13_Node000011_Node000012"><a xlink:title=" ">
<path fill="none" stroke="#63b8ff" d="M717.98,-49.48C708.26,-48.25 698.46,-47.02 688.95,-45.82"/>
<polygon fill="#63b8ff" stroke="#63b8ff" points="717.49,-52.95 727.85,-50.72 718.36,-46 717.49,-52.95"/>
</a>
</g>
</g>
<!-- Node13&#45;&gt;Node12 -->
<g id="edge15_Node000013_Node000012" class="edge">
<title>Node13&#45;&gt;Node12</title>
<g id="a_edge15_Node000013_Node000012"><a xlink:title=" ">
<path fill="none" stroke="#63b8ff" d="M724.15,-25.15C712.45,-26.23 700.54,-27.32 689.04,-28.38"/>
<polygon fill="#63b8ff" stroke="#63b8ff" points="724.15,-28.66 733.78,-24.26 723.5,-21.69 724.15,-28.66"/>
</a>
</g>
</g>
</g>
</svg>
