<?xml version="1.0" encoding="UTF-8" standalone="no"?>
<!DOCTYPE svg PUBLIC "-//W3C//DTD SVG 1.1//EN"
 "http://www.w3.org/Graphics/SVG/1.1/DTD/svg11.dtd">
<!-- Generated by graphviz version 10.0.1 (0)
 -->
<!-- Title: validation_api::validateXmlConfig Pages: 1 -->
<svg width="324pt" height="209pt"
 viewBox="0.00 0.00 323.50 209.12" xmlns="http://www.w3.org/2000/svg" xmlns:xlink="http://www.w3.org/1999/xlink">
<g id="graph0" class="graph" transform="scale(1 1) rotate(0) translate(4 205.12)">
<title>validation_api::validateXmlConfig</title>
<!-- Node1 -->
<g id="Node000001" class="node">
<title>Node1</title>
<g id="a_Node000001"><a xlink:title="Ensures valid Xml configuration.">
<polygon fill="#999999" stroke="#666666" points="130.75,-117.12 0,-117.12 0,-83.62 130.75,-83.62 130.75,-117.12"/>
<text text-anchor="start" x="8" y="-103.62" font-family="Helvetica,sans-Serif" font-size="10.00">validation_api::validate</text>
<text text-anchor="middle" x="65.38" y="-90.88" font-family="Helvetica,sans-Serif" font-size="10.00">XmlConfig</text>
</a>
</g>
</g>
<!-- Node1&#45;&gt;Node1 -->
<g id="edge6_Node000001_Node000001" class="edge">
<title>Node1&#45;&gt;Node1</title>
<g id="a_edge6_Node000001_Node000001"><a xlink:title=" ">
<path fill="none" stroke="#63b8ff" d="M33.78,-117.54C28.41,-126.74 38.94,-135.12 65.38,-135.12 80.24,-135.12 90.08,-132.47 94.89,-128.51"/>
<polygon fill="#63b8ff" stroke="#63b8ff" points="98.26,-129.5 96.69,-119.03 91.38,-128.2 98.26,-129.5"/>
</a>
</g>
</g>
<!-- Node2 -->
<g id="Node000002" class="node">
<title>Node2</title>
<g id="a_Node000002"><a xlink:href="classvalidation__api_1_1ErrorBuilder.html#a84327bbfe6c61e7be6966acc41ba6087" target="_top" xlink:title=" ">
<polygon fill="white" stroke="#666666" points="315.5,-201.12 166.75,-201.12 166.75,-167.62 315.5,-167.62 315.5,-201.12"/>
<text text-anchor="start" x="174.75" y="-187.62" font-family="Helvetica,sans-Serif" font-size="10.00">validation_api::ErrorBuilder</text>
<text text-anchor="middle" x="241.12" y="-174.88" font-family="Helvetica,sans-Serif" font-size="10.00">::build</text>
</a>
</g>
</g>
<!-- Node1&#45;&gt;Node2 -->
<g id="edge1_Node000001_Node000002" class="edge">
<title>Node1&#45;&gt;Node2</title>
<g id="a_edge1_Node000001_Node000002"><a xlink:title=" ">
<path fill="none" stroke="#63b8ff" d="M92.92,-117.51C112.75,-129.87 140.8,-146.4 166.75,-158.38 170.23,-159.98 173.84,-161.55 177.51,-163.07"/>
<polygon fill="#63b8ff" stroke="#63b8ff" points="175.95,-166.22 186.53,-166.66 178.53,-159.71 175.95,-166.22"/>
</a>
</g>
</g>
<!-- Node3 -->
<g id="Node000003" class="node">
<title>Node3</title>
<g id="a_Node000003"><a xlink:href="namespacevalidation__api.html#ac497c1198e4e7f0fe71ffbdb3e6beeaa" target="_top" xlink:title="Convert string to float.">
<polygon fill="white" stroke="#666666" points="303.12,-149.75 179.12,-149.75 179.12,-129 303.12,-129 303.12,-149.75"/>
<text text-anchor="middle" x="241.12" y="-136.25" font-family="Helvetica,sans-Serif" font-size="10.00">validation_api::isFloat</text>
</a>
</g>
</g>
<!-- Node1&#45;&gt;Node3 -->
<g id="edge2_Node000001_Node000003" class="edge">
<title>Node1&#45;&gt;Node3</title>
<g id="a_edge2_Node000001_Node000003"><a xlink:title=" ">
<path fill="none" stroke="#63b8ff" d="M131.07,-114.9C147.46,-118.57 164.97,-122.51 181.06,-126.12"/>
<polygon fill="#63b8ff" stroke="#63b8ff" points="179.94,-129.45 190.46,-128.23 181.47,-122.62 179.94,-129.45"/>
</a>
</g>
</g>
<!-- Node4 -->
<g id="Node000004" class="node">
<title>Node4</title>
<g id="a_Node000004"><a xlink:href="namespacevalidation__api.html#ac19e25b4d8364b0f52152440dd5ecbda" target="_top" xlink:title=" ">
<polygon fill="white" stroke="#666666" points="314,-110.75 168.25,-110.75 168.25,-90 314,-90 314,-110.75"/>
<text text-anchor="middle" x="241.12" y="-97.25" font-family="Helvetica,sans-Serif" font-size="10.00">validation_api::isValidUuid</text>
</a>
</g>
</g>
<!-- Node1&#45;&gt;Node4 -->
<g id="edge3_Node000001_Node000004" class="edge">
<title>Node1&#45;&gt;Node4</title>
<g id="a_edge3_Node000001_Node000004"><a xlink:title=" ">
<path fill="none" stroke="#63b8ff" d="M131.07,-100.38C139.3,-100.38 147.81,-100.38 156.28,-100.38"/>
<polygon fill="#63b8ff" stroke="#63b8ff" points="156.26,-103.88 166.26,-100.38 156.26,-96.88 156.26,-103.88"/>
</a>
</g>
</g>
<!-- Node5 -->
<g id="Node000005" class="node">
<title>Node5</title>
<g id="a_Node000005"><a xlink:href="classvalidation__api_1_1ErrorBuilder.html#a014e70c2f2b4a2ee879c363b4a2174f2" target="_top" xlink:title=" ">
<polygon fill="white" stroke="#666666" points="315.5,-72.12 166.75,-72.12 166.75,-38.62 315.5,-38.62 315.5,-72.12"/>
<text text-anchor="start" x="174.75" y="-58.62" font-family="Helvetica,sans-Serif" font-size="10.00">validation_api::ErrorBuilder</text>
<text text-anchor="middle" x="241.12" y="-45.88" font-family="Helvetica,sans-Serif" font-size="10.00">::setSecondMsg</text>
</a>
</g>
</g>
<!-- Node1&#45;&gt;Node5 -->
<g id="edge4_Node000001_Node000005" class="edge">
<title>Node1&#45;&gt;Node5</title>
<g id="a_edge4_Node000001_Node000005"><a xlink:title=" ">
<path fill="none" stroke="#63b8ff" d="M131.07,-83.62C141.38,-80.95 152.14,-78.16 162.71,-75.42"/>
<polygon fill="#63b8ff" stroke="#63b8ff" points="163.36,-78.87 172.17,-72.98 161.61,-72.09 163.36,-78.87"/>
</a>
</g>
</g>
<!-- Node6 -->
<g id="Node000006" class="node">
<title>Node6</title>
<g id="a_Node000006"><a xlink:href="namespacevalidation__api.html#a6dd56dcf7358b332bb906a2d27fddd0b" target="_top" xlink:title="Converts string to all lowercase.">
<polygon fill="white" stroke="#666666" points="306.12,-20.75 176.12,-20.75 176.12,0 306.12,0 306.12,-20.75"/>
<text text-anchor="middle" x="241.12" y="-7.25" font-family="Helvetica,sans-Serif" font-size="10.00">validation_api::toLower</text>
</a>
</g>
</g>
<!-- Node1&#45;&gt;Node6 -->
<g id="edge5_Node000001_Node000006" class="edge">
<title>Node1&#45;&gt;Node6</title>
<g id="a_edge5_Node000001_Node000006"><a xlink:title=" ">
<path fill="none" stroke="#63b8ff" d="M85.79,-83.37C105.09,-67.29 136.16,-43.57 166.75,-29.38 170.26,-27.75 173.93,-26.24 177.68,-24.85"/>
<polygon fill="#63b8ff" stroke="#63b8ff" points="178.59,-28.24 186.94,-21.73 176.35,-21.61 178.59,-28.24"/>
</a>
</g>
</g>
</g>
</svg>
