<?xml version="1.0" encoding="UTF-8" standalone="no"?>
<!DOCTYPE svg PUBLIC "-//W3C//DTD SVG 1.1//EN"
 "http://www.w3.org/Graphics/SVG/1.1/DTD/svg11.dtd">
<!-- Generated by graphviz version 12.2.1 (0)
 -->
<!-- Title: validation_api::validateXmlConfig Pages: 1 -->
<svg width="296pt" height="142pt"
 viewBox="0.00 0.00 295.75 142.00" xmlns="http://www.w3.org/2000/svg" xmlns:xlink="http://www.w3.org/1999/xlink">
<g id="graph0" class="graph" transform="scale(1 1) rotate(0) translate(4 138)">
<title>validation_api::validateXmlConfig</title>
<!-- Node1 -->
<g id="Node000001" class="node">
<title>Node1</title>
<g id="a_Node000001"><a xlink:title="Ensures valid Xml configuration.">
<polygon fill="#999999" stroke="#666666" points="115,-83 0,-83 0,-51 115,-51 115,-83"/>
<text text-anchor="start" x="8" y="-69.5" font-family="Helvetica,sans-Serif" font-size="10.00">validation_api::validate</text>
<text text-anchor="middle" x="57.5" y="-57.5" font-family="Helvetica,sans-Serif" font-size="10.00">XmlConfig</text>
</a>
</g>
</g>
<!-- Node1&#45;&gt;Node1 -->
<g id="edge5_Node000001_Node000001" class="edge">
<title>Node1&#45;&gt;Node1</title>
<g id="a_edge5_Node000001_Node000001"><a xlink:title=" ">
<path fill="none" stroke="#63b8ff" d="M28.6,-83.44C23.21,-92.58 32.84,-101 57.5,-101 70.99,-101 79.98,-98.48 84.48,-94.71"/>
<polygon fill="#63b8ff" stroke="#63b8ff" points="87.91,-95.38 86.14,-84.93 81.01,-94.2 87.91,-95.38"/>
</a>
</g>
</g>
<!-- Node2 -->
<g id="Node000002" class="node">
<title>Node2</title>
<g id="a_Node000002"><a xlink:href="namespacevalidation__api.html#a0c0f34d744f57bb06458867fbee4b7a9" target="_top" xlink:title="Insert an error into a json object.">
<polygon fill="white" stroke="#666666" points="287.75,-134 151,-134 151,-114 287.75,-114 287.75,-134"/>
<text text-anchor="middle" x="219.38" y="-120.5" font-family="Helvetica,sans-Serif" font-size="10.00">validation_api::insertToJson</text>
</a>
</g>
</g>
<!-- Node1&#45;&gt;Node2 -->
<g id="edge1_Node000001_Node000002" class="edge">
<title>Node1&#45;&gt;Node2</title>
<g id="a_edge1_Node000001_Node000002"><a xlink:title=" ">
<path fill="none" stroke="#63b8ff" d="M95.48,-83.33C112.26,-90.45 132.46,-98.6 151,-105 156.39,-106.86 162.07,-108.68 167.75,-110.4"/>
<polygon fill="#63b8ff" stroke="#63b8ff" points="166.56,-113.7 177.14,-113.17 168.54,-106.99 166.56,-113.7"/>
</a>
</g>
</g>
<!-- Node3 -->
<g id="Node000003" class="node">
<title>Node3</title>
<g id="a_Node000003"><a xlink:href="namespacevalidation__api.html#ac497c1198e4e7f0fe71ffbdb3e6beeaa" target="_top" xlink:title="Convert string to float.">
<polygon fill="white" stroke="#666666" points="274.62,-96 164.12,-96 164.12,-76 274.62,-76 274.62,-96"/>
<text text-anchor="middle" x="219.38" y="-82.5" font-family="Helvetica,sans-Serif" font-size="10.00">validation_api::isFloat</text>
</a>
</g>
</g>
<!-- Node1&#45;&gt;Node3 -->
<g id="edge2_Node000001_Node000003" class="edge">
<title>Node1&#45;&gt;Node3</title>
<g id="a_edge2_Node000001_Node000003"><a xlink:title=" ">
<path fill="none" stroke="#63b8ff" d="M115.32,-73.75C127.41,-75.19 140.28,-76.72 152.67,-78.19"/>
<polygon fill="#63b8ff" stroke="#63b8ff" points="152.04,-81.64 162.38,-79.35 152.87,-74.69 152.04,-81.64"/>
</a>
</g>
</g>
<!-- Node4 -->
<g id="Node000004" class="node">
<title>Node4</title>
<g id="a_Node000004"><a xlink:href="namespacevalidation__api.html#ac19e25b4d8364b0f52152440dd5ecbda" target="_top" xlink:title=" ">
<polygon fill="white" stroke="#666666" points="284.38,-58 154.38,-58 154.38,-38 284.38,-38 284.38,-58"/>
<text text-anchor="middle" x="219.38" y="-44.5" font-family="Helvetica,sans-Serif" font-size="10.00">validation_api::isValidUuid</text>
</a>
</g>
</g>
<!-- Node1&#45;&gt;Node4 -->
<g id="edge3_Node000001_Node000004" class="edge">
<title>Node1&#45;&gt;Node4</title>
<g id="a_edge3_Node000001_Node000004"><a xlink:title=" ">
<path fill="none" stroke="#63b8ff" d="M115.32,-60.25C124.25,-59.19 133.6,-58.07 142.88,-56.97"/>
<polygon fill="#63b8ff" stroke="#63b8ff" points="143.1,-60.47 152.61,-55.82 142.27,-53.52 143.1,-60.47"/>
</a>
</g>
</g>
<!-- Node5 -->
<g id="Node000005" class="node">
<title>Node5</title>
<g id="a_Node000005"><a xlink:href="namespacevalidation__api.html#a6dd56dcf7358b332bb906a2d27fddd0b" target="_top" xlink:title="Converts string to all lowercase.">
<polygon fill="white" stroke="#666666" points="277.25,-20 161.5,-20 161.5,0 277.25,0 277.25,-20"/>
<text text-anchor="middle" x="219.38" y="-6.5" font-family="Helvetica,sans-Serif" font-size="10.00">validation_api::toLower</text>
</a>
</g>
</g>
<!-- Node1&#45;&gt;Node5 -->
<g id="edge4_Node000001_Node000005" class="edge">
<title>Node1&#45;&gt;Node5</title>
<g id="a_edge4_Node000001_Node000005"><a xlink:title=" ">
<path fill="none" stroke="#63b8ff" d="M95.48,-50.67C112.26,-43.55 132.46,-35.4 151,-29 156.39,-27.14 162.07,-25.32 167.75,-23.6"/>
<polygon fill="#63b8ff" stroke="#63b8ff" points="168.54,-27.01 177.14,-20.83 166.56,-20.3 168.54,-27.01"/>
</a>
</g>
</g>
</g>
</svg>
