<?xml version="1.0" encoding="UTF-8" standalone="no"?>
<!DOCTYPE svg PUBLIC "-//W3C//DTD SVG 1.1//EN"
 "http://www.w3.org/Graphics/SVG/1.1/DTD/svg11.dtd">
<!-- Generated by graphviz version 10.0.1 (0)
 -->
<!-- Title: validation_api::validateXmlConfig Pages: 1 -->
<svg width="324pt" height="146pt"
 viewBox="0.00 0.00 324.25 145.75" xmlns="http://www.w3.org/2000/svg" xmlns:xlink="http://www.w3.org/1999/xlink">
<g id="graph0" class="graph" transform="scale(1 1) rotate(0) translate(4 141.75)">
<title>validation_api::validateXmlConfig</title>
<!-- Node1 -->
<g id="Node000001" class="node">
<title>Node1</title>
<g id="a_Node000001"><a xlink:title="Ensures valid Xml configuration.">
<polygon fill="#999999" stroke="#666666" points="130.75,-85.12 0,-85.12 0,-51.62 130.75,-51.62 130.75,-85.12"/>
<text text-anchor="start" x="8" y="-71.62" font-family="Helvetica,sans-Serif" font-size="10.00">validation_api::validate</text>
<text text-anchor="middle" x="65.38" y="-58.88" font-family="Helvetica,sans-Serif" font-size="10.00">XmlConfig</text>
</a>
</g>
</g>
<!-- Node1&#45;&gt;Node1 -->
<g id="edge5_Node000001_Node000001" class="edge">
<title>Node1&#45;&gt;Node1</title>
<g id="a_edge5_Node000001_Node000001"><a xlink:title=" ">
<path fill="none" stroke="#63b8ff" d="M33.71,-85.54C28.33,-94.74 38.89,-103.12 65.38,-103.12 80.27,-103.12 90.13,-100.47 94.95,-96.51"/>
<polygon fill="#63b8ff" stroke="#63b8ff" points="98.32,-97.5 96.75,-87.03 91.45,-96.2 98.32,-97.5"/>
</a>
</g>
</g>
<!-- Node2 -->
<g id="Node000002" class="node">
<title>Node2</title>
<g id="a_Node000002"><a xlink:href="namespacevalidation__api.html#a0c0f34d744f57bb06458867fbee4b7a9" target="_top" xlink:title="Insert an error into a json object.">
<polygon fill="white" stroke="#666666" points="316.25,-137.75 166.75,-137.75 166.75,-117 316.25,-117 316.25,-137.75"/>
<text text-anchor="middle" x="241.5" y="-124.25" font-family="Helvetica,sans-Serif" font-size="10.00">validation_api::insertToJson</text>
</a>
</g>
</g>
<!-- Node1&#45;&gt;Node2 -->
<g id="edge1_Node000001_Node000002" class="edge">
<title>Node1&#45;&gt;Node2</title>
<g id="a_edge1_Node000001_Node000002"><a xlink:title=" ">
<path fill="none" stroke="#63b8ff" d="M107.53,-85.5C125.55,-92.7 147.04,-100.89 166.75,-107.38 173.05,-109.45 179.7,-111.47 186.32,-113.39"/>
<polygon fill="#63b8ff" stroke="#63b8ff" points="185.34,-116.75 195.92,-116.09 187.24,-110.01 185.34,-116.75"/>
</a>
</g>
</g>
<!-- Node3 -->
<g id="Node000003" class="node">
<title>Node3</title>
<g id="a_Node000003"><a xlink:href="namespacevalidation__api.html#ac497c1198e4e7f0fe71ffbdb3e6beeaa" target="_top" xlink:title="Convert string to float.">
<polygon fill="white" stroke="#666666" points="303.5,-98.75 179.5,-98.75 179.5,-78 303.5,-78 303.5,-98.75"/>
<text text-anchor="middle" x="241.5" y="-85.25" font-family="Helvetica,sans-Serif" font-size="10.00">validation_api::isFloat</text>
</a>
</g>
</g>
<!-- Node1&#45;&gt;Node3 -->
<g id="edge2_Node000001_Node000003" class="edge">
<title>Node1&#45;&gt;Node3</title>
<g id="a_edge2_Node000001_Node000003"><a xlink:title=" ">
<path fill="none" stroke="#63b8ff" d="M131.21,-75.82C143.21,-77.2 155.8,-78.65 168,-80.05"/>
<polygon fill="#63b8ff" stroke="#63b8ff" points="167.23,-83.48 177.57,-81.15 168.03,-76.53 167.23,-83.48"/>
</a>
</g>
</g>
<!-- Node4 -->
<g id="Node000004" class="node">
<title>Node4</title>
<g id="a_Node000004"><a xlink:href="namespacevalidation__api.html#ac19e25b4d8364b0f52152440dd5ecbda" target="_top" xlink:title=" ">
<polygon fill="white" stroke="#666666" points="314.38,-59.75 168.62,-59.75 168.62,-39 314.38,-39 314.38,-59.75"/>
<text text-anchor="middle" x="241.5" y="-46.25" font-family="Helvetica,sans-Serif" font-size="10.00">validation_api::isValidUuid</text>
</a>
</g>
</g>
<!-- Node1&#45;&gt;Node4 -->
<g id="edge3_Node000001_Node000004" class="edge">
<title>Node1&#45;&gt;Node4</title>
<g id="a_edge3_Node000001_Node000004"><a xlink:title=" ">
<path fill="none" stroke="#63b8ff" d="M131.21,-61.3C139.62,-60.38 148.32,-59.43 156.97,-58.49"/>
<polygon fill="#63b8ff" stroke="#63b8ff" points="157.22,-61.98 166.79,-57.42 156.46,-55.02 157.22,-61.98"/>
</a>
</g>
</g>
<!-- Node5 -->
<g id="Node000005" class="node">
<title>Node5</title>
<g id="a_Node000005"><a xlink:href="namespacevalidation__api.html#a6dd56dcf7358b332bb906a2d27fddd0b" target="_top" xlink:title="Converts string to all lowercase.">
<polygon fill="white" stroke="#666666" points="306.5,-20.75 176.5,-20.75 176.5,0 306.5,0 306.5,-20.75"/>
<text text-anchor="middle" x="241.5" y="-7.25" font-family="Helvetica,sans-Serif" font-size="10.00">validation_api::toLower</text>
</a>
</g>
</g>
<!-- Node1&#45;&gt;Node5 -->
<g id="edge4_Node000001_Node000005" class="edge">
<title>Node1&#45;&gt;Node5</title>
<g id="a_edge4_Node000001_Node000005"><a xlink:title=" ">
<path fill="none" stroke="#63b8ff" d="M109.03,-51.18C126.75,-44.31 147.61,-36.58 166.75,-30.38 173.29,-28.25 180.21,-26.17 187.08,-24.2"/>
<polygon fill="#63b8ff" stroke="#63b8ff" points="187.64,-27.68 196.33,-21.61 185.75,-20.94 187.64,-27.68"/>
</a>
</g>
</g>
</g>
</svg>
