<?xml version="1.0" encoding="UTF-8" standalone="no"?>
<!DOCTYPE svg PUBLIC "-//W3C//DTD SVG 1.1//EN"
 "http://www.w3.org/Graphics/SVG/1.1/DTD/svg11.dtd">
<!-- Generated by graphviz version 10.0.1 (0)
 -->
<!-- Title: validation_api::errorBuilder Pages: 1 -->
<svg width="1603pt" height="149pt"
 viewBox="0.00 0.00 1602.50 148.50" xmlns="http://www.w3.org/2000/svg" xmlns:xlink="http://www.w3.org/1999/xlink">
<g id="graph0" class="graph" transform="scale(1 1) rotate(0) translate(4 144.5)">
<title>validation_api::errorBuilder</title>
<!-- Node1 -->
<g id="Node000001" class="node">
<title>Node1</title>
<g id="a_Node000001"><a xlink:title="Error builder.">
<polygon fill="#999999" stroke="#666666" points="1594.5,-91.12 1445.75,-91.12 1445.75,-70.38 1594.5,-70.38 1594.5,-91.12"/>
<text text-anchor="middle" x="1520.12" y="-77.62" font-family="Helvetica,sans-Serif" font-size="10.00">validation_api::errorBuilder</text>
</a>
</g>
</g>
<!-- Node2 -->
<g id="Node000002" class="node">
<title>Node2</title>
<g id="a_Node000002"><a xlink:href="classvalidation__api_1_1Validation.html#ac6c337d3af39943a8e603a5f21f5922a" target="_top" xlink:title=" ">
<polygon fill="white" stroke="#666666" points="882.5,-116.12 721,-116.12 721,-95.38 882.5,-95.38 882.5,-116.12"/>
<text text-anchor="middle" x="801.75" y="-102.62" font-family="Helvetica,sans-Serif" font-size="10.00">validation_api::Validation::run</text>
</a>
</g>
</g>
<!-- Node1&#45;&gt;Node2 -->
<g id="edge1_Node000001_Node000002" class="edge">
<title>Node1&#45;&gt;Node2</title>
<g id="a_edge1_Node000001_Node000002"><a xlink:title=" ">
<path fill="none" stroke="#63b8ff" d="M1439.69,-93.16C1429.63,-94.5 1419.46,-95.74 1409.75,-96.75 1192.38,-119.41 1136.71,-130.97 918.5,-118.75 906.99,-118.11 894.87,-117.1 882.98,-115.94"/>
<polygon fill="#63b8ff" stroke="#63b8ff" points="1440.04,-96.64 1449.47,-91.81 1439.09,-89.71 1440.04,-96.64"/>
</a>
</g>
</g>
<!-- Node7 -->
<g id="Node000007" class="node">
<title>Node7</title>
<g id="a_Node000007"><a xlink:href="classvalidation__api_1_1Validation.html#a3c8146fc89af5b8cef0c1bb6c9d473f2" target="_top" xlink:title="Traverse through the json object and validate the fields.">
<polygon fill="white" stroke="#666666" points="1058.25,-91.5 918.5,-91.5 918.5,-58 1058.25,-58 1058.25,-91.5"/>
<text text-anchor="start" x="926.5" y="-78" font-family="Helvetica,sans-Serif" font-size="10.00">validation_api::Validation</text>
<text text-anchor="middle" x="988.38" y="-65.25" font-family="Helvetica,sans-Serif" font-size="10.00">::traverseAndValidate</text>
</a>
</g>
</g>
<!-- Node1&#45;&gt;Node7 -->
<g id="edge7_Node000001_Node000007" class="edge">
<title>Node1&#45;&gt;Node7</title>
<g id="a_edge7_Node000001_Node000007"><a xlink:title=" ">
<path fill="none" stroke="#63b8ff" d="M1433.92,-82.18C1348.12,-83.28 1211.97,-84.11 1094.25,-80.75 1082.77,-80.42 1070.58,-79.89 1058.74,-79.28"/>
<polygon fill="#63b8ff" stroke="#63b8ff" points="1433.96,-85.68 1443.91,-82.05 1433.86,-78.68 1433.96,-85.68"/>
</a>
</g>
</g>
<!-- Node8 -->
<g id="Node000008" class="node">
<title>Node8</title>
<g id="a_Node000008"><a xlink:href="classvalidation__api_1_1Validation.html#a1cc0802269d88c233ad3c3d1d6c3dd12" target="_top" xlink:title=" ">
<polygon fill="white" stroke="#666666" points="1234,-71.5 1094.25,-71.5 1094.25,-38 1234,-38 1234,-71.5"/>
<text text-anchor="start" x="1102.25" y="-58" font-family="Helvetica,sans-Serif" font-size="10.00">validation_api::Validation</text>
<text text-anchor="middle" x="1164.12" y="-45.25" font-family="Helvetica,sans-Serif" font-size="10.00">::validate</text>
</a>
</g>
</g>
<!-- Node1&#45;&gt;Node8 -->
<g id="edge10_Node000001_Node000008" class="edge">
<title>Node1&#45;&gt;Node8</title>
<g id="a_edge10_Node000001_Node000008"><a xlink:title=" ">
<path fill="none" stroke="#63b8ff" d="M1434.17,-74.51C1373,-70.02 1291.51,-64.03 1234.3,-59.83"/>
<polygon fill="#63b8ff" stroke="#63b8ff" points="1433.61,-77.98 1443.84,-75.22 1434.12,-71 1433.61,-77.98"/>
</a>
</g>
</g>
<!-- Node9 -->
<g id="Node000009" class="node">
<title>Node9</title>
<g id="a_Node000009"><a xlink:href="classvalidation__api_1_1Validation.html#a512e2e0c3be1bea95ebfab280ec919ba" target="_top" xlink:title="Validates len options.">
<polygon fill="white" stroke="#666666" points="1409.75,-33.5 1270,-33.5 1270,0 1409.75,0 1409.75,-33.5"/>
<text text-anchor="start" x="1278" y="-20" font-family="Helvetica,sans-Serif" font-size="10.00">validation_api::Validation</text>
<text text-anchor="middle" x="1339.88" y="-7.25" font-family="Helvetica,sans-Serif" font-size="10.00">::validateConstraints</text>
</a>
</g>
</g>
<!-- Node1&#45;&gt;Node9 -->
<g id="edge12_Node000001_Node000009" class="edge">
<title>Node1&#45;&gt;Node9</title>
<g id="a_edge12_Node000001_Node000009"><a xlink:title=" ">
<path fill="none" stroke="#63b8ff" d="M1478.38,-66.12C1451.71,-56.54 1416.75,-43.99 1388.75,-33.94"/>
<polygon fill="#63b8ff" stroke="#63b8ff" points="1476.87,-69.3 1487.46,-69.38 1479.23,-62.71 1476.87,-69.3"/>
</a>
</g>
</g>
<!-- Node3 -->
<g id="Node000003" class="node">
<title>Node3</title>
<g id="a_Node000003"><a xlink:href="classvalidation__api_1_1ConfigService.html#a654e84f4f588f7391f93210c1e08344f" target="_top" xlink:title="getConfigs method">
<polygon fill="white" stroke="#666666" points="685,-122.5 527.25,-122.5 527.25,-89 685,-89 685,-122.5"/>
<text text-anchor="start" x="535.25" y="-109" font-family="Helvetica,sans-Serif" font-size="10.00">validation_api::ConfigService</text>
<text text-anchor="middle" x="606.12" y="-96.25" font-family="Helvetica,sans-Serif" font-size="10.00">::validateConfig</text>
</a>
</g>
</g>
<!-- Node2&#45;&gt;Node3 -->
<g id="edge2_Node000002_Node000003" class="edge">
<title>Node2&#45;&gt;Node3</title>
<g id="a_edge2_Node000002_Node000003"><a xlink:title=" ">
<path fill="none" stroke="#63b8ff" d="M709.32,-105.75C701.31,-105.75 693.24,-105.75 685.35,-105.75"/>
<polygon fill="#63b8ff" stroke="#63b8ff" points="709.08,-109.25 719.08,-105.75 709.08,-102.25 709.08,-109.25"/>
</a>
</g>
</g>
<!-- Node4 -->
<g id="Node000004" class="node">
<title>Node4</title>
<g id="a_Node000004"><a xlink:href="classvalidation__api_1_1ValidationServer.html#a7f5c5252fa7a28bef0345e6248139215" target="_top" xlink:title="Accept a connection.">
<polygon fill="white" stroke="#666666" points="491.25,-122.5 351.5,-122.5 351.5,-89 491.25,-89 491.25,-122.5"/>
<text text-anchor="start" x="359.5" y="-109" font-family="Helvetica,sans-Serif" font-size="10.00">validation_api::Validation</text>
<text text-anchor="middle" x="421.38" y="-96.25" font-family="Helvetica,sans-Serif" font-size="10.00">Server::accept</text>
</a>
</g>
</g>
<!-- Node3&#45;&gt;Node4 -->
<g id="edge3_Node000003_Node000004" class="edge">
<title>Node3&#45;&gt;Node4</title>
<g id="a_edge3_Node000003_Node000004"><a xlink:title=" ">
<path fill="none" stroke="#63b8ff" d="M515.5,-105.75C507.46,-105.75 499.4,-105.75 491.57,-105.75"/>
<polygon fill="#63b8ff" stroke="#63b8ff" points="515.31,-109.25 525.31,-105.75 515.31,-102.25 515.31,-109.25"/>
</a>
</g>
</g>
<!-- Node5 -->
<g id="Node000005" class="node">
<title>Node5</title>
<g id="a_Node000005"><a xlink:href="classvalidation__api_1_1ValidationServer.html#ad67c7031c85ea1cd6eb84f6b01c424df" target="_top" xlink:title="Start the server.">
<polygon fill="white" stroke="#666666" points="315.5,-122.5 175.75,-122.5 175.75,-89 315.5,-89 315.5,-122.5"/>
<text text-anchor="start" x="183.75" y="-109" font-family="Helvetica,sans-Serif" font-size="10.00">validation_api::Validation</text>
<text text-anchor="middle" x="245.62" y="-96.25" font-family="Helvetica,sans-Serif" font-size="10.00">Server::run</text>
</a>
</g>
</g>
<!-- Node4&#45;&gt;Node5 -->
<g id="edge4_Node000004_Node000005" class="edge">
<title>Node4&#45;&gt;Node5</title>
<g id="a_edge4_Node000004_Node000005"><a xlink:title=" ">
<path fill="none" stroke="#63b8ff" d="M339.91,-105.75C331.87,-105.75 323.75,-105.75 315.84,-105.75"/>
<polygon fill="#63b8ff" stroke="#63b8ff" points="339.69,-109.25 349.69,-105.75 339.69,-102.25 339.69,-109.25"/>
</a>
</g>
</g>
<!-- Node5&#45;&gt;Node5 -->
<g id="edge5_Node000005_Node000005" class="edge">
<title>Node5&#45;&gt;Node5</title>
<g id="a_edge5_Node000005_Node000005"><a xlink:title=" ">
<path fill="none" stroke="#63b8ff" d="M275.14,-133.89C270.33,-137.85 260.49,-140.5 245.62,-140.5 219.19,-140.5 208.66,-132.12 214.03,-122.91"/>
<polygon fill="#63b8ff" stroke="#63b8ff" points="278.51,-134.88 276.94,-124.4 271.63,-133.57 278.51,-134.88"/>
</a>
</g>
</g>
<!-- Node6 -->
<g id="Node000006" class="node">
<title>Node6</title>
<g id="a_Node000006"><a xlink:href="classvalidation__api_1_1ValidationServer.html#a36098376f43a053f42d163d77a893e89" target="_top" xlink:title=" ">
<polygon fill="white" stroke="#666666" points="139.75,-122.5 0,-122.5 0,-89 139.75,-89 139.75,-122.5"/>
<text text-anchor="start" x="8" y="-109" font-family="Helvetica,sans-Serif" font-size="10.00">validation_api::Validation</text>
<text text-anchor="middle" x="69.88" y="-96.25" font-family="Helvetica,sans-Serif" font-size="10.00">Server::ValidationServer</text>
</a>
</g>
</g>
<!-- Node5&#45;&gt;Node6 -->
<g id="edge6_Node000005_Node000006" class="edge">
<title>Node5&#45;&gt;Node6</title>
<g id="a_edge6_Node000005_Node000006"><a xlink:title=" ">
<path fill="none" stroke="#63b8ff" d="M164.16,-105.75C156.12,-105.75 148,-105.75 140.09,-105.75"/>
<polygon fill="#63b8ff" stroke="#63b8ff" points="163.94,-109.25 173.94,-105.75 163.94,-102.25 163.94,-109.25"/>
</a>
</g>
</g>
<!-- Node7&#45;&gt;Node2 -->
<g id="edge8_Node000007_Node000002" class="edge">
<title>Node7&#45;&gt;Node2</title>
<g id="a_edge8_Node000007_Node000002"><a xlink:title=" ">
<path fill="none" stroke="#63b8ff" d="M907.03,-88.24C893.72,-90.48 880.08,-92.77 867.22,-94.92"/>
<polygon fill="#63b8ff" stroke="#63b8ff" points="907.33,-91.74 916.61,-86.63 906.17,-84.84 907.33,-91.74"/>
</a>
</g>
</g>
<!-- Node7&#45;&gt;Node7 -->
<g id="edge9_Node000007_Node000007" class="edge">
<title>Node7&#45;&gt;Node7</title>
<g id="a_edge9_Node000007_Node000007"><a xlink:title=" ">
<path fill="none" stroke="#63b8ff" d="M1017.89,-102.89C1013.08,-106.85 1003.24,-109.5 988.38,-109.5 961.94,-109.5 951.41,-101.12 956.78,-91.91"/>
<polygon fill="#63b8ff" stroke="#63b8ff" points="1021.26,-103.88 1019.69,-93.4 1014.38,-102.57 1021.26,-103.88"/>
</a>
</g>
</g>
<!-- Node8&#45;&gt;Node7 -->
<g id="edge11_Node000008_Node000007" class="edge">
<title>Node8&#45;&gt;Node7</title>
<g id="a_edge11_Node000008_Node000007"><a xlink:title=" ">
<path fill="none" stroke="#63b8ff" d="M1082.66,-64.01C1074.62,-64.94 1066.5,-65.87 1058.59,-66.78"/>
<polygon fill="#63b8ff" stroke="#63b8ff" points="1082.92,-67.51 1092.45,-62.89 1082.12,-60.55 1082.92,-67.51"/>
</a>
</g>
</g>
<!-- Node9&#45;&gt;Node8 -->
<g id="edge13_Node000009_Node000008" class="edge">
<title>Node9&#45;&gt;Node8</title>
<g id="a_edge13_Node000009_Node000008"><a xlink:title=" ">
<path fill="none" stroke="#63b8ff" d="M1258.69,-34.29C1250.56,-36.07 1242.34,-37.86 1234.34,-39.61"/>
<polygon fill="#63b8ff" stroke="#63b8ff" points="1259.21,-37.76 1268.23,-32.2 1257.71,-30.92 1259.21,-37.76"/>
</a>
</g>
</g>
</g>
</svg>
