<?xml version="1.0" encoding="UTF-8" standalone="no"?>
<!DOCTYPE svg PUBLIC "-//W3C//DTD SVG 1.1//EN"
 "http://www.w3.org/Graphics/SVG/1.1/DTD/svg11.dtd">
<!-- Generated by graphviz version 12.2.1 (0)
 -->
<!-- Title: validation_api::isFloat Pages: 1 -->
<svg width="834pt" height="80pt"
 viewBox="0.00 0.00 834.25 80.00" xmlns="http://www.w3.org/2000/svg" xmlns:xlink="http://www.w3.org/1999/xlink">
<g id="graph0" class="graph" transform="scale(1 1) rotate(0) translate(4 76)">
<title>validation_api::isFloat</title>
<!-- Node1 -->
<g id="Node000001" class="node">
<title>Node1</title>
<g id="a_Node000001"><a xlink:title="Convert string to float.">
<polygon fill="#999999" stroke="#666666" points="826.25,-48 715.75,-48 715.75,-28 826.25,-28 826.25,-48"/>
<text text-anchor="middle" x="771" y="-34.5" font-family="Helvetica,sans-Serif" font-size="10.00">validation_api::isFloat</text>
</a>
</g>
</g>
<!-- Node2 -->
<g id="Node000002" class="node">
<title>Node2</title>
<g id="a_Node000002"><a xlink:href="namespacevalidation__api.html#aa82c6b3a43b6e6b59b529c22944cadca" target="_top" xlink:title="Ensures valid Xml configuration.">
<polygon fill="white" stroke="#666666" points="679.75,-54 564.75,-54 564.75,-22 679.75,-22 679.75,-54"/>
<text text-anchor="start" x="572.75" y="-40.5" font-family="Helvetica,sans-Serif" font-size="10.00">validation_api::validate</text>
<text text-anchor="middle" x="622.25" y="-28.5" font-family="Helvetica,sans-Serif" font-size="10.00">XmlConfig</text>
</a>
</g>
</g>
<!-- Node1&#45;&gt;Node2 -->
<g id="edge1_Node000001_Node000002" class="edge">
<title>Node1&#45;&gt;Node2</title>
<g id="a_edge1_Node000001_Node000002"><a xlink:title=" ">
<path fill="none" stroke="#63b8ff" d="M704.07,-38C696.01,-38 687.82,-38 679.9,-38"/>
<polygon fill="#63b8ff" stroke="#63b8ff" points="703.84,-41.5 713.84,-38 703.84,-34.5 703.84,-41.5"/>
</a>
</g>
</g>
<!-- Node2&#45;&gt;Node2 -->
<g id="edge7_Node000002_Node000002" class="edge">
<title>Node2&#45;&gt;Node2</title>
<g id="a_edge7_Node000002_Node000002"><a xlink:title=" ">
<path fill="none" stroke="#63b8ff" d="M647.04,-65.71C642.91,-69.48 634.64,-72 622.25,-72 599.59,-72 590.74,-63.58 595.69,-54.44"/>
<polygon fill="#63b8ff" stroke="#63b8ff" points="650.48,-66.36 648.57,-55.94 643.56,-65.27 650.48,-66.36"/>
</a>
</g>
</g>
<!-- Node3 -->
<g id="Node000003" class="node">
<title>Node3</title>
<g id="a_Node000003"><a xlink:href="classvalidation__api_1_1ConfigWatcher.html#a78820bcf2ebf9135785e207aae042e72" target="_top" xlink:title=" ">
<polygon fill="white" stroke="#666666" points="528.75,-54 383,-54 383,-22 528.75,-22 528.75,-54"/>
<text text-anchor="start" x="391" y="-40.5" font-family="Helvetica,sans-Serif" font-size="10.00">validation_api::ConfigWatcher</text>
<text text-anchor="middle" x="455.88" y="-28.5" font-family="Helvetica,sans-Serif" font-size="10.00">::read_file</text>
</a>
</g>
</g>
<!-- Node2&#45;&gt;Node3 -->
<g id="edge2_Node000002_Node000003" class="edge">
<title>Node2&#45;&gt;Node3</title>
<g id="a_edge2_Node000002_Node000003"><a xlink:title=" ">
<path fill="none" stroke="#63b8ff" d="M553.24,-38C545.31,-38 537.21,-38 529.22,-38"/>
<polygon fill="#63b8ff" stroke="#63b8ff" points="553.17,-41.5 563.17,-38 553.17,-34.5 553.17,-41.5"/>
</a>
</g>
</g>
<!-- Node4 -->
<g id="Node000004" class="node">
<title>Node4</title>
<g id="a_Node000004"><a xlink:href="classvalidation__api_1_1ConfigWatcher.html#a13e118f62a6b13b780f44e12d5afed78" target="_top" xlink:title="Start ConfigWatcher.">
<polygon fill="white" stroke="#666666" points="347,-70 181.75,-70 181.75,-50 347,-50 347,-70"/>
<text text-anchor="middle" x="264.38" y="-56.5" font-family="Helvetica,sans-Serif" font-size="10.00">validation_api::ConfigWatcher::run</text>
</a>
</g>
</g>
<!-- Node3&#45;&gt;Node4 -->
<g id="edge3_Node000003_Node000004" class="edge">
<title>Node3&#45;&gt;Node4</title>
<g id="a_edge3_Node000003_Node000004"><a xlink:title=" ">
<path fill="none" stroke="#63b8ff" d="M371.52,-47.68C363.54,-48.6 355.46,-49.54 347.5,-50.47"/>
<polygon fill="#63b8ff" stroke="#63b8ff" points="371.66,-51.18 381.19,-46.55 370.85,-44.23 371.66,-51.18"/>
</a>
</g>
</g>
<!-- Node6 -->
<g id="Node000006" class="node">
<title>Node6</title>
<g id="a_Node000006"><a xlink:href="classvalidation__api_1_1ConfigWatcher.html#a6f8a66478001a8a0515344aac1fd0395" target="_top" xlink:title="Setup the ConfigWatcher.">
<polygon fill="white" stroke="#666666" points="337.25,-32 191.5,-32 191.5,0 337.25,0 337.25,-32"/>
<text text-anchor="start" x="199.5" y="-18.5" font-family="Helvetica,sans-Serif" font-size="10.00">validation_api::ConfigWatcher</text>
<text text-anchor="middle" x="264.38" y="-6.5" font-family="Helvetica,sans-Serif" font-size="10.00">::setup</text>
</a>
</g>
</g>
<!-- Node3&#45;&gt;Node6 -->
<g id="edge5_Node000003_Node000006" class="edge">
<title>Node3&#45;&gt;Node6</title>
<g id="a_edge5_Node000003_Node000006"><a xlink:title=" ">
<path fill="none" stroke="#63b8ff" d="M371.51,-28.32C360.23,-27.01 348.73,-25.68 337.67,-24.39"/>
<polygon fill="#63b8ff" stroke="#63b8ff" points="370.85,-31.77 381.19,-29.45 371.66,-24.82 370.85,-31.77"/>
</a>
</g>
</g>
<!-- Node5 -->
<g id="Node000005" class="node">
<title>Node5</title>
<g id="a_Node000005"><a xlink:href="classvalidation__api_1_1ConfigWatcher.html#ae52bfdab8da3ff71ba788f1929a9a053" target="_top" xlink:title=" ">
<polygon fill="white" stroke="#666666" points="145.75,-54 0,-54 0,-22 145.75,-22 145.75,-54"/>
<text text-anchor="start" x="8" y="-40.5" font-family="Helvetica,sans-Serif" font-size="10.00">validation_api::ConfigWatcher</text>
<text text-anchor="middle" x="72.88" y="-28.5" font-family="Helvetica,sans-Serif" font-size="10.00">::ConfigWatcher</text>
</a>
</g>
</g>
<!-- Node4&#45;&gt;Node5 -->
<g id="edge4_Node000004_Node000005" class="edge">
<title>Node4&#45;&gt;Node5</title>
<g id="a_edge4_Node000004_Node000005"><a xlink:title=" ">
<path fill="none" stroke="#63b8ff" d="M170.06,-49.17C162.04,-48.24 154.01,-47.3 146.19,-46.4"/>
<polygon fill="#63b8ff" stroke="#63b8ff" points="169.52,-52.63 179.86,-50.3 170.33,-45.67 169.52,-52.63"/>
</a>
</g>
</g>
<!-- Node6&#45;&gt;Node5 -->
<g id="edge6_Node000006_Node000005" class="edge">
<title>Node6&#45;&gt;Node5</title>
<g id="a_edge6_Node000006_Node000005"><a xlink:title=" ">
<path fill="none" stroke="#63b8ff" d="M180.01,-25.68C168.73,-26.99 157.23,-28.32 146.17,-29.61"/>
<polygon fill="#63b8ff" stroke="#63b8ff" points="180.16,-29.18 189.69,-24.55 179.35,-22.23 180.16,-29.18"/>
</a>
</g>
</g>
</g>
</svg>
