<?xml version="1.0" encoding="UTF-8" standalone="no"?>
<!DOCTYPE svg PUBLIC "-//W3C//DTD SVG 1.1//EN"
 "http://www.w3.org/Graphics/SVG/1.1/DTD/svg11.dtd">
<!-- Generated by graphviz version 12.2.1 (0)
 -->
<!-- Title: validation_api::toLower Pages: 1 -->
<svg width="848pt" height="146pt"
 viewBox="0.00 0.00 847.75 146.00" xmlns="http://www.w3.org/2000/svg" xmlns:xlink="http://www.w3.org/1999/xlink">
<g id="graph0" class="graph" transform="scale(1 1) rotate(0) translate(4 142)">
<title>validation_api::toLower</title>
<!-- Node1 -->
<g id="Node000001" class="node">
<title>Node1</title>
<g id="a_Node000001"><a xlink:title="Converts string to all lowercase.">
<polygon fill="#999999" stroke="#666666" points="839.75,-80 724,-80 724,-60 839.75,-60 839.75,-80"/>
<text text-anchor="middle" x="781.88" y="-66.5" font-family="Helvetica,sans-Serif" font-size="10.00">validation_api::toLower</text>
</a>
</g>
</g>
<!-- Node2 -->
<g id="Node000002" class="node">
<title>Node2</title>
<g id="a_Node000002"><a xlink:href="classvalidation__api_1_1Validation.html#a1cc0802269d88c233ad3c3d1d6c3dd12" target="_top" xlink:title=" ">
<polygon fill="white" stroke="#666666" points="688,-120 564.75,-120 564.75,-88 688,-88 688,-120"/>
<text text-anchor="start" x="572.75" y="-106.5" font-family="Helvetica,sans-Serif" font-size="10.00">validation_api::Validation</text>
<text text-anchor="middle" x="626.38" y="-94.5" font-family="Helvetica,sans-Serif" font-size="10.00">::validate</text>
</a>
</g>
</g>
<!-- Node1&#45;&gt;Node2 -->
<g id="edge1_Node000001_Node000002" class="edge">
<title>Node1&#45;&gt;Node2</title>
<g id="a_edge1_Node000001_Node000002"><a xlink:title=" ">
<path fill="none" stroke="#63b8ff" d="M722.6,-82.91C711.41,-85.39 699.67,-87.99 688.4,-90.48"/>
<polygon fill="#63b8ff" stroke="#63b8ff" points="723.08,-86.39 732.09,-80.81 721.57,-79.55 723.08,-86.39"/>
</a>
</g>
</g>
<!-- Node6 -->
<g id="Node000006" class="node">
<title>Node6</title>
<g id="a_Node000006"><a xlink:href="namespacevalidation__api.html#aa82c6b3a43b6e6b59b529c22944cadca" target="_top" xlink:title="Ensures valid Xml configuration.">
<polygon fill="white" stroke="#666666" points="683.88,-52 568.88,-52 568.88,-20 683.88,-20 683.88,-52"/>
<text text-anchor="start" x="576.88" y="-38.5" font-family="Helvetica,sans-Serif" font-size="10.00">validation_api::validate</text>
<text text-anchor="middle" x="626.38" y="-26.5" font-family="Helvetica,sans-Serif" font-size="10.00">XmlConfig</text>
</a>
</g>
</g>
<!-- Node1&#45;&gt;Node6 -->
<g id="edge6_Node000001_Node000006" class="edge">
<title>Node1&#45;&gt;Node6</title>
<g id="a_edge6_Node000001_Node000006"><a xlink:title=" ">
<path fill="none" stroke="#63b8ff" d="M722.33,-57.03C709.84,-54.27 696.67,-51.35 684.24,-48.6"/>
<polygon fill="#63b8ff" stroke="#63b8ff" points="721.57,-60.45 732.09,-59.19 723.08,-53.61 721.57,-60.45"/>
</a>
</g>
</g>
<!-- Node3 -->
<g id="Node000003" class="node">
<title>Node3</title>
<g id="a_Node000003"><a xlink:href="classvalidation__api_1_1Validation.html#a3c8146fc89af5b8cef0c1bb6c9d473f2" target="_top" xlink:title="Traverse through the json object and validate the fields.">
<polygon fill="white" stroke="#666666" points="517.5,-120 394.25,-120 394.25,-88 517.5,-88 517.5,-120"/>
<text text-anchor="start" x="402.25" y="-106.5" font-family="Helvetica,sans-Serif" font-size="10.00">validation_api::Validation</text>
<text text-anchor="middle" x="455.88" y="-94.5" font-family="Helvetica,sans-Serif" font-size="10.00">::traverseAndValidate</text>
</a>
</g>
</g>
<!-- Node2&#45;&gt;Node3 -->
<g id="edge2_Node000002_Node000003" class="edge">
<title>Node2&#45;&gt;Node3</title>
<g id="a_edge2_Node000002_Node000003"><a xlink:title=" ">
<path fill="none" stroke="#63b8ff" d="M553.35,-104C541.54,-104 529.41,-104 517.9,-104"/>
<polygon fill="#63b8ff" stroke="#63b8ff" points="553.03,-107.5 563.03,-104 553.03,-100.5 553.03,-107.5"/>
</a>
</g>
</g>
<!-- Node3&#45;&gt;Node3 -->
<g id="edge5_Node000003_Node000003" class="edge">
<title>Node3&#45;&gt;Node3</title>
<g id="a_edge5_Node000003_Node000003"><a xlink:title=" ">
<path fill="none" stroke="#63b8ff" d="M484.29,-131.71C479.55,-135.48 470.08,-138 455.88,-138 429.9,-138 419.75,-129.58 425.44,-120.44"/>
<polygon fill="#63b8ff" stroke="#63b8ff" points="487.72,-132.39 486.05,-121.93 480.83,-131.15 487.72,-132.39"/>
</a>
</g>
</g>
<!-- Node4 -->
<g id="Node000004" class="node">
<title>Node4</title>
<g id="a_Node000004"><a xlink:href="classvalidation__api_1_1Validation.html#ac6c337d3af39943a8e603a5f21f5922a" target="_top" xlink:title=" ">
<polygon fill="white" stroke="#666666" points="335.75,-114 193,-114 193,-94 335.75,-94 335.75,-114"/>
<text text-anchor="middle" x="264.38" y="-100.5" font-family="Helvetica,sans-Serif" font-size="10.00">validation_api::Validation::run</text>
</a>
</g>
</g>
<!-- Node3&#45;&gt;Node4 -->
<g id="edge3_Node000003_Node000004" class="edge">
<title>Node3&#45;&gt;Node4</title>
<g id="a_edge3_Node000003_Node000004"><a xlink:title=" ">
<path fill="none" stroke="#63b8ff" d="M382.45,-104C367.27,-104 351.28,-104 336.16,-104"/>
<polygon fill="#63b8ff" stroke="#63b8ff" points="382.36,-107.5 392.36,-104 382.36,-100.5 382.36,-107.5"/>
</a>
</g>
</g>
<!-- Node5 -->
<g id="Node000005" class="node">
<title>Node5</title>
<g id="a_Node000005"><a xlink:href="classvalidation__api_1_1ConfigService.html#a654e84f4f588f7391f93210c1e08344f" target="_top" xlink:title="getConfigs method">
<polygon fill="white" stroke="#666666" points="144.25,-120 1.5,-120 1.5,-88 144.25,-88 144.25,-120"/>
<text text-anchor="start" x="9.5" y="-106.5" font-family="Helvetica,sans-Serif" font-size="10.00">validation_api::ConfigService</text>
<text text-anchor="middle" x="72.88" y="-94.5" font-family="Helvetica,sans-Serif" font-size="10.00">::validateConfig</text>
</a>
</g>
</g>
<!-- Node4&#45;&gt;Node5 -->
<g id="edge4_Node000004_Node000005" class="edge">
<title>Node4&#45;&gt;Node5</title>
<g id="a_edge4_Node000004_Node000005"><a xlink:title=" ">
<path fill="none" stroke="#63b8ff" d="M181.4,-104C169.15,-104 156.61,-104 144.62,-104"/>
<polygon fill="#63b8ff" stroke="#63b8ff" points="181.03,-107.5 191.03,-104 181.03,-100.5 181.03,-107.5"/>
</a>
</g>
</g>
<!-- Node6&#45;&gt;Node6 -->
<g id="edge12_Node000006_Node000006" class="edge">
<title>Node6&#45;&gt;Node6</title>
<g id="a_edge12_Node000006_Node000006"><a xlink:title=" ">
<path fill="none" stroke="#63b8ff" d="M652.29,-63.71C647.97,-67.48 639.33,-70 626.38,-70 602.69,-70 593.43,-61.58 598.61,-52.44"/>
<polygon fill="#63b8ff" stroke="#63b8ff" points="655.73,-64.37 653.89,-53.94 648.82,-63.24 655.73,-64.37"/>
</a>
</g>
</g>
<!-- Node7 -->
<g id="Node000007" class="node">
<title>Node7</title>
<g id="a_Node000007"><a xlink:href="classvalidation__api_1_1ConfigWatcher.html#a78820bcf2ebf9135785e207aae042e72" target="_top" xlink:title=" ">
<polygon fill="white" stroke="#666666" points="528.75,-52 383,-52 383,-20 528.75,-20 528.75,-52"/>
<text text-anchor="start" x="391" y="-38.5" font-family="Helvetica,sans-Serif" font-size="10.00">validation_api::ConfigWatcher</text>
<text text-anchor="middle" x="455.88" y="-26.5" font-family="Helvetica,sans-Serif" font-size="10.00">::read_file</text>
</a>
</g>
</g>
<!-- Node6&#45;&gt;Node7 -->
<g id="edge7_Node000006_Node000007" class="edge">
<title>Node6&#45;&gt;Node7</title>
<g id="a_edge7_Node000006_Node000007"><a xlink:title=" ">
<path fill="none" stroke="#63b8ff" d="M557.57,-36C548.22,-36 538.59,-36 529.16,-36"/>
<polygon fill="#63b8ff" stroke="#63b8ff" points="557.28,-39.5 567.28,-36 557.28,-32.5 557.28,-39.5"/>
</a>
</g>
</g>
<!-- Node8 -->
<g id="Node000008" class="node">
<title>Node8</title>
<g id="a_Node000008"><a xlink:href="classvalidation__api_1_1ConfigWatcher.html#a13e118f62a6b13b780f44e12d5afed78" target="_top" xlink:title="Start ConfigWatcher.">
<polygon fill="white" stroke="#666666" points="347,-70 181.75,-70 181.75,-50 347,-50 347,-70"/>
<text text-anchor="middle" x="264.38" y="-56.5" font-family="Helvetica,sans-Serif" font-size="10.00">validation_api::ConfigWatcher::run</text>
</a>
</g>
</g>
<!-- Node7&#45;&gt;Node8 -->
<g id="edge8_Node000007_Node000008" class="edge">
<title>Node7&#45;&gt;Node8</title>
<g id="a_edge8_Node000007_Node000008"><a xlink:title=" ">
<path fill="none" stroke="#63b8ff" d="M371.52,-46.56C363.54,-47.57 355.46,-48.59 347.5,-49.6"/>
<polygon fill="#63b8ff" stroke="#63b8ff" points="371.71,-50.06 381.19,-45.33 370.83,-43.12 371.71,-50.06"/>
</a>
</g>
</g>
<!-- Node10 -->
<g id="Node000010" class="node">
<title>Node10</title>
<g id="a_Node000010"><a xlink:href="classvalidation__api_1_1ConfigWatcher.html#a6f8a66478001a8a0515344aac1fd0395" target="_top" xlink:title="Setup the ConfigWatcher.">
<polygon fill="white" stroke="#666666" points="337.25,-32 191.5,-32 191.5,0 337.25,0 337.25,-32"/>
<text text-anchor="start" x="199.5" y="-18.5" font-family="Helvetica,sans-Serif" font-size="10.00">validation_api::ConfigWatcher</text>
<text text-anchor="middle" x="264.38" y="-6.5" font-family="Helvetica,sans-Serif" font-size="10.00">::setup</text>
</a>
</g>
</g>
<!-- Node7&#45;&gt;Node10 -->
<g id="edge10_Node000007_Node000010" class="edge">
<title>Node7&#45;&gt;Node10</title>
<g id="a_edge10_Node000007_Node000010"><a xlink:title=" ">
<path fill="none" stroke="#63b8ff" d="M371.51,-27.2C360.23,-26.01 348.73,-24.8 337.67,-23.63"/>
<polygon fill="#63b8ff" stroke="#63b8ff" points="370.88,-30.65 381.19,-28.22 371.61,-23.69 370.88,-30.65"/>
</a>
</g>
</g>
<!-- Node9 -->
<g id="Node000009" class="node">
<title>Node9</title>
<g id="a_Node000009"><a xlink:href="classvalidation__api_1_1ConfigWatcher.html#ae52bfdab8da3ff71ba788f1929a9a053" target="_top" xlink:title=" ">
<polygon fill="white" stroke="#666666" points="145.75,-51 0,-51 0,-19 145.75,-19 145.75,-51"/>
<text text-anchor="start" x="8" y="-37.5" font-family="Helvetica,sans-Serif" font-size="10.00">validation_api::ConfigWatcher</text>
<text text-anchor="middle" x="72.88" y="-25.5" font-family="Helvetica,sans-Serif" font-size="10.00">::ConfigWatcher</text>
</a>
</g>
</g>
<!-- Node8&#45;&gt;Node9 -->
<g id="edge9_Node000008_Node000009" class="edge">
<title>Node8&#45;&gt;Node9</title>
<g id="a_edge9_Node000008_Node000009"><a xlink:title=" ">
<path fill="none" stroke="#63b8ff" d="M172.57,-48.02C163.65,-46.84 154.67,-45.66 145.97,-44.51"/>
<polygon fill="#63b8ff" stroke="#63b8ff" points="171.96,-51.47 182.33,-49.31 172.88,-44.53 171.96,-51.47"/>
</a>
</g>
</g>
<!-- Node10&#45;&gt;Node9 -->
<g id="edge11_Node000010_Node000009" class="edge">
<title>Node10&#45;&gt;Node9</title>
<g id="a_edge11_Node000010_Node000009"><a xlink:title=" ">
<path fill="none" stroke="#63b8ff" d="M180.01,-24.36C168.73,-25.49 157.23,-26.64 146.17,-27.75"/>
<polygon fill="#63b8ff" stroke="#63b8ff" points="180.09,-27.87 189.69,-23.39 179.39,-20.9 180.09,-27.87"/>
</a>
</g>
</g>
</g>
</svg>
