<?xml version="1.0" encoding="UTF-8" standalone="no"?>
<!DOCTYPE svg PUBLIC "-//W3C//DTD SVG 1.1//EN"
 "http://www.w3.org/Graphics/SVG/1.1/DTD/svg11.dtd">
<!-- Generated by graphviz version 12.2.1 (0)
 -->
<!-- Title: validation_api::isValidUuid Pages: 1 -->
<svg width="1041pt" height="214pt"
 viewBox="0.00 0.00 1040.75 214.00" xmlns="http://www.w3.org/2000/svg" xmlns:xlink="http://www.w3.org/1999/xlink">
<g id="graph0" class="graph" transform="scale(1 1) rotate(0) translate(4 210)">
<title>validation_api::isValidUuid</title>
<!-- Node1 -->
<g id="Node000001" class="node">
<title>Node1</title>
<g id="a_Node000001"><a xlink:title=" ">
<polygon fill="#999999" stroke="#666666" points="1032.75,-114 902.75,-114 902.75,-94 1032.75,-94 1032.75,-114"/>
<text text-anchor="middle" x="967.75" y="-100.5" font-family="Helvetica,sans-Serif" font-size="10.00">validation_api::isValidUuid</text>
</a>
</g>
</g>
<!-- Node2 -->
<g id="Node000002" class="node">
<title>Node2</title>
<g id="a_Node000002"><a xlink:href="classvalidation__api_1_1Validation.html#acd198b4de9ea7c78800719a53eabc1a4" target="_top" xlink:title="Extract the NullOptions from a XML Configuration.">
<polygon fill="white" stroke="#666666" points="866.75,-188 743.5,-188 743.5,-156 866.75,-156 866.75,-188"/>
<text text-anchor="start" x="751.5" y="-174.5" font-family="Helvetica,sans-Serif" font-size="10.00">validation_api::Validation</text>
<text text-anchor="middle" x="805.12" y="-162.5" font-family="Helvetica,sans-Serif" font-size="10.00">::extractNullOptions</text>
</a>
</g>
</g>
<!-- Node1&#45;&gt;Node2 -->
<g id="edge1_Node000001_Node000002" class="edge">
<title>Node1&#45;&gt;Node2</title>
<g id="a_edge1_Node000001_Node000002"><a xlink:title=" ">
<path fill="none" stroke="#63b8ff" d="M932.54,-118.86C913.25,-127.2 888.69,-137.76 866.75,-147 860.14,-149.78 853.11,-152.71 846.27,-155.54"/>
<polygon fill="#63b8ff" stroke="#63b8ff" points="933.78,-122.14 941.56,-114.95 930.99,-115.72 933.78,-122.14"/>
</a>
</g>
</g>
<!-- Node4 -->
<g id="Node000004" class="node">
<title>Node4</title>
<g id="a_Node000004"><a xlink:href="classvalidation__api_1_1Validation.html#a4d77d8b938e4241f346b0360f4eec61e" target="_top" xlink:title=" ">
<polygon fill="white" stroke="#666666" points="866.75,-120 743.5,-120 743.5,-88 866.75,-88 866.75,-120"/>
<text text-anchor="start" x="751.5" y="-106.5" font-family="Helvetica,sans-Serif" font-size="10.00">validation_api::Validation</text>
<text text-anchor="middle" x="805.12" y="-94.5" font-family="Helvetica,sans-Serif" font-size="10.00">::validateOne</text>
</a>
</g>
</g>
<!-- Node1&#45;&gt;Node4 -->
<g id="edge4_Node000001_Node000004" class="edge">
<title>Node1&#45;&gt;Node4</title>
<g id="a_edge4_Node000001_Node000004"><a xlink:title=" ">
<path fill="none" stroke="#63b8ff" d="M891.08,-104C883.06,-104 874.98,-104 867.16,-104"/>
<polygon fill="#63b8ff" stroke="#63b8ff" points="890.83,-107.5 900.83,-104 890.83,-100.5 890.83,-107.5"/>
</a>
</g>
</g>
<!-- Node9 -->
<g id="Node000009" class="node">
<title>Node9</title>
<g id="a_Node000009"><a xlink:href="namespacevalidation__api.html#aa82c6b3a43b6e6b59b529c22944cadca" target="_top" xlink:title="Ensures valid Xml configuration.">
<polygon fill="white" stroke="#666666" points="862.62,-52 747.62,-52 747.62,-20 862.62,-20 862.62,-52"/>
<text text-anchor="start" x="755.62" y="-38.5" font-family="Helvetica,sans-Serif" font-size="10.00">validation_api::validate</text>
<text text-anchor="middle" x="805.12" y="-26.5" font-family="Helvetica,sans-Serif" font-size="10.00">XmlConfig</text>
</a>
</g>
</g>
<!-- Node1&#45;&gt;Node9 -->
<g id="edge11_Node000001_Node000009" class="edge">
<title>Node1&#45;&gt;Node9</title>
<g id="a_edge11_Node000001_Node000009"><a xlink:title=" ">
<path fill="none" stroke="#63b8ff" d="M931.65,-89.14C906.06,-78.31 871.4,-63.63 844.98,-52.45"/>
<polygon fill="#63b8ff" stroke="#63b8ff" points="930.04,-92.26 940.61,-92.93 932.77,-85.81 930.04,-92.26"/>
</a>
</g>
</g>
<!-- Node2&#45;&gt;Node2 -->
<g id="edge2_Node000002_Node000002" class="edge">
<title>Node2&#45;&gt;Node2</title>
<g id="a_edge2_Node000002_Node000002"><a xlink:title=" ">
<path fill="none" stroke="#63b8ff" d="M832.23,-199.71C827.71,-203.48 818.67,-206 805.12,-206 780.35,-206 770.67,-197.58 776.09,-188.44"/>
<polygon fill="#63b8ff" stroke="#63b8ff" points="835.66,-200.38 833.9,-189.93 828.76,-199.2 835.66,-200.38"/>
</a>
</g>
</g>
<!-- Node3 -->
<g id="Node000003" class="node">
<title>Node3</title>
<g id="a_Node000003"><a xlink:href="classvalidation__api_1_1Validation.html#a9a856ca57a90247560b7af5716735979" target="_top" xlink:title=" ">
<polygon fill="white" stroke="#666666" points="696.25,-188 573,-188 573,-156 696.25,-156 696.25,-188"/>
<text text-anchor="start" x="581" y="-174.5" font-family="Helvetica,sans-Serif" font-size="10.00">validation_api::Validation</text>
<text text-anchor="middle" x="634.62" y="-162.5" font-family="Helvetica,sans-Serif" font-size="10.00">::Validation</text>
</a>
</g>
</g>
<!-- Node2&#45;&gt;Node3 -->
<g id="edge3_Node000002_Node000003" class="edge">
<title>Node2&#45;&gt;Node3</title>
<g id="a_edge3_Node000002_Node000003"><a xlink:title=" ">
<path fill="none" stroke="#63b8ff" d="M732.1,-172C720.29,-172 708.16,-172 696.65,-172"/>
<polygon fill="#63b8ff" stroke="#63b8ff" points="731.78,-175.5 741.78,-172 731.78,-168.5 731.78,-175.5"/>
</a>
</g>
</g>
<!-- Node4&#45;&gt;Node4 -->
<g id="edge10_Node000004_Node000004" class="edge">
<title>Node4&#45;&gt;Node4</title>
<g id="a_edge10_Node000004_Node000004"><a xlink:title=" ">
<path fill="none" stroke="#63b8ff" d="M832.23,-131.71C827.71,-135.48 818.67,-138 805.12,-138 780.35,-138 770.67,-129.58 776.09,-120.44"/>
<polygon fill="#63b8ff" stroke="#63b8ff" points="835.66,-132.38 833.9,-121.93 828.76,-131.2 835.66,-132.38"/>
</a>
</g>
</g>
<!-- Node5 -->
<g id="Node000005" class="node">
<title>Node5</title>
<g id="a_Node000005"><a xlink:href="classvalidation__api_1_1Validation.html#a1cc0802269d88c233ad3c3d1d6c3dd12" target="_top" xlink:title=" ">
<polygon fill="white" stroke="#666666" points="696.25,-120 573,-120 573,-88 696.25,-88 696.25,-120"/>
<text text-anchor="start" x="581" y="-106.5" font-family="Helvetica,sans-Serif" font-size="10.00">validation_api::Validation</text>
<text text-anchor="middle" x="634.62" y="-94.5" font-family="Helvetica,sans-Serif" font-size="10.00">::validate</text>
</a>
</g>
</g>
<!-- Node4&#45;&gt;Node5 -->
<g id="edge5_Node000004_Node000005" class="edge">
<title>Node4&#45;&gt;Node5</title>
<g id="a_edge5_Node000004_Node000005"><a xlink:title=" ">
<path fill="none" stroke="#63b8ff" d="M732.1,-104C720.29,-104 708.16,-104 696.65,-104"/>
<polygon fill="#63b8ff" stroke="#63b8ff" points="731.78,-107.5 741.78,-104 731.78,-100.5 731.78,-107.5"/>
</a>
</g>
</g>
<!-- Node6 -->
<g id="Node000006" class="node">
<title>Node6</title>
<g id="a_Node000006"><a xlink:href="classvalidation__api_1_1Validation.html#a3c8146fc89af5b8cef0c1bb6c9d473f2" target="_top" xlink:title="Traverse through the json object and validate the fields.">
<polygon fill="white" stroke="#666666" points="504.75,-120 381.5,-120 381.5,-88 504.75,-88 504.75,-120"/>
<text text-anchor="start" x="389.5" y="-106.5" font-family="Helvetica,sans-Serif" font-size="10.00">validation_api::Validation</text>
<text text-anchor="middle" x="443.12" y="-94.5" font-family="Helvetica,sans-Serif" font-size="10.00">::traverseAndValidate</text>
</a>
</g>
</g>
<!-- Node5&#45;&gt;Node6 -->
<g id="edge6_Node000005_Node000006" class="edge">
<title>Node5&#45;&gt;Node6</title>
<g id="a_edge6_Node000005_Node000006"><a xlink:title=" ">
<path fill="none" stroke="#63b8ff" d="M561.25,-104C542.7,-104 522.93,-104 505.01,-104"/>
<polygon fill="#63b8ff" stroke="#63b8ff" points="561.11,-107.5 571.11,-104 561.11,-100.5 561.11,-107.5"/>
</a>
</g>
</g>
<!-- Node6&#45;&gt;Node6 -->
<g id="edge9_Node000006_Node000006" class="edge">
<title>Node6&#45;&gt;Node6</title>
<g id="a_edge9_Node000006_Node000006"><a xlink:title=" ">
<path fill="none" stroke="#63b8ff" d="M475.04,-131.71C469.72,-135.48 459.08,-138 443.12,-138 413.95,-138 402.56,-129.58 408.94,-120.44"/>
<polygon fill="#63b8ff" stroke="#63b8ff" points="478.46,-132.42 477.01,-121.93 471.6,-131.04 478.46,-132.42"/>
</a>
</g>
</g>
<!-- Node7 -->
<g id="Node000007" class="node">
<title>Node7</title>
<g id="a_Node000007"><a xlink:href="classvalidation__api_1_1Validation.html#ac6c337d3af39943a8e603a5f21f5922a" target="_top" xlink:title=" ">
<polygon fill="white" stroke="#666666" points="323,-114 180.25,-114 180.25,-94 323,-94 323,-114"/>
<text text-anchor="middle" x="251.62" y="-100.5" font-family="Helvetica,sans-Serif" font-size="10.00">validation_api::Validation::run</text>
</a>
</g>
</g>
<!-- Node6&#45;&gt;Node7 -->
<g id="edge7_Node000006_Node000007" class="edge">
<title>Node6&#45;&gt;Node7</title>
<g id="a_edge7_Node000006_Node000007"><a xlink:title=" ">
<path fill="none" stroke="#63b8ff" d="M369.7,-104C354.52,-104 338.53,-104 323.41,-104"/>
<polygon fill="#63b8ff" stroke="#63b8ff" points="369.61,-107.5 379.61,-104 369.61,-100.5 369.61,-107.5"/>
</a>
</g>
</g>
<!-- Node8 -->
<g id="Node000008" class="node">
<title>Node8</title>
<g id="a_Node000008"><a xlink:href="classvalidation__api_1_1ConfigService.html#a654e84f4f588f7391f93210c1e08344f" target="_top" xlink:title="getConfigs method">
<polygon fill="white" stroke="#666666" points="142.75,-120 0,-120 0,-88 142.75,-88 142.75,-120"/>
<text text-anchor="start" x="8" y="-106.5" font-family="Helvetica,sans-Serif" font-size="10.00">validation_api::ConfigService</text>
<text text-anchor="middle" x="71.38" y="-94.5" font-family="Helvetica,sans-Serif" font-size="10.00">::validateConfig</text>
</a>
</g>
</g>
<!-- Node7&#45;&gt;Node8 -->
<g id="edge8_Node000007_Node000008" class="edge">
<title>Node7&#45;&gt;Node8</title>
<g id="a_edge8_Node000007_Node000008"><a xlink:title=" ">
<path fill="none" stroke="#63b8ff" d="M168.42,-104C159.92,-104 151.35,-104 142.99,-104"/>
<polygon fill="#63b8ff" stroke="#63b8ff" points="168.41,-107.5 178.41,-104 168.41,-100.5 168.41,-107.5"/>
</a>
</g>
</g>
<!-- Node9&#45;&gt;Node9 -->
<g id="edge17_Node000009_Node000009" class="edge">
<title>Node9&#45;&gt;Node9</title>
<g id="a_edge17_Node000009_Node000009"><a xlink:title=" ">
<path fill="none" stroke="#63b8ff" d="M832.23,-63.71C827.71,-67.48 818.67,-70 805.12,-70 780.35,-70 770.67,-61.58 776.09,-52.44"/>
<polygon fill="#63b8ff" stroke="#63b8ff" points="835.66,-64.38 833.9,-53.93 828.76,-63.2 835.66,-64.38"/>
</a>
</g>
</g>
<!-- Node10 -->
<g id="Node000010" class="node">
<title>Node10</title>
<g id="a_Node000010"><a xlink:href="classvalidation__api_1_1ConfigWatcher.html#a78820bcf2ebf9135785e207aae042e72" target="_top" xlink:title=" ">
<polygon fill="white" stroke="#666666" points="707.5,-52 561.75,-52 561.75,-20 707.5,-20 707.5,-52"/>
<text text-anchor="start" x="569.75" y="-38.5" font-family="Helvetica,sans-Serif" font-size="10.00">validation_api::ConfigWatcher</text>
<text text-anchor="middle" x="634.62" y="-26.5" font-family="Helvetica,sans-Serif" font-size="10.00">::read_file</text>
</a>
</g>
</g>
<!-- Node9&#45;&gt;Node10 -->
<g id="edge12_Node000009_Node000010" class="edge">
<title>Node9&#45;&gt;Node10</title>
<g id="a_edge12_Node000009_Node000010"><a xlink:title=" ">
<path fill="none" stroke="#63b8ff" d="M736.32,-36C726.97,-36 717.34,-36 707.91,-36"/>
<polygon fill="#63b8ff" stroke="#63b8ff" points="736.03,-39.5 746.03,-36 736.03,-32.5 736.03,-39.5"/>
</a>
</g>
</g>
<!-- Node11 -->
<g id="Node000011" class="node">
<title>Node11</title>
<g id="a_Node000011"><a xlink:href="classvalidation__api_1_1ConfigWatcher.html#a13e118f62a6b13b780f44e12d5afed78" target="_top" xlink:title="Start ConfigWatcher.">
<polygon fill="white" stroke="#666666" points="525.75,-70 360.5,-70 360.5,-50 525.75,-50 525.75,-70"/>
<text text-anchor="middle" x="443.12" y="-56.5" font-family="Helvetica,sans-Serif" font-size="10.00">validation_api::ConfigWatcher::run</text>
</a>
</g>
</g>
<!-- Node10&#45;&gt;Node11 -->
<g id="edge13_Node000010_Node000011" class="edge">
<title>Node10&#45;&gt;Node11</title>
<g id="a_edge13_Node000010_Node000011"><a xlink:title=" ">
<path fill="none" stroke="#63b8ff" d="M550.27,-46.56C542.29,-47.57 534.21,-48.59 526.25,-49.6"/>
<polygon fill="#63b8ff" stroke="#63b8ff" points="550.46,-50.06 559.94,-45.33 549.58,-43.12 550.46,-50.06"/>
</a>
</g>
</g>
<!-- Node13 -->
<g id="Node000013" class="node">
<title>Node13</title>
<g id="a_Node000013"><a xlink:href="classvalidation__api_1_1ConfigWatcher.html#a6f8a66478001a8a0515344aac1fd0395" target="_top" xlink:title="Setup the ConfigWatcher.">
<polygon fill="white" stroke="#666666" points="516,-32 370.25,-32 370.25,0 516,0 516,-32"/>
<text text-anchor="start" x="378.25" y="-18.5" font-family="Helvetica,sans-Serif" font-size="10.00">validation_api::ConfigWatcher</text>
<text text-anchor="middle" x="443.12" y="-6.5" font-family="Helvetica,sans-Serif" font-size="10.00">::setup</text>
</a>
</g>
</g>
<!-- Node10&#45;&gt;Node13 -->
<g id="edge15_Node000010_Node000013" class="edge">
<title>Node10&#45;&gt;Node13</title>
<g id="a_edge15_Node000010_Node000013"><a xlink:title=" ">
<path fill="none" stroke="#63b8ff" d="M550.26,-27.2C538.98,-26.01 527.48,-24.8 516.42,-23.63"/>
<polygon fill="#63b8ff" stroke="#63b8ff" points="549.63,-30.65 559.94,-28.22 550.36,-23.69 549.63,-30.65"/>
</a>
</g>
</g>
<!-- Node12 -->
<g id="Node000012" class="node">
<title>Node12</title>
<g id="a_Node000012"><a xlink:href="classvalidation__api_1_1ConfigWatcher.html#ae52bfdab8da3ff71ba788f1929a9a053" target="_top" xlink:title=" ">
<polygon fill="white" stroke="#666666" points="324.5,-54 178.75,-54 178.75,-22 324.5,-22 324.5,-54"/>
<text text-anchor="start" x="186.75" y="-40.5" font-family="Helvetica,sans-Serif" font-size="10.00">validation_api::ConfigWatcher</text>
<text text-anchor="middle" x="251.62" y="-28.5" font-family="Helvetica,sans-Serif" font-size="10.00">::ConfigWatcher</text>
</a>
</g>
</g>
<!-- Node11&#45;&gt;Node12 -->
<g id="edge14_Node000011_Node000012" class="edge">
<title>Node11&#45;&gt;Node12</title>
<g id="a_edge14_Node000011_Node000012"><a xlink:title=" ">
<path fill="none" stroke="#63b8ff" d="M348.81,-49.17C340.79,-48.24 332.76,-47.3 324.94,-46.4"/>
<polygon fill="#63b8ff" stroke="#63b8ff" points="348.27,-52.63 358.61,-50.3 349.08,-45.67 348.27,-52.63"/>
</a>
</g>
</g>
<!-- Node13&#45;&gt;Node12 -->
<g id="edge16_Node000013_Node000012" class="edge">
<title>Node13&#45;&gt;Node12</title>
<g id="a_edge16_Node000013_Node000012"><a xlink:title=" ">
<path fill="none" stroke="#63b8ff" d="M358.76,-25.68C347.48,-26.99 335.98,-28.32 324.92,-29.61"/>
<polygon fill="#63b8ff" stroke="#63b8ff" points="358.91,-29.18 368.44,-24.55 358.1,-22.23 358.91,-29.18"/>
</a>
</g>
</g>
</g>
</svg>
