<?xml version="1.0" encoding="UTF-8" standalone="no"?>
<!DOCTYPE svg PUBLIC "-//W3C//DTD SVG 1.1//EN"
 "http://www.w3.org/Graphics/SVG/1.1/DTD/svg11.dtd">
<!-- Generated by graphviz version 12.2.1 (0)
 -->
<!-- Title: validation_api::isValidUuid Pages: 1 -->
<svg width="862pt" height="210pt"
 viewBox="0.00 0.00 862.00 210.00" xmlns="http://www.w3.org/2000/svg" xmlns:xlink="http://www.w3.org/1999/xlink">
<g id="graph0" class="graph" transform="scale(1 1) rotate(0) translate(4 206)">
<title>validation_api::isValidUuid</title>
<!-- Node1 -->
<g id="Node000001" class="node">
<title>Node1</title>
<g id="a_Node000001"><a xlink:title=" ">
<polygon fill="#999999" stroke="#666666" points="854,-119 724,-119 724,-99 854,-99 854,-119"/>
<text text-anchor="middle" x="789" y="-105.5" font-family="Helvetica,sans-Serif" font-size="10.00">validation_api::isValidUuid</text>
</a>
</g>
</g>
<!-- Node2 -->
<g id="Node000002" class="node">
<title>Node2</title>
<g id="a_Node000002"><a xlink:href="classvalidation__api_1_1Validation.html#acd198b4de9ea7c78800719a53eabc1a4" target="_top" xlink:title="Extract the NullOptions from a XML Configuration.">
<polygon fill="white" stroke="#666666" points="688,-184 564.75,-184 564.75,-152 688,-152 688,-184"/>
<text text-anchor="start" x="572.75" y="-170.5" font-family="Helvetica,sans-Serif" font-size="10.00">validation_api::Validation</text>
<text text-anchor="middle" x="626.38" y="-158.5" font-family="Helvetica,sans-Serif" font-size="10.00">::extractNullOptions</text>
</a>
</g>
</g>
<!-- Node1&#45;&gt;Node2 -->
<g id="edge1_Node000001_Node000002" class="edge">
<title>Node1&#45;&gt;Node2</title>
<g id="a_edge1_Node000001_Node000002"><a xlink:title=" ">
<path fill="none" stroke="#63b8ff" d="M749.14,-123.27C725.91,-131.81 696.31,-142.68 672.11,-151.57"/>
<polygon fill="#63b8ff" stroke="#63b8ff" points="750.05,-126.67 758.23,-119.93 747.64,-120.1 750.05,-126.67"/>
</a>
</g>
</g>
<!-- Node4 -->
<g id="Node000004" class="node">
<title>Node4</title>
<g id="a_Node000004"><a xlink:href="classvalidation__api_1_1Validation.html#a1cc0802269d88c233ad3c3d1d6c3dd12" target="_top" xlink:title=" ">
<polygon fill="white" stroke="#666666" points="688,-125 564.75,-125 564.75,-93 688,-93 688,-125"/>
<text text-anchor="start" x="572.75" y="-111.5" font-family="Helvetica,sans-Serif" font-size="10.00">validation_api::Validation</text>
<text text-anchor="middle" x="626.38" y="-99.5" font-family="Helvetica,sans-Serif" font-size="10.00">::validate</text>
</a>
</g>
</g>
<!-- Node1&#45;&gt;Node4 -->
<g id="edge4_Node000001_Node000004" class="edge">
<title>Node1&#45;&gt;Node4</title>
<g id="a_edge4_Node000001_Node000004"><a xlink:title=" ">
<path fill="none" stroke="#63b8ff" d="M712.33,-109C704.31,-109 696.23,-109 688.41,-109"/>
<polygon fill="#63b8ff" stroke="#63b8ff" points="712.08,-112.5 722.08,-109 712.08,-105.5 712.08,-112.5"/>
</a>
</g>
</g>
<!-- Node8 -->
<g id="Node000008" class="node">
<title>Node8</title>
<g id="a_Node000008"><a xlink:href="namespacevalidation__api.html#aa82c6b3a43b6e6b59b529c22944cadca" target="_top" xlink:title="Ensures valid Xml configuration.">
<polygon fill="white" stroke="#666666" points="683.88,-57 568.88,-57 568.88,-25 683.88,-25 683.88,-57"/>
<text text-anchor="start" x="576.88" y="-43.5" font-family="Helvetica,sans-Serif" font-size="10.00">validation_api::validate</text>
<text text-anchor="middle" x="626.38" y="-31.5" font-family="Helvetica,sans-Serif" font-size="10.00">XmlConfig</text>
</a>
</g>
</g>
<!-- Node1&#45;&gt;Node8 -->
<g id="edge9_Node000001_Node000008" class="edge">
<title>Node1&#45;&gt;Node8</title>
<g id="a_edge9_Node000001_Node000008"><a xlink:title=" ">
<path fill="none" stroke="#63b8ff" d="M752.9,-94.14C727.31,-83.31 692.65,-68.63 666.23,-57.45"/>
<polygon fill="#63b8ff" stroke="#63b8ff" points="751.29,-97.26 761.86,-97.93 754.02,-90.81 751.29,-97.26"/>
</a>
</g>
</g>
<!-- Node2&#45;&gt;Node2 -->
<g id="edge2_Node000002_Node000002" class="edge">
<title>Node2&#45;&gt;Node2</title>
<g id="a_edge2_Node000002_Node000002"><a xlink:title=" ">
<path fill="none" stroke="#63b8ff" d="M653.48,-195.71C648.96,-199.48 639.92,-202 626.38,-202 601.6,-202 591.92,-193.58 597.34,-184.44"/>
<polygon fill="#63b8ff" stroke="#63b8ff" points="656.91,-196.38 655.15,-185.93 650.01,-195.2 656.91,-196.38"/>
</a>
</g>
</g>
<!-- Node3 -->
<g id="Node000003" class="node">
<title>Node3</title>
<g id="a_Node000003"><a xlink:href="classvalidation__api_1_1Validation.html#a9a856ca57a90247560b7af5716735979" target="_top" xlink:title=" ">
<polygon fill="white" stroke="#666666" points="517.5,-188 394.25,-188 394.25,-156 517.5,-156 517.5,-188"/>
<text text-anchor="start" x="402.25" y="-174.5" font-family="Helvetica,sans-Serif" font-size="10.00">validation_api::Validation</text>
<text text-anchor="middle" x="455.88" y="-162.5" font-family="Helvetica,sans-Serif" font-size="10.00">::Validation</text>
</a>
</g>
</g>
<!-- Node2&#45;&gt;Node3 -->
<g id="edge3_Node000002_Node000003" class="edge">
<title>Node2&#45;&gt;Node3</title>
<g id="a_edge3_Node000002_Node000003"><a xlink:title=" ">
<path fill="none" stroke="#63b8ff" d="M553.35,-169.71C541.54,-169.99 529.41,-170.28 517.9,-170.55"/>
<polygon fill="#63b8ff" stroke="#63b8ff" points="553.12,-173.22 563.03,-169.48 552.95,-166.22 553.12,-173.22"/>
</a>
</g>
</g>
<!-- Node5 -->
<g id="Node000005" class="node">
<title>Node5</title>
<g id="a_Node000005"><a xlink:href="classvalidation__api_1_1Validation.html#a3c8146fc89af5b8cef0c1bb6c9d473f2" target="_top" xlink:title="Traverse through the json object and validate the fields.">
<polygon fill="white" stroke="#666666" points="517.5,-120 394.25,-120 394.25,-88 517.5,-88 517.5,-120"/>
<text text-anchor="start" x="402.25" y="-106.5" font-family="Helvetica,sans-Serif" font-size="10.00">validation_api::Validation</text>
<text text-anchor="middle" x="455.88" y="-94.5" font-family="Helvetica,sans-Serif" font-size="10.00">::traverseAndValidate</text>
</a>
</g>
</g>
<!-- Node4&#45;&gt;Node5 -->
<g id="edge5_Node000004_Node000005" class="edge">
<title>Node4&#45;&gt;Node5</title>
<g id="a_edge5_Node000004_Node000005"><a xlink:title=" ">
<path fill="none" stroke="#63b8ff" d="M553.35,-106.86C541.54,-106.51 529.41,-106.15 517.9,-105.81"/>
<polygon fill="#63b8ff" stroke="#63b8ff" points="552.93,-110.35 563.03,-107.15 553.14,-103.35 552.93,-110.35"/>
</a>
</g>
</g>
<!-- Node5&#45;&gt;Node5 -->
<g id="edge8_Node000005_Node000005" class="edge">
<title>Node5&#45;&gt;Node5</title>
<g id="a_edge8_Node000005_Node000005"><a xlink:title=" ">
<path fill="none" stroke="#63b8ff" d="M484.29,-131.71C479.55,-135.48 470.08,-138 455.88,-138 429.9,-138 419.75,-129.58 425.44,-120.44"/>
<polygon fill="#63b8ff" stroke="#63b8ff" points="487.72,-132.39 486.05,-121.93 480.83,-131.15 487.72,-132.39"/>
</a>
</g>
</g>
<!-- Node6 -->
<g id="Node000006" class="node">
<title>Node6</title>
<g id="a_Node000006"><a xlink:href="classvalidation__api_1_1Validation.html#ac6c337d3af39943a8e603a5f21f5922a" target="_top" xlink:title=" ">
<polygon fill="white" stroke="#666666" points="335.75,-114 193,-114 193,-94 335.75,-94 335.75,-114"/>
<text text-anchor="middle" x="264.38" y="-100.5" font-family="Helvetica,sans-Serif" font-size="10.00">validation_api::Validation::run</text>
</a>
</g>
</g>
<!-- Node5&#45;&gt;Node6 -->
<g id="edge6_Node000005_Node000006" class="edge">
<title>Node5&#45;&gt;Node6</title>
<g id="a_edge6_Node000005_Node000006"><a xlink:title=" ">
<path fill="none" stroke="#63b8ff" d="M382.45,-104C367.27,-104 351.28,-104 336.16,-104"/>
<polygon fill="#63b8ff" stroke="#63b8ff" points="382.36,-107.5 392.36,-104 382.36,-100.5 382.36,-107.5"/>
</a>
</g>
</g>
<!-- Node7 -->
<g id="Node000007" class="node">
<title>Node7</title>
<g id="a_Node000007"><a xlink:href="classvalidation__api_1_1ConfigService.html#a654e84f4f588f7391f93210c1e08344f" target="_top" xlink:title="getConfigs method">
<polygon fill="white" stroke="#666666" points="144.25,-120 1.5,-120 1.5,-88 144.25,-88 144.25,-120"/>
<text text-anchor="start" x="9.5" y="-106.5" font-family="Helvetica,sans-Serif" font-size="10.00">validation_api::ConfigService</text>
<text text-anchor="middle" x="72.88" y="-94.5" font-family="Helvetica,sans-Serif" font-size="10.00">::validateConfig</text>
</a>
</g>
</g>
<!-- Node6&#45;&gt;Node7 -->
<g id="edge7_Node000006_Node000007" class="edge">
<title>Node6&#45;&gt;Node7</title>
<g id="a_edge7_Node000006_Node000007"><a xlink:title=" ">
<path fill="none" stroke="#63b8ff" d="M181.4,-104C169.15,-104 156.61,-104 144.62,-104"/>
<polygon fill="#63b8ff" stroke="#63b8ff" points="181.03,-107.5 191.03,-104 181.03,-100.5 181.03,-107.5"/>
</a>
</g>
</g>
<!-- Node8&#45;&gt;Node8 -->
<g id="edge15_Node000008_Node000008" class="edge">
<title>Node8&#45;&gt;Node8</title>
<g id="a_edge15_Node000008_Node000008"><a xlink:title=" ">
<path fill="none" stroke="#63b8ff" d="M653.48,-68.71C648.96,-72.48 639.92,-75 626.38,-75 601.6,-75 591.92,-66.58 597.34,-57.44"/>
<polygon fill="#63b8ff" stroke="#63b8ff" points="656.91,-69.38 655.15,-58.93 650.01,-68.2 656.91,-69.38"/>
</a>
</g>
</g>
<!-- Node9 -->
<g id="Node000009" class="node">
<title>Node9</title>
<g id="a_Node000009"><a xlink:href="classvalidation__api_1_1ConfigWatcher.html#a78820bcf2ebf9135785e207aae042e72" target="_top" xlink:title=" ">
<polygon fill="white" stroke="#666666" points="528.75,-57 383,-57 383,-25 528.75,-25 528.75,-57"/>
<text text-anchor="start" x="391" y="-43.5" font-family="Helvetica,sans-Serif" font-size="10.00">validation_api::ConfigWatcher</text>
<text text-anchor="middle" x="455.88" y="-31.5" font-family="Helvetica,sans-Serif" font-size="10.00">::read_file</text>
</a>
</g>
</g>
<!-- Node8&#45;&gt;Node9 -->
<g id="edge10_Node000008_Node000009" class="edge">
<title>Node8&#45;&gt;Node9</title>
<g id="a_edge10_Node000008_Node000009"><a xlink:title=" ">
<path fill="none" stroke="#63b8ff" d="M557.57,-41C548.22,-41 538.59,-41 529.16,-41"/>
<polygon fill="#63b8ff" stroke="#63b8ff" points="557.28,-44.5 567.28,-41 557.28,-37.5 557.28,-44.5"/>
</a>
</g>
</g>
<!-- Node10 -->
<g id="Node000010" class="node">
<title>Node10</title>
<g id="a_Node000010"><a xlink:href="classvalidation__api_1_1ConfigWatcher.html#a13e118f62a6b13b780f44e12d5afed78" target="_top" xlink:title="Start ConfigWatcher.">
<polygon fill="white" stroke="#666666" points="347,-70 181.75,-70 181.75,-50 347,-50 347,-70"/>
<text text-anchor="middle" x="264.38" y="-56.5" font-family="Helvetica,sans-Serif" font-size="10.00">validation_api::ConfigWatcher::run</text>
</a>
</g>
</g>
<!-- Node9&#45;&gt;Node10 -->
<g id="edge11_Node000009_Node000010" class="edge">
<title>Node9&#45;&gt;Node10</title>
<g id="a_edge11_Node000009_Node000010"><a xlink:title=" ">
<path fill="none" stroke="#63b8ff" d="M371.24,-49.39C363.36,-50.18 355.37,-50.98 347.5,-51.77"/>
<polygon fill="#63b8ff" stroke="#63b8ff" points="371.59,-52.87 381.19,-48.39 370.89,-45.9 371.59,-52.87"/>
</a>
</g>
</g>
<!-- Node12 -->
<g id="Node000012" class="node">
<title>Node12</title>
<g id="a_Node000012"><a xlink:href="classvalidation__api_1_1ConfigWatcher.html#a6f8a66478001a8a0515344aac1fd0395" target="_top" xlink:title="Setup the ConfigWatcher.">
<polygon fill="white" stroke="#666666" points="337.25,-32 191.5,-32 191.5,0 337.25,0 337.25,-32"/>
<text text-anchor="start" x="199.5" y="-18.5" font-family="Helvetica,sans-Serif" font-size="10.00">validation_api::ConfigWatcher</text>
<text text-anchor="middle" x="264.38" y="-6.5" font-family="Helvetica,sans-Serif" font-size="10.00">::setup</text>
</a>
</g>
</g>
<!-- Node9&#45;&gt;Node12 -->
<g id="edge13_Node000009_Node000012" class="edge">
<title>Node9&#45;&gt;Node12</title>
<g id="a_edge13_Node000009_Node000012"><a xlink:title=" ">
<path fill="none" stroke="#63b8ff" d="M371.51,-30C360.23,-28.51 348.73,-27 337.67,-25.54"/>
<polygon fill="#63b8ff" stroke="#63b8ff" points="370.82,-33.44 381.19,-31.28 371.74,-26.5 370.82,-33.44"/>
</a>
</g>
</g>
<!-- Node11 -->
<g id="Node000011" class="node">
<title>Node11</title>
<g id="a_Node000011"><a xlink:href="classvalidation__api_1_1ConfigWatcher.html#ae52bfdab8da3ff71ba788f1929a9a053" target="_top" xlink:title=" ">
<polygon fill="white" stroke="#666666" points="145.75,-51 0,-51 0,-19 145.75,-19 145.75,-51"/>
<text text-anchor="start" x="8" y="-37.5" font-family="Helvetica,sans-Serif" font-size="10.00">validation_api::ConfigWatcher</text>
<text text-anchor="middle" x="72.88" y="-25.5" font-family="Helvetica,sans-Serif" font-size="10.00">::ConfigWatcher</text>
</a>
</g>
</g>
<!-- Node10&#45;&gt;Node11 -->
<g id="edge12_Node000010_Node000011" class="edge">
<title>Node10&#45;&gt;Node11</title>
<g id="a_edge12_Node000010_Node000011"><a xlink:title=" ">
<path fill="none" stroke="#63b8ff" d="M172.57,-48.02C163.65,-46.84 154.67,-45.66 145.97,-44.51"/>
<polygon fill="#63b8ff" stroke="#63b8ff" points="171.96,-51.47 182.33,-49.31 172.88,-44.53 171.96,-51.47"/>
</a>
</g>
</g>
<!-- Node12&#45;&gt;Node11 -->
<g id="edge14_Node000012_Node000011" class="edge">
<title>Node12&#45;&gt;Node11</title>
<g id="a_edge14_Node000012_Node000011"><a xlink:title=" ">
<path fill="none" stroke="#63b8ff" d="M180.01,-24.36C168.73,-25.49 157.23,-26.64 146.17,-27.75"/>
<polygon fill="#63b8ff" stroke="#63b8ff" points="180.09,-27.87 189.69,-23.39 179.39,-20.9 180.09,-27.87"/>
</a>
</g>
</g>
</g>
</svg>
