<?xml version="1.0" encoding="UTF-8" standalone="no"?>
<!DOCTYPE svg PUBLIC "-//W3C//DTD SVG 1.1//EN"
 "http://www.w3.org/Graphics/SVG/1.1/DTD/svg11.dtd">
<!-- Generated by graphviz version 10.0.1 (0)
 -->
<!-- Title: formatter&lt; boost::asio::ip::tcp::endpoint &gt; Pages: 1 -->
<svg width="129pt" height="89pt"
 viewBox="0.00 0.00 129.00 89.00" xmlns="http://www.w3.org/2000/svg" xmlns:xlink="http://www.w3.org/1999/xlink">
<g id="graph0" class="graph" transform="scale(1 1) rotate(0) translate(4 85)">
<title>formatter&lt; boost::asio::ip::tcp::endpoint &gt;</title>
<!-- Node1 -->
<g id="Node000001" class="node">
<title>Node1</title>
<g id="a_Node000001"><a xlink:title=" ">
<polygon fill="#999999" stroke="none" points="121,-81 0,-81 0,0 121,0 121,-81"/>
<text text-anchor="start" x="5" y="-67.5" font-family="Helvetica,sans-Serif" font-size="10.00">formatter&lt; boost::asio</text>
<text text-anchor="start" x="12.5" y="-54.75" font-family="Helvetica,sans-Serif" font-size="10.00">::ip::tcp::endpoint &gt;</text>
<text text-anchor="start" x="59" y="-38.5" font-family="Helvetica,sans-Serif" font-size="10.00"> </text>
<text text-anchor="start" x="18.88" y="-22.5" font-family="Helvetica,sans-Serif" font-size="10.00">+</text>
<text text-anchor="start" x="46" y="-22.5" font-family="Helvetica,sans-Serif" font-size="10.00">parse()</text>
<text text-anchor="start" x="18.88" y="-6.5" font-family="Helvetica,sans-Serif" font-size="10.00">+</text>
<text text-anchor="start" x="46" y="-6.5" font-family="Helvetica,sans-Serif" font-size="10.00">format()</text>
<polygon fill="#666666" stroke="#666666" points="0,-50 0,-50 121,-50 121,-50 0,-50"/>
<polygon fill="#666666" stroke="#666666" points="0,-34 0,-34 121,-34 121,-34 0,-34"/>
<polygon fill="none" stroke="#666666" points="0,0 0,-81 121,-81 121,0 0,0"/>
</a>
</g>
</g>
</g>
</svg>
