<?xml version="1.0" encoding="UTF-8" standalone="no"?>
<!DOCTYPE svg PUBLIC "-//W3C//DTD SVG 1.1//EN"
 "http://www.w3.org/Graphics/SVG/1.1/DTD/svg11.dtd">
<!-- Generated by graphviz version 12.2.1 (0)
 -->
<!-- Title: src/ValidationServer.cpp Pages: 1 -->
<svg width="928pt" height="208pt"
 viewBox="0.00 0.00 928.25 208.00" xmlns="http://www.w3.org/2000/svg" xmlns:xlink="http://www.w3.org/1999/xlink">
<g id="graph0" class="graph" transform="scale(1 1) rotate(0) translate(4 204)">
<title>src/ValidationServer.cpp</title>
<!-- Node1 -->
<g id="Node000001" class="node">
<title>Node1</title>
<g id="a_Node000001"><a xlink:title=" ">
<polygon fill="#999999" stroke="#666666" points="432.75,-200 311,-200 311,-180 432.75,-180 432.75,-200"/>
<text text-anchor="middle" x="371.88" y="-186.5" font-family="Helvetica,sans-Serif" font-size="10.00">src/ValidationServer.cpp</text>
</a>
</g>
</g>
<!-- Node2 -->
<g id="Node000002" class="node">
<title>Node2</title>
<g id="a_Node000002"><a xlink:title=" ">
<polygon fill="#e0e0e0" stroke="#999999" points="127.75,-138 0,-138 0,-118 127.75,-118 127.75,-138"/>
<text text-anchor="middle" x="63.88" y="-124.5" font-family="Helvetica,sans-Serif" font-size="10.00">boost/asio/ip/address.hpp</text>
</a>
</g>
</g>
<!-- Node1&#45;&gt;Node2 -->
<g id="edge1_Node000001_Node000002" class="edge">
<title>Node1&#45;&gt;Node2</title>
<g id="a_edge1_Node000001_Node000002"><a xlink:title=" ">
<path fill="none" stroke="#63b8ff" d="M321.41,-179.54C273.8,-170.57 200.44,-156.62 136.88,-144 131.6,-142.95 126.11,-141.85 120.62,-140.74"/>
<polygon fill="#63b8ff" stroke="#63b8ff" points="121.4,-137.32 110.9,-138.76 120,-144.18 121.4,-137.32"/>
</a>
</g>
</g>
<!-- Node3 -->
<g id="Node000003" class="node">
<title>Node3</title>
<g id="a_Node000003"><a xlink:title=" ">
<polygon fill="#e0e0e0" stroke="#999999" points="215.5,-138 146.25,-138 146.25,-118 215.5,-118 215.5,-138"/>
<text text-anchor="middle" x="180.88" y="-124.5" font-family="Helvetica,sans-Serif" font-size="10.00">fmt/format.h</text>
</a>
</g>
</g>
<!-- Node1&#45;&gt;Node3 -->
<g id="edge2_Node000001_Node000003" class="edge">
<title>Node1&#45;&gt;Node3</title>
<g id="a_edge2_Node000001_Node000003"><a xlink:title=" ">
<path fill="none" stroke="#63b8ff" d="M339.42,-179.54C309.36,-170.69 263.45,-156.91 223.88,-144 221.93,-143.37 219.94,-142.71 217.93,-142.03"/>
<polygon fill="#63b8ff" stroke="#63b8ff" points="219.22,-138.78 208.63,-138.86 216.96,-145.4 219.22,-138.78"/>
</a>
</g>
</g>
<!-- Node4 -->
<g id="Node000004" class="node">
<title>Node4</title>
<g id="a_Node000004"><a xlink:title=" ">
<polygon fill="#e0e0e0" stroke="#999999" points="372.38,-138 233.38,-138 233.38,-118 372.38,-118 372.38,-138"/>
<text text-anchor="middle" x="302.88" y="-124.5" font-family="Helvetica,sans-Serif" font-size="10.00">boost/asio/steady_timer.hpp</text>
</a>
</g>
</g>
<!-- Node1&#45;&gt;Node4 -->
<g id="edge3_Node000001_Node000004" class="edge">
<title>Node1&#45;&gt;Node4</title>
<g id="a_edge3_Node000001_Node000004"><a xlink:title=" ">
<path fill="none" stroke="#63b8ff" d="M361.09,-179.62C350.6,-170.5 334.44,-156.45 321.8,-145.46"/>
<polygon fill="#63b8ff" stroke="#63b8ff" points="324.34,-143.03 314.5,-139.11 319.75,-148.31 324.34,-143.03"/>
</a>
</g>
</g>
<!-- Node5 -->
<g id="Node000005" class="node">
<title>Node5</title>
<g id="a_Node000005"><a xlink:title=" ">
<polygon fill="#e0e0e0" stroke="#999999" points="493.75,-138 390,-138 390,-118 493.75,-118 493.75,-138"/>
<text text-anchor="middle" x="441.88" y="-124.5" font-family="Helvetica,sans-Serif" font-size="10.00">boost/asio/write.hpp</text>
</a>
</g>
</g>
<!-- Node1&#45;&gt;Node5 -->
<g id="edge4_Node000001_Node000005" class="edge">
<title>Node1&#45;&gt;Node5</title>
<g id="a_edge4_Node000001_Node000005"><a xlink:title=" ">
<path fill="none" stroke="#63b8ff" d="M382.81,-179.62C393.46,-170.5 409.86,-156.45 422.67,-145.46"/>
<polygon fill="#63b8ff" stroke="#63b8ff" points="424.78,-148.26 430.09,-139.1 420.22,-142.95 424.78,-148.26"/>
</a>
</g>
</g>
<!-- Node6 -->
<g id="Node000006" class="node">
<title>Node6</title>
<g id="a_Node000006"><a xlink:title=" ">
<polygon fill="#e0e0e0" stroke="#999999" points="551.88,-138 511.88,-138 511.88,-118 551.88,-118 551.88,-138"/>
<text text-anchor="middle" x="531.88" y="-124.5" font-family="Helvetica,sans-Serif" font-size="10.00">string</text>
</a>
</g>
</g>
<!-- Node1&#45;&gt;Node6 -->
<g id="edge5_Node000001_Node000006" class="edge">
<title>Node1&#45;&gt;Node6</title>
<g id="a_edge5_Node000001_Node000006"><a xlink:title=" ">
<path fill="none" stroke="#63b8ff" d="M403.6,-179.54C430.43,-171.2 469.71,-158.18 502.88,-144 503.36,-143.79 503.84,-143.58 504.33,-143.37"/>
<polygon fill="#63b8ff" stroke="#63b8ff" points="505.71,-146.59 513.23,-139.12 502.69,-140.27 505.71,-146.59"/>
</a>
</g>
</g>
<!-- Node7 -->
<g id="Node000007" class="node">
<title>Node7</title>
<g id="a_Node000007"><a xlink:href="ValidationServer_8hpp.html" target="_top" xlink:title=" ">
<polygon fill="white" stroke="#666666" points="687.88,-144 569.88,-144 569.88,-112 687.88,-112 687.88,-144"/>
<text text-anchor="start" x="577.88" y="-130.5" font-family="Helvetica,sans-Serif" font-size="10.00">validation&#45;api/Validation</text>
<text text-anchor="middle" x="628.88" y="-118.5" font-family="Helvetica,sans-Serif" font-size="10.00">Server.hpp</text>
</a>
</g>
</g>
<!-- Node1&#45;&gt;Node7 -->
<g id="edge6_Node000001_Node000007" class="edge">
<title>Node1&#45;&gt;Node7</title>
<g id="a_edge6_Node000001_Node000007"><a xlink:title=" ">
<path fill="none" stroke="#63b8ff" d="M412.31,-179.56C451.44,-170.42 511.56,-156.39 558.54,-145.42"/>
<polygon fill="#63b8ff" stroke="#63b8ff" points="559.15,-148.87 568.09,-143.19 557.56,-142.06 559.15,-148.87"/>
</a>
</g>
</g>
<!-- Node8 -->
<g id="Node000008" class="node">
<title>Node8</title>
<g id="a_Node000008"><a xlink:title=" ">
<polygon fill="#e0e0e0" stroke="#999999" points="514.75,-76 435,-76 435,-56 514.75,-56 514.75,-76"/>
<text text-anchor="middle" x="474.88" y="-62.5" font-family="Helvetica,sans-Serif" font-size="10.00">boost/asio.hpp</text>
</a>
</g>
</g>
<!-- Node7&#45;&gt;Node8 -->
<g id="edge7_Node000007_Node000008" class="edge">
<title>Node7&#45;&gt;Node8</title>
<g id="a_edge7_Node000007_Node000008"><a xlink:title=" ">
<path fill="none" stroke="#63b8ff" d="M589.22,-111.55C564.6,-101.96 533.26,-89.75 509.62,-80.54"/>
<polygon fill="#63b8ff" stroke="#63b8ff" points="511.02,-77.33 500.43,-76.96 508.48,-83.85 511.02,-77.33"/>
</a>
</g>
</g>
<!-- Node9 -->
<g id="Node000009" class="node">
<title>Node9</title>
<g id="a_Node000009"><a xlink:title=" ">
<polygon fill="#e0e0e0" stroke="#999999" points="596.88,-76 532.88,-76 532.88,-56 596.88,-56 596.88,-76"/>
<text text-anchor="middle" x="564.88" y="-62.5" font-family="Helvetica,sans-Serif" font-size="10.00">semaphore</text>
</a>
</g>
</g>
<!-- Node7&#45;&gt;Node9 -->
<g id="edge8_Node000007_Node000009" class="edge">
<title>Node7&#45;&gt;Node9</title>
<g id="a_edge8_Node000007_Node000009"><a xlink:title=" ">
<path fill="none" stroke="#63b8ff" d="M612.39,-111.55C603.41,-103.13 592.28,-92.69 583.05,-84.04"/>
<polygon fill="#63b8ff" stroke="#63b8ff" points="585.7,-81.73 576.01,-77.44 580.92,-86.84 585.7,-81.73"/>
</a>
</g>
</g>
<!-- Node10 -->
<g id="Node000010" class="node">
<title>Node10</title>
<g id="a_Node000010"><a xlink:href="ConfigService_8hpp.html" target="_top" xlink:title=" ">
<polygon fill="white" stroke="#666666" points="771,-76 614.75,-76 614.75,-56 771,-56 771,-76"/>
<text text-anchor="middle" x="692.88" y="-62.5" font-family="Helvetica,sans-Serif" font-size="10.00">validation&#45;api/ConfigService.hpp</text>
</a>
</g>
</g>
<!-- Node7&#45;&gt;Node10 -->
<g id="edge9_Node000007_Node000010" class="edge">
<title>Node7&#45;&gt;Node10</title>
<g id="a_edge9_Node000007_Node000010"><a xlink:title=" ">
<path fill="none" stroke="#63b8ff" d="M645.36,-111.55C654.34,-103.13 665.47,-92.69 674.7,-84.04"/>
<polygon fill="#63b8ff" stroke="#63b8ff" points="676.83,-86.84 681.74,-77.44 672.05,-81.73 676.83,-86.84"/>
</a>
</g>
</g>
<!-- Node15 -->
<g id="Node000015" class="node">
<title>Node15</title>
<g id="a_Node000015"><a xlink:href="IService_8hpp.html" target="_top" xlink:title=" ">
<polygon fill="white" stroke="#666666" points="920.25,-76 789.5,-76 789.5,-56 920.25,-56 920.25,-76"/>
<text text-anchor="middle" x="854.88" y="-62.5" font-family="Helvetica,sans-Serif" font-size="10.00">validation&#45;api/IService.hpp</text>
</a>
</g>
</g>
<!-- Node7&#45;&gt;Node15 -->
<g id="edge14_Node000007_Node000015" class="edge">
<title>Node7&#45;&gt;Node15</title>
<g id="a_edge14_Node000007_Node000015"><a xlink:title=" ">
<path fill="none" stroke="#63b8ff" d="M687.08,-111.55C724.72,-101.55 773.08,-88.72 808.2,-79.39"/>
<polygon fill="#63b8ff" stroke="#63b8ff" points="808.88,-82.83 817.64,-76.88 807.08,-76.07 808.88,-82.83"/>
</a>
</g>
</g>
<!-- Node11 -->
<g id="Node000011" class="node">
<title>Node11</title>
<g id="a_Node000011"><a xlink:title=" ">
<polygon fill="#e0e0e0" stroke="#999999" points="574,-20 489.75,-20 489.75,0 574,0 574,-20"/>
<text text-anchor="middle" x="531.88" y="-6.5" font-family="Helvetica,sans-Serif" font-size="10.00">spdlog/spdlog.h</text>
</a>
</g>
</g>
<!-- Node10&#45;&gt;Node11 -->
<g id="edge10_Node000010_Node000011" class="edge">
<title>Node10&#45;&gt;Node11</title>
<g id="a_edge10_Node000010_Node000011"><a xlink:title=" ">
<path fill="none" stroke="#63b8ff" d="M664.83,-55.59C638.79,-46.86 599.77,-33.77 570.73,-24.03"/>
<polygon fill="#63b8ff" stroke="#63b8ff" points="572.17,-20.82 561.57,-20.96 569.94,-27.46 572.17,-20.82"/>
</a>
</g>
</g>
<!-- Node12 -->
<g id="Node000012" class="node">
<title>Node12</title>
<g id="a_Node000012"><a xlink:title=" ">
<polygon fill="#e0e0e0" stroke="#999999" points="681.25,-20 592.5,-20 592.5,0 681.25,0 681.25,-20"/>
<text text-anchor="middle" x="636.88" y="-6.5" font-family="Helvetica,sans-Serif" font-size="10.00">boost/thread.hpp</text>
</a>
</g>
</g>
<!-- Node10&#45;&gt;Node12 -->
<g id="edge11_Node000010_Node000012" class="edge">
<title>Node10&#45;&gt;Node12</title>
<g id="a_edge11_Node000010_Node000012"><a xlink:title=" ">
<path fill="none" stroke="#63b8ff" d="M683.12,-55.59C675.25,-48.01 663.98,-37.13 654.53,-28.02"/>
<polygon fill="#63b8ff" stroke="#63b8ff" points="657.24,-25.77 647.61,-21.35 652.38,-30.81 657.24,-25.77"/>
</a>
</g>
</g>
<!-- Node13 -->
<g id="Node000013" class="node">
<title>Node13</title>
<g id="a_Node000013"><a xlink:title=" ">
<polygon fill="#e0e0e0" stroke="#999999" points="796.75,-20 699,-20 699,0 796.75,0 796.75,-20"/>
<text text-anchor="middle" x="747.88" y="-6.5" font-family="Helvetica,sans-Serif" font-size="10.00">nlohmann/json.hpp</text>
</a>
</g>
</g>
<!-- Node10&#45;&gt;Node13 -->
<g id="edge12_Node000010_Node000013" class="edge">
<title>Node10&#45;&gt;Node13</title>
<g id="a_edge12_Node000010_Node000013"><a xlink:title=" ">
<path fill="none" stroke="#63b8ff" d="M702.46,-55.59C710.11,-48.08 721.03,-37.35 730.25,-28.3"/>
<polygon fill="#63b8ff" stroke="#63b8ff" points="732.64,-30.86 737.32,-21.36 727.74,-25.87 732.64,-30.86"/>
</a>
</g>
</g>
<!-- Node14 -->
<g id="Node000014" class="node">
<title>Node14</title>
<g id="a_Node000014"><a xlink:title=" ">
<polygon fill="#e0e0e0" stroke="#999999" points="883.12,-20 814.62,-20 814.62,0 883.12,0 883.12,-20"/>
<text text-anchor="middle" x="848.88" y="-6.5" font-family="Helvetica,sans-Serif" font-size="10.00">pugixml.hpp</text>
</a>
</g>
</g>
<!-- Node10&#45;&gt;Node14 -->
<g id="edge13_Node000010_Node000014" class="edge">
<title>Node10&#45;&gt;Node14</title>
<g id="a_edge13_Node000010_Node000014"><a xlink:title=" ">
<path fill="none" stroke="#63b8ff" d="M720.05,-55.59C745.17,-46.9 782.76,-33.89 810.85,-24.16"/>
<polygon fill="#63b8ff" stroke="#63b8ff" points="811.75,-27.55 820.06,-20.97 809.46,-20.94 811.75,-27.55"/>
</a>
</g>
</g>
</g>
</svg>
