<?xml version="1.0" encoding="UTF-8" standalone="no"?>
<!DOCTYPE svg PUBLIC "-//W3C//DTD SVG 1.1//EN"
 "http://www.w3.org/Graphics/SVG/1.1/DTD/svg11.dtd">
<!-- Generated by graphviz version 12.2.1 (0)
 -->
<!-- Title: include/validation&#45;api/ValidationServer.hpp Pages: 1 -->
<svg width="493pt" height="152pt"
 viewBox="0.00 0.00 493.25 152.00" xmlns="http://www.w3.org/2000/svg" xmlns:xlink="http://www.w3.org/1999/xlink">
<g id="graph0" class="graph" transform="scale(1 1) rotate(0) translate(4 148)">
<title>include/validation&#45;api/ValidationServer.hpp</title>
<!-- Node1 -->
<g id="Node000001" class="node">
<title>Node1</title>
<g id="a_Node000001"><a xlink:title=" ">
<polygon fill="#999999" stroke="#666666" points="255.88,-144 131.88,-144 131.88,-112 255.88,-112 255.88,-144"/>
<text text-anchor="start" x="139.88" y="-130.5" font-family="Helvetica,sans-Serif" font-size="10.00">include/validation</text>
<text text-anchor="middle" x="193.88" y="-118.5" font-family="Helvetica,sans-Serif" font-size="10.00">&#45;api/ValidationServer.hpp</text>
</a>
</g>
</g>
<!-- Node2 -->
<g id="Node000002" class="node">
<title>Node2</title>
<g id="a_Node000002"><a xlink:title=" ">
<polygon fill="#e0e0e0" stroke="#999999" points="79.75,-76 0,-76 0,-56 79.75,-56 79.75,-76"/>
<text text-anchor="middle" x="39.88" y="-62.5" font-family="Helvetica,sans-Serif" font-size="10.00">boost/asio.hpp</text>
</a>
</g>
</g>
<!-- Node1&#45;&gt;Node2 -->
<g id="edge1_Node000001_Node000002" class="edge">
<title>Node1&#45;&gt;Node2</title>
<g id="a_edge1_Node000001_Node000002"><a xlink:title=" ">
<path fill="none" stroke="#63b8ff" d="M154.22,-111.55C129.6,-101.96 98.26,-89.75 74.62,-80.54"/>
<polygon fill="#63b8ff" stroke="#63b8ff" points="76.02,-77.33 65.43,-76.96 73.48,-83.85 76.02,-77.33"/>
</a>
</g>
</g>
<!-- Node3 -->
<g id="Node000003" class="node">
<title>Node3</title>
<g id="a_Node000003"><a xlink:title=" ">
<polygon fill="#e0e0e0" stroke="#999999" points="161.88,-76 97.88,-76 97.88,-56 161.88,-56 161.88,-76"/>
<text text-anchor="middle" x="129.88" y="-62.5" font-family="Helvetica,sans-Serif" font-size="10.00">semaphore</text>
</a>
</g>
</g>
<!-- Node1&#45;&gt;Node3 -->
<g id="edge2_Node000001_Node000003" class="edge">
<title>Node1&#45;&gt;Node3</title>
<g id="a_edge2_Node000001_Node000003"><a xlink:title=" ">
<path fill="none" stroke="#63b8ff" d="M177.39,-111.55C168.41,-103.13 157.28,-92.69 148.05,-84.04"/>
<polygon fill="#63b8ff" stroke="#63b8ff" points="150.7,-81.73 141.01,-77.44 145.92,-86.84 150.7,-81.73"/>
</a>
</g>
</g>
<!-- Node4 -->
<g id="Node000004" class="node">
<title>Node4</title>
<g id="a_Node000004"><a xlink:href="ConfigService_8hpp.html" target="_top" xlink:title=" ">
<polygon fill="white" stroke="#666666" points="336,-76 179.75,-76 179.75,-56 336,-56 336,-76"/>
<text text-anchor="middle" x="257.88" y="-62.5" font-family="Helvetica,sans-Serif" font-size="10.00">validation&#45;api/ConfigService.hpp</text>
</a>
</g>
</g>
<!-- Node1&#45;&gt;Node4 -->
<g id="edge3_Node000001_Node000004" class="edge">
<title>Node1&#45;&gt;Node4</title>
<g id="a_edge3_Node000001_Node000004"><a xlink:title=" ">
<path fill="none" stroke="#63b8ff" d="M210.36,-111.55C219.34,-103.13 230.47,-92.69 239.7,-84.04"/>
<polygon fill="#63b8ff" stroke="#63b8ff" points="241.83,-86.84 246.74,-77.44 237.05,-81.73 241.83,-86.84"/>
</a>
</g>
</g>
<!-- Node9 -->
<g id="Node000009" class="node">
<title>Node9</title>
<g id="a_Node000009"><a xlink:href="IService_8hpp.html" target="_top" xlink:title=" ">
<polygon fill="white" stroke="#666666" points="485.25,-76 354.5,-76 354.5,-56 485.25,-56 485.25,-76"/>
<text text-anchor="middle" x="419.88" y="-62.5" font-family="Helvetica,sans-Serif" font-size="10.00">validation&#45;api/IService.hpp</text>
</a>
</g>
</g>
<!-- Node1&#45;&gt;Node9 -->
<g id="edge8_Node000001_Node000009" class="edge">
<title>Node1&#45;&gt;Node9</title>
<g id="a_edge8_Node000001_Node000009"><a xlink:title=" ">
<path fill="none" stroke="#63b8ff" d="M252.08,-111.55C289.72,-101.55 338.08,-88.72 373.2,-79.39"/>
<polygon fill="#63b8ff" stroke="#63b8ff" points="373.88,-82.83 382.64,-76.88 372.08,-76.07 373.88,-82.83"/>
</a>
</g>
</g>
<!-- Node5 -->
<g id="Node000005" class="node">
<title>Node5</title>
<g id="a_Node000005"><a xlink:title=" ">
<polygon fill="#e0e0e0" stroke="#999999" points="139,-20 54.75,-20 54.75,0 139,0 139,-20"/>
<text text-anchor="middle" x="96.88" y="-6.5" font-family="Helvetica,sans-Serif" font-size="10.00">spdlog/spdlog.h</text>
</a>
</g>
</g>
<!-- Node4&#45;&gt;Node5 -->
<g id="edge4_Node000004_Node000005" class="edge">
<title>Node4&#45;&gt;Node5</title>
<g id="a_edge4_Node000004_Node000005"><a xlink:title=" ">
<path fill="none" stroke="#63b8ff" d="M229.83,-55.59C203.79,-46.86 164.77,-33.77 135.73,-24.03"/>
<polygon fill="#63b8ff" stroke="#63b8ff" points="137.17,-20.82 126.57,-20.96 134.94,-27.46 137.17,-20.82"/>
</a>
</g>
</g>
<!-- Node6 -->
<g id="Node000006" class="node">
<title>Node6</title>
<g id="a_Node000006"><a xlink:title=" ">
<polygon fill="#e0e0e0" stroke="#999999" points="246.25,-20 157.5,-20 157.5,0 246.25,0 246.25,-20"/>
<text text-anchor="middle" x="201.88" y="-6.5" font-family="Helvetica,sans-Serif" font-size="10.00">boost/thread.hpp</text>
</a>
</g>
</g>
<!-- Node4&#45;&gt;Node6 -->
<g id="edge5_Node000004_Node000006" class="edge">
<title>Node4&#45;&gt;Node6</title>
<g id="a_edge5_Node000004_Node000006"><a xlink:title=" ">
<path fill="none" stroke="#63b8ff" d="M248.12,-55.59C240.25,-48.01 228.98,-37.13 219.53,-28.02"/>
<polygon fill="#63b8ff" stroke="#63b8ff" points="222.24,-25.77 212.61,-21.35 217.38,-30.81 222.24,-25.77"/>
</a>
</g>
</g>
<!-- Node7 -->
<g id="Node000007" class="node">
<title>Node7</title>
<g id="a_Node000007"><a xlink:title=" ">
<polygon fill="#e0e0e0" stroke="#999999" points="361.75,-20 264,-20 264,0 361.75,0 361.75,-20"/>
<text text-anchor="middle" x="312.88" y="-6.5" font-family="Helvetica,sans-Serif" font-size="10.00">nlohmann/json.hpp</text>
</a>
</g>
</g>
<!-- Node4&#45;&gt;Node7 -->
<g id="edge6_Node000004_Node000007" class="edge">
<title>Node4&#45;&gt;Node7</title>
<g id="a_edge6_Node000004_Node000007"><a xlink:title=" ">
<path fill="none" stroke="#63b8ff" d="M267.46,-55.59C275.11,-48.08 286.03,-37.35 295.25,-28.3"/>
<polygon fill="#63b8ff" stroke="#63b8ff" points="297.64,-30.86 302.32,-21.36 292.74,-25.87 297.64,-30.86"/>
</a>
</g>
</g>
<!-- Node8 -->
<g id="Node000008" class="node">
<title>Node8</title>
<g id="a_Node000008"><a xlink:title=" ">
<polygon fill="#e0e0e0" stroke="#999999" points="448.12,-20 379.62,-20 379.62,0 448.12,0 448.12,-20"/>
<text text-anchor="middle" x="413.88" y="-6.5" font-family="Helvetica,sans-Serif" font-size="10.00">pugixml.hpp</text>
</a>
</g>
</g>
<!-- Node4&#45;&gt;Node8 -->
<g id="edge7_Node000004_Node000008" class="edge">
<title>Node4&#45;&gt;Node8</title>
<g id="a_edge7_Node000004_Node000008"><a xlink:title=" ">
<path fill="none" stroke="#63b8ff" d="M285.05,-55.59C310.17,-46.9 347.76,-33.89 375.85,-24.16"/>
<polygon fill="#63b8ff" stroke="#63b8ff" points="376.75,-27.55 385.06,-20.97 374.46,-20.94 376.75,-27.55"/>
</a>
</g>
</g>
</g>
</svg>
