<?xml version="1.0" encoding="UTF-8" standalone="no"?>
<!DOCTYPE svg PUBLIC "-//W3C//DTD SVG 1.1//EN"
 "http://www.w3.org/Graphics/SVG/1.1/DTD/svg11.dtd">
<!-- Generated by graphviz version 10.0.1 (0)
 -->
<!-- Title: src/ValidationServer.cpp Pages: 1 -->
<svg width="689pt" height="212pt"
 viewBox="0.00 0.00 689.38 211.75" xmlns="http://www.w3.org/2000/svg" xmlns:xlink="http://www.w3.org/1999/xlink">
<g id="graph0" class="graph" transform="scale(1 1) rotate(0) translate(4 207.75)">
<title>src/ValidationServer.cpp</title>
<!-- Node1 -->
<g id="Node000001" class="node">
<title>Node1</title>
<g id="a_Node000001"><a xlink:title=" ">
<polygon fill="#999999" stroke="#666666" points="317.62,-203.75 184.62,-203.75 184.62,-183 317.62,-183 317.62,-203.75"/>
<text text-anchor="middle" x="251.12" y="-190.25" font-family="Helvetica,sans-Serif" font-size="10.00">src/ValidationServer.cpp</text>
</a>
</g>
</g>
<!-- Node2 -->
<g id="Node000002" class="node">
<title>Node2</title>
<g id="a_Node000002"><a xlink:title=" ">
<polygon fill="#e0e0e0" stroke="#999999" points="78.25,-140.62 0,-140.62 0,-119.88 78.25,-119.88 78.25,-140.62"/>
<text text-anchor="middle" x="39.12" y="-127.12" font-family="Helvetica,sans-Serif" font-size="10.00">fmt/format.h</text>
</a>
</g>
</g>
<!-- Node1&#45;&gt;Node2 -->
<g id="edge1_Node000001_Node000002" class="edge">
<title>Node1&#45;&gt;Node2</title>
<g id="a_edge1_Node000001_Node000002"><a xlink:title=" ">
<path fill="none" stroke="#63b8ff" d="M213.53,-182.51C180.19,-173.64 130.25,-160.03 87.12,-147 84.54,-146.22 81.88,-145.4 79.21,-144.56"/>
<polygon fill="#63b8ff" stroke="#63b8ff" points="80.28,-141.23 69.69,-141.51 78.14,-147.89 80.28,-141.23"/>
</a>
</g>
</g>
<!-- Node3 -->
<g id="Node000003" class="node">
<title>Node3</title>
<g id="a_Node000003"><a xlink:title=" ">
<polygon fill="#e0e0e0" stroke="#999999" points="211.62,-140.62 96.62,-140.62 96.62,-119.88 211.62,-119.88 211.62,-140.62"/>
<text text-anchor="middle" x="154.12" y="-127.12" font-family="Helvetica,sans-Serif" font-size="10.00">boost/asio/write.hpp</text>
</a>
</g>
</g>
<!-- Node1&#45;&gt;Node3 -->
<g id="edge2_Node000001_Node000003" class="edge">
<title>Node1&#45;&gt;Node3</title>
<g id="a_edge2_Node000001_Node000003"><a xlink:title=" ">
<path fill="none" stroke="#63b8ff" d="M235.54,-182.55C220.41,-173.02 197.18,-158.38 179.41,-147.18"/>
<polygon fill="#63b8ff" stroke="#63b8ff" points="181.28,-144.22 170.95,-141.85 177.55,-150.15 181.28,-144.22"/>
</a>
</g>
</g>
<!-- Node4 -->
<g id="Node000004" class="node">
<title>Node4</title>
<g id="a_Node000004"><a xlink:title=" ">
<polygon fill="#e0e0e0" stroke="#999999" points="273,-140.62 229.25,-140.62 229.25,-119.88 273,-119.88 273,-140.62"/>
<text text-anchor="middle" x="251.12" y="-127.12" font-family="Helvetica,sans-Serif" font-size="10.00">string</text>
</a>
</g>
</g>
<!-- Node1&#45;&gt;Node4 -->
<g id="edge3_Node000001_Node000004" class="edge">
<title>Node1&#45;&gt;Node4</title>
<g id="a_edge3_Node000001_Node000004"><a xlink:title=" ">
<path fill="none" stroke="#63b8ff" d="M251.12,-182.55C251.12,-174.4 251.12,-162.51 251.12,-152.23"/>
<polygon fill="#63b8ff" stroke="#63b8ff" points="254.63,-152.36 251.13,-142.36 247.63,-152.36 254.63,-152.36"/>
</a>
</g>
</g>
<!-- Node5 -->
<g id="Node000005" class="node">
<title>Node5</title>
<g id="a_Node000005"><a xlink:href="ValidationServer_8hpp.html" target="_top" xlink:title=" ">
<polygon fill="white" stroke="#666666" points="426.75,-147 291.5,-147 291.5,-113.5 426.75,-113.5 426.75,-147"/>
<text text-anchor="start" x="299.5" y="-133.5" font-family="Helvetica,sans-Serif" font-size="10.00">validation&#45;api/Validation</text>
<text text-anchor="middle" x="359.12" y="-120.75" font-family="Helvetica,sans-Serif" font-size="10.00">Server.hpp</text>
</a>
</g>
</g>
<!-- Node1&#45;&gt;Node5 -->
<g id="edge4_Node000001_Node000005" class="edge">
<title>Node1&#45;&gt;Node5</title>
<g id="a_edge4_Node000001_Node000005"><a xlink:title=" ">
<path fill="none" stroke="#63b8ff" d="M268.48,-182.55C282.56,-174.58 302.95,-163.04 320.82,-152.93"/>
<polygon fill="#63b8ff" stroke="#63b8ff" points="322.14,-156.2 329.12,-148.23 318.7,-150.11 322.14,-156.2"/>
</a>
</g>
</g>
<!-- Node14 -->
<g id="Node000014" class="node">
<title>Node14</title>
<g id="a_Node000014"><a xlink:title=" ">
<polygon fill="#e0e0e0" stroke="#999999" points="533.88,-140.62 444.38,-140.62 444.38,-119.88 533.88,-119.88 533.88,-140.62"/>
<text text-anchor="middle" x="489.12" y="-127.12" font-family="Helvetica,sans-Serif" font-size="10.00">lib/Helpers.hpp</text>
</a>
</g>
</g>
<!-- Node1&#45;&gt;Node14 -->
<g id="edge13_Node000001_Node000014" class="edge">
<title>Node1&#45;&gt;Node14</title>
<g id="a_edge13_Node000001_Node000014"><a xlink:title=" ">
<path fill="none" stroke="#63b8ff" d="M293.89,-182.5C331.49,-173.68 387.61,-160.15 436.12,-147 439.4,-146.11 442.78,-145.17 446.18,-144.2"/>
<polygon fill="#63b8ff" stroke="#63b8ff" points="446.88,-147.64 455.51,-141.5 444.93,-140.92 446.88,-147.64"/>
</a>
</g>
</g>
<!-- Node6 -->
<g id="Node000006" class="node">
<title>Node6</title>
<g id="a_Node000006"><a xlink:title=" ">
<polygon fill="#e0e0e0" stroke="#999999" points="235.75,-77.5 148.5,-77.5 148.5,-56.75 235.75,-56.75 235.75,-77.5"/>
<text text-anchor="middle" x="192.12" y="-64" font-family="Helvetica,sans-Serif" font-size="10.00">boost/asio.hpp</text>
</a>
</g>
</g>
<!-- Node5&#45;&gt;Node6 -->
<g id="edge5_Node000005_Node000006" class="edge">
<title>Node5&#45;&gt;Node6</title>
<g id="a_edge5_Node000005_Node000006"><a xlink:title=" ">
<path fill="none" stroke="#63b8ff" d="M314.81,-113.03C288.21,-103.29 254.75,-91.05 229.5,-81.8"/>
<polygon fill="#63b8ff" stroke="#63b8ff" points="230.89,-78.59 220.29,-78.44 228.48,-85.16 230.89,-78.59"/>
</a>
</g>
</g>
<!-- Node7 -->
<g id="Node000007" class="node">
<title>Node7</title>
<g id="a_Node000007"><a xlink:title=" ">
<polygon fill="#e0e0e0" stroke="#999999" points="324.5,-77.5 253.75,-77.5 253.75,-56.75 324.5,-56.75 324.5,-77.5"/>
<text text-anchor="middle" x="289.12" y="-64" font-family="Helvetica,sans-Serif" font-size="10.00">semaphore</text>
</a>
</g>
</g>
<!-- Node5&#45;&gt;Node7 -->
<g id="edge6_Node000005_Node000007" class="edge">
<title>Node5&#45;&gt;Node7</title>
<g id="a_edge6_Node000005_Node000007"><a xlink:title=" ">
<path fill="none" stroke="#63b8ff" d="M340.73,-113.19C330.93,-104.63 318.87,-94.1 308.87,-85.37"/>
<polygon fill="#63b8ff" stroke="#63b8ff" points="311.37,-82.9 301.54,-78.96 306.77,-88.18 311.37,-82.9"/>
</a>
</g>
</g>
<!-- Node8 -->
<g id="Node000008" class="node">
<title>Node8</title>
<g id="a_Node000008"><a xlink:href="ConfigService_8hpp.html" target="_top" xlink:title=" ">
<polygon fill="white" stroke="#666666" points="517.25,-77.5 343,-77.5 343,-56.75 517.25,-56.75 517.25,-77.5"/>
<text text-anchor="middle" x="430.12" y="-64" font-family="Helvetica,sans-Serif" font-size="10.00">validation&#45;api/ConfigService.hpp</text>
</a>
</g>
</g>
<!-- Node5&#45;&gt;Node8 -->
<g id="edge7_Node000005_Node000008" class="edge">
<title>Node5&#45;&gt;Node8</title>
<g id="a_edge7_Node000005_Node000008"><a xlink:title=" ">
<path fill="none" stroke="#63b8ff" d="M377.78,-113.19C387.72,-104.63 399.95,-94.1 410.09,-85.37"/>
<polygon fill="#63b8ff" stroke="#63b8ff" points="412.25,-88.13 417.55,-78.95 407.68,-82.83 412.25,-88.13"/>
</a>
</g>
</g>
<!-- Node13 -->
<g id="Node000013" class="node">
<title>Node13</title>
<g id="a_Node000013"><a xlink:href="IService_8hpp.html" target="_top" xlink:title=" ">
<polygon fill="white" stroke="#666666" points="681.38,-77.5 534.88,-77.5 534.88,-56.75 681.38,-56.75 681.38,-77.5"/>
<text text-anchor="middle" x="608.12" y="-64" font-family="Helvetica,sans-Serif" font-size="10.00">validation&#45;api/IService.hpp</text>
</a>
</g>
</g>
<!-- Node5&#45;&gt;Node13 -->
<g id="edge12_Node000005_Node000013" class="edge">
<title>Node5&#45;&gt;Node13</title>
<g id="a_edge12_Node000005_Node000013"><a xlink:title=" ">
<path fill="none" stroke="#63b8ff" d="M425.2,-113.03C466.64,-102.86 519.24,-89.94 557.39,-80.58"/>
<polygon fill="#63b8ff" stroke="#63b8ff" points="557.9,-84.06 566.77,-78.28 556.23,-77.26 557.9,-84.06"/>
</a>
</g>
</g>
<!-- Node9 -->
<g id="Node000009" class="node">
<title>Node9</title>
<g id="a_Node000009"><a xlink:title=" ">
<polygon fill="#e0e0e0" stroke="#999999" points="301.38,-20.75 208.88,-20.75 208.88,0 301.38,0 301.38,-20.75"/>
<text text-anchor="middle" x="255.12" y="-7.25" font-family="Helvetica,sans-Serif" font-size="10.00">spdlog/spdlog.h</text>
</a>
</g>
</g>
<!-- Node8&#45;&gt;Node9 -->
<g id="edge8_Node000008_Node000009" class="edge">
<title>Node8&#45;&gt;Node9</title>
<g id="a_edge8_Node000008_Node000009"><a xlink:title=" ">
<path fill="none" stroke="#63b8ff" d="M398.84,-56.34C370.43,-47.45 328.32,-34.27 297.02,-24.48"/>
<polygon fill="#63b8ff" stroke="#63b8ff" points="298.47,-21.27 287.88,-21.62 296.38,-27.95 298.47,-21.27"/>
</a>
</g>
</g>
<!-- Node10 -->
<g id="Node000010" class="node">
<title>Node10</title>
<g id="a_Node000010"><a xlink:title=" ">
<polygon fill="#e0e0e0" stroke="#999999" points="418.38,-20.75 319.88,-20.75 319.88,0 418.38,0 418.38,-20.75"/>
<text text-anchor="middle" x="369.12" y="-7.25" font-family="Helvetica,sans-Serif" font-size="10.00">boost/thread.hpp</text>
</a>
</g>
</g>
<!-- Node8&#45;&gt;Node10 -->
<g id="edge9_Node000008_Node000010" class="edge">
<title>Node8&#45;&gt;Node10</title>
<g id="a_edge9_Node000008_Node000010"><a xlink:title=" ">
<path fill="none" stroke="#63b8ff" d="M419.22,-56.34C410.63,-48.63 398.45,-37.7 388.25,-28.54"/>
<polygon fill="#63b8ff" stroke="#63b8ff" points="390.84,-26.16 381.06,-22.09 386.17,-31.37 390.84,-26.16"/>
</a>
</g>
</g>
<!-- Node11 -->
<g id="Node000011" class="node">
<title>Node11</title>
<g id="a_Node000011"><a xlink:title=" ">
<polygon fill="#e0e0e0" stroke="#999999" points="545.62,-20.75 436.62,-20.75 436.62,0 545.62,0 545.62,-20.75"/>
<text text-anchor="middle" x="491.12" y="-7.25" font-family="Helvetica,sans-Serif" font-size="10.00">nlohmann/json.hpp</text>
</a>
</g>
</g>
<!-- Node8&#45;&gt;Node11 -->
<g id="edge10_Node000008_Node000011" class="edge">
<title>Node8&#45;&gt;Node11</title>
<g id="a_edge10_Node000008_Node000011"><a xlink:title=" ">
<path fill="none" stroke="#63b8ff" d="M441.03,-56.34C449.62,-48.63 461.8,-37.7 472,-28.54"/>
<polygon fill="#63b8ff" stroke="#63b8ff" points="474.08,-31.37 479.19,-22.09 469.41,-26.16 474.08,-31.37"/>
</a>
</g>
</g>
<!-- Node12 -->
<g id="Node000012" class="node">
<title>Node12</title>
<g id="a_Node000012"><a xlink:title=" ">
<polygon fill="#e0e0e0" stroke="#999999" points="640.5,-20.75 563.75,-20.75 563.75,0 640.5,0 640.5,-20.75"/>
<text text-anchor="middle" x="602.12" y="-7.25" font-family="Helvetica,sans-Serif" font-size="10.00">pugixml.hpp</text>
</a>
</g>
</g>
<!-- Node8&#45;&gt;Node12 -->
<g id="edge11_Node000008_Node000012" class="edge">
<title>Node8&#45;&gt;Node12</title>
<g id="a_edge11_Node000008_Node000012"><a xlink:title=" ">
<path fill="none" stroke="#63b8ff" d="M460.88,-56.34C488.67,-47.49 529.82,-34.39 560.55,-24.61"/>
<polygon fill="#63b8ff" stroke="#63b8ff" points="561.44,-28 569.91,-21.63 559.32,-21.33 561.44,-28"/>
</a>
</g>
</g>
</g>
</svg>
