<?xml version="1.0" encoding="UTF-8" standalone="no"?>
<!DOCTYPE svg PUBLIC "-//W3C//DTD SVG 1.1//EN"
 "http://www.w3.org/Graphics/SVG/1.1/DTD/svg11.dtd">
<!-- Generated by graphviz version 10.0.1 (0)
 -->
<!-- Title: src/ValidationServer.cpp Pages: 1 -->
<svg width="861pt" height="212pt"
 viewBox="0.00 0.00 861.38 211.75" xmlns="http://www.w3.org/2000/svg" xmlns:xlink="http://www.w3.org/1999/xlink">
<g id="graph0" class="graph" transform="scale(1 1) rotate(0) translate(4 207.75)">
<title>src/ValidationServer.cpp</title>
<!-- Node1 -->
<g id="Node000001" class="node">
<title>Node1</title>
<g id="a_Node000001"><a xlink:title=" ">
<polygon fill="#999999" stroke="#666666" points="392.62,-203.75 259.62,-203.75 259.62,-183 392.62,-183 392.62,-203.75"/>
<text text-anchor="middle" x="326.12" y="-190.25" font-family="Helvetica,sans-Serif" font-size="10.00">src/ValidationServer.cpp</text>
</a>
</g>
</g>
<!-- Node2 -->
<g id="Node000002" class="node">
<title>Node2</title>
<g id="a_Node000002"><a xlink:title=" ">
<polygon fill="#e0e0e0" stroke="#999999" points="78.25,-140.62 0,-140.62 0,-119.88 78.25,-119.88 78.25,-140.62"/>
<text text-anchor="middle" x="39.12" y="-127.12" font-family="Helvetica,sans-Serif" font-size="10.00">fmt/format.h</text>
</a>
</g>
</g>
<!-- Node1&#45;&gt;Node2 -->
<g id="edge1_Node000001_Node000002" class="edge">
<title>Node1&#45;&gt;Node2</title>
<g id="a_edge1_Node000001_Node000002"><a xlink:title=" ">
<path fill="none" stroke="#63b8ff" d="M261.97,-182.51C213.57,-174.51 145.71,-162.11 87.12,-147 84.16,-146.24 81.11,-145.39 78.06,-144.49"/>
<polygon fill="#63b8ff" stroke="#63b8ff" points="79.15,-141.17 68.56,-141.56 77.08,-147.85 79.15,-141.17"/>
</a>
</g>
</g>
<!-- Node3 -->
<g id="Node000003" class="node">
<title>Node3</title>
<g id="a_Node000003"><a xlink:title=" ">
<polygon fill="#e0e0e0" stroke="#999999" points="250.12,-140.62 96.12,-140.62 96.12,-119.88 250.12,-119.88 250.12,-140.62"/>
<text text-anchor="middle" x="173.12" y="-127.12" font-family="Helvetica,sans-Serif" font-size="10.00">boost/asio/steady_timer.hpp</text>
</a>
</g>
</g>
<!-- Node1&#45;&gt;Node3 -->
<g id="edge2_Node000001_Node000003" class="edge">
<title>Node1&#45;&gt;Node3</title>
<g id="a_edge2_Node000001_Node000003"><a xlink:title=" ">
<path fill="none" stroke="#63b8ff" d="M301.54,-182.55C276.23,-172.44 236.54,-156.59 207.99,-145.18"/>
<polygon fill="#63b8ff" stroke="#63b8ff" points="209.64,-142.07 199.05,-141.61 207.04,-148.57 209.64,-142.07"/>
</a>
</g>
</g>
<!-- Node4 -->
<g id="Node000004" class="node">
<title>Node4</title>
<g id="a_Node000004"><a xlink:title=" ">
<polygon fill="#e0e0e0" stroke="#999999" points="383.62,-140.62 268.62,-140.62 268.62,-119.88 383.62,-119.88 383.62,-140.62"/>
<text text-anchor="middle" x="326.12" y="-127.12" font-family="Helvetica,sans-Serif" font-size="10.00">boost/asio/write.hpp</text>
</a>
</g>
</g>
<!-- Node1&#45;&gt;Node4 -->
<g id="edge3_Node000001_Node000004" class="edge">
<title>Node1&#45;&gt;Node4</title>
<g id="a_edge3_Node000001_Node000004"><a xlink:title=" ">
<path fill="none" stroke="#63b8ff" d="M326.12,-182.55C326.12,-174.4 326.12,-162.51 326.12,-152.23"/>
<polygon fill="#63b8ff" stroke="#63b8ff" points="329.63,-152.36 326.13,-142.36 322.63,-152.36 329.63,-152.36"/>
</a>
</g>
</g>
<!-- Node5 -->
<g id="Node000005" class="node">
<title>Node5</title>
<g id="a_Node000005"><a xlink:title=" ">
<polygon fill="#e0e0e0" stroke="#999999" points="445,-140.62 401.25,-140.62 401.25,-119.88 445,-119.88 445,-140.62"/>
<text text-anchor="middle" x="423.12" y="-127.12" font-family="Helvetica,sans-Serif" font-size="10.00">string</text>
</a>
</g>
</g>
<!-- Node1&#45;&gt;Node5 -->
<g id="edge4_Node000001_Node000005" class="edge">
<title>Node1&#45;&gt;Node5</title>
<g id="a_edge4_Node000001_Node000005"><a xlink:title=" ">
<path fill="none" stroke="#63b8ff" d="M341.71,-182.55C356.84,-173.02 380.07,-158.38 397.84,-147.18"/>
<polygon fill="#63b8ff" stroke="#63b8ff" points="399.7,-150.15 406.3,-141.85 395.97,-144.22 399.7,-150.15"/>
</a>
</g>
</g>
<!-- Node6 -->
<g id="Node000006" class="node">
<title>Node6</title>
<g id="a_Node000006"><a xlink:href="ValidationServer_8hpp.html" target="_top" xlink:title=" ">
<polygon fill="white" stroke="#666666" points="598.75,-147 463.5,-147 463.5,-113.5 598.75,-113.5 598.75,-147"/>
<text text-anchor="start" x="471.5" y="-133.5" font-family="Helvetica,sans-Serif" font-size="10.00">validation&#45;api/Validation</text>
<text text-anchor="middle" x="531.12" y="-120.75" font-family="Helvetica,sans-Serif" font-size="10.00">Server.hpp</text>
</a>
</g>
</g>
<!-- Node1&#45;&gt;Node6 -->
<g id="edge5_Node000001_Node000006" class="edge">
<title>Node1&#45;&gt;Node6</title>
<g id="a_edge5_Node000001_Node000006"><a xlink:title=" ">
<path fill="none" stroke="#63b8ff" d="M359.06,-182.55C387.78,-173.99 430.3,-161.31 465.88,-150.7"/>
<polygon fill="#63b8ff" stroke="#63b8ff" points="466.64,-154.13 475.23,-147.92 464.64,-147.42 466.64,-154.13"/>
</a>
</g>
</g>
<!-- Node7 -->
<g id="Node000007" class="node">
<title>Node7</title>
<g id="a_Node000007"><a xlink:title=" ">
<polygon fill="#e0e0e0" stroke="#999999" points="407.75,-77.5 320.5,-77.5 320.5,-56.75 407.75,-56.75 407.75,-77.5"/>
<text text-anchor="middle" x="364.12" y="-64" font-family="Helvetica,sans-Serif" font-size="10.00">boost/asio.hpp</text>
</a>
</g>
</g>
<!-- Node6&#45;&gt;Node7 -->
<g id="edge6_Node000006_Node000007" class="edge">
<title>Node6&#45;&gt;Node7</title>
<g id="a_edge6_Node000006_Node000007"><a xlink:title=" ">
<path fill="none" stroke="#63b8ff" d="M486.81,-113.03C460.21,-103.29 426.75,-91.05 401.5,-81.8"/>
<polygon fill="#63b8ff" stroke="#63b8ff" points="402.89,-78.59 392.29,-78.44 400.48,-85.16 402.89,-78.59"/>
</a>
</g>
</g>
<!-- Node8 -->
<g id="Node000008" class="node">
<title>Node8</title>
<g id="a_Node000008"><a xlink:title=" ">
<polygon fill="#e0e0e0" stroke="#999999" points="496.5,-77.5 425.75,-77.5 425.75,-56.75 496.5,-56.75 496.5,-77.5"/>
<text text-anchor="middle" x="461.12" y="-64" font-family="Helvetica,sans-Serif" font-size="10.00">semaphore</text>
</a>
</g>
</g>
<!-- Node6&#45;&gt;Node8 -->
<g id="edge7_Node000006_Node000008" class="edge">
<title>Node6&#45;&gt;Node8</title>
<g id="a_edge7_Node000006_Node000008"><a xlink:title=" ">
<path fill="none" stroke="#63b8ff" d="M512.73,-113.19C502.93,-104.63 490.87,-94.1 480.87,-85.37"/>
<polygon fill="#63b8ff" stroke="#63b8ff" points="483.37,-82.9 473.54,-78.96 478.77,-88.18 483.37,-82.9"/>
</a>
</g>
</g>
<!-- Node9 -->
<g id="Node000009" class="node">
<title>Node9</title>
<g id="a_Node000009"><a xlink:href="ConfigService_8hpp.html" target="_top" xlink:title=" ">
<polygon fill="white" stroke="#666666" points="689.25,-77.5 515,-77.5 515,-56.75 689.25,-56.75 689.25,-77.5"/>
<text text-anchor="middle" x="602.12" y="-64" font-family="Helvetica,sans-Serif" font-size="10.00">validation&#45;api/ConfigService.hpp</text>
</a>
</g>
</g>
<!-- Node6&#45;&gt;Node9 -->
<g id="edge8_Node000006_Node000009" class="edge">
<title>Node6&#45;&gt;Node9</title>
<g id="a_edge8_Node000006_Node000009"><a xlink:title=" ">
<path fill="none" stroke="#63b8ff" d="M549.78,-113.19C559.72,-104.63 571.95,-94.1 582.09,-85.37"/>
<polygon fill="#63b8ff" stroke="#63b8ff" points="584.25,-88.13 589.55,-78.95 579.68,-82.83 584.25,-88.13"/>
</a>
</g>
</g>
<!-- Node14 -->
<g id="Node000014" class="node">
<title>Node14</title>
<g id="a_Node000014"><a xlink:href="IService_8hpp.html" target="_top" xlink:title=" ">
<polygon fill="white" stroke="#666666" points="853.38,-77.5 706.88,-77.5 706.88,-56.75 853.38,-56.75 853.38,-77.5"/>
<text text-anchor="middle" x="780.12" y="-64" font-family="Helvetica,sans-Serif" font-size="10.00">validation&#45;api/IService.hpp</text>
</a>
</g>
</g>
<!-- Node6&#45;&gt;Node14 -->
<g id="edge13_Node000006_Node000014" class="edge">
<title>Node6&#45;&gt;Node14</title>
<g id="a_edge13_Node000006_Node000014"><a xlink:title=" ">
<path fill="none" stroke="#63b8ff" d="M597.2,-113.03C638.64,-102.86 691.24,-89.94 729.39,-80.58"/>
<polygon fill="#63b8ff" stroke="#63b8ff" points="729.9,-84.06 738.77,-78.28 728.23,-77.26 729.9,-84.06"/>
</a>
</g>
</g>
<!-- Node10 -->
<g id="Node000010" class="node">
<title>Node10</title>
<g id="a_Node000010"><a xlink:title=" ">
<polygon fill="#e0e0e0" stroke="#999999" points="473.38,-20.75 380.88,-20.75 380.88,0 473.38,0 473.38,-20.75"/>
<text text-anchor="middle" x="427.12" y="-7.25" font-family="Helvetica,sans-Serif" font-size="10.00">spdlog/spdlog.h</text>
</a>
</g>
</g>
<!-- Node9&#45;&gt;Node10 -->
<g id="edge9_Node000009_Node000010" class="edge">
<title>Node9&#45;&gt;Node10</title>
<g id="a_edge9_Node000009_Node000010"><a xlink:title=" ">
<path fill="none" stroke="#63b8ff" d="M570.84,-56.34C542.43,-47.45 500.32,-34.27 469.02,-24.48"/>
<polygon fill="#63b8ff" stroke="#63b8ff" points="470.47,-21.27 459.88,-21.62 468.38,-27.95 470.47,-21.27"/>
</a>
</g>
</g>
<!-- Node11 -->
<g id="Node000011" class="node">
<title>Node11</title>
<g id="a_Node000011"><a xlink:title=" ">
<polygon fill="#e0e0e0" stroke="#999999" points="590.38,-20.75 491.88,-20.75 491.88,0 590.38,0 590.38,-20.75"/>
<text text-anchor="middle" x="541.12" y="-7.25" font-family="Helvetica,sans-Serif" font-size="10.00">boost/thread.hpp</text>
</a>
</g>
</g>
<!-- Node9&#45;&gt;Node11 -->
<g id="edge10_Node000009_Node000011" class="edge">
<title>Node9&#45;&gt;Node11</title>
<g id="a_edge10_Node000009_Node000011"><a xlink:title=" ">
<path fill="none" stroke="#63b8ff" d="M591.22,-56.34C582.63,-48.63 570.45,-37.7 560.25,-28.54"/>
<polygon fill="#63b8ff" stroke="#63b8ff" points="562.84,-26.16 553.06,-22.09 558.17,-31.37 562.84,-26.16"/>
</a>
</g>
</g>
<!-- Node12 -->
<g id="Node000012" class="node">
<title>Node12</title>
<g id="a_Node000012"><a xlink:title=" ">
<polygon fill="#e0e0e0" stroke="#999999" points="717.62,-20.75 608.62,-20.75 608.62,0 717.62,0 717.62,-20.75"/>
<text text-anchor="middle" x="663.12" y="-7.25" font-family="Helvetica,sans-Serif" font-size="10.00">nlohmann/json.hpp</text>
</a>
</g>
</g>
<!-- Node9&#45;&gt;Node12 -->
<g id="edge11_Node000009_Node000012" class="edge">
<title>Node9&#45;&gt;Node12</title>
<g id="a_edge11_Node000009_Node000012"><a xlink:title=" ">
<path fill="none" stroke="#63b8ff" d="M613.03,-56.34C621.62,-48.63 633.8,-37.7 644,-28.54"/>
<polygon fill="#63b8ff" stroke="#63b8ff" points="646.08,-31.37 651.19,-22.09 641.41,-26.16 646.08,-31.37"/>
</a>
</g>
</g>
<!-- Node13 -->
<g id="Node000013" class="node">
<title>Node13</title>
<g id="a_Node000013"><a xlink:title=" ">
<polygon fill="#e0e0e0" stroke="#999999" points="812.5,-20.75 735.75,-20.75 735.75,0 812.5,0 812.5,-20.75"/>
<text text-anchor="middle" x="774.12" y="-7.25" font-family="Helvetica,sans-Serif" font-size="10.00">pugixml.hpp</text>
</a>
</g>
</g>
<!-- Node9&#45;&gt;Node13 -->
<g id="edge12_Node000009_Node000013" class="edge">
<title>Node9&#45;&gt;Node13</title>
<g id="a_edge12_Node000009_Node000013"><a xlink:title=" ">
<path fill="none" stroke="#63b8ff" d="M632.88,-56.34C660.67,-47.49 701.82,-34.39 732.55,-24.61"/>
<polygon fill="#63b8ff" stroke="#63b8ff" points="733.44,-28 741.91,-21.63 731.32,-21.33 733.44,-28"/>
</a>
</g>
</g>
</g>
</svg>
