<?xml version="1.0" encoding="UTF-8" standalone="no"?>
<!DOCTYPE svg PUBLIC "-//W3C//DTD SVG 1.1//EN"
 "http://www.w3.org/Graphics/SVG/1.1/DTD/svg11.dtd">
<!-- Generated by graphviz version 10.0.1 (0)
 -->
<!-- Title: include/validation&#45;api/ValidationServer.hpp Pages: 1 -->
<svg width="541pt" height="155pt"
 viewBox="0.00 0.00 540.88 155.00" xmlns="http://www.w3.org/2000/svg" xmlns:xlink="http://www.w3.org/1999/xlink">
<g id="graph0" class="graph" transform="scale(1 1) rotate(0) translate(4 151)">
<title>include/validation&#45;api/ValidationServer.hpp</title>
<!-- Node1 -->
<g id="Node000001" class="node">
<title>Node1</title>
<g id="a_Node000001"><a xlink:title=" ">
<polygon fill="#999999" stroke="#666666" points="279.75,-147 141.5,-147 141.5,-113.5 279.75,-113.5 279.75,-147"/>
<text text-anchor="start" x="149.5" y="-133.5" font-family="Helvetica,sans-Serif" font-size="10.00">include/validation</text>
<text text-anchor="middle" x="210.62" y="-120.75" font-family="Helvetica,sans-Serif" font-size="10.00">&#45;api/ValidationServer.hpp</text>
</a>
</g>
</g>
<!-- Node2 -->
<g id="Node000002" class="node">
<title>Node2</title>
<g id="a_Node000002"><a xlink:title=" ">
<polygon fill="#e0e0e0" stroke="#999999" points="87.25,-77.5 0,-77.5 0,-56.75 87.25,-56.75 87.25,-77.5"/>
<text text-anchor="middle" x="43.62" y="-64" font-family="Helvetica,sans-Serif" font-size="10.00">boost/asio.hpp</text>
</a>
</g>
</g>
<!-- Node1&#45;&gt;Node2 -->
<g id="edge1_Node000001_Node000002" class="edge">
<title>Node1&#45;&gt;Node2</title>
<g id="a_edge1_Node000001_Node000002"><a xlink:title=" ">
<path fill="none" stroke="#63b8ff" d="M166.31,-113.03C139.71,-103.29 106.25,-91.05 81,-81.8"/>
<polygon fill="#63b8ff" stroke="#63b8ff" points="82.39,-78.59 71.79,-78.44 79.98,-85.16 82.39,-78.59"/>
</a>
</g>
</g>
<!-- Node3 -->
<g id="Node000003" class="node">
<title>Node3</title>
<g id="a_Node000003"><a xlink:title=" ">
<polygon fill="#e0e0e0" stroke="#999999" points="176,-77.5 105.25,-77.5 105.25,-56.75 176,-56.75 176,-77.5"/>
<text text-anchor="middle" x="140.62" y="-64" font-family="Helvetica,sans-Serif" font-size="10.00">semaphore</text>
</a>
</g>
</g>
<!-- Node1&#45;&gt;Node3 -->
<g id="edge2_Node000001_Node000003" class="edge">
<title>Node1&#45;&gt;Node3</title>
<g id="a_edge2_Node000001_Node000003"><a xlink:title=" ">
<path fill="none" stroke="#63b8ff" d="M192.23,-113.19C182.43,-104.63 170.37,-94.1 160.37,-85.37"/>
<polygon fill="#63b8ff" stroke="#63b8ff" points="162.87,-82.9 153.04,-78.96 158.27,-88.18 162.87,-82.9"/>
</a>
</g>
</g>
<!-- Node4 -->
<g id="Node000004" class="node">
<title>Node4</title>
<g id="a_Node000004"><a xlink:href="ConfigService_8hpp.html" target="_top" xlink:title=" ">
<polygon fill="white" stroke="#666666" points="368.75,-77.5 194.5,-77.5 194.5,-56.75 368.75,-56.75 368.75,-77.5"/>
<text text-anchor="middle" x="281.62" y="-64" font-family="Helvetica,sans-Serif" font-size="10.00">validation&#45;api/ConfigService.hpp</text>
</a>
</g>
</g>
<!-- Node1&#45;&gt;Node4 -->
<g id="edge3_Node000001_Node000004" class="edge">
<title>Node1&#45;&gt;Node4</title>
<g id="a_edge3_Node000001_Node000004"><a xlink:title=" ">
<path fill="none" stroke="#63b8ff" d="M229.28,-113.19C239.22,-104.63 251.45,-94.1 261.59,-85.37"/>
<polygon fill="#63b8ff" stroke="#63b8ff" points="263.75,-88.13 269.05,-78.95 259.18,-82.83 263.75,-88.13"/>
</a>
</g>
</g>
<!-- Node9 -->
<g id="Node000009" class="node">
<title>Node9</title>
<g id="a_Node000009"><a xlink:href="IService_8hpp.html" target="_top" xlink:title=" ">
<polygon fill="white" stroke="#666666" points="532.88,-77.5 386.38,-77.5 386.38,-56.75 532.88,-56.75 532.88,-77.5"/>
<text text-anchor="middle" x="459.62" y="-64" font-family="Helvetica,sans-Serif" font-size="10.00">validation&#45;api/IService.hpp</text>
</a>
</g>
</g>
<!-- Node1&#45;&gt;Node9 -->
<g id="edge8_Node000001_Node000009" class="edge">
<title>Node1&#45;&gt;Node9</title>
<g id="a_edge8_Node000001_Node000009"><a xlink:title=" ">
<path fill="none" stroke="#63b8ff" d="M276.7,-113.03C318.14,-102.86 370.74,-89.94 408.89,-80.58"/>
<polygon fill="#63b8ff" stroke="#63b8ff" points="409.4,-84.06 418.27,-78.28 407.73,-77.26 409.4,-84.06"/>
</a>
</g>
</g>
<!-- Node5 -->
<g id="Node000005" class="node">
<title>Node5</title>
<g id="a_Node000005"><a xlink:title=" ">
<polygon fill="#e0e0e0" stroke="#999999" points="152.88,-20.75 60.38,-20.75 60.38,0 152.88,0 152.88,-20.75"/>
<text text-anchor="middle" x="106.62" y="-7.25" font-family="Helvetica,sans-Serif" font-size="10.00">spdlog/spdlog.h</text>
</a>
</g>
</g>
<!-- Node4&#45;&gt;Node5 -->
<g id="edge4_Node000004_Node000005" class="edge">
<title>Node4&#45;&gt;Node5</title>
<g id="a_edge4_Node000004_Node000005"><a xlink:title=" ">
<path fill="none" stroke="#63b8ff" d="M250.34,-56.34C221.93,-47.45 179.82,-34.27 148.52,-24.48"/>
<polygon fill="#63b8ff" stroke="#63b8ff" points="149.97,-21.27 139.38,-21.62 147.88,-27.95 149.97,-21.27"/>
</a>
</g>
</g>
<!-- Node6 -->
<g id="Node000006" class="node">
<title>Node6</title>
<g id="a_Node000006"><a xlink:title=" ">
<polygon fill="#e0e0e0" stroke="#999999" points="269.88,-20.75 171.38,-20.75 171.38,0 269.88,0 269.88,-20.75"/>
<text text-anchor="middle" x="220.62" y="-7.25" font-family="Helvetica,sans-Serif" font-size="10.00">boost/thread.hpp</text>
</a>
</g>
</g>
<!-- Node4&#45;&gt;Node6 -->
<g id="edge5_Node000004_Node000006" class="edge">
<title>Node4&#45;&gt;Node6</title>
<g id="a_edge5_Node000004_Node000006"><a xlink:title=" ">
<path fill="none" stroke="#63b8ff" d="M270.72,-56.34C262.13,-48.63 249.95,-37.7 239.75,-28.54"/>
<polygon fill="#63b8ff" stroke="#63b8ff" points="242.34,-26.16 232.56,-22.09 237.67,-31.37 242.34,-26.16"/>
</a>
</g>
</g>
<!-- Node7 -->
<g id="Node000007" class="node">
<title>Node7</title>
<g id="a_Node000007"><a xlink:title=" ">
<polygon fill="#e0e0e0" stroke="#999999" points="397.12,-20.75 288.12,-20.75 288.12,0 397.12,0 397.12,-20.75"/>
<text text-anchor="middle" x="342.62" y="-7.25" font-family="Helvetica,sans-Serif" font-size="10.00">nlohmann/json.hpp</text>
</a>
</g>
</g>
<!-- Node4&#45;&gt;Node7 -->
<g id="edge6_Node000004_Node000007" class="edge">
<title>Node4&#45;&gt;Node7</title>
<g id="a_edge6_Node000004_Node000007"><a xlink:title=" ">
<path fill="none" stroke="#63b8ff" d="M292.53,-56.34C301.12,-48.63 313.3,-37.7 323.5,-28.54"/>
<polygon fill="#63b8ff" stroke="#63b8ff" points="325.58,-31.37 330.69,-22.09 320.91,-26.16 325.58,-31.37"/>
</a>
</g>
</g>
<!-- Node8 -->
<g id="Node000008" class="node">
<title>Node8</title>
<g id="a_Node000008"><a xlink:title=" ">
<polygon fill="#e0e0e0" stroke="#999999" points="492,-20.75 415.25,-20.75 415.25,0 492,0 492,-20.75"/>
<text text-anchor="middle" x="453.62" y="-7.25" font-family="Helvetica,sans-Serif" font-size="10.00">pugixml.hpp</text>
</a>
</g>
</g>
<!-- Node4&#45;&gt;Node8 -->
<g id="edge7_Node000004_Node000008" class="edge">
<title>Node4&#45;&gt;Node8</title>
<g id="a_edge7_Node000004_Node000008"><a xlink:title=" ">
<path fill="none" stroke="#63b8ff" d="M312.38,-56.34C340.17,-47.49 381.32,-34.39 412.05,-24.61"/>
<polygon fill="#63b8ff" stroke="#63b8ff" points="412.94,-28 421.41,-21.63 410.82,-21.33 412.94,-28"/>
</a>
</g>
</g>
</g>
</svg>
