<?xml version="1.0" encoding="UTF-8" standalone="no"?>
<!DOCTYPE svg PUBLIC "-//W3C//DTD SVG 1.1//EN"
 "http://www.w3.org/Graphics/SVG/1.1/DTD/svg11.dtd">
<!-- Generated by graphviz version 10.0.1 (0)
 -->
<!-- Title: src/ValidationServer.cpp Pages: 1 -->
<svg width="791pt" height="212pt"
 viewBox="0.00 0.00 790.50 211.75" xmlns="http://www.w3.org/2000/svg" xmlns:xlink="http://www.w3.org/1999/xlink">
<g id="graph0" class="graph" transform="scale(1 1) rotate(0) translate(4 207.75)">
<title>src/ValidationServer.cpp</title>
<!-- Node1 -->
<g id="Node000001" class="node">
<title>Node1</title>
<g id="a_Node000001"><a xlink:title=" ">
<polygon fill="#999999" stroke="#666666" points="317.62,-203.75 184.62,-203.75 184.62,-183 317.62,-183 317.62,-203.75"/>
<text text-anchor="middle" x="251.12" y="-190.25" font-family="Helvetica,sans-Serif" font-size="10.00">src/ValidationServer.cpp</text>
</a>
</g>
</g>
<!-- Node2 -->
<g id="Node000002" class="node">
<title>Node2</title>
<g id="a_Node000002"><a xlink:title=" ">
<polygon fill="#e0e0e0" stroke="#999999" points="78.25,-140.62 0,-140.62 0,-119.88 78.25,-119.88 78.25,-140.62"/>
<text text-anchor="middle" x="39.12" y="-127.12" font-family="Helvetica,sans-Serif" font-size="10.00">fmt/format.h</text>
</a>
</g>
</g>
<!-- Node1&#45;&gt;Node2 -->
<g id="edge1_Node000001_Node000002" class="edge">
<title>Node1&#45;&gt;Node2</title>
<g id="a_edge1_Node000001_Node000002"><a xlink:title=" ">
<path fill="none" stroke="#63b8ff" d="M213.53,-182.51C180.19,-173.64 130.25,-160.03 87.12,-147 84.54,-146.22 81.88,-145.4 79.21,-144.56"/>
<polygon fill="#63b8ff" stroke="#63b8ff" points="80.28,-141.23 69.69,-141.51 78.14,-147.89 80.28,-141.23"/>
</a>
</g>
</g>
<!-- Node3 -->
<g id="Node000003" class="node">
<title>Node3</title>
<g id="a_Node000003"><a xlink:title=" ">
<polygon fill="#e0e0e0" stroke="#999999" points="211.62,-140.62 96.62,-140.62 96.62,-119.88 211.62,-119.88 211.62,-140.62"/>
<text text-anchor="middle" x="154.12" y="-127.12" font-family="Helvetica,sans-Serif" font-size="10.00">boost/asio/write.hpp</text>
</a>
</g>
</g>
<!-- Node1&#45;&gt;Node3 -->
<g id="edge2_Node000001_Node000003" class="edge">
<title>Node1&#45;&gt;Node3</title>
<g id="a_edge2_Node000001_Node000003"><a xlink:title=" ">
<path fill="none" stroke="#63b8ff" d="M235.54,-182.55C220.41,-173.02 197.18,-158.38 179.41,-147.18"/>
<polygon fill="#63b8ff" stroke="#63b8ff" points="181.28,-144.22 170.95,-141.85 177.55,-150.15 181.28,-144.22"/>
</a>
</g>
</g>
<!-- Node4 -->
<g id="Node000004" class="node">
<title>Node4</title>
<g id="a_Node000004"><a xlink:title=" ">
<polygon fill="#e0e0e0" stroke="#999999" points="273,-140.62 229.25,-140.62 229.25,-119.88 273,-119.88 273,-140.62"/>
<text text-anchor="middle" x="251.12" y="-127.12" font-family="Helvetica,sans-Serif" font-size="10.00">string</text>
</a>
</g>
</g>
<!-- Node1&#45;&gt;Node4 -->
<g id="edge3_Node000001_Node000004" class="edge">
<title>Node1&#45;&gt;Node4</title>
<g id="a_edge3_Node000001_Node000004"><a xlink:title=" ">
<path fill="none" stroke="#63b8ff" d="M251.12,-182.55C251.12,-174.4 251.12,-162.51 251.12,-152.23"/>
<polygon fill="#63b8ff" stroke="#63b8ff" points="254.63,-152.36 251.13,-142.36 247.63,-152.36 254.63,-152.36"/>
</a>
</g>
</g>
<!-- Node5 -->
<g id="Node000005" class="node">
<title>Node5</title>
<g id="a_Node000005"><a xlink:href="ValidationServer_8hpp.html" target="_top" xlink:title=" ">
<polygon fill="white" stroke="#666666" points="426.75,-147 291.5,-147 291.5,-113.5 426.75,-113.5 426.75,-147"/>
<text text-anchor="start" x="299.5" y="-133.5" font-family="Helvetica,sans-Serif" font-size="10.00">validation&#45;api/Validation</text>
<text text-anchor="middle" x="359.12" y="-120.75" font-family="Helvetica,sans-Serif" font-size="10.00">Server.hpp</text>
</a>
</g>
</g>
<!-- Node1&#45;&gt;Node5 -->
<g id="edge4_Node000001_Node000005" class="edge">
<title>Node1&#45;&gt;Node5</title>
<g id="a_edge4_Node000001_Node000005"><a xlink:title=" ">
<path fill="none" stroke="#63b8ff" d="M268.48,-182.55C282.56,-174.58 302.95,-163.04 320.82,-152.93"/>
<polygon fill="#63b8ff" stroke="#63b8ff" points="322.14,-156.2 329.12,-148.23 318.7,-150.11 322.14,-156.2"/>
</a>
</g>
</g>
<!-- Node14 -->
<g id="Node000014" class="node">
<title>Node14</title>
<g id="a_Node000014"><a xlink:href="Helpers_8hpp.html" target="_top" xlink:title=" ">
<polygon fill="white" stroke="#666666" points="638.88,-140.62 549.38,-140.62 549.38,-119.88 638.88,-119.88 638.88,-140.62"/>
<text text-anchor="middle" x="594.12" y="-127.12" font-family="Helvetica,sans-Serif" font-size="10.00">lib/Helpers.hpp</text>
</a>
</g>
</g>
<!-- Node1&#45;&gt;Node14 -->
<g id="edge13_Node000001_Node000014" class="edge">
<title>Node1&#45;&gt;Node14</title>
<g id="a_edge13_Node000001_Node000014"><a xlink:title=" ">
<path fill="none" stroke="#63b8ff" d="M306.23,-182.55C369.83,-171.22 473.86,-152.68 537.92,-141.27"/>
<polygon fill="#63b8ff" stroke="#63b8ff" points="538.29,-144.76 547.52,-139.56 537.06,-137.86 538.29,-144.76"/>
</a>
</g>
</g>
<!-- Node6 -->
<g id="Node000006" class="node">
<title>Node6</title>
<g id="a_Node000006"><a xlink:title=" ">
<polygon fill="#e0e0e0" stroke="#999999" points="178.75,-77.5 91.5,-77.5 91.5,-56.75 178.75,-56.75 178.75,-77.5"/>
<text text-anchor="middle" x="135.12" y="-64" font-family="Helvetica,sans-Serif" font-size="10.00">boost/asio.hpp</text>
</a>
</g>
</g>
<!-- Node5&#45;&gt;Node6 -->
<g id="edge5_Node000005_Node000006" class="edge">
<title>Node5&#45;&gt;Node6</title>
<g id="a_edge5_Node000005_Node000006"><a xlink:title=" ">
<path fill="none" stroke="#63b8ff" d="M299.69,-113.03C262.89,-102.99 216.3,-90.28 182.1,-80.94"/>
<polygon fill="#63b8ff" stroke="#63b8ff" points="183.03,-77.57 172.46,-78.31 181.19,-84.32 183.03,-77.57"/>
</a>
</g>
</g>
<!-- Node7 -->
<g id="Node000007" class="node">
<title>Node7</title>
<g id="a_Node000007"><a xlink:title=" ">
<polygon fill="#e0e0e0" stroke="#999999" points="267.5,-77.5 196.75,-77.5 196.75,-56.75 267.5,-56.75 267.5,-77.5"/>
<text text-anchor="middle" x="232.12" y="-64" font-family="Helvetica,sans-Serif" font-size="10.00">semaphore</text>
</a>
</g>
</g>
<!-- Node5&#45;&gt;Node7 -->
<g id="edge6_Node000005_Node000007" class="edge">
<title>Node5&#45;&gt;Node7</title>
<g id="a_edge6_Node000005_Node000007"><a xlink:title=" ">
<path fill="none" stroke="#63b8ff" d="M325.42,-113.03C305.92,-103.64 281.57,-91.92 262.64,-82.81"/>
<polygon fill="#63b8ff" stroke="#63b8ff" points="264.36,-79.75 253.83,-78.57 261.32,-86.06 264.36,-79.75"/>
</a>
</g>
</g>
<!-- Node8 -->
<g id="Node000008" class="node">
<title>Node8</title>
<g id="a_Node000008"><a xlink:href="ConfigService_8hpp.html" target="_top" xlink:title=" ">
<polygon fill="white" stroke="#666666" points="624.25,-77.5 450,-77.5 450,-56.75 624.25,-56.75 624.25,-77.5"/>
<text text-anchor="middle" x="537.12" y="-64" font-family="Helvetica,sans-Serif" font-size="10.00">validation&#45;api/ConfigService.hpp</text>
</a>
</g>
</g>
<!-- Node5&#45;&gt;Node8 -->
<g id="edge7_Node000005_Node000008" class="edge">
<title>Node5&#45;&gt;Node8</title>
<g id="a_edge7_Node000005_Node000008"><a xlink:title=" ">
<path fill="none" stroke="#63b8ff" d="M406.36,-113.03C434.96,-103.21 471.01,-90.83 498.01,-81.56"/>
<polygon fill="#63b8ff" stroke="#63b8ff" points="498.86,-84.96 507.18,-78.41 496.59,-78.34 498.86,-84.96"/>
</a>
</g>
</g>
<!-- Node13 -->
<g id="Node000013" class="node">
<title>Node13</title>
<g id="a_Node000013"><a xlink:href="IService_8hpp.html" target="_top" xlink:title=" ">
<polygon fill="white" stroke="#666666" points="432.38,-77.5 285.88,-77.5 285.88,-56.75 432.38,-56.75 432.38,-77.5"/>
<text text-anchor="middle" x="359.12" y="-64" font-family="Helvetica,sans-Serif" font-size="10.00">validation&#45;api/IService.hpp</text>
</a>
</g>
</g>
<!-- Node5&#45;&gt;Node13 -->
<g id="edge12_Node000005_Node000013" class="edge">
<title>Node5&#45;&gt;Node13</title>
<g id="a_edge12_Node000005_Node000013"><a xlink:title=" ">
<path fill="none" stroke="#63b8ff" d="M359.12,-113.19C359.12,-105.85 359.12,-97.07 359.12,-89.21"/>
<polygon fill="#63b8ff" stroke="#63b8ff" points="362.63,-89.48 359.13,-79.48 355.63,-89.48 362.63,-89.48"/>
</a>
</g>
</g>
<!-- Node9 -->
<g id="Node000009" class="node">
<title>Node9</title>
<g id="a_Node000009"><a xlink:title=" ">
<polygon fill="#e0e0e0" stroke="#999999" points="443.38,-20.75 350.88,-20.75 350.88,0 443.38,0 443.38,-20.75"/>
<text text-anchor="middle" x="397.12" y="-7.25" font-family="Helvetica,sans-Serif" font-size="10.00">spdlog/spdlog.h</text>
</a>
</g>
</g>
<!-- Node8&#45;&gt;Node9 -->
<g id="edge8_Node000008_Node000009" class="edge">
<title>Node8&#45;&gt;Node9</title>
<g id="a_edge8_Node000008_Node000009"><a xlink:title=" ">
<path fill="none" stroke="#63b8ff" d="M512.1,-56.34C489.9,-47.66 457.24,-34.88 432.39,-25.17"/>
<polygon fill="#63b8ff" stroke="#63b8ff" points="433.94,-22.01 423.35,-21.63 431.39,-28.53 433.94,-22.01"/>
</a>
</g>
</g>
<!-- Node10 -->
<g id="Node000010" class="node">
<title>Node10</title>
<g id="a_Node000010"><a xlink:title=" ">
<polygon fill="#e0e0e0" stroke="#999999" points="560.38,-20.75 461.88,-20.75 461.88,0 560.38,0 560.38,-20.75"/>
<text text-anchor="middle" x="511.12" y="-7.25" font-family="Helvetica,sans-Serif" font-size="10.00">boost/thread.hpp</text>
</a>
</g>
</g>
<!-- Node8&#45;&gt;Node10 -->
<g id="edge9_Node000008_Node000010" class="edge">
<title>Node8&#45;&gt;Node10</title>
<g id="a_edge9_Node000008_Node000010"><a xlink:title=" ">
<path fill="none" stroke="#63b8ff" d="M532.48,-56.34C529.19,-49.41 524.66,-39.87 520.62,-31.36"/>
<polygon fill="#63b8ff" stroke="#63b8ff" points="523.83,-29.98 516.38,-22.45 517.51,-32.98 523.83,-29.98"/>
</a>
</g>
</g>
<!-- Node11 -->
<g id="Node000011" class="node">
<title>Node11</title>
<g id="a_Node000011"><a xlink:title=" ">
<polygon fill="#e0e0e0" stroke="#999999" points="687.62,-20.75 578.62,-20.75 578.62,0 687.62,0 687.62,-20.75"/>
<text text-anchor="middle" x="633.12" y="-7.25" font-family="Helvetica,sans-Serif" font-size="10.00">nlohmann/json.hpp</text>
</a>
</g>
</g>
<!-- Node8&#45;&gt;Node11 -->
<g id="edge10_Node000008_Node000011" class="edge">
<title>Node8&#45;&gt;Node11</title>
<g id="a_edge10_Node000008_Node000011"><a xlink:title=" ">
<path fill="none" stroke="#63b8ff" d="M554.29,-56.34C568.76,-48.08 589.71,-36.13 606.38,-26.63"/>
<polygon fill="#63b8ff" stroke="#63b8ff" points="607.84,-29.82 614.8,-21.83 604.38,-23.74 607.84,-29.82"/>
</a>
</g>
</g>
<!-- Node12 -->
<g id="Node000012" class="node">
<title>Node12</title>
<g id="a_Node000012"><a xlink:title=" ">
<polygon fill="#e0e0e0" stroke="#999999" points="782.5,-20.75 705.75,-20.75 705.75,0 782.5,0 782.5,-20.75"/>
<text text-anchor="middle" x="744.12" y="-7.25" font-family="Helvetica,sans-Serif" font-size="10.00">pugixml.hpp</text>
</a>
</g>
</g>
<!-- Node8&#45;&gt;Node12 -->
<g id="edge11_Node000008_Node000012" class="edge">
<title>Node8&#45;&gt;Node12</title>
<g id="a_edge11_Node000008_Node000012"><a xlink:title=" ">
<path fill="none" stroke="#63b8ff" d="M574.13,-56.34C608.17,-47.33 658.85,-33.93 696.02,-24.1"/>
<polygon fill="#63b8ff" stroke="#63b8ff" points="696.85,-27.5 705.63,-21.56 695.06,-20.73 696.85,-27.5"/>
</a>
</g>
</g>
<!-- Node14&#45;&gt;Node8 -->
<g id="edge16_Node000014_Node000008" class="edge">
<title>Node14&#45;&gt;Node8</title>
<g id="a_edge16_Node000014_Node000008"><a xlink:title=" ">
<path fill="none" stroke="#63b8ff" d="M584.97,-119.43C576.61,-110.47 564.05,-96.99 553.89,-86.1"/>
<polygon fill="#63b8ff" stroke="#63b8ff" points="556.48,-83.75 547.1,-78.83 551.36,-88.53 556.48,-83.75"/>
</a>
</g>
</g>
<!-- Node14&#45;&gt;Node11 -->
<g id="edge14_Node000014_Node000011" class="edge">
<title>Node14&#45;&gt;Node11</title>
<g id="a_edge14_Node000014_Node000011"><a xlink:title=" ">
<path fill="none" stroke="#63b8ff" d="M604.42,-119.72C613.95,-110.12 627.48,-94.36 633.12,-77.5 637.98,-62.98 637.78,-45.64 636.47,-32.36"/>
<polygon fill="#63b8ff" stroke="#63b8ff" points="639.96,-32.06 635.2,-22.6 633.02,-32.97 639.96,-32.06"/>
</a>
</g>
</g>
<!-- Node14&#45;&gt;Node12 -->
<g id="edge15_Node000014_Node000012" class="edge">
<title>Node14&#45;&gt;Node12</title>
<g id="a_edge15_Node000014_Node000012"><a xlink:title=" ">
<path fill="none" stroke="#63b8ff" d="M606.66,-119.4C632.31,-99.24 691.06,-53.08 722.81,-28.12"/>
<polygon fill="#63b8ff" stroke="#63b8ff" points="724.85,-30.98 730.55,-22.05 720.52,-25.47 724.85,-30.98"/>
</a>
</g>
</g>
</g>
</svg>
