<?xml version="1.0" encoding="UTF-8" standalone="no"?>
<!DOCTYPE svg PUBLIC "-//W3C//DTD SVG 1.1//EN"
 "http://www.w3.org/Graphics/SVG/1.1/DTD/svg11.dtd">
<!-- Generated by graphviz version 10.0.1 (0)
 -->
<!-- Title: src/ValidationServer.cpp Pages: 1 -->
<svg width="963pt" height="212pt"
 viewBox="0.00 0.00 962.50 211.75" xmlns="http://www.w3.org/2000/svg" xmlns:xlink="http://www.w3.org/1999/xlink">
<g id="graph0" class="graph" transform="scale(1 1) rotate(0) translate(4 207.75)">
<title>src/ValidationServer.cpp</title>
<!-- Node1 -->
<g id="Node000001" class="node">
<title>Node1</title>
<g id="a_Node000001"><a xlink:title=" ">
<polygon fill="#999999" stroke="#666666" points="440.62,-203.75 307.62,-203.75 307.62,-183 440.62,-183 440.62,-203.75"/>
<text text-anchor="middle" x="374.12" y="-190.25" font-family="Helvetica,sans-Serif" font-size="10.00">src/ValidationServer.cpp</text>
</a>
</g>
</g>
<!-- Node2 -->
<g id="Node000002" class="node">
<title>Node2</title>
<g id="a_Node000002"><a xlink:title=" ">
<polygon fill="#e0e0e0" stroke="#999999" points="78.25,-140.62 0,-140.62 0,-119.88 78.25,-119.88 78.25,-140.62"/>
<text text-anchor="middle" x="39.12" y="-127.12" font-family="Helvetica,sans-Serif" font-size="10.00">fmt/format.h</text>
</a>
</g>
</g>
<!-- Node1&#45;&gt;Node2 -->
<g id="edge1_Node000001_Node000002" class="edge">
<title>Node1&#45;&gt;Node2</title>
<g id="a_edge1_Node000001_Node000002"><a xlink:title=" ">
<path fill="none" stroke="#63b8ff" d="M307.13,-184.87C248.58,-177.58 161.54,-164.97 87.12,-147 83.97,-146.24 80.72,-145.37 77.47,-144.43"/>
<polygon fill="#63b8ff" stroke="#63b8ff" points="78.61,-141.12 68.02,-141.54 76.56,-147.81 78.61,-141.12"/>
</a>
</g>
</g>
<!-- Node3 -->
<g id="Node000003" class="node">
<title>Node3</title>
<g id="a_Node000003"><a xlink:title=" ">
<polygon fill="#e0e0e0" stroke="#999999" points="250.12,-140.62 96.12,-140.62 96.12,-119.88 250.12,-119.88 250.12,-140.62"/>
<text text-anchor="middle" x="173.12" y="-127.12" font-family="Helvetica,sans-Serif" font-size="10.00">boost/asio/steady_timer.hpp</text>
</a>
</g>
</g>
<!-- Node1&#45;&gt;Node3 -->
<g id="edge2_Node000001_Node000003" class="edge">
<title>Node1&#45;&gt;Node3</title>
<g id="a_edge2_Node000001_Node000003"><a xlink:title=" ">
<path fill="none" stroke="#63b8ff" d="M341.83,-182.55C307.69,-172.17 253.67,-155.74 215.99,-144.28"/>
<polygon fill="#63b8ff" stroke="#63b8ff" points="217.37,-141.05 206.79,-141.49 215.34,-147.74 217.37,-141.05"/>
</a>
</g>
</g>
<!-- Node4 -->
<g id="Node000004" class="node">
<title>Node4</title>
<g id="a_Node000004"><a xlink:title=" ">
<polygon fill="#e0e0e0" stroke="#999999" points="383.62,-140.62 268.62,-140.62 268.62,-119.88 383.62,-119.88 383.62,-140.62"/>
<text text-anchor="middle" x="326.12" y="-127.12" font-family="Helvetica,sans-Serif" font-size="10.00">boost/asio/write.hpp</text>
</a>
</g>
</g>
<!-- Node1&#45;&gt;Node4 -->
<g id="edge3_Node000001_Node000004" class="edge">
<title>Node1&#45;&gt;Node4</title>
<g id="a_edge3_Node000001_Node000004"><a xlink:title=" ">
<path fill="none" stroke="#63b8ff" d="M366.41,-182.55C359.51,-173.77 349.22,-160.66 340.76,-149.89"/>
<polygon fill="#63b8ff" stroke="#63b8ff" points="343.52,-147.74 334.59,-142.04 338.02,-152.06 343.52,-147.74"/>
</a>
</g>
</g>
<!-- Node5 -->
<g id="Node000005" class="node">
<title>Node5</title>
<g id="a_Node000005"><a xlink:title=" ">
<polygon fill="#e0e0e0" stroke="#999999" points="445,-140.62 401.25,-140.62 401.25,-119.88 445,-119.88 445,-140.62"/>
<text text-anchor="middle" x="423.12" y="-127.12" font-family="Helvetica,sans-Serif" font-size="10.00">string</text>
</a>
</g>
</g>
<!-- Node1&#45;&gt;Node5 -->
<g id="edge4_Node000001_Node000005" class="edge">
<title>Node1&#45;&gt;Node5</title>
<g id="a_edge4_Node000001_Node000005"><a xlink:title=" ">
<path fill="none" stroke="#63b8ff" d="M382,-182.55C389.11,-173.68 399.77,-160.39 408.45,-149.56"/>
<polygon fill="#63b8ff" stroke="#63b8ff" points="410.96,-152.02 414.49,-142.03 405.5,-147.64 410.96,-152.02"/>
</a>
</g>
</g>
<!-- Node6 -->
<g id="Node000006" class="node">
<title>Node6</title>
<g id="a_Node000006"><a xlink:href="ValidationServer_8hpp.html" target="_top" xlink:title=" ">
<polygon fill="white" stroke="#666666" points="598.75,-147 463.5,-147 463.5,-113.5 598.75,-113.5 598.75,-147"/>
<text text-anchor="start" x="471.5" y="-133.5" font-family="Helvetica,sans-Serif" font-size="10.00">validation&#45;api/Validation</text>
<text text-anchor="middle" x="531.12" y="-120.75" font-family="Helvetica,sans-Serif" font-size="10.00">Server.hpp</text>
</a>
</g>
</g>
<!-- Node1&#45;&gt;Node6 -->
<g id="edge5_Node000001_Node000006" class="edge">
<title>Node1&#45;&gt;Node6</title>
<g id="a_edge5_Node000001_Node000006"><a xlink:title=" ">
<path fill="none" stroke="#63b8ff" d="M399.35,-182.55C420.78,-174.21 452.23,-161.97 479.03,-151.53"/>
<polygon fill="#63b8ff" stroke="#63b8ff" points="479.97,-154.92 488.02,-148.03 477.43,-148.4 479.97,-154.92"/>
</a>
</g>
</g>
<!-- Node15 -->
<g id="Node000015" class="node">
<title>Node15</title>
<g id="a_Node000015"><a xlink:href="Helpers_8hpp.html" target="_top" xlink:title=" ">
<polygon fill="white" stroke="#666666" points="810.88,-140.62 721.38,-140.62 721.38,-119.88 810.88,-119.88 810.88,-140.62"/>
<text text-anchor="middle" x="766.12" y="-127.12" font-family="Helvetica,sans-Serif" font-size="10.00">lib/Helpers.hpp</text>
</a>
</g>
</g>
<!-- Node1&#45;&gt;Node15 -->
<g id="edge14_Node000001_Node000015" class="edge">
<title>Node1&#45;&gt;Node15</title>
<g id="a_edge14_Node000001_Node000015"><a xlink:title=" ">
<path fill="none" stroke="#63b8ff" d="M437.11,-182.55C512.5,-170.8 637.61,-151.29 709.89,-140.02"/>
<polygon fill="#63b8ff" stroke="#63b8ff" points="710.18,-143.52 719.52,-138.52 709.1,-136.6 710.18,-143.52"/>
</a>
</g>
</g>
<!-- Node7 -->
<g id="Node000007" class="node">
<title>Node7</title>
<g id="a_Node000007"><a xlink:title=" ">
<polygon fill="#e0e0e0" stroke="#999999" points="350.75,-77.5 263.5,-77.5 263.5,-56.75 350.75,-56.75 350.75,-77.5"/>
<text text-anchor="middle" x="307.12" y="-64" font-family="Helvetica,sans-Serif" font-size="10.00">boost/asio.hpp</text>
</a>
</g>
</g>
<!-- Node6&#45;&gt;Node7 -->
<g id="edge6_Node000006_Node000007" class="edge">
<title>Node6&#45;&gt;Node7</title>
<g id="a_edge6_Node000006_Node000007"><a xlink:title=" ">
<path fill="none" stroke="#63b8ff" d="M471.69,-113.03C434.89,-102.99 388.3,-90.28 354.1,-80.94"/>
<polygon fill="#63b8ff" stroke="#63b8ff" points="355.03,-77.57 344.46,-78.31 353.19,-84.32 355.03,-77.57"/>
</a>
</g>
</g>
<!-- Node8 -->
<g id="Node000008" class="node">
<title>Node8</title>
<g id="a_Node000008"><a xlink:title=" ">
<polygon fill="#e0e0e0" stroke="#999999" points="439.5,-77.5 368.75,-77.5 368.75,-56.75 439.5,-56.75 439.5,-77.5"/>
<text text-anchor="middle" x="404.12" y="-64" font-family="Helvetica,sans-Serif" font-size="10.00">semaphore</text>
</a>
</g>
</g>
<!-- Node6&#45;&gt;Node8 -->
<g id="edge7_Node000006_Node000008" class="edge">
<title>Node6&#45;&gt;Node8</title>
<g id="a_edge7_Node000006_Node000008"><a xlink:title=" ">
<path fill="none" stroke="#63b8ff" d="M497.42,-113.03C477.92,-103.64 453.57,-91.92 434.64,-82.81"/>
<polygon fill="#63b8ff" stroke="#63b8ff" points="436.36,-79.75 425.83,-78.57 433.32,-86.06 436.36,-79.75"/>
</a>
</g>
</g>
<!-- Node9 -->
<g id="Node000009" class="node">
<title>Node9</title>
<g id="a_Node000009"><a xlink:href="ConfigService_8hpp.html" target="_top" xlink:title=" ">
<polygon fill="white" stroke="#666666" points="796.25,-77.5 622,-77.5 622,-56.75 796.25,-56.75 796.25,-77.5"/>
<text text-anchor="middle" x="709.12" y="-64" font-family="Helvetica,sans-Serif" font-size="10.00">validation&#45;api/ConfigService.hpp</text>
</a>
</g>
</g>
<!-- Node6&#45;&gt;Node9 -->
<g id="edge8_Node000006_Node000009" class="edge">
<title>Node6&#45;&gt;Node9</title>
<g id="a_edge8_Node000006_Node000009"><a xlink:title=" ">
<path fill="none" stroke="#63b8ff" d="M578.36,-113.03C606.96,-103.21 643.01,-90.83 670.01,-81.56"/>
<polygon fill="#63b8ff" stroke="#63b8ff" points="670.86,-84.96 679.18,-78.41 668.59,-78.34 670.86,-84.96"/>
</a>
</g>
</g>
<!-- Node14 -->
<g id="Node000014" class="node">
<title>Node14</title>
<g id="a_Node000014"><a xlink:href="IService_8hpp.html" target="_top" xlink:title=" ">
<polygon fill="white" stroke="#666666" points="604.38,-77.5 457.88,-77.5 457.88,-56.75 604.38,-56.75 604.38,-77.5"/>
<text text-anchor="middle" x="531.12" y="-64" font-family="Helvetica,sans-Serif" font-size="10.00">validation&#45;api/IService.hpp</text>
</a>
</g>
</g>
<!-- Node6&#45;&gt;Node14 -->
<g id="edge13_Node000006_Node000014" class="edge">
<title>Node6&#45;&gt;Node14</title>
<g id="a_edge13_Node000006_Node000014"><a xlink:title=" ">
<path fill="none" stroke="#63b8ff" d="M531.12,-113.19C531.12,-105.85 531.12,-97.07 531.12,-89.21"/>
<polygon fill="#63b8ff" stroke="#63b8ff" points="534.63,-89.48 531.13,-79.48 527.63,-89.48 534.63,-89.48"/>
</a>
</g>
</g>
<!-- Node10 -->
<g id="Node000010" class="node">
<title>Node10</title>
<g id="a_Node000010"><a xlink:title=" ">
<polygon fill="#e0e0e0" stroke="#999999" points="615.38,-20.75 522.88,-20.75 522.88,0 615.38,0 615.38,-20.75"/>
<text text-anchor="middle" x="569.12" y="-7.25" font-family="Helvetica,sans-Serif" font-size="10.00">spdlog/spdlog.h</text>
</a>
</g>
</g>
<!-- Node9&#45;&gt;Node10 -->
<g id="edge9_Node000009_Node000010" class="edge">
<title>Node9&#45;&gt;Node10</title>
<g id="a_edge9_Node000009_Node000010"><a xlink:title=" ">
<path fill="none" stroke="#63b8ff" d="M684.1,-56.34C661.9,-47.66 629.24,-34.88 604.39,-25.17"/>
<polygon fill="#63b8ff" stroke="#63b8ff" points="605.94,-22.01 595.35,-21.63 603.39,-28.53 605.94,-22.01"/>
</a>
</g>
</g>
<!-- Node11 -->
<g id="Node000011" class="node">
<title>Node11</title>
<g id="a_Node000011"><a xlink:title=" ">
<polygon fill="#e0e0e0" stroke="#999999" points="732.38,-20.75 633.88,-20.75 633.88,0 732.38,0 732.38,-20.75"/>
<text text-anchor="middle" x="683.12" y="-7.25" font-family="Helvetica,sans-Serif" font-size="10.00">boost/thread.hpp</text>
</a>
</g>
</g>
<!-- Node9&#45;&gt;Node11 -->
<g id="edge10_Node000009_Node000011" class="edge">
<title>Node9&#45;&gt;Node11</title>
<g id="a_edge10_Node000009_Node000011"><a xlink:title=" ">
<path fill="none" stroke="#63b8ff" d="M704.48,-56.34C701.19,-49.41 696.66,-39.87 692.62,-31.36"/>
<polygon fill="#63b8ff" stroke="#63b8ff" points="695.83,-29.98 688.38,-22.45 689.51,-32.98 695.83,-29.98"/>
</a>
</g>
</g>
<!-- Node12 -->
<g id="Node000012" class="node">
<title>Node12</title>
<g id="a_Node000012"><a xlink:title=" ">
<polygon fill="#e0e0e0" stroke="#999999" points="859.62,-20.75 750.62,-20.75 750.62,0 859.62,0 859.62,-20.75"/>
<text text-anchor="middle" x="805.12" y="-7.25" font-family="Helvetica,sans-Serif" font-size="10.00">nlohmann/json.hpp</text>
</a>
</g>
</g>
<!-- Node9&#45;&gt;Node12 -->
<g id="edge11_Node000009_Node000012" class="edge">
<title>Node9&#45;&gt;Node12</title>
<g id="a_edge11_Node000009_Node000012"><a xlink:title=" ">
<path fill="none" stroke="#63b8ff" d="M726.29,-56.34C740.76,-48.08 761.71,-36.13 778.38,-26.63"/>
<polygon fill="#63b8ff" stroke="#63b8ff" points="779.84,-29.82 786.8,-21.83 776.38,-23.74 779.84,-29.82"/>
</a>
</g>
</g>
<!-- Node13 -->
<g id="Node000013" class="node">
<title>Node13</title>
<g id="a_Node000013"><a xlink:title=" ">
<polygon fill="#e0e0e0" stroke="#999999" points="954.5,-20.75 877.75,-20.75 877.75,0 954.5,0 954.5,-20.75"/>
<text text-anchor="middle" x="916.12" y="-7.25" font-family="Helvetica,sans-Serif" font-size="10.00">pugixml.hpp</text>
</a>
</g>
</g>
<!-- Node9&#45;&gt;Node13 -->
<g id="edge12_Node000009_Node000013" class="edge">
<title>Node9&#45;&gt;Node13</title>
<g id="a_edge12_Node000009_Node000013"><a xlink:title=" ">
<path fill="none" stroke="#63b8ff" d="M746.13,-56.34C780.17,-47.33 830.85,-33.93 868.02,-24.1"/>
<polygon fill="#63b8ff" stroke="#63b8ff" points="868.85,-27.5 877.63,-21.56 867.06,-20.73 868.85,-27.5"/>
</a>
</g>
</g>
<!-- Node15&#45;&gt;Node9 -->
<g id="edge17_Node000015_Node000009" class="edge">
<title>Node15&#45;&gt;Node9</title>
<g id="a_edge17_Node000015_Node000009"><a xlink:title=" ">
<path fill="none" stroke="#63b8ff" d="M756.97,-119.43C748.61,-110.47 736.05,-96.99 725.89,-86.1"/>
<polygon fill="#63b8ff" stroke="#63b8ff" points="728.48,-83.75 719.1,-78.83 723.36,-88.53 728.48,-83.75"/>
</a>
</g>
</g>
<!-- Node15&#45;&gt;Node12 -->
<g id="edge15_Node000015_Node000012" class="edge">
<title>Node15&#45;&gt;Node12</title>
<g id="a_edge15_Node000015_Node000012"><a xlink:title=" ">
<path fill="none" stroke="#63b8ff" d="M776.42,-119.72C785.95,-110.12 799.48,-94.36 805.12,-77.5 809.98,-62.98 809.78,-45.64 808.47,-32.36"/>
<polygon fill="#63b8ff" stroke="#63b8ff" points="811.96,-32.06 807.2,-22.6 805.02,-32.97 811.96,-32.06"/>
</a>
</g>
</g>
<!-- Node15&#45;&gt;Node13 -->
<g id="edge16_Node000015_Node000013" class="edge">
<title>Node15&#45;&gt;Node13</title>
<g id="a_edge16_Node000015_Node000013"><a xlink:title=" ">
<path fill="none" stroke="#63b8ff" d="M778.66,-119.4C804.31,-99.24 863.06,-53.08 894.81,-28.12"/>
<polygon fill="#63b8ff" stroke="#63b8ff" points="896.85,-30.98 902.55,-22.05 892.52,-25.47 896.85,-30.98"/>
</a>
</g>
</g>
</g>
</svg>
