<?xml version="1.0" encoding="UTF-8" standalone="no"?>
<!DOCTYPE svg PUBLIC "-//W3C//DTD SVG 1.1//EN"
 "http://www.w3.org/Graphics/SVG/1.1/DTD/svg11.dtd">
<!-- Generated by graphviz version 10.0.1 (0)
 -->
<!-- Title: include/validation&#45;api/ValidationServer.hpp Pages: 1 -->
<svg width="238pt" height="98pt"
 viewBox="0.00 0.00 237.62 98.25" xmlns="http://www.w3.org/2000/svg" xmlns:xlink="http://www.w3.org/1999/xlink">
<g id="graph0" class="graph" transform="scale(1 1) rotate(0) translate(4 94.25)">
<title>include/validation&#45;api/ValidationServer.hpp</title>
<!-- Node1 -->
<g id="Node000001" class="node">
<title>Node1</title>
<g id="a_Node000001"><a xlink:title=" ">
<polygon fill="#999999" stroke="#666666" points="197.62,-90.25 59.38,-90.25 59.38,-56.75 197.62,-56.75 197.62,-90.25"/>
<text text-anchor="start" x="67.38" y="-76.75" font-family="Helvetica,sans-Serif" font-size="10.00">include/validation</text>
<text text-anchor="middle" x="128.5" y="-64" font-family="Helvetica,sans-Serif" font-size="10.00">&#45;api/ValidationServer.hpp</text>
</a>
</g>
</g>
<!-- Node2 -->
<g id="Node000002" class="node">
<title>Node2</title>
<g id="a_Node000002"><a xlink:href="ValidationServer_8cpp.html" target="_top" xlink:title=" ">
<polygon fill="white" stroke="#666666" points="133,-20.75 0,-20.75 0,0 133,0 133,-20.75"/>
<text text-anchor="middle" x="66.5" y="-7.25" font-family="Helvetica,sans-Serif" font-size="10.00">src/ValidationServer.cpp</text>
</a>
</g>
</g>
<!-- Node1&#45;&gt;Node2 -->
<g id="edge1_Node000001_Node000002" class="edge">
<title>Node1&#45;&gt;Node2</title>
<g id="a_edge1_Node000001_Node000002"><a xlink:title=" ">
<path fill="none" stroke="#63b8ff" d="M104.08,-48.42C94.45,-38.93 83.94,-28.56 76.48,-21.22"/>
<polygon fill="#63b8ff" stroke="#63b8ff" points="101.55,-50.85 111.13,-55.38 106.47,-45.86 101.55,-50.85"/>
</a>
</g>
</g>
<!-- Node3 -->
<g id="Node000003" class="node">
<title>Node3</title>
<g id="a_Node000003"><a xlink:href="main_8cpp.html" target="_top" xlink:title=" ">
<polygon fill="white" stroke="#666666" points="229.62,-20.75 151.38,-20.75 151.38,0 229.62,0 229.62,-20.75"/>
<text text-anchor="middle" x="190.5" y="-7.25" font-family="Helvetica,sans-Serif" font-size="10.00">src/main.cpp</text>
</a>
</g>
</g>
<!-- Node1&#45;&gt;Node3 -->
<g id="edge2_Node000001_Node000003" class="edge">
<title>Node1&#45;&gt;Node3</title>
<g id="a_edge2_Node000001_Node000003"><a xlink:title=" ">
<path fill="none" stroke="#63b8ff" d="M152.92,-48.42C162.55,-38.93 173.06,-28.56 180.52,-21.22"/>
<polygon fill="#63b8ff" stroke="#63b8ff" points="150.53,-45.86 145.87,-55.38 155.45,-50.85 150.53,-45.86"/>
</a>
</g>
</g>
</g>
</svg>
